<?xml version="1.0" encoding="UTF-8"?>
<svg id="Layer_2" data-name="Layer 2" xmlns="http://www.w3.org/2000/svg" viewBox="0 0 567.49 119.58">
  <defs>
    <style>
      .cls-1 {
        fill: #231815;
        stroke: #231815;
        stroke-linecap: round;
        stroke-linejoin: round;
        stroke-width: .44px;
      }
    </style>
  </defs>
  <g id="_レイヤー_1" data-name="レイヤー 1">
    <g>
      <path class="cls-1" d="M62.12,12.56c0,.59-.4,1.42-1.08,1.42-.42,0-.57-.17-.99-.88-.51-.88-1.59-1.76-2.58-2.32-.08-.06-.28-.17-.28-.28,0-.43,1.81-.43,1.98-.43,1.22,0,2.95,1.11,2.95,2.49ZM58.77,21.26c-.08-.17-.54-.77-.59-.91-.11-.2-.14-.42-.14-.51,0-.17.11-.23.23-.23.08,0,1.36.45,1.64.45,1.53,0,9.24-4.22,14.22-8.81.31-.31,1.96-1.98,2.04-1.98.06,0,.17.06.17.17,0,.06-1.42,4.45-12.52,11.45-1.73,1.08-1.84,1.16-2.07,1.33-1.05.82-1.16.91-1.47.91-.6,0-.94-.65-1.5-1.87ZM65.55,6.89c0,.74-.48,1.33-.94,1.33-.31,0-.42-.14-1.42-1.3-.68-.79-1.25-1.11-2.46-1.53-.4-.14-.42-.14-.42-.25,0-.31,1.3-.6,2.15-.6.34,0,.91.06,1.45.28.74.31,1.64,1.05,1.64,2.07ZM75.04,5.59c0,.34-.37,1.08-.91,1.08-.42,0-.68-.31-1.39-1.42-.48-.71-.74-.94-1.81-1.9-.11-.08-.37-.34-.37-.45,0-.17.34-.2.51-.2,1.64,0,3.97,1.39,3.97,2.89ZM78.01,3.66c0,.45-.28.91-.76.91-.59,0-.99-.59-1.39-1.25-.37-.57-1.42-1.39-2.29-1.84-.25-.14-.31-.28-.31-.34,0-.26.57-.26,1.08-.26.74,0,3.68.82,3.68,2.78Z"/>
      <path class="cls-1" d="M99.07,12.13c0,.45-.4.59-.91.76-.59.2-.74.31-2.01,1.25-.48.34-2.21,1.53-2.58,1.53-.11,0-.14-.11-.14-.14,0-.31,2.47-2.95,2.47-3.66,0-.2-.2-.23-.31-.23-.14,0-3.54.82-3.94.91-1.02.25-1.13.28-1.13.74s1.47,5.13,2.44,7.57c.65,1.67.79,2.1.79,2.61,0,.59-.28,1.19-.6,1.19-.28,0-1.44-.77-1.7-1.59-.14-.45-1.67-7.06-2.07-8.36-.34-1.13-.4-1.28-.79-1.28-.28,0-2.29.51-3.2.91-1.16.48-1.28.54-1.45.54-.28,0-.42-.08-1.67-.93-.37-.26-.57-.54-.57-1.02,0-.17.03-.71.25-.71.08,0,.51.17.62.2.68.23,1.22.23,1.5.23,1.13,0,3.26-.31,3.97-.51.17-.06.4-.2.4-.45,0-.45-.45-2.41-1.39-3.17-.11-.08-.57-.37-.65-.43-.03-.03-.06-.08-.06-.14,0-.45,1.16-.45,1.42-.45,1.16,0,2.1.23,2.1,1.13,0,1.39,0,2.92.65,2.92.59,0,3.6-.65,4.19-.88.25-.08,1.42-.74,1.67-.74.82,0,2.69,1.47,2.69,2.21Z"/>
      <path class="cls-1" d="M111.94,18.54c-.74.54-2.18,1.62-2.78,2.32-.54.65-.59.71-1.02.71-1.53,0-3.63-1.81-3.63-2.95,0-.2.03-1.5.28-1.5.11,0,.74.48.85.54.37.23,1.3.65,1.93.65,1.39,0,8.9-5.02,13.6-9.66.45-.45,1.25-1.25,1.3-1.25s.14.08.14.14c0,.25-3.32,5.55-10.68,10.99ZM109.62,9.22c-.76,0-1.05-.45-1.98-1.87-.96-1.45-1.79-1.87-2.58-2.32-.11-.06-.25-.14-.25-.25s.23-.26.62-.26c3.03,0,5.41,1.62,5.41,3.29,0,.85-.48,1.42-1.22,1.42Z"/>
      <path class="cls-1" d="M126.99,18.68c0-.54.25-.82,1.08-1.33,1.1-.68,2.55-1.98,2.78-2.18.14-.14.45-.42.57-.42s.14.25.14.34c0,1.33-1.33,4.76-3.2,4.76-.23,0-.4-.06-.54-.11-.37-.11-.82-.48-.82-1.05ZM138.1,20.55c0,.43,0,2.3-1.5,2.3-.62,0-.68-.17-1.27-1.81-.34-.91-.48-1.13-1.05-2.01-.11-.2-.17-.25-.17-.34s.06-.11.11-.11c.2,0,1.13.37,1.33.37.37,0,.51-.31.57-.76.14-1.33.14-4.17.14-5.7,0-1.36-.06-1.87-.82-1.87-.17,0-3.57.48-5.24.91-.17.06-.96.31-1.13.31-.62,0-2.04-1.93-2.04-2.49,0-.14.03-.25.2-.25.11,0,.17.03.54.17.65.28,2.1.28,2.52.28.65,0,3.71-.17,4.56-.2,1.08-.06,1.36-.25,1.36-1.19s-.17-2.8-.59-3.63c-.06-.14-.54-.59-.54-.74,0-.08.31-.28.96-.28,1.96,0,2.66,1.25,2.66,1.47,0,.17-.45.79-.51.93-.25.51-.25,1.9-.25,2.18,0,.88.37,1.02,1.11,1.02.91,0,2.27-.23,2.75-.28.37-.06,1.87-.42,2.18-.42.85,0,1.81.42,2.75.96.31.2.71.42.71.91,0,.54-.62.57-.74.57-.42,0-2.27-.31-2.66-.37-1.08-.11-3.15-.14-3.37-.14-2.44,0-2.69,0-2.69,1.62,0,1.36.14,7.4.14,8.61ZM144.93,18.51c-.48-1.19-1.36-2.66-2.29-3.49-.42-.4-1.13-1.05-1.13-1.19s.14-.14.2-.14c1.5,0,6.06,2.75,6.06,5.13,0,.65-.34,1.59-1.28,1.56-.79,0-1.05-.65-1.56-1.87ZM146.32,4.65c.88.54,1.25,1.22,1.25,1.61,0,.57-.34,1.11-.79,1.11-.34,0-.57-.11-1.53-1.13-.59-.62-.93-.82-2.12-1.53-.14-.08-.45-.28-.45-.4,0-.08.23-.28.48-.28,1.53,0,2.18,0,3.17.62ZM149.77,4.09c0,.34-.23.85-.71.85-.59,0-.96-.43-1.47-1.08-.48-.57-1.56-1.25-2.46-1.59-.28-.11-.37-.23-.37-.31,0-.2.51-.34,1.05-.34,2.35,0,3.97,1.25,3.97,2.46Z"/>
      <path class="cls-1" d="M161.34,18.54c-.74.54-2.18,1.62-2.78,2.32-.54.65-.59.71-1.02.71-1.53,0-3.63-1.81-3.63-2.95,0-.2.03-1.5.28-1.5.11,0,.74.48.85.54.37.23,1.3.65,1.93.65,1.39,0,8.9-5.02,13.6-9.66.45-.45,1.25-1.25,1.3-1.25s.14.08.14.14c0,.25-3.32,5.55-10.68,10.99ZM159.01,9.22c-.76,0-1.05-.45-1.98-1.87-.96-1.45-1.79-1.87-2.58-2.32-.11-.06-.25-.14-.25-.25s.23-.26.62-.26c3.03,0,5.41,1.62,5.41,3.29,0,.85-.48,1.42-1.22,1.42Z"/>
      <path class="cls-1" d="M184.72,9.9c.28.11,1.56.77,1.79.77.59,0,1.42-1.98,1.76-2.81.51-1.22,1.05-2.83,1.05-3.4,0-.25-.08-.45-.2-.65-.08-.17-.17-.25-.17-.34,0-.14.08-.25.23-.25.25,0,1.13.31,1.9.91.85.68,1.22,1.84,1.22,2.04,0,.23-.08.25-.71.57-.31.17-.4.31-1.13,1.7-.48.93-1.02,1.9-1.62,2.83-.14.2-.28.45-.28.71,0,.31.25.57.48.76,2.44,2.15,2.78,3.68,2.78,4.39s-.59.94-.91.94c-1.02,0-1.44-.74-2.44-2.49-.28-.51-.82-1.47-1.22-1.47-.25,0-.48.23-.59.4-5.19,6.49-10.85,8.9-11.11,8.9-.08,0-.2-.03-.2-.14s.54-.54.88-.82c4.82-3.77,6.72-5.98,7.51-6.94.68-.85,2.04-2.61,2.04-3.03,0-.6-2.61-2.15-3.68-2.75-.54-.28-.6-.31-.6-.45,0-.11.06-.23.25-.23.37,0,1.62.31,2.98.88Z"/>
      <path class="cls-1" d="M203.17,11.03c0,1.36-.99,1.53-1.16,1.53-.62,0-.74-.17-1.98-2.32-.62-1.05-1.08-1.53-2.27-2.75-.06-.06-.17-.17-.17-.25,0-.11.17-.08.23-.08,1.19.25,5.36,1.05,5.36,3.88ZM213.77,9.33c-.34.54-1.59,3.17-1.87,3.68-2.07,3.74-4.82,7.14-8.44,9.41-1.5.94-3,1.56-3.15,1.56-.08,0-.14-.08-.14-.14,0-.11,2.55-2.24,3-2.66,6.86-6.26,8.53-13.32,8.53-13.71,0-.48-.34-1.05-.79-1.45-.03-.03-.14-.14-.14-.23,0-.25.62-.25.74-.25,1.08,0,1.39.23,2.07.79.28.26,1.19,1.05,1.19,1.67,0,.26-.85,1.13-.99,1.33ZM218.39,5.45c0,.62-.37,1.13-.82,1.13-.34,0-.54-.11-1.5-1.13-.54-.54-.91-.79-2.15-1.5-.14-.08-.45-.28-.45-.4s.23-.25.48-.28c2.72-.34,4.45,1.3,4.45,2.18ZM217,.83c2.32,0,3.17,1.33,3.17,1.96,0,.43-.25.82-.74.82-.54,0-.74-.17-1.47-.79-.54-.42-1.76-.93-2.72-1.1-.28-.06-.42-.17-.42-.25,0-.17.45-.42.96-.51.4-.08.93-.11,1.22-.11Z"/>
      <path class="cls-1" d="M231.65,18.54c-.74.54-2.18,1.62-2.78,2.32-.54.65-.59.71-1.02.71-1.53,0-3.63-1.81-3.63-2.95,0-.2.03-1.5.28-1.5.11,0,.74.48.85.54.37.23,1.3.65,1.93.65,1.39,0,8.9-5.02,13.6-9.66.45-.45,1.25-1.25,1.3-1.25s.14.08.14.14c0,.25-3.32,5.55-10.68,10.99ZM229.33,9.22c-.76,0-1.05-.45-1.98-1.87-.96-1.45-1.79-1.87-2.58-2.32-.11-.06-.25-.14-.25-.25s.23-.26.62-.26c3.03,0,5.41,1.62,5.41,3.29,0,.85-.48,1.42-1.22,1.42Z"/>
      <path class="cls-1" d="M249.65,14.85c.85-.79,1.22-1.16,1.22-1.53,0-.08-.2-.74-.25-.88-.34-1.08-.48-1.73-.48-3.32,0-.65.14-3.94.14-4.68,0-1.42-.4-1.84-.85-2.29-.6-.62-.68-.71-.68-.79,0-.11.68-.14.77-.14,1.62,0,3.06,1.3,3.06,2.12,0,.25-.34,1.53-.4,1.81-.11.79-.25,2.1-.25,3.74,0,1.08,0,3.37.74,3.37.4,0,.57-.11,2.1-1.08.31-.2,2.1-1.33,2.92-1.33.65,0,1.08.57,1.08,1.05,0,.85-1.16,1.3-2.18,1.7-6.74,2.72-7.71,4.79-7.71,6.63s1.64,2.63,3.94,2.63c1.42,0,2.55-.28,3.4-.51,1.28-.34,1.59-.43,2.13-.43.96,0,1.87.65,1.87,1.36,0,1.45-5.78,1.59-7.28,1.59-1.3,0-5.41,0-5.41-4.45,0-.79.23-2.75,2.15-4.59Z"/>
      <path class="cls-1" d="M276.63,4.8c0,.08.06.2.06.31.11.91.28,1.81.28,3.06,0,1.9-.42,4.53-2.92,8.3-2.27,3.46-3.71,4.14-4.84,4.14-1.87,0-3.54-2.92-3.54-6.38,0-1.5.31-4.36,3.15-7.23,3.6-3.68,7.4-3.68,9.04-3.68,2.58,0,3.77.51,4.56.91,3.06,1.5,4.93,4.53,4.93,8.25s-2.12,8.22-7.14,9.97c-2.41.85-4.28,1.05-4.7,1.05-.11,0-.28-.03-.28-.2,0-.08.06-.11.76-.4,2.95-1.16,9.1-3.6,9.1-10.65,0-1.11-.11-7.85-7.85-7.85-.57,0-.59.23-.59.4ZM267.42,13.49c0,1.84.74,4.36,2.46,4.36.82,0,1.5-.34,3.46-3.29,1.5-2.29,2.78-5.44,2.78-8.25,0-1.7-.11-1.84-.48-1.84-2.69,0-8.22,3.66-8.22,9.01Z"/>
      <path class="cls-1" d="M292.53,2.1c-.06-.08-.11-.14-.11-.2,0-.03.06-.06.11-.06.2,0,1.05.08,1.25.08,1.39.08,2.55.11,3.88.11h6.55c.42,0,.51,0,.96-.59.45-.65.51-.71.76-.71.37,0,2.12,1.36,2.12,1.67,0,.37-.59.37-1.5.37h-1.44c-.77,0-.85.4-.85.94,0,1.62-.08,8.76-.08,10.2,0,5.55,0,6.15.03,7.25,0,.37.08,2.04.08,2.38,0,.37,0,2.1-1.45,2.1-.76,0-.76-.54-.76-.88,0-.23.08-1.22.08-1.42.06-1.02.11-2.07.11-3.43,0-2.07,0-2.29-.65-2.29-.6,0-5.5,1.93-6.43,2.49-.25.17-1.22,1.16-1.47,1.16-.34,0-1.47-2.41-1.47-2.86,0-.23.11-.23,1.13-.25,2.12-.03,2.41-.59,2.52-1.08.11-.57.14-9.46.14-10.54,0-.65-.03-2.66-.03-2.86-.03-.28,0-.88-.77-.88-.25,0-1.7.11-1.9.11-.11,0-.17-.06-.25-.17l-.57-.65ZM298.65,12.87c-.79,0-.79.45-.79,1.47,0,2.63,0,3.06.93,3.06.37,0,2.24-.28,2.86-.6.54-.25.68-.54.68-2.8,0-.68-.03-1.13-.85-1.13h-2.83ZM298.74,2.78c-.85,0-.85.14-.85,2.72,0,1.19,0,1.56.79,1.56h2.95c.76,0,.76-.11.76-2.64,0-1.3-.08-1.64-.88-1.64h-2.78ZM301.49,12.13c.91,0,.91-.14.91-2.61,0-1.33,0-1.7-.76-1.7h-2.92c-.82,0-.82.06-.82,3.29,0,.88.31,1.02.76,1.02h2.83ZM305.99,3.58c-.11-.14-.14-.14-.14-.2s.06-.06.11-.06c.2,0,1.08.08,1.25.08,2.32.11,3.09.11,3.88.11h2.35c.37,0,.88,0,1.47-.74.2-.23.28-.28.45-.28.31,0,2.38,1.08,2.38,1.59,0,.2-.06.23-.4.48-.48.4-.79,1.5-.99,2.21-1.28,4.67-1.73,5.64-2.83,7.96-.31.65-.42.96-.42,1.25,0,.85,1.98,3.6,4.48,5.44.26.2,1.67,1.1,1.67,1.19,0,.17-1.47.28-1.76.4-.28.11-.59.31-.96.65-.11.11-.23.23-.34.23-.65,0-2.98-3.74-3.68-4.93-.31-.48-.51-.82-.74-.82-.2,0-.25.08-.91.91-3.46,4.39-5.78,5.27-5.87,5.27-.14,0-.26-.08-.26-.25,0-.11,1.62-1.64,1.93-1.96.34-.4,3.85-4.53,3.85-6.09,0-.48-1.45-4.39-1.62-5.24-.28-1.39-.54-3.63-.79-5.02-.2-1.22-.45-1.36-.88-1.36-.06,0-.4.06-.45.06-.11,0-.17-.08-.26-.2l-.54-.68ZM311.06,4.31c-2.12,0-2.38,0-2.38.94,0,1.87,2.24,8.5,3,8.5.65,0,2.66-6.8,2.66-8.59,0-.85-.82-.85-1.33-.85h-1.96Z"/>
      <path class="cls-1" d="M331.07,6.16c-2.41,0-4.67,3.97-4.67,6.97,0,.91.14,1.42.37,2.1.2.54.25.77.25,1.08,0,.93-.76,1.02-1.02,1.02-1.3,0-1.93-2.35-1.93-4.59,0-1.45.23-2.95.51-4.51.4-2.32.42-2.95.42-3.63,0-.99-.17-1.42-.37-1.76-.06-.11-.48-.68-.48-.74s.34-.2.76-.2c1.3,0,2.18,1.13,2.18,1.9,0,.34-.51,1.79-.59,2.1-.06.23-.62,2.81-.62,3.51,0,.08,0,.4.23.4.14,0,.31-.34.51-.71.31-.62,2.24-4.19,5.21-4.19,1.76,0,3.66.93,3.66,6.88,0,4-.79,8.53-6.18,11.73-1.13.68-1.93.93-2.04.93-.06,0-.11-.03-.11-.08,0-.08.06-.14.71-.62,4.65-3.51,5.5-6.8,5.5-12.58,0-3.12-.57-5.02-2.3-5.02Z"/>
      <path class="cls-1" d="M345.27,14.29c-.37,0-1.47.23-2.07.48-.11.06-.6.48-.71.48s-.25-.11-.31-.2c-.08-.17-.96-2.24-.96-2.35,0-.23.14-.25.25-.25s.65.11.76.14c.45.08,1.13.08,1.64.08.96,0,1.25-.2,1.84-1.02,1.16-1.62,3.12-4.79,3.29-5.21.11-.25.48-1.61.68-1.61.25,0,2.41,1.42,2.41,1.84,0,.28-.65.51-.88.57-.79.25-.96.42-2.49,2.27-2.07,2.44-2.29,2.69-2.29,2.83,0,.23.31.23.45.23.2,0,1.56-.08,1.87-.11,1.3-.08,1.45-.08,1.45-.42s-.37-.99-.57-1.28c-.03-.06-.23-.37-.23-.4,0-.08.03-.11.08-.11.48,0,3.71,2.18,3.71,4.39,0,.85-.79,1.28-1.25,1.28-.62,0-.88-.6-.94-1.05-.2-1.47-.2-1.64-.57-1.64-.25,0-1.93.37-2.12.42-.6.2-.6.43-.6,1.45,0,.57.06,3.37.06,4,0,.79.03,3.34.06,3.97,0,.11.06.79.06,1.27,0,1.16-1.1,1.53-1.64,1.53-.48,0-.48-.65-.48-.85,0-.85.14-6.74.14-8.02v-1.64c0-.17,0-.57-.06-.76-.08-.2-.31-.28-.59-.28ZM345.33,17.23c0,.23-.71.99-.79,1.19-.14.34-.77,1.84-.91,2.15-.96,2.21-1.9,3.32-2.07,3.32-.08,0-.14-.06-.14-.17s.2-.71.23-.85c.37-1.53.93-4.39.93-5.78,0-.91,0-.99.23-.99.11,0,.2.03.31.06.91.28,2.21.71,2.21,1.08ZM349.3,1.71c0,.14-.08.2-.74.59-.14.08-3.06,4.22-3.06,4.53,0,.14.08.23.62.93.26.34.4.88.4,1.25,0,.91-.6,1.33-.99,1.33-.85,0-1.28-1.11-1.47-1.59-.34-.85-.93-1.79-1.73-2.52-.08-.06-.62-.54-.62-.65s.2-.11.25-.11c.42,0,.82.17,1.36.42.2.08,1.05.51,1.16.51.68,0,1.59-3.85,1.81-5.24.17-.91.2-.99.48-.94.25.03,2.52.91,2.52,1.47ZM352.38,20.18c0,.68-.48,1.33-1.13,1.33-.48,0-.59-.31-.76-.94-.34-1.27-.99-2.58-1.62-3.66-.06-.08-.45-.76-.45-.85s.06-.11.14-.11.31.06.57.23c2.24,1.47,3.26,2.8,3.26,4ZM349.66,23.64c-.11-.14-.14-.14-.14-.2s.08-.06.11-.06c.57,0,3.4.2,4.02.2.51,0,.57-.31.59-.57.14-1.59.23-13.29.23-15.75,0-1.16-.06-4.33-.11-5.3,0-.17-.08-.91-.08-1.08,0-.08,0-.17.08-.17.2,0,1.08.45,1.33.6.62.34.79.42,1.36.42h4.31c.48,0,.59-.08.76-.34.51-.65.57-.71.79-.71.11,0,2.24.94,2.24,1.53,0,.23-.08.31-.57.74-.23.2-.23,1.19-.23,2.1,0,.62-.06,3.66-.06,4.33,0,1.93.06,11.25.06,13.38,0,.31,0,.45.14.45.25,0,.99-1.3,1.27-1.3.34,0,1.81,1.5,1.81,2.04,0,.37-.11.37-1.22.37h-12.21c-.94,0-2.12,0-3.12.08-.08,0-.51.06-.59.06-.11,0-.17-.06-.25-.17l-.54-.65ZM361.48,16.24c.85,0,.85-.45.85-1.13v-5.16c0-.2-.03-.71-.79-.71h-4.39c-.25,0-.57.06-.71.31-.11.2-.11,2.58-.11,3.03,0,.48,0,3.15.11,3.34.17.31.54.31.71.31h4.34ZM361.57,23.58c.76,0,.76-.11.76-3.06,0-.48,0-3.06-.11-3.23-.2-.31-.57-.31-.74-.31h-4.34c-.17,0-.54,0-.74.31-.08.17-.08,2.66-.08,3.15,0,.45,0,2.66.08,2.83.17.25.48.31.74.31h4.42ZM361.51,8.51c.82,0,.82-.54.82-.96,0-.4,0-4.45-.03-4.59-.08-.34-.28-.48-.79-.48h-4.28c-.82,0-.85.43-.85.96v4.45c.06.4.28.62.82.62h4.31Z"/>
      <path class="cls-1" d="M382.54,4.34c-.37,0-1.56,1.02-2.01,1.42-.37.34-1.44,1.3-2.18,1.3-1.05,0-1.84-2.01-1.84-2.1,0-.17.06-.28.23-.28s.82.11.96.11c.91,0,1.25-.06,2.95-1.13,1.39-.88,2.27-.94,2.72-.94,1.87,0,2.29,1.28,2.29,1.7,0,.6-.25.94-1.73,2.3-2.04,1.9-4.17,5.64-4.17,5.75,0,.14.2.17.28.17.37,0,1.96-.03,2.29,0,1.84.14,3.88.62,5.36,1.13.31.11.37.11.45.11.37,0,.54-2.32.54-2.61,0-.23-.17-1.47-.17-1.59,0-.17.2-.17.31-.17.08,0,2.55.45,2.55,1.56,0,.2-.54.94-.62,1.11,0,.06-.4,2.32-.4,2.41,0,.37.17.45.65.71,1.11.6,3.68,1.93,3.68,3.4,0,.77-.71,1.08-1.05,1.08-.57,0-.88-.23-2.86-1.93-.06-.03-.88-.74-1.16-.74-.23,0-.31.2-.4.34-.82,1.47-2.12,3.46-5.55,5.24-1.59.82-2.83,1.13-3.06,1.13-.03,0-.23,0-.23-.08,0-.03.48-.37.54-.4,2.8-1.93,4.19-3.06,5.84-5.61.42-.65.85-1.33.85-1.62,0-.25,0-.4-1.56-1.16-1.9-.91-3.71-1.28-5.21-1.28-1.76,0-1.81.11-2.3,1.13-2.44,5.19-2.92,6.23-4.7,6.23-1.45,0-1.87-1.56-1.87-2.27,0-2.41,2.52-4.56,5.5-5.61.34-.11.42-.14.71-.57.65-1.05,4.19-6.4,4.33-6.66.14-.28.4-1.05.37-1.27-.03-.14-.11-.34-.34-.34ZM373.05,18c0,.48.23.82.74.82,1.56,0,3.4-4.17,3.4-4.28,0-.08-.03-.14-.11-.14-1.02,0-4.02,1.93-4.02,3.6Z"/>
      <path class="cls-1" d="M402.52,17.21c.48,0,.74-.45,1.36-2.21.17-.48.25-.71.4-.71s.14.28.14.34c0,.31-.65,3.63-.65,4.31,0,.48.4,1.33.45,1.47.2.4.34.88.34,1.25,0,.57-.45.96-.93.96-1.76,0-3.06-4.82-3.06-7.54,0-1.81.23-2.63,1.19-6.18.48-1.73.48-2.44.48-2.95,0-.91-.17-1.67-.28-2.01-.03-.08-.17-.42-.17-.51s.11-.14.23-.14c1.3,0,2.49,2.58,2.49,3.6,0,.31,0,.34-.54,1.3-.31.6-2.18,4.76-2.18,7.31,0,.85.28,1.7.74,1.7ZM418.98,20.04c0,1.11-.85,1.45-4.82,1.45-2.78,0-3.83-.71-4.42-1.28-.14-.14-.88-.88-.88-1.42,0-.06,0-.28.14-.28.11,0,.57.34.68.4.82.43,1.98.48,3.03.48.74,0,1.76,0,2.46-.08.4-.03,2.38-.23,2.49-.23,1.08,0,1.3.62,1.3.96ZM417.65,6.24c0,1.39-3.14,1.39-3.49,1.39-3.2,0-4.96-1.73-4.96-2.1,0-.06.03-.14.2-.14.08,0,.42.11.79.2.65.14,1.42.17,1.93.17,1.39,0,2.72-.28,3.12-.42.85-.31.94-.34,1.22-.31.51.08,1.19.57,1.19,1.22Z"/>
      <path class="cls-1" d="M424.15,9.73c0-.31.17-.45.43-.45.28,0,1.47.34,1.73.34.71,0,1.08-.17,4.56-1.59,1.36-.54,5.24-2.12,7.93-2.12,4.17,0,7.23,3.23,7.23,7,.03,5.16-5.27,8.22-11.36,8.22-.25,0-.68,0-.68-.37,0-.23.11-.23,1.16-.37,7-.99,8.7-5.98,8.7-8.5,0-3.29-2.66-4.73-4.59-4.73-2.69,0-6.74,2.15-9.21,3.85-1.42.99-1.84,1.16-2.61,1.16-1.7,0-3.29-1.62-3.29-2.44Z"/>
      <path class="cls-1" d="M455.89,8.08c0,.23-.06.31-.34,1.13-.4,1.11-.68,2.15-.68,3.66,0,2.86,1.47,4.93,2.35,4.93.48,0,.59-.14,1.45-1.56.17-.28.65-.96.88-.96.08,0,.14.11.14.23s-.06.48-.08.57c-.31,1.3-.37,1.56-.37,2.15,0,.48.08.85.17,1.13.08.31.23.79.23.93,0,.57-.59.88-1.08.88-1.81,0-5.38-2.98-5.38-8.39,0-.79.4-4.28.4-5.02,0-.57-.11-1.33-.2-1.64-.2-.71-.23-.79-.23-.96,0-.08.11-.11.17-.11,1.3,0,2.58,2.27,2.58,3.03ZM469.71,8.73c1.45,1.16,2.52,3.17,2.52,5.41,0,.54-.06,1.87-1.42,1.87s-1.39-1.53-1.39-1.9c0-2.35,0-3.54-1.5-5.04-.23-.23-1.36-1.11-1.36-1.28,0-.08.11-.14.25-.14.03,0,1.67.08,2.89,1.08Z"/>
      <path class="cls-1" d="M479.07,7.01c1.22,0,1.64-.11,5.53-1.22,2.52-.71,8.98-2.55,10.88-2.55.99,0,2.27.4,2.27,1.36,0,.74-.74,1.05-1.13,1.05-.37,0-1.98-.31-2.32-.31-3.6,0-7.62,3.32-7.62,10.63,0,4.76,1.79,5.07,3.46,5.07.42,0,2.46-.17,2.69-.17.88,0,1.42.37,1.42,1.05,0,1.5-3.12,1.5-3.29,1.5-5.81,0-5.81-4.73-5.81-6.06,0-1.25.03-7.25,4.14-10.91.11-.08.68-.54.68-.59s-.11-.06-.17-.06c-1.62,0-7.51,2.52-8.42,3.03-.4.23-.68.37-.99.37-1.42,0-2.75-1.9-2.41-2.29.11-.14.96.11,1.11.11Z"/>
      <path class="cls-1" d="M508.6,25.31c-.6,0-.71-.2-1.64-1.9-.57-.99-1.3-1.98-2.98-3.03-.08-.06-.4-.25-.4-.34s.08-.2.31-.2c.99,0,5.81,1.47,5.81,4.11,0,.68-.57,1.36-1.1,1.36Z"/>
      <path class="cls-1" d="M8.24,66.59c.37,0,1.5-.11,2.69-.25.43-.06,2.27-.34,2.64-.34.96,0,1.84.71,1.84,1.33,0,1.53-4.82,1.67-6.4,1.67-3.8,0-8.78-.82-8.78-5.04,0-.91.31-1.3.4-1.3.11,0,.11.06.31.71.65,2.24,3.4,3.17,5.58,3.17.17,0,1.45.06,1.73.06ZM3.88,51.09c2.15,0,4.19-.42,4.56-.51,1.02-.23,1.25-.23,1.42-.23,1.33,0,2.63,1.33,2.63,1.93,0,.42-.2.51-2.1.94-1.42.34-2.38,1.1-3.34,1.87-.23.2-.25.23-.37.23-.06,0-.08-.06-.08-.08,0-.23,1.25-1.73,1.25-2.07,0-.2-.08-.2-.96-.23-3.32-.06-5.36-1.53-5.36-1.93,0-.08.14-.11.2-.11.08,0,.17.03.91.14.48.06.96.06,1.25.06ZM15.89,54.66c.82.54,1.22,1.19,1.22,1.62,0,.54-.34,1.11-.79,1.11-.37,0-.57-.11-1.53-1.16-.57-.62-.79-.76-2.07-1.56-.14-.11-.45-.31-.45-.42,0-.08.23-.25.48-.25,1.19,0,2.1,0,3.15.68ZM20.08,53.98c0,.31-.23.85-.74.85-.59,0-.94-.42-1.47-1.05-.37-.45-1.53-1.25-2.46-1.59-.31-.11-.37-.23-.37-.31,0-.2.57-.34,1.05-.34,2.52,0,4,1.3,4,2.44Z"/>
      <path class="cls-1" d="M31.99,51.71c.82,0,.82-.48.82-.94,0-1.47,0-1.76-.82-1.76h-2.49c-2.49,0-3.32.06-3.57.08-.11,0-.51.06-.59.06-.11,0-.17-.06-.25-.17l-.57-.65c-.08-.14-.11-.14-.11-.2s.03-.06.11-.06c.2,0,1.05.08,1.25.08,1.39.06,2.55.11,3.88.11h12.89c1.28,0,1.42,0,1.79-.48.85-1.08.94-1.19,1.19-1.19.42,0,2.8,1.7,2.8,2.01,0,.4-.57.4-1.5.4h-6.06c-.74,0-.74.51-.74,1.81,0,.34,0,.88.71.88h2.15c.23,0,.43,0,.68-.17.14-.11.65-.79.82-.79s1.98,1.13,1.98,1.64c0,.14-.51.68-.57.82-.11.31-.11,1.84-.11,2.27,0,.17,0,2.18-.03,2.21-.06.11-.25.94-1.36.94-.51,0-.51-.06-.59-.65-.08-.48-.4-.48-.68-.48h-6.04c-.28,0-.31,0-.31.08s1.3.74,1.3.99c0,.2-.08.28-.82.68-.4.23-2.24,2.66-2.24,2.92,0,.23.23.23.62.23h7.91c1.19,0,1.25-.06,1.42-.2.28-.23,1.19-1.61,1.5-1.61.11,0,2.86,1.73,2.86,2.18,0,.4-.57.4-1.5.4h-5.87c-.23,0-.25,0-.25.06,0,.08.03.08.28.23.71.37.79.4.79.6,0,.23-.85.79-.99.91-.34.34-1.73,1.9-2.04,2.21-.06.06-.23.23-.23.34,0,.08.09.11.88.37,2.29.74,5.24,2.07,5.24,3.46,0,.74-.68,1.02-1.02,1.02-.06,0-.42-.03-.68-.2-3.26-2.27-4.99-3.43-5.72-3.43-.2,0-.31.06-.45.17-3.09,2.38-8.7,3.71-10.77,3.71-.2,0-.4-.06-.4-.17s.2-.17.34-.2c4.59-.99,9.04-4.08,9.04-4.42,0-.28-3.49-1.25-3.8-1.25-.34,0-.4.08-.85.68-.85,1.13-1.19,1.42-1.84,1.42-.4,0-1.02-.23-1.02-.71,0-.4.06-.45,1.25-1.76.11-.14,2.07-2.69,2.07-2.89,0-.14-.06-.14-.65-.14h-2.47c-2.49,0-3.31.06-3.6.06-.09.03-.51.08-.6.08s-.14-.08-.25-.2l-.54-.65c-.11-.11-.11-.14-.11-.17,0-.06.03-.09.08-.09.2,0,1.08.11,1.25.11,1.39.06,2.58.08,3.91.08h2.83c.34,0,.82,0,1.22-.54,1.02-1.42,2.38-3.32,2.38-4.08,0-.28-.25-.28-.51-.28h-4.7c-.25,0-.65,0-.74.31-.17.71-.34,1.39-1.22,1.39s-.88-.51-.88-.99c0-.51.06-2.72.06-3.17,0-1.3-.06-2.69-.14-3.49-.03-.23-.03-.4-.03-.45,0-.08,0-.28.11-.28.2,0,1.44.62,1.73.71.08.03.51.2,1.02.2h2.15ZM29.81,52.45c-.76,0-.76.59-.76,1.33,0,2.86,0,2.95.82,2.95h2.1c.85,0,.85-.42.85-1.56,0-2.69,0-2.72-.85-2.72h-2.15ZM34.96,63.16c-.65,0-.91.11-1.22.51-.14.2-1.5,2.1-1.5,2.24,0,.17.06.17.62.25.54.08,3.8.71,3.85.71.82,0,3.06-3.26,3.06-3.49s-.17-.23-.31-.23h-4.51ZM35.28,52.45c-.85,0-.88.23-.88,2.15s.03,2.12.85,2.12h2.38c.25,0,.62-.03.76-.37.08-.17.06-2.75.06-3.17,0-.74-.59-.74-.71-.74h-2.47ZM35.28,49.02c-.82,0-.82.37-.82,1.7,0,.51,0,.99.85.99h2.41c.74,0,.74-.65.74-.91,0-1.36,0-1.79-.74-1.79h-2.44ZM40.72,52.45c-.74,0-.74.34-.74,2.32,0,1.53,0,1.96.74,1.96h2.29c.74,0,.74-.34.74-2.32,0-1.53,0-1.96-.74-1.96h-2.29Z"/>
      <path class="cls-1" d="M68.6,66.59c-.79,0-.79.62-.79.74,0,.43,0,2.55.11,2.75.17.34.6.34.85.34h5.7c1.33,0,1.47,0,1.93-.68.62-.88.71-.99.94-.99.34,0,2.38,1.56,2.38,1.98s-.48.42-1.5.42h-18.73c-.68,0-2.58,0-3.57.08-.08,0-.51.06-.6.06-.11,0-.17-.06-.25-.17l-.54-.65c-.06-.08-.14-.14-.14-.2s.06-.06.11-.06c.17,0,1.05.08,1.25.08.79.03,2.27.11,3.88.11h5.27c.37,0,.79,0,.96-.42.06-.14.06-1.56.06-2.38,0-.76-.11-1.02-.96-1.02h-2.38c-.68,0-2.58,0-3.57.08-.08,0-.51.06-.59.06s-.14-.06-.25-.17l-.54-.65q-.11-.14-.11-.2c0-.06.06-.06.08-.06.17,0,1.05.08,1.25.08.82.03,2.3.11,3.88.11h2.21c.37,0,.99,0,.99-.77,0-.42,0-2.46-.11-2.63-.2-.31-.54-.31-.88-.31h-3.77c-.68,0-2.58,0-3.57.09-.08,0-.51.06-.6.06-.11,0-.17-.06-.25-.2l-.57-.62q-.11-.17-.11-.2c0-.06.06-.06.11-.06.17,0,1.05.08,1.25.08.79.03,2.27.11,3.88.11h12.1c.88,0,.99,0,1.28-.23.25-.17,1.36-1.16,1.62-1.16.17,0,2.04,1.05,2.04,1.67,0,.45-.14.45-1.53.45h-8.19c-.79,0-.79.11-.79,2.92,0,.57.28.79.79.79h3.54c1.36,0,1.5,0,1.93-.57.51-.68.59-.76.82-.76.37,0,1.96,1.39,1.96,1.7,0,.37-.57.37-1.5.37h-6.74ZM59.42,51.6c-.85,0-.94.14-.94,2.8,0,2.41.23,2.72,1.59,2.72.42,0,1.76-.03,3.77-.17.28-.03,1.53-.17,1.79-.17.45,0,.57.17.57.45,0,.51-.42,1.05-.85,1.19-.74.26-4.11.28-5.16.28-3.4,0-3.4-.43-3.43-3.97,0-.31-.03-2.69-.03-2.8-.08-.23-.23-.28-.45-.28-.11,0-.74.08-.79.08-.08,0-.14-.08-.23-.2l-.57-.65c-.11-.11-.11-.14-.11-.17,0-.06.03-.08.08-.08.2,0,1.08.08,1.28.11,2.27.08,3.14.08,4.05.08.79,0,.79-.59.79-1.25,0-.37,0-1.33-.11-1.98-.03-.08-.17-.54-.17-.65,0-.14.14-.28.34-.28.17,0,.37.06,2.01.51.4.11.65.17.65.42,0,.17-.57.65-.65.77-.17.2-.17.34-.17,1.64,0,.62.26.82.85.82,1.39,0,1.56,0,1.87-.48.51-.79.54-.85.74-.85.28,0,1.9,1.36,1.9,1.67,0,.43-.51.43-1.5.43h-7.11ZM71.01,54.85c-.68,0-.79.17-1.02.71-1.7,3.77-4.42,4.28-4.5,4.28s-.17-.03-.17-.11c0-.14.65-.57.74-.68.65-.68,2.98-3.32,2.98-7.59,0-.88.03-1.28-.14-2.72-.06-.62-.14-.96-.14-1.05,0-.14.03-.25.17-.25.11,0,1.67.65,1.87.74.37.17.45.17.79.17h3.88c.17,0,.37,0,.54-.11s.85-.85,1.02-.85c.23,0,1.98,1.13,1.98,1.53,0,.17-.76.57-.85.71-.17.2-.2,1.02-.2,1.36,0,.2-.11,4.42-.65,6.55-.4,1.53-1.76,2.35-2.46,2.35-.48,0-.62-.17-1.3-.99-.34-.4-.74-.68-.99-.82-.14-.08-.48-.25-.48-.4,0-.11.14-.14.23-.14s.34.06.48.08c.4.08,1.22.14,1.53.14.74,0,1.1-.2,1.3-1.16.06-.23.23-1.02.23-1.16,0-.57-.6-.57-.82-.57h-4ZM75.23,54.09c.57,0,.82,0,.82-1.36,0-.65-.54-.65-.68-.65h-3.88c-.54,0-.91,0-.91,1.39,0,.62.51.62.74.62h3.91ZM71.78,49.1c-.48,0-.96,0-.96.6,0,1.47.03,1.64.74,1.64h3.85c.79,0,.79-.26.79-1.5,0-.74-.4-.74-.91-.74h-3.51Z"/>
      <path class="cls-1" d="M87.91,63.89c.48,0,.74-.45,1.36-2.21.17-.48.25-.71.4-.71s.14.28.14.34c0,.31-.65,3.63-.65,4.31,0,.48.4,1.33.45,1.47.2.4.34.88.34,1.25,0,.57-.45.96-.93.96-1.76,0-3.06-4.82-3.06-7.54,0-1.81.23-2.63,1.19-6.18.48-1.73.48-2.44.48-2.95,0-.91-.17-1.67-.28-2.01-.03-.08-.17-.42-.17-.51s.11-.14.23-.14c1.3,0,2.49,2.58,2.49,3.6,0,.31,0,.34-.54,1.3-.31.6-2.18,4.76-2.18,7.31,0,.85.28,1.7.74,1.7ZM104.37,66.73c0,1.11-.85,1.45-4.82,1.45-2.78,0-3.83-.71-4.42-1.28-.14-.14-.88-.88-.88-1.42,0-.06,0-.28.14-.28.11,0,.57.34.68.4.82.43,1.98.48,3.03.48.74,0,1.76,0,2.46-.08.4-.03,2.38-.23,2.49-.23,1.08,0,1.3.62,1.3.96ZM103.04,52.93c0,1.39-3.14,1.39-3.49,1.39-3.2,0-4.96-1.73-4.96-2.1,0-.06.03-.14.2-.14.08,0,.42.11.79.2.65.14,1.42.17,1.93.17,1.39,0,2.72-.28,3.12-.42.85-.31.94-.34,1.22-.31.51.08,1.19.57,1.19,1.22Z"/>
      <path class="cls-1" d="M123.73,47.54s.06.08.06.14c0,.17-.08.2-.31.37-.08.06-.11.14-.11.23,0,.2,1.81,3.63,4.42,5.95,2.01,1.79,4.31,3.26,7.14,4.36q.91.34.91.54c0,.25-.11.28-.99.48-.6.11-1.36.37-1.79.79-.11.11-.25.25-.37.25s-1.47-.48-4.11-3.12c-3.06-3.06-4.11-4.76-5.33-7.48-.17-.37-.59-1.28-.74-1.28s-.2.08-.77.91c-4.67,6.77-11.16,11.02-11.9,11.02-.14,0-.23-.08-.23-.17,0-.14,2.75-2.58,3.26-3.09,3.88-4,6.09-7.65,6.91-9.49.14-.28.6-1.79.68-1.84.14-.08,3.09,1.13,3.26,1.42ZM126.28,62.34c.2,0,.42,0,.62-.11.17-.14.91-.96,1.11-.96.17,0,1.84,1.3,1.84,1.79,0,.25-.08.34-.37.59s-.31,1.53-.31,1.96c0,.88.17,4.82.17,5.61s-1.42,1.13-1.81,1.13c-.62,0-.62-.54-.62-.74,0-1.19,0-1.5-.74-1.5h-8.56c-.28,0-.85,0-.85.76s0,.85-.2,1.05c-.23.23-.94.57-1.5.57-.74,0-.74-.59-.74-.74,0-.17.25-5.38.25-6.4,0-.59.03-2.24-.06-2.75,0-.11-.14-.77-.14-.88,0-.08,0-.31.26-.31.23,0,1.42.65,1.7.76.34.17.74.17,1.16.17h8.78ZM122.2,57.91c1.02,0,1.36,0,1.67-.25.23-.2,1.1-1.39,1.36-1.39s2.58,1.81,2.58,2.04c0,.34-.68.34-1.53.34h-5.33c-2.01,0-2.78.03-3.6.08-.08,0-.51.06-.59.06s-.14-.06-.25-.17l-.54-.65c-.11-.11-.11-.14-.11-.2,0-.03.03-.06.08-.06.2,0,1.08.11,1.25.11,1.39.08,2.58.08,3.91.08h1.11ZM126.19,69.36c.82,0,.82-.54.82-.88,0-.71.03-3.88.03-4.53,0-.34,0-.88-.79-.88h-8.61c-.82,0-.88.45-.88.88,0,.71-.03,3.88-.03,4.53,0,.37.03.88.85.88h8.61Z"/>
      <path class="cls-1" d="M148.07,53.98c.74.45.74.91.74,1.11,0,.48-.17.88-.4,1.36-.08.17-.2.4-.2.54,0,.08.06.14.11.14.14,0,.68-.37.82-.43,2.81-1.42,4.33-1.64,5.72-1.64,4.42,0,6.43,2.95,6.43,5.95,0,6.8-9.07,9.01-9.72,9.01-.06,0-.11,0-.11-.06,0-.08,1.79-1.08,2.1-1.3,1.42-.96,5.53-4.08,5.53-8.3,0-3.23-2.35-4.39-4.28-4.39-3.12,0-6.35,1.7-7.42,2.92-.37.42-.54.91-.54,2.83,0,.62.03,4.22.14,5.72.03.23.14,1.16.14,1.33,0,.91-.82,1.64-1.25,1.64-.79,0-.88-1.02-.99-2.75-.06-.6-.23-3.29-.91-3.29-.14,0-.51.71-.74,1.16-.42.82-1.02,1.98-2.04,1.98-.34,0-.68-.23-.68-.79,0-.48.14-.74.85-1.93.28-.51,1.42-2.46,1.42-2.75,0-.51-.59-1.56-1.1-2.18-.91-1.13-.99-1.25-.99-1.76,0-.96.77-1.08,1.93-1.25.48-.08.65-.11,2.55-1.87.14-.14.71-.6.74-.68.14-.28.25-1.53.25-2.41,0-2.52-.65-3.46-1.13-4-.48-.57-.54-.62-.54-.74,0-.23.68-.37.96-.37.76,0,2.69,1.16,2.69,2.1,0,.42-.37,2.21-.42,2.58-.06.45-.14,1.33-.14,1.64,0,.54.03.57.48.85ZM144.56,57.35c-.25.4-.57.93-1.22.99-.91.06-1.19.08-1.19.45,0,.4,1.02,2.21,1.33,2.21.17,0,.25-.14.57-.59,1.76-2.58,1.76-2.64,1.76-3.66,0-.23,0-.37-.11-.4-.17-.03-.65.17-1.13.99ZM144.47,63.24c0,.37.57,1.11.82,1.11.34,0,.34-1.53.34-2.83,0-.11-.06-.17-.14-.17-.23,0-1.02,1.56-1.02,1.9Z"/>
      <path class="cls-1" d="M183.75,52.96c-.2,1.9-.23,2.1-.23,2.27,0,.14.23.14.31.14.11,0,1.1-.11,1.33-.11.62-.06.88-.08.88-.4,0-.17-.06-.23-.57-.71-.06-.03-.11-.11-.11-.17,0-.11.17-.11.23-.11.28,0,1.59.37,2.04.51,1.79.51,2.21.96,2.21,1.53,0,.74-.82.94-1.39.94s-3.03-.31-3.54-.31c-1.64,0-1.67.06-1.84,1.53-.54,4.19-2.07,5.64-3.09,5.64-.96,0-1.08-.31-1.33-1.13-.14-.43-.37-.91-.54-1.25-.06-.08-.37-.51-.37-.59,0-.06.08-.06.14-.06.31,0,1.59.51,1.84.51.48,0,.76-.28.96-.74.48-1.02.82-2.95.82-3.23,0-.23,0-.37-.43-.37-.59,0-5.72,1.13-6.09,1.76-.2.34-.23.62-.25,1.16-.03.94-.08,3.51-.08,3.6,0,2.66.51,4,4.48,4,.57,0,1.53-.03,2.49-.23.11-.03.96-.2,1.36-.2.79,0,1.53.59,1.53,1.22,0,1.33-2.58,1.33-3.23,1.33-8.1,0-8.1-2.27-8.1-7.65,0-2.38,0-2.66-.51-2.66-.48,0-2.44.88-2.86.88-.62,0-2.92-.54-2.92-2.1,0-.37.11-.4.37-.4.28,0,1.47.11,1.73.11,1.76,0,3.12-.23,3.6-.4.45-.14.48-.4.48-1.45,0-1.53-.14-2.24-.45-2.98-.08-.23-.65-1.22-.65-1.33,0-.26.48-.4.82-.4.68,0,2.44.79,2.44,1.79,0,.17-.06.45-.14.88,0,.03-.14.88-.14,2.18,0,.59,0,.82.37.82.2,0,3.77-.79,4.51-.91,1.76-.28,1.96-.31,2.07-.91.08-.57.14-1.93.14-2.3,0-.85-.08-1.47-.34-1.96-.03-.03-.54-.99-.54-1.05,0-.28.48-.31.62-.31,1.73,0,2.41,1.39,2.41,1.98,0,.06-.4,1.36-.42,1.61Z"/>
      <path class="cls-1" d="M196.37,53.69c1.22,0,1.64-.11,5.53-1.22,2.52-.71,8.98-2.55,10.88-2.55.99,0,2.27.4,2.27,1.36,0,.74-.74,1.05-1.13,1.05-.37,0-1.98-.31-2.32-.31-3.6,0-7.62,3.32-7.62,10.63,0,4.76,1.79,5.07,3.46,5.07.42,0,2.46-.17,2.69-.17.88,0,1.42.37,1.42,1.05,0,1.5-3.12,1.5-3.29,1.5-5.81,0-5.81-4.73-5.81-6.06,0-1.25.03-7.25,4.14-10.91.11-.09.68-.54.68-.6s-.11-.06-.17-.06c-1.62,0-7.51,2.52-8.42,3.03-.4.23-.68.37-.99.37-1.42,0-2.75-1.9-2.41-2.29.11-.14.96.11,1.11.11Z"/>
      <path class="cls-1" d="M224.43,54.71c2.55,0,8.59-.51,9.21-.91,1.02-.68,1.13-.74,1.39-.74.57,0,3.29,1.81,3.29,2.55,0,.25-.08.34-.96.99-.51.37-.62.79-1.59,4.73-.06.25-.45,1.5-.45,1.67,0,.37.25.4.68.48.71.11,1.76.48,1.76,1.19,0,.76-1.3.76-1.53.76-.71,0-3.85-.2-4.5-.2-1.76,0-7.14.6-7.59.71-.17.03-.88.34-1.02.34-.51,0-2.18-1.28-2.18-2.27,0-.11.11-.2.25-.2s.74.11.85.14c.62.09,1.1.09,1.44.09,1.96,0,9.38-.51,9.8-.74.34-.17.45-.51.65-1.93.34-2.49.6-4.96.6-5.53,0-.48-.11-.59-.43-.59-.88,0-7.91,1.13-9.01,1.39-.25.06-1.25.45-1.47.45-.62,0-2.63-1.73-2.63-2.3,0-.23.2-.28.34-.28.17,0,2.64.17,3.12.17Z"/>
      <path class="cls-1" d="M264.04,58.34c.17,0,.48-.03.62-.03,1.73,0,1.98,1.05,1.98,1.25,0,.79-1.16.88-2.35.88-.65,0-3.49-.06-4.05-.06-3.91,0-10.4.37-11.08.51-.34.06-1.87.51-2.21.51-1.22,0-2.52-1.76-2.52-2.72,0-.17.08-.34.23-.34s.82.31.96.34c.48.14,1.64.25,3.46.25.94,0,10.82-.37,14.96-.6Z"/>
      <path class="cls-1" d="M284.45,59.67c0,.2-.68.74-.76.88-.08.11-1.16,2.72-1.42,3.2-2.72,5.47-7.14,7.28-7.51,7.28-.11,0-.17-.06-.17-.14s1.27-1.22,1.5-1.42c4.67-4.48,5.55-10.29,5.55-10.68,0-.34-.06-.85-.68-.85-.74,0-3.34.57-4.5.85-.31.08-1.73.51-2.04.51-1.42,0-2.24-1.53-2.24-2.15,0-.17.06-.28.2-.28.06,0,.37.11.42.14.4.11,1.25.2,1.79.2,1.81,0,9.15-.79,11.14-1.08.34-.06,1.81-.51,2.12-.51.34,0,3.57.62,3.57,1.79,0,.51-.45.68-.82.68-.31,0-1.7-.23-1.98-.25-.59-.06-1.39-.14-2.01-.14-.96,0-2.66,0-2.86.08-.2.11-.25.28-.2.42.03.08.91,1.22.91,1.47ZM278.16,51.34c.88,0,1.19-.09,4.02-.71.74-.17,1.64-.34,2.27-.34s1.62.11,1.62.93-.48.88-2.15,1.05c-1.45.17-3.34.54-3.77.62-.14.03-1.25.26-1.33.26-1.39,0-2.27-1.98-2.12-2.04,0,0,1.25.23,1.47.23ZM293.35,54.32c0,.42-.34,1.08-.85,1.08-.4,0-.65-.23-1.45-1.3-.34-.45-.59-.74-1.93-1.76-.11-.08-.4-.34-.4-.45s.25-.23.48-.23c2.55,0,4.14,1.67,4.14,2.66ZM295.84,51.54c0,.34-.23.85-.74.85-.59,0-.96-.48-1.45-1.13-.37-.54-1.47-1.33-2.38-1.73-.28-.11-.34-.23-.34-.31,0-.28.85-.28,1.05-.28,1.53,0,3.85.96,3.85,2.61Z"/>
      <path class="cls-1" d="M307.12,59.53c.48.31,1.08.59,1.08.96,0,.14-.25.79-.28.96-.06.37-.11.82-.11,4.08,0,.74,0,1.64.06,2.72,0,.28.17,1.73.17,2.04,0,.23,0,1.08-.62,1.08-.68,0-1.42-1.11-1.42-1.67,0-.11,0-.2.14-1.02.2-1.02.31-3.46.31-4.87,0-.71,0-3.12-.57-3.12-.08,0-.14.06-.6.45-3.31,3.06-6.18,4.25-6.35,4.25-.14,0-.17-.11-.17-.17,0-.14.85-.85,1.13-1.08,5.64-4.65,7.82-9.01,7.82-9.72,0-.17-.06-.42-.2-.68-.03-.06-.23-.4-.23-.45,0-.17.17-.28.31-.28.31,0,2.72.99,2.72,1.96,0,.23-.11.42-.23.51-.54.45-.59.48-.88.91-.62.94-.79,1.13-2.21,2.95,0,.06.06.17.11.2Z"/>
      <path class="cls-1" d="M318.86,55.34c.45.06,1.1.11,1.62.11,1.5,0,5.5-.79,6.18-1.25.82-.51.91-.57,1.16-.57.71,0,1.79,1.05,1.79,1.39,0,.17-.06.23-.6.57-.48.31-.59.51-2.01,2.44-.23.31-.62.85-.62.96,0,.23.17.25.4.31.31.08,1.25.51,1.25,1.19,0,.2-.23,1.1-.25,1.3-.14.88-.14,1.02-.14,2.07,0,.71.03,3.03.08,4.19,0,.31.08,1.73.08,2.01,0,1.36-.37,1.59-.74,1.59-.91,0-1.64-1.98-1.64-2.55,0-.23.23-1.16.25-1.33.34-2.18.45-2.92.45-4.28,0-.23,0-2.15-.31-2.75-.14-.28-.51-.31-.54-.31-.14,0-.28.08-.42.23-2.38,2.44-4.59,4.73-8.56,6.54-.23.11-.85.37-1.02.37-.06,0-.11-.03-.11-.08,0-.14,3.06-2.49,3.63-2.97,2.46-2.1,4.25-3.94,5.98-6.66.2-.31.85-1.36.85-1.59,0-.2-.17-.23-.23-.23-.23,0-4.9,1.62-5.21,1.62-.54,0-1.67-.62-2.15-1.19-.23-.28-.45-1.02-.45-1.1,0-.11.11-.23.25-.23.17,0,.91.17,1.05.2ZM328.26,50.8c0,.62-.59,1.13-1.08,1.13-.65,0-.99-.57-1.76-1.76-.37-.57-.82-1.05-2.58-2.21-.06-.06-.2-.17-.2-.25,0-.14.42-.14.54-.14,2.38,0,5.07,1.5,5.07,3.23ZM336.11,63.89c0,.37-.34,1.19-1.08,1.19-.54,0-.85-.31-1.39-1.33-.4-.74-.57-.93-2.18-2.8-.11-.14-.54-.65-.54-.79,0-.08.2-.08.23-.08,2.58,0,4.96,2.3,4.96,3.83Z"/>
      <path class="cls-1" d="M361.03,58.34c.17,0,.48-.03.62-.03,1.73,0,1.98,1.05,1.98,1.25,0,.79-1.16.88-2.35.88-.65,0-3.49-.06-4.05-.06-3.91,0-10.4.37-11.08.51-.34.06-1.87.51-2.21.51-1.22,0-2.52-1.76-2.52-2.72,0-.17.08-.34.23-.34s.82.31.96.34c.48.14,1.64.25,3.46.25.94,0,10.82-.37,14.96-.6Z"/>
      <path class="cls-1" d="M371.32,48.96c1.02,0,3.06.91,3.06,1.81,0,.2-.28,1.02-.34,1.19-.14.71-.25,3.23-.25,3.94,0,.62.11.71.93.91,1.73.4,6.12,2.46,6.12,4.59,0,.94-.88.99-1.02.99-.71,0-.79-.11-2.69-2.58-.79-1.05-2.12-2.38-3-2.38-.28,0-.4,0-.4,2.1,0,3,.03,4.51.14,7.06.03.31.06,1.02.06,1.45,0,.71,0,2.58-.82,2.58s-1.59-1.93-1.59-2.66c0-.11.11-.71.11-.82.2-2.35.25-3.09.25-6.57,0-8.1,0-9.01-.34-9.92-.23-.59-.51-.88-.96-1.3l-.06-.11c.03-.25.76-.25.79-.25Z"/>
      <path class="cls-1" d="M390.3,56.55c-2.92,0-4.17-2.18-4.17-2.72,0-.14.03-.25.23-.25.11,0,.6.25,1.16.54.93.45,2.01.76,2.92.76,1.08,0,3-.51,3-.96,0-.25-.93-.91-1.3-1.16-.76-.54-1.81-1.5-1.81-2.32,0-.91.77-1.36,1.42-1.36.6,0,.88.17,2.18.94.37.23,1.13.65,2.66.65.34,0,1.79-.03,2.1,0,.96.08.96.94.96,1.02,0,.74-1.33,1.76-1.73,1.98-.77.48-.85.54-.85.74s.17.4.34.54c1.47,1.3,5.19,4.59,5.19,7.48,0,1.9-1.7,1.9-1.87,1.9-.51,0-.71-.11-2.41-1.05-1.08-.59-2.89-1.47-4.82-1.47-2.75,0-3.97,2.24-3.97,3.29,0,1.81,1.79,2.52,4.19,2.52.48,0,2.89-.25,2.95-.25.94-.08,1.39.62,1.39,1.11,0,1.5-2.72,1.5-3.23,1.5-2.35,0-3.6-.4-4.56-.88-1.44-.71-2.44-2.12-2.44-3.51,0-2.8,2.89-4.5,6.04-4.5.68,0,1.5.06,3.06.51,1.76.51,1.93.57,2.32.57.31,0,.99-.14.99-.91,0-1.84-3.77-6.06-4.59-6.06-.17,0-3,1.05-3.6,1.19-.85.2-1.64.2-1.76.2ZM395.29,53.21c.17,0,1.05-.28,1.05-.91,0-.37-.08-.45-.99-.99-1.87-1.13-2.1-1.25-2.41-1.25-.2,0-.54.14-.54.51,0,.68,1.02,1.5,1.25,1.67.4.31,1.28.96,1.64.96Z"/>
      <path class="cls-1" d="M425.53,52.96c-.2,1.9-.23,2.1-.23,2.27,0,.14.23.14.31.14.11,0,1.1-.11,1.33-.11.62-.06.88-.08.88-.4,0-.17-.06-.23-.57-.71-.06-.03-.11-.11-.11-.17,0-.11.17-.11.23-.11.28,0,1.59.37,2.04.51,1.79.51,2.21.96,2.21,1.53,0,.74-.82.94-1.39.94s-3.03-.31-3.54-.31c-1.64,0-1.67.06-1.84,1.53-.54,4.19-2.07,5.64-3.09,5.64-.96,0-1.08-.31-1.33-1.13-.14-.43-.37-.91-.54-1.25-.06-.08-.37-.51-.37-.59,0-.06.09-.06.14-.06.31,0,1.59.51,1.84.51.48,0,.76-.28.96-.74.48-1.02.82-2.95.82-3.23,0-.23,0-.37-.43-.37-.59,0-5.72,1.13-6.09,1.76-.2.34-.23.62-.25,1.16-.03.94-.08,3.51-.08,3.6,0,2.66.51,4,4.48,4,.57,0,1.53-.03,2.49-.23.11-.03.96-.2,1.36-.2.79,0,1.53.59,1.53,1.22,0,1.33-2.58,1.33-3.23,1.33-8.1,0-8.1-2.27-8.1-7.65,0-2.38,0-2.66-.51-2.66-.48,0-2.44.88-2.86.88-.62,0-2.92-.54-2.92-2.1,0-.37.11-.4.37-.4.28,0,1.47.11,1.73.11,1.76,0,3.12-.23,3.6-.4.45-.14.48-.4.48-1.45,0-1.53-.14-2.24-.45-2.98-.08-.23-.65-1.22-.65-1.33,0-.26.48-.4.82-.4.68,0,2.44.79,2.44,1.79,0,.17-.06.45-.14.88,0,.03-.14.88-.14,2.18,0,.59,0,.82.37.82.2,0,3.77-.79,4.51-.91,1.76-.28,1.96-.31,2.07-.91.08-.57.14-1.93.14-2.3,0-.85-.08-1.47-.34-1.96-.03-.03-.54-.99-.54-1.05,0-.28.48-.31.62-.31,1.73,0,2.41,1.39,2.41,1.98,0,.06-.4,1.36-.42,1.61Z"/>
      <path class="cls-1" d="M438.14,53.69c1.22,0,1.64-.11,5.53-1.22,2.52-.71,8.98-2.55,10.88-2.55.99,0,2.27.4,2.27,1.36,0,.74-.74,1.05-1.13,1.05-.37,0-1.98-.31-2.32-.31-3.6,0-7.62,3.32-7.62,10.63,0,4.76,1.79,5.07,3.46,5.07.42,0,2.46-.17,2.69-.17.88,0,1.42.37,1.42,1.05,0,1.5-3.12,1.5-3.29,1.5-5.81,0-5.81-4.73-5.81-6.06,0-1.25.03-7.25,4.14-10.91.11-.09.68-.54.68-.6s-.11-.06-.17-.06c-1.62,0-7.51,2.52-8.42,3.03-.4.23-.68.37-.99.37-1.42,0-2.75-1.9-2.41-2.29.11-.14.96.11,1.11.11Z"/>
      <path class="cls-1" d="M469.01,51.23c-.57,0-.82.26-.85.82-.03.74-.03,4.76-.03,5.89,0,1.3,0,8.9-.11,9.63-.25,1.5-1.81,2.27-2.55,2.27-.08,0-.4,0-.51-.25-.28-.77-.37-.94-.65-1.19-.31-.25-2.1-1.28-2.1-1.33,0-.08.23-.08.31-.08.03,0,2.21.25,2.63.25.99,0,.99-.57,1.05-2.44.08-3.12.17-10.65.17-12.81,0-.51-.2-.77-.91-.77-.23,0-1.39.03-1.93.08-.08,0-.48.06-.59.06-.08,0-.14-.06-.25-.17l-.54-.65q-.11-.14-.11-.2c0-.06.06-.06.08-.06.2,0,1.05.08,1.25.08.82.03,2.3.11,3.91.11h1.08c1.3,0,1.45,0,1.87-.68.11-.17.42-.57.68-.57.28,0,1.67,1.33,1.67,1.59,0,.4-.59.4-1.53.4h-2.04ZM478.9,68.43c0,.48-.85.25-1.16.42-.93.51-2.35,1.45-3.29,1.93-1.22.62-3.6,1.59-4.65,1.59-.28,0,.08-.2.37-.37,1.05-.59,3.46-1.93,5.02-3.63.23-.23,1.02-1.53,1.3-1.53s.82.34,1.08.51c.85.51,1.33.79,1.33,1.08ZM482.95,52.76c.34,0,.74,0,1.08-.48.37-.54.42-.62.57-.62s.74.4,1.02.59c.91.62,1.02.71,1.02.99,0,.23-.08.28-.51.59-.4.25-.48.31-.48,3.09,0,.37.03,4.9.06,5.5,0,.28.08,2.27.08,3.12,0,.25,0,1.67-1.42,1.67-.11,0-.77,0-.91-.59-.17-.59-.23-.82-.79-.82h-6.23c-.48,0-.65.11-.77.43-.11.37-.37,1.02-1.3,1.02-.82,0-.82-.57-.82-.79,0-.31.2-1.76.2-2.1.06-2.07.17-6.15.17-7.54,0-.71,0-2.07-.14-3.71,0-.17-.2-.99-.2-1.19,0-.11.11-.11.17-.11.37,0,.94.25,1.25.42,1.02.51,1.13.54,1.42.54.31,0,.62,0,.71-.31.06-.17.2-1.47.2-2.41,0-.48-.17-.77-.85-.77-.17,0-2.35.03-3.26.08-.08,0-.48.08-.6.08-.08,0-.14-.08-.25-.2l-.54-.65q-.11-.14-.11-.2c0-.06.06-.06.08-.06.2,0,1.05.08,1.25.08.82.06,2.29.11,3.91.11h6.12c1.22,0,1.53,0,1.81-.48.65-1.08.71-1.19.99-1.19.34,0,2.29,1.73,2.29,2.04,0,.37-.57.37-1.5.37h-6.04c-.54,0-.68.2-.79.37-.37.48-1.84,2.49-1.84,2.8s.28.31.43.31h4.53ZM482.98,56.89c.82,0,.82-.48.82-1.5,0-1.5,0-1.87-.82-1.87h-6.46c-.82,0-.82.48-.82,1.5,0,1.47,0,1.87.82,1.87h6.46ZM482.95,60.97c.77,0,.82-.42.82-1.11,0-2.01,0-2.24-.82-2.24h-6.43c-.77,0-.82.42-.82,1.11,0,2.01,0,2.24.82,2.24h6.43ZM476.52,61.71c-.82,0-.82.37-.82,1.28,0,1.87,0,2.07.82,2.07h6.38c.82,0,.82-.4.82-1.25,0-1.87,0-2.1-.82-2.1h-6.38ZM486.77,72.28c-.57,0-.74-.2-2.24-1.9-.62-.71-2.04-1.93-3.29-2.75-.57-.37-.74-.51-.74-.6,0-.11.25-.14.34-.14.06,0,6.86,1.7,6.86,4.08,0,.88-.51,1.3-.94,1.3Z"/>
      <path class="cls-1" d="M498.79,49.1c.48,1.73,1.28,2.92,1.47,2.92.11,0,.59-.11,1.1-.45.57-.34.65-.4.99-.4.57,0,.96.37.96.85,0,.45-.37,1.11-1.22,1.39-.08.03-.68.25-.68.34.2.34,1.47,2.38,1.73,2.38.11,0,1.02-.31,1.02-.79,0-.11-.37-.51-.37-.62,0-.23.28-.25.4-.28,1.02-.08,1.59-.14,1.76-.14.93,0,1.67.45,1.67,1.25,0,.4-.06,1.05-2.49,1.93-.74.25-.82.31-.82.42,0,.14.03.2.91,1.59,1.39,2.15,1.81,3.4,1.81,4.45,0,1.16-.91,1.96-1.64,1.96s-.91-.14-2.75-1.42c-1.11-.77-2.07-.85-2.75-.85-2.55,0-3.74,1.64-3.74,2.92,0,2.1,2.49,2.24,3.23,2.24.45,0,2.35-.2,2.75-.2.34,0,1.33.11,1.33,1.02,0,1.61-2.97,1.61-3.31,1.61-.82,0-5.58,0-5.58-3.97,0-1.64,1.22-4.45,5.5-4.45,1.05,0,1.59.11,2.72.34.79.17,1.05.17,1.25.17.42,0,.74-.14.74-.59,0-.57-.42-1.84-1.28-3.49-.42-.82-.45-.91-.71-.91-.17,0-1.25.31-1.47.37-1.19.28-2.12.42-3.4.42-1.7,0-2.86-.23-3.74-1.08-.45-.45-.68-.99-.68-1.22,0-.2.14-.28.25-.28.14,0,.76.45.91.51.93.42,1.98.57,2.97.57,2.24,0,4.39-.74,4.39-.91s-1.59-2.66-1.93-2.66c-.06,0-1.56.25-1.84.25-2.21,0-3.88-1.53-3.88-2.07,0-.08.06-.23.23-.23.11,0,.65.23.74.25.93.31,1.28.4,1.96.4s1.67-.14,1.67-.34c0-.08-1.53-2.32-2.89-3-.82-.4-.93-.42-.93-.62,0-.28.54-.76,1.1-.76.62,0,2.3.34,2.55,1.19Z"/>
      <path class="cls-1" d="M521.27,48c-.03-.08-.2-.37-.2-.43,0-.2.54-.2.71-.2.76,0,2.29.71,2.29,1.3,0,.28-.62,1.3-.71,1.5-.2.45-.42,1.45-.42,1.84,0,.06,0,.17.11.17.08,0,.17-.03.79-.25.25-.08.65-.23,1.02-.23.28,0,.82.08.82.54,0,1.05-1.93,1.62-2.72,1.87-.23.06-.28.08-.31.51-.03.08-.14,1.59-.14,2.75,0,.65,0,.82.37.82.31,0,2.35-.57,2.35-1.47,0-.08-.11-.42-.11-.51s.08-.08.14-.08c.14,0,.74.14.88.14,1.16.08,1.9.14,1.9.77,0,.99-3.15,2.29-4.45,2.72-.88.31-.96.34-.96.62,0,.54.31,3.8.34,4.08.11.93.11,1.05.71,1.27,2.21.91,4.02,2.41,4.02,3.74,0,.74-.51,1.19-.96,1.19-.4,0-.51-.14-1.53-1.36-.57-.71-1.67-1.53-1.98-1.53-.17,0-.23.14-.37.45-.6,1.33-2.49,2.86-4.82,2.86-2.66,0-3.63-1.9-3.63-3.06,0-1.7,1.73-3,5.1-3,.25,0,1.3.08,1.5.08.31,0,.31-.08.31-1.05,0-.57-.03-2.47-.06-3.23,0-.25,0-.42-.28-.42-.4,0-2.1.14-2.47.14-.65,0-2.63.03-3.91-1.16-.4-.4-.82-1.08-.82-1.3,0-.06,0-.11.08-.11.17,0,.93.34,1.08.4,1.28.43,2.55.51,3.43.51.68,0,2.58,0,2.78-.54.03-.08.25-3.8.25-3.83,0-.14-.14-.14-.59-.17-2.01-.14-3.8-1.59-3.8-2.69,0-.06.03-.2.11-.2.03,0,.71.4.79.45,1.25.76,2.32.76,2.75.76.6,0,.88-.14.94-.42.08-.28.17-1.9.17-2.49s-.37-1.45-.51-1.76ZM518.41,66.27c-.06,0-3.03,0-3.03,1.62,0,1.08,1.47,1.42,2.27,1.42.93,0,2.15-.45,2.8-1.05.51-.45.77-1.13.65-1.39-.2-.48-2.18-.59-2.69-.59Z"/>
      <path class="cls-1" d="M535.72,54.46c1.96,0,5.64-.59,7.71-.96,1.47-.25,1.64-.28,1.64-1.02,0-1.39-.17-3.12-.4-3.85-.03-.14-.48-.65-.48-.79,0-.2.43-.2.6-.2,1.25,0,2.35.51,2.35,1.42,0,.14-.11.74-.11.88,0,.65.82,1.08,2.49,1.79.71.28,1.45.57,2.49.57.28,0,1.47-.14,1.7-.14.37,0,1.62.11,1.62,1.11,0,.74-.54.99-1.53.99-.6,0-3.23-.25-3.77-.25-.68,0-2.52.06-3.06.28-.4.17-.45.57-.45,3.06,0,.79.03.99.37,1.84.48,1.19.82,2.15.82,3.83,0,5.5-4.28,9.01-5.16,9.01-.06,0-.14-.03-.14-.11,0-.06,1.16-1.42,1.36-1.7.74-1.11,1.59-2.95,1.59-4.17,0-.08,0-.4-.28-.4-.08,0-.51.06-.59.06-1.53,0-2.89-1.44-2.89-3.71,0-.37,0-3.49,2.75-3.91.79-.11.79-.28.79-1.73,0-1.53,0-1.7-.57-1.7-.28,0-3.17.54-5.02,1.13-.48.14-2.55,1.13-3.03,1.13-.62,0-2.97-1.19-2.97-2.35,0-.11.06-.25.14-.28.28.03,1.64.2,2.04.2ZM544.14,59.16c-.71,0-1.61,1.16-1.61,2.61,0,1.59,1.1,2.27,1.84,2.27,1.1,0,1.13-1.7,1.13-2.15,0-1.02-.28-1.76-.37-1.98-.08-.2-.42-.74-.99-.74ZM546.75,52.39c0,.45.11.54.51.54.11,0,1.96-.06,1.96-.48,0-.23-1.9-1.56-2.15-1.5-.2.06-.31.71-.31,1.45Z"/>
      <path class="cls-1" d="M567.27,68.85c0,1.59-1.27,3.15-3.17,3.15s-3.12-1.59-3.12-3.17c0-2.15,1.87-3.12,3.15-3.12,1.84,0,3.14,1.53,3.14,3.15ZM561.77,68.82c0,1.3,1.05,2.38,2.38,2.38,1.22,0,2.35-.96,2.35-2.32,0-1.1-.85-2.38-2.41-2.38s-2.32,1.22-2.32,2.32Z"/>
      <path class="cls-1" d="M103.28,101.63c0,.93-2.15,1.78-2.83,2.07-.4.14-.42.25-.48,1.25-.06.62-.06,2.92-.06,3.06,0,.17,0,.51.25.51.08,0,2.41-.96,2.86-1.13,2.8-1.05,4.08-1.13,4.82-1.13,2.07,0,4.36,1.62,4.36,4.28,0,3.74-3.94,5.44-6.26,5.44-1.62,0-2.92-.82-2.92-2.29,0-1.33,1.16-2.24,1.42-2.24.08,0,.14.08.14.14,0,.08-.06.14-.11.23-.08.11-.25.34-.25.77,0,1.36,1.56,1.36,1.84,1.36,1.87,0,4.25-1.25,4.25-3.51,0-2.01-1.5-3.12-2.72-3.12-.79,0-2.55.37-5.87,2.12-1.59.85-1.76.93-1.76,1.42,0,.31.08,1.59.08,1.87,0,1.3-.42,3.17-1.45,3.17-.76,0-1.08-.59-1.3-1.05-.91-1.76-1.05-1.76-1.42-1.76-.26,0-.54.11-.71.17-.17.08-.88.57-1.08.57-.31,0-1.76-.85-1.76-1.79,0-.51.31-1.1.82-1.1.17,0,.99.14,1.16.14.76,0,1.27-.14,2.95-.96,1.45-.71,1.62-.79,1.62-1.59,0-.65-.03-3.06-.06-3.54,0-.2-.08-.62-.4-.62-.34,0-1.13.2-1.3.25-1.45.48-1.59.54-2.01.54-.96,0-2.04-1.96-2.04-2.15,0-.14.11-.2.23-.2.08,0,.42.11.51.11.51.08.94.14,1.3.14,1.02,0,3.43-.68,3.6-.85.14-.2.28-2.78.28-3.09,0-.88-.14-1.45-.93-2.27-.06-.06-.4-.4-.4-.45,0-.26.45-.31.62-.31,1.9,0,2.92,1.39,2.92,1.93,0,.25-.54,1.27-.6,1.47-.03.2-.28,1.33-.28,1.84,0,.11.06.31.23.31.2,0,.99-.31.99-.71,0-.06-.14-.34-.14-.4,0-.03.06-.08.11-.11.4-.06,1.76.34,1.76,1.22ZM96.82,112.48c0,.43.77,1.33,1.19,1.33.4,0,.79-.79.79-2.18,0-.11,0-.4-.08-.45-.08,0-1.9.91-1.9,1.3ZM115.44,103.67c0,.59-.34,1.36-.93,1.36-.17,0-.82-.06-.96-.06-.14.03-.74.2-.85.2-.06,0-.14-.03-.14-.14,0-.06.08-.2.08-.23.06-.17.11-.31.11-.51,0-1.13-1.42-1.53-2.38-1.53-.45,0-.71.11-1.11.28-.11.06-.2.08-.28.08s-.11-.03-.11-.11c0-.2,1.19-1.79,3.06-1.79,2.18,0,3.51,1.13,3.51,2.44Z"/>
      <path class="cls-1" d="M127.32,97.63c-1.02,0-1.33.28-1.96.96-2.75,3.06-4.96,4.08-5.3,4.08-.06,0-.11,0-.11-.06s1.3-1.45,1.53-1.7c1.79-2.07,3.46-4.62,4.45-7.06.14-.31.4-.96.57-.96.06,0,2.61.99,2.61,1.56,0,.23-.2.28-.68.45-.54.17-1.36,1.56-1.36,1.73,0,.23.31.23.45.23h10.74c1.19,0,1.33,0,1.53-.2.23-.2,1.13-1.5,1.44-1.5.43,0,2.21,1.59,2.21,2.04,0,.42-.51.42-1.53.42h-14.59ZM133.27,117.21c-.82,0-1.19-.59-1.67-1.39-.14-.25-1.1-1.87-1.76-1.87-.25,0-.4.08-.93.57-3.63,3.12-7.28,4.42-7.93,4.42-.08,0-.17,0-.17-.14s1.16-.74,1.45-.88c3.06-1.56,6.06-4.79,6.06-5.41,0-.91-4.82-3.83-4.82-4.19,0-.08.11-.11.14-.11.28,0,1.9.68,3.29,1.3.42.2,2.44,1.28,2.66,1.28.62,0,1.96-2.69,2.35-4.19.2-.74.2-.82.37-.82.11,0,2.38,1.05,2.38,1.67,0,.25-.17.37-.45.51-.43.23-.57.45-1.81,2.35-.11.2-.68.99-.79,1.16-.06.08-.17.31-.17.45,0,.28.11.4,1.02,1.28.4.37,1.96,1.87,1.96,2.92s-.88,1.11-1.16,1.11ZM126.92,104.94c-.65,0-2.58.03-3.57.08-.11,0-.51.06-.6.06-.11,0-.17-.06-.25-.17l-.57-.65c-.08-.11-.11-.14-.11-.2,0-.03.03-.06.11-.06.2,0,1.08.08,1.25.11,1.3.06,2.55.08,3.88.08h12.04c.2,0,.45,0,.74-.14.25-.11,1.22-.94,1.47-.94.45,0,1.73,1.59,1.73,1.84,0,.28-.17.37-.71.6-.91.42-.93,3.14-.93,4.22,0,1.96.11,4.48,1.13,5.75.23.28.68.74.99.74.71,0,1.36-4.11,1.64-4.11.14,0,.14.14.14.2,0,.68-.37,3.57-.37,4.17,0,.31.48,1.73.48,2.04,0,.65-.54.79-.96.79-1.16,0-2.35-.88-3.15-1.93-1.19-1.62-1.76-3.54-1.76-7.14,0-1.27.03-2.72.17-3.8.03-.14.11-.71.11-.88,0-.43-.25-.68-.79-.68h-12.13ZM135.87,100.52c1.25,0,1.47,0,1.81-.48.68-.96.74-1.08,1.05-1.08.71,0,1.93,1.76,1.93,1.93,0,.37-.57.37-1.5.37h-9.72c-.62,0-2.58.03-3.57.08-.08,0-.51.06-.59.06-.11,0-.17-.06-.25-.17l-.54-.65c-.11-.11-.14-.14-.14-.2,0-.03.06-.06.11-.06.2,0,1.08.08,1.25.11,1.3.06,2.58.08,3.88.08h6.29Z"/>
      <path class="cls-1" d="M159.42,101.06c.23,0,.4,0,.51-.11.45-.4.62-.54.76-.54.2,0,1.73.93,1.73,1.42,0,.2-.06.23-.51.62-.2.17-.2.48-.2.76,0,.62,0,2.49.03,2.86,0,.34.17,2.75.17,3.23,0,1.27-.99,1.33-1.19,1.33-.59,0-.65-.34-.74-.85-.08-.48-.51-.48-.74-.48h-.96c-.76,0-.76.25-.76,1.16,0,1.87,0,2.1.85,2.1.42,0,.96,0,1.22-.23.2-.14,1.02-1.22,1.27-1.22.34,0,1.98,1.42,1.98,1.84,0,.34-.23.34-.91.34h-3.57c-.34,0-.76.03-.76.71,0,.54.17,3.09.17,3.68,0,.28,0,1.36-1.3,1.36-.48,0-.74-.23-.74-1.11,0-.54.14-3.31.14-3.85,0-.79-.28-.79-.99-.79-.03,0-2.04.03-2.75.08-.08,0-.51.06-.6.06-.11,0-.14-.06-.25-.2l-.54-.62q-.14-.17-.14-.2c0-.06.08-.06.11-.06.59,0,3.57.2,4.22.2.57,0,.94-.06.94-.65v-1.79c0-.57-.06-.82-.74-.82h-.96c-.48,0-.6.17-.65.4-.17.51-.4,1.16-1.42,1.16-.51,0-.6-.26-.6-.71,0-.34.17-5.27.17-6.18s-.03-1.05-.17-2.27c-.03-.2-.2-1.08-.2-1.28,0-.11.03-.23.31-.23s.85.2,1.22.42c.57.34.74.42,1.36.42h.93c.71,0,.74-.34.74-.91,0-1.81,0-2.04-.79-2.04-.88,0-2.15.03-2.97.08-.08,0-.51.08-.6.08-.11,0-.14-.08-.25-.2l-.54-.65q-.11-.14-.11-.2c0-.06.06-.06.08-.06.14,0,.88.08,1.02.08.51.03,2.89.11,3.4.11.31,0,.71,0,.71-.65,0-.03-.03-1.22-.2-2.04-.03-.14-.23-.85-.23-1.02,0-.25.4-.28.45-.28.23,0,2.49.37,2.49.93,0,.14-.45.6-.54.71-.14.23-.28.57-.28,1.36,0,.71.03.99.79.99.94,0,1.11-.11,1.39-.51.57-.79.62-.88.88-.88.4,0,1.76,1.3,1.76,1.76,0,.14-.08.26-.31.31s-.51.06-1.33.06h-2.44c-.23.03-.59.03-.71.48-.03.08-.03,1.62-.03,1.76,0,.57.17.71.79.71h1.11ZM155.17,104.69c.71,0,.71-.25.71-1.33,0-1.3,0-1.53-.71-1.53h-1.05c-.74,0-.74.23-.74,1.3,0,1.3,0,1.56.74,1.56h1.05ZM154.13,105.42c-.74,0-.74.28-.74,1.19,0,1.76,0,1.93.77,1.93h1.02c.71,0,.71-.23.71-1.25,0-1.67,0-1.87-.71-1.87h-1.05ZM159.25,104.69c.79,0,.79-.28.79-1.53,0-1.05,0-1.33-.79-1.33h-.96c-.79,0-.79.28-.79,1.53,0,1.05,0,1.33.79,1.33h.96ZM158.23,105.42c-.71,0-.71.23-.71,1.27,0,1.67,0,1.84.71,1.84h1.05c.74,0,.74-.17.74-1.9,0-.96,0-1.22-.71-1.22h-1.08ZM162.8,110.75q-.11-.14-.11-.2s.03-.06.08-.06c.62,0,3.37.2,3.94.2.85,0,.85-.23.85-2.38,0-.25,0-.85-.11-1.81-.03-.11-.23-.59-.23-.68,0-.17.37-.17.48-.17.2,0,2.35.2,2.35.76,0,.23-.03.25-.23.37-.45.23-.45,1.39-.45,2.21,0,1.53,0,1.7,1.33,1.7,1.05,0,1.19,0,1.56-.51.54-.79.62-.88.85-.88.45,0,1.79,1.33,1.79,1.73,0,.14-.08.25-.31.34-.25.06-.57.06-1.36.06h-3c-.85,0-.85.08-.85,2.72s0,2.81.82,2.81h.96c1.25,0,1.39,0,1.64-.23.25-.2,1.19-1.45,1.5-1.45s2.21,1.53,2.21,1.98-.42.45-1.28.45h-9.41c-2.49,0-3.29.03-3.57.06-.11,0-.51.08-.59.08-.11,0-.17-.08-.25-.2l-.54-.65c-.11-.11-.14-.14-.14-.17,0-.06.06-.08.11-.08.2,0,1.05.08,1.25.11,1.39.06,2.55.08,3.88.08h.74c.88,0,.88-.2.88-2.64,0-2.78,0-2.89-.91-2.89-.65,0-2.1.06-2.69.11-.06,0-.34.03-.4.03-.11,0-.14-.06-.25-.17l-.54-.65ZM170.02,95.25c.4,0,.94,0,1.36-.57.31-.43.4-.54.68-.54.34,0,1.81,1.22,1.81,1.84,0,.26-.06.28-.45.45-.17.08-.4.23-.79.79-1.25,1.87-1.62,2.41-2.52,3.49-.17.17-.34.37-.34.62,0,.6,2.98,2.21,5.19,2.72.23.06,1.45.34,1.45.42,0,.03-.25.11-.31.14-.23.11-.74.34-1.08.65-.2.17-.91,1.19-1.02,1.19-.08,0-2.47-.82-4.73-3.26-.31-.31-.54-.54-.85-.54-.11,0-.23.06-.31.11-.23.11-1.22.91-1.44,1.08-1.16.82-3.68,1.96-4.42,1.96-.06,0-.14,0-.14-.06s.31-.23.85-.54c2.12-1.22,4.36-3.37,4.36-3.94,0-.23-.14-.42-.31-.65-.77-1.02-1.36-2.21-1.84-3.49-.34-.93-.42-1.11-1.08-1.11-.2,0-1.13.11-1.28.11-.08,0-.14-.06-.23-.2l-.57-.65q-.11-.14-.11-.17c0-.06.06-.08.08-.08.2,0,1.05.11,1.25.11.82.03,2.29.08,3.91.08h2.89ZM166.99,96.01c-1.13,0-1.28,0-1.28.37,0,.48,1.84,3.68,2.58,3.68.51,0,2.32-3.15,2.32-3.63,0-.43-.48-.43-.68-.43h-2.95Z"/>
      <path class="cls-1" d="M184.34,110.58c.48,0,.74-.45,1.36-2.21.17-.48.25-.71.4-.71s.14.28.14.34c0,.31-.65,3.63-.65,4.31,0,.48.4,1.33.45,1.47.2.4.34.88.34,1.25,0,.57-.45.96-.93.96-1.76,0-3.06-4.82-3.06-7.54,0-1.81.23-2.63,1.19-6.18.48-1.73.48-2.44.48-2.95,0-.91-.17-1.67-.28-2.01-.03-.08-.17-.42-.17-.51s.11-.14.23-.14c1.3,0,2.49,2.58,2.49,3.6,0,.31,0,.34-.54,1.3-.31.6-2.18,4.76-2.18,7.31,0,.85.28,1.7.74,1.7ZM200.8,113.41c0,1.11-.85,1.45-4.82,1.45-2.78,0-3.83-.71-4.42-1.28-.14-.14-.88-.88-.88-1.42,0-.06,0-.28.14-.28.11,0,.57.34.68.4.82.43,1.98.48,3.03.48.74,0,1.76,0,2.46-.08.4-.03,2.38-.23,2.49-.23,1.08,0,1.3.62,1.3.96ZM199.47,99.61c0,1.39-3.14,1.39-3.49,1.39-3.2,0-4.96-1.73-4.96-2.1,0-.06.03-.14.2-.14.08,0,.42.11.79.2.65.14,1.42.17,1.93.17,1.39,0,2.72-.28,3.12-.42.85-.31.94-.34,1.22-.31.51.08,1.19.57,1.19,1.22Z"/>
      <path class="cls-1" d="M217.04,101.63c0,.93-2.15,1.78-2.83,2.07-.4.14-.42.25-.48,1.25-.06.62-.06,2.92-.06,3.06,0,.17,0,.51.25.51.08,0,2.41-.96,2.86-1.13,2.8-1.05,4.08-1.13,4.82-1.13,2.07,0,4.36,1.62,4.36,4.28,0,3.74-3.94,5.44-6.26,5.44-1.62,0-2.92-.82-2.92-2.29,0-1.33,1.16-2.24,1.42-2.24.08,0,.14.08.14.14,0,.08-.06.14-.11.23-.08.11-.25.34-.25.77,0,1.36,1.56,1.36,1.84,1.36,1.87,0,4.25-1.25,4.25-3.51,0-2.01-1.5-3.12-2.72-3.12-.79,0-2.55.37-5.87,2.12-1.59.85-1.76.93-1.76,1.42,0,.31.08,1.59.08,1.87,0,1.3-.42,3.17-1.45,3.17-.76,0-1.08-.59-1.3-1.05-.91-1.76-1.05-1.76-1.42-1.76-.26,0-.54.11-.71.17-.17.08-.88.57-1.08.57-.31,0-1.76-.85-1.76-1.79,0-.51.31-1.1.82-1.1.17,0,.99.14,1.16.14.76,0,1.27-.14,2.95-.96,1.45-.71,1.62-.79,1.62-1.59,0-.65-.03-3.06-.06-3.54,0-.2-.08-.62-.4-.62-.34,0-1.13.2-1.3.25-1.45.48-1.59.54-2.01.54-.96,0-2.04-1.96-2.04-2.15,0-.14.11-.2.23-.2.08,0,.42.11.51.11.51.08.94.14,1.3.14,1.02,0,3.43-.68,3.6-.85.14-.2.28-2.78.28-3.09,0-.88-.14-1.45-.93-2.27-.06-.06-.4-.4-.4-.45,0-.26.45-.31.62-.31,1.9,0,2.92,1.39,2.92,1.93,0,.25-.54,1.27-.6,1.47-.03.2-.28,1.33-.28,1.84,0,.11.06.31.23.31.2,0,.99-.31.99-.71,0-.06-.14-.34-.14-.4,0-.03.06-.08.11-.11.4-.06,1.76.34,1.76,1.22ZM210.58,112.48c0,.43.77,1.33,1.19,1.33.4,0,.79-.79.79-2.18,0-.11,0-.4-.08-.45-.08,0-1.9.91-1.9,1.3ZM229.2,103.67c0,.59-.34,1.36-.93,1.36-.17,0-.82-.06-.96-.06-.14.03-.74.2-.85.2-.06,0-.14-.03-.14-.14,0-.06.08-.2.08-.23.06-.17.11-.31.11-.51,0-1.13-1.42-1.53-2.38-1.53-.45,0-.71.11-1.11.28-.11.06-.2.08-.28.08s-.11-.03-.11-.11c0-.2,1.19-1.79,3.06-1.79,2.18,0,3.51,1.13,3.51,2.44Z"/>
      <path class="cls-1" d="M242.15,95.19c.31,0,.4,0,.71-.28.48-.42.65-.6.88-.6.45,0,1.87,1.25,1.87,1.76,0,.11-.57.45-.65.54-.2.2-.2.28-.2,1.3,0,.71.11,4.25.11,4.65,0,.37,0,1.84-1.33,1.84-.62,0-.71-.45-.79-.85-.08-.4-.51-.4-.88-.4h-3.43c-.91,0-.91.2-.91,1.96,0,1.5.03,7.99.08,10.06,0,.28.08,1.7.08,2.01,0,1.45-.99,1.84-1.53,1.84-.48,0-.74-.28-.74-.96,0-.14.03-.43.03-.51.28-9.66.31-10.74.31-19.52,0-.54-.23-3.15-.23-3.4,0-.11,0-.28.11-.28.37,0,.82.23,1.59.65.4.2.48.2.82.2h4.08ZM238.27,95.93c-.48,0-.74.03-.74.57v1.59c0,.59.25.62.74.62h3.85c.37,0,.68-.03.74-.4v-1.64c0-.65-.11-.74-.74-.74h-3.85ZM238.3,99.44c-.48,0-.76,0-.76.62v1.93c.08.42.34.42.76.42h3.77c.48,0,.77,0,.77-.62v-1.96c-.06-.4-.34-.4-.77-.4h-3.77ZM248.59,107.6c.28,0,.48,0,.71-.28.4-.51.51-.68.79-.68.31,0,1.73,1.02,1.73,1.59,0,.17-.17.31-.43.57-.14.14-.2.28-.23.54-.03.57.03,3.4.03,4.05,0,.71-.03,1.05-.25,1.33-.28.31-.82.74-1.25.74-.45,0-.57-.45-.57-.79,0-.68-.42-.68-.91-.68h-3.6c-.85,0-.85.14-.91.94-.08,1.13-1.27,1.42-1.47,1.42-.51,0-.65-.43-.65-1.05,0-.2.03-.96.06-1.22.06-1.22.11-1.98.11-3.12,0-.71.03-2.38-.06-3.15-.03-.17-.11-.79-.11-.88,0-.11.03-.23.14-.23.17,0,.25,0,1.67.65.4.2.57.25.94.25h4.25ZM248.27,113.21c.42,0,.82,0,.93-.34.08-.2.08-1.5.08-1.81,0-.34-.03-2.18-.08-2.35-.14-.34-.48-.34-.93-.34h-3.63c-.82,0-.99.08-.99.88v3.43c0,.48.4.54.99.54h3.63ZM254.9,95.19c.31,0,.45,0,.68-.28.57-.65.62-.74.82-.74.23,0,1.87.94,1.87,1.45,0,.17-.17.34-.34.48-.42.37-.45.65-.45,1.08v12.95c0,.74.06,4.39.06,5.21,0,.99,0,2.01-.71,2.66-.54.48-1.44.91-1.79.91-.14,0-.37-.11-.37-.25-.03-.51-.08-.82-.4-1.13-.25-.25-1.76-.99-1.76-1.13,0-.08.11-.14.31-.14.25,0,1.39.06,1.67.06,1.16,0,1.16-.23,1.16-2.32,0-1.42.06-8.42.06-10,0-.82-.31-.82-.94-.82h-3.66c-.4,0-.74,0-.85.4-.28.91-1.16.91-1.3.91-.23,0-.68-.06-.71-.91,0-.23.03-4.7.03-5.58,0-.42-.14-2.55-.14-3.03,0-.14.06-.45.31-.45.31,0,.74.2,1.36.51.31.14.54.2.79.2h4.28ZM254.9,98.71c.65,0,.82-.03.82-.82,0-1.36,0-1.53-.06-1.7-.08-.25-.31-.25-.77-.25h-3.91c-.68,0-.82.03-.82.82,0,1.36,0,1.5.06,1.67.08.28.31.28.76.28h3.91ZM254.93,102.39c.57,0,.79,0,.79-.62v-1.67c0-.65-.23-.65-.79-.65h-3.94c-.57,0-.79,0-.79.65v1.67c0,.62.23.62.79.62h3.94Z"/>
      <path class="cls-1" d="M268.31,101.46c0,.23-.06.31-.34,1.13-.4,1.11-.68,2.15-.68,3.66,0,2.86,1.47,4.93,2.35,4.93.48,0,.59-.14,1.45-1.56.17-.28.65-.96.88-.96.08,0,.14.11.14.23s-.06.48-.08.57c-.31,1.3-.37,1.56-.37,2.15,0,.48.08.85.17,1.13.08.31.23.79.23.93,0,.57-.59.88-1.08.88-1.81,0-5.38-2.98-5.38-8.39,0-.79.4-4.28.4-5.02,0-.57-.11-1.33-.2-1.64-.2-.71-.23-.79-.23-.96,0-.08.11-.11.17-.11,1.3,0,2.58,2.27,2.58,3.03ZM282.14,102.11c1.45,1.16,2.52,3.17,2.52,5.41,0,.54-.06,1.87-1.42,1.87s-1.39-1.53-1.39-1.9c0-2.35,0-3.54-1.5-5.04-.23-.23-1.36-1.11-1.36-1.28,0-.08.11-.14.25-.14.03,0,1.67.08,2.89,1.08Z"/>
      <path class="cls-1" d="M304.39,94.23s.06.08.06.14c0,.17-.08.2-.31.37-.08.06-.11.14-.11.23,0,.2,1.81,3.63,4.42,5.95,2.01,1.79,4.31,3.26,7.14,4.36q.91.34.91.54c0,.25-.11.28-.99.48-.6.11-1.36.37-1.79.79-.11.11-.25.25-.37.25s-1.47-.48-4.11-3.12c-3.06-3.06-4.11-4.76-5.33-7.48-.17-.37-.59-1.28-.74-1.28s-.2.08-.77.91c-4.67,6.77-11.16,11.02-11.9,11.02-.14,0-.23-.08-.23-.17,0-.14,2.75-2.58,3.26-3.09,3.88-4,6.09-7.65,6.91-9.49.14-.28.6-1.79.68-1.84.14-.08,3.09,1.13,3.26,1.42ZM306.94,109.02c.2,0,.42,0,.62-.11.17-.14.91-.96,1.11-.96.17,0,1.84,1.3,1.84,1.79,0,.25-.08.34-.37.59s-.31,1.53-.31,1.96c0,.88.17,4.82.17,5.61s-1.42,1.13-1.81,1.13c-.62,0-.62-.54-.62-.74,0-1.19,0-1.5-.74-1.5h-8.56c-.28,0-.85,0-.85.76s0,.85-.2,1.05c-.23.23-.94.57-1.5.57-.74,0-.74-.59-.74-.74,0-.17.25-5.38.25-6.4,0-.59.03-2.24-.06-2.75,0-.11-.14-.77-.14-.88,0-.08,0-.31.26-.31.23,0,1.42.65,1.7.76.34.17.74.17,1.16.17h8.78ZM302.86,104.6c1.02,0,1.36,0,1.67-.25.23-.2,1.1-1.39,1.36-1.39s2.58,1.81,2.58,2.04c0,.34-.68.34-1.53.34h-5.33c-2.01,0-2.78.03-3.6.08-.08,0-.51.06-.59.06s-.14-.06-.25-.17l-.54-.65c-.11-.11-.11-.14-.11-.2,0-.03.03-.06.08-.06.2,0,1.08.11,1.25.11,1.39.08,2.58.08,3.91.08h1.11ZM306.85,116.05c.82,0,.82-.54.82-.88,0-.71.03-3.88.03-4.53,0-.34,0-.88-.79-.88h-8.61c-.82,0-.88.45-.88.88,0,.71-.03,3.88-.03,4.53,0,.37.03.88.85.88h8.61Z"/>
      <path class="cls-1" d="M328.73,100.66c.74.45.74.91.74,1.11,0,.48-.17.88-.4,1.36-.08.17-.2.4-.2.54,0,.08.06.14.11.14.14,0,.68-.37.82-.43,2.81-1.42,4.33-1.64,5.72-1.64,4.42,0,6.43,2.95,6.43,5.95,0,6.8-9.07,9.01-9.72,9.01-.06,0-.11,0-.11-.06,0-.08,1.79-1.08,2.1-1.3,1.42-.96,5.53-4.08,5.53-8.3,0-3.23-2.35-4.39-4.28-4.39-3.12,0-6.35,1.7-7.42,2.92-.37.42-.54.91-.54,2.83,0,.62.03,4.22.14,5.72.03.23.14,1.16.14,1.33,0,.91-.82,1.64-1.25,1.64-.79,0-.88-1.02-.99-2.75-.06-.6-.23-3.29-.91-3.29-.14,0-.51.71-.74,1.16-.43.82-1.02,1.98-2.04,1.98-.34,0-.68-.23-.68-.79,0-.48.14-.74.85-1.93.28-.51,1.42-2.46,1.42-2.75,0-.51-.59-1.56-1.1-2.18-.91-1.13-.99-1.25-.99-1.76,0-.96.77-1.08,1.93-1.25.48-.08.65-.11,2.55-1.87.14-.14.71-.6.74-.68.14-.28.25-1.53.25-2.41,0-2.52-.65-3.46-1.13-4-.48-.57-.54-.62-.54-.74,0-.23.68-.37.96-.37.76,0,2.69,1.16,2.69,2.1,0,.42-.37,2.21-.42,2.58-.06.45-.14,1.33-.14,1.64,0,.54.03.57.48.85ZM325.22,104.03c-.25.4-.57.93-1.22.99-.91.06-1.19.08-1.19.45,0,.4,1.02,2.21,1.33,2.21.17,0,.25-.14.57-.59,1.76-2.58,1.76-2.64,1.76-3.66,0-.23,0-.37-.11-.4-.17-.03-.65.17-1.13.99ZM325.13,109.93c0,.37.57,1.11.82,1.11.34,0,.34-1.53.34-2.83,0-.11-.06-.17-.14-.17-.23,0-1.02,1.56-1.02,1.9Z"/>
      <path class="cls-1" d="M364.41,99.64c-.2,1.9-.23,2.1-.23,2.27,0,.14.23.14.31.14.11,0,1.1-.11,1.33-.11.62-.06.88-.08.88-.4,0-.17-.06-.23-.57-.71-.06-.03-.11-.11-.11-.17,0-.11.17-.11.23-.11.28,0,1.59.37,2.04.51,1.79.51,2.21.96,2.21,1.53,0,.74-.82.94-1.39.94s-3.03-.31-3.54-.31c-1.64,0-1.67.06-1.84,1.53-.54,4.19-2.07,5.64-3.09,5.64-.96,0-1.08-.31-1.33-1.13-.14-.43-.37-.91-.54-1.25-.06-.08-.37-.51-.37-.59,0-.06.09-.06.14-.06.31,0,1.59.51,1.84.51.48,0,.76-.28.96-.74.48-1.02.82-2.95.82-3.23,0-.23,0-.37-.43-.37-.59,0-5.72,1.13-6.09,1.76-.2.34-.23.62-.25,1.16-.03.94-.08,3.51-.08,3.6,0,2.66.51,4,4.48,4,.57,0,1.53-.03,2.49-.23.11-.03.96-.2,1.36-.2.79,0,1.53.59,1.53,1.22,0,1.33-2.58,1.33-3.23,1.33-8.1,0-8.1-2.27-8.1-7.65,0-2.38,0-2.66-.51-2.66-.48,0-2.44.88-2.86.88-.62,0-2.92-.54-2.92-2.1,0-.37.11-.4.37-.4.28,0,1.47.11,1.73.11,1.76,0,3.12-.23,3.6-.4.45-.14.48-.4.48-1.45,0-1.53-.14-2.24-.45-2.98-.08-.23-.65-1.22-.65-1.33,0-.26.48-.4.82-.4.68,0,2.44.79,2.44,1.79,0,.17-.06.45-.14.88,0,.03-.14.88-.14,2.18,0,.59,0,.82.37.82.2,0,3.77-.79,4.51-.91,1.76-.28,1.96-.31,2.07-.91.08-.57.14-1.93.14-2.3,0-.85-.08-1.47-.34-1.96-.03-.03-.54-.99-.54-1.05,0-.28.48-.31.62-.31,1.73,0,2.41,1.39,2.41,1.98,0,.06-.4,1.36-.42,1.61Z"/>
      <path class="cls-1" d="M381.99,94.43c.68,0,3.49,1.44,3.49,2.49,0,.76-7.59,8.1-7.59,9.32,0,.48.23.91.85,1.56,2.52,2.75,6.38,6.91,6.38,8.87,0,.93-.62,1.33-1.22,1.33-.88,0-1.05-.54-1.64-2.21-.88-2.49-3.97-6.26-4.7-7.17-.88-1.08-1.11-1.5-1.11-2.1,0-.76.37-1.62,2.29-4.02,2.81-3.51,3.85-4.99,3.85-6.04,0-.6-.25-1.02-.71-1.64-.08-.14-.14-.25-.08-.34.03-.06.11-.06.2-.06Z"/>
      <path class="cls-1" d="M393.64,113.04c2.92-5.53,3.74-10.4,3.74-10.43,0-.28-.11-.28-1.02-.28-.59,0-1.59-.03-2.52-.51-.91-.45-1.47-1.25-1.47-1.53,0-.08.08-.11.11-.11.11,0,.54.23.65.25.42.14,1.59.31,2.52.31.42,0,1.79-.06,2.01-.25s.31-2.12.31-2.32c0-.23,0-1.19-.34-1.76-.11-.14-.79-.85-.79-1.05,0-.28.54-.65,1.27-.65,1.28,0,2.27,1.16,2.27,1.5,0,.14-.31.71-.31.85,0,.54,2.27,1.02,2.55,1.02.11,0,.74-.06.88-.06.23,0,.94,0,.94.88,0,1.59-2.41,2.41-4.28,2.92-.96.25-1.08.28-1.19.79-1.45,6.18-1.47,6.21-2.07,8.05-1.96,5.89-2.98,5.89-3.51,5.89-.68,0-.77-.94-.77-1.25,0-.34.14-.62,1.02-2.27ZM399.62,100.1c.14,0,2.29-.77,2.29-1.13,0-.28-1.53-.91-1.84-.91-.17,0-.25.06-.31.34-.11.57-.11.65-.25,1.33-.03.2-.06.37.11.37ZM401.77,112.11c.6,2.47,3.66,3,5.81,3,.48,0,2.63-.2,3.09-.2.96,0,2.27.48,2.27,1.42,0,.79-1.05.96-3.46.96-4.59,0-8.42-1.16-8.42-4.73,0-.65.17-1.25.4-1.25.11,0,.28.71.31.79ZM408.03,102.25c2.69,0,4.73.79,4.73,2.04,0,.68-.59.68-.82.68-.25,0-1.36-.08-1.59-.08-.51,0-.93,0-2.1.45-.71.25-.99.37-1.19.37-.06,0-.14,0-.14-.08,0-.2,1.47-1.28,1.47-1.59,0-.42-2.01-.45-2.44-.45-.62,0-1.39.03-2.04.11-.17.03-.82.11-.93.11-.08,0-.23,0-.25-.06-.2-.37,2.27-1.5,5.3-1.5ZM412.65,99.1c0,.45-.4,1.08-.88,1.08-.4,0-.62-.2-1.45-1.3-.48-.65-.74-.85-1.93-1.76-.11-.08-.4-.34-.4-.45s.25-.23.51-.23c2.52,0,4.14,1.64,4.14,2.66ZM415.57,97.23c0,.37-.25.85-.74.85-.62,0-.96-.54-1.42-1.19-.37-.54-1.45-1.36-2.35-1.79-.28-.14-.34-.25-.34-.34,0-.25.65-.25,1.08-.25.96,0,3.77.82,3.77,2.72Z"/>
      <path class="cls-1" d="M423.82,103.24c-2.92,0-4.17-2.18-4.17-2.72,0-.14.03-.25.23-.25.11,0,.6.25,1.16.54.93.45,2.01.76,2.92.76,1.08,0,3-.51,3-.96,0-.25-.93-.91-1.3-1.16-.76-.54-1.81-1.5-1.81-2.32,0-.91.77-1.36,1.42-1.36.6,0,.88.17,2.18.94.37.23,1.13.65,2.66.65.34,0,1.79-.03,2.1,0,.96.08.96.94.96,1.02,0,.74-1.33,1.76-1.73,1.98-.77.48-.85.54-.85.74s.17.4.34.54c1.47,1.3,5.19,4.59,5.19,7.48,0,1.9-1.7,1.9-1.87,1.9-.51,0-.71-.11-2.41-1.05-1.08-.59-2.89-1.47-4.82-1.47-2.75,0-3.97,2.24-3.97,3.29,0,1.81,1.79,2.52,4.19,2.52.48,0,2.89-.25,2.95-.25.93-.08,1.39.62,1.39,1.11,0,1.5-2.72,1.5-3.23,1.5-2.35,0-3.6-.4-4.56-.88-1.44-.71-2.44-2.12-2.44-3.51,0-2.8,2.89-4.5,6.04-4.5.68,0,1.5.06,3.06.51,1.76.51,1.93.57,2.32.57.31,0,.99-.14.99-.91,0-1.84-3.77-6.06-4.59-6.06-.17,0-3,1.05-3.6,1.19-.85.2-1.64.2-1.76.2ZM428.81,99.9c.17,0,1.05-.28,1.05-.91,0-.37-.08-.45-.99-.99-1.87-1.13-2.1-1.25-2.41-1.25-.2,0-.54.14-.54.51,0,.68,1.02,1.5,1.25,1.67.4.31,1.28.96,1.64.96Z"/>
      <path class="cls-1" d="M445.87,101.46c0,.23-.06.31-.34,1.13-.4,1.11-.68,2.15-.68,3.66,0,2.86,1.47,4.93,2.35,4.93.48,0,.59-.14,1.45-1.56.17-.28.65-.96.88-.96.08,0,.14.11.14.23s-.06.48-.08.57c-.31,1.3-.37,1.56-.37,2.15,0,.48.08.85.17,1.13.08.31.23.79.23.93,0,.57-.59.88-1.08.88-1.81,0-5.38-2.98-5.38-8.39,0-.79.4-4.28.4-5.02,0-.57-.11-1.33-.2-1.64-.2-.71-.23-.79-.23-.96,0-.08.11-.11.17-.11,1.3,0,2.58,2.27,2.58,3.03ZM459.7,102.11c1.45,1.16,2.52,3.17,2.52,5.41,0,.54-.06,1.87-1.42,1.87s-1.39-1.53-1.39-1.9c0-2.35,0-3.54-1.5-5.04-.23-.23-1.36-1.11-1.36-1.28,0-.08.11-.14.25-.14.03,0,1.67.08,2.89,1.08Z"/>
      <path class="cls-1" d="M474.52,115.54c0,1.59-1.27,3.15-3.17,3.15s-3.12-1.59-3.12-3.17c0-2.15,1.87-3.12,3.15-3.12,1.84,0,3.14,1.53,3.14,3.15ZM469.02,115.51c0,1.3,1.05,2.38,2.38,2.38,1.22,0,2.35-.96,2.35-2.32,0-1.1-.85-2.38-2.41-2.38s-2.32,1.22-2.32,2.32Z"/>
    </g>
  </g>
</svg>