<?xml version="1.0" encoding="UTF-8"?>
<svg id="Layer_2" data-name="Layer 2" xmlns="http://www.w3.org/2000/svg" viewBox="0 0 532.03 50.61">
  <defs>
    <style>
      .cls-1 {
        fill: #0d4b1f;
        stroke: #0d4b1f;
        stroke-linecap: round;
        stroke-linejoin: round;
        stroke-width: 1.18px;
      }
    </style>
  </defs>
  <g id="_レイヤー_1" data-name="レイヤー 1">
    <g>
      <path class="cls-1" d="M37.13,18.65c2.56,0,2.77-.05,3.94-1.86.53-.8,1.12-1.44,1.44-1.44.64,0,4.47,3.73,4.47,4,0,.59-.59.75-2.88.75H9.43c-1.6,0-1.71.59-1.71,2.24,0,9.54-.05,13.9-1.65,18.96-1.33,4.15-4.63,7.72-5.33,7.72-.16,0-.16-.16-.16-.21,0-.21.91-1.81,1.07-2.18,1.6-3.57,2.61-7.4,2.61-17.63,0-2.4-.05-5.11-.48-8.68-.05-.43-.43-2.29-.43-2.72,0-.16.16-.21.27-.21.05,0,3.14.85,3.52.96.75.21,1.49.32,2.29.32h16.67c1.33,0,1.92,0,5.01-4.47,1.23-1.76,2.29-4.37,2.29-5.11,0-.59-.27-.59-1.28-.59H13.37c-4.37,0-5.86.05-6.71.11-.21,0-.96.16-1.12.16-.21,0-.32-.16-.48-.37l-1.07-1.23c-.16-.21-.21-.27-.21-.32,0-.11.05-.16.21-.16.37,0,1.97.21,2.34.21,2.34.11,4.53.16,7.3.16h7.14c1.54,0,1.54-1.01,1.54-1.81s-.05-1.97-.11-2.29c0-.21-.27-1.12-.27-1.28,0-.27.27-.37.48-.37.75,0,4.85.27,4.85,1.17,0,.21-.75.91-.85,1.07-.21.48-.32,1.28-.32,1.76,0,.64,0,1.76,1.49,1.76h7.88c2.45,0,3.04-.05,3.46-.69,1.38-2.08,1.49-2.29,1.86-2.29.59,0,4.47,3.2,4.47,3.68,0,.59-.64.75-2.82.75h-6.13c-.48,0-1.17,0-1.17.53,0,.37.11.48,1.38,1.49,1.01.85,1.38,1.17,1.38,1.65s-.27.48-1.01.64c-.32.05-7.35,4.63-7.35,5.54,0,.32.53.32.8.32h6.76ZM22.91,28.5c1.6,0,1.65-.75,1.65-2.02,0-.91-.05-2.4-.21-3.41,0-.16-.16-.96-.16-1.12,0-.21.05-.48.32-.48.48,0,5.49,1.28,5.49,2.24,0,.32-1.07,1.28-1.23,1.49-.32.48-.37,1.23-.37,1.65,0,.85.16,1.65,1.6,1.65h3.25c2.13,0,2.98-.05,3.46-.75,1.44-2.18,1.6-2.45,2.02-2.45.53,0,4.32,3.46,4.32,3.94,0,.53-.53.64-2.82.64h-10.28c-1.6,0-1.6.75-1.6,3.36,0,3.04,0,3.57,1.54,3.57h2.98c2.72,0,3.25-.11,3.94-1.33.59-.96.91-1.54,1.33-1.54s4.05,3.14,4.05,3.57c0,.64-.64.69-2.88.69h-9.27c-1.07,0-1.65.27-1.65,1.7,0,6.34.16,6.34,1.65,6.34h6.55c2.18,0,2.93-.16,3.73-1.54.59-1.07.96-1.44,1.44-1.44.8,0,4.63,3.2,4.63,3.68,0,.75-.53.75-2.82.75h-27.22c-4.63,0-6.18.11-6.71.16-.16,0-.96.11-1.12.11-.21,0-.32-.16-.48-.37l-1.01-1.17c-.21-.27-.27-.32-.27-.37,0-.11.11-.16.21-.16.37,0,2.02.21,2.34.21,2.61.11,4.79.21,7.3.21h6.5c1.49,0,1.49-.8,1.49-3.2,0-.8,0-3.83-.16-4.26-.27-.64-1.07-.64-1.54-.64h-1.92c-4.69,0-6.23.11-6.76.16-.16,0-.96.11-1.12.11s-.27-.11-.48-.32l-1.01-1.23q-.21-.27-.21-.37c0-.05.05-.11.16-.11.37,0,2.02.16,2.34.16,2.61.11,4.85.21,7.35.21h1.76c.53,0,1.6,0,1.6-1.33,0-.75,0-4.47-.16-4.85-.32-.75-1.01-.75-1.54-.75h-5.54c-1.6,0-1.7.16-2.82,1.92-.96,1.49-4.63,6.55-5.27,6.55-.11,0-.27-.11-.27-.27,0-.11.8-1.54.96-1.81,1.28-2.88,3.57-8.63,3.57-11.29,0-.21-.16-1.06-.16-1.28,0-.27.16-.48.48-.48.21,0,4.79,1.44,4.79,2.29,0,.32-1.22,1.33-1.38,1.6-.32.43-.43.64-.43.91,0,.48.37.48.8.48h5.27ZM19.18,15.45c0,1.33-.91,2.34-2.08,2.34-1.6,0-1.92-1.17-2.61-3.78-.32-1.12-1.12-2.77-1.81-3.57-.11-.05-.37-.37-.37-.59,0-.27.27-.48.8-.32.91.32,6.07,2.24,6.07,5.91Z"/>
      <path class="cls-1" d="M95.89,14.81c2.08,0,2.72,0,3.41-.91.59-.8.69-.96,1.28-.96,1.12,0,5.06,3.36,5.06,4.58,0,.59-.69.85-1.07.85-.16,0-1.65-.27-1.86-.27-1.28,0-2.88.48-5.59,2.66-.43.32-.69.53-.96.53-.11,0-.21-.11-.21-.21,0-.59,1.81-3.68,1.81-4.16,0-.69-.69-.75-1.44-.75h-31.59c-.96,0-1.44,0-1.71,1.07-.69,2.45-1.33,5.17-3.46,5.17-1.12,0-1.97-.96-1.97-2.08s.27-1.49,1.92-3.78c.91-1.23,1.01-1.6,1.54-4.26.05-.16.16-.59.43-.59.48,0,.91.96,1.49,2.34.32.75,1.01.75,1.54.75h31.38ZM77.94,33.77c.64,0,1.65,0,1.65-1.39,0-.64-.05-1.86-.16-2.5-.16-.8-.37-1.86-.37-2.08,0-.16,0-.85.59-.85.48,0,2.72.69,3.2.69,1.17,0,5.22-3.94,5.22-4.53,0-.37-.27-.37-1.01-.37h-12.52c-1.28,0-4.9,0-6.71.16-.21,0-.96.11-1.17.11-.16,0-.27-.11-.43-.32l-1.07-1.23q-.21-.27-.21-.37c0-.11.11-.11.16-.11.37,0,1.97.16,2.34.16,1.54.11,4.31.21,7.35.21h12.04c2.4,0,2.61,0,3.41-.91.53-.64.85-.85,1.33-.85.69,0,3.36,2.72,3.36,3.52s-.48.91-2.08,1.28c-2.24.48-6.23,2.77-8.84,4.26-.69.43-.8.48-.8,3.68,0,1.44,1.17,1.44,1.71,1.44h9.21c2.18,0,2.93-.05,3.41-.91,1.01-1.81,1.17-2.24,2.18-2.24,1.17,0,4.9,3.09,4.9,3.84,0,.69-1.07.69-2.82.69h-16.99c-1.54,0-1.54.43-1.54,3.14,0,4-.05,6.92-.27,8.36-.37,2.24-2.24,3.09-4.31,3.09-.75,0-.8-.32-1.01-.96-.43-1.44-2.08-2.13-4.32-3.09-.64-.27-1.22-.48-1.22-.8,0-.27.32-.27.48-.27.11,0,4.47.64,5.33.64.91,0,1.54,0,1.6-2.72,0-1.17.11-4.95.11-5.75,0-.91-.16-1.65-1.65-1.65h-10.23c-1.28,0-4.9,0-6.77.16-.16,0-.91.11-1.12.11-.16,0-.27-.11-.48-.32l-1.01-1.23q-.21-.27-.21-.37c0-.11.11-.11.16-.11.37,0,1.97.16,2.34.16,1.54.05,4.31.21,7.35.21h9.91ZM65.1,2.88c1.07,0,7.72,2.5,7.72,7.3,0,1.01-.64,2.02-1.81,2.02-1.33,0-1.54-.43-3.14-3.84-1.07-2.24-1.23-2.45-3.09-4.9-.05-.11-.21-.37-.16-.48.05-.11.37-.11.48-.11ZM84.44,8.79c0,1.6-.96,2.72-1.97,2.72-1.65,0-1.97-2.02-2.18-3.14-.32-1.97-1.33-5.06-1.81-6.02-.05-.16-.43-.91-.27-1.07.48-.53,6.23,3.14,6.23,7.51ZM99.03,5.59c0,.48-.21.53-1.17.8-.91.21-1.17.48-3.25,2.61-3.3,3.3-5.59,5.01-5.91,5.01-.11,0-.21-.11-.21-.21,0-.05,1.86-3.46,2.08-3.89.59-1.17,2.4-4.69,2.72-6.98.16-1.01.21-1.17.53-1.17s.75.27,1.01.43c1.38.85,4.21,2.56,4.21,3.41Z"/>
      <path class="cls-1" d="M114.8,23.23c-.16-.21-.21-.32-.21-.37,0-.11.11-.11.21-.11.27,0,1.6.11,1.92.16.64.05,4.37.16,5.97.16.75,0,1.17-.05,1.7-.59,1.28-1.44,1.39-1.6,1.65-1.6.64,0,2.98,2.98,2.98,3.3,0,.43-1.97,1.23-2.18,1.6-.21.27-.21,4.79-.21,5.59,0,9.53,0,12.78,19.44,12.78,2.29,0,9.16,0,13.9-.85.37-.05,2.18-.53,2.61-.53.11,0,.32,0,.32.16,0,.21-.21.43-.75.64-.64.27-2.29,1.39-2.66,3.36-.27,1.28-.32,1.28-1.01,1.28-21.2,0-28.18-1.12-31.38-7.46-.21-.43-.96-2.98-1.38-2.98-.11,0-5.97,6.39-6.5,7.94-.59,1.7-.64,1.92-1.22,1.92-.85,0-3.41-3.78-3.41-4.42,0-.48.75-.64,1.49-.8.96-.21,5.86-3.09,6.87-4.37.48-.59.53-.64.53-7.67,0-5.38-.11-5.86-1.6-5.86-1.33,0-3.25.05-4.42.16-.16,0-.96.11-1.12.11-.21,0-.32-.11-.48-.32l-1.07-1.23ZM125.19,15.13c-.96,0-1.17-.32-2.98-3.09-1.17-1.81-3.78-4.21-5.38-5.65-.21-.21-1.54-1.23-1.54-1.39s.16-.16.37-.16c.37,0,2.45.43,4.74,1.38,6.45,2.61,6.45,5.91,6.45,6.29,0,1.6-.75,2.61-1.65,2.61ZM141.17,14.28c1.6,0,1.6-.8,1.6-1.92,0-3.14,0-3.52-1.65-3.52h-2.02c-1.22,0-4.9,0-6.76.16-.16,0-.96.11-1.12.11s-.27-.11-.48-.32l-1.01-1.23q-.21-.27-.21-.37c0-.11.05-.11.16-.11.37,0,2.02.16,2.4.16,2.4.11,4.79.21,7.3.21h1.81c1.44,0,1.54-.8,1.54-1.86,0-.75-.11-1.86-.32-2.66-.05-.21-.27-1.01-.27-1.17,0-.32.21-.53.53-.53.27,0,3.94.43,4.26.8.11.16.21.32.21.53,0,.27-.64,1.28-.75,1.54-.16.53-.27,1.54-.27,2.13,0,1.23.69,1.23,1.28,1.23h4c2.45,0,2.72,0,3.41-.91,1.07-1.38,1.17-1.54,1.6-1.54.69,0,4.1,1.97,4.1,3.09,0,.75-1.01.75-2.82.75h-9.91c-1.76,0-1.76.37-1.76,3.84,0,1.17.48,1.6,1.6,1.6h3.25c2.18,0,2.56,0,3.46-.85.69-.69,1.07-.96,1.49-.96,1.07,0,2.93,2.61,2.93,3.04,0,.32-.32.59-.85.85-.69.37-.69.75-.69,3.09,0,1.12.11,6.55.11,7.78,0,2.77-1.76,3.04-2.45,3.04-.91,0-1.07-.59-1.17-.91-.21-.8-.59-.8-1.54-.8h-4.37c-1.65,0-1.65.96-1.65,1.12,0,4.31,0,4.47,1.65,4.47h4.69c2.45,0,2.72,0,3.57-1.17.53-.8,1.07-1.44,1.6-1.44s3.67,2.5,3.67,3.36c0,.64-.27.64-2.77.64h-10.71c-.64,0-1.6.05-1.6,1.49,0,.48.16,2.66.16,3.09,0,.75,0,2.98-2.18,2.98-.48,0-1.76-.27-1.76-2.29,0-.59.21-3.25.21-3.78,0-1.33-.8-1.49-1.54-1.49h-2.45c-1.23,0-4.9.05-6.76.16-.16,0-.96.16-1.12.16s-.27-.16-.48-.37l-1.01-1.23c-.11-.11-.21-.27-.21-.32,0-.11.05-.16.16-.16.37,0,2.02.21,2.34.21,2.45.16,4.85.16,7.3.16h2.34c1.54,0,1.6-.69,1.6-2.98,0-1.92,0-2.61-1.54-2.61h-3.89c-1.07,0-1.33,0-1.71.75-.43.85-.64,1.28-2.08,1.28-1.01,0-1.38-.37-1.38-1.54,0-1.7.32-9.32.32-10.87,0-.8-.21-4.21-.21-4.9,0-.21,0-.64.48-.64.37,0,.64.11,2.82,1.28.69.37,1.28.37,2.02.37h3.52ZM141.38,20.62c1.44,0,1.44-.75,1.44-2.4,0-1.81,0-2.5-1.44-2.5h-4.26c-1.38,0-1.49.8-1.49,2.24,0,2.02,0,2.66,1.49,2.66h4.26ZM141.22,27.12c1.71,0,1.71-.53,1.71-2.72,0-1.6,0-2.34-1.6-2.34h-4c-1.54,0-1.65.64-1.65,1.81,0,2.5,0,3.25,1.49,3.25h4.05ZM147.67,15.72c-1.65,0-1.65.75-1.65,2.5s0,2.4,1.76,2.4h4.47c1.76,0,1.81-.59,1.81-2.5,0-1.6-.05-2.4-1.65-2.4h-4.74ZM147.72,22.05c-1.6,0-1.6.91-1.6,2.34,0,1.92,0,2.72,1.6,2.72h4.42c1.54,0,1.65-.37,1.65-3.68,0-.43,0-1.39-1.44-1.39h-4.63Z"/>
      <path class="cls-1" d="M172.44,12.57c-.16-.16-.21-.27-.21-.32,0-.11.05-.16.16-.16.16,0,4.47.37,5.33.37.69,0,1.86,0,1.86-1.44,0-2.02-.11-6.23-.16-7.08,0-.21-.69-1.97-.85-2.29,0-.16.21-.27.43-.27.48,0,.96.16,5.01,1.28.64.16.8.59.8.8,0,.43-1.33,1.6-1.49,1.92-.32.59-.32,3.3-.32,4.26,0,2.56,0,2.88.75,2.88.37,0,.53-.27.8-.85.85-1.76.91-1.97,1.28-1.97.75,0,3.52,2.77,3.52,3.41,0,.75-.75.8-1.28.8h-3.25c-.48,0-1.81,0-1.81,1.23s.05,6.92.05,8.1c0,.91,0,1.65.8,1.65.21,0,5.38-1.65,6.07-1.65.11,0,.27.05.27.21,0,.48-3.83,2.66-4.63,3.14-1.97,1.07-2.4,1.33-2.4,2.77,0,2.4.27,13,.27,15.18,0,1.33-.16,2.88-1.76,3.94-.96.59-2.34,1.28-3.09,1.28-.37,0-.43-.11-.64-.75-.43-1.39-1.6-2.4-2.77-3.25-.27-.21-1.81-1.23-1.81-1.28,0-.16.21-.27.43-.27.64,0,3.3.21,3.83.21,2.29,0,2.29-.53,2.29-5.27,0-1.23-.05-6.71-.05-7.83,0-.32,0-1.28-.75-1.28s-2.13,1.28-2.4,1.49c-.27.27-1.38,1.65-1.76,1.65-.64,0-.75-.27-1.65-2.88-.16-.37-1.01-2.29-1.01-2.45,0-.21.05-.43.21-.43s.85.11.96.11c.53,0,4.74-.8,5.33-1.12s1.01-.96,1.01-1.81c0-.8-.16-9.27-.16-9.54-.11-1.17-.96-1.17-1.71-1.17-.59,0-3.52.27-4,.27-.16,0-.27-.11-.48-.37l-1.01-1.23ZM210.96,8.9c1.97,0,2.08-.11,2.29-.37.32-.37,1.65-2.45,2.08-2.45.32,0,3.94,2.82,3.94,3.52,0,.75-.85.75-2.24.75h-9.16c-1.76,0-1.76.64-1.76,2.45,0,1.01.69,1.44,1.6,1.44.48,0,2.13,0,2.45-.21.48-.27,1.81-2.66,2.34-2.66.27,0,3.94,2.88,3.94,3.52,0,.75-.91.75-2.29.75h-6.5c-1.33,0-1.54.32-1.54,1.54,0,1.7,0,1.92.32,2.18.27.27.48.27,2.34.27,1.33,0,1.65-.11,1.92-.37.32-.37,1.65-2.5,2.13-2.5.16,0,3.89,2.88,3.89,3.57,0,.75-.91.75-2.24.75h-6.92c-1.12,0-1.44.43-1.44,1.23,0,2.61,0,2.98,1.44,2.98h5.01c1.92,0,2.02-.16,2.24-.37.37-.37,1.65-2.5,2.13-2.5.27,0,3.94,2.88,3.94,3.52,0,.75-.91.75-2.29.75h-20.83c-.64,0-1.01,0-1.86,1.01-.43.53-1.12,1.44-2.5,1.44-1.07,0-1.17-.48-1.17-1.39,0-1.38.59-11.03.59-13.1,0-.43-.32-.59-.53-.59-.37,0-5.06,5.33-5.49,5.33-.11,0-.21-.11-.21-.21.27-.32.69-1.01.91-1.33,5.11-7.56,7.25-15.39,7.25-16.09,0-.16-.21-.8-.21-.96s.27-.16.32-.16c.85,0,5.22,1.65,5.22,2.56,0,.48-.59.64-1.22.85-.59.21-2.29,3.83-2.29,4.1,0,.8.8.8,1.01.8h3.89c.48,0,1.33,0,1.86-.69.21-.27,2.29-4.74,2.29-6.61,0-.27,0-.53.32-.53.21,0,3.83,1.33,3.94,1.39.16.05.32.37.32.59,0,.53-.43.64-1.01.85-1.23.37-3.52,3.84-3.52,4.21,0,.8.64.8,1.01.8h4.32ZM206.37,30.26c.91,0,1.28.05,2.02-.64.69-.64,1.07-1.07,1.44-1.07.32,0,3.2,1.92,3.2,2.56,0,.43-.37.69-1.12,1.23-.64.43-1.01,2.5-1.01,2.77,0,.11,0,1.07,1.17,1.07h1.71c.53,0,.75,0,1.28-.37,1.6-1.17,1.76-1.28,2.13-1.28.75,0,3.2,3.3,3.2,3.62s-.05.32-1.07,1.12c-.75.59-.8.91-.96,1.44-1.6,6.39-5.59,9.32-8.42,9.32-.53,0-.64-.11-.91-.69-.27-.69-.59-1.17-1.23-1.7-.48-.43-3.62-2.5-3.2-2.5.69,0,4.1.48,4.85.48,3.68,0,5.43-6.07,5.43-7.14,0-.85-.75-.85-1.07-.85h-2.02c-.69,0-1.07,0-1.65.53s-1.17,1.12-2.13,1.12c-.85,0-1.22-.64-1.22-1.12,0-.69,1.07-4.74,1.07-5.38,0-.21-.11-1.07-1.17-1.07h-2.77c-1.38,0-1.65,1.12-1.65,1.33-.59,2.66-2.18,10.44-9.27,14.22-.91.48-4,1.76-5.06,1.76-.11,0-.16-.05-.16-.11s.43-.32.53-.37c2.08-1.23,4.05-2.98,5.7-4.95,2.56-3.04,4.42-7.46,4.42-10.6,0-.8-.27-1.28-1.81-1.28-.59,0-3.62.27-4.1.27-.21,0-.32-.16-.48-.37l-1.01-1.23c-.21-.21-.27-.27-.27-.32,0-.11.11-.16.21-.16.43,0,2.5.21,2.98.21,3.73.16,5.06.16,6.66.16h5.75ZM197.69,10.34c-1.22,0-1.81.05-1.81,1.92s.59,1.97,1.81,1.97h3.62c1.12,0,1.81,0,1.81-1.86,0-1.97-.48-2.02-1.81-2.02h-3.62ZM197.48,15.61c-.75,0-1.49,0-1.49,1.97,0,1.44.27,2.02,1.49,2.02h4.1c1.28,0,1.44-.59,1.44-1.81,0-1.44,0-2.18-1.44-2.18h-4.1ZM197.58,21.04c-1.6,0-1.6.53-1.6,1.97,0,1.76,0,2.24,1.6,2.24h3.94c1.6,0,1.6-.53,1.6-2.08,0-1.65,0-2.13-1.6-2.13h-3.94Z"/>
      <path class="cls-1" d="M237.43,16.36c4.79,0,16.14-.96,17.31-1.7,1.92-1.28,2.13-1.38,2.61-1.38,1.07,0,6.18,3.41,6.18,4.79,0,.48-.16.64-1.81,1.86-.96.69-1.17,1.49-2.98,8.9-.11.48-.85,2.82-.85,3.14,0,.69.48.75,1.28.91,1.33.21,3.3.91,3.3,2.24,0,1.44-2.45,1.44-2.88,1.44-1.33,0-7.24-.37-8.47-.37-3.3,0-13.42,1.12-14.28,1.33-.32.05-1.65.64-1.92.64-.96,0-4.1-2.4-4.1-4.26,0-.21.21-.37.48-.37s1.38.21,1.6.27c1.17.16,2.08.16,2.72.16,3.68,0,17.63-.96,18.43-1.38.64-.32.85-.96,1.23-3.62.64-4.69,1.12-9.32,1.12-10.39,0-.91-.21-1.12-.8-1.12-1.65,0-14.86,2.13-16.94,2.61-.48.11-2.34.85-2.77.85-1.17,0-4.95-3.25-4.95-4.31,0-.43.37-.53.64-.53.32,0,4.95.32,5.86.32Z"/>
      <path class="cls-1" d="M311.9,23.17c.32,0,.91-.05,1.17-.05,3.25,0,3.73,1.97,3.73,2.34,0,1.49-2.18,1.65-4.42,1.65-1.23,0-6.55-.11-7.62-.11-7.35,0-19.55.69-20.83.96-.64.11-3.52.96-4.16.96-2.29,0-4.74-3.3-4.74-5.11,0-.32.16-.64.43-.64s1.54.59,1.81.64c.91.27,3.09.48,6.5.48,1.76,0,20.35-.69,28.13-1.12Z"/>
      <path class="cls-1" d="M350.26,25.68c0,.37-1.28,1.38-1.44,1.65-.16.21-2.18,5.11-2.66,6.02-5.11,10.28-13.42,13.69-14.12,13.69-.21,0-.32-.11-.32-.27s2.4-2.29,2.82-2.66c8.79-8.42,10.44-19.34,10.44-20.08,0-.64-.11-1.6-1.28-1.6-1.38,0-6.29,1.07-8.47,1.6-.59.16-3.25.96-3.83.96-2.66,0-4.21-2.88-4.21-4.05,0-.32.11-.53.37-.53.11,0,.69.21.8.27.75.21,2.34.37,3.36.37,3.41,0,17.21-1.49,20.93-2.02.64-.11,3.41-.96,4-.96.64,0,6.71,1.17,6.71,3.36,0,.96-.85,1.28-1.54,1.28-.59,0-3.2-.43-3.73-.48-1.12-.11-2.61-.27-3.78-.27-1.81,0-5.01,0-5.38.16-.37.21-.48.53-.37.8.05.16,1.71,2.29,1.71,2.77ZM338.44,10.02c1.65,0,2.24-.16,7.56-1.33,1.38-.32,3.09-.64,4.26-.64s3.04.21,3.04,1.76-.91,1.65-4.05,1.97c-2.72.32-6.29,1.01-7.08,1.17-.27.05-2.34.48-2.5.48-2.61,0-4.26-3.73-4-3.84,0,0,2.34.43,2.77.43ZM366.99,15.61c0,.8-.64,2.02-1.6,2.02-.75,0-1.23-.43-2.72-2.45-.64-.85-1.12-1.38-3.62-3.3-.21-.16-.75-.64-.75-.85s.48-.43.91-.43c4.79,0,7.78,3.14,7.78,5.01ZM371.67,10.39c0,.64-.43,1.6-1.38,1.6-1.12,0-1.81-.91-2.72-2.13-.69-1.01-2.77-2.5-4.47-3.25-.53-.21-.64-.43-.64-.59,0-.53,1.6-.53,1.97-.53,2.88,0,7.24,1.81,7.24,4.9Z"/>
      <path class="cls-1" d="M392.88,25.41c.91.59,2.02,1.12,2.02,1.81,0,.27-.48,1.49-.53,1.81-.11.69-.21,1.54-.21,7.67,0,1.39,0,3.09.11,5.11,0,.53.32,3.25.32,3.84,0,.43,0,2.02-1.17,2.02-1.28,0-2.66-2.08-2.66-3.14,0-.21,0-.37.27-1.92.37-1.92.59-6.5.59-9.16,0-1.33,0-5.86-1.07-5.86-.16,0-.27.11-1.12.85-6.23,5.75-11.61,7.99-11.93,7.99-.27,0-.32-.21-.32-.32,0-.27,1.6-1.6,2.13-2.02,10.6-8.74,14.7-16.94,14.7-18.27,0-.32-.11-.8-.37-1.28-.05-.11-.43-.75-.43-.85,0-.32.32-.53.59-.53.59,0,5.11,1.86,5.11,3.68,0,.43-.21.8-.43.96-1.01.85-1.12.91-1.65,1.7-1.17,1.76-1.49,2.13-4.15,5.54,0,.11.11.32.21.37Z"/>
      <path class="cls-1" d="M414.93,17.53c.85.11,2.08.21,3.04.21,2.82,0,10.33-1.49,11.61-2.34,1.54-.96,1.7-1.07,2.18-1.07,1.33,0,3.36,1.97,3.36,2.61,0,.32-.11.43-1.12,1.07-.91.59-1.12.96-3.78,4.58-.43.59-1.17,1.6-1.17,1.81,0,.43.32.48.75.59.59.16,2.34.96,2.34,2.24,0,.37-.43,2.08-.48,2.45-.27,1.65-.27,1.92-.27,3.89,0,1.33.05,5.7.16,7.88,0,.59.16,3.25.16,3.78,0,2.56-.69,2.98-1.38,2.98-1.7,0-3.09-3.73-3.09-4.79,0-.43.43-2.18.48-2.5.64-4.1.85-5.49.85-8.04,0-.43,0-4.05-.59-5.17-.27-.53-.96-.59-1.01-.59-.27,0-.53.16-.8.43-4.47,4.58-8.63,8.9-16.09,12.31-.43.21-1.6.69-1.92.69-.11,0-.21-.05-.21-.16,0-.27,5.75-4.69,6.82-5.59,4.63-3.94,7.99-7.4,11.24-12.52.37-.59,1.6-2.56,1.6-2.98,0-.37-.32-.43-.43-.43-.43,0-9.22,3.04-9.8,3.04-1.01,0-3.14-1.17-4.05-2.24-.43-.53-.85-1.92-.85-2.08,0-.21.21-.43.48-.43.32,0,1.7.32,1.97.37ZM432.62,9c0,1.17-1.12,2.13-2.02,2.13-1.23,0-1.86-1.07-3.3-3.3-.69-1.07-1.54-1.97-4.85-4.15-.11-.11-.37-.32-.37-.48,0-.27.8-.27,1.01-.27,4.47,0,9.54,2.82,9.54,6.07ZM447.38,33.61c0,.69-.64,2.24-2.02,2.24-1.01,0-1.6-.59-2.61-2.5-.75-1.38-1.07-1.76-4.1-5.27-.21-.27-1.01-1.23-1.01-1.49,0-.16.37-.16.43-.16,4.85,0,9.32,4.31,9.32,7.19Z"/>
      <path class="cls-1" d="M494.2,23.17c.32,0,.91-.05,1.17-.05,3.25,0,3.73,1.97,3.73,2.34,0,1.49-2.18,1.65-4.42,1.65-1.23,0-6.55-.11-7.62-.11-7.35,0-19.55.69-20.83.96-.64.11-3.52.96-4.16.96-2.29,0-4.74-3.3-4.74-5.11,0-.32.16-.64.43-.64s1.54.59,1.81.64c.91.27,3.09.48,6.5.48,1.76,0,20.35-.69,28.13-1.12Z"/>
      <path class="cls-1" d="M513.54,5.54c1.92,0,5.75,1.7,5.75,3.41,0,.37-.53,1.92-.64,2.24-.27,1.33-.48,6.07-.48,7.4,0,1.17.21,1.33,1.76,1.7,3.25.75,11.51,4.63,11.51,8.63,0,1.76-1.65,1.86-1.92,1.86-1.33,0-1.49-.21-5.06-4.85-1.49-1.97-4-4.47-5.65-4.47-.53,0-.75,0-.75,3.94,0,5.65.05,8.47.27,13.26.05.59.11,1.92.11,2.72,0,1.33,0,4.85-1.54,4.85s-2.98-3.62-2.98-5.01c0-.21.21-1.33.21-1.54.37-4.42.48-5.81.48-12.36,0-15.23,0-16.94-.64-18.64-.43-1.12-.96-1.65-1.81-2.45l-.11-.21c.05-.48,1.44-.48,1.49-.48Z"/>
    </g>
  </g>
</svg>