<svg data-name="Layer 2" xmlns="http://www.w3.org/2000/svg" viewBox="0 0 365.07 50.24"><path d="M11.03 21.15c-1.23 0-1.23.11-1.54 1.39-.37 1.44-2.82 1.7-2.88 1.7-1.17 0-1.28-1.39-1.28-2.08 0-.53.11-2.88.11-3.36 0-2.66 0-9.32-.16-11.77-.05-.8-.11-1.33-.11-1.44 0-.21 0-.48.21-.48.43 0 2.18.53 3.62.96 1.12.37 1.7.53 1.7 1.17 0 .48-.21.59-.75 1.01-.27.16-.43.37-.43.91 0 .21-.16 6.07-.16 6.13 0 4 .05 4.47 1.65 4.47h6.82c1.38 0 1.6-.8 1.6-1.65 0-2.72 0-10.55-.11-12.68-.05-.64-.37-4.42-.37-4.53 0-.27.05-.32.37-.32.85 0 3.36.59 4.53.96.59.16 1.17.37 1.17 1.01 0 .43-.32.75-1.23 1.54-.43.43-.43 9.64-.43 11.13 0 .69 0 3.46.11 3.78.32.75 1.07.75 1.49.75h6.66c1.44 0 1.6-.75 1.6-2.08v-6.55c0-.85-.43-4.63-.43-5.43 0-.32.05-.48.32-.48.37 0 2.56.64 3.04.75 2.29.59 2.5.64 2.5 1.28 0 .43-.16.59-.59 1.07-.43.43-.43.64-.48 1.28-.11 1.92-.16 2.88-.16 4.74 0 1.97.21 5.11 0 7.03-.16 1.38-1.6 2.02-2.72 2.02-1.23 0-1.38-.48-1.6-1.38-.21-.85-.8-.85-1.44-.85h-6.71c-1.6 0-1.6.91-1.6 1.81 0 7.67-.05 15.93.05 18.75 0 .59.16 1.33 1.6 1.33h11.83c1.49 0 1.49-.91 1.49-1.81 0-1.39.16-7.56.16-8.79 0-.85-.21-4.53-.21-5.27 0-.43 0-.48.37-.48.69 0 3.09.75 3.94 1.01 1.28.43 1.6.53 1.6 1.17 0 .48-.21.59-.69.96-.69.48-.75.69-.85 2.72-.05 1.54-.05 4.9-.05 6.55 0 1.07.16 5.54.16 6.45 0 2.13-2.08 2.88-3.09 2.88-1.44 0-1.44-.48-1.44-2.5 0-1.44-1.01-1.44-1.6-1.44H6.87c-1.54 0-1.54 1.01-1.54 1.6 0 1.65-.69 3.25-2.77 3.25-1.44 0-1.44-2.13-1.44-3.2 0-.59.05-4.1.05-4.79 0-4.1-.21-8.31-.37-11.24-.05-.37-.21-1.97-.21-2.18 0-.16 0-.37.21-.37.43 0 2.34.53 2.66.64 2.88 1.07 3.14 1.07 3.14 1.81 0 .37-.37.69-1.07 1.33-.21.21-.32.53-.37.91-.05.96-.05 3.62-.05 4.69 0 6.13.16 6.13 1.65 6.13h10.97c1.54 0 1.65-.8 1.65-2.02V23.9c0-2.08.05-2.72-1.54-2.72h-6.82zm63.18 4.69c1.81 0 2.34-.32 2.34-1.92-.05-2.24-.05-10.49-.05-13.64 0-.59-.05-3.78-.16-5.27-.05-.32-.48-1.7-.48-2.02 0-.21.27-.43.53-.43.16 0 2.13.85 3.04 1.23 1.17.48 1.81.43 2.34.43h8.9c1.23 0 2.18.05 2.61-.16.48-.21 2.29-2.72 2.93-2.72.27 0 3.94 2.77 3.94 3.57 0 .75-.48.75-1.81.75H81.88c-1.81 0-1.81.64-1.81 4.26 0 1.7.96 1.7 1.81 1.7h8.04c2.24 0 2.5 0 3.14-.85 1.01-1.23 1.12-1.38 1.54-1.38.69 0 3.41 2.08 3.41 2.93 0 .75-1.12.75-2.88.75H81.87c-1.81 0-1.81.32-1.81 3.62 0 1.76.8 1.76 2.08 1.76l7.3.05c2.24 0 2.5-.05 3.14-.85.96-1.28 1.07-1.44 1.49-1.44.69 0 3.41 2.08 3.41 2.93 0 .75-1.07.75-2.82.75H81.98c-1.49 0-1.92 0-1.92 1.86 0 3.68 0 4.1 1.81 4.1h10.97c.59 0 2.13 0 2.5-.21.53-.32 2.24-3.09 2.88-3.09.32 0 4.47 3.14 4.47 3.94 0 .75-.64.75-2.18.75H87.3c-.96 0-1.44 0-1.44.64 0 .37 2.08 7.3 3.41 7.3 1.07 0 4.37-3.25 4.85-4.85.16-.48.21-.85.59-.85.16 0 4.42 2.93 4.42 3.84 0 .21-.11.43-.32.59h-1.7c-.59 0-4.85 1.44-5.81 1.76-1.01.32-1.44.48-1.44.91 0 .75 5.81 6.71 12.2 8.31.96.27 1.54.37 1.54.64s-.53.37-.59.37c-1.22.21-3.73 1.44-4.26 1.81-.16.11-.85.8-1.07.8-.48 0-3.3-1.28-7.08-6.29-.96-1.28-1.01-1.33-1.49-1.33-.27 0-1.01.37-1.39.53-1.86.85-10.44 4.37-11.77 5.27-.37.27-1.7 2.08-2.13 2.08-1.17 0-3.25-5.27-3.25-5.59 0-.48.32-.59.75-.59.37 0 2.13.16 2.5.16 1.28 0 1.54-.16 1.76-.59.27-.64.27-5.65.27-12.36 0-1.76 0-2.56-1.33-2.56h-2.13c-2.08 0-2.08.48-2.18 2.98-.64 15.18-6.45 19.44-9.85 19.44-1.01 0-1.28-.59-1.44-.91-.53-1.17-.96-2.08-1.44-2.66-.27-.32-1.92-1.76-1.92-2.18 0-.11.05-.16.11-.16s4.31 1.07 5.17 1.07c5.11 0 5.91-11.03 5.91-15.82 0-1.7-.8-1.7-1.81-1.7h-2.98c-.96 0-1.81 0-1.97.91-.32 1.49-.59 3.09-2.72 3.09-1.38 0-1.38-1.01-1.38-1.33 0-.43.27-2.45.32-2.88.27-3.68.37-8.15.37-9.59 0-.48-.27-2.98-.27-3.52 0-.21 0-.64.64-.64.32 0 1.71.64 2.08.8 1.17.53 1.38.53 2.29.53h4.05c2.02 0 2.13 0 2.13-7.94 0-1.6-.75-1.6-2.29-1.6h-.96c-1.28 0-4.85 0-6.71.11-.16 0-.96.16-1.12.16-.21 0-.27-.16-.48-.37L54.93 3.8q-.21-.27-.21-.32c0-.16.11-.16.16-.16.32 0 1.97.21 2.34.21 1.54.11 4.31.16 7.3.16h1.12c.69 0 1.28 0 1.71-.43.27-.21 1.33-1.7 1.7-1.7.53 0 4.21 3.14 4.21 3.46 0 .27-.16.59-.32.75-1.44 1.17-1.6 1.33-1.7 2.08s-.16 7.03-.21 8.36c0 1.17-1.23 2.45-2.5 2.45-.96 0-1.17-.69-1.28-1.28-.21-1.23-.43-1.28-1.65-1.28h-3.41c-1.12 0-1.86.05-2.02 1.44-.05.59-.16 5.75-.16 6.61 0 1.76.64 1.76 1.87 1.76h2.5c.91 0 1.12 0 1.92-.69.59-.59 1.23-1.17 1.54-1.17.43 0 .91.48 1.28.85.96.91 1.44.96 2.88.96h2.24zm6.44 1.38c-.53 0-1.12 0-1.28.85-.11.69-.16 9.48-.16 9.91 0 3.57 0 3.94 1.01 3.94.37 0 3.89-.64 6.5-1.28 1.44-.32 1.92-.48 1.92-1.17 0-.27-.53-1.28-.85-1.97-1.17-2.34-1.92-4.9-2.5-7.46-.59-2.56-.64-2.82-2.24-2.82h-2.4zm41.18-16.78c2.4 0 2.66 0 3.36-1.01.37-.59.69-.8.96-.8s3.14 1.49 3.14 2.4c0 .8-.96.8-2.88.8h-5.86c-1.87 0-4.16.05-5.27.16-.21 0-.96.11-1.12.11-.21 0-.32-.11-.48-.32l-1.07-1.23c-.16-.27-.21-.27-.21-.37s.05-.11.21-.11c.37 0 2.02.16 2.4.16 1.33.05 4.58.21 5.75.21h1.07zm.06-6.12c1.54 0 1.65 0 2.08-.91.21-.43.53-1.01.96-1.01.37 0 2.88 1.76 2.88 2.61 0 .69-.64.69-1.76.69h-5.7c-.96 0-2.18 0-3.46.11-.21 0-1.07.11-1.28.11s-.37-.16-.43-.32l-.91-1.23c-.05-.05-.11-.16-.11-.27s.11-.16.21-.16c.32 0 1.76.21 2.02.21 1.81.11 2.34.16 3.83.16h1.65zm-.38 12.99c1.23 0 1.44 0 2.13-.96.43-.59.69-.75.96-.75.48 0 2.98 1.76 2.98 2.5 0 .64-.69.64-1.76.64h-7.78c-.37.05-1.81.21-2.08.21s-.37-.16-.48-.32l-.91-1.23c-.05-.11-.11-.16-.11-.32 0-.11.11-.11.16-.11.27 0 1.17.11 1.38.16 1.54.11 2.93.16 4.53.16h.96zm-1.38 25.25c-.53 0-1.65 0-1.65 1.6 0 .32.11 1.81.11 2.13 0 .53 0 2.72-2.56 2.72-1.23 0-1.23-.85-1.23-1.23v-.59c.32-2.34.37-3.09.37-6.55 0-.32 0-4.95-.37-8.52 0-.27-.21-1.65-.21-1.97 0-.27.11-.43.43-.43.37 0 1.97.75 2.34.85.69.21 1.22.21 1.7.21h2.88c.59 0 .96 0 1.33-.21.27-.16 1.12-1.65 1.49-1.65.43 0 3.67 2.02 3.67 2.56 0 .27-.32.64-.75 1.06-.59.64-.69.96-.69 1.97 0 1.23.37 7.78.37 8.31 0 2.08-1.71 2.29-2.24 2.29-1.01 0-1.07-.64-1.12-1.12-.11-1.01-.53-1.44-1.65-1.44h-2.24zm.9-17.63c-1.01 0-1.65 0-2.66.05-.32 0-1.76.16-2.08.16-.21 0-.37-.16-.43-.32l-.91-1.23c-.05-.05-.11-.11-.11-.27 0-.11.11-.16.21-.16.32 0 1.76.21 2.02.21 1.86.11 2.34.16 3.83.16 1.71 0 1.92 0 2.34-.48.75-.85 1.01-1.12 1.23-1.12.59 0 3.04 1.49 3.04 2.34 0 .64-.69.64-1.76.64h-4.74zm-1.22 7.3c-1.71 0-1.71.64-1.71 2.29 0 .69.11 5.49.32 6.02.27.64 1.12.64 1.54.64h2.29c1.71 0 1.71-.48 1.71-3.14 0-.8 0-4.74-.21-5.22-.27-.59-1.12-.59-1.49-.59h-2.45zm27.86-12.2c-1.23 0-1.81.32-1.81 1.6 0 2.88 0 3.2 1.49 3.2h2.56c.43 0 1.12 0 1.65-.43.27-.16 1.22-1.12 1.49-1.12.64 0 3.78 2.34 3.78 2.88 0 .32-.27.59-.64.75-.64.32-.75.53-.8.64-.21.37-.27 6.02-.27 6.98 0 2.82 0 3.14.64 3.14.32 0 .59-.21.85-.8.21-.37.69-1.17 1.28-1.17.64 0 3.2 2.45 3.2 3.09 0 .75-1.17.75-2.66.75h-1.54c-.43 0-1.17 0-1.44.64-.11.21-.11 3.52-.11 3.78 0 1.54-.16 2.93-1.49 4-.91.8-2.82 1.23-3.73 1.23-.21 0-.59-.05-.8-.21-.21-.16-.91-1.33-1.07-1.54-.32-.43-2.4-2.5-2.4-2.61 0-.16.32-.16.53-.16.37 0 2.45.11 2.93.11 2.4 0 2.56-.11 2.56-3.46 0-.96 0-1.76-1.54-1.76h-11.24c-1.54 0-1.54.85-1.54 2.08 0 .8.16 4.79.16 5.17 0 .69 0 1.38-.48 1.7-.21.21-1.07.85-2.13.85s-1.23-.69-1.23-1.33c0-.91.21-5.38.21-6.39 0-1.7-.37-2.02-1.7-2.02-.32 0-1.97.21-2.18.21-.16 0-.27-.16-.48-.37l-1.01-1.23q-.21-.27-.21-.32c0-.16.11-.16.16-.16.11 0 3.09.27 3.67.27 1.76 0 1.87-.69 1.87-1.76 0-2.98-.05-8.15-.53-10.71-.05-.27-.48-1.7-.48-2.02 0-.11 0-.37.21-.37.53 0 1.49.43 3.46 1.23 1.07.48 1.92.48 2.45.48h1.97c.69 0 1.17-.16 1.17-1.39 0-2.66 0-3.41-1.6-3.41h-4.26c-1.22 0-3.83 0-5.43.16-.16 0-.96.11-1.12.11-.21 0-.32-.11-.48-.32l-1.01-1.23q-.27-.27-.27-.37c0-.11.16-.11.21-.11.16 0 1.07.05 1.23.11.69.05 2.72.21 6.07.21 1.49 0 1.65-.37 1.65-3.3 0-1.7-.85-1.7-2.13-1.7-.48 0-3.14.21-3.46.21-.21 0-.32-.11-.48-.37l-1.07-1.23q-.21-.27-.21-.32c0-.11.11-.16.21-.16.69 0 4.1.32 4.9.32 1.76 0 2.18-.21 2.18-1.81 0-2.02 0-2.82-1.49-2.82-.48 0-3.83.05-4.37.11-.16 0-.75.11-.91.11s-.27-.11-.48-.37l-1.01-1.23q-.21-.27-.21-.32c0-.11.11-.16.16-.16.8 0 4.63.32 5.54.32 2.13 0 2.5-.11 2.5-1.28 0-.11 0-.53-.05-1.07-.05-.32-.48-1.81-.48-2.13 0-.43.27-.48.69-.48.11 0 4.05.43 4.05 1.17 0 .21-.05.27-.59.96-.11.11-.37.75-.37 1.49 0 1.39 1.17 1.39 1.6 1.39h3.36c.37 0 1.38 0 1.38-1.44 0-.43-.05-.85-.16-1.38-.05-.27-.37-1.44-.37-1.76 0-.37.27-.53.75-.53.43 0 4.37.64 4.37 1.6 0 .21-.16.32-.69.8-.37.27-.48.64-.48 1.33 0 1.28.8 1.39 1.54 1.39.85 0 1.28-.16 1.86-.91 1.01-1.38 1.17-1.54 1.6-1.54.69 0 3.52 2.13 3.52 3.09 0 .8-1.01.8-2.88.8h-4.05c-1.38 0-1.6.64-1.6 1.6 0 2.72 0 3.04.91 3.04.27 0 .64-.16.85-.48 1.17-1.65 1.28-1.86 1.81-1.86.64 0 4 2.29 4 3.09s-.96.8-2.88.8h-2.98c-1.33 0-1.65.64-1.65 1.49 0 3.14 0 3.62 1.76 3.62 2.24 0 2.45 0 3.25-.91.48-.59 1.23-1.44 1.76-1.44.43 0 3.78 2.18 3.78 2.98 0 .75-1.07.75-2.88.75h-10.17zm-8.79 6.18c-1.65 0-1.65.8-1.65 2.77 0 1.44 0 2.4 1.6 2.4h2.34c1.54 0 1.54-1.01 1.54-1.81 0-2.56 0-3.36-1.65-3.36h-2.18zm.05 6.55c-1.49 0-1.54.91-1.54 1.7 0 2.88.05 3.62 1.65 3.62h2.08c1.65 0 1.65-.69 1.65-3.2 0-1.17 0-2.13-1.6-2.13h-2.24zm3.09-25.41c-1.6 0-1.6.91-1.6 2.29 0 1.6 0 2.45 1.6 2.45h3.36c1.6 0 1.6-.91 1.6-2.29 0-1.54 0-2.45-1.6-2.45h-3.36zm.05 6.18c-1.49 0-1.6.91-1.6 1.7 0 2.61 0 3.41 1.65 3.41h3.25c1.6 0 1.6-.91 1.6-2.45 0-1.86 0-2.66-1.6-2.66h-3.3zm5.39 12.68c-1.6 0-1.6 1.01-1.6 1.97 0 2.34 0 3.2 1.6 3.2h2.77c1.54 0 1.65-.8 1.65-2.5 0-1.86-.11-2.66-1.65-2.66h-2.77zm.05 6.55c-1.44 0-1.54.85-1.54 1.7 0 2.93 0 3.62 1.6 3.62h2.77c1.54 0 1.54-.59 1.54-3.04 0-1.39 0-2.29-1.54-2.29h-2.82zm41.71-1.22c-1.33 0-1.6.69-1.6 1.49 0 2.45 0 2.72.96 2.72.16 0 5.75-.8 6.55-.8.21 0 .64.05.64.27 0 .75-7.3 2.4-7.83 3.09-.27.37-.27.8-.27 1.38 0 3.36 0 5.11-.91 6.82-1.17 2.08-3.52 2.61-3.84 2.61-.59 0-.75-.43-1.01-1.07s-.43-.75-2.02-1.65c-.32-.21-1.28-.75-1.28-.96s.32-.21.53-.21c.48 0 2.56.05 2.98 0 1.81-.11 2.24-1.76 2.24-4.47 0-1.07-.16-1.44-.85-1.44-.32 0-6.55 1.39-8.58 2.4-.37.21-1.65 1.38-1.97 1.38-.8 0-2.77-3.94-2.77-4.63 0-.37.16-.59.48-.59s1.6.21 1.86.21c2.24 0 10.76-1.33 11.29-1.65.59-.37.59-.64.59-3.3 0-.59-.05-1.6-1.54-1.6h-2.72c-2.29 0-5.75 0-7.62.16-.16 0-.96.11-1.12.11-.21 0-.32-.11-.48-.32l-1.01-1.23c-.21-.27-.27-.27-.27-.37s.11-.11.21-.11c.37 0 2.02.16 2.34.16 2.61.11 4.79.21 7.3.21h3.41c1.39 0 1.49-.91 1.49-1.65 0-2.02 0-2.56-1.01-2.56-.21 0-4.26.43-5.06.48-.64.05-6.29.37-6.66.37-.21 0-.69 0-.69-.27 0-.43.69-.53 2.08-.8 3.2-.69 13.05-2.66 15.24-3.89.27-.16 1.28-1.07 1.6-1.07.75 0 3.3 2.61 3.3 3.25 0 .91-.96.91-2.08.91-3.52 0-3.52.16-3.52 3.68 0 1.49 1.12 1.54 1.54 1.54h6.87c.8 0 1.22-.11 1.22-.8s-1.17-7.67-1.17-8.2c0-.27.05-.69.69-.69.32 0 2.98.85 3.46 1.01.53.21.91.59.91.85 0 .21-.59 1.07-.69 1.23-.27.64-.32 1.49-.32 2.02 0 1.23.32 3.2.53 3.78.32.75.8.8 1.39.8h6.6c2.24 0 2.5 0 3.36-1.23 1.17-1.7 1.33-1.86 1.65-1.86.53 0 4.26 2.82 4.26 3.73 0 .75-.27.75-2.77.75H202.4c-.48 0-1.01 0-1.01.75 0 1.01 1.71 5.65 2.5 5.65.27 0 2.5-1.54 3.52-3.36.64-1.17.75-1.33 1.07-1.33.59 0 3.2 2.45 3.2 3.2 0 .59-.48.69-1.07.75-1.92.21-4.95 2.77-4.95 2.98 0 1.01 5.01 4.31 7.14 4.31 1.01 0 1.28-.43 2.56-2.29.85-1.17 1.07-1.49 1.33-1.49.21 0 .21.27.21.43 0 .37-.32 2.18-.32 2.56 0 .75.11 1.44.32 2.13.11.27.43 1.12.43 1.6 0 1.07-1.07 1.33-1.76 1.33-2.29 0-7.25-1.92-10.23-4.05-.48-.37-2.5-2.34-3.04-2.34-.21 0-2.66 1.28-2.88 1.38-2.5 1.28-6.07 2.82-7.19 2.82-.16 0-.37-.05-.37-.21 0-.59 8.95-5.38 8.95-6.45 0-.05-1.7-4.05-1.97-4.79-.21-.48-.85-2.98-.96-3.14-.37-.43-.85-.43-1.17-.43h-7.51zm8.2-24.19c1.07 0 1.6 0 3.83-4.1.27-.43 1.07-2.66 1.39-2.66.16 0 4.42 1.81 4.42 2.72 0 .48-.43.69-1.6 1.12-2.18.8-4.1 2.34-4.1 2.72 0 .21.27.21.43.21h6.07c2.29 0 2.56 0 3.14-.64 1.17-1.28 1.17-1.33 1.54-1.33.59 0 3.25 1.86 3.25 2.72 0 .69-.27.69-2.82.69h-16.14c-1.65 0-1.65.8-1.65 2.02 0 1.12 0 2.02 1.44 2.02h6.07c2.13 0 2.5-.05 2.77-.27.32-.27 1.76-1.86 2.18-1.86.37 0 3.09 2.24 3.09 2.77 0 .8-1.01.8-2.88.8H196.5c-1.49 0-1.49.96-1.49 1.86 0 1.65 0 2.4 1.54 2.4h12.46c2.66 0 2.82 0 3.84-1.44.64-.91.91-1.07 1.28-1.07.75 0 3.78 2.34 3.78 3.09 0 .8-.27.8-2.77.8h-35.53c-4.69 0-6.23.11-6.76.16-.16 0-.96.11-1.12.11s-.27-.11-.48-.32l-1.01-1.23q-.21-.27-.21-.37c0-.11.05-.11.16-.11.37 0 2.02.16 2.34.16 2.61.11 4.85.21 7.35.21h9.91c1.6 0 1.6-.91 1.6-1.97 0-1.44 0-2.29-1.49-2.29h-4.16c-4.69 0-6.23.05-6.71.11-.21.05-.96.16-1.12.16-.21 0-.32-.16-.48-.37l-1.07-1.23c-.16-.21-.21-.27-.21-.32 0-.11.05-.16.21-.16.37 0 1.97.21 2.34.21 2.61.16 4.79.16 7.3.16h3.89c1.49 0 1.49-1.01 1.49-1.76 0-1.49 0-2.29-1.54-2.29h-7.72c-4.69 0-6.18.11-6.71.11-.16.05-.96.16-1.12.16-.21 0-.32-.16-.48-.37l-1.01-1.23c-.11-.11-.27-.27-.27-.32 0-.11.11-.16.21-.16.37 0 2.02.21 2.34.21 2.61.11 4.79.16 7.3.16h1.44c.32 0 .59 0 .59-.32 0-.21-1.76-3.62-2.72-4.69-.16-.21-1.38-.96-1.38-1.23 0-.16.21-.32.43-.32 1.07 0 7.83 1.6 7.83 4.95 0 .21-.21 1.07-.21 1.23 0 .37.37.37.64.37h8.42zm11.78 21.04c-1.17 0-1.38-.48-2.66-3.04-.32-.69-1.44-2.29-2.08-2.82-.43-.37-.96-.91-.96-1.12 0-.16.21-.27.32-.27.96 0 3.3.96 4.21 1.44 1.07.53 2.77 1.33 2.77 3.73 0 1.12-.75 2.08-1.6 2.08zm25.35-3.3c0-1.92 1.54-3.52 3.52-3.52s3.52 1.54 3.52 3.52-1.65 3.52-3.52 3.52-3.52-1.54-3.52-3.52zm33.25-14.65c2.4 0 2.66 0 3.36-1.01.37-.59.69-.8.96-.8s3.14 1.49 3.14 2.4c0 .8-.96.8-2.88.8h-5.86c-1.87 0-4.16.05-5.27.16-.21 0-.96.11-1.12.11-.21 0-.32-.11-.48-.32l-1.07-1.23c-.16-.27-.21-.27-.21-.37s.05-.11.21-.11c.37 0 2.02.16 2.4.16 1.33.05 4.58.21 5.75.21h1.07zm.05-6.12c1.54 0 1.65 0 2.08-.91.21-.43.53-1.01.96-1.01.37 0 2.88 1.76 2.88 2.61 0 .69-.64.69-1.76.69h-5.7c-.96 0-2.18 0-3.46.11-.21 0-1.07.11-1.28.11s-.37-.16-.43-.32l-.91-1.23c-.05-.05-.11-.16-.11-.27s.11-.16.21-.16c.32 0 1.76.21 2.02.21 1.81.11 2.34.16 3.83.16h1.65zm-.37 12.99c1.23 0 1.44 0 2.13-.96.43-.59.69-.75.96-.75.48 0 2.98 1.76 2.98 2.5 0 .64-.69.64-1.76.64h-7.78c-.37.05-1.81.21-2.08.21s-.37-.16-.48-.32l-.91-1.23c-.05-.11-.11-.16-.11-.32 0-.11.11-.11.16-.11.27 0 1.17.11 1.38.16 1.54.11 2.93.16 4.53.16h.96zm-1.39 25.25c-.53 0-1.65 0-1.65 1.6 0 .32.11 1.81.11 2.13 0 .53 0 2.72-2.56 2.72-1.22 0-1.22-.85-1.22-1.23v-.59c.32-2.34.37-3.09.37-6.55 0-.32 0-4.95-.37-8.52 0-.27-.21-1.65-.21-1.97 0-.27.11-.43.43-.43.37 0 1.97.75 2.34.85.69.21 1.22.21 1.7.21h2.88c.59 0 .96 0 1.33-.21.27-.16 1.12-1.65 1.49-1.65.43 0 3.68 2.02 3.68 2.56 0 .27-.32.64-.75 1.06-.59.64-.69.96-.69 1.97 0 1.23.37 7.78.37 8.31 0 2.08-1.71 2.29-2.24 2.29-1.01 0-1.07-.64-1.12-1.12-.11-1.01-.53-1.44-1.65-1.44h-2.24zm.91-17.63c-1.01 0-1.65 0-2.66.05-.32 0-1.76.16-2.08.16-.21 0-.37-.16-.43-.32l-.91-1.23c-.05-.05-.11-.11-.11-.27 0-.11.11-.16.21-.16.32 0 1.76.21 2.02.21 1.86.11 2.34.16 3.83.16 1.71 0 1.92 0 2.34-.48.75-.85 1.01-1.12 1.23-1.12.59 0 3.04 1.49 3.04 2.34 0 .64-.69.64-1.76.64h-4.74zm-1.23 7.3c-1.71 0-1.71.64-1.71 2.29 0 .69.11 5.49.32 6.02.27.64 1.12.64 1.54.64h2.29c1.71 0 1.71-.48 1.71-3.14 0-.8 0-4.74-.21-5.22-.27-.59-1.12-.59-1.49-.59h-2.45zm27.86-12.2c-1.23 0-1.81.32-1.81 1.6 0 2.88 0 3.2 1.49 3.2h2.56c.43 0 1.12 0 1.65-.43.27-.16 1.22-1.12 1.49-1.12.64 0 3.78 2.34 3.78 2.88 0 .32-.27.59-.64.75-.64.32-.75.53-.8.64-.21.37-.27 6.02-.27 6.98 0 2.82 0 3.14.64 3.14.32 0 .59-.21.85-.8.21-.37.69-1.17 1.28-1.17.64 0 3.2 2.45 3.2 3.09 0 .75-1.17.75-2.66.75h-1.54c-.43 0-1.17 0-1.44.64-.11.21-.11 3.52-.11 3.78 0 1.54-.16 2.93-1.49 4-.91.8-2.82 1.23-3.73 1.23-.21 0-.59-.05-.8-.21-.21-.16-.91-1.33-1.07-1.54-.32-.43-2.4-2.5-2.4-2.61 0-.16.32-.16.53-.16.37 0 2.45.11 2.93.11 2.4 0 2.56-.11 2.56-3.46 0-.96 0-1.76-1.54-1.76h-11.24c-1.54 0-1.54.85-1.54 2.08 0 .8.16 4.79.16 5.17 0 .69 0 1.38-.48 1.7-.21.21-1.07.85-2.13.85s-1.23-.69-1.23-1.33c0-.91.21-5.38.21-6.39 0-1.7-.37-2.02-1.7-2.02-.32 0-1.97.21-2.18.21-.16 0-.27-.16-.48-.37l-1.01-1.23q-.21-.27-.21-.32c0-.16.11-.16.16-.16.11 0 3.09.27 3.67.27 1.76 0 1.87-.69 1.87-1.76 0-2.98-.05-8.15-.53-10.71-.05-.27-.48-1.7-.48-2.02 0-.11 0-.37.21-.37.53 0 1.49.43 3.46 1.23 1.07.48 1.92.48 2.45.48h1.97c.69 0 1.17-.16 1.17-1.39 0-2.66 0-3.41-1.6-3.41h-4.26c-1.22 0-3.83 0-5.43.16-.16 0-.96.11-1.12.11-.21 0-.32-.11-.48-.32l-1.01-1.23q-.27-.27-.27-.37c0-.11.16-.11.21-.11.16 0 1.07.05 1.23.11.69.05 2.72.21 6.07.21 1.49 0 1.65-.37 1.65-3.3 0-1.7-.85-1.7-2.13-1.7-.48 0-3.14.21-3.46.21-.21 0-.32-.11-.48-.37l-1.07-1.23q-.21-.27-.21-.32c0-.11.11-.16.21-.16.69 0 4.1.32 4.9.32 1.76 0 2.18-.21 2.18-1.81 0-2.02 0-2.82-1.49-2.82-.48 0-3.83.05-4.37.11-.16 0-.75.11-.91.11s-.27-.11-.48-.37l-1.01-1.23q-.21-.27-.21-.32c0-.11.11-.16.16-.16.8 0 4.63.32 5.54.32 2.13 0 2.5-.11 2.5-1.28 0-.11 0-.53-.05-1.07-.05-.32-.48-1.81-.48-2.13 0-.43.27-.48.69-.48.11 0 4.05.43 4.05 1.17 0 .21-.05.27-.59.96-.11.11-.37.75-.37 1.49 0 1.39 1.17 1.39 1.6 1.39h3.36c.37 0 1.38 0 1.38-1.44 0-.43-.05-.85-.16-1.38-.05-.27-.37-1.44-.37-1.76 0-.37.27-.53.75-.53.43 0 4.37.64 4.37 1.6 0 .21-.16.32-.69.8-.37.27-.48.64-.48 1.33 0 1.28.8 1.39 1.54 1.39.85 0 1.28-.16 1.86-.91 1.01-1.38 1.17-1.54 1.6-1.54.69 0 3.52 2.13 3.52 3.09 0 .8-1.01.8-2.88.8h-4.05c-1.38 0-1.6.64-1.6 1.6 0 2.72 0 3.04.91 3.04.27 0 .64-.16.85-.48 1.17-1.65 1.28-1.86 1.81-1.86.64 0 4 2.29 4 3.09s-.96.8-2.88.8h-2.98c-1.33 0-1.65.64-1.65 1.49 0 3.14 0 3.62 1.76 3.62 2.24 0 2.45 0 3.25-.91.48-.59 1.23-1.44 1.76-1.44.43 0 3.78 2.18 3.78 2.98 0 .75-1.07.75-2.88.75h-10.17zm-8.79 6.18c-1.65 0-1.65.8-1.65 2.77 0 1.44 0 2.4 1.6 2.4h2.34c1.54 0 1.54-1.01 1.54-1.81 0-2.56 0-3.36-1.65-3.36h-2.18zm.06 6.55c-1.49 0-1.54.91-1.54 1.7 0 2.88.05 3.62 1.65 3.62h2.08c1.65 0 1.65-.69 1.65-3.2 0-1.17 0-2.13-1.6-2.13h-2.24zm3.09-25.41c-1.6 0-1.6.91-1.6 2.29 0 1.6 0 2.45 1.6 2.45h3.36c1.6 0 1.6-.91 1.6-2.29 0-1.54 0-2.45-1.6-2.45h-3.36zm.05 6.18c-1.49 0-1.6.91-1.6 1.7 0 2.61 0 3.41 1.65 3.41h3.25c1.6 0 1.6-.91 1.6-2.45 0-1.86 0-2.66-1.6-2.66h-3.3zm5.38 12.68c-1.6 0-1.6 1.01-1.6 1.97 0 2.34 0 3.2 1.6 3.2h2.77c1.54 0 1.65-.8 1.65-2.5 0-1.86-.11-2.66-1.65-2.66h-2.77zm.05 6.55c-1.44 0-1.54.85-1.54 1.7 0 2.93 0 3.62 1.6 3.62h2.77c1.54 0 1.54-.59 1.54-3.04 0-1.39 0-2.29-1.54-2.29h-2.82zm29.41 7.51c1.12 3.89 1.22 4.31 1.22 5.27 0 1.6-.91 2.82-2.34 2.82-1.97 0-2.08-1.76-2.24-4.1-.48-6.82-1.54-7.56-3.46-8.47-.27-.11-1.81-.64-1.81-.69 0-.16 3.36-.96 3.83-1.33 1.71-1.28 6.66-16.25 7.19-16.25.16 0 .11.16.11.32 0 1.49-3.25 14.17-3.25 16.89 0 2.13.16 3.46.75 5.54zm-2.02-20.61c-1.01 0-1.23-.27-2.45-2.77-.32-.64-1.12-1.86-2.34-3.04-.37-.32-1.07-.96-1.07-1.12s.48-.16.64-.16c2.77 0 7.08 2.08 7.08 4.69 0 .91-.27 2.4-1.86 2.4zm3.67-11.4c-.8 0-1.01-.27-2.98-2.88-1.44-1.97-2.08-2.66-2.77-3.3-.05-.05-.91-.8-.91-1.07 0-.16.21-.16.32-.16.21 0 2.82.53 4 1.01 2.34.96 4.21 2.34 4.21 4.47 0 .85-.69 1.92-1.87 1.92zm17.58 34.04c0 .37-.16.43-1.6.96-1.28.48-6.5 3.41-7.78 3.94-1.92.8-5.49 2.08-6.45 2.08-.16 0-.43-.05-.43-.21 0-.11 3.89-2.4 4.58-2.88 1.65-1.12 5.01-3.78 6.23-5.33.75-.91 1.12-1.38 1.6-1.38.37 0 .53.11 2.02 1.12.27.16 1.81 1.01 1.81 1.7zm16.14-34.68c.43 0 .96-.05 1.38-.8.32-.59.53-.75.8-.75.64 0 4.05 3.09 4.05 4 0 .69-1.17 1.07-2.02 1.07-1.28 0-2.08.16-3.04 1.12-.16.16-1.6 1.49-1.81 1.49-.11 0-.21-.21-.21-.32 0-.48 1.33-3.04 1.33-3.68 0-.69-.53-.75-1.07-.75h-23.01c-1.01 0-1.38.16-1.54.85-.43 2.13-1.01 4.74-3.25 4.74-.85 0-1.81-.8-1.81-2.02 0-.75.21-1.12 1.12-2.56.64-1.07 1.17-2.13 1.65-4.26.11-.43.32-1.6.48-1.6s.69.53 1.17 1.86c.59 1.49.59 1.6 1.76 1.6h7.72c.69 0 1.54 0 1.54-1.54 0-.53-.27-2.29-.37-2.88-.05-.27-.53-1.65-.53-1.97s.21-.48.59-.48c.32 0 2.72.48 3.52.64 1.92.37 2.13.43 2.13 1.07 0 .32-.37.64-1.17 1.44-.48.48-.43 2.02-.43 2.24 0 1.49.91 1.49 1.49 1.49h9.54zm-21.09 30.47c-.69 0-1.01.05-1.54.85-.37.48-.75 1.01-1.81 1.01-1.28 0-1.6-.85-1.6-1.54 0-.48.16-2.66.21-3.09 0-.96.05-6.39.05-6.77 0-1.54-.05-3.25-.16-4.79-.05-.48-.32-2.4-.32-2.82 0-.21 0-.53.27-.53.69 0 2.5 1.12 3.68 1.81.75.48 1.17.48 1.65.48h4.47c1.12 0 1.49-.37 1.49-1.81 0-3.62 0-4-1.65-4-1.17 0-3.84 0-4.9.16-.11 0-.64.11-.75.11-.21 0-.32-.16-.48-.37l-1.01-1.23c-.16-.11-.27-.27-.27-.37 0-.05.11-.11.21-.11.37 0 2.02.16 2.34.21 2.45.11 4.85.16 7.3.16h3.41c2.29 0 2.56 0 3.2-.64.32-.37 1.65-2.24 2.08-2.24s4.31 3.09 4.31 3.57c0 .75-1.07.75-2.82.75h-6.18c-1.54 0-1.54.37-1.54 3.94 0 1.28.16 1.86 1.54 1.86h6.39c.75 0 1.38-.05 1.81-.53.8-.91.91-.96 1.17-.96.21 0 3.78 1.97 3.78 2.77 0 .43-.11.53-1.23 1.28-.48.32-.53 2.88-.53 3.46 0 .64.05 5.86.11 6.45 0 .43.16 1.86.16 2.61 0 1.7-.91 3.04-2.4 3.04-.96 0-1.49-.43-1.65-1.23-.16-1.01-.27-1.49-1.6-1.49h-17.21zm4.9-8.58c1.49 0 1.49-.69 1.49-2.72s0-2.72-1.49-2.72h-4.69c-1.49 0-1.49.69-1.49 2.77s0 2.66 1.49 2.66h4.69zm-4.69 1.44c-1.49 0-1.49.75-1.49 2.93s0 2.82 1.49 2.82H342c1.49 0 1.49-.75 1.49-2.98 0-2.08 0-2.77-1.49-2.77h-4.63zm17.36-1.44c1.54 0 1.54-.96 1.54-1.81 0-3.09 0-3.62-1.54-3.62h-6.45c-1.54 0-1.54 1.01-1.54 1.81 0 3.14 0 3.62 1.54 3.62h6.45zm0 7.19c1.44 0 1.44-1.28 1.44-1.92 0-3.09 0-3.83-1.44-3.83h-6.45c-1.49 0-1.49 1.28-1.49 1.92 0 3.09 0 3.84 1.49 3.84h6.45zm5.54 12.52c-1.01 0-1.65-.75-3.04-2.34-2.29-2.61-4.95-4.47-6.61-5.43-.21-.11-.91-.43-.91-.59 0-.21.32-.21.53-.21 1.22 0 10.87 1.7 11.77 6.39.21.96-.69 2.18-1.76 2.18z" fill="#0d4b1f" stroke="#0d4b1f" stroke-linecap="round" stroke-linejoin="round" stroke-width="1.18" data-name="レイヤー 1"/></svg>