<?xml version="1.0" encoding="UTF-8"?>
<svg id="Layer_2" data-name="Layer 2" xmlns="http://www.w3.org/2000/svg" viewBox="0 0 240.96 453.22">
  <defs>
    <style>
      .cls-1 {
        fill: #040000;
        stroke-width: 0px;
      }
    </style>
  </defs>
  <g id="_レイヤー_1" data-name="レイヤー 1">
    <g>
      <path class="cls-1" d="M224.59,11.2c0,.57-.38,1.36-1.03,1.36-.41,0-.54-.16-.95-.84-.49-.84-1.52-1.69-2.47-2.23-.08-.05-.27-.16-.27-.27,0-.41,1.74-.41,1.9-.41,1.17,0,2.83,1.06,2.83,2.39ZM221.38,19.55c-.08-.16-.52-.73-.57-.87-.11-.19-.14-.41-.14-.49,0-.16.11-.22.22-.22.08,0,1.31.44,1.58.44,1.47,0,8.86-4.05,13.65-8.46.3-.3,1.88-1.9,1.96-1.9.05,0,.16.05.16.16,0,.05-1.36,4.27-12.02,10.99-1.66,1.03-1.77,1.11-1.99,1.28-1.01.79-1.11.87-1.41.87-.57,0-.9-.63-1.44-1.79ZM227.88,5.76c0,.71-.46,1.28-.9,1.28-.3,0-.41-.14-1.36-1.25-.65-.76-1.2-1.06-2.37-1.47-.38-.14-.41-.14-.41-.25,0-.3,1.25-.57,2.07-.57.33,0,.87.05,1.39.27.71.3,1.58,1.01,1.58,1.98ZM236.99,4.51c0,.33-.35,1.03-.87,1.03-.41,0-.65-.3-1.33-1.36-.46-.68-.71-.9-1.74-1.82-.11-.08-.35-.33-.35-.44,0-.16.33-.19.49-.19,1.58,0,3.81,1.33,3.81,2.77ZM239.85,2.67c0,.44-.27.87-.73.87-.57,0-.95-.57-1.33-1.2-.35-.54-1.36-1.33-2.2-1.77-.25-.14-.3-.27-.3-.33,0-.24.54-.24,1.03-.24.71,0,3.53.79,3.53,2.67Z"/>
      <path class="cls-1" d="M238.87,29.86c0,.44-.41.57-.87.73-.6.19-.73.3-1.96,1.17-.46.35-2.12,1.5-2.47,1.5-.11,0-.11-.11-.11-.14,0-.3,2.37-2.83,2.37-3.51,0-.22-.22-.22-.33-.22-.14,0-3.43.79-3.78.87-.98.22-1.09.24-1.09.71s1.44,4.98,2.34,7.26c.62,1.6.76,1.98.76,2.5,0,.57-.27,1.14-.57,1.14-.27,0-1.36-.73-1.63-1.55-.14-.44-1.6-6.74-1.98-7.99-.33-1.11-.35-1.22-.73-1.22-.35,0-1.99.46-2.47.63-.33.11-1.71.76-2.01.76-.25,0-.38-.08-1.55-.87-.33-.22-.6-.46-.6-1.01,0-.03.03-.68.25-.68.11,0,.16.03.76.22.44.16.9.19,1.31.19,1.01,0,2.94-.27,3.78-.52.27-.08.38-.19.38-.44,0-.73-.54-2.39-1.33-3.02-.08-.08-.54-.33-.62-.41-.05-.05-.05-.08-.05-.14,0-.44,1.14-.44,1.36-.44,1.09,0,2.01.22,2.01,1.09,0,1.33,0,2.8.62,2.8s3.24-.6,4.02-.87c.71-.24,1.33-.68,1.63-.68.76,0,2.58,1.41,2.58,2.12Z"/>
      <path class="cls-1" d="M228.13,59.33c-.71.52-2.09,1.55-2.67,2.23-.52.63-.57.68-.98.68-1.47,0-3.48-1.74-3.48-2.83,0-.19.03-1.44.27-1.44.11,0,.71.46.82.52.35.22,1.25.63,1.85.63,1.33,0,8.54-4.81,13.05-9.27.43-.44,1.2-1.2,1.25-1.2s.14.08.14.14c0,.24-3.18,5.33-10.25,10.55ZM225.9,50.39c-.73,0-1.01-.44-1.9-1.79-.92-1.39-1.71-1.79-2.47-2.23-.11-.05-.25-.14-.25-.25s.22-.24.6-.24c2.91,0,5.19,1.55,5.19,3.15,0,.82-.46,1.36-1.17,1.36Z"/>
      <path class="cls-1" d="M218.39,81.38c0-.52.24-.79,1.03-1.28,1.06-.65,2.45-1.9,2.66-2.09.14-.14.44-.41.54-.41s.14.25.14.33c0,1.28-1.28,4.57-3.07,4.57-.22,0-.38-.05-.52-.11-.35-.11-.79-.46-.79-1.01ZM229.05,83.18c0,.41,0,2.2-1.44,2.2-.6,0-.65-.16-1.22-1.74-.33-.87-.46-1.09-1.01-1.93-.11-.19-.16-.24-.16-.33s.05-.11.11-.11c.19,0,1.09.35,1.28.35.35,0,.49-.3.54-.73.14-1.28.14-4,.14-5.47,0-1.31-.05-1.79-.79-1.79-.16,0-3.43.46-5.03.87-.16.05-.92.3-1.09.3-.6,0-1.96-1.85-1.96-2.39,0-.14.03-.24.19-.24.11,0,.16.03.52.16.62.27,2.01.27,2.42.27.62,0,3.56-.16,4.38-.19,1.03-.05,1.31-.24,1.31-1.14s-.16-2.69-.57-3.48c-.05-.14-.52-.57-.52-.71,0-.08.3-.27.92-.27,1.88,0,2.56,1.2,2.56,1.41,0,.16-.43.76-.49.9-.25.49-.25,1.82-.25,2.09,0,.84.35.98,1.06.98.87,0,2.18-.22,2.64-.27.35-.05,1.79-.41,2.09-.41.82,0,1.74.41,2.64.92.3.19.68.41.68.87,0,.52-.6.54-.71.54-.41,0-2.17-.3-2.56-.35-1.03-.11-3.02-.14-3.24-.14-2.34,0-2.58,0-2.58,1.55,0,1.31.14,7.1.14,8.27ZM235.61,81.22c-.46-1.14-1.31-2.56-2.2-3.34-.41-.38-1.09-1.01-1.09-1.14s.14-.14.19-.14c1.44,0,5.82,2.64,5.82,4.92,0,.63-.33,1.52-1.22,1.5-.76,0-1.01-.63-1.5-1.79ZM236.94,67.92c.84.52,1.2,1.17,1.2,1.55,0,.54-.33,1.06-.76,1.06-.33,0-.54-.11-1.47-1.09-.57-.6-.9-.79-2.04-1.47-.14-.08-.44-.27-.44-.38,0-.08.22-.27.46-.27,1.47,0,2.09,0,3.04.6ZM240.25,67.38c0,.33-.22.82-.68.82-.57,0-.92-.41-1.41-1.03-.46-.54-1.5-1.2-2.37-1.52-.27-.11-.35-.22-.35-.3,0-.19.49-.33,1.01-.33,2.26,0,3.81,1.2,3.81,2.37Z"/>
      <path class="cls-1" d="M228.13,103.16c-.71.52-2.09,1.55-2.67,2.23-.52.63-.57.68-.98.68-1.47,0-3.48-1.74-3.48-2.83,0-.19.03-1.44.27-1.44.11,0,.71.46.82.52.35.22,1.25.63,1.85.63,1.33,0,8.54-4.81,13.05-9.27.43-.44,1.2-1.2,1.25-1.2s.14.08.14.14c0,.24-3.18,5.33-10.25,10.55ZM225.9,94.22c-.73,0-1.01-.44-1.9-1.79-.92-1.39-1.71-1.79-2.47-2.23-.11-.05-.25-.14-.25-.25s.22-.24.6-.24c2.91,0,5.19,1.55,5.19,3.15,0,.82-.46,1.36-1.17,1.36Z"/>
      <path class="cls-1" d="M226.96,116.43c.27.11,1.5.73,1.71.73.57,0,1.36-1.9,1.69-2.69.49-1.17,1.01-2.72,1.01-3.26,0-.24-.08-.44-.19-.63-.08-.16-.16-.24-.16-.33,0-.14.08-.24.22-.24.25,0,1.09.3,1.82.87.82.65,1.17,1.77,1.17,1.96,0,.22-.08.24-.68.54-.3.16-.38.3-1.09,1.63-.46.9-.98,1.82-1.55,2.72-.14.19-.27.44-.27.68,0,.3.25.54.46.73,2.34,2.07,2.66,3.53,2.66,4.21s-.57.9-.87.9c-.98,0-1.39-.71-2.34-2.39-.27-.49-.79-1.41-1.17-1.41-.25,0-.46.22-.57.38-4.98,6.23-10.41,8.54-10.66,8.54-.08,0-.19-.03-.19-.14s.52-.52.84-.79c4.62-3.62,6.44-5.74,7.21-6.66.65-.82,1.96-2.5,1.96-2.91,0-.57-2.5-2.07-3.54-2.64-.52-.27-.57-.3-.57-.44,0-.11.05-.22.25-.22.35,0,1.55.3,2.86.84Z"/>
      <path class="cls-1" d="M224.65,141.61c0,1.31-.95,1.47-1.12,1.47-.6,0-.71-.16-1.9-2.23-.6-1.01-1.03-1.47-2.17-2.64-.05-.05-.16-.16-.16-.24,0-.11.16-.08.22-.08,1.14.24,5.14,1.01,5.14,3.73ZM234.82,139.98c-.33.52-1.52,3.05-1.79,3.54-1.99,3.59-4.62,6.85-8.1,9.03-1.44.9-2.88,1.5-3.02,1.5-.08,0-.14-.08-.14-.14,0-.11,2.45-2.15,2.88-2.56,6.58-6.01,8.18-12.78,8.18-13.16,0-.46-.33-1.01-.76-1.39-.03-.03-.14-.14-.14-.22,0-.24.6-.24.71-.24,1.03,0,1.33.22,1.98.76.27.24,1.14,1.01,1.14,1.6,0,.24-.82,1.09-.95,1.28ZM239.25,136.26c0,.6-.35,1.09-.79,1.09-.33,0-.52-.11-1.44-1.09-.52-.52-.87-.76-2.07-1.44-.14-.08-.44-.27-.44-.38s.22-.24.46-.27c2.61-.33,4.27,1.25,4.27,2.09ZM237.92,131.82c2.23,0,3.04,1.28,3.04,1.88,0,.41-.25.79-.71.79-.52,0-.71-.16-1.41-.76-.52-.41-1.69-.9-2.61-1.06-.27-.05-.41-.16-.41-.24,0-.16.43-.41.92-.49.38-.08.9-.11,1.17-.11Z"/>
      <path class="cls-1" d="M228.13,171.52c-.71.52-2.09,1.55-2.67,2.23-.52.63-.57.68-.98.68-1.47,0-3.48-1.74-3.48-2.83,0-.19.03-1.44.27-1.44.11,0,.71.46.82.52.35.22,1.25.63,1.85.63,1.33,0,8.54-4.81,13.05-9.27.43-.44,1.2-1.2,1.25-1.2s.14.08.14.14c0,.24-3.18,5.33-10.25,10.55ZM225.9,162.58c-.73,0-1.01-.44-1.9-1.79-.92-1.39-1.71-1.79-2.47-2.23-.11-.05-.25-.14-.25-.25s.22-.24.6-.24c2.91,0,5.19,1.55,5.19,3.15,0,.82-.46,1.36-1.17,1.36Z"/>
      <path class="cls-1" d="M219.37,182.78c1.14,0,1.55-.11,5.28-1.17,2.42-.68,8.65-2.45,10.44-2.45.98,0,2.2.38,2.2,1.31,0,.71-.71,1.01-1.11,1.01-.35,0-1.9-.3-2.2-.3-3.45,0-7.31,3.18-7.31,10.2,0,4.57,1.71,4.87,3.32,4.87.41,0,2.34-.16,2.58-.16.84,0,1.33.35,1.33,1.01,0,1.44-2.99,1.44-3.15,1.44-5.55,0-5.55-4.54-5.55-5.82,0-1.2.03-6.96,3.94-10.47.11-.08.68-.52.68-.57s-.11-.05-.16-.05c-1.58,0-7.21,2.39-8.1,2.91-.35.19-.63.35-.92.35-1.36,0-2.67-1.82-2.31-2.2.11-.14.9.11,1.06.11ZM236.75,188.79c0,.62-.52,1.11-.95,1.11-.49,0-.73-.52-1.17-1.58-.3-.76-.49-1.01-1.36-2.12-.08-.11-.27-.38-.27-.49,0-.14.3-.16.54-.11,2.31.63,3.21,2.31,3.21,3.18ZM240.04,187.48c0,.71-.43,1.01-.79,1.01-.65,0-.95-.79-1.22-1.44-.25-.6-1.06-1.58-1.79-2.18-.14-.11-.24-.22-.24-.35,0-.16.3-.16.38-.16.22,0,.52.08.68.14,1.6.52,2.99,1.69,2.99,2.99Z"/>
      <path class="cls-1" d="M222.83,222.21c0,.6-.27,1.12-.9,1.12-1.36,0-2.72-2.72-2.72-6.93,0-1.6.14-2.91.71-5.33.76-3.34.82-3.48.82-4.32,0-.92-.14-1.39-.62-2.26-.08-.16-.52-.79-.52-.95s.33-.22.49-.22c1.52,0,2.88,2.72,2.88,3.21,0,.22-1.2,3.56-1.41,4.24-.54,1.79-.98,3.48-.98,5.47,0,.16,0,1.9.65,1.9.24,0,.27-.11.76-1.6.11-.35.92-2.72,1.12-2.72.11,0,.11.19.11.24,0,.87-.76,4.79-.76,5.57,0,.41.38,2.2.38,2.58ZM233.62,220.69c-.71,1.5-2.23,2.58-4.05,2.58s-3.4-1.11-3.4-2.72c0-.38,0-3.26,5.57-3.34.68,0,.68-.19.68-1.88,0-.16-.08-3.05-.11-3.81,0-.16-.03-.49-.22-.65-.05-.05-1.12-.05-1.25-.05-3.07,0-4.02-2.15-4.02-2.42,0-.08.03-.19.14-.19s.62.33.73.38c.76.33,1.88.54,3.05.54q1.5,0,1.5-1.79c0-1.71,0-2.47-.52-3.1-.11-.14-.84-.73-.84-.92,0-.16.35-.46.92-.46s2.37.38,2.37,1.41c0,.19-.03.24-.3.68-.08.14-.16.35-.16.57,0,.82,1.41.87,1.58.87,1.2.05,2.09.08,2.09,1.22,0,1.28-1.82,2.07-2.83,2.5s-1.01.46-1.01,1.63c0,.6.19,3.67.27,4.4.11,1.01.19,1.2.87,1.5,1.33.57,4.19,1.85,4.19,3.45,0,.49-.38,1.09-.98,1.09-.33,0-.41-.11-1.06-.92-.79-.95-2.2-2.09-2.69-1.85-.19.08-.43,1.09-.52,1.28ZM227.26,220.33c0,.73.84,1.2,1.79,1.2,1.6,0,3.26-1.31,3.26-2.23,0-.46-.38-.68-2.12-.68-1.55,0-2.94.92-2.94,1.71ZM233.54,207.47c0,1.03.22,1.03.41,1.03.38,0,1.41-.33,1.41-.95,0-.49-.9-.84-1.28-.84-.08,0-.22.03-.33.11-.11.08-.22.3-.22.65Z"/>
      <path class="cls-1" d="M239.11,233.36c-.54,0-.65-.19-1.55-1.82-.54-.95-1.25-1.9-2.86-2.91-.08-.05-.38-.22-.38-.33,0-.08.08-.19.3-.19.95,0,5.57,1.41,5.57,3.97,0,.65-.54,1.28-1.09,1.28Z"/>
      <path class="cls-1" d="M172.25,9.54c.25,0,.79-.03.79-.82,0-1.2,0-1.5-.16-2.07-.03-.11-.22-.6-.22-.71,0-.19.27-.24.41-.24.52,0,2.61.63,2.61,1.11,0,.16-.46.68-.52.82-.08.14-.14.33-.14.71,0,.73,0,1.2.82,1.2h.98c.22,0,.62,0,1.06-.33.11-.11.65-.63.79-.63.16,0,1.93.95,1.93,1.36,0,.16-.65.73-.73.87-.16.27-.16.84-.16,1.58s.14,3.75.14,4.38c0,1.09-.49,2.07-1.55,2.07-.6,0-.62-.35-.65-.82-.03-.27-.27-.27-.73-.27h-2.28c-.11,0-.3,0-.3.24,0,.44,2.72,2.85,3.05,2.85.35,0,2.77-1.74,3.62-2.58.08-.08.24-.25.38-.25.08,0,1.88,1.69,1.88,1.85,0,.19-.44.24-.62.27-.98.08-4.35.98-4.35,1.25,0,.38,4,2.18,6.74,2.47.82.08,1.03.11,1.03.27,0,.14-.33.24-.41.27-.9.3-1.5.87-1.71,1.14-.27.35-.35.41-.52.41-.44,0-4.21-1.96-6.12-3.43-.38-.3-.49-.38-.71-.38-.33,0-3.89,1.31-4.65,1.55-.65.22-5.11,1.63-5.38,1.79-.14.08-.68.54-.84.54-.22,0-.27-.11-.84-1.11-.08-.19-.6-1.09-.6-1.2,0-.19.33-.19.57-.19.92,0,1.28-.08,2.53-.27.73-.11.76-.87.76-1.33,0-.98.05-7.23.05-8.59,0-.65-.03-4.32-.46-4.32-.11,0-4.46,2.53-5.41,2.53-.11,0-.27-.05-.27-.14,0-.16.38-.35.49-.41,1.09-.57,7.53-4.84,9.9-9.16.08-.11.3-.68.38-.79.03-.08.14-.14.22-.14.14,0,2.64,1.09,2.64,1.44,0,.05-.25.25-.25.3,0,.19,2.31,2.45,4.51,3.59,2.34,1.22,5.96,2.31,6.74,2.42.11.03.3.05.3.16,0,.14-.16.16-.46.3-.68.3-.84.49-1.52,1.2-.27.27-.3.3-.44.3-.62,0-5.87-2.75-8.97-6.77-.52-.65-.57-.71-.76-.71-.3,0-.33.03-1.14.84-.25.24-2.42,2.34-4.02,3.53-.19.16-.95.73-.95.84,0,.05,1.09,1.17,2.09,1.17h1.47ZM176.93,17.05c.68,0,.84-.11.84-2.15,0-.49,0-1.03-.79-1.03h-6.25c-.82,0-.82.33-.82,2.04,0,.63,0,1.14.82,1.14h6.2ZM176.98,13.16c.43,0,.79-.22.79-.68v-1.47c0-.76-.62-.76-.79-.76h-6.25c-.79,0-.79.22-.79,2.15,0,.76.6.76.79.76h6.25ZM170.78,17.76c-.46,0-.73.08-.82.57-.03.11-.03,3.05-.03,3.43,0,.41,0,.87.6.87.38,0,4.02-.84,4.79-1.01.14-.03.57-.11.57-.27,0-.08-.35-.44-.43-.54-.16-.19-1.12-1.33-1.77-2.47-.27-.49-.44-.57-.9-.57h-2.01Z"/>
      <path class="cls-1" d="M166.02,42.94c0-.82.76-1.69,2.61-3.83,1.22-1.41,2.31-3.67,2.31-4.05,0-.16-.19-.19-.3-.19-.27,0-1.39.22-1.63.22-1.03,0-2.42-1.33-2.42-2.39,0-.08,0-.19.16-.19s.87.44,1.03.52c.33.16,1.06.49,1.79.49,2.23,0,2.23-.73,2.23-1.28,0-.16-.03-.6-.22-.95-.08-.14-.65-.63-.65-.79,0-.22.71-.44,1.2-.44.65,0,1.33.24,1.39.84.03.35.14.41,1.22.49.19,0,1.22.14,1.22.71,0,.9-1.99,1.66-3.24,2.15-.41.16-.43.22-1.03,1.6-.65,1.5-.76,1.71-1.47,2.94-.14.24-.19.33-.19.44,0,.05.03.11.11.11s.6-.19.84-.3c.3-.14.65-.22,1.06-.22.35,0,1.6.05,2.31,1.66.19.46.22.52.27.52.08,0,.98-1.25,1.12-1.47.9-1.25,2.67-3.73,5.03-3.73,1.5,0,2.56,1.28,2.56,2.42,0,1.28-2.15,2.18-3.83,2.91-.68.3-3.75,1.52-4.24,1.82-.44.27-.46.57-.46,1.14,0,.24.05,1.39.05,1.63,0,.44,0,1.98-1.01,1.98-.73,0-.84-.9-.84-1.39,0-.27.08-1.58.08-1.6,0-.11,0-.33-.19-.33-.22,0-2.64,1.69-2.64,3.24,0,1.88,2.72,1.88,3.51,1.88.68,0,1.2-.05,1.74-.16.38-.05,2.12-.49,2.47-.49.57,0,1.33.27,1.33.92,0,1.69-4.21,1.79-4.87,1.79-3.45,0-5.27-1.41-5.27-3.56,0-1.74,1.03-2.61,3.59-4.68.27-.22.41-.54.41-.95,0-1.22-.22-2.75-1.31-2.75s-2.64,1.25-3.34,2.88c-.3.68-.6,1.33-1.47,1.33-.52,0-1.03-.16-1.03-.9ZM172.96,32.66c.05,0,1.36-.35,1.36-.65,0-.35-.68-.41-.92-.41-.38,0-.49.76-.49.87s0,.19.05.19ZM175.43,41.47c0,.05.03.14.11.14s5.44-2.18,5.44-3.97c0-.68-.6-.82-.95-.82-2.26,0-4.59,4.21-4.59,4.65Z"/>
      <path class="cls-1" d="M167.55,65.07c-.16.16-.16.27-.16.71,0,2.2.08,7.97.11,10.06,0,.95.19,2.45.19,3.37,0,.98-.35,1.52-1.52,1.52-.9,0-.95-.76-.95-.9s.08-.73.11-.87c.03-.24.22-2.94.22-3.56,0-1.47-.11-7.97-.11-9.27,0-.22,0-.41-.24-.41-.11,0-1.71,1.88-2.07,2.23-.22.24-1.58,1.55-1.71,1.55-.08,0-.08-.05-.08-.08,0-.16,1.09-1.93,1.28-2.26,1.79-2.91,4.73-7.7,5.46-10.63.22-.9.22-.98.44-.98.14,0,.24.08,1.22.79,1.14.82,1.28.9,1.28,1.2,0,.24-.08.3-.87.87-.3.24-2.28,3.51-2.72,4.16-.41.57-.44.65-.44.82,0,.14.14.19.46.38.54.27.6.46.6.68,0,.16-.14.3-.49.63ZM174.26,66.37c-2.37,0-3.15.05-3.43.08-.08,0-.49.08-.57.08-.11,0-.16-.08-.24-.19l-.52-.63c-.05-.05-.14-.14-.14-.16,0-.05.05-.08.11-.08.19,0,1.03.08,1.2.11,1.33.05,2.45.08,3.73.08h6.66c1.03,0,1.33-.03,1.5-.19.3-.24,1.6-1.69,1.82-1.69.25,0,2.31,1.66,2.31,2.18,0,.41-.49.41-1.44.41h-6.74c-.11,0-.19.03-.19.11,0,.05.03.08.41.33.35.22.52.33.52.46,0,.16-.68.54-.76.65-.14.35-.52,1.47-.62,1.74-.3.76-1.03,2.47-2.8,6.12-.08.16-.22.49-.22.65,0,.22.22.24.41.24.9,0,5.06-.6,6.23-.82.3-.05.71-.14.71-.52s-1.99-3.56-2.42-4.13c-.03-.03-.27-.38-.41-.54,0-.03.05-.05.08-.05.73,0,6.66,5.11,6.66,7.86,0,1.31-.76,1.47-1.01,1.47-.71,0-1.01-.68-1.36-1.47-.73-1.74-.76-1.77-1.14-1.77-.35,0-3.02.82-3.59.95-1.03.27-5.85,1.22-6.5,1.66-.33.22-.38.27-.49.27-.27,0-.52-.05-1.03-1.22-.11-.27-.84-1.47-.84-1.63,0-.05.03-.11.14-.11.08,0,.3.08.35.11.35.08,1.33.16,1.79.16,1.44,0,1.5-.24,1.74-1.2.35-1.28,2.07-7.97,2.07-8.73,0-.57-.41-.57-.71-.6h-1.25ZM179.7,58.87c.46,0,.73,0,.9-.11.14-.08,1.6-1.74,1.82-1.74.38,0,2.31,1.74,2.31,2.15s-.49.41-1.47.41h-6.72c-2.37,0-3.15.05-3.43.08-.08,0-.49.08-.57.08-.11,0-.16-.08-.24-.19l-.52-.63c-.05-.08-.14-.14-.14-.16,0-.05.05-.08.11-.08.19,0,1.03.08,1.2.11,1.33.05,2.45.08,3.73.08h3.02Z"/>
      <path class="cls-1" d="M174.89,91.09c.38-.14.79-.19,1.14-.19,1.09,0,1.93.68,1.93,1.5,0,.98-1.03,1.93-3.15,3.89-.3.3-2.01,1.88-2.01,2.09,0,.11.14.16.27.16.05,0,.52-.05.6-.05,1.01,0,1.99.9,1.99,1.98,0,.27-.16,1.5-.16,1.77s.05,1.52,1.58,1.52c.76,0,4.11-.73,4.79-.73.73,0,1.44.41,1.44,1.03,0,1.47-2.26,1.71-5.19,1.71-3.24,0-3.7-1.71-3.72-3.59-.05-2.2-.05-2.45-.87-2.45-.54,0-2.34.49-3.83,3.26-.76,1.39-1.2,2.2-2.12,2.2-.68,0-.98-.63-.98-.98,0-.73,0-1.03,4.46-5.9,2.34-2.58,4.46-4.89,4.46-5.68,0-.3-.16-.46-.46-.46-.38,0-1.14.57-1.52.9-.63.52-1.41,1.06-2.2,1.06-1.58,0-2.34-1.96-2.34-2.23,0-.11.05-.22.19-.22.08,0,.71.19.76.19.38.11.76.22,1.33.22.92,0,1.2-.08,3.64-1.01ZM172.06,84.73c.41.11,2.31.46,2.67.54.9.24,1.71.87,1.71,1.6,0,.22-.16.76-.76.76-1.9,0-1.96,0-2.61.24-.19.05-.95.49-1.11.49-.05,0-.11-.05-.11-.14,0-.19,1.22-1.41,1.22-1.74,0-.16-.43-.44-1.01-.84-.84-.57-.92-.9-.92-1.03,0-.08.05-.14.11-.14.08,0,.68.22.82.24Z"/>
      <path class="cls-1" d="M172.58,115.86c0-.98.79-1.79,1.79-1.79s1.79.79,1.79,1.79-.84,1.79-1.79,1.79-1.79-.79-1.79-1.79Z"/>
      <path class="cls-1" d="M165.54,142.4c0,.68.24,1.9.38,2.39.35,1.2.41,1.36.41,1.79,0,.35-.08,1.33-1.25,1.33-1.3,0-1.3-1.2-1.3-1.55,0-.46.16-2.42.16-2.83,0-.44-.05-1.74-.76-2.37-.14-.11-.73-.54-.73-.6,0-.08.11-.11.16-.11.14,0,.71.08.84.08,1.11,0,1.47-.71,4.7-6.85.3-.54,1.25-2.23,1.36-2.39.08-.14.19-.27.33-.27.05,0,.11.03.11.08,0,.41-4.11,9.87-4.16,10.01-.22.65-.24,1.01-.24,1.28ZM162.87,128.07c.27,0,4.68,1.39,4.68,4.05,0,.84-.52,1.47-1.01,1.47-.54,0-.68-.24-1.47-2.2-.3-.71-1.41-2.26-2.31-3.07-.08-.08-.03-.24.11-.24ZM181.69,132.28c.57,0,.76-.05,1.03-.46.57-.84.65-.84.82-.84.11,0,1.17.71,1.5.95.84.57,1.14.76,1.14,1.14,0,.35-.38.44-.62.44-.9.05-.92.05-1.31.24-.82.38-3.92,3.7-4.3,3.7-.11,0-.14-.11-.14-.16,0-.16.11-.35.19-.44.41-.54,1.93-3.26,1.93-3.51,0-.3-.35-.33-.6-.33h-3.51c-.65,0-.76.38-.76.71,0,1.14.76,4.24,1.17,5.49,2.15,6.61,6.58,8.59,8.02,9.08.11.03.71.24.71.3,0,.08-.22.16-.6.16-.6,0-1.63.27-2.34.54-.14.05-.76.38-.92.38-.11,0-.3-.19-.41-.27-4.68-4.32-5.47-8.51-5.9-12.89-.19-1.74-.16-1.77-.3-1.77-.08,0-.08.19-.08.27,0,2.23-.95,6.74-2.17,9.08-2.69,5.17-8.32,6.36-8.32,6.06,0-.03,1.47-.82,1.74-.98,6.2-3.78,7.02-11.53,7.02-15.34,0-.54-.16-.84-.84-.84h-1.09c-.16,0-.41,0-.84.6-3.21,4.38-3.78,4.38-3.81,4.38-.05,0-.08-.05-.08-.11,0-.22,1.17-1.98,1.39-2.37,2.75-4.73,3.45-8.95,3.45-9.65,0-.14,0-.27.11-.27.16,0,.46.08,2.47.68.54.16.73.24.73.54,0,.16-.08.3-.16.38-.11.11-.79.57-.92.71-.35.35-1.41,2.69-1.69,3.21-.16.33-.46.9-.46.98,0,.19.19.19.3.19h8.46Z"/>
      <path class="cls-1" d="M162.19,162.9c-.11-.11-.11-.14-.11-.16,0-.05.03-.08.08-.08.19,0,.98.08,1.14.11.73.03,2.18.08,2.8.08.92,0,.95-.33.95-1.03,0-.46-.08-3.37-.14-4.19-.03-.54-.16-1.98-.16-2.23,0-.33.08-.41.27-.41.14,0,2.58.71,2.58,1.12,0,.14-.49.54-.54.65-.14.33-.14,3.89-.14,4.65,0,1.14,0,1.44.79,1.44h2.8c.84,0,.9-.41.9-1.36,0-1.14,0-3.81-.08-4.81-.03-.27-.22-1.52-.22-1.77,0-.16.08-.33.3-.33.08,0,2.53.52,2.53,1.09,0,.11-.05.16-.46.57-.16.16-.19.46-.22.79-.05.38-.05,1.36-.05,2.94,0,1.03,0,2.53.19,2.72.16.16.52.16.68.16h2.15c.22,0,.62,0,.76-.35.11-.24.11-2.23.11-2.69,0-.98,0-2.91-.14-3.78-.03-.14-.14-.63-.14-.73,0-.22.16-.33.33-.33.08,0,1.96.6,2.2.68.16.05.3.22.3.44,0,.16-.44.68-.49.82-.14.27-.19.54-.19,1.74v3.59c0,.63.35.63.92.63.33,0,.79,0,1.28-.79.49-.76.68-.95.92-.95.41,0,2.58,1.77,2.58,2.09,0,.38-.54.38-1.44.38h-3.43c-.73,0-.87.27-.87.95v3.56c0,.68.11,3.67.11,4.3,0,.52-.05.73-.52,1.01-.19.11-.57.27-.98.27-.43,0-.57-.19-.57-.68,0-.76,0-1.14-.87-1.14h-2.04c-.73,0-.76.22-.79.95-.03.71-1.12,1.14-1.58,1.14s-.54-.25-.54-.65c0-.46.11-2.53.11-2.94,0-.54.08-5.44.08-5.74,0-.82-.14-1.03-.84-1.03h-2.8c-.82,0-.82.19-.82,1.9,0,1.85.05,9.98.22,10.66.11.38.33.44.76.44h10.96c1.06,0,1.36,0,1.85-.79s.68-.95.92-.95c.41,0,2.58,1.77,2.58,2.09,0,.35-.54.38-1.44.38h-14.87c-.71,0-.76.27-.82.73-.08.63-.84.9-1.39.9-.49,0-.76-.08-.76-.79,0-.33.11-1.82.11-2.15.05-1.82.08-8.73.08-9.57,0-.41,0-2.15-.05-2.39-.14-.46-.54-.46-.95-.46-1.14,0-2.26.05-2.58.05-.08.03-.49.08-.57.08s-.14-.05-.25-.19l-.52-.62ZM178.12,171.14c.33,0,.73,0,.84-.49.08-.38.08-3.78.08-4.43,0-2.61,0-2.64-.9-2.64h-2.01c-.25,0-.63,0-.79.33-.11.27-.11,2.91-.11,3.43,0,.54,0,3.18.11,3.45.14.35.54.35.79.35h1.98Z"/>
      <path class="cls-1" d="M162.54,197.16c-.16,0-.19-.14-.19-.22,0-.11.03-.16.33-.65,2.61-4.19,5.57-10.88,5.76-12.4.05-.54.11-.82.33-.82.14,0,2.58,1.2,2.58,1.6,0,.16-.14.25-.38.38-.38.22-.54.44-.76.87-.71,1.36-1.44,2.69-2.23,4.02-.25.38-.65,1.09-.65,1.2,0,.14.16.24.25.3.38.22.43.24.43.38s-.3.68-.33.82c-.05.27-.11.68-.11,2.12,0,1.69.14,10.03.14,11.91,0,1.01-1.06,1.2-1.28,1.2-.87,0-.87-.87-.87-1.41,0-.41.16-2.53.16-2.99.11-3.24.14-6.2.14-9.44,0-.11-.03-.44-.16-.46-.25-.05-2.56,3.59-3.15,3.59ZM181.31,190.85c1.25-.11,1.39-.11,1.71-.54.73-.92.82-1.03,1.09-1.03.16,0,2.58,1.36,2.58,1.71,0,.33-.14.35-1.44.44l-7.48.46c-.46.03-.71.05-.71.62,0,.98.65,4,1.01,5.14,1.47,4.98,3.62,6.63,4.59,7.1.25.14.6.24.71.24.57,0,1.22-1.14,1.71-2.07.08-.14.33-.63.44-.63.08,0,.14.08.14.19,0,.08-.38,2.23-.38,2.64,0,.35.05.68.38,1.28.25.46.27.65.27.76,0,.57-.71.71-1.11.71-3.45,0-8.18-4.43-9.46-14.79-.05-.54-.14-1.01-.84-.92l-.98.11c-.41.05-2.26.19-2.64.24-.22.03-1.22.19-1.36.19-.11,0-.14-.05-.25-.16l-.54-.63c-.11-.11-.14-.14-.14-.16,0-.05.05-.08.11-.08.08,0,.98.05,1.17.05.57,0,3.32-.16,3.48-.16h.27l.82-.11c.6-.08.68-.08.68-.49,0-.03-.49-5.82-.63-6.63-.03-.16-.3-.92-.3-1.09,0-.11.14-.11.22-.11.05,0,2.85.33,2.85,1.01,0,.16-.49.79-.57.9-.11.19-.11.33-.11.57,0,.46.19,5.14.38,5.38.14.22.49.19.68.19l3.64-.33ZM181.63,185.58c1.09.54,1.41,1.5,1.41,1.93,0,.63-.46,1.09-.95,1.09-.65,0-.9-.44-1.58-1.55-.19-.33-.63-1.01-1.09-1.33-.14-.11-.33-.25-.33-.35,0-.19.24-.22.79-.22.35,0,1.28.19,1.74.44Z"/>
      <path class="cls-1" d="M167.85,225.33c.46,0,.71-.44,1.31-2.12.16-.46.24-.68.38-.68s.14.27.14.33c0,.3-.63,3.48-.63,4.13,0,.46.38,1.28.44,1.41.19.38.33.84.33,1.2,0,.54-.43.92-.9.92-1.69,0-2.94-4.62-2.94-7.23,0-1.74.22-2.53,1.14-5.93.46-1.66.46-2.34.46-2.83,0-.87-.16-1.6-.27-1.93-.03-.08-.16-.41-.16-.49s.11-.14.22-.14c1.25,0,2.39,2.47,2.39,3.45,0,.3,0,.33-.52,1.25-.3.57-2.09,4.57-2.09,7.02,0,.82.27,1.63.71,1.63ZM183.64,228.05c0,1.06-.82,1.39-4.62,1.39-2.67,0-3.67-.68-4.24-1.22-.14-.14-.84-.84-.84-1.36,0-.05,0-.27.14-.27.11,0,.54.33.65.38.79.41,1.9.46,2.91.46.71,0,1.69,0,2.37-.08.38-.03,2.28-.22,2.39-.22,1.03,0,1.25.6,1.25.92ZM182.37,214.81c0,1.33-3.02,1.33-3.34,1.33-3.07,0-4.76-1.66-4.76-2.01,0-.05.03-.14.19-.14.08,0,.41.11.76.19.62.14,1.36.16,1.85.16,1.33,0,2.61-.27,2.99-.41.82-.3.9-.33,1.17-.3.49.08,1.14.54,1.14,1.17Z"/>
      <path class="cls-1" d="M161.97,258.61s.84-.35.92-.38c3.67-1.33,5.63-3.02,5.85-3.45.22-.41.22-.46.38-.46.11,0,.84.46,1.03.6.79.49,1.12.71,1.12,1.03,0,.3-.05.3-1.12.44-1.5.6-3.48,1.33-4.49,1.69-1.17.41-2.64.65-3.1.65-.11,0-.6,0-.6-.11ZM166.95,245.78c-.73,0-2.56,0-3.51.05-.08.03-.49.08-.57.08-.11,0-.14-.08-.25-.19l-.52-.63c-.11-.11-.11-.14-.11-.16,0-.05.03-.08.08-.08.19,0,1.03.11,1.2.11,1.3.05,2.45.08,3.81.08h.43c.54,0,.54-.11.54-1.03,0-.49-.3-.49-.52-.49h-1.22c-.46,0-.49.05-.71.35-.05.05-.38.44-.87.44s-.71-.33-.71-.87c0-.33.11-1.63.11-1.9,0-.35,0-1.47-.16-2.15-.03-.08-.14-.57-.14-.65,0-.19.11-.27.44-.27.22,0,1.17.49,1.36.54.33.08.62.08.87.08h.9c.3,0,.65,0,.65-.52,0-.84-.08-.95-.62-.95h-.82c-.82,0-1.82,0-2.61.05-.08.03-.49.08-.57.08-.11,0-.16-.08-.25-.19l-.52-.63c-.05-.03-.11-.14-.11-.16,0-.05.03-.08.08-.08.14,0,1.31.11,1.55.14.54.03,2.28.05,2.61.05h.54c.25,0,.54,0,.54-.41,0-.16-.16-.87-.22-1.11-.03-.08-.19-.35-.19-.44,0-.19.19-.19.3-.19.08,0,2.28.3,2.28.73,0,.08-.33.35-.41.41-.14.11-.16.27-.16.41,0,.6.27.6.65.6h1.01c.49,0,.84,0,1.14-.44.54-.73.6-.82.82-.82.33,0,1.9,1.03,1.9,1.55,0,.44-.52.44-1.11.44h-3.78c-.62,0-.62.14-.62,1.01,0,.46.41.46.62.46h.49c.27,0,.65,0,1.01-.38.35-.35.41-.41.62-.41.03,0,1.69.63,1.69,1.06,0,.24-.16.35-.46.54-.11.08-.16.16-.16.41.03.71.11,2.39.11,2.72,0,.54-.33.98-1.03.98-.38,0-.49-.11-.65-.33-.16-.16-.33-.16-.57-.16h-1.03c-.24,0-.57,0-.57.54,0,.82,0,.98.65.98h2.09c.79,0,.95,0,1.2-.16.16-.14.84-.84,1.01-.84.38,0,1.22,1.06,1.22,1.33,0,.41-.52.41-1.44.41h-4.05c-.3,0-.65,0-.65.52,0,.16.08.92.08,1.09,0,.73-.49,1.31-1.17,1.31-.41,0-.54-.35-.54-.87,0-.22.08-1.14.08-1.33,0-.65-.08-.71-.57-.71h-.52ZM181.99,252.41c.49-.03.68-.05.68-.3,0-.33-1.09-1.79-1.17-1.88-.05-.05-.35-.33-.35-.44,0-.03.05-.05.11-.05.95,0,4.19,2.31,4.19,4.05,0,.63-.43,1.06-1.03,1.06-.65,0-.73-.33-.98-1.14-.14-.49-.44-.65-.98-.65-.68,0-5.55.35-6.47.41-.63.05-1.06.08-1.06.79,0,.38.11,2.5.14,2.85,0,.16.11.9.11,1.06,0,.73-.71,1.09-1.36,1.09-.49,0-.79-.24-.79-1.01,0-.46.05-2.77.05-3.29,0-.79,0-1.22-.68-1.22-.11,0-.43.03-.54.03-1.11.05-4,.22-6.2.41-.41.03-.92.16-1.06.3-.27.24-.43.41-.71.41s-.35-.25-.46-.63c-.25-.76-.57-1.9-.57-2.15,0-.11.05-.16.16-.16.14,0,.73.3.9.33.35.08,2.04.27,4.81.27,1.25,0,1.39,0,1.39-.24,0-.6-3.32-2.56-3.32-2.64,0-.05,0-.14.14-.14.11,0,1.09.14,1.39.19.19.05,1.22.33,1.47.33.68,0,1.36-1.77,1.47-2.45.14-.73.16-.82.33-.82.14,0,2.12,1.01,2.12,1.5,0,.3-.14.35-.54.49-.46.14-1.99,1.47-1.99,1.77,0,.11.35.6.38.65.22.35.22.44.22.95,0,.41.33.41,1.03.41.65,0,1.03-.08,1.6-.6,1.14-1.06,2.8-2.94,3.04-3.73.14-.44.14-.52.35-.52.11,0,1.5.73,1.71.84.71.41.79.44.79.68s-.19.33-.33.38c-.11.03-.65.14-.79.16-.9.25-3.86,2.28-3.86,2.53,0,.08.08.14.14.16.08.05,5.19,0,6.53-.05ZM167.52,240.91c.49,0,.57-.08.57-.54s-.08-.54-.57-.54h-1.36c-.46,0-.54.05-.54.54,0,.46.08.54.54.54h1.36ZM167.52,242.81c.54,0,.54-.14.54-.76,0-.44-.27-.44-.54-.44h-1.36c-.54,0-.54.14-.54.79,0,.41.3.41.54.41h1.36ZM169.97,239.82c-.43,0-.46.14-.46.54,0,.38,0,.54.46.54h1.41c.46,0,.49-.16.49-.54s-.03-.54-.49-.54h-1.41ZM171.35,242.81c.3,0,.49,0,.49-.79,0-.38-.19-.41-.46-.41h-1.39c-.49,0-.49.16-.49.73,0,.46.24.46.49.46h1.36ZM181.22,241.78c.65,0,.84-.11,1.36-.63.22-.22.38-.33.54-.33.24,0,1.96.87,1.96,1.22,0,.19-.08.24-.76.49-.3.11-1.77,1.63-2.09,1.93q-.71.6-.71.76c0,.49,3.18,1.55,4.05,1.77.16.05,1.14.24,1.14.35s-.03.11-.44.16c-.68.11-1.41.71-1.66.98s-.27.33-.41.33c-.22,0-.71-.3-2.69-1.5-.22-.14-1.28-.95-1.58-.95-.14,0-2.45,1.06-2.94,1.25-1.22.46-2.2.73-2.47.73-.03,0-.14,0-.14-.11,0-.08.76-.46,1.01-.57.62-.3,3.51-1.85,3.51-2.37,0-.14-.82-1.12-.95-1.28-.27-.33-.71-.98-.84-1.14-.16-.27-.24-.27-.9-.27-.16,0-.24-.05-.33-.16l-.52-.62c-.08-.08-.14-.14-.14-.19s.05-.05.11-.05c.11,0,1.17.11,1.39.11.44.03,1.93.08,2.37.08h2.12ZM179.43,235.83c.33,0,.73-.05,1.01-.38.14-.16.35-.46.49-.46s1.79.73,1.79,1.2c0,.22-.03.24-.38.54-.22.19-.22.33-.22,1.36,0,.49,0,.68.79.68s.84-.33,1.01-1.22c.11-.73.14-.82.22-.82.05,0,.11.38.16.76.03.27.19.82.41.98.52.44.68.57.68.9,0,.71-.46.95-2.31.95-2.69,0-2.69-.38-2.69-2.8,0-.68-.05-.95-.84-.95h-.82c-.44,0-.73.03-.79.63-.11,1.09-.22,2.09-.95,3.07-.54.73-1.66,1.31-2.31,1.31-.03,0-.08,0-.08-.08,0-.05.35-.41.43-.49.46-.49,1.31-1.39,1.31-3.34,0-.38-.33-2.2-.33-2.34,0-.19.19-.25.33-.25.19,0,.9.38,1.14.52.46.25.9.25,1.22.25h.73ZM184.38,258.91c-.35,0-.46-.08-1.3-.71-.95-.71-2.04-1.52-5.9-3.34-.41-.19-.46-.22-.46-.3s.05-.11.14-.11c.3,0,2.31.46,2.75.57,4.05.92,5.6,1.6,5.6,2.8,0,.19,0,1.09-.82,1.09ZM178.4,242.52c-.46,0-.52.03-.52.22,0,.33,1.63,1.79,2.12,1.79.54,0,1.6-1.63,1.6-1.79,0-.22-.19-.22-.41-.22h-2.8Z"/>
      <path class="cls-1" d="M168.47,267.94c0,.49-.87,2.47-1.01,2.88-.54,1.74-.87,3.64-.87,5.08,0,1.22.3,2.77.62,2.77.57,0,1.96-4.87,2.42-4.87.08,0,.11.11.11.19,0,.22-.54,2.58-.65,3.07-.11.52-.52,2.5-.52,3.56,0,.24,0,.57.33,1.22.05.11.33.71.33,1.09,0,.44-.35.84-.92.84-1.03,0-1.74-1.55-2.2-3.05-.71-2.18-.73-3.73-.73-4.57,0-1.01.03-2.07.68-6.15.27-1.71.33-2.28.33-2.91,0-.73-.11-1.39-.27-1.88-.16-.41-.16-.46-.16-.54,0-.14.05-.22.22-.22.73,0,2.31,1.82,2.31,3.45ZM180.08,271.28c0,6.36,0,7.07-.87,9.14-1.3,3.1-4.24,4.65-4.6,4.65-.08,0-.14-.03-.14-.08,0-.08,1.28-1.55,1.5-1.85,2.31-3.1,2.37-5.76,2.37-9.41,0-.27,0-1.33-.05-2.04-.03-.6-.22-.6-.46-.6-.3,0-1.69.14-1.96.14-2.34,0-3.64-1.22-3.64-1.82,0-.05.03-.11.11-.11s.6.14.71.16c.35.08.92.14,1.5.14.76,0,2.31-.11,2.96-.41.49-.22.54-.35.54-1.14s-.25-2.83-.52-3.34c-.05-.11-.41-.49-.41-.57,0-.22.41-.33.79-.33.68,0,2.28.65,2.28,1.25,0,.14-.27.71-.3.84-.14.41-.14.95-.14,1.52s0,.92.27.92c.3,0,.63-.27.71-.44.25-.38.3-.41.54-.41.14,0,1.47.14,1.47.84,0,.84-1.01,1.41-1.5,1.69-.82.41-1.01.49-1.09.65-.08.14-.08.54-.08.6ZM184.62,266.31c0,.3-.3.98-.82.98-.38,0-.63-.27-1.28-1.25-.41-.62-.68-.87-1.66-1.74-.08-.08-.33-.3-.33-.41,0-.14.3-.19.46-.19,1.55,0,3.62,1.28,3.62,2.61ZM187.21,264.43c0,.33-.22.79-.65.79-.54,0-.87-.44-1.33-1.03-.35-.46-1.33-1.17-2.18-1.52-.27-.11-.33-.22-.33-.3,0-.14.27-.27.98-.27,1.39,0,3.51.84,3.51,2.34Z"/>
      <path class="cls-1" d="M179.95,302.94c0-2.23-1.88-4.13-4.6-4.13-3.59,0-5.9,3.73-6.39,4.57-.54.92-.82,1.44-1.55,1.44-.65,0-.79-.54-.79-.76,0-.68.22-1.28,2.15-3.53,1.77-2.07,2.04-2.42,6.15-8.18.9-1.28,1.28-1.85,1.28-2.15,0-.19-.19-.38-.52-.38-1.01,0-2.61,1.36-3.07,1.74-1.09.9-1.47.98-1.93.98-1.28,0-2.12-1.74-2.12-1.88,0-.08.08-.08.65-.08,1.44,0,3.45-.65,4.21-.98,1.69-.73,1.88-.82,2.47-.82,1.09,0,2.86.68,2.86,1.88,0,.79-.63,1.22-1.93,2.12-1.96,1.39-4.35,5.11-4.35,5.57,0,.08.08.19.16.19.16-.05.52-.19.68-.24.87-.33,1.63-.44,2.39-.44,3.48,0,6.12,2.58,6.12,5.66,0,3.45-3.34,5.87-6.8,5.87-2.69,0-4.62-1.44-4.62-2.8,0-.98,1.14-2.2,2.69-2.2,1.28,0,2.34.76,3.1,1.74.38.49.54.73.92.73.92,0,2.83-1.66,2.83-3.92ZM172.96,305.38c-.65,0-1.14.52-1.14.95,0,.71,1.17,1.28,2.34,1.28.27,0,.46-.19.46-.49,0-.65-.65-1.74-1.66-1.74Z"/>
      <path class="cls-1" d="M162.68,320.26c.84,0,3.32.9,3.32,2.5,0,.68-.52,1.06-.9,1.06-.27,0-.52-.19-.79-.73-.63-1.25-1.33-2.04-2.07-2.67,0-.05.22-.16.43-.16ZM162.79,331.1c.82,0,1.28-.3,1.69-1.06,1.25-2.34,1.58-3.32,3.26-8.46.05-.16.27-.76.38-.76.08,0,.19.11.19.27,0,.08-.35,2.15-.41,2.34-.25,1.2-1.71,6.47-1.71,7.56,0,.9.11,1.22.9,4.27.03.14.24.95.24,1.39,0,.9-.65,1.28-1.11,1.28-1.36,0-1.39-1.63-1.39-2.34-.05-2.58-.38-3.32-1.66-3.94-.14-.08-.87-.22-.87-.35,0-.16.33-.19.49-.19ZM165.26,314.11c.35,0,3.67.73,3.67,2.64,0,.68-.52,1.09-.98,1.09-.25,0-.52-.08-.9-.71-.52-.9-.65-1.09-1.9-2.58-.03-.03-.11-.14-.11-.19,0-.08.03-.24.22-.24ZM176.36,327.76c.82,0,.82-.49.82-.82,0-.52,0-3.75-.03-3.83-.05-.33-.27-.54-.79-.54h-1.85c-2.39,0-3.18.05-3.45.08-.08,0-.49.05-.57.05s-.14-.05-.24-.16l-.52-.63q-.11-.14-.11-.19s.03-.05.08-.05c.19,0,1.03.08,1.2.08,1.33.08,2.45.11,3.72.11h1.69c.33,0,.87,0,.87-.73v-3.05c0-.35-.14-.76-.68-.76-.38,0-2.04.24-2.39.27-1.14.11-1.9.14-2.69.14-.38,0-.68-.11-.68-.19,0-.11,1.09-.3,1.3-.35,5.28-1.01,7.5-2.07,8.54-2.56.22-.11,1.25-.82,1.31-.82.08,0,2.64,1.69,2.64,2.01,0,.24-.25.3-.73.3-.73,0-3.13.46-4,.63-.52.08-.82.22-.82.84,0,.52.03,3.75.11,3.94.16.33.57.33.68.33h2.15c1.25,0,1.39,0,1.74-.46.68-.9.76-1.01,1.01-1.01.27,0,2.12,1.58,2.12,1.79,0,.38-.54.38-1.44.38h-5.52c-.44,0-.84.08-.84.82,0,.41,0,3.73.03,3.86.08.44.49.52.82.52h1.69c.35,0,.52-.03.98-.49.54-.54.57-.6.71-.6.3,0,2.04,1.52,2.04,1.9,0,.14-.08.22-.46.6-.35.35-.35.73-.35,1.03,0,.98.14,6.15.14,6.2,0,1.39-1.17,1.47-1.5,1.47-.68,0-.76-.33-.87-.9-.05-.22-.16-.49-.73-.49h-6.96c-.71,0-.73.05-.92.76-.19.71-.82.84-1.36.84-.46,0-.82-.08-.82-.6,0-.14.08-1.6.08-1.9.03-1.06.16-5.17.16-5.93,0-.44,0-1.33-.05-1.82-.03-.14-.08-.52-.08-.63,0-.08,0-.27.14-.27s.24.05,1.2.52c.62.3.9.3,1.55.3h1.98ZM181.47,335.75c.46,0,.82-.16.82-.76,0-.9.03-4.84.03-5.66,0-.35,0-.87-.82-.87h-7.15c-.46,0-.82.16-.82.76v5.63c0,.46.05.9.82.9h7.12Z"/>
      <path class="cls-1" d="M170.73,349.02c-.76,0-.76.52-.76,1.14,0,1.39,0,1.6.84,1.6h1.88c.22,0,.6,0,.87-.27.22-.22.41-.41.68-.41.38,0,1.85.9,1.85,1.25,0,.16-.49.65-.57.76-.16.24-.16.6-.16,1.44,0,.6.05,3.24.05,3.75,0,1.01-1.25,1.12-1.36,1.12-.38,0-.38-.08-.49-.63-.05-.22-.3-.22-.44-.22h-2.31c-.84,0-.84.49-.84,1.03,0,1.39,0,1.63.87,1.63h.73c1.06,0,1.17,0,1.63-.46.6-.6.65-.68.87-.68.65,0,1.79,1.39,1.79,1.52,0,.35-.14.35-1.44.35h-3.48c-.63,0-.95.03-.95.9,0,1.06,0,1.17.35,1.17.16,0,4.54-.73,4.89-.73.05,0,.22,0,.22.16s-1.06.49-1.41.6c-2.77.87-5.06,1.39-8.48,2.2-.22.05-1.33.3-1.69.54-.11.05-.49.44-.6.44-.35,0-1.25-2.18-1.25-2.18,0-.11.14-.14.22-.14,1.47,0,3.26-.24,4.79-.46.11-.03,1.12-.16,1.14-.19.19-.08.19-.27.19-.49,0-.41,0-1.2-.03-1.33-.08-.49-.46-.49-1.12-.49-2.37,0-3.37.08-3.54.08-.11,0-.52.05-.57.05-.08,0-.14-.03-.25-.16l-.54-.62q-.11-.14-.11-.19c0-.05.05-.05.11-.05.11,0,.95.08,1.14.08,1.17.05,2.88.08,4.02.08.9,0,.9-.22.9-1.69,0-.49,0-.98-.79-.98h-1.93c-.46,0-.52.05-.54.46-.03.52-.57.82-1.03.82-.79,0-.79-.54-.79-.82,0-1.96,0-5.11-.03-5.87-.03-.3-.16-1.6-.16-1.88,0-.11.05-.22.24-.22.16,0,.9.3,1.36.49.38.16.6.22,1.17.22h1.69c.82,0,.82-.35.82-1.33,0-1.06,0-1.41-.82-1.41h-.87c-2.23,0-3.1.08-3.18.08s-.49.05-.57.05c-.11,0-.16-.05-.25-.16l-.52-.63c-.11-.14-.14-.14-.14-.19,0-.03.05-.05.11-.05.19,0,1.03.08,1.2.08.25,0,2.18.11,3.45.11h.71c.84,0,.84-.41.84-1.11,0-1.63,0-1.82-.33-1.82-.03,0-.71.11-.79.11-.68.08-2.64.24-3.24.24-.22,0-.35-.05-.35-.14,0-.11.11-.14.73-.3,4.43-1.17,6.01-1.71,7.37-2.53.46-.27.52-.3.62-.3.27,0,2.09,1.39,2.09,1.6,0,.14-.05.14-.6.24s-2.94.57-3.43.65c-.43.08-.46.27-.46.65,0,2.01,0,2.23.05,2.42.08.22.35.27.57.27,1.52,0,1.69,0,2.07-.46.57-.71.73-.9,1.09-.9.44,0,1.99,1.5,1.99,1.74,0,.33-.16.33-1.47.33h-3.56ZM167.55,354.84c.84,0,.84-.38.84-1.28,0-.63,0-1.09-.84-1.09h-1.66c-.84,0-.84.41-.84,1.31,0,.63,0,1.06.84,1.06h1.66ZM167.55,357.86c.84,0,.84-.35.84-1.17,0-.76,0-1.11-.84-1.11h-1.63c-.82,0-.84.38-.84.98,0,1.03.08,1.31.87,1.31h1.6ZM170.78,352.48c-.82,0-.82.44-.82,1.22,0,.71,0,1.14.82,1.14h2.01c.84,0,.84-.41.84-1.2,0-.73,0-1.17-.84-1.17h-2.01ZM170.78,355.58c-.82,0-.82.41-.82,1.11,0,.76,0,1.17.82,1.17h1.99c.84,0,.84-.44.84-1.11,0-.76,0-1.17-.84-1.17h-1.99ZM181.28,348.89c-.76,0-.79.33-.82,1.36-.25,9.08-1.12,12.05-4.3,15.06-1.52,1.44-2.77,2.01-2.88,2.01s-.16-.05-.16-.11c0-.16.62-.63.73-.73,3.67-3.67,4.87-6.74,4.87-16.97,0-.41-.05-.6-.52-.6-.25,0-1.22.11-1.44.11-.11,0-.16-.05-.24-.16l-.52-.63c-.11-.11-.11-.14-.11-.19,0-.03.03-.05.08-.05.35,0,1.96.14,2.28.14s.46-.11.46-.46c0-1.71-.11-2.86-.16-3.54-.03-.22-.22-1.14-.22-1.36,0-.14.03-.38.22-.38.38,0,2.66.46,2.66.79,0,.11-.43.44-.49.52-.22.3-.22,2.75-.22,3.24,0,1.14,0,1.25.76,1.25h.9c.3,0,.6,0,.95-.35.54-.6.62-.68.79-.68.25,0,2.07,1.12,2.07,1.55,0,.19-.03.27-.54.68-.35.3-.38.52-.38.95,0,8.35-.03,12.34-.57,14.36-.68,2.42-2.39,2.5-2.72,2.5-.46,0-.52-.16-.79-.92-.22-.6-.76-.98-1.6-1.39-.6-.27-.68-.3-.68-.46,0-.11.11-.11.16-.11.08,0,2.45.46,2.91.46,1.06,0,1.31-2.07,1.44-3.43.14-1.6.14-8.86.14-10.96,0-1.2,0-1.5-.82-1.5h-1.25Z"/>
      <path class="cls-1" d="M170.76,384.43c.82-.76,1.17-1.11,1.17-1.47,0-.08-.19-.71-.25-.84-.33-1.03-.46-1.66-.46-3.18,0-.63.14-3.78.14-4.49,0-1.36-.38-1.77-.82-2.2-.57-.6-.65-.68-.65-.76,0-.11.65-.14.73-.14,1.55,0,2.94,1.25,2.94,2.04,0,.24-.33,1.47-.38,1.74-.11.76-.25,2.01-.25,3.59,0,1.03,0,3.24.71,3.24.38,0,.54-.11,2.01-1.03.3-.19,2.01-1.28,2.8-1.28.63,0,1.03.54,1.03,1.01,0,.82-1.11,1.25-2.09,1.63-6.47,2.61-7.4,4.6-7.4,6.36s1.58,2.53,3.78,2.53c1.36,0,2.45-.27,3.26-.49,1.22-.33,1.52-.41,2.04-.41.92,0,1.79.63,1.79,1.31,0,1.39-5.55,1.52-6.99,1.52-1.25,0-5.19,0-5.19-4.27,0-.76.22-2.64,2.07-4.41Z"/>
      <path class="cls-1" d="M172.2,400.5c0,.27-.46,1.31-.52,1.52-.38,1.39-1.14,7.4-1.14,9.68,0,2.75.52,5.19,4.16,5.19,1.33,0,3.29-.27,5.71-1.41.41-.19,2.47-1.33,2.58-1.33s.14.08.14.14c0,.3-4.02,4.68-9.14,4.68-3.54,0-5.22-2.04-5.22-7.5,0-1.69.05-2.23.62-7.56.11-.9.35-3.13.35-3.89,0-.49-.08-.95-.24-1.33-.03-.08-.3-.71-.3-.73,0-.19.22-.27.38-.27,1.41,0,2.61,2.2,2.61,2.83Z"/>
      <path class="cls-1" d="M165.75,427.44c1.17,0,1.58-.11,5.3-1.17,2.42-.68,8.62-2.45,10.44-2.45.95,0,2.17.38,2.17,1.31,0,.71-.71,1.01-1.09,1.01-.35,0-1.9-.3-2.23-.3-3.45,0-7.31,3.18-7.31,10.2,0,4.57,1.71,4.87,3.32,4.87.41,0,2.37-.16,2.58-.16.84,0,1.36.35,1.36,1.01,0,1.44-2.99,1.44-3.15,1.44-5.57,0-5.57-4.54-5.57-5.82,0-1.2.03-6.96,3.97-10.47.11-.08.65-.52.65-.57s-.11-.05-.16-.05c-1.55,0-7.21,2.42-8.08,2.91-.38.22-.65.35-.95.35-1.36,0-2.64-1.82-2.31-2.2.11-.14.92.11,1.06.11Z"/>
      <path class="cls-1" d="M185.19,453.22c-.54,0-.65-.19-1.55-1.82-.54-.95-1.25-1.9-2.86-2.91-.08-.05-.38-.22-.38-.33,0-.08.08-.19.3-.19.95,0,5.57,1.41,5.57,3.97,0,.65-.54,1.28-1.09,1.28Z"/>
      <path class="cls-1" d="M108.63,15.28c-.16,0-.19-.14-.19-.22,0-.11.03-.16.33-.65,2.61-4.19,5.57-10.88,5.76-12.4.05-.54.11-.82.33-.82.14,0,2.58,1.2,2.58,1.6,0,.16-.14.25-.38.38-.38.22-.54.44-.76.87-.71,1.36-1.44,2.69-2.23,4.02-.25.38-.65,1.09-.65,1.2,0,.14.16.24.25.3.38.22.43.24.43.38s-.3.68-.33.82c-.05.27-.11.68-.11,2.12,0,1.69.14,10.03.14,11.91,0,1.01-1.06,1.2-1.28,1.2-.87,0-.87-.87-.87-1.41,0-.41.16-2.53.16-2.99.11-3.24.14-6.2.14-9.44,0-.11-.03-.44-.16-.46-.25-.05-2.56,3.59-3.15,3.59ZM127.39,8.97c1.25-.11,1.39-.11,1.71-.54.73-.92.82-1.03,1.09-1.03.16,0,2.58,1.36,2.58,1.71,0,.33-.14.35-1.44.44l-7.48.46c-.46.03-.71.05-.71.62,0,.98.65,4,1.01,5.14,1.47,4.98,3.62,6.63,4.59,7.1.25.14.6.24.71.24.57,0,1.22-1.14,1.71-2.07.08-.14.33-.63.44-.63.08,0,.14.08.14.19,0,.08-.38,2.23-.38,2.64,0,.35.05.68.38,1.28.25.46.27.65.27.76,0,.57-.71.71-1.11.71-3.45,0-8.18-4.43-9.46-14.79-.05-.54-.14-1.01-.84-.92l-.98.11c-.41.05-2.26.19-2.64.24-.22.03-1.22.19-1.36.19-.11,0-.14-.05-.25-.16l-.54-.63c-.11-.11-.14-.14-.14-.16,0-.05.05-.08.11-.08.08,0,.98.05,1.17.05.57,0,3.32-.16,3.48-.16h.27l.82-.11c.6-.08.68-.08.68-.49,0-.03-.49-5.82-.63-6.63-.03-.16-.3-.92-.3-1.09,0-.11.14-.11.22-.11.05,0,2.85.33,2.85,1.01,0,.16-.49.79-.57.9-.11.19-.11.33-.11.57,0,.46.19,5.14.38,5.38.14.22.49.19.68.19l3.64-.33ZM127.71,3.7c1.09.54,1.41,1.5,1.41,1.93,0,.63-.46,1.09-.95,1.09-.65,0-.9-.44-1.58-1.55-.19-.33-.63-1.01-1.09-1.33-.14-.11-.33-.25-.33-.35,0-.19.24-.22.79-.22.35,0,1.28.19,1.74.44Z"/>
      <path class="cls-1" d="M113.22,42.17c-2.37,0-3.15.05-3.43.08-.08,0-.49.05-.57.05-.11,0-.16-.05-.24-.16l-.52-.62c-.11-.14-.14-.14-.14-.19s.05-.05.11-.05c.19,0,1.03.08,1.2.08,1.33.05,2.45.11,3.73.11h5.08c.84,0,.84-.24.84-2.23,0-.79,0-1.17-.84-1.17h-1.9c-2.37,0-3.15.05-3.43.05-.08.03-.49.08-.57.08-.11,0-.14-.08-.24-.19l-.52-.63c-.08-.08-.11-.14-.11-.16,0-.05.03-.08.08-.08.19,0,1.03.11,1.2.11,1.33.08,2.45.08,3.73.08h1.79c.3,0,.84,0,.84-.82,0-1.88,0-2.18-.82-2.18h-3.24c-2.39,0-3.15.05-3.43.05-.08.03-.49.08-.57.08-.11,0-.16-.08-.25-.19l-.52-.63c-.11-.11-.14-.14-.14-.16,0-.05.05-.08.11-.08.19,0,1.03.11,1.2.11,1.33.05,2.45.08,3.73.08h3.04c.46,0,.79-.16.79-.71,0-.38-.14-2.09-.14-2.45,0-.14.05-.19.22-.19.08,0,2.5.49,2.5.95,0,.14-.41.52-.46.63-.14.27-.14,1.01-.14,1.09,0,.68.57.68.87.68h3.56c1.2,0,1.33,0,1.71-.44.76-.92.87-1.01,1.12-1.01.16,0,2.53,1.44,2.53,1.79,0,.38-.54.38-1.44.38h-7.56c-.33,0-.84,0-.84.73,0,.24,0,1.71.05,1.82.16.44.6.44.82.44h1.44c1.2,0,1.33,0,1.74-.46.76-.9.84-.98,1.09-.98.16,0,2.53,1.44,2.53,1.79,0,.38-.54.38-1.44.38h-5.33c-.87,0-.87.33-.87,1.31,0,1.88,0,2.09.87,2.09h5.3c1.22,0,1.36,0,1.74-.46.76-.9.84-1.01,1.09-1.01.19,0,2.56,1.44,2.56,1.79,0,.38-.54.38-1.47.38h-8.46c-.71,0-.71.6-.71.63,0,.22.54,1.5,1.36,2.83.76,1.22.98,1.6,1.36,1.6.62,0,3.13-2.45,3.45-3.83.03-.16.08-.3.24-.3s1.52.87,1.82,1.06c.54.35.76.49.76.73s-1.28.44-1.47.52c-1.63.76-2.5,1.22-4.08,2.26-.11.08-.19.22-.19.35,0,.49,2.66,2.47,5.49,3.45,1.2.41,1.31.46,1.5.52.11.03.19.05.19.16,0,.14-.35.24-.62.33-.92.3-1.12.46-1.63,1.14-.08.08-.16.16-.3.16-.68,0-4.02-2.61-4.92-3.67-.11-.11-.24-.3-.65-.3-.22,0-2.53.95-2.94,1.12-6.55,2.64-7.7,3.07-8.05,3.48-.27.3-.33.33-.41.33-.41,0-1.66-2.23-1.66-2.37,0-.08.05-.08.71-.16.73-.08,3.1-.35,3.54-.82.3-.33.3-.46.3-1.93,0-1.77,0-1.96-.38-1.96-.24,0-.43.16-.62.3-.92.73-5.08,3.4-5.82,3.4-.14,0-.19-.08-.19-.16s.82-.65.98-.76c5.17-3.62,8.02-7.42,8.02-7.61,0-.35-.33-.49-.65-.49h-4.02ZM123.72,48.02c-1.11-1.98-1.93-3.51-2.31-5.27-.05-.3-.11-.46-.33-.46-.11,0-.14.05-.22.14-.79.79-2.18,2.26-2.34,2.42-.65.6-.73.68-.73,3.13,0,.35,0,2.39.05,2.53.11.24.41.41.73.41s3.81-.95,4.11-1.03c.76-.22,1.41-.41,1.41-.95,0-.24-.11-.44-.38-.9Z"/>
      <path class="cls-1" d="M120.48,60.77c0,.08.05.19.05.3.11.87.27,1.74.27,2.94,0,1.82-.41,4.35-2.8,7.97-2.18,3.32-3.56,3.97-4.65,3.97-1.79,0-3.4-2.8-3.4-6.12,0-1.44.3-4.19,3.02-6.93,3.45-3.54,7.1-3.54,8.67-3.54,2.47,0,3.62.49,4.38.87,2.94,1.44,4.73,4.35,4.73,7.91s-2.04,7.89-6.85,9.57c-2.31.82-4.11,1.01-4.51,1.01-.11,0-.27-.03-.27-.19,0-.08.05-.11.73-.38,2.83-1.11,8.73-3.45,8.73-10.22,0-1.06-.11-7.53-7.53-7.53-.54,0-.57.22-.57.38ZM111.64,69.12c0,1.77.71,4.19,2.37,4.19.79,0,1.44-.33,3.32-3.15,1.44-2.2,2.67-5.22,2.67-7.91,0-1.63-.11-1.77-.46-1.77-2.58,0-7.89,3.51-7.89,8.65Z"/>
      <path class="cls-1" d="M127.31,86.11c.54,0,.95,0,1.36-.57.76-1.06.84-1.2,1.14-1.2.33,0,2.91,1.82,2.91,2.12,0,.38-.54.38-1.47.38h-17.84c-2.39,0-3.18.03-3.45.05-.08,0-.49.08-.57.08s-.14-.08-.24-.19l-.52-.63c-.11-.11-.11-.14-.11-.16,0-.05.03-.08.08-.08.19,0,1.03.11,1.2.11,1.33.08,2.47.08,3.75.08h4.98c.82,0,.9-.33.9-.9,0-.27-.03-.79-.08-1.14-.03-.16-.16-.95-.16-1.11,0-.22.08-.24.3-.24.38,0,1.6.27,2.04.38.3.08.65.14.65.44,0,.19-.05.24-.52.68-.22.19-.22.6-.22.79,0,.95.19,1.12.92,1.12h4.95ZM112.81,97.13c-.84,0-.84.08-.84,2.47,0,.9.11,5.33.11,6.34,0,.9-.65,1.39-1.52,1.39-.73,0-.73-.3-.73-.63,0-.6.11-3.45.11-4.11,0-1.5,0-3.75-.08-5.17-.03-.27-.14-1.55-.14-1.69,0-.11.03-.38.22-.38.22,0,1.66.76,1.99.87.25.08.73.16,1.17.16h15.01c.35,0,.57-.03.87-.35.62-.71.71-.76.84-.76s1.96,1.03,1.96,1.58c0,.19-.05.27-.57.9-.22.24-.22,1.55-.22,1.96,0,.73.08,4.35.08,5.17,0,.6,0,1.17-.95,1.85-.57.41-1.36.65-1.55.65-.33,0-.46-.19-.84-.84-.38-.63-.98-1.01-1.63-1.2-.38-.11-.49-.3-.49-.38,0-.11.19-.11.3-.11.27,0,1.85.11,2.2.11,1.01,0,1.01-.38,1.01-.84,0-.41.03-2.42.03-2.88,0-1.93,0-3.13-.03-3.51-.03-.6-.57-.6-.92-.6h-15.36ZM117.41,93.78c-.35,0-.65,0-.76.35-.11.27-.33.9-1.25.9s-.9-.57-.9-1.2c0-.27.05-1.66.05-1.96,0-.65-.03-2.04-.05-2.64,0-.08-.08-.52-.08-.6,0-.11,0-.3.22-.3.11,0,1.41.57,1.55.63.6.27.95.3,1.5.3h5.98c.46,0,.63-.05.82-.27.3-.35.54-.6.71-.6.19,0,1.9.98,1.9,1.36,0,.16-.63.73-.68.9-.05.16-.08.65-.08.82,0,.3.05,1.82.05,2.18,0,.65-.73,1.22-1.47,1.22-.46,0-.52-.19-.57-.57-.08-.52-.46-.52-.87-.52h-6.06ZM118.63,103.84c-.41,0-.62,0-.76.46-.14.49-.27.95-1.17.95-.76,0-.82-.35-.82-.79,0-.33.08-1.96.08-2.31,0-.54-.03-1.14-.03-1.74,0-.16-.11-1.09-.11-1.28,0-.16.03-.38.22-.38.03,0,.95.44,1.03.46.33.14.79.22,1.28.22h3.48c.49,0,.65-.05.84-.3.44-.52.49-.57.6-.57s1.93.84,1.93,1.33c0,.14-.03.16-.49.71-.11.11-.22.24-.22.54,0,.24.05,2.56.05,2.69,0,.87-.95,1.28-1.39,1.28-.49,0-.54-.22-.62-.76-.03-.24-.25-.52-.79-.52h-3.13ZM117.46,89.98c-.9,0-.9.33-.9,1.11,0,1.79,0,1.99.79,1.99h6.28c.82,0,.82-.05.82-2.2,0-.44,0-.9-.79-.9h-6.2ZM118.69,100.14c-.9,0-.9.33-.9,1.36,0,1.36,0,1.63.9,1.63h3.07c.87,0,.87-.33.87-1.36,0-1.39,0-1.63-.87-1.63h-3.07Z"/>
      <path class="cls-1" d="M113.17,115.56c0-1.14-.03-1.63-.05-2.01,0-.14-.16-.79-.16-.92,0-.16.11-.27.3-.27.14,0,2.31.44,2.31,1.09,0,.08-.05.22-.14.3-.41.49-.54.63-.57,1.52-.08,1.58-.05,2.72-.05,12.97,0,.84.22.84,1.09.84.35,0,.65-.03.73-.44.05-.27.05-.71.05-7.91,0-.49-.03-1.79-.08-2.23-.03-.14-.25-.82-.25-.98,0-.22.19-.3.38-.3.14,0,2.15.33,2.15.92,0,.11-.35.6-.38.73-.11.41-.11,3.4-.11,4.02,0,1.09.03,3.78.05,4.7.05,1.5.08,1.88.08,2.23,0,.38,0,1.58-1.22,1.58-.68,0-.71-.52-.71-1.06,0-.57-.43-.57-.68-.57h-3.75c-.76,0-.76.27-.76.92,0,1.47-1.01,1.5-1.22,1.5-.73,0-.76-.57-.76-.84,0-.24.03-.46.08-1.58.05-1.01.08-6.31.08-10.25,0-.9,0-1.06-.08-1.44-.03-.11-.19-.6-.19-.71,0-.22.19-.22.27-.22.35,0,2.23.41,2.23.95,0,.05-.03.11-.05.16-.33.44-.38.52-.38.68-.11.41-.11,7.42-.11,8.62,0,1.28.03,1.5.79,1.5.82,0,1.12,0,1.12-.68v-12.83ZM123.47,123.37c-2.39,0-3.13.03-3.43.08-.11.03-.49.05-.57.05s-.14-.08-.25-.19l-.54-.62c-.08-.11-.11-.14-.11-.16,0-.05.03-.05.11-.05.19,0,1.01.08,1.2.08,1.33.05,2.75.11,3.73.11h4.54c1.2,0,1.55-.03,1.88-.52.65-1.01.73-1.14.98-1.14.44,0,2.01,1.58,2.01,2.01,0,.35-.27.35-.95.35h-1.22c-.43,0-.87.08-.87.84v9.98c-.16,1.25-1.58,1.85-1.96,1.85-.3,0-.43-.08-.82-.65-.27-.41-.92-1.01-1.52-1.41-.3-.22-.52-.38-.52-.44s.14-.05.24-.05c2.5,0,2.77,0,2.77-1.28v-8.1c0-.73-.54-.73-.79-.73h-3.92ZM119.01,115.15c-.05-.05-.11-.14-.11-.16,0-.05.03-.08.08-.08.22,0,1.12.11,1.31.11.71.03,2.2.08,2.8.08.84,0,.84-.16.84-1.77,0-.22-.03-.68-.08-1.09-.03-.14-.05-.19-.05-.3,0-.19.16-.24.3-.24s2.53.24,2.53.76c0,.11-.43.46-.52.54-.22.3-.27,1.31-.27,1.6,0,.49.38.49.68.49h.44c1.11,0,1.3,0,1.6-.54.38-.73.57-.95.82-.95.46,0,2.15,1.47,2.15,1.82,0,.38-.38.38-.54.38-.24,0-.87.03-1.25.03h-3.56c-.35,0-.79.11-.79.82,0,.27.11.33,1.28.82,1.12.46,3.26,1.55,3.26,3.13,0,.44-.19,1.11-.82,1.11s-.92-.49-1.2-1.01c-1.09-2.07-2.31-3.29-2.67-3.29-.22,0-.35.22-.46.44-1.52,2.85-4.51,3.94-4.68,3.94-.08,0,.22-.3.24-.33,1.52-1.5,3.26-3.67,3.26-5.25,0-.38-.27-.38-.6-.38-.43,0-1.98,0-2.67.05-.08.03-.49.08-.57.08s-.19-.11-.25-.19l-.52-.63ZM123.72,125.4c.25,0,.52,0,.79-.41.3-.46.35-.54.57-.54.16,0,1.99.9,1.99,1.44,0,.16-.05.19-.44.46-.27.16-.27.38-.27,2.18,0,.25.05,1.36.05,1.6,0,.27,0,1.39-1.22,1.39-.44,0-.49-.16-.63-.63-.14-.41-.52-.41-.73-.41h-1.25c-.68,0-.76.33-.82.52-.27,1.03-1.01,1.03-1.14,1.03-.62,0-.65-.52-.65-.92,0-.35.08-2.09.08-2.47,0-1.5-.03-2.07-.14-2.85-.03-.24-.11-.63-.11-.79,0-.22.11-.3.33-.3.54,0,.87.16,1.39.44s.84.27,1.09.27h1.11ZM123.85,129.78c.79,0,.79-.38.79-1.39,0-2.04,0-2.28-.79-2.28h-1.3c-.79,0-.79.33-.79,1.52,0,1.93,0,2.15.82,2.15h1.28Z"/>
      <path class="cls-1" d="M110.23,147.32c0-.11.11-.22.24-.22.08,0,1.5.38,1.79.38.79,0,4.51-.79,4.57-.82.46-.33.49-3.07.49-3.21,0-.71-.05-1.52-.68-2.31-.41-.49-.46-.54-.46-.62,0-.19.33-.22.44-.22,1.82,0,2.88,1.03,2.88,1.74,0,.03-1.03,3.51-1.03,4.02,0,.16.11.24.3.24.14,0,1.39-.14,1.6-.14,2.04,0,3.62.98,3.62,3.48,0,2.15-.76,6.82-2.34,8.73-.76.9-1.85,1.66-2.77,1.66-1.01,0-1.28-.95-1.6-1.88-.05-.19-.35-.82-.35-.9s.05-.14.14-.14c.11,0,.6.16.68.19.57.14,1.11.19,1.39.19.79,0,1.79-.38,2.58-3.32.3-1.09.84-3.29.84-4.73,0-1.9-1.09-2.04-1.88-2.04-.87,0-2.42.41-2.61.65-.11.14-.14.24-.41,1.17-1.09,3.7-3.73,10.39-5.93,10.39-.6,0-.87-.38-.87-.87,0-.57.19-.79,1.82-2.58.73-.82,1.88-2.07,3.34-6.15.11-.27.38-1.09.38-1.28,0-.08-.03-.22-.19-.22-.6,0-3.13,1.09-3.67,1.09-1.06,0-2.31-1.71-2.31-2.31ZM129.1,153.09c-.3,0-1.55-.71-1.85-.82-.19-.05-.87-.08-.87-.19,0-.16.9-.63,1.06-.76,1.01-.76,1.11-.84,1.11-1.58,0-.46-.19-2.23-2.2-3.13-.22-.11-.65-.3-.65-.41,0-.16.11-.16.19-.16,3.48,0,4.73,3.43,4.76,4.81,0,.33-.41,2.23-1.55,2.23ZM130.35,143.98c0,.46-.33,1.06-.79,1.06-.38,0-.6-.16-1.44-1.17-.54-.65-.82-.84-1.93-1.6-.14-.08-.41-.3-.41-.41,0-.08.22-.24.46-.24,3.48,0,4.11,2.04,4.11,2.37ZM132.53,141.69c0,.33-.22.79-.68.79-.6,0-.9-.35-1.44-.98-.44-.46-1.52-1.11-2.42-1.44-.27-.08-.35-.19-.35-.27,0-.22.65-.38.98-.38,3.37,0,3.92,1.77,3.92,2.28Z"/>
      <path class="cls-1" d="M127.14,173.23c1.31,0,1.41-.03,2.01-.95.27-.41.57-.73.73-.73.33,0,2.28,1.9,2.28,2.04,0,.3-.3.38-1.47.38h-17.7c-.82,0-.87.3-.87,1.14,0,4.87-.03,7.1-.84,9.68-.68,2.12-2.37,3.94-2.72,3.94-.08,0-.08-.08-.08-.11,0-.11.46-.92.54-1.11.82-1.82,1.33-3.78,1.33-9,0-1.22-.03-2.61-.25-4.43-.03-.22-.22-1.17-.22-1.39,0-.08.08-.11.14-.11.03,0,1.6.44,1.79.49.38.11.76.16,1.17.16h8.51c.68,0,.98,0,2.56-2.28.63-.9,1.17-2.23,1.17-2.61,0-.3-.14-.3-.65-.3h-9.57c-2.23,0-2.99.03-3.43.05-.11,0-.49.08-.57.08-.11,0-.16-.08-.24-.19l-.54-.62c-.08-.11-.11-.14-.11-.16,0-.05.03-.08.11-.08.19,0,1.01.11,1.2.11,1.2.05,2.31.08,3.72.08h3.64c.79,0,.79-.52.79-.92s-.03-1.01-.05-1.17c0-.11-.14-.57-.14-.65,0-.14.14-.19.25-.19.38,0,2.47.14,2.47.6,0,.11-.38.46-.43.54-.11.24-.16.65-.16.9,0,.33,0,.9.76.9h4.02c1.25,0,1.55-.03,1.77-.35.71-1.06.76-1.17.95-1.17.3,0,2.28,1.63,2.28,1.88,0,.3-.33.38-1.44.38h-3.13c-.25,0-.6,0-.6.27,0,.19.05.24.71.76.52.44.71.6.71.84s-.14.24-.52.33c-.16.03-3.75,2.37-3.75,2.83,0,.16.27.16.41.16h3.45ZM119.88,178.26c.82,0,.84-.38.84-1.03,0-.46-.03-1.22-.11-1.74,0-.08-.08-.49-.08-.57,0-.11.03-.25.16-.25.25,0,2.8.65,2.8,1.14,0,.16-.54.65-.62.76-.16.24-.19.62-.19.84,0,.44.08.84.82.84h1.66c1.09,0,1.52-.03,1.77-.38.73-1.12.82-1.25,1.03-1.25.27,0,2.2,1.77,2.2,2.01,0,.27-.27.33-1.44.33h-5.25c-.82,0-.82.38-.82,1.71,0,1.55,0,1.82.79,1.82h1.52c1.39,0,1.66-.05,2.01-.68.3-.49.46-.79.68-.79s2.07,1.6,2.07,1.82c0,.33-.33.35-1.47.35h-4.73c-.54,0-.84.14-.84.87,0,3.24.08,3.24.84,3.24h3.34c1.12,0,1.5-.08,1.9-.79.3-.54.49-.73.73-.73.41,0,2.37,1.63,2.37,1.88,0,.38-.27.38-1.44.38h-13.9c-2.37,0-3.15.05-3.43.08-.08,0-.49.05-.57.05-.11,0-.16-.08-.24-.19l-.52-.6c-.11-.14-.14-.16-.14-.19,0-.05.05-.08.11-.08.19,0,1.03.11,1.2.11,1.33.05,2.45.11,3.73.11h3.32c.76,0,.76-.41.76-1.63,0-.41,0-1.96-.08-2.18-.14-.33-.54-.33-.79-.33h-.98c-2.39,0-3.18.05-3.45.08-.08,0-.49.05-.57.05s-.14-.05-.25-.16l-.52-.63q-.11-.14-.11-.19s.03-.05.08-.05c.19,0,1.03.08,1.2.08,1.33.05,2.47.11,3.75.11h.9c.27,0,.82,0,.82-.68,0-.38,0-2.28-.08-2.47-.16-.38-.52-.38-.79-.38h-2.83c-.82,0-.87.08-1.44.98-.49.76-2.37,3.34-2.69,3.34-.05,0-.14-.05-.14-.14,0-.05.41-.79.49-.92.65-1.47,1.82-4.41,1.82-5.76,0-.11-.08-.54-.08-.65,0-.14.08-.24.25-.24.11,0,2.45.73,2.45,1.17,0,.16-.63.68-.71.82-.16.22-.22.33-.22.46,0,.24.19.24.41.24h2.69ZM117.98,171.6c0,.68-.46,1.2-1.06,1.2-.82,0-.98-.6-1.33-1.93-.16-.57-.57-1.41-.92-1.82-.05-.03-.19-.19-.19-.3,0-.14.14-.25.41-.16.46.16,3.1,1.14,3.1,3.02Z"/>
      <path class="cls-1" d="M127.77,200.1c1.06,0,1.39,0,1.74-.46.3-.41.35-.49.65-.49.57,0,2.58,1.71,2.58,2.34,0,.3-.35.44-.54.44-.08,0-.84-.14-.95-.14-.65,0-1.47.24-2.86,1.36-.22.16-.35.27-.49.27-.05,0-.11-.05-.11-.11,0-.3.92-1.88.92-2.12,0-.35-.35-.38-.73-.38h-16.12c-.49,0-.73,0-.87.54-.35,1.25-.68,2.64-1.77,2.64-.57,0-1.01-.49-1.01-1.06s.14-.76.98-1.93c.46-.63.52-.82.79-2.18.03-.08.08-.3.22-.3.24,0,.46.49.76,1.2.16.38.52.38.79.38h16.02ZM118.6,209.78c.33,0,.84,0,.84-.71,0-.33-.03-.95-.08-1.28-.08-.41-.19-.95-.19-1.06,0-.08,0-.44.3-.44.24,0,1.39.35,1.63.35.6,0,2.67-2.01,2.67-2.31,0-.19-.14-.19-.52-.19h-6.39c-.65,0-2.5,0-3.43.08-.11,0-.49.05-.6.05-.08,0-.14-.05-.22-.16l-.54-.62q-.11-.14-.11-.19c0-.05.05-.05.08-.05.19,0,1.01.08,1.2.08.79.05,2.2.11,3.75.11h6.14c1.22,0,1.33,0,1.74-.46.27-.33.44-.44.68-.44.35,0,1.71,1.39,1.71,1.79s-.25.46-1.06.65c-1.14.25-3.18,1.41-4.51,2.18-.35.22-.41.24-.41,1.88,0,.73.6.73.87.73h4.7c1.12,0,1.5-.03,1.74-.46.52-.92.6-1.14,1.12-1.14.6,0,2.5,1.58,2.5,1.96,0,.35-.54.35-1.44.35h-8.67c-.79,0-.79.22-.79,1.6,0,2.04-.03,3.53-.14,4.27-.19,1.14-1.14,1.58-2.2,1.58-.38,0-.41-.16-.52-.49-.22-.73-1.06-1.09-2.2-1.58-.33-.14-.62-.24-.62-.41,0-.14.16-.14.24-.14.05,0,2.28.33,2.72.33.46,0,.79,0,.82-1.39,0-.6.05-2.53.05-2.94,0-.46-.08-.84-.84-.84h-5.22c-.65,0-2.5,0-3.45.08-.08,0-.46.05-.57.05-.08,0-.14-.05-.24-.16l-.52-.63q-.11-.14-.11-.19c0-.05.05-.05.08-.05.19,0,1.01.08,1.2.08.79.03,2.2.11,3.75.11h5.06ZM112.05,194.01c.54,0,3.94,1.28,3.94,3.73,0,.52-.33,1.03-.92,1.03-.68,0-.79-.22-1.6-1.96-.54-1.14-.62-1.25-1.58-2.5-.03-.05-.11-.19-.08-.24.03-.05.19-.05.24-.05ZM121.92,197.02c0,.82-.49,1.39-1.01,1.39-.84,0-1.01-1.03-1.11-1.6-.16-1.01-.68-2.58-.92-3.07-.03-.08-.22-.46-.14-.54.24-.27,3.18,1.6,3.18,3.83ZM129.37,195.39c0,.24-.11.27-.6.41-.46.11-.6.24-1.66,1.33-1.69,1.69-2.86,2.56-3.02,2.56-.05,0-.11-.05-.11-.11,0-.03.95-1.77,1.06-1.98.3-.6,1.22-2.39,1.39-3.56.08-.52.11-.6.27-.6s.38.14.52.22c.71.44,2.15,1.31,2.15,1.74Z"/>
      <path class="cls-1" d="M108.05,233.22c-.08-.11-.11-.16-.11-.19,0-.05.05-.05.11-.05.14,0,.82.05.98.08.33.03,2.23.08,3.04.08.38,0,.6-.03.87-.3.65-.73.71-.82.84-.82.33,0,1.52,1.52,1.52,1.69,0,.22-1.01.62-1.11.82-.11.14-.11,2.45-.11,2.85,0,4.87,0,6.53,9.92,6.53,1.17,0,4.68,0,7.1-.44.19-.03,1.11-.27,1.33-.27.05,0,.16,0,.16.08,0,.11-.11.22-.38.33-.33.14-1.17.71-1.36,1.71-.14.65-.16.65-.52.65-10.82,0-14.38-.57-16.02-3.81-.11-.22-.49-1.52-.71-1.52-.05,0-3.04,3.26-3.32,4.05-.3.87-.33.98-.62.98-.44,0-1.74-1.93-1.74-2.26,0-.24.38-.33.76-.41.49-.11,2.99-1.58,3.51-2.23.25-.3.27-.33.27-3.92,0-2.75-.05-2.99-.82-2.99-.68,0-1.66.03-2.26.08-.08,0-.49.05-.57.05-.11,0-.16-.05-.25-.16l-.54-.63ZM113.36,229.08c-.49,0-.6-.16-1.52-1.58-.6-.92-1.93-2.15-2.75-2.88-.11-.11-.79-.63-.79-.71s.08-.08.19-.08c.19,0,1.25.22,2.42.71,3.29,1.33,3.29,3.02,3.29,3.21,0,.82-.38,1.33-.84,1.33ZM121.51,228.65c.82,0,.82-.41.82-.98,0-1.6,0-1.79-.84-1.79h-1.03c-.63,0-2.5,0-3.45.08-.08,0-.49.05-.57.05s-.14-.05-.25-.16l-.52-.63q-.11-.14-.11-.19c0-.05.03-.05.08-.05.19,0,1.03.08,1.22.08,1.22.05,2.45.11,3.73.11h.92c.73,0,.79-.41.79-.95,0-.38-.05-.95-.16-1.36-.03-.11-.14-.52-.14-.6,0-.16.11-.27.27-.27.14,0,2.01.22,2.18.41.05.08.11.16.11.27,0,.14-.33.65-.38.79-.08.27-.14.79-.14,1.09,0,.63.35.63.65.63h2.04c1.25,0,1.39,0,1.74-.46.54-.71.6-.79.82-.79.35,0,2.09,1.01,2.09,1.58,0,.38-.52.38-1.44.38h-5.06c-.9,0-.9.19-.9,1.96,0,.6.24.82.82.82h1.66c1.12,0,1.31,0,1.77-.44.35-.35.54-.49.76-.49.54,0,1.5,1.33,1.5,1.55,0,.16-.16.3-.43.43-.35.19-.35.38-.35,1.58,0,.57.05,3.34.05,3.97,0,1.41-.9,1.55-1.25,1.55-.46,0-.54-.3-.6-.46-.11-.41-.3-.41-.79-.41h-2.23c-.84,0-.84.49-.84.57,0,2.2,0,2.28.84,2.28h2.39c1.25,0,1.39,0,1.82-.6.27-.41.54-.73.82-.73s1.88,1.28,1.88,1.71c0,.33-.14.33-1.41.33h-5.47c-.33,0-.82.03-.82.76,0,.24.08,1.36.08,1.58,0,.38,0,1.52-1.11,1.52-.25,0-.9-.14-.9-1.17,0-.3.11-1.66.11-1.93,0-.68-.41-.76-.79-.76h-1.25c-.62,0-2.5.03-3.45.08-.08,0-.49.08-.57.08s-.14-.08-.24-.19l-.52-.62c-.05-.05-.11-.14-.11-.16,0-.05.03-.08.08-.08.19,0,1.03.11,1.2.11,1.25.08,2.47.08,3.72.08h1.2c.79,0,.82-.35.82-1.52,0-.98,0-1.33-.79-1.33h-1.98c-.54,0-.68,0-.87.38-.22.44-.33.65-1.06.65-.52,0-.71-.19-.71-.79,0-.87.16-4.76.16-5.55,0-.41-.11-2.15-.11-2.5,0-.11,0-.33.24-.33.19,0,.33.05,1.44.65.35.19.65.19,1.03.19h1.79ZM121.62,231.89c.73,0,.73-.38.73-1.22,0-.92,0-1.28-.73-1.28h-2.17c-.71,0-.76.41-.76,1.14,0,1.03,0,1.36.76,1.36h2.17ZM121.54,235.2c.87,0,.87-.27.87-1.39,0-.82,0-1.2-.82-1.2h-2.04c-.79,0-.84.33-.84.92,0,1.28,0,1.66.76,1.66h2.07ZM124.83,229.38c-.84,0-.84.38-.84,1.28s0,1.22.9,1.22h2.28c.9,0,.92-.3.92-1.28,0-.82-.03-1.22-.84-1.22h-2.42ZM124.86,232.62c-.82,0-.82.46-.82,1.2,0,.98,0,1.39.82,1.39h2.26c.79,0,.84-.19.84-1.88,0-.22,0-.71-.73-.71h-2.37Z"/>
      <path class="cls-1" d="M108.11,256.6c-.08-.08-.11-.14-.11-.16,0-.05.03-.08.08-.08.08,0,2.28.19,2.72.19.35,0,.95,0,.95-.73,0-1.03-.05-3.18-.08-3.62,0-.11-.35-1.01-.43-1.17,0-.08.11-.14.22-.14.24,0,.49.08,2.56.65.33.08.41.3.41.41,0,.22-.68.82-.76.98-.16.3-.16,1.69-.16,2.18,0,1.31,0,1.47.38,1.47.19,0,.27-.14.41-.44.44-.9.46-1.01.65-1.01.38,0,1.79,1.41,1.79,1.74,0,.38-.38.41-.65.41h-1.66c-.25,0-.92,0-.92.63s.03,3.53.03,4.13c0,.46,0,.84.41.84.11,0,2.75-.84,3.1-.84.05,0,.14.03.14.11,0,.24-1.96,1.36-2.37,1.6-1.01.54-1.22.68-1.22,1.41,0,1.22.14,6.63.14,7.75,0,.68-.08,1.47-.9,2.01-.49.3-1.2.65-1.58.65-.19,0-.22-.05-.33-.38-.22-.71-.82-1.22-1.41-1.66-.14-.11-.92-.63-.92-.65,0-.08.11-.14.22-.14.33,0,1.69.11,1.96.11,1.17,0,1.17-.27,1.17-2.69,0-.63-.03-3.43-.03-4,0-.16,0-.65-.38-.65s-1.09.65-1.22.76c-.14.14-.71.84-.9.84-.33,0-.38-.14-.84-1.47-.08-.19-.52-1.17-.52-1.25,0-.11.03-.22.11-.22s.43.05.49.05c.27,0,2.42-.41,2.72-.57.3-.16.52-.49.52-.92,0-.41-.08-4.73-.08-4.87-.05-.6-.49-.6-.87-.6-.3,0-1.79.14-2.04.14-.08,0-.14-.05-.24-.19l-.52-.63ZM127.77,254.73c1.01,0,1.06-.05,1.17-.19.16-.19.84-1.25,1.06-1.25.16,0,2.01,1.44,2.01,1.79,0,.38-.43.38-1.14.38h-4.68c-.9,0-.9.33-.9,1.25,0,.52.35.73.82.73.25,0,1.09,0,1.25-.11.25-.14.92-1.36,1.2-1.36.14,0,2.01,1.47,2.01,1.79,0,.38-.46.38-1.17.38h-3.32c-.68,0-.79.16-.79.79,0,.87,0,.98.16,1.11.14.14.25.14,1.2.14.68,0,.84-.05.98-.19.16-.19.84-1.28,1.09-1.28.08,0,1.99,1.47,1.99,1.82,0,.38-.46.38-1.14.38h-3.54c-.57,0-.73.22-.73.63,0,1.33,0,1.52.73,1.52h2.56c.98,0,1.03-.08,1.14-.19.19-.19.84-1.28,1.09-1.28.14,0,2.01,1.47,2.01,1.79,0,.38-.46.38-1.17.38h-10.63c-.33,0-.52,0-.95.52-.22.27-.57.73-1.28.73-.54,0-.6-.24-.6-.71,0-.71.3-5.63.3-6.69,0-.22-.16-.3-.27-.3-.19,0-2.58,2.72-2.8,2.72-.05,0-.11-.05-.11-.11.14-.16.35-.52.46-.68,2.61-3.86,3.7-7.86,3.7-8.21,0-.08-.11-.41-.11-.49s.14-.08.16-.08c.44,0,2.67.84,2.67,1.31,0,.24-.3.33-.63.44-.3.11-1.17,1.96-1.17,2.09,0,.41.41.41.52.41h1.99c.24,0,.68,0,.95-.35.11-.14,1.17-2.42,1.17-3.37,0-.14,0-.27.16-.27.11,0,1.96.68,2.01.71.08.03.16.19.16.3,0,.27-.22.33-.52.44-.62.19-1.79,1.96-1.79,2.15,0,.41.33.41.52.41h2.2ZM125.43,265.63c.46,0,.65.03,1.03-.33.35-.33.54-.54.73-.54.16,0,1.63.98,1.63,1.31,0,.22-.19.35-.57.63-.33.22-.52,1.28-.52,1.41,0,.05,0,.54.6.54h.87c.27,0,.38,0,.65-.19.82-.6.9-.65,1.09-.65.38,0,1.63,1.69,1.63,1.85s-.03.16-.54.57c-.38.3-.41.46-.49.73-.82,3.26-2.85,4.76-4.3,4.76-.27,0-.33-.05-.46-.35-.14-.35-.3-.6-.62-.87-.25-.22-1.85-1.28-1.63-1.28.35,0,2.09.24,2.47.24,1.88,0,2.77-3.1,2.77-3.64,0-.44-.38-.44-.54-.44h-1.03c-.35,0-.54,0-.84.27s-.6.57-1.09.57c-.43,0-.62-.33-.62-.57,0-.35.54-2.42.54-2.75,0-.11-.05-.54-.6-.54h-1.41c-.71,0-.84.57-.84.68-.3,1.36-1.11,5.33-4.73,7.26-.46.24-2.04.9-2.58.9-.05,0-.08-.03-.08-.05s.22-.16.27-.19c1.06-.63,2.07-1.52,2.91-2.53,1.3-1.55,2.26-3.81,2.26-5.41,0-.41-.14-.65-.92-.65-.3,0-1.85.14-2.09.14-.11,0-.16-.08-.25-.19l-.52-.63c-.11-.11-.14-.14-.14-.16,0-.05.05-.08.11-.08.22,0,1.28.11,1.52.11,1.9.08,2.58.08,3.4.08h2.94ZM121,255.46c-.63,0-.92.03-.92.98s.3,1.01.92,1.01h1.85c.57,0,.92,0,.92-.95,0-1.01-.25-1.03-.92-1.03h-1.85ZM120.89,258.15c-.38,0-.76,0-.76,1.01,0,.73.14,1.03.76,1.03h2.09c.65,0,.73-.3.73-.92,0-.73,0-1.11-.73-1.11h-2.09ZM120.94,260.92c-.82,0-.82.27-.82,1.01,0,.9,0,1.14.82,1.14h2.01c.82,0,.82-.27.82-1.06,0-.84,0-1.09-.82-1.09h-2.01Z"/>
      <path class="cls-1" d="M120.48,281.51c0,.08.05.19.05.3.11.87.27,1.74.27,2.94,0,1.82-.41,4.35-2.8,7.97-2.18,3.32-3.56,3.97-4.65,3.97-1.79,0-3.4-2.8-3.4-6.12,0-1.44.3-4.19,3.02-6.93,3.45-3.54,7.1-3.54,8.67-3.54,2.47,0,3.62.49,4.38.87,2.94,1.44,4.73,4.35,4.73,7.91s-2.04,7.89-6.85,9.57c-2.31.82-4.11,1.01-4.51,1.01-.11,0-.27-.03-.27-.19,0-.08.05-.11.73-.38,2.83-1.11,8.73-3.45,8.73-10.22,0-1.06-.11-7.53-7.53-7.53-.54,0-.57.22-.57.38ZM111.64,289.86c0,1.77.71,4.19,2.37,4.19.79,0,1.44-.33,3.32-3.15,1.44-2.2,2.67-5.22,2.67-7.91,0-1.63-.11-1.77-.46-1.77-2.58,0-7.89,3.51-7.89,8.65Z"/>
      <path class="cls-1" d="M54.08,3.29c-.05-.08-.11-.14-.11-.19,0-.03.05-.05.11-.05.19,0,1.01.08,1.2.08,1.33.08,2.45.11,3.72.11h6.28c.41,0,.49,0,.92-.57.43-.63.49-.68.73-.68.35,0,2.04,1.31,2.04,1.6,0,.35-.57.35-1.44.35h-1.39c-.73,0-.82.38-.82.9,0,1.55-.08,8.4-.08,9.79,0,5.33,0,5.9.03,6.96,0,.35.08,1.96.08,2.28,0,.35,0,2.01-1.39,2.01-.73,0-.73-.52-.73-.84,0-.22.08-1.17.08-1.36.05-.98.11-1.98.11-3.29,0-1.98,0-2.2-.63-2.2-.57,0-5.27,1.85-6.17,2.39-.25.16-1.17,1.11-1.41,1.11-.33,0-1.41-2.31-1.41-2.75,0-.22.11-.22,1.09-.24,2.04-.03,2.31-.57,2.42-1.03.11-.54.14-9.08.14-10.11,0-.63-.03-2.56-.03-2.75-.03-.27,0-.84-.73-.84-.24,0-1.63.11-1.82.11-.11,0-.16-.05-.25-.16l-.54-.63ZM59.96,13.62c-.76,0-.76.44-.76,1.41,0,2.53,0,2.94.9,2.94.35,0,2.15-.27,2.75-.57.52-.25.65-.52.65-2.69,0-.65-.03-1.09-.82-1.09h-2.72ZM60.04,3.94c-.82,0-.82.14-.82,2.61,0,1.14,0,1.5.76,1.5h2.83c.73,0,.73-.11.73-2.53,0-1.25-.08-1.58-.84-1.58h-2.67ZM62.67,12.92c.87,0,.87-.14.87-2.5,0-1.28,0-1.63-.73-1.63h-2.8c-.79,0-.79.05-.79,3.15,0,.84.3.98.73.98h2.72ZM67,4.7c-.11-.14-.14-.14-.14-.19s.05-.05.11-.05c.19,0,1.03.08,1.2.08,2.23.11,2.96.11,3.72.11h2.26c.35,0,.84,0,1.41-.71.19-.22.27-.27.43-.27.3,0,2.28,1.03,2.28,1.52,0,.19-.05.22-.38.46-.46.38-.76,1.44-.95,2.12-1.22,4.49-1.66,5.41-2.72,7.64-.3.63-.41.92-.41,1.2,0,.82,1.9,3.45,4.3,5.22.25.19,1.6,1.06,1.6,1.14,0,.16-1.41.27-1.69.38-.27.11-.57.3-.92.63-.11.11-.22.22-.33.22-.62,0-2.86-3.59-3.54-4.73-.3-.46-.49-.79-.71-.79-.19,0-.24.08-.87.87-3.32,4.21-5.55,5.06-5.63,5.06-.14,0-.25-.08-.25-.24,0-.11,1.55-1.58,1.85-1.88.33-.38,3.7-4.35,3.7-5.85,0-.46-1.39-4.21-1.55-5.03-.27-1.33-.52-3.48-.76-4.81-.19-1.17-.43-1.31-.84-1.31-.05,0-.38.05-.43.05-.11,0-.16-.08-.25-.19l-.52-.65ZM71.86,5.41c-2.04,0-2.28,0-2.28.9,0,1.79,2.15,8.16,2.88,8.16.62,0,2.56-6.53,2.56-8.24,0-.82-.79-.82-1.28-.82h-1.88Z"/>
      <path class="cls-1" d="M67.73,34.12c-2.31,0-4.49,3.81-4.49,6.69,0,.87.14,1.36.35,2.01.19.52.24.73.24,1.03,0,.9-.73.98-.98.98-1.25,0-1.85-2.26-1.85-4.4,0-1.39.22-2.83.49-4.32.38-2.23.41-2.83.41-3.48,0-.95-.16-1.36-.35-1.69-.05-.11-.46-.65-.46-.71s.33-.19.73-.19c1.25,0,2.09,1.09,2.09,1.82,0,.33-.49,1.71-.57,2.01-.05.22-.6,2.69-.6,3.37,0,.08,0,.38.22.38.14,0,.3-.33.49-.68.3-.6,2.15-4.02,5-4.02,1.69,0,3.51.9,3.51,6.61,0,3.83-.76,8.18-5.93,11.26-1.09.65-1.85.9-1.96.9-.05,0-.11-.03-.11-.08,0-.08.05-.14.68-.6,4.46-3.37,5.27-6.53,5.27-12.07,0-2.99-.54-4.81-2.2-4.81Z"/>
      <path class="cls-1" d="M58.02,68.86c-.35,0-1.41.22-1.99.46-.11.05-.57.46-.68.46s-.25-.11-.3-.19c-.08-.16-.92-2.15-.92-2.26,0-.22.14-.24.25-.24s.62.11.73.14c.44.08,1.09.08,1.58.08.92,0,1.2-.19,1.77-.98,1.12-1.55,2.99-4.6,3.15-5,.11-.24.46-1.55.65-1.55.25,0,2.31,1.36,2.31,1.77,0,.27-.62.49-.84.54-.76.24-.92.41-2.39,2.18-1.99,2.34-2.2,2.58-2.2,2.72,0,.22.3.22.44.22.19,0,1.5-.08,1.79-.11,1.25-.08,1.39-.08,1.39-.41s-.35-.95-.54-1.22c-.03-.05-.22-.35-.22-.38,0-.08.03-.11.08-.11.46,0,3.56,2.09,3.56,4.21,0,.82-.76,1.22-1.2,1.22-.6,0-.84-.57-.9-1.01-.19-1.41-.19-1.58-.54-1.58-.24,0-1.85.35-2.04.41-.57.19-.57.41-.57,1.39,0,.54.05,3.24.05,3.83,0,.76.03,3.21.05,3.81,0,.11.05.76.05,1.22,0,1.11-1.06,1.47-1.58,1.47-.46,0-.46-.63-.46-.82,0-.82.14-6.47.14-7.69v-1.58c0-.16,0-.54-.05-.73-.08-.19-.3-.27-.57-.27ZM58.08,71.69c0,.22-.68.95-.76,1.14-.14.33-.73,1.77-.87,2.07-.92,2.12-1.82,3.18-1.99,3.18-.08,0-.14-.05-.14-.16s.19-.68.22-.82c.35-1.47.9-4.21.9-5.55,0-.87,0-.95.22-.95.11,0,.19.03.3.05.87.27,2.12.68,2.12,1.03ZM61.89,56.79c0,.14-.08.19-.71.57-.14.08-2.94,4.05-2.94,4.35,0,.14.08.22.6.9.25.33.38.84.38,1.2,0,.87-.57,1.28-.95,1.28-.82,0-1.22-1.06-1.41-1.52-.33-.82-.9-1.71-1.66-2.42-.08-.05-.6-.52-.6-.63s.19-.11.25-.11c.41,0,.79.16,1.31.41.19.08,1.01.49,1.11.49.65,0,1.52-3.7,1.74-5.03.16-.87.19-.95.46-.9.24.03,2.42.87,2.42,1.41ZM64.85,74.52c0,.65-.46,1.28-1.09,1.28-.46,0-.57-.3-.73-.9-.33-1.22-.95-2.47-1.55-3.51-.05-.08-.44-.73-.44-.82s.05-.11.14-.11.3.05.54.22c2.15,1.41,3.13,2.69,3.13,3.83ZM62.24,77.83c-.11-.14-.14-.14-.14-.19s.08-.05.11-.05c.54,0,3.26.19,3.86.19.49,0,.54-.3.57-.54.14-1.52.22-12.75.22-15.12,0-1.11-.05-4.16-.11-5.08,0-.16-.08-.87-.08-1.03,0-.08,0-.16.08-.16.19,0,1.03.44,1.28.57.6.33.76.41,1.31.41h4.13c.46,0,.57-.08.73-.33.49-.63.54-.68.76-.68.11,0,2.15.9,2.15,1.47,0,.22-.08.3-.54.71-.22.19-.22,1.14-.22,2.01,0,.6-.05,3.51-.05,4.16,0,1.85.05,10.79.05,12.83,0,.3,0,.44.14.44.24,0,.95-1.25,1.22-1.25.33,0,1.74,1.44,1.74,1.96,0,.35-.11.35-1.17.35h-11.72c-.9,0-2.04,0-2.99.08-.08,0-.49.05-.57.05-.11,0-.16-.05-.24-.16l-.52-.63ZM73.58,70.74c.82,0,.82-.44.82-1.09v-4.95c0-.19-.03-.68-.76-.68h-4.21c-.24,0-.54.05-.68.3-.11.19-.11,2.47-.11,2.91,0,.46,0,3.02.11,3.21.16.3.52.3.68.3h4.16ZM73.66,77.78c.73,0,.73-.11.73-2.94,0-.46,0-2.94-.11-3.1-.19-.3-.54-.3-.71-.3h-4.16c-.16,0-.52,0-.71.3-.08.16-.08,2.56-.08,3.02,0,.44,0,2.56.08,2.72.16.25.46.3.71.3h4.24ZM73.6,63.31c.79,0,.79-.52.79-.92,0-.38,0-4.27-.03-4.41-.08-.33-.27-.46-.76-.46h-4.11c-.79,0-.82.41-.82.92v4.27c.05.38.27.6.79.6h4.13Z"/>
      <path class="cls-1" d="M65.91,85.79c-.35,0-1.5.98-1.93,1.36-.35.33-1.39,1.25-2.09,1.25-1.01,0-1.77-1.93-1.77-2.01,0-.16.05-.27.22-.27s.79.11.92.11c.87,0,1.2-.05,2.83-1.09,1.33-.84,2.17-.9,2.61-.9,1.79,0,2.2,1.22,2.2,1.63,0,.57-.24.9-1.66,2.2-1.96,1.82-4,5.41-4,5.52,0,.14.19.16.27.16.35,0,1.88-.03,2.2,0,1.77.14,3.72.6,5.14,1.09.3.11.35.11.44.11.35,0,.52-2.23.52-2.5,0-.22-.16-1.41-.16-1.52,0-.16.19-.16.3-.16.08,0,2.45.44,2.45,1.5,0,.19-.52.9-.6,1.06,0,.05-.38,2.23-.38,2.31,0,.35.16.44.63.68,1.06.57,3.53,1.85,3.53,3.26,0,.73-.68,1.03-1.01,1.03-.54,0-.84-.22-2.75-1.85-.05-.03-.84-.71-1.12-.71-.22,0-.3.19-.38.33-.79,1.41-2.04,3.32-5.33,5.03-1.52.79-2.72,1.09-2.94,1.09-.03,0-.22,0-.22-.08,0-.03.46-.35.52-.38,2.69-1.85,4.02-2.94,5.6-5.38.41-.62.82-1.28.82-1.55,0-.24,0-.38-1.5-1.11-1.82-.87-3.56-1.22-5-1.22-1.69,0-1.74.11-2.2,1.09-2.34,4.98-2.8,5.98-4.51,5.98-1.39,0-1.79-1.5-1.79-2.18,0-2.31,2.42-4.38,5.27-5.38.33-.11.41-.14.68-.54.62-1.01,4.02-6.15,4.16-6.39.14-.27.38-1.01.35-1.22-.03-.14-.11-.33-.33-.33ZM56.8,98.9c0,.46.22.79.71.79,1.5,0,3.26-4,3.26-4.11,0-.08-.03-.14-.11-.14-.98,0-3.86,1.85-3.86,3.45Z"/>
      <path class="cls-1" d="M56.31,117.79c1.55,0,4.3-1.52,4.3-1.9,0-.19-.25-.6-.44-.87-1.82-2.47-2.04-2.75-2.04-3.32,0-.87,1.44-1.82,4-1.82.84,0,1.5.05,2.53.19.57.08.92.08,1.01.08.46,0,.76-.22.76-.73,0-.14-.19-.82-.19-.95,0-.11.08-.19.19-.19.33,0,1.96,1.14,1.96,2.61,0,.14-.14.65-.14.79,0,.08.03.24.19.24.14,0,.68-.22.82-.24.73-.19,1.71-.41,2.64-.41,2.75,0,5.22,2.31,5.22,4.89,0,1.63-1.14,4.21-4.7,4.21-2.99,0-5.06-2.45-5.06-2.56,0-.08.08-.11.16-.11.05,0,.98.33,1.14.38.79.3,1.63.6,2.66.6,1.41,0,3.7-.73,3.7-3.02,0-1.6-1.17-3.29-3.45-3.29s-3.67.9-7.97,3.64c-.82.52-.82.54-.82.73,0,.16.08.33.3.65,1.63,2.64,4.49,7.99,4.49,10.39,0,1.06-.65,1.63-1.22,1.63-.82,0-1.17-.79-1.17-1.6,0-1.9,0-2.09-.3-3.26-.19-.76-.84-3.32-2.85-6.77-.11-.16-.22-.33-.38-.33-.14,0-.76.44-1.14.71-.3.19-2.53,1.63-3.37,1.63-.52,0-1.93-1.47-1.93-1.79,0-.16.14-.27.25-.27s.52.05.87.05ZM59.96,112c0,.54.11.73,1.22,2.47.49.73.52.82.73.82.19,0,.44-.19.65-.33.73-.49,2.66-1.6,3.59-2.04.27-.14.38-.24.38-.38,0-.11-.08-.16-.84-.49-2.58-1.11-3.1-1.33-3.78-1.47-1.3-.24-1.96.63-1.96,1.41Z"/>
      <path class="cls-1" d="M59.14,138.21c1.22,0,1.36,0,1.71-.52.19-.3.35-.41.49-.41s1.6.76,1.6,1.22c0,.41-.49.41-1.47.41h-2.99c-.95,0-2.12.03-2.69.08-.11,0-.49.05-.57.05-.11,0-.16-.05-.25-.16l-.54-.63c-.08-.14-.11-.14-.11-.19s.03-.05.11-.05c.19,0,1.03.08,1.22.08.68.03,2.34.11,2.94.11h.54ZM59.17,135.09c.79,0,.84,0,1.06-.46.11-.22.27-.52.49-.52.19,0,1.47.9,1.47,1.33,0,.35-.33.35-.9.35h-2.91c-.49,0-1.12,0-1.77.05-.11,0-.54.05-.65.05s-.19-.08-.22-.16l-.46-.63s-.05-.08-.05-.14.05-.08.11-.08c.16,0,.9.11,1.03.11.92.05,1.2.08,1.96.08h.84ZM58.98,141.72c.63,0,.73,0,1.09-.49.22-.3.35-.38.49-.38.25,0,1.52.9,1.52,1.28,0,.33-.35.33-.9.33h-3.97c-.19.03-.92.11-1.06.11s-.19-.08-.25-.16l-.46-.63c-.03-.05-.05-.08-.05-.16,0-.05.05-.05.08-.05.14,0,.6.05.71.08.79.05,1.5.08,2.31.08h.49ZM58.27,154.61c-.27,0-.84,0-.84.82,0,.16.05.92.05,1.09,0,.27,0,1.39-1.31,1.39-.62,0-.62-.44-.62-.62v-.3c.16-1.2.19-1.58.19-3.34,0-.16,0-2.53-.19-4.35,0-.14-.11-.84-.11-1.01,0-.14.05-.22.22-.22.19,0,1.01.38,1.2.44.35.11.63.11.87.11h1.47c.3,0,.49,0,.68-.11.14-.08.57-.84.76-.84.22,0,1.88,1.03,1.88,1.31,0,.14-.16.33-.38.54-.3.33-.35.49-.35,1.01,0,.63.19,3.97.19,4.24,0,1.06-.87,1.17-1.14,1.17-.52,0-.54-.33-.57-.57-.05-.52-.27-.73-.84-.73h-1.14ZM58.73,145.61c-.52,0-.84,0-1.36.03-.16,0-.9.08-1.06.08-.11,0-.19-.08-.22-.16l-.46-.62s-.05-.05-.05-.14c0-.05.05-.08.11-.08.16,0,.9.11,1.03.11.95.05,1.2.08,1.96.08.87,0,.98,0,1.2-.24.38-.44.52-.57.63-.57.3,0,1.55.76,1.55,1.2,0,.33-.35.33-.9.33h-2.42ZM58.11,149.33c-.87,0-.87.33-.87,1.17,0,.35.05,2.8.16,3.07.14.33.57.33.79.33h1.17c.87,0,.87-.24.87-1.6,0-.41,0-2.42-.11-2.67-.14-.3-.57-.3-.76-.3h-1.25ZM72.33,143.11c-.63,0-.92.16-.92.82,0,1.47,0,1.63.76,1.63h1.3c.22,0,.57,0,.84-.22.14-.08.63-.57.76-.57.33,0,1.93,1.2,1.93,1.47,0,.16-.14.3-.33.38-.33.16-.38.27-.41.33-.11.19-.14,3.07-.14,3.56,0,1.44,0,1.6.33,1.6.16,0,.3-.11.43-.41.11-.19.35-.6.65-.6.33,0,1.63,1.25,1.63,1.58,0,.38-.6.38-1.36.38h-.79c-.22,0-.6,0-.73.33-.05.11-.05,1.79-.05,1.93,0,.79-.08,1.5-.76,2.04-.46.41-1.44.63-1.9.63-.11,0-.3-.03-.41-.11-.11-.08-.46-.68-.54-.79-.16-.22-1.22-1.28-1.22-1.33,0-.08.16-.08.27-.08.19,0,1.25.05,1.5.05,1.22,0,1.3-.05,1.3-1.77,0-.49,0-.9-.79-.9h-5.74c-.79,0-.79.44-.79,1.06,0,.41.08,2.45.08,2.64,0,.35,0,.71-.25.87-.11.11-.54.44-1.09.44s-.62-.35-.62-.68c0-.46.11-2.75.11-3.26,0-.87-.19-1.03-.87-1.03-.16,0-1.01.11-1.11.11-.08,0-.14-.08-.25-.19l-.52-.63q-.11-.14-.11-.16c0-.08.05-.08.08-.08.05,0,1.58.14,1.88.14.9,0,.95-.35.95-.9,0-1.52-.03-4.16-.27-5.47-.03-.14-.25-.87-.25-1.03,0-.05,0-.19.11-.19.27,0,.76.22,1.77.63.54.24.98.24,1.25.24h1.01c.35,0,.6-.08.6-.71,0-1.36,0-1.74-.82-1.74h-2.18c-.62,0-1.96,0-2.77.08-.08,0-.49.05-.57.05-.11,0-.16-.05-.24-.16l-.52-.63q-.14-.14-.14-.19c0-.05.08-.05.11-.05.08,0,.54.03.62.05.35.03,1.39.11,3.1.11.76,0,.84-.19.84-1.69,0-.87-.44-.87-1.09-.87-.25,0-1.6.11-1.77.11-.11,0-.16-.05-.25-.19l-.54-.63q-.11-.14-.11-.16c0-.05.05-.08.11-.08.35,0,2.09.16,2.5.16.9,0,1.12-.11,1.12-.92,0-1.03,0-1.44-.76-1.44-.24,0-1.96.03-2.23.05-.08,0-.38.05-.46.05s-.14-.05-.25-.19l-.52-.62q-.11-.14-.11-.16c0-.05.05-.08.08-.08.41,0,2.37.16,2.83.16,1.09,0,1.28-.05,1.28-.65,0-.05,0-.27-.03-.54-.03-.16-.25-.92-.25-1.09,0-.22.14-.24.35-.24.05,0,2.07.22,2.07.6,0,.11-.03.14-.3.49-.05.05-.19.38-.19.76,0,.71.6.71.82.71h1.71c.19,0,.71,0,.71-.73,0-.22-.03-.44-.08-.71-.03-.14-.19-.73-.19-.9,0-.19.14-.27.38-.27.22,0,2.23.33,2.23.82,0,.11-.08.16-.35.41-.19.14-.25.33-.25.68,0,.65.41.71.79.71.43,0,.65-.08.95-.46.52-.71.6-.79.82-.79.35,0,1.79,1.09,1.79,1.58,0,.41-.52.41-1.47.41h-2.07c-.71,0-.82.33-.82.82,0,1.39,0,1.55.46,1.55.14,0,.33-.08.43-.25.6-.84.65-.95.92-.95.33,0,2.04,1.17,2.04,1.58s-.49.41-1.47.41h-1.52c-.68,0-.84.33-.84.76,0,1.6,0,1.85.9,1.85,1.14,0,1.25,0,1.66-.46.24-.3.62-.73.9-.73.22,0,1.93,1.12,1.93,1.52,0,.38-.54.38-1.47.38h-5.19ZM67.84,146.26c-.84,0-.84.41-.84,1.41,0,.73,0,1.22.82,1.22h1.2c.79,0,.79-.52.79-.92,0-1.3,0-1.71-.84-1.71h-1.12ZM67.87,149.61c-.76,0-.79.46-.79.87,0,1.47.03,1.85.84,1.85h1.06c.84,0,.84-.35.84-1.63,0-.6,0-1.09-.82-1.09h-1.14ZM69.44,136.64c-.82,0-.82.46-.82,1.17,0,.82,0,1.25.82,1.25h1.71c.82,0,.82-.46.82-1.17,0-.79,0-1.25-.82-1.25h-1.71ZM69.47,139.79c-.76,0-.82.46-.82.87,0,1.33,0,1.74.84,1.74h1.66c.82,0,.82-.46.82-1.25,0-.95,0-1.36-.82-1.36h-1.69ZM72.22,146.26c-.82,0-.82.52-.82,1.01,0,1.2,0,1.63.82,1.63h1.41c.79,0,.84-.41.84-1.28,0-.95-.05-1.36-.84-1.36h-1.41ZM72.25,149.61c-.73,0-.79.44-.79.87,0,1.5,0,1.85.82,1.85h1.41c.79,0,.79-.3.79-1.55,0-.71,0-1.17-.79-1.17h-1.44Z"/>
      <path class="cls-1" d="M57.89,182.26c.57,1.98.62,2.2.62,2.69,0,.82-.46,1.44-1.2,1.44-1.01,0-1.06-.9-1.14-2.09-.24-3.48-.79-3.86-1.77-4.32-.14-.05-.92-.33-.92-.35,0-.08,1.71-.49,1.96-.68.87-.65,3.4-8.29,3.67-8.29.08,0,.05.08.05.16,0,.76-1.66,7.23-1.66,8.62,0,1.09.08,1.77.38,2.83ZM56.85,171.74c-.52,0-.62-.14-1.25-1.41-.16-.33-.57-.95-1.2-1.55-.19-.16-.54-.49-.54-.57s.24-.08.33-.08c1.41,0,3.62,1.06,3.62,2.39,0,.46-.14,1.22-.95,1.22ZM58.73,165.92c-.41,0-.52-.14-1.52-1.47-.73-1.01-1.06-1.36-1.41-1.69-.03-.03-.46-.41-.46-.54,0-.08.11-.08.16-.08.11,0,1.44.27,2.04.52,1.2.49,2.15,1.2,2.15,2.28,0,.44-.35.98-.95.98ZM67.7,183.3c0,.19-.08.22-.82.49-.65.24-3.32,1.74-3.97,2.01-.98.41-2.8,1.06-3.29,1.06-.08,0-.22-.03-.22-.11,0-.05,1.98-1.22,2.34-1.47.84-.57,2.56-1.93,3.18-2.72.38-.46.57-.71.82-.71.19,0,.27.05,1.03.57.14.08.92.52.92.87ZM75.94,165.59c.22,0,.49-.03.71-.41.16-.3.27-.38.41-.38.33,0,2.07,1.58,2.07,2.04,0,.35-.6.54-1.03.54-.65,0-1.06.08-1.55.57-.08.08-.82.76-.92.76-.05,0-.11-.11-.11-.16,0-.24.68-1.55.68-1.88,0-.35-.27-.38-.54-.38h-11.75c-.52,0-.71.08-.79.44-.22,1.09-.52,2.42-1.66,2.42-.43,0-.92-.41-.92-1.03,0-.38.11-.57.57-1.31.33-.54.6-1.09.84-2.18.05-.22.16-.82.25-.82s.35.27.6.95c.3.76.3.82.9.82h3.94c.35,0,.79,0,.79-.79,0-.27-.14-1.17-.19-1.47-.03-.14-.27-.84-.27-1.01s.11-.24.3-.24c.16,0,1.39.24,1.79.33.98.19,1.09.22,1.09.54,0,.16-.19.33-.6.73-.25.24-.22,1.03-.22,1.14,0,.76.46.76.76.76h4.87ZM65.18,181.15c-.35,0-.52.03-.79.44-.19.24-.38.52-.92.52-.65,0-.82-.44-.82-.79,0-.25.08-1.36.11-1.58,0-.49.03-3.26.03-3.45,0-.79-.03-1.66-.08-2.45-.03-.25-.16-1.22-.16-1.44,0-.11,0-.27.14-.27.35,0,1.28.57,1.88.92.38.24.6.24.84.24h2.28c.57,0,.76-.19.76-.92,0-1.85,0-2.04-.84-2.04-.6,0-1.96,0-2.5.08-.05,0-.33.05-.38.05-.11,0-.16-.08-.24-.19l-.52-.63c-.08-.05-.14-.14-.14-.19,0-.03.05-.05.11-.05.19,0,1.03.08,1.2.11,1.25.05,2.47.08,3.73.08h1.74c1.17,0,1.3,0,1.63-.33.16-.19.84-1.14,1.06-1.14s2.2,1.58,2.2,1.82c0,.38-.54.38-1.44.38h-3.15c-.79,0-.79.19-.79,2.01,0,.65.08.95.79.95h3.26c.38,0,.71-.03.92-.27.41-.46.46-.49.6-.49.11,0,1.93,1.01,1.93,1.41,0,.22-.05.27-.62.65-.25.16-.27,1.47-.27,1.77,0,.33.03,2.99.05,3.29,0,.22.08.95.08,1.33,0,.87-.46,1.55-1.22,1.55-.49,0-.76-.22-.84-.63-.08-.52-.14-.76-.82-.76h-8.78ZM67.68,176.77c.76,0,.76-.35.76-1.39s0-1.39-.76-1.39h-2.39c-.76,0-.76.35-.76,1.41s0,1.36.76,1.36h2.39ZM65.28,177.5c-.76,0-.76.38-.76,1.5s0,1.44.76,1.44h2.37c.76,0,.76-.38.76-1.52,0-1.06,0-1.41-.76-1.41h-2.37ZM74.15,176.77c.79,0,.79-.49.79-.92,0-1.58,0-1.85-.79-1.85h-3.29c-.79,0-.79.52-.79.92,0,1.6,0,1.85.79,1.85h3.29ZM74.15,180.44c.73,0,.73-.65.73-.98,0-1.58,0-1.96-.73-1.96h-3.29c-.76,0-.76.65-.76.98,0,1.58,0,1.96.76,1.96h3.29ZM76.98,186.83c-.52,0-.84-.38-1.55-1.2-1.17-1.33-2.53-2.28-3.37-2.77-.11-.05-.46-.22-.46-.3,0-.11.16-.11.27-.11.63,0,5.55.87,6.01,3.26.11.49-.35,1.11-.9,1.11Z"/>
      <path class="cls-1" d="M77.36,196.67c-.54,0-.65-.19-1.55-1.82-.54-.95-1.25-1.9-2.86-2.91-.08-.05-.38-.22-.38-.33,0-.08.08-.19.3-.19.95,0,5.57,1.41,5.57,3.97,0,.65-.54,1.28-1.09,1.28Z"/>
      <path class="cls-1" d="M65.83,209.51c-3.97,5.76-11.07,9.79-11.88,9.79-.05,0-.11-.05-.11-.11,0-.03,1.01-.79,1.09-.84,5.76-4.3,9.71-10.5,9.84-11.61.08-.52.16-.57.35-.57.22,0,.41.11,2.07.76.52.22.76.41.76.68,0,.11-.25.57-.25.68,0,.38,2.23,2.99,4.21,4.54,2.72,2.12,5.22,2.94,7.23,3.48.14.03.6.14.6.19s-.84.41-1.01.49c-.92.54-1.2.87-1.5,1.31-.05.08-.19.19-.35.19-.54,0-5.87-2.85-9.6-9.44-.08-.16-.3-.49-.54-.49-.27,0-.35.11-.92.95ZM70.48,221.36c1.12,0,1.33,0,1.69-.57.52-.9.6-1.01.84-1.01.43,0,2.17,1.6,2.17,1.93,0,.35-.16.35-1.44.35h-4.89c-.73,0-.87.3-.87.92,0,.44.05,2.31.05,2.69,0,.82,0,2.28.05,2.42.16.33.54.33.79.33h4.3c1.11,0,1.25,0,1.47-.19.25-.22,1.17-1.41,1.47-1.41.33,0,2.37,1.66,2.37,1.96,0,.35-.57.35-1.47.35h-17.48c-.62,0-2.47,0-3.43.08-.11,0-.49.05-.6.05-.08,0-.14-.05-.22-.16l-.54-.62c-.05-.05-.11-.14-.11-.19,0-.03.03-.05.11-.05.19,0,1.06.08,1.22.11.62.03,2.61.08,2.88.08.82,0,.82-.3.82-3.02,0-.71-.03-3.64-.05-4.24-.03-.19-.3-1.09-.3-1.28,0-.3.25-.3.33-.3.05,0,2.85.44,2.85,1.06,0,.27-.16.38-.52.65-.19.14-.3.27-.35.52-.08.38-.08,3.29-.08,3.92,0,.38,0,2.18.08,2.37.16.33.6.33.82.33h2.72c.24,0,.62-.05.73-.52.05-.19.14-6.55.14-7.31,0-3.24-.08-3.86-.27-4.46-.05-.14-.43-.79-.43-.92,0-.16.22-.19.35-.19.19,0,1.6.22,2.91.63.35.11.46.24.46.46,0,.35-.3.57-.54.73-.49.3-.49.52-.49,2.47,0,1.41,0,1.55.05,1.71.14.33.6.33.79.33h1.63Z"/>
      <path class="cls-1" d="M69.34,252.28c-.38,0-.68,0-.68.27,0,.25.11.3.98.95,3.15,2.37,6.69,3.26,9.22,3.59.65.08.73.08.73.24s-.14.19-.57.3c-.73.22-1.25.9-1.47,1.36-.08.19-.27.52-.35.52-.22,0-1.06-.35-1.33-.46-4.02-1.66-6.06-3.7-7.48-5.44-.62-.76-.65-.82-.79-.82-.22,0-.25.24-.25.33,0,.11.03.92.03,1.09,0,.52.03,3.02.03,3.59,0,.98,0,1.2-.27,1.5-.38.41-.87.54-1.22.54-.33,0-.6-.08-.6-.68,0-.05.14-2.09.16-2.5.03-.71.03-1.58.03-2.28,0-.11,0-.35-.22-.35-.11,0-.54.33-.65.41-5.28,3.89-10.01,5-10.44,5-.05,0-.19-.03-.19-.14,0-.08.54-.33.57-.35,4.68-2.07,8.97-5.85,8.97-6.39,0-.27-.27-.27-.46-.27h-3.59c-.9,0-2.58,0-3.29.05-.08,0-.62.08-.73.08-.08,0-.14-.05-.24-.19l-.52-.63q-.11-.14-.11-.16c0-.05.05-.08.08-.08.19,0,1.01.11,1.2.11.79.03,2.61.08,3.75.08h5.33c.57,0,.57-.24.57-1.52,0-.3-.03-.62-.68-.62h-1.96c-1.01,0-2.67,0-3.26.05-.08,0-.65.08-.73.08-.11,0-.14-.05-.25-.16l-.54-.65q-.11-.14-.11-.16c0-.05.05-.08.11-.08.16,0,1.01.11,1.2.11.76.03,2.5.08,3.73.08h1.71c.79,0,.79-.33.79-1.33,0-.57,0-1.14-.71-1.14h-3.29c-.65,0-2.5,0-3.45.08-.08,0-.49.05-.57.05s-.14-.05-.25-.19l-.52-.63q-.11-.14-.11-.16c0-.05.05-.08.08-.08.16,0,1.01.11,1.2.11.79.03,2.2.08,3.73.08h1.01c.14,0,.3,0,.3-.22,0-.41-.76-2.18-1.12-2.77-.54-.9-.9-.95-1.41-.95h-.68c-1.09,0-2.91.03-3.43.08-.11,0-.49.05-.6.05-.08,0-.14-.05-.22-.16l-.54-.63q-.11-.14-.11-.19c0-.05.05-.05.08-.05.19,0,1.01.08,1.2.08.79.03,2.2.11,3.75.11.41,0,.57,0,.57-.33,0-.38-.71-1.69-1.09-2.2-.16-.19-1.11-1.11-1.11-1.11,0-.08.11-.19.27-.19.68,0,3.62.79,3.62,2.56,0,.16-.03.35-.19.68-.14.22-.14.27-.14.38,0,.22.22.22.3.22h.82c.6,0,.6-.49.6-.73,0-.49-.03-2.42-.05-3.15-.03-.24-.19-1.39-.19-1.66,0-.33.11-.33.27-.33.05,0,2.26.16,2.26.76,0,.11-.16.33-.27.44-.19.22-.25.44-.25,1.03,0,3.64.05,3.64.82,3.64h.98c.79,0,.79-.22.79-2.34,0-.73-.05-2.09-.08-2.58-.03-.08-.08-.52-.08-.6,0-.22.08-.38.27-.38.16,0,.35.05,1.88.49.16.05.43.24.43.49,0,.11-.05.16-.3.49-.3.35-.3.52-.3.95,0,1.55.03,1.69.05,3.07,0,.19.03.41.27.41.49,0,2.45-2.83,2.88-3.83.3-.71.33-.76.46-.76.05,0,2.07,1.09,2.07,1.6,0,.19-.05.19-.63.41-.05,0-.98.6-1.11.71-.27.16-2.34,1.47-2.34,1.71,0,.14.22.16.33.16h1.33c1.03,0,1.3-.03,1.58-.24.19-.14.98-1.17,1.22-1.17.3,0,2.34,1.47,2.34,1.74,0,.38-.54.38-1.47.38h-6.23c-.11,0-.3,0-.3.14,0,.11.05.14.6.46.9.52,1.01.57,1.01.84,0,.19-.11.27-.49.46-.63.35-1.82,1.44-1.82,1.79,0,.24.33.24.52.24h2.45c1.12,0,1.25,0,1.47-.19.19-.16.95-1.22,1.22-1.22.11,0,2.07,1.36,2.07,1.79,0,.35-.14.35-1.39.35h-7.59c-.82,0-.82.33-.82,1.39,0,.71,0,1.09.76,1.09h2.26c1.2,0,1.33,0,1.71-.44.79-.92.87-1.03,1.17-1.03.46,0,2.09,1.33,2.09,1.77s-.49.44-1.36.44h-5.96c-.68,0-.68.22-.68,1.47,0,.33,0,.68.65.68h5.52c.65,0,1.11,0,1.33-.08.25-.11,1.17-1.36,1.5-1.36.27,0,2.34,1.33,2.34,1.79,0,.38-.54.38-1.44.38h-7.94ZM62.48,241.51c-.05,0-.22,0-.22.14,0,.08.46.41.57.46,1.31.95,1.66,1.69,1.66,2.28,0,.27-.05.35-.19.71-.03.05-.05.14-.05.22,0,.14.19.14.3.14h3.02c.79,0,.95-.22,1.25-1.11.46-1.39.52-2.34.52-2.47,0-.27-.11-.35-.57-.35h-6.28Z"/>
      <path class="cls-1" d="M61.53,265.96c2.45,0,8.24-.49,8.84-.87.98-.65,1.09-.71,1.33-.71.54,0,3.15,1.74,3.15,2.45,0,.25-.08.33-.92.95-.49.35-.6.76-1.52,4.54-.05.25-.43,1.44-.43,1.6,0,.35.24.38.65.46.68.11,1.69.46,1.69,1.14,0,.73-1.25.73-1.47.73-.68,0-3.7-.19-4.32-.19-1.69,0-6.85.57-7.29.68-.16.03-.84.33-.98.33-.49,0-2.09-1.22-2.09-2.18,0-.11.11-.19.25-.19s.71.11.82.14c.6.08,1.06.08,1.39.08,1.88,0,9-.49,9.41-.71.33-.16.43-.49.62-1.85.33-2.39.57-4.76.57-5.3,0-.46-.11-.57-.41-.57-.84,0-7.59,1.09-8.65,1.33-.25.05-1.2.44-1.41.44-.6,0-2.53-1.66-2.53-2.2,0-.22.19-.27.33-.27.16,0,2.53.16,2.99.16Z"/>
      <path class="cls-1" d="M61.29,300.54c8.48-4.57,10.71-10.44,10.71-11.01,0-.33-.19-.52-.57-.52-.92,0-7.75,1.2-8.95,1.55-.19.05-1.06.46-1.25.46-1.17,0-3.1-2.34-3.1-3.1,0-.08.08-.14.16-.14s.41.19.49.22c.52.22,1.55.46,2.69.46,2.23,0,7.64-.71,8.65-.82.05,0,1.85-.16,1.88-.16.14-.05.65-.3.79-.3.46,0,2.39,1.6,2.39,2.23,0,.41-.11.52-.73,1.03-.46.38-.73.79-1.47,1.93-2.15,3.26-3.83,5.3-7.67,7.26-2.42,1.22-4.57,1.77-4.81,1.77-.22,0-.25-.16-.25-.22s.03-.14.05-.16c.05-.05.82-.41.98-.49ZM61.97,282.76c.44.11,1.06.11,1.44.11,1.28,0,3.07-.05,4.35-.3.41-.08,2.28-.54,2.67-.54.46,0,1.66.24,1.66,1.03,0,.84-.95.92-2.53,1.06-.44.05-6.28.57-6.47.57-1.44,0-2.26-1.85-2.26-2.04,0-.14.05-.19.16-.19.16,0,.82.27.98.3Z"/>
      <path class="cls-1" d="M56.64,320.15c0-.52.24-.79,1.03-1.28,1.06-.65,2.45-1.9,2.66-2.09.14-.14.44-.41.54-.41s.14.25.14.33c0,1.28-1.28,4.57-3.07,4.57-.22,0-.38-.05-.52-.11-.35-.11-.79-.46-.79-1.01ZM67.3,321.94c0,.41,0,2.2-1.44,2.2-.6,0-.65-.16-1.22-1.74-.33-.87-.46-1.09-1.01-1.93-.11-.19-.16-.24-.16-.33s.05-.11.11-.11c.19,0,1.09.35,1.28.35.35,0,.49-.3.54-.73.14-1.28.14-4,.14-5.47,0-1.31-.05-1.79-.79-1.79-.16,0-3.43.46-5.03.87-.16.05-.92.3-1.09.3-.6,0-1.96-1.85-1.96-2.39,0-.14.03-.24.19-.24.11,0,.16.03.52.16.62.27,2.01.27,2.42.27.62,0,3.56-.16,4.38-.19,1.03-.05,1.31-.24,1.31-1.14s-.16-2.69-.57-3.48c-.05-.14-.52-.57-.52-.71,0-.08.3-.27.92-.27,1.88,0,2.56,1.2,2.56,1.41,0,.16-.43.76-.49.9-.25.49-.25,1.82-.25,2.09,0,.84.35.98,1.06.98.87,0,2.18-.22,2.64-.27.35-.05,1.79-.41,2.09-.41.82,0,1.74.41,2.64.92.3.19.68.41.68.87,0,.52-.6.54-.71.54-.41,0-2.17-.3-2.56-.35-1.03-.11-3.02-.14-3.24-.14-2.34,0-2.58,0-2.58,1.55,0,1.31.14,7.1.14,8.27ZM73.85,319.98c-.46-1.14-1.31-2.56-2.2-3.34-.41-.38-1.09-1.01-1.09-1.14s.14-.14.19-.14c1.44,0,5.82,2.64,5.82,4.92,0,.63-.33,1.52-1.22,1.5-.76,0-1.01-.63-1.5-1.79ZM75.18,306.69c.84.52,1.2,1.17,1.2,1.55,0,.54-.33,1.06-.76,1.06-.33,0-.54-.11-1.47-1.09-.57-.6-.9-.79-2.04-1.47-.14-.08-.44-.27-.44-.38,0-.08.22-.27.46-.27,1.47,0,2.09,0,3.04.6ZM78.5,306.14c0,.33-.22.82-.68.82-.57,0-.92-.41-1.41-1.03-.46-.54-1.5-1.2-2.37-1.52-.27-.11-.35-.22-.35-.3,0-.19.49-.33,1.01-.33,2.26,0,3.81,1.2,3.81,2.37Z"/>
      <path class="cls-1" d="M60.01,341.52c.46,0,.71-.44,1.31-2.12.16-.46.24-.68.38-.68s.14.27.14.33c0,.3-.62,3.48-.62,4.13,0,.46.38,1.28.43,1.41.19.38.33.84.33,1.2,0,.54-.43.92-.9.92-1.69,0-2.94-4.62-2.94-7.23,0-1.74.22-2.53,1.14-5.93.46-1.66.46-2.34.46-2.83,0-.87-.16-1.6-.27-1.93-.03-.08-.16-.41-.16-.49s.11-.14.22-.14c1.25,0,2.39,2.47,2.39,3.45,0,.3,0,.33-.52,1.25-.3.57-2.09,4.57-2.09,7.02,0,.82.27,1.63.71,1.63ZM75.81,344.24c0,1.06-.82,1.39-4.62,1.39-2.67,0-3.67-.68-4.24-1.22-.14-.14-.84-.84-.84-1.36,0-.05,0-.27.14-.27.11,0,.54.33.65.38.79.41,1.9.46,2.91.46.71,0,1.69,0,2.37-.08.38-.03,2.28-.22,2.39-.22,1.03,0,1.25.6,1.25.92ZM74.53,331c0,1.33-3.02,1.33-3.34,1.33-3.07,0-4.76-1.66-4.76-2.01,0-.05.03-.14.19-.14.08,0,.41.11.76.19.62.14,1.36.16,1.85.16,1.33,0,2.61-.27,2.99-.41.82-.3.9-.33,1.17-.3.49.08,1.14.54,1.14,1.17Z"/>
      <path class="cls-1" d="M68.33,352.61c0,.24-.35,1.25-.41,1.47-.14.73-.25,1.69-.25,1.88,0,.35.03.44.33.44.27,0,.71-.08,1.14-.22.27-.11,1.52-.68,1.79-.68.71,0,1.71.76,1.71,1.2,0,.41-.65,1.06-2.88,1.06-.05,0-1.82,0-1.88.03-.22.05-.27.22-.27.73s.33,7.31.41,7.61c.11.41.27.49,1.69,1.09,1.69.73,3.45,1.5,3.45,2.37,0,.73-.57,1.09-.98,1.09-.49,0-1.79-.84-2.5-1.31-.41-.27-1.14-.68-1.55-.68-.27,0-.33.08-.68.84-1.06,2.26-3.45,2.42-4.21,2.42-2.5,0-4.68-1.63-4.68-3.18,0-1.77,2.61-2.94,5.71-2.94.24,0,1.22.08,1.41.08.41,0,.57-.05.57-.68,0-.68-.27-5.19-.27-5.87,0-.22-.03-5.76-.11-6.72-.05-.49-.27-1.09-.73-1.63-.03-.03-.16-.19-.16-.33,0-.11.19-.11.24-.11,2.26,0,3.1,1.88,3.1,2.04ZM63.35,367.24c-.27,0-3.56.03-3.56,1.52,0,.52.92,1.33,2.88,1.33,2.96,0,3.45-2.01,3.37-2.26-.11-.35-1.5-.6-2.69-.6Z"/>
      <path class="cls-1" d="M72.11,390.57c0-2.23-1.88-4.13-4.6-4.13-3.59,0-5.9,3.73-6.39,4.57-.54.92-.82,1.44-1.55,1.44-.65,0-.79-.54-.79-.76,0-.68.22-1.28,2.15-3.53,1.77-2.07,2.04-2.42,6.15-8.18.9-1.28,1.28-1.85,1.28-2.15,0-.19-.19-.38-.52-.38-1.01,0-2.61,1.36-3.07,1.74-1.09.9-1.47.98-1.93.98-1.28,0-2.12-1.74-2.12-1.88,0-.08.08-.08.65-.08,1.44,0,3.45-.65,4.21-.98,1.69-.73,1.88-.82,2.47-.82,1.09,0,2.86.68,2.86,1.88,0,.79-.63,1.22-1.93,2.12-1.96,1.39-4.35,5.11-4.35,5.57,0,.08.08.19.16.19.16-.05.52-.19.68-.24.87-.33,1.63-.44,2.39-.44,3.48,0,6.12,2.58,6.12,5.66,0,3.45-3.34,5.87-6.8,5.87-2.69,0-4.62-1.44-4.62-2.8,0-.98,1.14-2.2,2.69-2.2,1.28,0,2.34.76,3.1,1.74.38.49.54.73.92.73.92,0,2.83-1.66,2.83-3.92ZM65.12,393.02c-.65,0-1.14.52-1.14.95,0,.71,1.17,1.28,2.34,1.28.27,0,.46-.19.46-.49,0-.65-.65-1.74-1.66-1.74Z"/>
      <path class="cls-1" d="M13.76,9.98c.73,0,.98-.11,1.5-.82,1.58-2.12,1.77-2.99,1.77-3.18,0-.38-.27-.38-.54-.38H5.6c-.62,0-2.5,0-3.45.08-.08,0-.49.05-.57.05s-.14-.05-.24-.16l-.52-.63q-.11-.14-.11-.19c0-.05.03-.05.08-.05.19,0,1.03.08,1.22.08,1.22.05,2.45.11,3.7.11h4.98c.76,0,.76-.49.76-1.28,0-.6-.05-1.25-.11-1.58-.03-.08-.11-.41-.11-.49,0-.3.27-.3.35-.3.14,0,2.67.38,2.67.9,0,.19-.54.79-.6.92-.05.11-.11.25-.11.71,0,.6,0,1.11.82,1.11h5.22c1.3,0,1.5,0,2.04-.76.16-.22.6-.79.95-.79.57,0,2.17,1.63,2.17,1.88,0,.38-.46.38-1.22.38h-4.54c-.3,0-.35,0-.35.11,0,.08.05.11.54.38.33.16.6.33.6.57,0,.3-.3.38-.6.46-.46.14-.49.16-2.58,2.01-.62.54-.71.6-.71.68,0,.16.11.16.44.16h4.11c.6,0,.71-.05.92-.33.46-.6.52-.65.65-.65.22,0,2.23,1.31,2.23,1.77,0,.14-.03.3-.46.57-.54.35-.65.65-.65,2.04,0,.95.14,5.14.14,5.98,0,4-.08,5.03-.54,5.66-.49.68-1.5.82-1.85.82-.38,0-.38-.05-.44-.65-.05-.71-.49-.84-1.69-1.25-.52-.16-.57-.19-.57-.33s.14-.19.33-.19,1.01.08,1.17.08c.79,0,1.22,0,1.44-.57.22-.57.22-5.66.22-6.74,0-.95-.03-4.76-.11-5-.11-.46-.44-.49-.79-.49h-4.27c-.82,0-.82.33-.82,1.33,0,1.79,0,1.93,1.47,1.93,1.14,0,1.79,0,2.12-1.2.16-.65.19-.73.33-.73.11,0,.3.19.38.82.03.24.11.68.38.95.3.27.33.33.33.44,0,.27-.33.9-.98,1.14-.6.24-.95.27-2.23.27-2.91,0-3.56-.14-3.56-2.83,0-1.9,0-2.12-.87-2.12h-1.66s-.11.03-.11.08c0,.03.92,1.2.92,1.47,0,.16-.03.19-.76.35-.35.08-1.28,1.5-1.5,1.74-1.6,1.77-3.53,2.56-3.83,2.56-.14,0-.24-.08-.24-.16s1.06-.95,1.25-1.14c.35-.38,2.23-2.56,2.23-4.27,0-.6-.44-.63-.73-.63h-3.48c-.79,0-.79.46-.79.95,0,.11-.03,8.24-.03,9.79,0,.49.11,2.61.11,3.05,0,.46,0,1.41-1.39,1.41-.76,0-.76-.46-.76-.73,0-.19.11-1.79.11-2.15.11-4.57.11-6.12.11-7.18,0-.98,0-3.24-.14-5.38,0-.19-.16-1.03-.16-1.22,0-.14.16-.14.19-.14.24,0,1.14.54,1.33.63.35.19.71.27,1.28.27h2.94c.19,0,.38,0,.38-.33s-.49-1.6-.79-2.12c-.14-.27-1.03-1.41-1.03-1.71,0-.08.11-.08.14-.08.49,0,3.37,1.33,3.37,2.58,0,.57-.27,1.09-.3,1.11-.16.27-.19.3-.19.38,0,.16.16.16.35.16h4.24ZM10.58,22.35c-.57,0-.65.16-.71.52-.05.49-.14,1.2-1.22,1.2-.49,0-.65-.16-.65-.65,0-.54.05-3.21.05-3.81,0-.41-.11-2.42-.11-2.5,0-.14,0-.19.19-.19.27,0,.35.05,1.17.35.49.16.73.19,1.17.19h3.89c.46,0,.65-.03.92-.24.11-.08.57-.54.71-.54.05,0,1.85.65,1.85,1.25,0,.19-.05.24-.57.68-.16.11-.24.27-.24.87,0,.03.05,2.85.05,3.4,0,.79-1.01.84-1.2.84-.76,0-.76-.3-.79-.92,0-.44-.44-.44-.71-.44h-3.81ZM10.55,18.19c-.79,0-.79.41-.79,1.22,0,1.99,0,2.2.79,2.2h3.89c.79,0,.82-.33.82-1.9,0-1.14,0-1.52-.79-1.52h-3.92Z"/>
      <path class="cls-1" d="M4.68,52.29c-.3,0-.76,0-.82.52-.05.52-.14,1.47-1.41,1.47-.6,0-.79-.38-.79-.98,0-.82.16-4.79.16-5.68,0-.33,0-2.01-.08-2.88-.03-.22-.14-1.25-.14-1.33,0-.19.03-.24.19-.24.22,0,.76.19,1.71.63.41.19.65.22,1.12.22h3.51c1.25,0,1.41.03,1.63-.33.35-.54.38-.6.6-.6s2.09.95,2.09,1.52c0,.22-.27.41-.6.68-.38.33-.38.87-.38,1.63,0,.71.08,4.21.08,5,0,.63,0,1.66-1.17,1.66-.71,0-.76-.49-.82-.9-.05-.38-.41-.38-.76-.38h-4.13ZM8.92,51.58c.71,0,.73-.57.73-.76v-5.28c0-.82-.46-.82-.95-.82h-4.24c-.68,0-.82.3-.82.9,0,.73.16,4.05.16,4.73,0,.79,0,1.22.79,1.22h4.32ZM15.8,31.92c1.25,0,1.39,0,1.6-.33.41-.63.46-.71.71-.71.27,0,1.85,1.09,1.85,1.58,0,.27-.08.33-.54.6-.3.19-.3.49-.3.79,0,.79.16,4.4.16,4.92,0,.54,0,1.47-1.22,1.47-.25,0-.68-.05-.73-.44-.05-.6-.08-.71-.73-.71h-8.02c-.41,0-.54.03-.65.43-.16.54-.27.98-1.2.98-.87,0-.9-.41-.9-.79,0-.54.14-3.18.14-3.78,0-.84,0-3.43-.16-4.02-.03-.11-.27-.63-.27-.76s.14-.16.22-.16c.22,0,.84.19,2.12.76.38.16.68.16.95.16h6.99ZM16.59,38.39c.73,0,.79-.44.79-.87,0-.27-.03-4.08-.05-4.27-.05-.6-.57-.6-.82-.6h-7.83c-.82,0-.84.44-.84,1.03,0,1.33,0,3.29.05,4.02.03.68.54.68.84.68h7.86ZM16.64,52.29c-.22,0-.68,0-.73.63-.03.6-.08,1.36-1.33,1.36-.57,0-.79-.38-.79-.98,0-.82.19-4.81.19-5.74,0-.22,0-2.12-.08-2.96-.03-.19-.16-1.17-.16-1.39,0-.19.05-.22.22-.22.44,0,1.01.27,1.55.54.41.19.71.27,1.25.27h3.26c1.28,0,1.41,0,1.63-.35.33-.52.38-.57.54-.57.11,0,2.26.98,2.26,1.66,0,.24-.05.3-.65.76-.33.27-.33.82-.33,1.33,0,.76.11,4.46.11,5.27,0,.65,0,1.74-1.41,1.74-.65,0-.65-.35-.68-.82,0-.05-.03-.54-.65-.54h-4.19ZM16.59,44.51c-.82,0-.82.41-.82,1.11s.08,3.64.08,4.27c0,1.47,0,1.69.79,1.69h4.16c.68,0,.79-.3.79-.98,0-.79-.08-4.27-.08-4.98s0-1.11-.79-1.11h-4.13Z"/>
      <path class="cls-1" d="M8.46,60.66c.33,0,.49,0,.76-.3.16-.19.49-.65.79-.65.43,0,1.63,1.25,1.63,1.71,0,.16-.03.22-.49.68-.27.27-.27.92-.27,1.33,0,.57.08,3.4.08,4.05,0,1.33-1.01,1.36-1.2,1.36-.57,0-.65-.38-.79-1.14-.08-.44-.46-.44-.87-.44h-3.51c-.92,0-.92.22-.92,1.06,0,3.7.03,9.63.03,13.32,0,.52,0,1.82-1.2,1.82-.79,0-.79-.68-.79-.95,0-.08.05-.73.05-1.06.25-6.93.25-7.4.25-13.73,0-3.26-.05-4.32-.08-4.98-.03-.3-.16-2.5-.16-2.58,0-.11,0-.27.11-.27.49,0,1.09.35,1.33.49.46.27.65.27,1.03.27h4.21ZM4.38,64.31c-.71,0-.71.14-.71,1.06,0,1.09,0,1.2.71,1.2h4.05c.71,0,.71-.16.71-1.01,0-1.14,0-1.25-.71-1.25h-4.05ZM8.4,63.6c.76,0,.76-.05.76-1.25,0-.84,0-.95-.76-.95h-3.94c-.76,0-.76.05-.76,1.25,0,.82,0,.95.76.95h3.94ZM16.26,70.94c-.71,0-1.01,0-1.01.73v2.23c0,.3.03.63.43.63h.95c.24,0,.52,0,.82-.44.62-.84.68-.92.95-.92.41,0,1.79,1.33,1.79,1.71,0,.35-.57.35-1.44.35h-2.64c-.63,0-.87.08-.87.76v5c0,.95-.79,1.36-1.28,1.36-.57,0-.57-.33-.57-.9,0-.79.22-4.62.22-5.49,0-.71-.35-.73-.87-.73h-.95c-.65,0-.87.03-.92.65-.16,1.39-.44,2.96-2.07,4.89-1.12,1.31-2.12,1.82-2.26,1.82-.08,0-.19-.08-.19-.16,0-.05.05-.11.41-.49,1.41-1.55,2.56-4.3,2.56-6.2,0-.38-.19-.52-.54-.52-.38,0-1.6,0-2.42.08-.08,0-.49.05-.57.05-.11,0-.16-.05-.24-.16l-.54-.63q-.11-.14-.11-.19c0-.05.05-.05.11-.05.54,0,3.24.19,3.83.19.43,0,.6-.16.6-.6v-2.26c0-.35-.05-.71-.71-.71-.24,0-1.55.11-1.74.11-.08,0-.14-.05-.24-.16l-.52-.63q-.11-.14-.11-.19c0-.05.05-.05.08-.05.19,0,1.01.08,1.2.08.79.03,2.2.11,3.75.11h3.43c1.17,0,1.41-.03,1.74-.44.54-.73.62-.82.87-.82.35,0,1.71,1.17,1.71,1.6,0,.35-.57.35-1.44.35h-1.2ZM12.75,74.53c.54,0,.82,0,.87-.38v-2.42c0-.76-.08-.79-.87-.79h-.9c-.68,0-.87,0-.87.65v2.28c0,.65.22.65.87.65h.9ZM20.72,60.66c.35,0,.57,0,.92-.44.33-.38.49-.6.65-.6.41,0,1.82.98,1.82,1.74,0,.19-.11.27-.14.3-.46.35-.54.44-.63.65-.08.27-.11,2.77-.11,3.89-.03,1.93.03,11.42.03,13.57,0,1.88-.22,2.77-1.03,3.24-.49.27-1.17.49-1.44.49-.22,0-.27-.05-.65-.73-.14-.27-1.39-1.28-1.39-1.31,0-.08.16-.08.22-.08.3.03.79.03,1.09.03,1.17,0,1.33-.16,1.33-1.93,0-1.6.05-9.54.05-11.34,0-.71-.3-.73-.9-.73h-3.83c-.82,0-.84.16-.9.71-.08.73-1.06.87-1.22.87-.33,0-.68-.11-.68-.87v-4.87c0-.44-.14-2.42-.14-2.88,0-.11.05-.44.3-.44.3,0,.52.11,1.41.54.38.19.52.19.84.19h4.38ZM16.51,61.4c-.79,0-.79.05-.79,1.12,0,.98,0,1.03.79,1.03h4.19c.41,0,.79,0,.79-.49,0-.46,0-1.31-.05-1.41-.08-.25-.33-.25-.73-.25h-4.19ZM16.53,64.28c-.54,0-.73,0-.79.35-.03.11-.03,1.31-.03,1.47,0,.6.22.6.82.6h4.13c.79,0,.79-.03.79-1.03,0-1.25,0-1.39-.79-1.39h-4.13Z"/>
      <path class="cls-1" d="M5.66,98.54c-.05-.08-.14-.14-.27-.14-.16,0-1.6,1.09-1.93,1.31-2.01,1.28-2.94,1.58-3.13,1.58-.11,0-.16-.03-.16-.11,0-.05,1.39-1.03,1.63-1.25,1.2-.95,3.94-3.34,3.94-4.13,0-.38-1.6-2.53-2.09-3.15-.19-.25-.6-.73-.76-.95,0-.11.08-.11.16-.11.57,0,2.83.54,3.45,1.82.05.14.22.95.38.95.3,0,2.04-3.48,2.04-4.19,0-.41-.38-.41-.68-.41h-1.17c-.79,0-2.12,0-3.21.05-.08,0-.73.08-.79.08-.11,0-.16-.05-.25-.19l-.52-.62c-.11-.11-.14-.14-.14-.16,0-.05.05-.05.11-.05.16,0,1.01.08,1.2.08.79.03,2.18.03,3.73.08l1.01.03c.71.03,1.01-.14,1.28-.54.49-.68.52-.73.73-.73.24,0,2.04,1.14,2.04,1.6,0,.27-.19.44-.46.57-.54.3-.68.44-.92.9-1.39,2.53-2.07,3.83-3.59,5.55-.25.24-1.47,1.52-1.47,1.6,0,.16.27.16.62.19,1.09.05,2.91.11,3.94.11h4.24c.44,0,.82-.03,1.2-.65.44-.68.49-.76.71-.76.44,0,1.88,1.31,1.88,1.69,0,.44-.49.44-1.09.44-1.09,0-1.22,0-1.31.24-.05.14-.05,2.28-.05,2.61,0,1.17,0,1.47.79,1.47h1.47c1.2,0,1.33,0,1.6-.22.19-.16.98-1.31,1.28-1.31.35,0,2.09,1.52,2.09,1.9,0,.33-.14.33-1.33.33h-5.08c-.87,0-.87.27-.87,1.82s0,2.94.3,3.51c.41.79,2.37.79,3.29.79,2.64,0,2.8-.46,3.24-2.15.24-1.01.27-1.11.38-1.11.14,0,.14.11.19.52,0,.14.14,1.14.38,1.41.63.65.79.79.79,1.17,0,.33-.33,1.06-1.28,1.47-.9.41-3.29.41-4.49.41-3.32,0-4.65-.41-4.65-3.75,0-.52.08-2.96.08-3.15,0-.46-.05-.92-.76-.92h-2.58c-.52,0-.79.03-.9.6-.38,1.82-.87,4.32-3.72,6.12-1.71,1.09-4.13,1.69-4.27,1.69-.11,0-.22-.05-.22-.14s.05-.11.52-.33c1.06-.52,2.17-1.31,3.1-2.09,2.42-2.01,2.83-5.22,2.83-5.3,0-.54-.41-.54-.68-.54h-.87c-.76,0-2.12,0-3.21.05-.08,0-.73.08-.79.08-.11,0-.16-.05-.25-.16l-.52-.63c-.11-.14-.14-.16-.14-.19,0-.05.05-.05.11-.05.16,0,1.01.08,1.2.08.79.03,2.18.11,3.73.11h.9c.79,0,.9-.03.9-3.1,0-.87,0-1.2-.54-1.2-.25,0-1.52.11-1.71.11-.11,0-.16-.05-.24-.16l-.35-.44ZM13.41,103.33c.76,0,.76-.3.76-1.69,0-.33,0-2.01-.03-2.18-.11-.38-.38-.46-.79-.46h-2.28c-.71,0-.79.38-.79.79,0,.46-.11,2.47-.11,2.88,0,.35.08.65.76.65h2.47ZM22.92,93.51c-.76,0-4.32,1.5-4.32,1.98,0,.54,4.49,2.88,6.53,3.4.35.08.46.11.46.19,0,.16-.22.16-.3.16-.22.03-.87.19-1.99.76-.11.05-.73.54-.9.54-.41,0-3.92-1.9-6.53-5.41-2.09-2.77-2.99-6.47-2.99-6.66,0-.05,0-.14.08-.14.11,0,.76,1.47.92,1.74.27.49.98,1.79,1.36,1.79.41,0,1.93-1.96,2.58-3.34.35-.73.35-.76.6-.76.41,0,2.37,1.36,2.37,1.82,0,.19-.3.27-.84.44-.49.14-4.32,2.01-4.32,2.56,0,.19,1.69,2.42,2.26,2.42s2.96-2.56,3.51-3.56c.16-.3.27-.52.49-.52.33,0,2.42,1.79,2.17,2.31-.14.27-.27.27-1.14.27Z"/>
      <path class="cls-1" d="M8.84,118.88c0-.41-.14-.82-.38-1.2-.08-.14-.52-.65-.52-.76,0-.33.57-.57,1.11-.57,1.09,0,1.52.6,1.96,1.2.14.19.41.3,1.22.52.52.14,1.55.44,1.55,1.2,0,1.03-1.52,1.52-3.72,2.18-.25.08-.27.16-.52,1.11-.33,1.36-2.67,10.55-5.17,10.55-.73,0-.84-.49-.84-.76,0-.38.08-.52.9-1.69,2.96-4.35,3.75-8.73,3.75-8.86,0-.25-.19-.27-.6-.3-3.21-.27-3.21-2.18-3.21-2.2,0-.11.03-.33.19-.33.11,0,.19.03.73.35.3.19,1.06.57,2.09.57.05,0,1.01,0,1.2-.16s.25-.6.25-.84ZM16.67,135.9c-.35,2.37-2.42,2.96-3.83,2.96-2.58,0-4.11-1.79-4.11-3.15,0-1.77,1.93-2.69,4.38-2.69.22,0,1.22.05,1.41.05.25,0,.38-.03.38-.3,0-.41-.11-2.23-.11-2.61,0-2.99.16-4.43,2.45-5.74,1.69-.98,1.88-1.06,1.88-1.77,0-.6-.6-1.22-.76-1.39-.25-.22-.35-.33-.35-.43,0-.08.08-.14.19-.14.19,0,1.03.24,1.6.46,1.88.71,1.98,2.37,1.98,2.77,0,1.03-.73,1.41-1.28,1.41-.03,0-.35,0-.63-.11-1.03-.38-1.14-.44-1.47-.44-.65,0-1.55.38-1.99.82-.62.6-.65,1.58-.65,2.26s.27,4.89,1.09,5.47c.25.19,1.52.63,1.77.76.57.3,2.15,1.17,2.15,2.18,0,.46-.19.95-.73.95-.27,0-.43-.08-.84-.44-.73-.65-1.99-1.5-2.37-1.33-.11.05-.11.16-.16.44ZM12.75,134.35c-.62,0-3.07,0-3.07,1.44,0,.65.82,1.47,2.45,1.47,2.64,0,3.02-2.07,2.85-2.5-.14-.41-1.6-.41-2.23-.41ZM12.02,118.8c0-.19-.95-.68-1.11-.68-.46,0-.65,1.11-.65,1.2,0,.05.03.14.05.16.08.08,1.71-.27,1.71-.68Z"/>
      <path class="cls-1" d="M8.59,156.1c.82-.79,1.17-1.11,1.17-1.47,0-.08-.22-.73-.24-.84-.35-1.09-.46-1.77-.46-3.18,0-.63.14-3.78.14-4.49,0-1.36-.41-1.77-.82-2.2-.57-.6-.65-.68-.65-.76,0-.11.62-.14.71-.14,1.63,0,2.96,1.28,2.96,2.04,0,.24-.33,1.47-.38,1.74-.22,1.25-.24,2.58-.24,2.96,0,1.47,0,2.56.16,3.24.03.08.19.6.54.6.38,0,.54-.11,1.99-1.01.3-.19,2.01-1.28,2.83-1.28.6,0,1.01.52,1.01,1.01,0,.79-1.06,1.22-2.09,1.63-6.58,2.61-7.5,4.62-7.5,6.36,0,1.93,1.79,2.5,3.89,2.5,1.36,0,2.45-.24,3.29-.49,1.22-.33,1.52-.38,2.04-.38.92,0,1.79.63,1.79,1.31,0,1.39-5.55,1.52-6.96,1.52-1.28,0-5.22,0-5.22-4.27,0-.76.19-2.64,2.07-4.4ZM19.63,148.71c0,.35-.3,1.03-.82,1.03-.41,0-.6-.22-1.39-1.28-.46-.6-.76-.87-1.82-1.71-.11-.08-.38-.3-.38-.41,0-.14.24-.22.46-.22,2.34,0,3.94,1.58,3.94,2.58ZM22.49,145.99c0,.33-.22.82-.71.82-.57,0-.92-.46-1.39-1.06-.43-.57-1.47-1.25-2.31-1.6-.27-.11-.35-.24-.35-.33,0-.11.27-.3,1.03-.3,1.71,0,3.72,1.03,3.72,2.47Z"/>
      <path class="cls-1" d="M8.7,177.18c-.41.14-1.79,1.96-1.79,2.2,0,.11.05.19.33.38.22.14.3.24.3.38,0,.11-.3.49-.35.57-.08.19-.08.49-.08.71,0,1.06-.11,5.82-.11,6.8,0,.6.03,3.32.03,3.89,0,.3,0,1.71-1.44,1.71-.41,0-.84-.11-.84-.65,0-.22.16-1.71.19-1.96.05-1.03.27-6.82.27-8.16s0-1.47-.19-1.47c-.11,0-.73.63-.82.71-.84.79-3.53,3.4-4.02,3.4-.05,0-.16,0-.16-.11,0-.19.71-1.01.92-1.28.71-.82,4.11-5.08,5.47-7.53.57-1.01.62-1.17.79-1.55.05-.14.14-.3.33-.3.14,0,2.23,1.2,2.12,1.71-.05.22-.14.24-.92.54ZM8.73,170.81c0,.27-.3.33-.52.38-.46.08-.57.19-1.58,1.14-2.47,2.37-5.33,4.19-5.55,4.19-.16,0-.19-.11-.19-.16,0-.19,1.55-1.66,1.82-1.98,1.66-1.9,2.45-3.02,3.32-4.54.35-.63.35-.65.57-.65.08,0,.16.03.33.11.41.27,1.79,1.2,1.79,1.52ZM14.38,178.78c-2.39,0-3.18.05-3.45.08-.08,0-.49.05-.57.05s-.14-.05-.25-.16l-.52-.63q-.11-.14-.11-.19c0-.05.03-.05.08-.05.19,0,1.03.08,1.2.08,1.5.08,2.5.11,3.89.11h5.79c.41,0,.68,0,1.03-.46.73-.98.82-1.09,1.12-1.09.41,0,2.37,1.6,2.37,1.9s-.41.35-1.03.35h-3.45c-.82,0-.84.46-.84.92v9.3c0,2.37.03,3.86-1.22,4.43-.68.33-1.44.44-1.66.44-.33,0-.38-.16-.43-.44-.22-1.2-1.99-1.69-2.5-1.82-.22-.05-.38-.19-.38-.3s.16-.11.22-.11c.14,0,.73.08.84.11.52.05,1.66.11,1.82.11.79,0,1.06-.19,1.2-.9.08-.44.16-5.82.16-6.01,0-.73-.08-4.38-.08-4.65,0-.65-.05-1.09-.82-1.09h-2.39ZM18.06,171.39c.46,0,.65,0,1.03-.46.76-.9.84-1.01,1.09-1.01.3,0,2.39,1.44,2.39,1.82,0,.27-.44.35-.9.35h-5.57c-2.37,0-3.15.05-3.43.08-.08,0-.49.05-.57.05-.11,0-.16-.05-.25-.16l-.52-.63c-.11-.14-.14-.14-.14-.19s.05-.05.11-.05c.19,0,1.03.08,1.2.08,1.33.05,2.88.11,3.72.11h1.82Z"/>
      <path class="cls-1" d="M6.36,201.68c0-.3.14-.44.38-.44.22,0,1.14.24,1.33.24.49,0,.52,0,3.4-1.17,1.03-.43,4-1.63,6.06-1.63,3.18,0,5.57,2.45,5.57,5.38,0,4.05-4.19,6.31-8.67,6.31-.22,0-.62,0-.62-.33,0-.25.08-.27.95-.38,4.73-.63,6.55-3.92,6.55-6.42s-1.96-3.7-3.4-3.7c-1.66,0-3.83.98-6.66,2.88-1.58,1.03-1.74,1.14-2.34,1.14-1.33,0-2.56-1.25-2.56-1.9Z"/>
      <path class="cls-1" d="M4,218.53c1.17,0,1.58-.11,5.3-1.17,2.42-.68,8.62-2.45,10.44-2.45.95,0,2.17.38,2.17,1.31,0,.71-.71,1.01-1.09,1.01-.35,0-1.9-.3-2.23-.3-3.45,0-7.31,3.18-7.31,10.2,0,4.57,1.71,4.87,3.32,4.87.41,0,2.37-.16,2.58-.16.84,0,1.36.35,1.36,1.01,0,1.44-2.99,1.44-3.15,1.44-5.57,0-5.57-4.54-5.57-5.82,0-1.2.03-6.96,3.97-10.47.11-.08.65-.52.65-.57s-.11-.05-.16-.05c-1.55,0-7.21,2.42-8.08,2.91-.38.22-.65.35-.95.35-1.36,0-2.64-1.82-2.31-2.2.11-.14.92.11,1.06.11Z"/>
      <path class="cls-1" d="M12.37,243.74c0,.9-2.07,1.71-2.72,1.98-.38.14-.41.24-.46,1.2-.05.6-.05,2.8-.05,2.94,0,.16,0,.49.24.49.08,0,2.31-.92,2.75-1.09,2.69-1.01,3.92-1.09,4.62-1.09,1.99,0,4.19,1.55,4.19,4.11,0,3.59-3.78,5.22-6.01,5.22-1.55,0-2.8-.79-2.8-2.2,0-1.28,1.11-2.15,1.36-2.15.08,0,.14.08.14.14,0,.08-.05.14-.11.22-.08.11-.25.33-.25.73,0,1.31,1.5,1.31,1.77,1.31,1.79,0,4.08-1.2,4.08-3.37,0-1.93-1.44-2.99-2.61-2.99-.76,0-2.45.35-5.63,2.04-1.52.82-1.69.9-1.69,1.36,0,.3.08,1.52.08,1.79,0,1.25-.41,3.05-1.39,3.05-.73,0-1.03-.57-1.25-1.01-.87-1.69-1.01-1.69-1.36-1.69-.25,0-.52.11-.68.16-.16.08-.84.54-1.03.54-.3,0-1.69-.82-1.69-1.71,0-.49.3-1.06.79-1.06.16,0,.95.14,1.12.14.73,0,1.22-.14,2.83-.92,1.39-.68,1.55-.76,1.55-1.52,0-.63-.03-2.94-.05-3.4,0-.19-.08-.6-.38-.6-.33,0-1.09.19-1.25.24-1.39.46-1.52.52-1.93.52-.92,0-1.96-1.88-1.96-2.07,0-.14.11-.19.22-.19.08,0,.41.11.49.11.49.08.9.14,1.25.14.98,0,3.29-.65,3.45-.82.14-.19.27-2.67.27-2.96,0-.84-.14-1.39-.9-2.18-.05-.05-.38-.38-.38-.44,0-.24.44-.3.6-.3,1.82,0,2.8,1.33,2.8,1.85,0,.24-.52,1.22-.57,1.41-.03.19-.27,1.28-.27,1.77,0,.11.05.3.22.3.19,0,.95-.3.95-.68,0-.05-.14-.33-.14-.38,0-.03.05-.08.11-.11.38-.05,1.69.33,1.69,1.17ZM6.17,254.16c0,.41.73,1.28,1.14,1.28.38,0,.76-.76.76-2.09,0-.11,0-.38-.08-.44-.08,0-1.82.87-1.82,1.25ZM24.04,245.7c0,.57-.33,1.31-.9,1.31-.16,0-.79-.05-.92-.05-.14.03-.71.19-.82.19-.05,0-.14-.03-.14-.14,0-.05.08-.19.08-.22.05-.16.11-.3.11-.49,0-1.09-1.36-1.47-2.28-1.47-.43,0-.68.11-1.06.27-.11.05-.19.08-.27.08s-.11-.03-.11-.11c0-.19,1.14-1.71,2.94-1.71,2.09,0,3.37,1.09,3.37,2.34Z"/>
      <path class="cls-1" d="M13.81,265.9c-2.31,0-4.49,3.81-4.49,6.69,0,.87.14,1.36.35,2.01.19.52.24.73.24,1.03,0,.9-.73.98-.98.98-1.25,0-1.85-2.26-1.85-4.4,0-1.39.22-2.83.49-4.32.38-2.23.41-2.83.41-3.48,0-.95-.16-1.36-.35-1.69-.05-.11-.46-.65-.46-.71s.33-.19.73-.19c1.25,0,2.09,1.09,2.09,1.82,0,.33-.49,1.71-.57,2.01-.05.22-.6,2.69-.6,3.37,0,.08,0,.38.22.38.14,0,.3-.33.49-.68.3-.6,2.15-4.02,5-4.02,1.69,0,3.51.9,3.51,6.61,0,3.83-.76,8.18-5.93,11.26-1.09.65-1.85.9-1.96.9-.05,0-.11-.03-.11-.08,0-.08.05-.14.68-.6,4.46-3.37,5.27-6.53,5.27-12.07,0-2.99-.54-4.81-2.2-4.81Z"/>
      <path class="cls-1" d="M12.56,287.06c-.03-.08-.19-.35-.19-.41,0-.19.52-.19.68-.19.73,0,2.2.68,2.2,1.25,0,.27-.6,1.25-.68,1.44-.19.44-.41,1.39-.41,1.77,0,.05,0,.16.11.16.08,0,.16-.03.76-.24.25-.08.62-.22.98-.22.27,0,.79.08.79.52,0,1.01-1.85,1.55-2.61,1.79-.22.05-.27.08-.3.49-.03.08-.14,1.52-.14,2.64,0,.63,0,.79.35.79.3,0,2.26-.54,2.26-1.41,0-.08-.11-.41-.11-.49s.08-.08.14-.08c.14,0,.71.14.84.14,1.12.08,1.82.14,1.82.73,0,.95-3.02,2.2-4.27,2.61-.84.3-.92.33-.92.6,0,.52.3,3.64.33,3.92.11.9.11,1.01.68,1.22,2.12.87,3.86,2.31,3.86,3.59,0,.71-.49,1.14-.92,1.14-.38,0-.49-.14-1.47-1.31-.54-.68-1.6-1.47-1.9-1.47-.16,0-.22.14-.35.44-.57,1.28-2.39,2.75-4.62,2.75-2.56,0-3.48-1.82-3.48-2.94,0-1.63,1.66-2.88,4.89-2.88.24,0,1.25.08,1.44.08.3,0,.3-.08.3-1.01,0-.54-.03-2.37-.05-3.1,0-.24,0-.41-.27-.41-.38,0-2.01.14-2.37.14-.62,0-2.53.03-3.75-1.11-.38-.38-.79-1.03-.79-1.25,0-.05,0-.11.08-.11.16,0,.9.33,1.03.38,1.22.41,2.45.49,3.29.49.65,0,2.47,0,2.67-.52.03-.08.24-3.64.24-3.67,0-.14-.14-.14-.57-.16-1.93-.14-3.64-1.52-3.64-2.58,0-.05.03-.19.11-.19.03,0,.68.38.76.44,1.2.73,2.23.73,2.64.73.57,0,.84-.14.9-.41.08-.27.16-1.82.16-2.39s-.35-1.39-.49-1.69ZM9.82,304.59c-.05,0-2.91,0-2.91,1.55,0,1.03,1.41,1.36,2.17,1.36.9,0,2.07-.44,2.69-1.01.49-.44.73-1.09.62-1.33-.19-.46-2.09-.57-2.58-.57Z"/>
      <path class="cls-1" d="M3.83,319.93c1.88,0,5.41-.57,7.4-.92,1.41-.24,1.58-.27,1.58-.98,0-1.33-.16-2.99-.38-3.7-.03-.14-.46-.63-.46-.76,0-.19.41-.19.57-.19,1.2,0,2.26.49,2.26,1.36,0,.14-.11.71-.11.84,0,.63.79,1.03,2.39,1.71.68.27,1.39.54,2.39.54.27,0,1.41-.14,1.63-.14.35,0,1.55.11,1.55,1.06,0,.71-.52.95-1.47.95-.57,0-3.1-.24-3.62-.24-.65,0-2.42.05-2.94.27-.38.16-.43.54-.43,2.94,0,.76.03.95.35,1.77.46,1.14.79,2.07.79,3.67,0,5.28-4.11,8.65-4.95,8.65-.05,0-.14-.03-.14-.11,0-.05,1.12-1.36,1.31-1.63.71-1.06,1.52-2.83,1.52-4,0-.08,0-.38-.27-.38-.08,0-.49.05-.57.05-1.47,0-2.77-1.39-2.77-3.56,0-.35,0-3.34,2.64-3.75.76-.11.76-.27.76-1.66,0-1.47,0-1.63-.54-1.63-.27,0-3.05.52-4.81,1.09-.46.14-2.45,1.09-2.91,1.09-.6,0-2.86-1.14-2.86-2.26,0-.11.05-.24.14-.27.27.03,1.58.19,1.96.19ZM11.91,324.44c-.68,0-1.55,1.12-1.55,2.5,0,1.52,1.06,2.18,1.77,2.18,1.06,0,1.09-1.63,1.09-2.07,0-.98-.27-1.69-.35-1.9-.08-.19-.41-.71-.95-.71ZM14.41,317.94c0,.44.11.52.49.52.11,0,1.88-.05,1.88-.46,0-.22-1.82-1.5-2.07-1.44-.19.05-.3.68-.3,1.39Z"/>
      <path class="cls-1" d="M24.53,343.8c0,1.52-1.22,2.99-3.04,2.99s-2.99-1.5-2.99-3.05c0-2.07,1.79-2.99,3.02-2.99,1.74,0,3.02,1.5,3.02,3.05ZM19.22,343.78c0,1.22,1.01,2.26,2.28,2.26,1.2,0,2.26-.92,2.26-2.2,0-1.09-.82-2.31-2.31-2.31s-2.23,1.2-2.23,2.26Z"/>
    </g>
  </g>
</svg>