<?xml version="1.0" encoding="UTF-8"?>
<svg id="Layer_2" data-name="Layer 2" xmlns="http://www.w3.org/2000/svg" viewBox="0 0 91.35 22.38">
  <defs>
    <style>
      .cls-1 {
        fill: #fff;
        stroke-width: 0px;
      }
    </style>
  </defs>
  <g id="_レイヤー_1" data-name="レイヤー 1">
    <g>
      <path class="cls-1" d="M8.43.55c1.11,0,8.32,0,8.32,5.51,0,3.03-2.33,5.69-7.56,5.69h-2.8c-.79,0-.79.23-.79,2.45,0,5.34,0,5.37.32,5.86.47.67,1.2.82,1.96.82.64,0,.99,0,.99.47s-.41.47-.82.47H.85c-.44,0-.85,0-.85-.47s.44-.47.73-.47c.99,0,2.25,0,2.54-1.52.09-.47.09-.5.09-8.26,0-1.37,0-7.61-.09-8.11-.26-1.4-1.52-1.49-2.22-1.49s-1.05,0-1.05-.47c0-.5.41-.5.85-.5h7.58ZM8.61,10.79c3.85,0,5.37-2.13,5.37-4.61,0-3.21-2.36-4.67-5.02-4.67h-1.25c-2.1,0-2.1,1.28-2.1,3.82,0,.41,0,4.55.03,4.81.06.44.38.64.76.64h2.22Z"/>
      <path class="cls-1" d="M21.07,21.82c-.2,0-.76,0-.76-.47s.29-.47,1.11-.47c.35,0,.96-.03,1.34-.64.26-.41.32-.76.32-4.84,0-.93,0-5.19-.17-5.69-.09-.32-.44-.55-.91-.55-.2,0-1.2.26-1.4.26-.17,0-.29-.15-.29-.29,0-.23.15-.26,1.43-.67.41-.12,3.06-.96,3.21-.96.09,0,.12.03.15.09v1.28c0,1.55,0,1.72.29,1.72.15,0,.2-.06.61-.58.23-.32,1.98-2.51,4.11-2.51,1.08,0,1.72.67,1.72,1.66s-.76,1.55-1.46,1.55c-.61,0-.91-.32-1.14-.61-.17-.17-.44-.5-.85-.5-.73,0-1.93.88-2.48,1.9-.7,1.25-.82,1.93-.82,6.24,0,2.65.09,3.15,2.13,3.15.23,0,.61.09.61.47,0,.47-.52.47-.76.47h-6.01Z"/>
      <path class="cls-1" d="M41.52,7.5c3.73,0,6.45,3.24,6.45,7.44s-2.71,7.44-6.45,7.44-6.45-3.27-6.45-7.44,2.66-7.44,6.45-7.44ZM41.52,21.59c2.45,0,3.97-3.15,3.97-6.65s-1.55-6.65-3.97-6.65c-2.22,0-3.97,2.71-3.97,6.65,0,3.44,1.49,6.65,3.97,6.65Z"/>
      <path class="cls-1" d="M51.76,8.99c-.2,0-.67,0-.67-.47s.44-.47.67-.47h1.08c.44,0,.73-.32.73-.79,0-2.04,0-3.91,1.63-5.54s3.73-1.72,4.55-1.72c2.33,0,4.46,1.08,4.46,2.8,0,.88-.64,1.49-1.49,1.49-1.05,0-1.23-.79-1.37-1.43-.12-.64-.41-1.95-1.98-1.95-.88,0-1.75.38-2.45,1.11-1.02,1.02-1.31,2.07-1.31,4.06,0,1.4.03,1.98.82,1.98h4.32c.41,0,.61,0,1.31-.17.23-.06,1.31-.38,1.37-.38.26,0,.32.17.32.52,0,1.02,0,11.2.06,11.55.12.76.44,1.31,1.96,1.31.35,0,.79,0,.79.47s-.44.47-.67.47h-6.18c-.2,0-.64,0-.64-.47,0-.06,0-.47.55-.47.41,0,1.17,0,1.6-.47.44-.5.47-1.08.47-6.54,0-.61,0-4.29-.09-4.52-.12-.29-.5-.38-.67-.38h-4.49c-.79,0-.79.23-.79,2.39,0,7.32.03,8.14.2,8.66.29.79,1.2.82,1.72.85.38,0,.5.29.5.47,0,.23-.2.47-.5.47h-5.98c-.26,0-.7,0-.73-.47,0-.47.5-.47.58-.47.67,0,1.43-.03,1.87-.67.29-.47.29-.5.29-6.16,0-.64,0-4.46-.12-4.7-.09-.26-.47-.38-.64-.38h-1.08Z"/>
      <path class="cls-1" d="M69.56,21.82c-.18,0-.7,0-.7-.44,0-.5.47-.5.85-.5.41,0,1.11-.15,1.37-1.08.17-.61.17-10.97.17-12.54,0-.85,0-4.55-.17-5.11-.06-.17-.26-.5-.82-.5-.12,0-.79.09-.96.09s-.26-.12-.26-.23c0-.26.96-.55,1.43-.7.2-.06,2.65-.82,2.68-.82.18,0,.18.09.18.67,0,2.31-.06,13.54-.06,16.08,0,3.09,0,4.06,1.52,4.14.64.03.93.03.93.5,0,.44-.38.44-.73.44h-5.43Z"/>
      <path class="cls-1" d="M82.51,14.18c-.38,0-.93,0-.93.93,0,3.56,2.42,6.01,4.84,6.01,1.34,0,2.63-.79,3.53-1.63.17-.15.85-1.14,1.11-1.14.15,0,.29.15.29.38,0,.64-2.04,3.65-5.89,3.65-4.08,0-6.39-3.24-6.39-7.47,0-4.84,3-7.41,6.18-7.41,4.52,0,5.81,4.78,5.81,6.01,0,.53-.29.67-.88.67h-7.67ZM87.88,13.22c.64,0,.96-.15.96-.85,0-1.11-1.05-4.08-3.5-4.08-2.71,0-3.56,3.65-3.56,4.29s.5.64.76.64h5.34Z"/>
    </g>
  </g>
</svg>