<svg xmlns="http://www.w3.org/2000/svg" viewBox="0 0 79 43" fill="#fff" xmlns:v="https://vecta.io/nano"><path d="M14.42 15.6c0 3.37.5 4.66.63 5.23.6 1.7 1.07 2.95 1.95 3.9.04.05.1.1.13.14s.1.1.13.14c.9.92 2.13 1.4 3.76 2.02.55.13 1.8.66 5.05.66h.24c3.26 0 4.5-.53 5.05-.66 1.63-.62 2.85-1.1 3.76-2.02a.83.83 0 0 0 .13-.14c.03-.04.1-.1.13-.14.9-.94 1.35-2.2 1.95-3.9.13-.57.63-1.85.63-5.23v-.04c0-3.37-.5-4.66-.63-5.23-.6-1.7-1.07-2.95-1.95-3.9-.04-.05-.1-.1-.13-.14s-.1-.1-.13-.14c-.9-.92-2.13-1.4-3.76-2.02-.55-.13-1.8-.66-5.05-.66h-.24c-3.26 0-4.5.53-5.05.66-1.63.62-2.85 1.1-3.76 2.02a.83.83 0 0 0-.13.14c-.04.06-.08.1-.13.15-.9.94-1.35 2.2-1.95 3.9-.13.57-.63 1.85-.63 5.23v.03zm25.7 0c0 3.37.5 4.66.63 5.23.6 1.7 1.07 2.95 1.95 3.9.04.05.1.1.13.14s.1.1.13.14c.9.92 2.13 1.4 3.76 2.02.55.13 1.8.66 5.05.66h.24c3.26 0 4.5-.53 5.05-.66 1.63-.62 2.85-1.1 3.76-2.02a.83.83 0 0 0 .13-.14c.03-.04.1-.1.13-.14.9-.94 1.35-2.2 1.95-3.9.13-.57.63-1.85.63-5.23v-.04c0-3.37-.5-4.66-.63-5.23-.6-1.7-1.07-2.95-1.95-3.9-.04-.05-.1-.1-.13-.14s-.1-.1-.13-.14c-.9-.92-2.13-1.4-3.76-2.02-.55-.13-1.8-.66-5.05-.66h-.22c-3.26 0-4.5.53-5.05.66-1.63.62-2.85 1.1-3.76 2.02a.83.83 0 0 0-.13.14c-.03.04-.1.1-.13.14-.9.94-1.35 2.2-1.95 3.9-.13.57-.63 1.85-.63 5.23v.04zM7.22 34.72c-.5 0-.74.13-.74.4v3.3c0 .72-.2 1.27-.58 1.64s-.94.55-1.66.55a2.66 2.66 0 0 1-.84-.12 1.64 1.64 0 0 1-.61-.34c-.17-.14-.3-.3-.38-.5a1.55 1.55 0 0 1-.13-.61c0-.24.06-.42.2-.56a.67.67 0 0 1 .52-.21c.2 0 .37.06.5.18s.17.27.17.45c0 .16-.05.3-.15.4s-.23.17-.4.2c.02.08.06.15.13.2.06.06.14.12.23.16.1.05.2.08.3.1.1.03.22.04.33.04.18 0 .34-.03.5-.1.14-.06.26-.15.36-.28s.17-.3.22-.5.07-.47.07-.77V35.1c0-.26-.24-.4-.73-.4v-.5h2.74v.5zm4.56 4.92c0 .25.08.37.25.37.08 0 .13-.04.17-.1a.5.5 0 0 0 .06-.26v-.5h.4v.38c0 .2-.02.34-.07.47a.74.74 0 0 1-.19.31.64.64 0 0 1-.3.17 1.38 1.38 0 0 1-.37.05.89.89 0 0 1-.38-.07c-.1-.05-.2-.1-.26-.2s-.13-.16-.16-.26a1.68 1.68 0 0 1-.09-.32c-.06.12-.14.24-.25.35s-.23.2-.38.3a2.03 2.03 0 0 1-.5.21 2.35 2.35 0 0 1-.6.08c-.52 0-.9-.1-1.13-.32-.24-.22-.36-.5-.36-.88 0-.22.04-.4.13-.56a1.03 1.03 0 0 1 .35-.37c.15-.1.33-.18.53-.24l.64-.16.7-.14c.24-.04.5-.1.73-.17v-.26c0-.14-.02-.27-.05-.4-.04-.12-.1-.23-.17-.32s-.18-.17-.3-.22a1.1 1.1 0 0 0-.43-.08c-.28 0-.52.03-.7.08-.2.06-.34.13-.46.23.13.01.23.05.32.13.1.07.13.18.13.3a.49.49 0 0 1-.15.38c-.1.1-.24.15-.44.15s-.34-.05-.43-.16-.14-.25-.14-.43c0-.14.04-.28.13-.42a1.25 1.25 0 0 1 .38-.38 2.29 2.29 0 0 1 .61-.27c.24-.07.52-.1.84-.1.25 0 .5.02.73.07s.44.13.63.24c.18.12.33.27.43.47s.16.45.16.75v2.1zM10.7 38.1l-.9.25c-.26.08-.47.16-.64.24-.17.1-.3.2-.38.3s-.12.25-.12.42c0 .2.07.36.2.47s.35.17.63.17a1.45 1.45 0 0 0 .75-.2c.22-.13.38-.3.48-.47V38.1zm10.44 1.5c0 .25.23.38.7.38v.48h-2.37V40c.36 0 .54-.13.54-.38v-1.87c0-.35-.04-.6-.12-.76a.39.39 0 0 0-.36-.23c-.25 0-.48.1-.7.3s-.4.47-.56.82v1.73c0 .25.18.38.53.38v.48h-2.2V40c.36 0 .54-.13.54-.38v-1.87c0-.35-.04-.6-.12-.76s-.2-.23-.38-.23c-.25 0-.48.1-.7.3s-.4.47-.55.82v1.73c0 .25.18.38.54.38v.48h-2.36v-.48c.46 0 .7-.13.7-.38V37c0-.25-.23-.38-.7-.38v-.48h1.82l-.01.88.3-.36c.1-.12.24-.22.38-.3a1.82 1.82 0 0 1 .47-.21 2.01 2.01 0 0 1 .57-.08c.3 0 .57.08.78.24s.33.4.38.74a2.37 2.37 0 0 1 .71-.7c.3-.2.63-.3 1-.3.36 0 .65.1.86.3.2.2.32.52.32.96v2.3zm3.03-2.97c.12-.2.3-.34.54-.45s.53-.16.86-.16a3.15 3.15 0 0 1 .75.1 1.49 1.49 0 0 1 .62.36c.18.17.32.4.43.7.1.3.16.65.16 1.1 0 .47-.05.85-.16 1.15s-.25.54-.43.72-.4.3-.64.37a2.9 2.9 0 0 1-.79.11c-.23 0-.44-.03-.62-.1a1.87 1.87 0 0 1-.47-.23c-.13-.1-.23-.2-.3-.3s-.13-.2-.15-.3l-.26.76h-.67v-5.62c0-.25-.24-.38-.7-.38V34h1.84v2.63zm1.08-.04c-.2 0-.4.04-.55.12a1.03 1.03 0 0 0-.37.35 1.64 1.64 0 0 0-.2.54c-.04.2-.06.44-.06.7s.02.48.06.7a1.64 1.64 0 0 0 .2.54 1.03 1.03 0 0 0 .37.35c.15.08.33.13.55.13.2 0 .4-.04.54-.13a1.23 1.23 0 0 0 .37-.35c.1-.15.17-.33.2-.54a4.81 4.81 0 0 0 .06-.7c0-.26-.02-.48-.06-.7s-.1-.4-.2-.54a1.03 1.03 0 0 0-.37-.35c-.15-.08-.33-.12-.54-.12zm7.8 1.7c0 .73-.2 1.3-.6 1.7s-.97.6-1.72.6a3.88 3.88 0 0 1-.85-.1 1.73 1.73 0 0 1-.7-.36c-.2-.17-.36-.4-.48-.68s-.18-.63-.18-1.05c0-.77.2-1.35.57-1.77.38-.4.96-.62 1.74-.62a3.9 3.9 0 0 1 .86.1c.27.08.5.2.7.38s.36.4.48.7.16.66.16 1.1zm-2.23-1.73c-.4 0-.7.14-.9.4s-.28.66-.28 1.17c0 .38.02.7.07.94s.12.44.22.58.2.24.35.3c.13.06.3.08.46.08.43 0 .74-.15.9-.45s.26-.72.26-1.26c0-.35-.03-.64-.08-.88a1.47 1.47 0 0 0-.23-.55c-.1-.13-.2-.23-.35-.28-.12-.04-.27-.06-.43-.06zm8 3.03c0 .25.24.38.73.38v.48h-2.4V40c.37 0 .55-.13.55-.38v-1.87c0-.35-.05-.6-.16-.76s-.26-.23-.44-.23a1.25 1.25 0 0 0-.42.08 1.52 1.52 0 0 0-.4.24 2.39 2.39 0 0 0-.35.36c-.1.14-.2.28-.26.44v1.73c0 .25.18.38.55.38v.48h-2.4V40c.47 0 .7-.13.7-.38v-2.56c0-.25-.24-.38-.7-.38v-.48h1.84v.86c.2-.27.47-.5.78-.68s.67-.26 1.07-.26.73.1.96.3.34.52.34.96v2.26zm11.7-4.88c-.5 0-.74.13-.74.4v4.5c0 .26.25.4.74.4v.48h-2.7V40c.5 0 .73-.13.73-.4v-4.4l-1.8 5.27H45.7l-1.8-5.27v4.4c0 .26.24.4.73.4v.48h-2.15V40c.5 0 .73-.13.73-.4v-4.5c0-.26-.24-.4-.73-.4v-.5h2.46l1.63 4.9 1.63-4.9h2.35v.5zm4.96 4.92c0 .25.08.37.25.37.08 0 .13-.04.17-.1.04-.08.06-.16.06-.26v-.5h.4v.38c0 .2-.02.34-.07.47a.74.74 0 0 1-.19.31.64.64 0 0 1-.3.17 1.38 1.38 0 0 1-.37.05.89.89 0 0 1-.38-.07c-.1-.05-.2-.1-.26-.2a.9.9 0 0 1-.17-.26 1.68 1.68 0 0 1-.09-.32c-.06.12-.14.24-.25.35s-.24.2-.38.3a2.03 2.03 0 0 1-.5.21 2.35 2.35 0 0 1-.6.08c-.52 0-.9-.1-1.13-.32-.24-.22-.36-.5-.36-.88 0-.22.04-.4.13-.56a1.03 1.03 0 0 1 .35-.37c.15-.1.33-.18.53-.24l.64-.16.7-.14.73-.17v-.26c0-.14-.02-.27-.05-.4-.04-.12-.1-.23-.17-.32s-.18-.17-.3-.22a1.1 1.1 0 0 0-.43-.08 2.81 2.81 0 0 0-.7.08c-.2.06-.34.13-.46.23.13.01.23.05.32.13.1.07.13.18.13.3a.49.49 0 0 1-.15.38c-.1.1-.25.15-.44.15s-.34-.05-.43-.16c-.1-.1-.14-.25-.14-.43 0-.14.04-.28.13-.42a1.25 1.25 0 0 1 .38-.38 2.29 2.29 0 0 1 .61-.27c.24-.07.52-.1.84-.1.25 0 .5.02.73.07s.44.13.63.24.33.27.43.47.16.45.16.75v2.1zm-1.08-1.53l-.9.25c-.26.08-.47.16-.64.24-.17.1-.3.2-.38.3s-.12.25-.12.42c0 .2.07.36.2.47s.35.17.63.17a1.45 1.45 0 0 0 .75-.2c.22-.13.38-.3.48-.47v-1.2zm4.86 1.5c-.01.25.23.38.72.38v.48h-2.55V40c.47 0 .7-.13.7-.38v-2.56c0-.26-.24-.4-.7-.4v-.48h1.84v3.43zm.1-4.83c0 .2-.07.37-.2.5s-.3.2-.5.2a.67.67 0 0 1-.28-.06c-.1-.04-.16-.1-.22-.16s-.1-.14-.15-.23a.67.67 0 0 1-.06-.28c0-.2.07-.37.2-.5a.69.69 0 0 1 .5-.21.69.69 0 0 1 .5.21.77.77 0 0 1 .2.52zm5.38 2.96l-.5.06c-.06-.4-.22-.68-.48-.88s-.6-.3-.98-.3c-.23 0-.42.05-.56.14s-.2.22-.2.37a.43.43 0 0 0 .22.4 1.9 1.9 0 0 0 .54.21l.7.16a3.58 3.58 0 0 1 .7.21c.22.1.4.23.54.4s.22.4.22.7c0 .2-.04.4-.12.56a1.09 1.09 0 0 1-.33.41c-.14.1-.3.2-.5.24s-.4.08-.63.08a3.72 3.72 0 0 1-.82-.08c-.2-.06-.4-.14-.54-.24-.04-.02-.08-.04-.12-.07-.04-.02-.08-.03-.12-.03-.01 0-.04.03-.1.1-.05.06-.08.16-.1.28h-.48v-1.6l.48-.05a1.12 1.12 0 0 0 .2.5c.1.14.23.28.38.38a2 2 0 0 0 .51.24 1.89 1.89 0 0 0 .58.08c.26 0 .46-.05.6-.16.13-.1.2-.25.2-.4a.45.45 0 0 0-.22-.4 1.9 1.9 0 0 0-.54-.21l-.7-.16a3.26 3.26 0 0 1-.71-.22c-.22-.1-.4-.23-.54-.4s-.22-.4-.22-.7c0-.4.13-.7.4-.9.26-.22.64-.33 1.12-.33.25 0 .5.03.7.1s.4.14.52.22c.04.03.08.05.12.07s.08.03.12.03c.02 0 .05-.03.1-.1a.92.92 0 0 0 .11-.26h.46v1.56zm5.6.57c0 .73-.2 1.3-.6 1.7s-.97.6-1.72.6a3.88 3.88 0 0 1-.85-.1 1.73 1.73 0 0 1-.7-.36c-.2-.17-.36-.4-.48-.68s-.18-.63-.18-1.05c0-.77.2-1.35.57-1.77.38-.4.96-.62 1.74-.62a3.9 3.9 0 0 1 .86.1c.27.08.5.2.7.38s.36.4.48.7.16.66.16 1.1zm-2.23-1.73c-.4 0-.7.14-.9.4s-.28.66-.28 1.17a5.83 5.83 0 0 0 .07.94c.05.25.12.44.22.58s.2.24.34.3.3.08.46.08c.43 0 .74-.15.9-.45s.26-.72.26-1.26c0-.35-.03-.64-.08-.88a1.47 1.47 0 0 0-.23-.55c-.1-.13-.2-.23-.35-.28-.1-.04-.25-.06-.42-.06zm7.84 3.03c0 .25.24.38.72.38v.48h-2.4V40c.37 0 .55-.13.55-.38v-1.87c0-.35-.05-.6-.17-.76-.1-.15-.26-.23-.44-.23-.14 0-.3.03-.42.08a1.52 1.52 0 0 0-.4.24c-.13.1-.24.22-.35.36a1.92 1.92 0 0 0-.25.44v1.73c0 .25.18.38.55.38v.48h-2.4V40c.47 0 .7-.13.7-.38v-2.56c0-.25-.24-.38-.7-.38v-.48h1.84v.86c.2-.27.47-.5.78-.68s.67-.26 1.07-.26.73.1.96.3.34.52.34.96v2.26z"/></svg>