<?xml version="1.0" encoding="utf-8"?>
<!-- Generator: Adobe Illustrator 24.1.0, SVG Export Plug-In . SVG Version: 6.00 Build 0)  -->
<svg version="1.1" id="レイヤー_1" xmlns:v="https://vecta.io/nano"
	 xmlns="http://www.w3.org/2000/svg" xmlns:xlink="http://www.w3.org/1999/xlink" x="0px" y="0px" width="300px" height="333px"
	 viewBox="0 0 300 333" style="enable-background:new 0 0 300 333;" xml:space="preserve">
<style type="text/css">
	.st0{fill:#FFFFFF;}
</style>
<g>
	<path class="st0" d="M266.1,14.2l-5.5,0.1c-0.3,0.1-0.6,0.1-0.9,0.1c-0.1,0-0.2-0.1-0.4-0.3l-0.8-1c-0.2-0.2-0.2-0.2-0.2-0.3
		c0-0.1,0-0.1,0.1-0.1c0,0,0,0,0,0c0.3,0,1.6,0.2,1.9,0.2l5.9,0.1h3.5c1.3,0,1.8,0,2.2-1.5c2.1-7.3,2.4-8.1,2.5-9.8
		c0-0.9,0.2-1,0.4-1c0.3,0,4,1.9,4,2.6c0,0.3,0,0.3-0.9,0.7c-1.2,0.5-3.1,8.1-3.1,8.2c0,0.7,0.5,0.8,1.4,0.8h12.6
		c1.2,0,1.8,0,2.1-0.1c0.5-0.2,2-2.6,2.5-2.6c0.5,0,3.7,2.5,3.7,3.1c0,0.7-1.2,0.7-2.1,0.7h-7c-0.5,0-0.8,0-0.8,0.3
		c0,0.2,0,0.3,0.4,0.5c0.2,0.1,0.5,0.4,0.5,0.7c0,0.2-0.1,0.3-0.6,0.6c-1,0.4-1.2,1-1.9,3.2c-0.6,1.9-1.9,4.9-2.2,5.8
		c-0.1,0.2-0.7,1.4-0.7,1.6c0,0.5,0.3,0.6,2.5,1.7c4.4,2.1,10,5.4,10,8.2c0,1.3-0.9,1.8-1.5,1.8c-0.9,0-1.5-0.7-2.3-1.5
		c-2.5-2.6-4.5-4.3-8.4-6.5c-0.9-0.6-1.3-0.8-1.7-0.8c-0.4,0-0.5,0.1-1.6,1.4c-2.3,2.6-4.9,4.7-10.6,6.6c-3.7,1.2-6.6,1.6-7.4,1.6
		c-0.3,0-0.6,0-0.6-0.2c0-0.2,0.2-0.3,1-0.5c11.9-4,16-9.5,16-10.2c0-0.6-1.6-1.2-1.9-1.3l-5.3-1.4c-0.5,0-0.6,0.3-1,1.1
		c-0.3,0.8-1,1.5-1.9,1.5s-1.6-0.7-1.6-1.4c0-0.3,0-0.4,0.8-2c1.9-3.8,3.7-9.2,3.7-9.9c0-0.9-0.6-0.9-1.3-0.9L266.1,14.2L266.1,14.2
		z M276,14.2c-1.6,0-1.8,0.1-2.3,1.6l-2.8,8.5c0,0.4,0.2,0.6,0.6,0.6c0.1,0,5.6,0.9,5.9,1c1.4,0.3,1.5,0.4,1.9,0.4
		c0.6,0,1.1-1.1,1.7-2.4c2.1-4.8,2.8-7.8,2.8-8.6c0-0.9-0.6-0.9-1.6-0.9L276,14.2L276,14.2z M259.3,70.5c-0.9,0-1.6-0.9-1.6-1.9
		c0-0.8,0.3-1.2,1.5-3.6c0.9-1.5,1.4-3.6,1.7-5.4c0-0.2,0-0.3,0.1-0.3c0.6,0,1,3.3,1,5.1C262.1,67.4,260.9,70.5,259.3,70.5
		L259.3,70.5z M266.9,70.6v13.5l0.1,3.1c0,1.8-1,2.5-1.9,2.5c-0.6,0-1.4-0.2-1.4-2c0-0.2,0.1-2.2,0.1-2.3c0.3-3.7,0.3-8.2,0.3-12.6
		l-0.2-20c0-0.3-0.3-1.5-0.3-1.8c0-0.2,0.1-0.3,0.4-0.3c0.2,0,3.5,0.6,4.1,1c0.1,0.1,0.3,0.2,0.3,0.5c0,0.4-0.3,0.6-0.7,1
		c-0.5,0.4-0.6,0.7-0.6,1.5C267.1,56.7,266.9,67.9,266.9,70.6L266.9,70.6z M269.9,66.4c-0.7,0-0.7-0.9-0.7-1.3
		c0-1.2-0.1-2.8-0.3-4.1c0-0.2-0.3-1.1-0.3-1.2c0,0,0-0.1,0.1-0.1c0.6,0,3.2,1.7,3.2,4.1C271.8,65.9,270.5,66.4,269.9,66.4
		L269.9,66.4z M280.7,61.2c1.3,0,1.3-0.7,1.3-1.5c0-0.9-0.1-4.5-0.1-5.3c0-1.4,0-1.6-0.1-2.1c0-0.2-0.4-1.1-0.4-1.3
		c0-0.4,0.5-0.5,0.8-0.5c0.5,0,3.2,0.7,3.8,0.9c0.4,0.1,0.6,0.4,0.6,0.7c0,0.4-0.2,0.6-0.7,1c-0.6,0.6-0.7,1-0.7,3.4v3.9
		c0.1,0.7,0.7,0.8,1.3,0.8h2.3c1.9,0,2.1,0,2.8-1.2c0.3-0.4,0.8-1.2,1.2-1.2c0.5,0,3.7,2.5,3.7,3c0,0.5-1,0.5-2.3,0.5h-7.6
		c-0.4,0-1,0.1-1.2,0.7c-0.2,0.4-0.2,6.7-0.2,7.3c0,2.5,0,2.9,1.4,2.9h2.1c1.5,0,2.1,0,2.7-0.6c0.3-0.3,1.2-1.9,1.5-1.9
		c0.3,0,3.7,2.3,3.7,3.1c0,0.6-0.9,0.6-2.3,0.6h-7.7c-0.3,0-1,0-1.2,0.7c-0.1,0.4-0.1,7.2-0.1,7.9c0,3.2,0,3.4,1.4,3.4h3.4
		c1.4,0,1.8,0,2.2-0.4c0.4-0.4,1.6-2.6,2.1-2.6c0.6,0,3.8,2.8,3.8,3.5c0,0.7-1,0.7-2.4,0.7h-18.6c-3.8,0-5,0.1-5.4,0.1
		c-0.3,0.1-0.6,0.1-0.9,0.1c-0.2,0-0.2-0.1-0.4-0.3l-0.8-1c-0.1-0.1-0.2-0.2-0.2-0.3c0-0.1,0-0.1,0.1-0.1c0,0,0,0,0,0
		c0.3,0,1.6,0.2,1.9,0.2c2.1,0.1,3.9,0.1,5.9,0.1h3.7c1.4,0,1.4-0.3,1.4-4.3c0-6.3,0-7.1-0.3-7.4c-0.3-0.3-0.5-0.3-2.1-0.3
		c-2.3,0-4.1,0-4.8,0.1c-0.1,0-0.8,0.1-0.9,0.1s-0.2-0.1-0.4-0.3l-0.8-1c-0.2-0.2-0.2-0.2-0.2-0.3c0-0.1,0-0.1,0.1-0.1
		c0.3,0,1.6,0.1,1.9,0.1c3.5,0.1,4.9,0.1,6.2,0.1c1.2,0,1.2-0.9,1.2-1.6l0-7.8c0-0.9,0-1.5-1.4-1.5h-2.8c-1.1,0-1.2,0.3-2.1,2.4
		c-1.1,2.3-2.4,4.8-4.7,7.3c-0.2,0.2-0.3,0.3-0.4,0.3c-0.1,0-0.1-0.1-0.1-0.1c0-0.1,2.1-5,2.5-5.9c1-2.5,2.7-7.6,2.7-10.5
		c0-0.2-0.2-1.2-0.2-1.4c0-0.3,0.3-0.4,0.5-0.4c0.1,0,4.3,1,4.3,2.1c0,0.3-0.1,0.4-1,1c-0.9,0.5-1.6,3.5-1.6,3.6
		c0,0.6,0.5,0.6,0.8,0.6L280.7,61.2L280.7,61.2z M264.1,130.4c4.4-8.4,5.7-15.8,5.7-15.8c0-0.4-0.2-0.4-1.5-0.4
		c-0.9,0-2.4,0-3.8-0.8c-1.4-0.7-2.2-1.9-2.2-2.3c0-0.1,0.1-0.2,0.2-0.2c0.2,0,0.8,0.3,1,0.4c0.6,0.2,2.4,0.5,3.8,0.5
		c0.6,0,2.7-0.1,3.1-0.4s0.5-3.2,0.5-3.5c0-0.3,0-1.8-0.5-2.7c-0.2-0.2-1.2-1.3-1.2-1.6c0-0.4,0.8-1,1.9-1c1.9,0,3.5,1.8,3.5,2.3
		c0,0.2-0.5,1.1-0.5,1.3c0,0.8,3.5,1.6,3.9,1.6c0.2,0,1.1-0.1,1.3-0.1c0.3,0,1.4,0,1.4,1.3c0,2.4-3.7,3.7-6.5,4.4
		c-1.5,0.4-1.6,0.4-1.8,1.2c-2.2,9.4-2.2,9.4-3.1,12.2c-3,9-4.5,9-5.3,9c-1,0-1.2-1.4-1.2-1.9C262.5,133.3,262.8,132.9,264.1,130.4
		L264.1,130.4z M273.1,110.7c0.2,0,3.5-1.2,3.5-1.7c0-0.4-2.3-1.4-2.8-1.4c-0.3,0-0.4,0.1-0.5,0.5c-0.2,0.9-0.2,1-0.4,2
		C272.9,110.5,272.9,110.7,273.1,110.7L273.1,110.7z M276.4,129c0.9,3.8,5.6,4.6,8.8,4.6c0.7,0,4-0.3,4.7-0.3c1.5,0,3.5,0.7,3.5,2.1
		c0,1.2-1.6,1.5-5.2,1.5c-7,0-12.8-1.8-12.8-7.2c0-1,0.3-1.9,0.6-1.9C276.1,127.8,276.4,128.8,276.4,129L276.4,129z M285.9,114
		c4.1,0,7.2,1.2,7.2,3.1c0,1-0.9,1-1.2,1c-0.4,0-2.1-0.1-2.4-0.1c-0.8,0-1.4,0-3.2,0.7c-1.1,0.4-1.5,0.6-1.8,0.6
		c-0.1,0-0.2,0-0.2-0.1c0-0.3,2.2-1.9,2.2-2.4c0-0.7-3.1-0.7-3.7-0.7c-1,0-2.1,0-3.1,0.2c-0.3,0-1.2,0.2-1.4,0.2
		c-0.1,0-0.3,0-0.4-0.1C277.6,115.7,281.3,114,285.9,114L285.9,114z M293,109.2c0,0.7-0.6,1.6-1.3,1.6c-0.6,0-1-0.3-2.2-2
		c-0.7-1-1.1-1.3-2.9-2.7c-0.2-0.1-0.6-0.5-0.6-0.7s0.4-0.3,0.8-0.3C290.5,105.1,293,107.7,293,109.2L293,109.2z M297.4,106.4
		c0,0.6-0.4,1.3-1.1,1.3c-1,0-1.5-0.8-2.1-1.8c-0.6-0.8-2.2-2.1-3.6-2.7c-0.4-0.2-0.5-0.4-0.5-0.5c0-0.4,1-0.4,1.6-0.4
		C293.1,102.2,297.4,103.5,297.4,106.4L297.4,106.4z M269.6,160.7c0,0.7-1.3,3.9-1.5,4.5c-0.9,2.8-1.4,5.8-1.4,8.1
		c0,1.9,0.5,4.4,1,4.4c0.9,0,3.1-7.7,3.8-7.7c0.1,0,0.2,0.2,0.2,0.3c0,0.3-0.9,4.1-1,4.9c-0.2,0.8-0.8,4-0.8,5.6
		c0,0.4,0,0.9,0.5,1.9c0.1,0.2,0.5,1.1,0.5,1.7c0,0.7-0.6,1.3-1.5,1.3c-1.6,0-2.8-2.5-3.5-4.8c-1.1-3.4-1.2-5.9-1.2-7.2
		c0-1.7,0.1-3.5,1.1-9.7l0.5-4.6c0-1-0.1-2-0.4-2.9l-0.3-0.9c0-0.1,0-0.3,0.3-0.3C267.2,155.3,269.6,158.1,269.6,160.7L269.6,160.7z
		 M288.6,166.3c0,8.9-0.3,12.4-2.7,16c-2.3,3.6-5.9,5.4-6.5,5.4c-0.1,0-0.2,0-0.2-0.1s2.1-2.4,2.5-2.9c3.8-4.9,4-9.1,4-17.3
		c0-1.5-0.1-1.7-0.8-1.7c-0.4,0-2.3,0.1-2.7,0.1c-4.2,0-6.1-2.1-6.1-3c0-0.1,0-0.2,0.1-0.2c0.3,0,0.7,0.2,1,0.3
		c1,0.2,2.1,0.3,2.7,0.3c0.6,0,3.9,0,5-0.8c0.2-0.2,0.4-0.3,0.4-1.8c0-1.5-0.4-4.4-0.7-5.1c-0.1-0.1-0.6-0.7-0.6-0.9
		c0-0.2,0.5-0.5,1.1-0.5c1.2,0,3.8,1.2,3.8,2c0,0.3-0.6,1.6-0.7,1.9c-0.1,0.7-0.1,1.6-0.1,2.2c0,0.7,0.1,1.1,0.4,1.1
		c0.4,0,1-0.4,1.1-0.7c0.4-0.6,0.4-0.6,0.9-0.6c0.3,0,2.3,0.3,2.3,1.4c0,1.3-1.5,2.1-2.5,2.6c-1.3,0.6-1.6,0.8-1.7,1
		C288.7,165.4,288.7,166.1,288.6,166.3L288.6,166.3z"/>
	<path class="st0" d="M277.8,207.7c0,0.1,0.1,0.3,0.1,0.5c0.2,1.4,0.4,2.8,0.4,4.6c0,2.9-0.6,6.9-4.4,12.6c-3.5,5.2-5.6,6.3-7.4,6.3
		c-2.8,0-5.4-4.4-5.4-9.7c0-2.3,0.5-6.6,4.8-11c5.5-5.6,11.2-5.6,13.7-5.6c3.9,0,5.7,0.8,6.9,1.4c4.6,2.3,7.5,6.9,7.5,12.5
		c0,5.6-3.2,12.5-10.9,15.2c-3.7,1.3-6.5,1.6-7.1,1.6c-0.2,0-0.4,0-0.4-0.3c0-0.1,0.1-0.2,1.2-0.6c4.5-1.8,13.8-5.5,13.8-16.2
		c0-1.7-0.2-11.9-11.9-11.9C277.9,207.1,277.8,207.4,277.8,207.7L277.8,207.7z M263.8,220.9c0,2.8,1.1,6.6,3.8,6.6
		c1.2,0,2.3-0.5,5.2-5c2.3-3.5,4.2-8.3,4.2-12.5c0-2.6-0.2-2.8-0.7-2.8C272.2,207.2,263.8,212.8,263.8,220.9L263.8,220.9z
		 M186.4,14.1c-1.5,0-1.5,0.3-1.5,2.9c0,1.1,0.3,1.3,0.8,1.4c1.6,0.4,6.6,1.6,6.6,5c0,1-0.6,2.5-1.7,2.5c-0.6,0-0.7-0.2-1.6-2.3
		c-0.9-2.5-3.2-4.3-3.8-4.3c-0.5,0-0.5,0.1-0.5,2.4c0,2.4,0.3,12.8,0.3,15c0,0.6,0,2.8-2.3,2.8c-0.9,0-0.9-0.6-0.9-1.2
		c0-0.6,0.1-3.4,0.1-4l0.2-13.1c0-0.2,0-0.7-0.4-0.7c-0.2,0-0.3,0.2-1.4,1.8c-2.5,3.6-6.7,8.2-7.5,8.2c-0.1,0-0.2-0.1-0.2-0.2
		c0-0.2,2.4-3.3,2.7-3.7c3.9-5.7,5.8-11.3,5.8-11.7c0-0.6-0.2-0.7-2-0.7c-0.4,0-2.9,0-4.1,0.1c-0.1,0-0.8,0.1-0.9,0.1
		c-0.2,0-0.2-0.1-0.4-0.3l-0.8-1c-0.1-0.1-0.2-0.2-0.2-0.3s0.1-0.1,0.1-0.1c0.3,0,1.6,0.1,1.9,0.2L180,13h0.9c0.4,0,1.2,0,1.3-0.7
		c0-0.3,0-3.4,0-3.9c0-1.3-0.2-2-1.3-2c-0.2,0-4.3,0.4-5,0.4c-0.3,0-1.4,0-1.4-0.2c0-0.2,0.3-0.3,0.5-0.3c3.7-0.8,7.6-2,10.6-3.7
		c0.4-0.2,2.1-1.6,2.4-1.6c0.5,0,3.8,2.9,3.8,3.2c0,0.3-0.2,0.4-0.6,0.4c-0.2,0-1-0.1-1.2-0.1c-0.1,0-3.8,0.8-4.4,1.3
		c-0.6,0.5-0.6,2.4-0.6,3.7c0,3.2,0,3.6,1.3,3.6c1.9,0,1.9,0,2.9-1.3c0.6-0.8,1-1.2,1.2-1.2s3.7,2.4,3.7,3.1c0,0.6-0.9,0.6-2.3,0.6
		L186.4,14.1L186.4,14.1z M205.3,5.6c0.7,0,1-0.1,1.4-0.6c0.8-0.9,0.9-1,1.1-1c0.3,0,2.4,1.6,2.8,1.9c0.2,0.2,0.3,0.5,0.3,0.7
		c0,0.3-0.3,0.5-0.6,0.7c-0.9,0.5-0.9,0.7-0.9,3.4l0.3,19.7c0,0.4,0.1,2.5,0.1,3s0,1.2-0.6,1.6c-0.5,0.3-1.4,0.8-2,0.8
		c-0.7,0-0.7-0.8-0.7-1.4c0-0.9-0.5-0.9-1.2-0.9h-5.8c-1.2,0-1.3,0.4-1.3,1.6c0,1.5-1.6,2.1-2.4,2.1c-1,0-1-0.9-1-1.2
		c0-0.4,0.2-2.2,0.2-2.7c0.1-2,0.2-12.7,0.2-13.9c0-2.5,0-7.6-0.3-13.2c0-0.2-0.2-1.3-0.2-1.6c0-0.3,0.2-0.4,0.5-0.4
		c0.4,0,1.4,0.5,1.9,0.7c1.2,0.7,1.4,0.8,2.7,0.8L205.3,5.6L205.3,5.6z M205.1,32.2c1.2,0,1.2-0.7,1.2-1.6V7.8c0-0.9-0.7-1-1.2-1
		h-5.9c-0.3,0-1,0-1.2,0.7c-0.1,0.3-0.1,12.8-0.1,14.7l0.1,9.3c0.1,0.8,0.9,0.8,1.2,0.8L205.1,32.2L205.1,32.2z M192.4,57.8
		c0,0.1,0.1,0.3,0.1,0.5c0.2,1.4,0.4,2.8,0.4,4.7c0,2.9-0.6,6.9-4.4,12.6c-3.4,5.3-5.6,6.3-7.4,6.3c-2.8,0-5.4-4.4-5.4-9.7
		c0-2.3,0.5-6.6,4.8-11c5.5-5.6,11.2-5.6,13.7-5.6c3.9,0,5.7,0.8,6.9,1.4c4.6,2.3,7.5,6.9,7.5,12.5c0,5.6-3.2,12.5-10.9,15.2
		c-3.7,1.3-6.5,1.6-7.1,1.6c-0.2,0-0.4,0-0.4-0.3c0-0.1,0.1-0.2,1.2-0.6c4.5-1.8,13.8-5.5,13.8-16.2c0-1.7-0.2-11.9-11.9-11.9
		C192.5,57.2,192.4,57.6,192.4,57.8L192.4,57.8z M178.4,71c0,2.8,1.1,6.6,3.8,6.6c1.2,0,2.3-0.5,5.2-5c2.3-3.5,4.2-8.3,4.2-12.5
		c0-2.6-0.2-2.8-0.7-2.8C186.8,57.3,178.4,62.9,178.4,71L178.4,71z M179.8,127.3c0,4.4-3.1,8.6-5.3,8.6c-0.9,0-1.5-0.9-1.5-1.7
		c0-0.9,0.3-1.1,2.5-3c1.6-1.4,3.2-3.4,3.7-5.2c0-0.1,0.1-0.3,0.3-0.3C179.8,125.7,179.8,126.8,179.8,127.3L179.8,127.3z M183,119.5
		c-0.6,0-0.9,0.1-1.1,0.7c-0.2,0.8-0.4,1.7-2.3,1.7c-0.5,0-1.3,0-1.3-1.6c0-0.3,0.1-2,0.2-2.4c0-0.8,0.2-2.8,0.2-5.7
		c0-1.6,0-5.2-0.5-8.5c0-0.3-0.3-1.6-0.3-1.9c0,0,0-0.2,0.1-0.2c0.3,0,2.4,1,2.8,1.2c0.9,0.5,1.3,0.6,2.4,0.6h17.9
		c0.9,0,1.2-0.2,1.9-0.8c0.8-0.7,1.1-0.8,1.3-0.8c0.9,0,2.5,1.7,2.5,2.2c0,0.3-0.9,1.5-0.9,1.8c-0.1,0.5-0.1,4.1-0.1,4.9l0.1,8.9
		c0,1.7-1.9,2.3-2.5,2.3c-0.5,0-0.8-0.4-0.9-0.8c0,0,0-0.1,0-0.1c0-0.7,0-1.4-1.3-1.4L183,119.5L183,119.5z M182.9,104.5
		c-1.3,0-1.4,0-1.4,3.9c0,2,0,2.4,1.4,2.4h6.4c0.9,0,1.5-0.2,1.5-1.2c0-5,0-5.1-1.6-5.1L182.9,104.5L182.9,104.5z M189.6,118.4
		c0.7,0,0.9-0.3,1.1-0.7c0.1-0.3,0.1-3.8,0.1-4.4c0-1.2-0.5-1.4-1.5-1.4H183c-1.4,0-1.4,0.5-1.4,2.2c0,4,0,4.3,1.4,4.3L189.6,118.4
		L189.6,118.4z M184.6,122.4c2.5,0.7,2.7,0.7,2.7,1.2c0,0.3-0.1,0.4-0.5,0.8c-0.5,0.6-0.5,0.8-0.5,1.3c0,1.2-0.1,6.5,0,7.6
		c0.1,1.5,0.7,2.1,5.9,2.1c7.5,0,8.1-1.8,8.6-3.3c0.2-0.5,0.7-3.3,1-3.3c0.3,0,0.6,1.6,0.6,1.9c0.3,0.9,0.9,1.8,1.3,2.3
		c0.3,0.4,0.4,0.6,0.4,0.9c0,0.9-0.9,1.9-2.4,2.7c-2.7,1.5-7.9,1.7-11,1.7c-7.4,0-7.4-1.9-7.4-5.9c0-0.8,0.1-4.4,0.1-5.1
		c0-0.8-0.1-3.7-0.2-4.2c-0.1-0.3-0.2-0.8-0.1-0.9C183.3,122,184.5,122.4,184.6,122.4L184.6,122.4z M190.6,121.6
		c1.1,0,6.6,2.5,6.6,6.3c0,1.4-0.8,2.1-1.6,2.1c-1.1,0-1.2-0.5-2.1-3c-1-2.7-1.6-3.4-3-5c-0.1-0.1-0.1-0.2-0.1-0.3
		C190.4,121.6,190.5,121.6,190.6,121.6z M194.9,104.5c-1.2,0-1.2,0.2-1.2,5c0,0.7,0,1.3,1.5,1.3h6.5c1.4,0,1.4-0.1,1.4-4.3
		c0-1.2,0-2.1-1.1-2.1L194.9,104.5L194.9,104.5z M201.6,118.4c1.1,0,1.3,0,1.3-4.7c0-1.2,0-1.8-1.2-1.8h-6.5c-0.4,0-1.1,0-1.3,0.6
		c-0.1,0.2-0.1,3.8-0.1,4.5c0,0.6,0,1.4,1.2,1.4L201.6,118.4L201.6,118.4z M205.5,125c0.3,0,6.1,3.2,6.1,7.4c0,1.3-0.9,2.3-1.8,2.3
		c-1.4,0-1.6-1.6-1.9-3.5c-0.4-2.4-1.7-4.5-2.5-5.5c-0.1-0.1-0.2-0.2-0.1-0.4C205.2,125.1,205.3,125,205.5,125L205.5,125z
		 M174.7,186.7c-0.6,0-1.6-0.1-1.6-1.1c0-0.8,0.2-1,1.9-2.8c0.7-0.7,2.3-2.5,3-5.7c0.1-0.7,0.3-1.2,0.4-1.2c0.5,0,0.6,2.3,0.6,2.9
		C179,179.9,178.8,186.7,174.7,186.7L174.7,186.7z M185.8,158.1c-0.8,0-0.9,0.6-0.9,0.7c0,0.2,0.1,0.6,0.6,1c3.6,2.7,5,3.7,5,5.6
		c0,1-0.9,2-1.7,2c-0.6,0-0.9-0.7-1.2-2c-0.3-1.7-1.9-4.6-2.3-4.6c-0.1,0-0.4,0.1-0.4,0.6l0,2.6l0.3,7.2c0,0.4,0,2.5-1.9,2.5
		c-1.2,0-1.2-1.2-1.2-1.5l0.3-5.6l0.1-3.1c0-0.2-0.2-0.4-0.4-0.4c-0.2,0-0.3,0.1-1,1.1c-5.4,7.3-7.3,7.4-7.4,7.4c0,0,0,0,0-0.1
		c0-0.1,2.5-3.5,2.9-4.1c2.7-4,4.8-8.3,4.8-8.7c0-0.3-0.3-0.7-0.6-0.7c-3,0-4.6,0.1-4.8,0.1c-0.1,0-0.8,0.1-0.9,0.1
		c-0.1,0-0.2-0.1-0.3-0.3l-0.9-1c-0.2-0.2-0.2-0.2-0.2-0.3s0.1-0.1,0.2-0.1c0.2,0,1.3,0.1,1.6,0.1c1.6,0.1,4.4,0.2,6.1,0.2
		c0.6,0,1.3,0,1.3-1.3c0-1,0-2.6-0.2-3.4c0-0.3-0.3-1.4-0.3-1.6s0.3-0.3,0.5-0.3c0.1,0,4,1.1,4,1.8c0,0.3-1.3,1.3-1.4,1.7
		c-0.1,0.5-0.2,0.8-0.2,2.2c0,0.5,0.4,0.8,0.9,0.9c0.1,0,0.9,0,1.2-0.3c0.2-0.2,1-1.5,1.3-1.5c0.2,0,3.1,1.8,3.1,2.4
		s-0.9,0.6-2.3,0.6L185.8,158.1L185.8,158.1z M187.4,175.9c0.3,0.1,0.6,0.4,0.6,0.7s-0.4,0.6-1.2,1.1c-0.4,0.3-0.4,3-0.4,3.8
		c0,3,0,4.2,4,4.2c1.6,0,7.3-0.3,8.4-1.3c0.8-0.8,1.6-3.1,2-4.5c0.2-0.6,0.3-1,0.5-1c0.2,0,0.2,0.2,0.3,1.6c0,0.8,0.2,2.5,1.2,3.2
		c0.9,0.6,1.2,0.8,1.2,1.2c0,0.5-0.7,3.7-10.8,3.7c-9.7,0-9.7-2-9.7-5.5c0-0.6,0.1-3.1,0.1-3.6c0-0.8,0-1.7-0.1-2.5
		c0-0.2-0.1-1.2-0.1-1.4c0-0.3,0-0.8,0.7-0.8c0.3,0,0.6,0.1,1.2,0.3C185.4,175.1,187.3,175.8,187.4,175.9L187.4,175.9z M194.5,180.8
		c-0.9,0-1.1-0.5-1.7-2.7c-0.3-1.3-0.7-2-1.6-3.7c-0.2-0.3-0.3-0.4-0.3-0.6c0,0,0-0.1,0.1-0.1c0,0,5.1,2.1,5.1,5
		C196.1,179.8,195.3,180.8,194.5,180.8L194.5,180.8z M197.4,170.8c-0.3,0-1,0-1.2,0.7c-0.2,0.7-0.6,2.1-2.2,2.1
		c-0.8,0-1.1-0.4-1.1-1.3c0-0.8,0-1.6,0.1-2.4c0.1-2,0.1-8.4,0.1-8.7c0-1.9-0.1-5.8-0.3-7.6c0-0.2-0.3-1.3-0.3-1.6
		c0-0.2,0-0.4,0.4-0.4s2.1,1.1,2.5,1.2c0.5,0.2,1.1,0.4,1.6,0.3h6.6c0.3,0,0.8,0,1.2-0.4c0.2-0.2,0.9-1.4,1.2-1.4
		c0.3,0,3.4,2.2,3.4,2.8c0,0.2-0.8,0.9-0.9,1.2c-0.3,0.6-0.3,4.6-0.3,5.6l0.1,7.1c0,0.4,0.1,2.2,0.1,2.6c0,2.3-1.4,2.8-1.9,2.8
		c-1,0-1.1-0.6-1.2-1.8c-0.1-0.9-0.8-0.9-1.3-0.9L197.4,170.8L197.4,170.8z M197.2,154.3c-1.4,0-1.4,0.6-1.4,2.2s0,2.2,1.4,2.2h6.7
		c1.4,0,1.4-0.6,1.4-2.2s0-2.2-1.4-2.2H197.2z M197.2,159.8c-1.3,0-1.3,0.5-1.3,2.2c0,1.7,0,2.2,1.3,2.2h6.9c1.3,0,1.4-0.5,1.4-2.2
		c0-1.7,0-2.2-1.4-2.2H197.2z M197.2,165.4c-0.5,0-1.3,0-1.3,1.1c0,2.9,0,3.2,1.3,3.2h6.9c0.5,0,1.3,0,1.3-1.1c0-2.8,0-3.2-1.3-3.2
		L197.2,165.4L197.2,165.4z M210.5,186.1c-1.5,0-1.8-1.1-2.7-4.3c-0.3-0.9-1.3-3.3-3.2-5c-0.1-0.1-0.7-0.7-0.7-0.8
		c0-0.1,0-0.1,0.1-0.1c0.1,0,1.4,0.4,2.1,0.6c3.8,1.6,5.8,4.9,5.8,7.4C211.9,185.4,211.1,186.1,210.5,186.1L210.5,186.1z"/>
	<g>
		<path id="C" class="st0" d="M211.2,206c0,2.4-1.9,4.7-4.8,4.7c-2.9,0-4.7-2.4-4.7-4.8c0-3.3,2.8-4.7,4.8-4.7
			C209.2,201.2,211.2,203.5,211.2,206L211.2,206z M202.8,205.9c0,1.9,1.6,3.6,3.6,3.6c1.9,0,3.6-1.5,3.6-3.5c0-1.7-1.3-3.7-3.7-3.7
			C204.1,202.4,202.8,204.3,202.8,205.9L202.8,205.9z"/>
	</g>
	<path class="st0" d="M103.4,17c-0.9,0-1.3,0.2-1.3,1.2l0,13.3c0,0.3,0,1.2,1.1,1.2c0.2,0,6.6-1.5,7.2-1.6c0.2,0,0.4-0.2,0.6-0.3
		c0.1-0.2,0.1-9.6,0.1-10.8l-0.2-14.5c0-0.7-0.3-3.8-0.3-4.1c0-0.2,0-0.7,0.4-0.7c0.1,0,4.3,1,4.3,1.7c0,0.2-0.7,0.9-0.9,1
		c-0.2,0.3-0.4,0.8-0.4,2.6v10.5c0,0.3,0,0.6,0.5,0.6c0.7,0,5.9-3.8,7.5-6.4c0.4-0.6,0.5-0.7,0.7-0.7c0.4,0,3.8,2.4,3.8,3.1
		c0,0.5-0.7,0.6-1.1,0.7c-0.8,0.2-1.8,0.6-2.1,0.8c-3.5,1.5-3.9,1.7-7.3,3.1c-1.6,0.6-1.8,0.7-1.9,1.1c-0.1,0.3-0.1,9.9-0.1,10.8
		c0,3.2,0.2,3.8,0.5,4.2c0.7,1,3.9,1,4.4,1c1.3,0,4.1,0,4.9-1c0.3-0.4,1.2-3.2,1.3-3.2c0.3,0,0.5,1.8,0.7,2.1s1.3,2.3,1.3,2.8
		c0,2.4-6.5,2.5-9.2,2.5c-6.1,0-6.8-1.1-6.8-5.9c0-0.3,0-0.3-0.3-0.3c-0.1,0-0.1,0-0.6,0.2c-4.9,2-9.9,3.8-14.9,5.5
		c-2.9,1-3.1,1.1-3.4,1.3c-0.8,0.7-1,0.9-1.4,0.9c-0.2,0-0.4-0.1-0.6-0.3s-2-3.6-2-3.9c0-0.4,0.2-0.4,1.7-0.4c1.8,0,1.9-0.5,2-0.8
		c0-0.2,0-4.7,0-7.1c0-8,0-10.6-0.3-14.5c0-0.3-0.4-2.5-0.4-2.6c0-0.2,0-0.4,0.3-0.4c0.6,0,4.2,0.9,4.2,2.1c0,0.3-0.9,1-0.9,1.3
		c-0.2,0.5-0.2,2.5-0.2,20c0,0.7,0.2,1.2,1,1.2c0.3,0,1.9-0.3,2.8-0.5c0.8-0.1,1.2-0.3,1.3-0.6c0-0.2,0.1-7.8,0.1-8.5L99.2,4.4
		c0-0.5-0.2-2.8-0.2-3.3c0-0.3,0-0.4,0.5-0.4c0.8,0,3.4,1,3.4,1.6c0,0.2-0.7,0.9-0.7,1.1c-0.3,1.2-0.3,9.2-0.3,11.2
		c0,0.5,0,1.3,1,1.3c0.6,0,0.8-0.2,1.2-0.8c1-1.6,1.2-1.7,1.6-1.7c0.6,0,3.3,2.5,3.3,3.2c0,0.5-0.2,0.5-2.2,0.5L103.4,17L103.4,17z
		 M98.5,58.6c0.6,0,0.9,0,1.5-0.5c1.3-1.2,1.4-1.3,1.8-1.3c0.9,0,2.9,2.3,2.9,2.9c0,0.4-0.2,0.6-1.1,1.3c-0.3,0.2-0.5,0.4-0.7,1.3
		c-0.8,5-3.1,10.8-4.1,13.3c-0.4,1-0.5,1.1-0.5,1.3c0,0.7,0.9,1.6,1.5,2.2c4,4.1,9.6,6,15.3,6c4.5,0,8.4-0.8,10.6-1.2
		c0.2,0,1.2-0.3,1.4-0.3s0.3,0.1,0.3,0.2c0,0.1-0.6,0.5-0.7,0.6c-0.4,0.4-1.3,1.5-1.7,2.2c-0.1,0.2-0.4,1.1-0.6,1.3
		c-0.4,0.6-4.7,0.6-5.6,0.6c-3.2,0-14,0-20.2-7.8c-0.9-1-0.9-1.1-1.2-1.1s-0.3,0.1-1.3,1.6c-3.4,5.2-8.2,7.8-8.4,7.8
		c-0.1,0-0.3,0-0.3-0.2c0,0,2.1-2.2,2.4-2.6c2.9-3.2,5.9-8.9,5.9-9.5c0-0.2-0.8-2.1-0.9-2.4c-1.4-3.2-2.1-5.9-2.6-8.3
		c0-0.2-0.4-1.7-0.5-1.7c-0.1,0-3.3,4.7-4.2,4.7c-0.2,0-0.2-0.1-0.2-0.2c0-0.1,1-1.8,1.2-2.2c2.1-4,3.6-8.4,4.5-12.5
		c0.2-1,0.3-1.5,0.3-3.2c0-0.2,0-0.3,0.2-0.3c0.4,0,4.4,1.2,4.4,2c0,0.3-0.1,0.3-0.9,0.9c-0.9,0.5-2,4.6-2,4.8
		c0,0.5,0.3,0.5,0.7,0.5L98.5,58.6L98.5,58.6z M94.7,59.8c-1.4,0-1.9,2.2-1.9,2.8c0,2.9,2.8,11.4,3.8,11.4c0.9,0,3.5-11.8,3.5-13.3
		c0-0.9-0.7-0.9-1.5-0.9L94.7,59.8L94.7,59.8z M112.4,55.6c-0.9,0-1.2,0.3-1.3,1.2c-0.1,5-0.1,5.4-0.4,7.6
		c-1.2,11.5-7.2,13.7-7.2,13.7c-0.1,0-0.2,0-0.2-0.2s1.5-2.2,1.8-2.6c2.8-4.4,3.1-11.1,3.1-14.2c0-2-0.2-4.8-0.4-5.9
		c0-0.4-0.2-1.1-0.2-1.3c0-0.3,0.1-0.6,0.4-0.6s1.8,0.7,2.1,0.8c0.6,0.2,1.2,0.2,1.7,0.2h3.2c0.8,0,1.1,0,1.5-0.4
		c0.4-0.4,0.7-0.6,1-0.6c0.4,0,2.6,1.5,2.6,2.1c0,0.2-0.8,1.2-0.9,1.4c-0.4,1-0.4,11.2-0.4,13.3c0,1.1,0,4.3,0.3,4.7
		c0.3,0.5,0.9,0.6,1.6,0.6c1.8,0,1.9-0.1,2.5-1.6c0.9-2.5,1.1-2.8,1.3-2.8c0.3,0,0.3,0.3,0.3,0.8c0,0.2,0.1,2.2,0.4,2.6
		c0.7,1.1,0.8,1.3,0.8,1.8c0,2-3.3,2-4,2c-5.9,0-6-0.4-6-5.6l0.2-15.8c0-1.2-0.7-1.2-1.2-1.2L112.4,55.6L112.4,55.6z M96.6,126.6
		c0.7,0,1.1-0.7,2.1-3.4c0.3-0.7,0.4-1.1,0.6-1.1c0.2,0,0.2,0.4,0.2,0.5c0,0.5-1,5.5-1,6.5c0,0.7,0.6,2,0.7,2.2
		c0.3,0.6,0.5,1.3,0.5,1.9c0,0.8-0.6,1.4-1.4,1.5c0,0,0,0,0,0c-2.7,0-4.7-7.3-4.7-11.5c0-2.8,0.3-4,1.8-9.4c0.7-2.6,0.7-3.7,0.7-4.5
		c0-1.4-0.3-2.5-0.4-3.1c0-0.1-0.3-0.7-0.3-0.8s0.2-0.2,0.3-0.2c2,0,3.8,3.9,3.8,5.5c0,0.5,0,0.5-0.8,2c-0.5,0.9-3.3,7.2-3.3,11.1
		C95.5,125.3,95.9,126.6,96.6,126.6L96.6,126.6z M121.6,130.9c0,1.7-1.3,2.2-7.3,2.2c-4.2,0-5.8-1.1-6.7-1.9
		c-0.2-0.2-1.3-1.3-1.3-2.1c0-0.1,0-0.4,0.2-0.4c0.2,0,0.9,0.5,1,0.6c1.2,0.6,3,0.7,4.6,0.7c1.1,0,2.7,0,3.8-0.1
		c0.6,0,3.6-0.3,3.8-0.3C121.3,129.5,121.6,130.4,121.6,130.9L121.6,130.9z M119.6,110c0,2.1-4.8,2.1-5.3,2.1
		c-4.9,0-7.5-2.6-7.5-3.2c0-0.1,0-0.2,0.3-0.2c0.1,0,0.7,0.2,1.2,0.3c1,0.2,2.2,0.3,2.9,0.3c2.1,0,4.1-0.4,4.7-0.7
		c1.3-0.5,1.4-0.5,1.8-0.5C118.6,108.2,119.6,109,119.6,110L119.6,110z M103.5,157.6c0,0.4-0.7,2.1-0.8,2.4
		c-0.6,2.2-1.8,11.7-1.8,15.3c0,4.4,0.8,8.2,6.6,8.2c2.1,0,5.2-0.4,9.1-2.2c0.7-0.3,3.9-2.1,4.1-2.1s0.2,0.1,0.2,0.2
		c0,0.5-6.4,7.4-14.5,7.4c-5.6,0-8.3-3.2-8.3-11.9c0-2.7,0.1-3.5,1-12c0.2-1.4,0.6-4.9,0.6-6.2c0-0.8-0.1-1.5-0.4-2.1
		c0-0.1-0.5-1.1-0.5-1.2c0-0.3,0.3-0.4,0.6-0.4C101.6,153.1,103.5,156.6,103.5,157.6L103.5,157.6z M91.3,214.7
		c0-0.2,0.2-0.3,0.4-0.3c0.1,0,2.4,0.6,2.8,0.6c1.2,0,7.2-1.2,7.2-1.3c0.7-0.5,0.8-4.9,0.8-5.1c0-1.1-0.1-2.4-1.1-3.7
		c-0.7-0.8-0.7-0.9-0.7-1c0-0.3,0.5-0.3,0.7-0.3c2.9,0,4.6,1.6,4.6,2.8c0,0.1-1.6,5.6-1.6,6.4c0,0.3,0.2,0.4,0.5,0.4
		c0.2,0,2.2-0.2,2.5-0.2c3.2,0,5.7,1.6,5.7,5.5c0,3.4-1.2,10.8-3.7,13.8c-1.2,1.4-2.9,2.6-4.4,2.6c-1.6,0-2.1-1.6-2.5-3
		c-0.1-0.2-0.6-1.3-0.6-1.4c0-0.1,0.1-0.2,0.2-0.2c0,0,0,0,0,0c0.2,0,0.9,0.3,1.1,0.3c0.9,0.2,1.7,0.3,2.2,0.3
		c1.2,0,2.8-0.6,4.1-5.3c0.5-1.7,1.3-5.2,1.3-7.5c0-3-1.7-3.2-3-3.2c-1.4,0-3.8,0.6-4.1,1c-0.2,0.2-0.2,0.4-0.7,1.9
		c-1.7,5.9-5.9,16.4-9.4,16.4c-0.9,0-1.4-0.6-1.4-1.4c0-0.9,0.3-1.2,2.9-4.1c1.2-1.3,3-3.3,5.3-9.7c0.2-0.4,0.6-1.7,0.6-2
		c0-0.1,0-0.3-0.3-0.3c-0.9,0-4.9,1.7-5.8,1.7C93.3,218.4,91.3,215.6,91.3,214.7L91.3,214.7z M121.3,223.7c-0.4,0-2.4-1.2-2.9-1.3
		c-0.2-0.1-1.4-0.2-1.4-0.3c0-0.3,1.4-1,1.7-1.2c1.6-1.2,1.8-1.3,1.8-2.5c0-0.7-0.3-3.5-3.5-4.9c-0.3-0.2-1-0.5-1-0.6
		c0-0.3,0.2-0.3,0.3-0.3c5.5,0,7.5,5.4,7.5,7.6C123.8,220.7,123.1,223.7,121.3,223.7L121.3,223.7z M101,256c0-0.6-0.2-1.3-0.6-1.9
		c-0.1-0.2-0.8-1-0.8-1.2c0-0.5,0.9-0.9,1.8-0.9c1.7,0,2.4,0.9,3.1,1.9c0.2,0.3,0.7,0.5,1.9,0.8c0.8,0.2,2.5,0.7,2.5,1.9
		c0,1.6-2.4,2.4-5.9,3.5c-0.4,0.1-0.4,0.3-0.8,1.8c-0.5,2.1-4.2,16.7-8.2,16.7c-1.2,0-1.3-0.8-1.3-1.2c0-0.6,0.1-0.8,1.4-2.7
		c4.7-6.9,5.9-13.8,5.9-14c0-0.4-0.3-0.4-0.9-0.5c-5.1-0.4-5.1-3.5-5.1-3.5c0-0.2,0-0.5,0.3-0.5c0.2,0,0.3,0,1.2,0.6
		c0.5,0.3,1.7,0.9,3.3,0.9c0.1,0,1.6,0,1.9-0.3S101,256.4,101,256L101,256z M113.4,283c-0.6,3.8-3.8,4.7-6.1,4.7
		c-4.1,0-6.5-2.8-6.5-5c0-2.8,3.1-4.3,6.9-4.3c0.3,0,1.9,0.1,2.2,0.1c0.4,0,0.6,0,0.6-0.5c0-0.6-0.2-3.5-0.2-4.1
		c0-4.7,0.3-7,3.9-9.1c2.7-1.5,3-1.7,3-2.8c0-1-0.9-1.9-1.2-2.2c-0.4-0.3-0.6-0.5-0.6-0.7c0-0.1,0.1-0.2,0.3-0.2
		c0.3,0,1.6,0.4,2.5,0.7c3,1.1,3.1,3.8,3.1,4.4c0,1.6-1.2,2.2-2,2.2c0,0-0.6,0-1-0.2c-1.6-0.6-1.8-0.7-2.3-0.7c-1,0-2.5,0.6-3.1,1.3
		c-1,1-1,2.5-1,3.6s0.4,7.8,1.7,8.7c0.4,0.3,2.4,1,2.8,1.2c0.9,0.5,3.4,1.9,3.4,3.5c0,0.7-0.3,1.5-1.2,1.5c-0.4,0-0.7-0.1-1.3-0.7
		c-1.2-1-3.1-2.4-3.8-2.1C113.5,282.4,113.5,282.5,113.4,283L113.4,283z M107.2,280.5c-1,0-4.9,0-4.9,2.3c0,1,1.3,2.3,3.9,2.3
		c4.2,0,4.8-3.3,4.5-4C110.5,280.5,108.1,280.5,107.2,280.5z M106,255.9c0-0.3-1.5-1.1-1.8-1.1c-0.7,0-1,1.8-1,1.9
		c0,0.1,0,0.2,0.1,0.3C103.4,257.1,106,256.5,106,255.9L106,255.9z M97.4,312.6c0,0.3-0.1,0.5-0.5,1.7c-0.6,1.7-1,3.3-1,5.6
		c0,4.4,2.2,7.5,3.6,7.5c0.7,0,0.9-0.2,2.2-2.4c0.3-0.4,1-1.5,1.3-1.5c0.1,0,0.2,0.2,0.2,0.3s-0.1,0.7-0.1,0.9
		c-0.5,2-0.6,2.4-0.6,3.3c0,0.7,0.1,1.3,0.3,1.7l0.3,1.4c0,0.9-0.9,1.3-1.6,1.3c-2.8,0-8.2-4.5-8.2-12.8c0-1.2,0.6-6.5,0.6-7.6
		c0-0.9-0.2-2-0.3-2.5c-0.3-1.1-0.3-1.2-0.3-1.5c0-0.1,0.2-0.2,0.3-0.2C95.5,308,97.4,311.5,97.4,312.6L97.4,312.6z M118.4,313.6
		c2.2,1.8,3.8,4.8,3.8,8.2c0,0.8-0.1,2.8-2.2,2.8c-2.1,0-2.1-2.3-2.1-2.9c0-3.6,0-5.4-2.3-7.7c-0.3-0.3-2.1-1.7-2.1-1.9
		c0-0.1,0.2-0.2,0.4-0.2C114.1,312,116.6,312.1,118.4,313.6L118.4,313.6z M30.4,14c2.1,0,2.3,0,2.9-1c0.9-1.4,1.1-1.7,1.5-1.7
		c0.5,0,3.5,2.8,3.5,3.2c0,0.6-0.8,0.6-2.3,0.6H24.6c-1.2,0-1.2,0.7-1.2,1.4l0.1,5.8c0.3,0.6,0.9,0.6,1.1,0.6h8.1c2,0,2.2,0,2.8-0.7
		c1.4-1.9,1.5-2.1,2.1-2.1c0.7,0,3.7,2.9,3.7,3.4c0,0.6-0.9,0.6-2.3,0.6H24.6c-1.1,0-1.2,0.6-1.2,1.3l0,8.6c0,1.4,0,3-1.9,4.5
		c-1.1,0.8-2.1,1-2.9,1c-0.7,0-0.7-0.1-0.9-1.3c-0.2-1-1.7-1.8-3.2-2.5c-0.1,0-0.4-0.2-0.4-0.3c0-0.2,0.3-0.2,0.4-0.2
		c4.5,0,4.9,0,5.3-0.6c0.3-0.6,0.4-1,0.4-9.2c0-0.5,0-1.3-1.2-1.3H9.7l-5.4,0.1c-0.3,0.1-0.6,0.1-0.9,0.1c-0.2,0-0.3-0.1-0.4-0.3
		l-0.8-1C2,22.8,2,22.8,2,22.7c0-0.1,0.1-0.1,0.2-0.1c0.3,0,1.6,0.2,1.9,0.2l5.9,0.1h9.2c0.3,0,0.9,0,1.1-0.5
		c0.1-0.3,0.1-5.3,0.1-5.9c0-0.6,0-1.4-1.2-1.4h-6.7L7,15.2c-0.1,0-0.8,0.1-0.9,0.1c-0.2,0-0.3-0.1-0.4-0.3l-0.8-1
		c-0.1-0.1-0.2-0.2-0.2-0.3c0-0.1,0.1-0.1,0.2-0.1c0.3,0,1.6,0.2,1.9,0.2l5.9,0.1h6.5c1.2,0,1.2-0.8,1.2-1.3c0-6.3,0-6.5-1.5-6.5
		l-6.2,0.2c-0.7,0-6.7,0-6.7-0.6c0-0.1,1.5-0.3,1.8-0.3C13.3,5,22.4,4.1,27.2,2.3c1-0.4,1.4-0.6,2.7-1.2c0.1,0,0.3-0.1,0.4-0.1
		c0.3,0,2,1.4,2.4,1.7c1.5,1,1.5,1.1,1.5,1.4c0,0.7-0.5,0.8-3.9,1c-1.1,0-5.6,0.4-6.5,0.9c-0.7,0.4-0.7,0.8-0.7,4.6
		c0,3.1,0,3.4,1.2,3.4L30.4,14L30.4,14z M21.6,57.8c0,0.1,0.1,0.3,0.1,0.5c0.2,1.4,0.4,2.8,0.4,4.7c0,2.9-0.6,6.9-4.4,12.6
		c-3.4,5.3-5.6,6.3-7.4,6.3c-2.8,0-5.4-4.4-5.4-9.7c0-2.3,0.5-6.6,4.8-11c5.5-5.6,11.2-5.6,13.7-5.6c3.9,0,5.7,0.8,6.9,1.4
		c4.7,2.3,7.5,6.9,7.5,12.5c0,5.6-3.2,12.5-10.9,15.2c-3.7,1.3-6.5,1.6-7.1,1.6c-0.2,0-0.4,0-0.4-0.3c0-0.1,0.1-0.2,1.2-0.6
		c4.5-1.8,13.8-5.5,13.8-16.2c0-1.7-0.2-11.9-11.9-11.9C21.6,57.2,21.6,57.6,21.6,57.8L21.6,57.8z M7.6,71c0,2.8,1.1,6.6,3.8,6.6
		c1.2,0,2.3-0.5,5.2-5c2.3-3.5,4.2-8.3,4.2-12.5c0-2.6-0.2-2.8-0.7-2.8C16,57.3,7.6,62.9,7.6,71L7.6,71z M8.9,127.3
		c0,4.4-3.1,8.6-5.3,8.6c-0.9,0-1.5-0.9-1.5-1.7c0-0.9,0.3-1.1,2.5-3c1.6-1.4,3.2-3.4,3.7-5.2c0-0.1,0.1-0.3,0.3-0.3
		C8.9,125.7,8.9,126.8,8.9,127.3L8.9,127.3z M12.2,119.5c-0.6,0-0.9,0.1-1.1,0.7c-0.2,0.8-0.4,1.7-2.3,1.7c-0.5,0-1.3,0-1.3-1.6
		c0-0.3,0.1-2,0.2-2.4c0-0.8,0.2-2.8,0.2-5.7c0-1.6,0-5.2-0.5-8.5c0-0.3-0.3-1.6-0.3-1.9c0,0,0-0.2,0.1-0.2c0.3,0,2.4,1,2.8,1.2
		c0.9,0.5,1.3,0.6,2.4,0.6h17.9c0.9,0,1.2-0.2,1.8-0.8c0.8-0.7,1.1-0.8,1.3-0.8c0.9,0,2.5,1.7,2.5,2.2c0,0.3-0.9,1.5-0.9,1.8
		c-0.1,0.5-0.1,4.1-0.1,4.9l0.1,8.9c0,1.7-1.8,2.3-2.5,2.3c-0.5,0-0.8-0.4-0.9-0.8c0,0,0-0.1,0-0.1c0-0.7,0-1.4-1.3-1.4L12.2,119.5
		L12.2,119.5z M12.1,104.5c-1.3,0-1.4,0-1.4,3.9c0,2,0,2.4,1.4,2.4h6.4c1,0,1.5-0.2,1.5-1.2c0-5,0-5.1-1.5-5.1L12.1,104.5
		L12.1,104.5z M18.8,118.4c0.7,0,1-0.3,1.1-0.7c0.1-0.3,0.1-3.8,0.1-4.4c0-1.2-0.5-1.4-1.5-1.4h-6.3c-1.4,0-1.4,0.5-1.4,2.2
		c0,4,0,4.3,1.4,4.3L18.8,118.4L18.8,118.4z M13.8,122.4c2.5,0.7,2.7,0.7,2.7,1.2c0,0.3-0.1,0.4-0.5,0.8c-0.5,0.6-0.5,0.8-0.5,1.3
		c0,1.2-0.1,6.5,0,7.6c0.1,1.5,0.7,2.1,5.9,2.1c7.5,0,8.1-1.8,8.6-3.3c0.2-0.5,0.7-3.3,1-3.3c0.3,0,0.6,1.6,0.6,1.9
		c0.3,0.9,0.9,1.8,1.3,2.3c0.3,0.4,0.4,0.6,0.4,0.9c0,0.9-1,1.9-2.4,2.7c-2.7,1.5-7.9,1.7-11,1.7c-7.4,0-7.4-1.9-7.4-5.9
		c0-0.8,0.1-4.4,0.1-5.1c0-0.8-0.1-3.7-0.2-4.2c-0.1-0.3-0.2-0.8-0.1-0.9C12.4,122,13.7,122.4,13.8,122.4L13.8,122.4z M19.8,121.6
		c1.1,0,6.6,2.5,6.6,6.3c0,1.4-0.8,2.1-1.5,2.1c-1.1,0-1.2-0.5-2.1-3c-1-2.7-1.6-3.4-3-5c-0.1-0.1-0.1-0.2-0.1-0.3
		C19.6,121.6,19.7,121.6,19.8,121.6z M24.1,104.5c-1.2,0-1.2,0.2-1.2,5c0,0.7,0,1.3,1.5,1.3h6.5c1.4,0,1.4-0.1,1.4-4.3
		c0-1.2,0-2.1-1.1-2.1L24.1,104.5L24.1,104.5z M30.7,118.4c1.1,0,1.3,0,1.3-4.7c0-1.2,0-1.8-1.2-1.8h-6.5c-0.4,0-1.1,0-1.3,0.6
		c-0.1,0.2-0.1,3.8-0.1,4.5c0,0.6,0,1.4,1.2,1.4L30.7,118.4L30.7,118.4z M34.7,125c0.3,0,6.1,3.2,6.1,7.4c0,1.3-1,2.3-1.8,2.3
		c-1.4,0-1.6-1.6-1.9-3.5c-0.4-2.4-1.7-4.5-2.5-5.5c-0.1-0.1-0.2-0.2-0.1-0.4C34.4,125.1,34.5,125,34.7,125L34.7,125z M3.8,186.7
		c-0.7,0-1.6-0.1-1.6-1.1c0-0.8,0.2-1,1.9-2.8c0.7-0.7,2.3-2.5,3-5.7c0.1-0.7,0.3-1.2,0.4-1.2c0.5,0,0.6,2.3,0.6,2.9
		C8.1,179.9,8,186.7,3.8,186.7L3.8,186.7z M14.9,158.1c-0.8,0-0.9,0.6-0.9,0.7c0,0.2,0.1,0.6,0.6,1c3.6,2.7,5,3.7,5,5.6
		c0,1-0.9,2-1.7,2c-0.6,0-0.9-0.7-1.2-2c-0.3-1.7-1.9-4.6-2.3-4.6c-0.1,0-0.4,0.1-0.4,0.6l0,2.6l0.3,7.2c0,0.4,0,2.5-1.9,2.5
		c-1.2,0-1.2-1.2-1.2-1.5l0.3-5.6l0.1-3.1c0-0.2-0.2-0.4-0.4-0.4s-0.3,0.1-1,1.1c-5.4,7.3-7.3,7.4-7.4,7.4c0,0,0,0,0-0.1
		c0-0.1,2.5-3.5,2.9-4.1c2.7-4,4.8-8.3,4.8-8.7c0-0.3-0.3-0.7-0.6-0.7c-3,0-4.6,0.1-4.8,0.1c-0.1,0-0.8,0.1-0.9,0.1
		c-0.1,0-0.2-0.1-0.3-0.3l-0.9-1c-0.2-0.2-0.2-0.2-0.2-0.3s0.1-0.1,0.2-0.1c0.2,0,1.3,0.1,1.5,0.1c1.6,0.1,4.4,0.2,6.1,0.2
		c0.6,0,1.3,0,1.3-1.3c0-1,0-2.6-0.2-3.4c0-0.3-0.3-1.4-0.3-1.6s0.3-0.3,0.5-0.3c0.1,0,4,1.1,4,1.8c0,0.3-1.3,1.3-1.4,1.7
		c-0.1,0.5-0.2,0.8-0.2,2.2c0,0.5,0.4,0.8,0.9,0.9c0.1,0,0.9,0,1.2-0.3c0.2-0.2,1-1.5,1.3-1.5c0.2,0,3.1,1.8,3.1,2.4
		s-0.9,0.6-2.3,0.6L14.9,158.1L14.9,158.1z M16.5,175.9c0.3,0.1,0.6,0.4,0.6,0.7s-0.4,0.6-1.2,1.1c-0.4,0.3-0.4,3-0.4,3.8
		c0,3,0,4.2,4,4.2c1.6,0,7.3-0.3,8.4-1.3c0.8-0.8,1.5-3.1,2-4.5c0.2-0.6,0.3-1,0.5-1c0.2,0,0.2,0.2,0.3,1.6c0,0.8,0.2,2.5,1.2,3.2
		c0.9,0.6,1.2,0.8,1.2,1.2c0,0.5-0.7,3.7-10.8,3.7c-9.7,0-9.7-2-9.7-5.5c0-0.6,0.1-3.1,0.1-3.6c0-0.8,0-1.7-0.1-2.5
		c0-0.2-0.1-1.2-0.1-1.4c0-0.3,0-0.8,0.7-0.8c0.3,0,0.6,0.1,1.2,0.3C14.5,175.1,16.5,175.8,16.5,175.9L16.5,175.9z M23.6,180.8
		c-1,0-1.1-0.5-1.7-2.7c-0.3-1.3-0.7-2-1.6-3.7c-0.2-0.3-0.3-0.4-0.3-0.6c0,0,0-0.1,0.1-0.1c0,0,5.1,2.1,5.1,5
		C25.2,179.8,24.5,180.8,23.6,180.8z M26.6,170.8c-0.3,0-1,0-1.2,0.7c-0.2,0.7-0.6,2.1-2.2,2.1c-0.8,0-1.1-0.4-1.1-1.3
		c0-0.8,0-1.6,0.1-2.4c0.1-2,0.1-8.4,0.1-8.7c0-1.9-0.1-5.8-0.3-7.6c0-0.2-0.3-1.3-0.3-1.6c0-0.2,0-0.4,0.4-0.4s2.1,1.1,2.5,1.2
		c0.8,0.3,1.2,0.3,1.6,0.3h6.6c0.3,0,0.8,0,1.2-0.4c0.2-0.2,0.9-1.4,1.2-1.4c0.3,0,3.4,2.2,3.4,2.8c0,0.2-0.8,0.9-0.9,1.2
		c-0.3,0.6-0.3,4.6-0.3,5.6l0.1,7.1c0,0.4,0.1,2.2,0.1,2.6c0,2.3-1.4,2.8-1.9,2.8c-1,0-1.1-0.6-1.2-1.8c-0.1-0.9-0.8-0.9-1.3-0.9
		L26.6,170.8L26.6,170.8z M26.4,154.3c-1.4,0-1.4,0.6-1.4,2.2s0,2.2,1.4,2.2h6.7c1.4,0,1.4-0.6,1.4-2.2s0-2.2-1.4-2.2H26.4
		L26.4,154.3z M26.4,159.8c-1.3,0-1.3,0.5-1.3,2.2c0,1.7,0,2.2,1.3,2.2h6.9c1.3,0,1.4-0.5,1.4-2.2c0-1.7,0-2.2-1.4-2.2H26.4z
		 M26.4,165.4c-0.5,0-1.3,0-1.3,1.1c0,2.9,0,3.2,1.3,3.2h6.9c0.5,0,1.3,0,1.3-1.1c0-2.8,0-3.2-1.3-3.2L26.4,165.4L26.4,165.4z
		 M39.7,186.1c-1.5,0-1.8-1.1-2.7-4.3c-0.3-0.9-1.3-3.3-3.2-5c-0.1-0.1-0.7-0.7-0.7-0.8c0-0.1,0-0.1,0.1-0.1c0.1,0,1.4,0.4,2.1,0.6
		c3.8,1.6,5.8,4.9,5.8,7.4C41,185.4,40.3,186.1,39.7,186.1z"/>
	<g>
		<path id="C_1_" class="st0" d="M40.4,206c0,2.4-1.9,4.7-4.8,4.7c-2.9,0-4.7-2.4-4.7-4.8c0-3.3,2.8-4.7,4.8-4.7
			C38.4,201.2,40.4,203.5,40.4,206L40.4,206z M32,205.9c0,1.9,1.6,3.6,3.6,3.6c1.9,0,3.6-1.5,3.6-3.5c0-1.7-1.3-3.7-3.7-3.7
			C33.2,202.4,32,204.3,32,205.9L32,205.9z"/>
	</g>
</g>
</svg>
