<?xml version="1.0" encoding="utf-8"?>
<!-- Generator: Adobe Illustrator 24.1.0, SVG Export Plug-In . SVG Version: 6.00 Build 0)  -->
<svg version="1.1" id="レイヤー_1" xmlns:v="https://vecta.io/nano"
	 xmlns="http://www.w3.org/2000/svg" xmlns:xlink="http://www.w3.org/1999/xlink" x="0px" y="0px" width="217.1px" height="313.2px"
	 viewBox="0 0 217.1 313.2" style="enable-background:new 0 0 217.1 313.2;" xml:space="preserve">
<style type="text/css">
	.st0{fill:#FFFFFF;}
</style>
<g>
	<path class="st0" d="M204.9,6.1c1.9,0,2.1,0,2.8-0.7c1.7-2.2,1.9-2.4,2.5-2.4c0.4,0,0.7,0,3.7,2.7c0.7,0.6,1,0.9,1,1.2
		c0,0.6-0.3,0.6-2.4,0.6h-29.6l-5.4,0.1c-0.1,0-0.8,0.1-0.9,0.1c-0.2,0-0.3-0.1-0.4-0.3l-0.9-1.2c0-0.1-0.2-0.3-0.2-0.4
		s0.1-0.1,0.2-0.1c0.2,0,1.6,0.2,1.8,0.2c1.4,0.1,4.7,0.1,6,0.1L204.9,6.1L204.9,6.1z M177.5,51.8c0-0.5,0.3-0.7,0.6-0.7
		c0.4,0,2.2,0.5,2.6,0.5c1.1,0,1.6-0.3,6.9-2.4c2.1-0.8,8-3.2,12.1-3.2c6.3,0,11,4.9,11,10.6c0,7.8-8,12.5-17.3,12.5
		c-0.4,0-1,0-1-0.6c0-0.3,0.2-0.3,1.8-0.6c10.6-1.5,13.2-9.1,13.2-12.9c0-5-4.1-7.2-7-7.2c-4.1,0-10.2,3.3-14,5.9
		c-2.1,1.5-2.8,1.8-4,1.8C179.9,55.5,177.5,53.1,177.5,51.8L177.5,51.8z M195.1,94.3c0,0.1,0.1,0.3,0.1,0.5c0.2,1.4,0.4,2.8,0.4,4.7
		c0,2.9-0.6,6.9-4.4,12.6c-3.4,5.3-5.6,6.3-7.4,6.3c-2.8,0-5.4-4.4-5.4-9.7c0-2.3,0.5-6.6,4.8-11C188.7,92,194.5,92,197,92
		c3.9,0,5.7,0.8,6.9,1.4c4.6,2.3,7.5,6.9,7.5,12.5c0,5.6-3.2,12.5-10.9,15.2c-3.7,1.3-6.5,1.6-7.1,1.6c-0.2,0-0.4,0-0.4-0.3
		c0-0.1,0.1-0.2,1.2-0.6c4.5-1.8,13.8-5.5,13.8-16.2c0-1.7-0.2-11.9-11.9-11.9C195.2,93.7,195.2,94,195.1,94.3L195.1,94.3z
		 M181.1,107.5c0,2.8,1.1,6.6,3.8,6.6c1.2,0,2.3-0.5,5.2-5c2.3-3.5,4.2-8.3,4.2-12.5c0-2.6-0.2-2.8-0.7-2.8
		C189.5,93.8,181.1,99.4,181.1,107.5L181.1,107.5z M191.6,142.6c0,0.4-0.3,0.5-1.2,0.7c-0.4,0.1-1.2,1.4-2.1,2.9
		c-5,8.2-11.9,11.9-12.8,11.9c-0.1,0-0.2-0.1-0.3-0.2c0,0,0,0,0-0.1c0-0.3,0.1-0.3,0.9-0.9c5.8-4.6,9.1-11.7,9.7-13
		c0.3-0.6,1.4-4.3,1.5-4.3C187.5,139.6,191.6,141.9,191.6,142.6L191.6,142.6z M195.7,155.2c-1.1,0-1.1,0.1-1.4,2.4
		c-0.4,3.8-1.2,11.2-8.7,15.4c-3.5,2-8,2.8-8.2,2.8c-0.1,0-0.5,0-0.5-0.3c0-0.2,0.2-0.3,1-0.6c3-1.1,6.4-3.1,8.5-5.2
		c3.2-3.2,4.9-9.1,4.9-13.6c0-0.9-0.4-0.9-1.1-0.9h-1.3c-1.6,0-3.7,0-4.4,0.1c-0.2,0-0.8,0.1-0.9,0.1c-0.2,0-0.3-0.1-0.4-0.3l-0.9-1
		c-0.1-0.2-0.2-0.2-0.2-0.3c0-0.1,0-0.1,0.2-0.1c0.3,0,1.6,0.2,1.9,0.2c2.1,0.1,3.9,0.1,5.9,0.1h9.4c1.9,0,2.1-0.1,2.8-0.8
		c0.6-0.7,1-0.9,1.3-0.9c0.7,0,3.2,2,3.2,2.9c0,0.2-0.7,1-0.8,1.2c-0.2,0.4-0.5,5.3-0.6,6.3c-0.5,5.2-0.8,8.7-2,10.7
		c-1.2,1.9-3.8,2.6-4.4,2.6c-0.5,0-0.5-0.1-0.8-1.3c-0.3-1-1.7-1.6-4-2.2c-0.9-0.3-1.4-0.4-1.4-0.7s0.4-0.3,0.5-0.3
		c0.3,0,1.5,0.3,1.7,0.3c2.3,0.3,2.5,0.3,3.1,0.3c2.1,0,3.2-0.4,3.8-4.8c0.4-3.3,0.9-8.3,0.9-10.5c0-1.2-0.1-1.6-1.3-1.6
		L195.7,155.2L195.7,155.2z M197.9,141.3c-1.1,0-2.5,0-3.4,0.1c-0.1,0-0.7,0.1-0.9,0.1s-0.2,0-0.3-0.3l-0.8-1
		c-0.1-0.1-0.1-0.2-0.1-0.3c0,0,0-0.1,0.1-0.1c0.3,0,1.5,0.2,1.8,0.2c0.5,0,2.3,0.1,2.6,0.1c1,0,1.6-0.7,1.8-1.1
		c0.9-1.2,0.9-1.3,1.3-1.3c0.6,0,3.8,2.1,3.8,3.1c0,0.4-0.1,0.5-1.3,0.8c-0.2,0-0.9,0.3-0.9,0.9c0,2.2,5.7,9.1,13,9.8
		c0.1,0,0.6,0.1,0.6,0.3c0,0.2-1.1,0.5-1.3,0.5c-1.1,0.6-2.1,1.3-2.6,2c-0.1,0.1-0.6,0.6-0.7,0.6c-1.5,0-8.6-5.9-10.3-12.4
		c-0.5-1.9-0.6-2-1.6-2L197.9,141.3L197.9,141.3z"/>
	<path class="st0" d="M188.9,214.2c-0.8,0-1.6,0-1.6,1.2v4.1c0,0.8,0,1.1,0.6,1.1c1.1,0,7.5-1.2,8.3-1.2c0.1,0,0.4,0,0.4,0.1
		c0,0.3-3.3,1.6-4.1,1.8c-1.9,0.6-12.1,3.4-12.4,3.6c-0.2,0.1-1.2,1-1.5,1c-0.3,0-0.4-0.2-0.5-0.4c-0.8-1.5-1.9-3.5-1.9-3.8
		c0-0.1,2.6-0.1,2.9-0.1c0.5,0,4.7-0.1,5.2-0.8c0.3-0.4,0.3-4.4,0.3-5.1c0-1.3-0.6-1.3-1.8-1.3c-1.9,0-3.2,0.1-3.6,0.1
		c-0.1,0-0.8,0.1-0.9,0.1c-0.2,0-0.3-0.1-0.4-0.3l-0.8-0.9c-0.2-0.2-0.2-0.3-0.2-0.3c0-0.1,0.1-0.1,0.2-0.1c0.2,0,1.3,0.1,1.6,0.1
		c0.5,0,3.6,0.1,4.4,0.1c1.3,0,1.7-0.2,1.7-1.4l0-4.6c0-1.1-0.7-1.1-1.4-1.1h-1.1c-0.8,0-1.1,0-1.3,0.6c-0.4,1-1.2,1.6-1.9,1.6
		c-0.9,0-0.9-1.1-0.9-1.4l0.1-9.6c0-3.5,0-3.9-0.1-7.2c0-0.2,0-1.1,0-1.3c0-0.3,0-0.5,0.3-0.5c0.5,0,1.6,0.7,2.1,1
		c1,0.6,1.1,0.6,1.7,0.6h8c0.6,0,0.7-0.1,1.3-0.6c0.3-0.3,0.8-0.7,1.2-0.7c0.5,0,2.7,1.7,2.7,2.4c0,0.4-0.1,0.5-1.1,1.4
		c-0.2,0.2-0.3,0.3-0.3,2.1l0.1,11.2c0,1.4-1.1,2-2,2c-0.6,0-0.7-0.3-0.9-0.9c-0.2-0.6-0.7-0.6-1.5-0.6h-0.9c-0.4,0-1.1,0-1.2,0.5
		c-0.1,0.4-0.1,4.8-0.1,5.5c0,0.6,0,1.2,1.1,1.2c0.9,0,1.6,0,2-0.7c0.6-1,0.8-1.3,1.2-1.3c0.6,0,3.2,2,3.2,2.7
		c0,0.5-0.2,0.5-2.2,0.5L188.9,214.2L188.9,214.2z M183.6,197.2c1.3,0,1.4-0.2,1.4-1.9v-3.5c0-0.9-0.4-1-1.4-1h-1.2
		c-0.7,0-1.3,0-1.4,0.7c0,0.3,0,3,0,3.6c0,1.9,0,2.1,1.5,2.1H183.6L183.6,197.2z M183.5,204.8c0.5,0,1.1,0,1.3-0.5
		c0.2-0.4,0.2-4.1,0.2-4.7c0-1.1-0.3-1.3-1.5-1.3h-1c-1,0-1.5,0-1.5,1.2l0,4c0,1.1,0.3,1.2,1.4,1.2L183.5,204.8L183.5,204.8z
		 M188.9,198.3c-0.9,0-1.5,0-1.5,1.2v4.1c0,1.2,0.6,1.2,1.5,1.2h0.8c0.7,0,1.3,0,1.4-0.8c0-0.2,0-3,0-4.5c0-1.2-0.6-1.2-1.5-1.2
		L188.9,198.3L188.9,198.3z M188.9,190.8c-0.9,0-1.4,0-1.4,1.2v4c0,1.2,0.5,1.2,1.4,1.2h0.8c0.9,0,1.4,0,1.4-1.2V192
		c0-1.2-0.5-1.2-1.4-1.2L188.9,190.8L188.9,190.8z M207,202.8c-1.3,0-1.5,0.3-1.5,1.5l-0.1,10l0,7.8c0,2.1-0.2,2.7-1.1,3.3
		c-0.9,0.5-1.3,0.6-2.5,0.6c-0.3,0-0.4-0.1-0.5-0.3c-0.5-0.9-0.9-1.5-1.7-2c-0.3-0.2-2.2-1.1-2.2-1.3c0-0.1,0.2-0.1,0.3-0.1
		c0.2,0,1,0.1,1.2,0.1c0.6,0,1.3,0.1,1.9,0.1c1.8,0,1.7-0.4,1.8-1.4l0-16.9c0-0.7-0.2-1.3-1.3-1.3c-1.2,0-3.3,0-4.4,0.1
		c-0.3,0.1-0.6,0.1-0.9,0.1c-0.2,0-0.3-0.1-0.4-0.3l-0.8-1c-0.2-0.2-0.2-0.2-0.2-0.3c0-0.1,0.1-0.1,0.2-0.1c0.3,0,1.6,0.1,1.9,0.2
		c1.2,0,3.4,0.1,5.9,0.1h6.5c0.8,0,0.9-0.1,1.3-0.6c0.6-0.6,0.6-0.7,0.9-0.7c0.9,0,3.6,2.8,3.6,3.3c0,0.4-0.4,0.6-0.7,0.6
		c-1.1,0.1-1.3,0.2-2.7,1.1c-0.6,0.4-3,2.5-3.3,2.5c-0.2,0-0.2-0.1-0.2-0.2c0-0.4,1.9-4.1,1.9-4.6c0-0.3-0.3-0.3-0.6-0.3L207,202.8
		L207,202.8z M206.9,189.8c0.8,0,1.1,0,1.5-0.4c0.9-1.2,1-1.3,1.4-1.3c0.5,0,4.1,2.6,4.1,3.3c0,0.5-0.3,0.5-1.3,0.5
		c-1.9,0-2.7,0.6-7.1,3.9c-0.2,0.1-0.4,0.3-0.4,0.5c0,0.2,0.5,0.9,0.6,1.1c0.2,0.3,0.4,0.9,0.4,1.3c0,0.9-0.8,1.9-1.5,1.9
		c-0.6,0-1.1-0.7-1.4-1.3c-0.6-1.2-1.2-2.1-2.3-3.2c-0.3-0.2-1.6-1.4-1.6-1.5c0-0.1,0.2-0.1,0.3-0.1c0.3,0,1.6,0.2,2.7,0.5
		c0.4,0.1,1.8,0.8,2.1,0.8c0.8,0,3-4.1,3-4.4c0-0.3-0.3-0.4-0.8-0.4h-3.1c-1.7,0-3.4,0-5.1,0.1c-0.1,0-1.2,0.1-1.2,0.1
		c-0.2,0-0.3-0.1-0.4-0.3l-0.8-1c-0.2-0.2-0.2-0.2-0.2-0.3s0.1-0.1,0.2-0.1c0.3,0,1.6,0.1,1.9,0.1c1.2,0.1,3.5,0.2,5.9,0.2
		L206.9,189.8L206.9,189.8z M181,247.5c1.8,0,2.5-0.2,8.4-1.9c3.8-1.1,13.7-3.9,16.5-3.9c1.6,0,3.5,0.6,3.5,2.1
		c0,1.1-1.1,1.6-1.8,1.6c-0.6,0-3-0.5-3.5-0.5c-5.5,0-11.6,5-11.6,16.2c0,7.2,2.7,7.7,5.2,7.7c0.6,0,3.7-0.3,4.1-0.3
		c1.3,0,2.1,0.6,2.1,1.6c0,2.3-4.7,2.3-5,2.3c-8.8,0-8.8-7.2-8.8-9.2c0-1.9,0-11,6.2-16.6c0.2-0.1,1.1-0.8,1.1-0.9s-0.2-0.1-0.3-0.1
		c-2.5,0-11.4,3.8-12.8,4.6c-0.6,0.3-1,0.6-1.5,0.6c-2.1,0-4.2-2.9-3.7-3.5C179.4,247.1,180.7,247.5,181,247.5L181,247.5z
		 M208.5,257.1c0,1-0.8,1.8-1.5,1.8c-0.8,0-1.2-0.8-1.9-2.5c-0.5-1.2-0.8-1.6-2.1-3.4c-0.1-0.2-0.4-0.6-0.4-0.8
		c0-0.2,0.5-0.3,0.9-0.2C207.1,253,208.5,255.7,208.5,257.1L208.5,257.1z M213.7,255c0,1.1-0.7,1.6-1.2,1.6c-1,0-1.5-1.2-1.9-2.3
		c-0.4-0.9-1.7-2.5-2.8-3.4c-0.2-0.2-0.4-0.3-0.4-0.6c0-0.3,0.5-0.3,0.6-0.3c0.3,0,0.8,0.1,1.1,0.2
		C211.5,251.1,213.7,252.9,213.7,255L213.7,255z M120,37c2,0,2.4-0.1,2.7-0.4c0.4-0.4,1.9-2.6,2.5-2.6s4.3,3.1,4.3,3.6
		s-0.8,0.6-2.2,0.6H97.5L92,38.3c-0.3,0.1-0.6,0.1-0.9,0.1c-0.1,0-0.2-0.1-0.4-0.3l-0.8-1c-0.2-0.2-0.2-0.2-0.2-0.3
		c0-0.1,0-0.1,0.1-0.1c0,0,0,0,0,0c0.3,0,1.6,0.1,1.9,0.2l5.9,0.1L120,37L120,37z M116.2,5.5c2,0,2.3,0,2.7-0.4
		c0.4-0.3,1.9-2.5,2.5-2.5s4.3,2.9,4.3,3.5s-0.8,0.6-2.2,0.6h-22.2l-5.4,0.1c-0.3,0.1-0.6,0.1-0.9,0.1c-0.2,0-0.3-0.1-0.4-0.3
		l-0.8-1c-0.2-0.2-0.2-0.2-0.2-0.3s0.1-0.1,0.2-0.1c0.6,0,1.3,0.1,1.9,0.2l5.9,0.1L116.2,5.5L116.2,5.5z M113.8,21
		c1.9,0,2.1,0,2.5-0.3c0.3-0.3,1.8-2.3,2.2-2.3c0.3,0,4.1,2.5,4.1,3.2c0,0.5-0.2,0.5-2.2,0.5h-16.2l-5.4,0.1c-0.2,0-0.8,0.1-0.9,0.1
		c-0.2,0-0.3-0.1-0.4-0.3l-0.9-1c-0.1-0.2-0.2-0.2-0.2-0.3c0,0,0-0.1,0.2-0.1c0.3,0,1.6,0.1,1.9,0.1l5.9,0.2L113.8,21L113.8,21z
		 M92.1,66.5c0-0.5,0.3-0.7,0.7-0.7c0.4,0,2.2,0.5,2.6,0.5c1.1,0,1.6-0.3,6.9-2.4c2.1-0.8,8-3.2,12.1-3.2c6.3,0,11,4.9,11,10.6
		c0,7.8-8,12.5-17.3,12.5c-0.4,0-1,0-1-0.6c0-0.3,0.2-0.3,1.8-0.6c10.6-1.5,13.2-9.1,13.2-12.9c0-5-4.1-7.2-7-7.2
		c-4.1,0-10.2,3.3-14,5.9c-2.2,1.5-2.8,1.8-4,1.8C94.5,70.2,92.1,67.7,92.1,66.5L92.1,66.5z M109.7,108.9c0,0.1,0.1,0.3,0.1,0.5
		c0.2,1.4,0.4,2.8,0.4,4.7c0,2.9-0.7,6.9-4.4,12.6c-3.4,5.3-5.6,6.3-7.4,6.3c-2.8,0-5.4-4.4-5.4-9.7c0-2.3,0.5-6.6,4.8-11
		c5.5-5.6,11.2-5.6,13.7-5.6c3.9,0,5.7,0.8,6.9,1.4c4.7,2.3,7.5,6.9,7.5,12.5c0,5.6-3.2,12.5-10.9,15.2c-3.7,1.3-6.5,1.6-7.2,1.6
		c-0.2,0-0.4,0-0.4-0.3c0-0.1,0.1-0.2,1.2-0.6c4.5-1.8,13.8-5.5,13.8-16.2c0-1.7-0.2-11.9-11.9-11.9
		C109.8,108.3,109.7,108.7,109.7,108.9L109.7,108.9z M95.7,122.2c0,2.8,1.1,6.6,3.8,6.6c1.2,0,2.3-0.5,5.2-5
		c2.3-3.5,4.2-8.3,4.2-12.5c0-2.6-0.2-2.8-0.7-2.8C104.1,108.5,95.7,114,95.7,122.2L95.7,122.2z M90.4,168.6
		c-0.1-0.1-0.2-0.2-0.2-0.3c0-0.1,0.1-0.1,0.2-0.1c0.8,0,4.5,0.3,5.3,0.3c0.9,0,1.1,0,1.4-0.4c0.9-1,1-1,1.2-1c0.3,0,2.8,2,2.8,2.5
		c0,0.3-0.3,0.6-0.5,0.8c-1.4,0.8-1.6,0.9-1.7,1.1c-0.1,0.2-0.1,6.5-0.1,7.7c0,0.7,0,2.2,1.6,3.9c1.9,2,3.8,2.8,14.6,2.8
		c2.2,0,6.6,0,10.9-0.9c0.5-0.1,2.9-0.9,3-0.9c0.1,0,0.3,0,0.3,0.1c0,0-1.5,1.2-1.7,1.6c-0.5,0.6-0.5,0.7-0.5,2.5
		c0,0.3,0,0.6-0.9,0.7c-0.8,0.1-4.3,0.1-5.3,0.1c-16.2,0-19.3-0.7-22.3-6.3c-0.5-0.9-0.6-1.1-0.8-1.1c-0.3,0-3.9,4.5-4.6,6.2
		c-0.4,1-0.5,1.1-0.7,1.1c-0.7,0-2.6-3.8-2.6-4s0-0.3,1.4-0.9c5-2.2,5-3.2,5-4.2l-0.1-8.5c0-1,0-1.6-1.2-1.6c-0.5,0-2.9,0.2-3.3,0.2
		c-0.2,0-0.2-0.1-0.4-0.3L90.4,168.6L90.4,168.6z M90.6,152.3c1.6,0,9.2,3.4,9.2,8.4c0,1.1-0.7,1.6-1.5,1.6c-1.1,0-1.5-0.9-2.2-2.5
		c-0.9-2-3.1-4.7-4.7-6.3c-0.1-0.1-1-1.1-1-1.1C90.4,152.3,90.5,152.3,90.6,152.3L90.6,152.3z M117.9,180.6c-1.2,0-1.2,0.3-1.2,1.3
		c0,0.3,0.2,1.6,0.2,1.9c0,0.5-0.4,1.3-1.6,1.3c-0.5,0-1.6-0.1-1.6-1.2c0-0.3,0.2-1.8,0.2-2.1c0-1.1-0.5-1.2-1.2-1.2h-3.8
		c-1,0-3.9,0-5.4,0.1c-0.3,0.1-0.6,0.1-0.9,0.1c-0.1,0-0.2-0.1-0.4-0.3l-0.8-1c-0.2-0.2-0.2-0.2-0.2-0.3c0-0.1,0.1-0.1,0.1-0.1
		c0.3,0,2.7,0.2,3.1,0.2c0.9,0,0.9-0.5,0.9-1.8l0-3.5c0-0.2,0-0.7,0.4-0.7c0,0,1.8,0.8,2,0.9c0.3,0.1,0.6,0.2,1.3,0.2h3.7
		c0.8,0,1.2,0,1.2-0.7c0-0.3-0.4-2.2-0.4-2.2c0-0.4,0.3-0.6,0.7-0.6c0,0,3.1,0.5,3.1,1.2c0,0.1-0.4,0.7-0.5,0.7
		c-0.2,0.2-0.2,0.7-0.2,0.8c0,0.8,0.4,0.8,0.8,0.8h1.2c1.2,0,1.5,0,2-0.7c0.9-1.2,1-1.2,1.3-1.2c0.2,0,3.2,1.7,3.2,2.5
		c0,0.6-0.8,0.6-2.3,0.6h-5c-1.1,0-1.1,0.6-1.1,1.5c0,2,0,2.5,1.4,2.5h2.8c1,0,1.8,0,2.1-0.1c0.4-0.2,1.9-2.2,2.4-2.2
		c0.1,0,2.7,1.6,3,1.8c0.3,0.1,0.6,0.6,0.6,1c0,0.7-0.7,0.7-2.3,0.7L117.9,180.6L117.9,180.6z M118.6,155.3c0.5,0,0.7-0.2,1-0.7
		c0.5-0.7,0.7-0.9,1-0.9c0.4,0,2.8,1.2,2.8,2c0,0.2-0.9,1-1,1.2s-0.1,2.1-0.1,2.4c0,0.9,0,1.3,0.9,1.3c0.8,0,1.1-0.4,1.3-0.7
		c0.4-0.4,1-1.2,1.3-1.2c0.6,0,2.9,2.1,2.9,2.5c0,0.6-0.9,0.6-2.3,0.6h-16.6c-1.6,0-3.2,0-4.9,0.1c-0.1,0-0.7,0.1-0.9,0.1
		c-0.1,0-0.2-0.1-0.4-0.3l-0.8-1c-0.2-0.2-0.2-0.2-0.2-0.3s0.1-0.1,0.1-0.1c0.3,0,1.6,0.2,1.9,0.2c1.6,0.1,3.4,0.1,4.9,0.1h0.7
		c0.9,0,1.4,0,1.4-3.1c0-0.6-0.3-1.1-1.5-1.1c-0.9,0-2.6,0-3.4,0.1c-0.1,0-0.5,0.1-0.7,0.1s-0.2-0.1-0.4-0.3l-0.8-1
		c-0.2-0.2-0.2-0.2-0.2-0.3c0-0.1,0.1-0.1,0.1-0.1c0.8,0,4.7,0.3,5.6,0.3c1.2,0,1.2-0.3,1.2-2.7c0-0.4,0-0.9,0.3-0.9
		c0.3,0,1.9,0.4,2.3,0.5c0.1,0,1.4,0.3,1.4,0.8c0,0.2-0.7,0.9-0.8,1.2c-0.1,0.2-0.3,0.4-0.3,0.7c0,0.5,0.5,0.5,0.7,0.5L118.6,155.3
		L118.6,155.3z M110,170.5c-0.5,0-0.9,0-1.2,0.5c-0.4,0.7-0.7,1.3-1.8,1.3c-1.2,0-1.2-0.7-1.2-1.1c0-0.3,0.1-2.5,0.1-3
		c0-1,0-2.1-0.1-3c0-0.2-0.1-1.1-0.1-1.3c0-0.2,0.1-0.5,0.4-0.5c0,0,1.7,0.7,1.8,0.8c0.4,0.2,0.8,0.2,1.4,0.2h9.6c0.7,0,1,0,1.3-0.3
		c0.8-0.8,0.9-0.9,1.1-0.9c0.4,0,2.7,1.6,2.7,2.4c0,0.2,0,0.2-0.7,0.7c-0.3,0.2-0.3,0.6-0.3,0.9c0,0.5,0.1,2.7,0.1,3
		c0,1.2-1.3,1.6-2,1.6c-0.6,0-0.7-0.2-1.2-1c-0.2-0.3-0.5-0.3-1-0.3L110,170.5L110,170.5z M109.4,175.5c-1.2,0-1.2,0.6-1.2,1.9
		c0,1.6,0,2.1,1.2,2.1h3.2c1.2,0,1.2-0.6,1.2-1.9c0-1.5,0-2.1-1.2-2.1H109.4z M118.8,169.4c1.3,0,1.3-0.3,1.3-2.5
		c0-1.2-0.7-1.2-1.3-1.2h-9c-1.3,0-1.3,0.3-1.3,2.6c0,1.2,0.8,1.2,1.3,1.2L118.8,169.4L118.8,169.4z M118.4,160.6
		c1,0,1.3-0.3,1.3-2.5c0-1.3-0.1-1.6-1.2-1.6h-2.8c-0.6,0-1.2,0-1.2,3.1c0,0.9,0.5,1.1,1.4,1.1L118.4,160.6L118.4,160.6z
		 M118.5,221.7c0,13.4-13.7,18-14.9,18c0,0-0.1,0-0.1-0.1c0-0.1,1.7-1.3,1.9-1.4c5.9-4.1,9.9-9.8,9.9-16.7c0-1.4-0.3-6.2-4.3-6.2
		c-2.5,0-4.8,1.4-5.8,2.5c-1.2,1.4-1.3,1.6-2,1.6c-1.8,0-4-2.7-4-3.3c0-0.2,0.3-0.3,0.4-0.3c0.3,0,1.7,0.3,2,0.3c1,0,1.3-0.1,4-1.3
		c2.4-1,3.5-1.5,5.7-1.5C115,213.4,118.5,216,118.5,221.7z M107.8,204.5c0.8,0.1,1.5,0.1,2,0.1c2.1,0,2.5,0,3.4,0.4
		c1.8,0.7,2,1.7,2,2.1c0,1.1-1.2,1.3-2,1.3c-0.3,0-1.8-0.2-2.2-0.2c-1.4,0-2.4,0.5-5.2,2.1c-0.2,0.1-1.3,0.8-1.4,0.8
		c-0.1,0-0.2,0-0.2-0.2c0-0.2,3-3.4,3-4.2c0-0.3-0.1-0.3-0.9-0.7c-1.3-0.6-3.1-1.9-3.1-2.1c0-0.2,0.3-0.2,0.4-0.2
		C103.8,203.6,107.2,204.4,107.8,204.5L107.8,204.5z M9.8,11.1c0.8,0.4,2.5,0.9,3.6,0.9c1.8,0,14.4-1.2,16.2-2
		c1.3-0.6,1.5-0.7,1.8-0.7c1,0,1.6,0.6,3,1.8c1.9,1.7,2.2,2.2,2.2,2.8c0,0.6-0.2,0.8-1,1.6c-0.7,0.6-0.9,1-1.7,2.7
		c-6.8,14-21.8,20.1-22.2,20.1c-0.2,0-0.3-0.2-0.3-0.3c0-0.2,0.1-0.3,0.6-0.6c7.5-5.2,13.6-10.9,17-17.1c2.1-3.7,2.9-6.9,2.9-7.3
		c0-0.7-0.7-0.8-1-0.8c-0.4,0-12.9,2.1-15.5,3.1c-0.3,0.1-1.8,1-2.1,1c-1,0-4.4-2.1-4.4-4.5c0-0.8,0.1-0.9,0.4-0.9
		C9.3,10.8,9.7,11,9.8,11.1L9.8,11.1z M41.4,10.9c0,0.6-0.6,1.6-1.3,1.6c-0.7,0-1-0.4-2.2-2.1C37.1,9.5,36.7,9,35,7.6
		c-0.2-0.1-0.6-0.5-0.6-0.7s0.4-0.3,0.8-0.3C38.3,6.6,41.4,8.9,41.4,10.9L41.4,10.9z M44.7,7.6c0,0.5-0.3,1.3-1.1,1.3
		c-1,0-1.5-0.8-2.2-1.8c-0.7-0.9-2.2-2-3.6-2.6c-0.4-0.2-0.5-0.4-0.5-0.5c0-0.4,1.3-0.4,1.6-0.4C40.6,3.6,44.6,4.9,44.7,7.6
		L44.7,7.6z"/>
	<path class="st0" d="M16,86.3c13.4-7.2,17-16.5,17-17.5c0-0.5-0.3-0.8-0.9-0.8c-1.5,0-12.3,1.9-14.2,2.5c-0.3,0.1-1.7,0.7-2,0.7
		c-1.9,0-4.9-3.7-4.9-4.9c0-0.1,0.1-0.2,0.3-0.2s0.6,0.3,0.8,0.3c0.8,0.3,2.5,0.7,4.3,0.7c3.5,0,12.1-1.1,13.7-1.3
		c0.1,0,2.9-0.3,3-0.3c0.2-0.1,1-0.5,1.2-0.5c0.7,0,3.8,2.5,3.8,3.5c0,0.7-0.2,0.8-1.2,1.6c-0.7,0.6-1.2,1.2-2.3,3.1
		c-3.4,5.2-6.1,8.4-12.1,11.5c-3.8,1.9-7.2,2.8-7.6,2.8c-0.3,0-0.4-0.3-0.4-0.3c0-0.1,0-0.2,0.1-0.3C14.5,87,15.7,86.4,16,86.3
		L16,86.3z M17,58.1c0.7,0.2,1.7,0.2,2.3,0.2c2,0,4.9-0.1,6.9-0.5c0.6-0.1,3.6-0.9,4.2-0.9c0.7,0,2.6,0.4,2.6,1.6
		c0,1.3-1.5,1.5-4,1.7c-3.4,0.3-6.8,0.6-10.2,0.9c-2.3,0-3.6-2.9-3.6-3.2c0-0.2,0.1-0.3,0.3-0.3C15.8,57.6,16.8,58.1,17,58.1
		L17,58.1z M24,129.8c-1.1,0.8-3.3,2.5-4.2,3.5c-0.8,1-0.9,1.1-1.5,1.1c-2.3,0-5.5-2.8-5.5-4.5c0-0.3,0-2.3,0.4-2.3
		c0.2,0,1.1,0.7,1.3,0.8c0.6,0.3,2,1,2.9,1c2.1,0,13.5-7.6,20.7-14.7c0.7-0.7,1.9-1.9,2-1.9c0.1,0,0.2,0.1,0.2,0.2
		C40.3,113.5,35.2,121.6,24,129.8L24,129.8z M20.5,115.7c-1.2,0-1.6-0.7-3-2.8c-1.5-2.2-2.7-2.8-3.9-3.5c-0.2-0.1-0.4-0.2-0.4-0.4
		c0-0.2,0.3-0.4,0.9-0.4c4.6,0,8.2,2.5,8.2,5C22.3,114.8,21.6,115.6,20.5,115.7L20.5,115.7z M18.5,155.2c1.5,0,4.6,1.4,4.6,2.8
		c0,0.3-0.4,1.6-0.5,1.8c-0.2,1.1-0.4,4.9-0.4,6c0,0.9,0.2,1.1,1.4,1.3c2.8,0.6,9.4,3.8,9.4,7c0,1.3-1.2,1.5-1.6,1.5
		c-1,0-1.1-0.1-4.1-3.9c-1.2-1.6-3.2-3.6-4.6-3.6c-0.5,0-0.6,0-0.6,3.2c0,4.6,0,6.9,0.2,10.7c0.1,0.7,0.1,1.5,0.1,2.2
		c0,1,0,3.9-1.2,3.9c-1.3,0-2.4-2.9-2.4-4.1c0-0.2,0.2-1.1,0.2-1.2c0.5-3.9,0.4-4.7,0.4-10c0-12.8,0-13.7-0.5-15.1
		c-0.3-0.9-0.8-1.3-1.5-2c0,0-0.1-0.1-0.1-0.2C17.4,155.2,18.5,155.1,18.5,155.2L18.5,155.2z M36.6,162.5c0,0.6-0.5,1.6-1.3,1.6
		c-0.7,0-1-0.4-2.2-2.1c-0.7-1.1-1.2-1.5-2.8-2.8c-0.2-0.1-0.6-0.5-0.6-0.7c0-0.2,0.4-0.3,0.8-0.3C33.6,158.3,36.6,160.6,36.6,162.5
		L36.6,162.5z M40.1,157.6c0,0.5-0.3,1.3-1.1,1.3c-1,0-1.5-0.7-2.2-1.7c-0.6-0.8-2.3-1.9-3.7-2.5c-0.4-0.2-0.6-0.4-0.6-0.5
		c0-0.3,0.5-0.5,1.6-0.5C37.2,153.8,40.1,155.5,40.1,157.6L40.1,157.6z M14,212.2c-1.3,0-1.3,0.6-1.3,2.1c0,0.3,0,1.2,1.1,1.8
		c3.1,1.8,4.8,2.7,4.8,4.2c0,1-0.7,1.9-1.6,1.9c-0.8,0-0.9-0.3-1.9-2.5c-0.7-1.9-1.7-2.7-2.1-2.7c-0.1,0-0.4,0-0.4,0.3l0,10.3
		c0,1.6,0.3,9.1,0.3,10.8c0,0.4,0,2.4-1.9,2.4c-1.2,0-1.2-0.6-1.2-1.2c0-0.1,0-0.5,0-0.9c0.3-6,0.3-11.8,0.3-15.1
		c0-0.3-0.2-0.3-0.3-0.3c-0.2,0-0.3,0.2-0.4,0.3c-3.4,7.2-5.7,8.8-5.9,8.8c-0.1,0-0.1,0-0.1-0.1s0.8-1.9,1-2.2c3-7,5-16.4,5-16.8
		c0-0.7-0.6-1.1-1-1.1c-0.5,0-3.1,0.2-3.4,0.2c-0.1,0-0.2-0.1-0.3-0.3l-0.7-1c0-0.1-0.2-0.2-0.2-0.3s0.1-0.1,0.1-0.1
		c0.7,0,4.2,0.3,5,0.3c0.6,0,1.2-0.3,1.2-1.2c-0.1-1.9-0.1-3.8-0.3-5.7c0-0.3-0.3-1.9-0.3-2.2c0-0.2,0.1-0.4,0.6-0.4
		c0,0,3.8,0.6,3.8,1.3c0,0.2-0.3,0.5-0.4,0.6c-0.8,0.8-0.9,0.9-0.9,1.3c0,0.3,0,3.6,0,5.4c0,0.5,0.3,1.1,0.8,1.1s0.9-0.6,0.9-0.8
		c0.5-1,0.6-1.1,0.9-1.1c0.5,0,2.7,1.9,2.7,2.5c0,0.5-0.9,0.5-2.1,0.5L14,212.2L14,212.2z M35.2,220.8c1.2,0,1.7-0.5,1.8-0.6
		c0.6-0.5,0.6-0.6,0.9-0.6c0.5,0,2.6,1.6,2.6,2.1c0,0.3-0.1,0.4-0.8,0.8c-0.4,0.2-0.4,0.5-0.4,0.9l0.1,6c0,0.5,0.3,0.5,0.4,0.5
		c0.3,0,0.6-0.3,0.8-0.6c0.8-1.1,1-1.2,1.3-1.2c0.6,0,2.5,1.9,2.5,2.5c0,0.6-0.8,0.6-2.3,0.6h-1.2c-0.4,0-1.4,0-1.4,1
		c0,0.7,0.1,3.9,0.1,4.6c0,3.4-3,3.7-3.1,3.7c-0.2,0-0.5,0-0.8-0.4c-0.3-0.3-1.3-1.6-1.6-1.8c-0.1-0.1-1.1-0.8-1.1-1
		c0-0.1,0.3-0.1,0.3-0.1c0.1,0,0.6,0,0.8,0c2.5,0.1,2.7,0,2.7-1.3c0-4.4,0-4.7-1.3-4.7H25.1c-0.4,0-1.3,0-1.3,1.1c0,0.9,0.2,5,0.2,6
		c0,1-0.4,2.2-2.1,2.2c-1.1,0-1.2-0.6-1.2-1.1c0-0.3,0.1-1,0.1-1.5c0-0.5,0.1-4.5,0.1-5.6c0-0.5-0.2-1.2-1.2-1.2
		c-0.4,0-2.4,0.2-2.8,0.2c-0.1,0-0.2-0.1-0.3-0.3l-0.9-1c-0.2-0.2-0.2-0.2-0.2-0.3c0-0.1,0.1-0.1,0.1-0.1c0.6,0,3.4,0.3,4,0.3
		c1.2,0,1.2-0.6,1.2-2.6c0-3.4-0.1-5.5-0.2-6.3c0-0.2-0.3-1.4-0.3-1.7c0-0.1,0-0.3,0.2-0.3c0.4,0,0.7,0.2,2,1.1
		c0.2,0.1,0.8,0.6,2.1,0.6h2.8c0.3,0,1.3,0,1.3-1.1c0-1.8,0-2.4-1.2-2.4H24c-1.2,0-3.4,0-5.1,0.1c-0.1,0-1.2,0.1-1.2,0.1
		c-0.1,0-0.2-0.1-0.4-0.3l-0.8-1c-0.2-0.2-0.2-0.2-0.2-0.3c0-0.1,0.1-0.1,0.1-0.1c0.2,0,1.3,0.1,1.6,0.1c0.4,0,3.9,0.2,5.5,0.2
		c1.3,0,1.3-0.4,1.3-3c0-0.4-0.1-1.2-1.1-1.2c-0.6,0-3.6,0.2-4,0.2c-0.1,0-0.2-0.1-0.3-0.3l-0.9-1c-0.2-0.2-0.2-0.2-0.2-0.3
		s0.1-0.1,0.1-0.1c0.8,0,4.4,0.3,5.3,0.3c0.8,0,1.1-0.5,1.1-1.3c0-2.1,0-2.7-1.4-2.7c-0.1,0-2.1,0-3.6,0.1c-0.2,0-1.2,0.1-1.2,0.1
		c-0.2,0-0.3-0.1-0.4-0.3l-0.9-1c-0.2-0.2-0.2-0.2-0.2-0.3s0.1-0.1,0.2-0.1c0.3,0,1.6,0.1,1.9,0.1c1.4,0.1,4,0.2,4.4,0.2
		c0.9,0,1.2-0.5,1.2-1.2c0-0.3,0-0.9-0.1-1.2c0-0.2-0.3-1.2-0.3-1.4c0-0.3,0.1-0.4,0.4-0.4c0.1,0,3.5,0.7,3.5,1.2
		c0,0.2-0.1,0.3-0.6,0.9c-0.2,0.2-0.3,0.9-0.3,1.2c0,0.5,0.3,0.9,1.1,0.9H31c0.4,0,1.2,0,1.2-1.2c0-0.4-0.3-2.5-0.3-2.6
		c0-0.3,0.1-0.3,0.4-0.3c0.1,0,3.6,0.5,3.6,1.1c0,0.2-0.6,0.9-0.7,1.1c-0.1,0.3-0.2,0.8-0.2,1.1c0,0.2,0.2,0.8,1.1,0.8h1
		c0.7,0,1.3,0,1.8-0.7c0.8-1.3,0.9-1.4,1.2-1.4c0.4,0,3.3,2.4,3.3,2.8c0,0.5-1,0.5-2.3,0.5h-4.6c-1.5,0-1.5,0.6-1.5,2.2
		c0,0.9,0,1.8,1.2,1.8c0.3,0,1,0,1.3-0.3c0.2-0.2,0.9-1.6,1.2-1.6c0.4,0,3.1,2.1,3.1,2.7c0,0.5-0.9,0.5-2.3,0.5h-3.1
		c-1.3,0-1.3,0.7-1.3,3c0,0.5,0,1.2,1.2,1.2c2.4,0,2.7,0,3-0.1c0.3-0.2,1.4-1.6,1.8-1.6c0.4,0,2.8,1.9,2.8,2.5
		c0,0.3-0.3,0.3-0.7,0.3c-0.2,0-1.3,0-1.6,0h-9c-1.3,0-1.3,0.5-1.3,2.3c0,0.6,0.2,1.2,1.3,1.2L35.2,220.8L35.2,220.8z M24.8,221.9
		c-0.5,0-1.2,0.2-1.2,1.1c0,1.9,0,2.4,1.2,2.4h2.8c1.2,0,1.2-0.6,1.2-2.4c0-1.1-1-1.1-1.2-1.1H24.8z M25,226.6
		c-0.9,0-1.3,0.2-1.3,1.3c0,1.6,0,2.2,1.3,2.2h2.5c1.3,0,1.3-0.7,1.3-1.6c0-1.3,0-1.9-1.3-1.9L25,226.6L25,226.6z M28.6,206.8
		c-1.3,0-1.3,0.8-1.3,2s0,2,1.3,2H31c1.3,0,1.3-0.8,1.3-2.1c0-1.2,0-2-1.3-2L28.6,206.8L28.6,206.8z M28.6,211.9
		c-1.2,0-1.2,0.8-1.2,1.5c0,2.2,0,2.7,1.2,2.7h2.5c1.2,0,1.2-0.6,1.2-2.5c0-0.9,0-1.7-1.2-1.7L28.6,211.9L28.6,211.9z M32.5,221.9
		c-1.2,0-1.2,0.8-1.2,1.4c0,1.5,0,2.1,1.2,2.1h2.7c1.2,0,1.2-0.7,1.2-1.5c0-1.4,0-2.1-1.2-2.1L32.5,221.9L32.5,221.9z M32.7,226.6
		c-1.1,0-1.3,0.6-1.3,1.8s0.2,1.7,1.3,1.7h2.6c1.1,0,1.3-0.6,1.3-1.8c0-1.2-0.3-1.7-1.3-1.7H32.7z M12.3,270.8
		c-0.7,0-1.1,0.3-1.2,1.1c-0.3,4.7-0.9,8.2-1.7,11.2c-1.1,3.6-3.6,7.1-4.3,7.1c-0.1,0-0.2,0-0.2-0.2c0-0.2,0.1-0.3,0.2-0.5
		c1.5-2.6,2.1-5.6,2.4-7.2c0.7-4.1,0.9-8.3,0.9-12.4c0-3.4-0.3-7-0.3-7.8c0-0.3-0.3-2-0.3-2.4c0-0.1,0-0.3,0.1-0.3
		c0.3,0,2.8,1.3,3.4,1.5c0.4,0.1,1.2,0.3,1.6,0.3h9.6c0.3,0,0.8,0,0.8-0.7c-0.3-2.3-0.7-4.6-1-6.9c0,0-0.4-1.4-0.4-1.4
		c0-0.3,0.1-0.3,0.4-0.3c0,0,4.1,0.4,4.1,1.2c0,0.2-0.5,0.8-0.7,0.9c-0.3,0.3-0.3,0.6-0.3,1.2c0,0.8,0.5,5.2,0.6,5.4
		c0,0.1,0.3,0.6,1.1,0.6h7.5c1.8,0,2,0,2.4-0.3c0.3-0.3,1.5-2.5,2-2.5c0.4,0,4.1,2.8,4.1,3.3c0,0.6-0.9,0.6-2.3,0.6H27.1
		c-0.5,0-0.8,0.1-0.8,0.6c0,2.2,2.9,13.4,3.8,13.4c0.4,0,3.4-6.5,4-9.2c0.1-0.6,0.3-1.3,0.5-1.3c0.2,0,0.3,0.1,2,1
		c1.4,0.8,1.6,0.9,1.6,1.3c0,0.2-0.1,0.3-0.2,0.5c-0.1,0.1-0.8,0.6-1,0.7c-0.4,0.4-3.1,5.6-3.6,6.7c-0.3,0.5-1.5,2.6-1.5,2.9
		c0,0.6,5.6,6.5,7.2,6.5c0.7,0,1.4-1.2,2.3-2.8c0.2-0.3,1.2-2.1,1.4-2.1s0.1,0.3,0.1,0.3c0,0.2-0.7,3.9-0.7,4.6c0,0.3,0,0.6,0.3,1.3
		c0.5,1.2,0.6,1.4,0.6,1.7c0,1.2-1.1,1.4-1.5,1.4c-2.7,0-7-3.3-10.5-7.5c-0.8-0.9-0.9-1-1.1-1s-1.9,1.8-2.3,2.1
		c-4.1,3.8-8.7,5.6-9.3,5.6c0,0-0.2,0-0.2-0.1s4-3.2,4.7-3.9c2.9-2.6,5.4-5.7,5.4-6.2c0-0.2,0-0.3-0.2-0.5
		c-2.1-4.2-3.3-8.8-4.1-13.4c-0.4-2.5-0.5-3-1.7-3h-9.8c-0.4,0-1.2,0-1.2,1c-0.1,1.7-0.1,3.4-0.1,5.1c0,0.5,0,1.2,1.2,1.2h3.1
		c0.4,0,0.8,0,1.1-0.3c0.2-0.1,1-1.2,1.3-1.2c0.3,0,2.7,2,2.7,2.3c0,0.2-0.9,1-1,1.2c-0.1,0.2-0.3,5.9-0.3,6.4
		c-0.1,4.7-0.8,9.4-4.6,9.4c-0.3,0-0.5-0.1-0.6-0.4c-0.3-0.7-0.5-1-1-1.4c-0.4-0.3-2.7-1.5-2.7-1.7c0-0.1,0.2-0.2,0.3-0.2
		c0.5,0,3,0.3,3.6,0.3c0.9,0,1.7-0.4,2.1-3.1c0.1-1.2,0.3-2.7,0.3-8.9c0-0.7-0.1-1.4-1.3-1.4L12.3,270.8L12.3,270.8z M36.1,257.2
		c0,0.9-0.4,1.8-1.5,1.8c-0.6,0-0.8-0.5-1.1-1.4c-0.3-1-1.6-2.8-2.3-3.8c-0.2-0.3-0.2-0.4-0.1-0.5C31.2,253.2,36.1,254.2,36.1,257.2
		L36.1,257.2z M43.1,307.1c0,2.6-2.2,4.8-4.8,4.7c0,0,0,0,0,0c-2.9,0-4.7-2.4-4.7-4.8c0-3.3,2.8-4.7,4.8-4.7
		C41.1,302.2,43.1,304.6,43.1,307.1z M34.7,307c0,1.9,1.6,3.6,3.6,3.6c1.9,0,3.6-1.5,3.6-3.5c0-1.7-1.3-3.7-3.7-3.7
		C36,303.4,34.7,305.3,34.7,307L34.7,307z"/>
</g>
</svg>
