<svg xmlns="http://www.w3.org/2000/svg" xmlns:xlink="http://www.w3.org/1999/xlink" viewBox="0 0 266.86 301.73" xmlns:v="https://vecta.io/nano"><path d="M243.55 132.26c3.27-4.46 6.97-9.52 6.97-15.58 0-6.05-3.7-11.1-6.97-15.58-2.1-2.88-4.3-5.86-4.86-8.38-.6-2.7.07-6.43.73-10.06.98-5.35 2.1-11.4-.45-16.67-2.58-5.35-8.07-8.28-12.92-10.87-3.2-1.7-6.5-3.47-8.16-5.55-1.68-2.1-2.68-5.74-3.64-9.25-1.44-5.27-3.08-11.25-7.7-14.94-4.6-3.67-10.77-3.94-16.23-4.18-3.65-.16-7.43-.33-9.88-1.5-2.37-1.14-4.8-3.95-7.17-6.67-3.6-4.16-7.7-8.88-13.56-10.2-1.04-.24-2.14-.36-3.27-.36-4.52 0-9 1.93-12.96 3.63-3.4 1.46-6.93 2.98-9.75 2.98s-6.35-1.52-9.76-2.98c-3.95-1.7-8.43-3.62-12.95-3.62-1.13 0-2.23.12-3.27.36-5.85 1.33-9.94 6.05-13.56 10.2-2.36 2.72-4.8 5.53-7.16 6.67-2.46 1.18-6.23 1.35-9.9 1.5-5.45.24-11.62.5-16.22 4.18-4.62 3.7-6.25 9.67-7.7 14.94-.96 3.5-1.95 7.15-3.64 9.25-1.66 2.08-4.97 3.85-8.17 5.55-4.84 2.58-10.33 5.5-12.9 10.87-2.54 5.26-1.43 11.33-.45 16.7.66 3.6 1.34 7.35.73 10.04-.57 2.52-2.75 5.5-4.86 8.38-3.27 4.47-6.97 9.53-6.97 15.58s3.7 11.1 6.97 15.58c2.1 2.88 4.3 5.86 4.86 8.38.6 2.7-.07 6.43-.73 10.06-.98 5.35-2.1 11.4.45 16.67 2.58 5.36 8.07 8.28 12.92 10.87 3.2 1.7 6.5 3.47 8.16 5.55 1.68 2.1 2.68 5.74 3.64 9.26 1.44 5.27 3.08 11.25 7.7 14.94 4.6 3.67 10.77 3.94 16.23 4.18 3.65.16 7.42.33 9.88 1.5 2.37 1.14 4.8 3.95 7.17 6.68 3.6 4.16 7.7 8.88 13.55 10.2 1.04.24 2.14.36 3.27.36 4.52 0 9-1.93 12.97-3.63 3.4-1.46 6.93-2.97 9.74-2.97 2.82 0 6.34 1.5 9.76 2.98 3.95 1.7 8.43 3.62 12.95 3.62 1.13 0 2.23-.12 3.27-.36 5.85-1.33 9.95-6.05 13.56-10.22 2.36-2.72 4.8-5.53 7.16-6.67 2.45-1.18 6.23-1.35 9.9-1.5 5.45-.24 11.62-.5 16.22-4.18 4.62-3.7 6.25-9.67 7.7-14.94.96-3.5 1.95-7.14 3.64-9.25 1.66-2.08 4.97-3.85 8.17-5.55 4.84-2.58 10.33-5.5 12.9-10.87 2.54-5.26 1.43-11.33.45-16.7-.66-3.6-1.34-7.35-.73-10.04.6-2.53 2.77-5.5 4.88-8.4zm-5.6 18.7c.94 5.13 2 10.94-.33 15.77-2.37 4.92-7.63 7.73-12.28 10.2-3.33 1.78-6.77 3.62-8.63 5.94-1.87 2.35-2.9 6.13-3.9 9.8-1.38 5.06-2.95 10.8-7.2 14.17-4.22 3.37-10.14 3.63-15.37 3.86-3.8.17-7.74.34-10.46 1.66-2.64 1.27-5.18 4.2-7.64 7.03-3.47 4-7.4 8.52-12.77 9.74a13.38 13.38 0 0 1-2.94.32c-4.22 0-8.55-1.86-12.38-3.5-3.55-1.52-7.2-3.1-10.33-3.1s-6.78 1.57-10.34 3.1c-3.82 1.64-8.16 3.5-12.37 3.5a13.38 13.38 0 0 1-2.94-.32c-5.37-1.22-9.3-5.74-12.77-9.74-2.46-2.83-5-5.76-7.64-7.04-2.73-1.3-6.66-1.5-10.46-1.66-5.23-.23-11.15-.5-15.37-3.86-4.24-3.38-5.8-9.1-7.2-14.17-1-3.66-2.04-7.44-3.9-9.8-1.85-2.32-5.3-4.16-8.63-5.94-4.64-2.48-9.9-5.3-12.28-10.2-2.33-4.83-1.27-10.64-.33-15.76.7-3.77 1.4-7.66.72-10.65-.64-2.82-2.9-5.92-5.1-8.92-3.13-4.28-6.68-9.14-6.68-14.7 0-5.57 3.55-10.42 6.68-14.7 2.2-3 4.47-6.1 5.1-8.92.68-3-.03-6.88-.72-10.65-.94-5.13-2-10.94.33-15.76 2.37-4.92 7.64-7.73 12.28-10.2 3.33-1.78 6.77-3.6 8.63-5.94 1.87-2.35 2.9-6.13 3.9-9.8 1.38-5.06 2.95-10.8 7.2-14.17 4.22-3.37 10.14-3.63 15.36-3.86 3.8-.17 7.74-.34 10.47-1.66 2.64-1.28 5.18-4.2 7.64-7.03 3.46-4 7.4-8.52 12.77-9.74a14.16 14.16 0 0 1 2.94-.32c4.2 0 8.54 1.86 12.37 3.5 3.55 1.52 7.22 3.1 10.34 3.1s6.8-1.58 10.34-3.1c3.83-1.64 8.16-3.5 12.37-3.5a13.38 13.38 0 0 1 2.94.32c5.38 1.22 9.3 5.74 12.77 9.74 2.46 2.83 5 5.76 7.64 7.04 2.73 1.32 6.66 1.5 10.47 1.66 5.22.23 11.14.5 15.36 3.86 4.24 3.4 5.8 9.12 7.2 14.18 1 3.66 2.04 7.44 3.9 9.8 1.85 2.32 5.3 4.16 8.63 5.94 4.64 2.48 9.9 5.3 12.28 10.2 2.33 4.83 1.27 10.63.33 15.76-.7 3.77-1.4 7.66-.72 10.65.64 2.82 2.9 5.92 5.1 8.92 3.13 4.28 6.68 9.14 6.68 14.7 0 5.57-3.55 10.42-6.68 14.7-2.2 3-4.47 6.1-5.1 8.92-.68 3 .03 6.88.72 10.65zm2.3-21.1c3.04-4.16 6.18-8.45 6.18-13.17s-3.14-9-6.18-13.18c-2.35-3.2-4.78-6.54-5.54-9.88-.8-3.5-.04-7.66.7-11.7.9-4.97 1.85-10.1-.1-14.17-2-4.16-6.66-6.64-11.16-9.04-3.56-1.9-7.25-3.87-9.43-6.6-2.2-2.76-3.3-6.8-4.38-10.72-1.34-4.9-2.73-9.97-6.3-12.83-3.56-2.84-8.8-3.07-13.86-3.3-4.06-.18-8.27-.36-11.47-1.9-3.12-1.5-5.84-4.64-8.47-7.67-3.36-3.87-6.83-7.87-11.38-8.9-4.35-1-9.1 1.06-13.72 3.04-3.8 1.63-7.7 3.3-11.36 3.3s-7.57-1.68-11.36-3.3c-4.6-1.98-9.37-4.02-13.72-3.04-4.55 1.03-8.02 5.04-11.4 8.92-2.63 3.03-5.34 6.16-8.47 7.66-3.2 1.55-7.4 1.73-11.48 1.9-5.06.22-10.3.45-13.86 3.3-3.58 2.86-4.97 7.93-6.3 12.83-1.07 3.9-2.18 7.96-4.38 10.72-2.2 2.74-5.87 4.7-9.43 6.6-4.5 2.4-9.16 4.9-11.16 9.04-1.96 4.06-1.02 9.2-.1 14.18.73 4.02 1.5 8.18.7 11.68-.76 3.34-3.2 6.66-5.55 9.88-3.04 4.15-6.18 8.45-6.18 13.17s3.14 9.02 6.2 13.18c2.35 3.2 4.78 6.54 5.54 9.87.8 3.5.04 7.66-.7 11.7-.9 4.97-1.85 10.1.1 14.17 2 4.16 6.66 6.64 11.16 9.04 3.56 1.9 7.25 3.87 9.43 6.6 2.2 2.76 3.3 6.8 4.38 10.72 1.34 4.9 2.73 9.97 6.3 12.83 3.56 2.84 8.8 3.07 13.86 3.3 4.06.18 8.27.36 11.47 1.9 3.12 1.5 5.84 4.64 8.47 7.67 3.36 3.87 6.84 7.88 11.38 8.9.78.18 1.57.26 2.37.26 3.67 0 7.56-1.67 11.34-3.3 3.8-1.63 7.7-3.3 11.36-3.3s7.57 1.68 11.36 3.3c3.77 1.62 7.67 3.3 11.35 3.3a10.76 10.76 0 0 0 2.37-.26c4.55-1.03 8.02-5.04 11.4-8.92 2.63-3.03 5.34-6.16 8.46-7.66 3.2-1.55 7.4-1.73 11.48-1.9 5.06-.22 10.3-.45 13.86-3.3 3.58-2.86 4.97-7.93 6.3-12.83 1.07-3.9 2.18-7.96 4.38-10.72 2.2-2.74 5.87-4.7 9.43-6.6 4.5-2.4 9.16-4.9 11.16-9.04 1.96-4.07 1.02-9.2.1-14.18-.73-4.02-1.5-8.18-.7-11.68.77-3.33 3.2-6.65 5.56-9.87zm-5.58 21.7c.9 4.85 1.8 9.87-.05 13.7-1.9 3.94-6.45 6.37-10.84 8.7-3.63 1.94-7.38 3.94-9.66 6.8-2.3 2.88-3.43 7-4.52 11-1.3 4.8-2.66 9.74-6.06 12.45-3.37 2.7-8.48 2.9-13.43 3.13-4.14.18-8.42.37-11.76 1.98-3.26 1.57-6.03 4.76-8.7 7.85-3.28 3.78-6.68 7.7-11 8.67a9.89 9.89 0 0 1-2.2.24c-3.53 0-7.35-1.64-11.05-3.23-3.86-1.66-7.85-3.37-11.66-3.37s-7.8 1.7-11.66 3.37c-4.5 1.93-9.15 3.93-13.26 3-4.3-.98-7.7-4.9-11-8.67-2.68-3.1-5.45-6.28-8.7-7.85-3.34-1.6-7.62-1.8-11.77-1.98-4.94-.22-10.06-.44-13.43-3.13-3.4-2.7-4.75-7.66-6.06-12.45-1.1-3.98-2.22-8.1-4.52-11-2.28-2.86-6.03-4.86-9.67-6.8-4.4-2.35-8.94-4.77-10.84-8.7-1.86-3.85-.94-8.86-.05-13.72.75-4.1 1.52-8.32.7-11.98-.8-3.5-3.27-6.87-5.67-10.15-2.97-4.06-6.04-8.26-6.04-12.73 0-4.48 3.07-8.67 6.04-12.74 2.4-3.28 4.87-6.66 5.66-10.15.83-3.65.06-7.9-.7-12-.9-4.85-1.8-9.86.05-13.7 1.9-3.94 6.45-6.37 10.84-8.7 3.63-1.94 7.38-3.94 9.66-6.8 2.3-2.88 3.43-7 4.52-11 1.3-4.8 2.66-9.74 6.06-12.45 3.37-2.7 8.48-2.9 13.43-3.13 4.14-.18 8.42-.37 11.77-1.98 3.26-1.57 6.03-4.76 8.7-7.85 3.28-3.78 6.68-7.7 11-8.67 4.1-.93 8.76 1.06 13.26 3 3.86 1.66 7.85 3.37 11.66 3.37s7.8-1.7 11.66-3.37c4.5-1.93 9.15-3.93 13.26-3 4.3.98 7.7 4.9 11 8.67 2.68 3.1 5.45 6.28 8.7 7.85 3.34 1.6 7.62 1.8 11.77 1.98 4.95.22 10.06.44 13.43 3.13 3.4 2.7 4.75 7.66 6.06 12.45 1.1 3.98 2.22 8.1 4.52 11 2.28 2.86 6.04 4.86 9.66 6.8 4.4 2.35 8.94 4.77 10.84 8.7 1.86 3.85.94 8.86.05 13.72-.75 4.1-1.52 8.32-.7 11.98.8 3.5 3.27 6.87 5.67 10.15 2.97 4.06 6.04 8.26 6.04 12.73 0 4.48-3.07 8.67-6.04 12.74-2.4 3.27-4.87 6.66-5.66 10.15-.84 3.64-.07 7.87.68 11.97zm-161.2 23.4c2.36 0 4.28-1.95 4.28-4.35 0-2.3-3.85-9-4-9.28l-.26-.46-.26.46c-.16.28-4 7-4 9.28-.02 2.4 1.9 4.35 4.26 4.35zm0-12.86c.88 1.58 3.67 6.7 3.67 8.5 0 2.06-1.64 3.74-3.67 3.74-2.02 0-3.66-1.68-3.66-3.74 0-1.8 2.78-6.93 3.66-8.5zm120.46 12.86c2.36 0 4.28-1.95 4.28-4.35 0-2.3-3.85-9-4-9.28l-.26-.46-.26.46c-.16.28-4 7-4 9.28-.02 2.4 1.9 4.35 4.26 4.35zm0-12.86c.88 1.58 3.67 6.7 3.67 8.5 0 2.06-1.64 3.74-3.67 3.74-2.02 0-3.66-1.68-3.66-3.74-.01-1.8 2.78-6.93 3.66-8.5zm9.32-68.8c1.6 1.45 3.25 2.66 4.66 3.4.93.48 1.7.72 2.25.72.37 0 .66-.1.86-.32 1.07-1.18-1.45-4.6-4.5-7.38-1.6-1.45-3.25-2.66-4.66-3.4-1.54-.8-2.62-.94-3.1-.4-1.08 1.18 1.45 4.6 4.5 7.38zm-4.05-6.96c.07-.08.2-.13.4-.13.4 0 1.03.17 1.96.66 1.36.7 2.97 1.88 4.53 3.3 3.52 3.2 4.97 5.96 4.46 6.52-.2.22-.94.2-2.37-.53-1.36-.7-2.97-1.88-4.53-3.3-3.52-3.22-4.97-5.97-4.46-6.52zm22.77-.02c-1.4.73-3.06 1.94-4.66 3.4-3.05 2.78-5.57 6.2-4.5 7.38.2.2.48.32.86.32.56 0 1.32-.24 2.25-.72 1.4-.73 3.06-1.94 4.66-3.4s2.95-3 3.8-4.32c.94-1.46 1.18-2.52.7-3.06s-1.57-.4-3.1.4zm1.9 2.32c-.83 1.3-2.15 2.78-3.7 4.2s-3.17 2.6-4.53 3.3c-1.43.74-2.17.75-2.37.53-.5-.56.94-3.3 4.46-6.52 1.56-1.42 3.17-2.6 4.53-3.3 1.43-.74 2.17-.75 2.37-.53s.13.96-.75 2.32zm-10.17-1.26c.4-1.54.6-3.57.6-5.73-.02-4.12-.88-8.3-2.46-8.3-.73 0-1.34.9-1.78 2.58-.4 1.54-.6 3.57-.6 5.73.02 4.12.88 8.3 2.47 8.3.72 0 1.33-.9 1.77-2.58zm-1.78 1.97c-.76 0-1.83-2.92-1.86-7.68-.01-2.1.2-4.1.58-5.58.4-1.56.9-2.12 1.2-2.12.76 0 1.83 2.92 1.85 7.68.01 2.1-.2 4.1-.58 5.58-.4 1.56-.9 2.12-1.18 2.12z"/><use xlink:href="#B"/><use xlink:href="#C"/><use xlink:href="#D"/><use xlink:href="#E"/><use xlink:href="#B" y="21.35"/><use xlink:href="#C" y="21.36"/><use xlink:href="#D" y="21.36"/><path d="M215.9 139.4c1.4-.73 3.06-1.94 4.66-3.4 3.05-2.78 5.58-6.2 4.5-7.38-.5-.54-1.56-.4-3.1.4-1.4.73-3.06 1.94-4.66 3.4-3.05 2.78-5.58 6.2-4.5 7.38.2.2.48.32.86.32.56.01 1.32-.24 2.25-.72zm1.8-6.52c1.56-1.42 3.17-2.6 4.53-3.3 1.43-.74 2.17-.75 2.37-.53.5.56-.94 3.3-4.46 6.52-1.56 1.42-3.17 2.6-4.53 3.3-1.43.74-2.17.75-2.37.53-.5-.57.94-3.32 4.46-6.52z"/><use xlink:href="#B" y="42.7"/><use xlink:href="#C" y="42.72"/><use xlink:href="#D" y="42.73"/><use xlink:href="#E" y="42.72"/><path d="M46.85 93.3c2.47 2.25 5.34 4.12 6.9 4.12.37 0 .66-.1.86-.32 1.07-1.18-1.46-4.6-4.5-7.38-3.05-2.78-6.7-4.97-7.77-3.8-1.08 1.17 1.45 4.6 4.5 7.37zm-4.05-6.96c.08-.1.22-.13.4-.13 1.02 0 3.53 1.27 6.5 3.97 3.52 3.2 4.97 5.96 4.46 6.52s-3.38-.63-6.9-3.83c-3.5-3.23-4.96-5.98-4.45-6.53zM56.4 97.1c.2.22.5.32.86.32 1.57 0 4.43-1.87 6.9-4.12 3.05-2.78 5.58-6.2 4.5-7.38-1.07-1.18-4.72 1.02-7.77 3.8-3.04 2.78-5.57 6.2-4.5 7.4zm4.92-6.93c3.52-3.2 6.4-4.4 6.9-3.83s-.94 3.3-4.46 6.52c-3.52 3.2-6.4 4.4-6.9 3.83s.94-3.32 4.46-6.52zm-4.02-2.8c.4-1.54.6-3.57.6-5.73-.02-4.12-.88-8.3-2.47-8.3-.73 0-1.34.9-1.78 2.58-.4 1.54-.6 3.57-.6 5.73.02 4.12.88 8.3 2.47 8.3.73 0 1.34-.9 1.78-2.58zm-1.78 1.97c-.76 0-1.83-2.92-1.86-7.68-.01-2.1.2-4.1.58-5.58.4-1.56.9-2.12 1.2-2.12.76 0 1.83 2.92 1.85 7.68.01 2.1-.2 4.1-.58 5.58-.4 1.56-.9 2.12-1.18 2.12z"/><use xlink:href="#F"/><path d="M68.68 96.6c-1.07-1.18-4.72 1.02-7.77 3.8s-5.58 6.2-4.5 7.38c.2.22.5.32.86.32 1.57 0 4.43-1.87 6.9-4.12 3.05-2.76 5.58-6.2 4.5-7.37zm-4.92 6.93c-3.52 3.2-6.4 4.4-6.9 3.83-.5-.56.94-3.3 4.46-6.5 2.96-2.7 5.47-3.97 6.5-3.97.2 0 .33.04.4.13.53.56-.93 3.3-4.45 6.52zm-16.9 11.12c2.47 2.25 5.34 4.12 6.9 4.12.37 0 .66-.1.86-.32 1.07-1.18-1.46-4.6-4.5-7.38-3.05-2.78-6.7-4.97-7.77-3.8-1.08 1.17 1.45 4.6 4.5 7.37zm-4.05-6.97c.08-.1.22-.13.4-.13 1.02 0 3.53 1.27 6.5 3.97 3.52 3.2 4.97 5.96 4.46 6.52s-3.38-.63-6.9-3.83c-3.5-3.22-4.96-5.97-4.45-6.53z"/><path d="M64.17 114.65c3.05-2.78 5.58-6.2 4.5-7.38-1.07-1.17-4.72 1.02-7.77 3.8-3.05 2.78-5.58 6.2-4.5 7.38.2.22.5.32.86.32 1.58.01 4.44-1.86 6.9-4.1zm-2.85-3.13c3.52-3.2 6.4-4.4 6.9-3.83s-.94 3.3-4.46 6.52-6.4 4.4-6.9 3.83c-.5-.57.94-3.32 4.46-6.52z"/><use xlink:href="#F" y="21.35"/><path d="M68.68 117.95c-1.07-1.17-4.72 1.02-7.77 3.8s-5.58 6.2-4.5 7.38c.2.22.5.32.86.32 1.57 0 4.43-1.87 6.9-4.12 3.05-2.76 5.58-6.2 4.5-7.37zm-4.92 6.93c-3.52 3.2-6.4 4.4-6.9 3.83-.5-.56.94-3.3 4.46-6.5 2.96-2.7 5.47-3.97 6.5-3.97.2 0 .33.04.4.13.53.56-.93 3.3-4.45 6.52zM46.85 136c2.47 2.25 5.34 4.12 6.9 4.12.37 0 .66-.1.86-.32 1.07-1.18-1.46-4.6-4.5-7.38-3.05-2.78-6.7-4.97-7.77-3.8s1.45 4.6 4.5 7.37zm-4.05-6.97c.08-.1.22-.13.4-.13 1.02 0 3.53 1.27 6.5 3.97 3.52 3.2 4.97 5.96 4.46 6.52s-3.38-.63-6.9-3.83c-3.5-3.22-4.96-5.97-4.45-6.53zm18.1 3.4c-3.05 2.78-5.58 6.2-4.5 7.38.2.22.5.32.86.32 1.57 0 4.43-1.87 6.9-4.12 3.05-2.78 5.57-6.2 4.5-7.38-1.07-1.17-4.72 1.02-7.77 3.8zm2.85 3.13c-3.52 3.2-6.4 4.4-6.9 3.83s.94-3.3 4.46-6.52 6.4-4.4 6.9-3.83-.94 3.3-4.46 6.52z"/><use xlink:href="#F" y="42.7"/><path d="M57.27 150.8c1.57 0 4.43-1.87 6.9-4.12 3.05-2.78 5.58-6.2 4.5-7.38-1.07-1.18-4.72 1.02-7.77 3.8s-5.58 6.2-4.5 7.38c.2.23.5.33.87.33zm4.05-7.25c2.96-2.7 5.47-3.97 6.5-3.97.2 0 .33.04.4.13.5.56-.94 3.3-4.46 6.5s-6.4 4.4-6.9 3.83c-.5-.55.95-3.3 4.47-6.5zM50.1 153.8c-3.05-2.78-6.7-4.97-7.77-3.8s1.46 4.6 4.5 7.38c2.47 2.25 5.34 4.12 6.9 4.12.37 0 .66-.1.86-.32 1.08-1.2-1.45-4.62-4.5-7.4zm4.06 6.96c-.5.56-3.38-.63-6.9-3.83s-4.97-5.96-4.46-6.52c.08-.1.22-.13.4-.13 1.02 0 3.53 1.27 6.5 3.97 3.52 3.2 4.98 5.95 4.47 6.5z"/><path d="M68.68 150c-1.07-1.18-4.72 1.02-7.77 3.8s-5.58 6.2-4.5 7.38c.2.22.5.32.86.32 1.57 0 4.43-1.87 6.9-4.12 3.04-2.76 5.57-6.2 4.5-7.37zm-11.82 10.76c-.5-.56.94-3.3 4.46-6.52s6.4-4.4 6.9-3.83-.94 3.3-4.46 6.52c-3.53 3.2-6.4 4.4-6.9 3.83zM73 74.54a1.86 1.86 0 0 0 1.23-.46c.8-.68.88-1.87.2-2.67-2.7-3.15-.4-5.86-.14-6.16.7-.76.66-1.96-.1-2.66a1.88 1.88 0 0 0-1.19-.5c.4-.08.78-.3 1.06-.62 3.97-4.63 1.76-9.35.04-11.2-.34-.37-.8-.58-1.32-.6-.5-.04-1 .16-1.36.5-.76.7-.8 1.9-.1 2.66.27.3 2.56 3-.14 6.16a1.89 1.89 0 0 0 .21 2.67c.3.27.7.42 1.12.45-.38.08-.73.27-1 .56-1.72 1.85-3.93 6.56.04 11.2a1.9 1.9 0 0 0 1.44.66zM71.67 59.4c3.04-3.55.43-6.63.12-6.97a1.28 1.28 0 0 1 .07-1.8c.24-.22.55-.34.87-.34h.05a1.26 1.26 0 0 1 .89.41c1.6 1.7 3.63 6.08-.06 10.38-.44.52-1.3.58-1.8.14-.53-.47-.6-1.28-.13-1.82zm.3 3.7a1.22 1.22 0 0 1 .9-.4h.05c.32 0 .63.12.87.34a1.3 1.3 0 0 1 .07 1.81c-.3.34-2.9 3.43.13 6.97.46.54.4 1.35-.14 1.8-.5.44-1.36.38-1.8-.14-3.7-4.3-1.66-8.67-.07-10.38z"/><path d="M73 49.36a1.86 1.86 0 0 0 1.23-.46c.8-.68.88-1.87.2-2.67-2.7-3.15-.4-5.86-.14-6.16.7-.76.66-1.96-.1-2.66s-1.96-.67-2.67.1c-1.72 1.85-3.93 6.56.04 11.2.35.43.87.67 1.43.67zm-1.03-11.44a1.28 1.28 0 0 1 .94-.4c.3 0 .63.1.87.34a1.3 1.3 0 0 1 .07 1.81c-.3.34-2.9 3.43.13 6.97.46.54.4 1.35-.14 1.8-.52.44-1.36.38-1.8-.14-3.7-4.3-1.66-8.67-.07-10.38zm122.1 24.18a1.85 1.85 0 0 0-1.19.5 1.89 1.89 0 0 0-.1 2.66c.27.3 2.56 3-.14 6.16a1.9 1.9 0 0 0 .2 2.67 1.91 1.91 0 0 0 1.23.46 1.9 1.9 0 0 0 1.44-.66c3.97-4.63 1.76-9.35.04-11.2-.27-.3-.62-.48-1-.56.4-.02.8-.18 1.12-.45a1.91 1.91 0 0 0 .21-2.67c-2.7-3.15-.4-5.86-.14-6.16.7-.76.66-1.96-.1-2.66-.37-.34-.85-.55-1.36-.5a1.91 1.91 0 0 0-1.32.6c-1.72 1.85-3.93 6.56.04 11.2a1.98 1.98 0 0 0 1.07.62zm.97 11.38c-.44.52-1.3.58-1.8.14-.54-.46-.6-1.27-.14-1.8 3.04-3.55.43-6.63.12-6.97a1.28 1.28 0 0 1 .07-1.8c.24-.22.55-.34.87-.34h.05a1.26 1.26 0 0 1 .89.41c1.6 1.7 3.64 6.07-.05 10.37zm-1.63-22.78a1.22 1.22 0 0 1 .9-.4h.05c.32 0 .63.12.87.34a1.3 1.3 0 0 1 .07 1.81c-.3.34-2.9 3.43.13 6.97.46.54.4 1.35-.14 1.8-.52.44-1.36.38-1.8-.14-3.7-4.3-1.65-8.67-.06-10.38z"/><path d="M192.85 48.9a1.91 1.91 0 0 0 1.23.46 1.9 1.9 0 0 0 1.44-.66c3.97-4.63 1.76-9.35.04-11.2-.34-.37-.8-.58-1.32-.6-.5-.04-1 .16-1.36.5a1.89 1.89 0 0 0-.1 2.66c.27.3 2.56 3-.14 6.16-.67.78-.58 1.98.2 2.66zm.26-2.27c3.04-3.55.43-6.63.12-6.97a1.28 1.28 0 0 1 .07-1.8c.24-.22.55-.34.87-.34h.05a1.26 1.26 0 0 1 .89.41c1.6 1.7 3.63 6.08-.06 10.38-.44.5-1.3.58-1.8.14-.53-.48-.6-1.3-.13-1.82zM66.82 179.18c.1-.14.07-.33-.07-.43s-.33-.07-.43.07c-1.18 1.63-3.25 2.3-5.16 1.67-.16-.05-.33.03-.4.2-.05.16.03.33.2.4a5.23 5.23 0 0 0 1.65.27 5.14 5.14 0 0 0 4.21-2.16z"/><use xlink:href="#G"/><use xlink:href="#H"/><path d="M76.76 186.34c.1-.14.07-.33-.07-.43s-.33-.07-.43.07c-1.18 1.63-3.25 2.3-5.16 1.67-.16-.05-.33.03-.4.2-.05.16.03.33.2.4a5.23 5.23 0 0 0 1.65.27c1.65 0 3.2-.77 4.2-2.16z"/><use xlink:href="#G" x="9.94" y="7.16"/><use xlink:href="#H" x="9.95" y="7.15"/><path d="M86.7 193.5c.1-.14.07-.33-.07-.43s-.33-.07-.43.07c-1.18 1.63-3.25 2.3-5.16 1.67-.16-.05-.33.03-.4.2-.05.16.03.33.2.4a5.23 5.23 0 0 0 1.65.27 5.18 5.18 0 0 0 4.21-2.16z"/><use xlink:href="#H" x="16.57" y="11.93"/><path d="M92.83 197.9c-1.18 1.63-3.25 2.3-5.16 1.67-.16-.05-.33.03-.4.2-.05.16.03.33.2.4a5.23 5.23 0 0 0 1.65.27c1.63 0 3.2-.77 4.2-2.16.1-.14.07-.33-.07-.43-.13-.1-.32-.06-.42.07zm111.67-17.4a4.58 4.58 0 0 1-5.16-1.67c-.1-.14-.3-.17-.43-.07s-.17.3-.07.43c1 1.4 2.57 2.16 4.2 2.16.55 0 1.1-.1 1.65-.27.16-.05.25-.23.2-.4-.04-.15-.22-.24-.38-.2zm-3.3 2.38a4.58 4.58 0 0 1-5.16-1.67c-.1-.14-.3-.17-.43-.07s-.17.3-.07.43c1 1.4 2.57 2.16 4.2 2.16.55 0 1.1-.1 1.65-.27.16-.05.25-.23.2-.4-.05-.16-.22-.24-.38-.2z"/><use xlink:href="#I"/><use xlink:href="#J"/><use xlink:href="#K"/><path d="M187.95 192.42c-1.9.64-3.98-.04-5.16-1.67-.1-.14-.3-.17-.43-.07s-.17.3-.07.43c1 1.4 2.57 2.16 4.2 2.16.55 0 1.1-.1 1.65-.27.16-.05.25-.23.2-.4-.05-.15-.22-.24-.38-.2z"/><use xlink:href="#K" x="-6.63" y="4.76"/><use xlink:href="#I" x="-16.58" y="11.93"/><use xlink:href="#J" x="-16.57" y="11.93"/><path d="M109.64 192.68h-2.3l-.07.37h.93l-1.27 5.96H106l-.08.37h2.3l.08-.37h-.93l1.27-5.96h.93zm5.46 6.77l1.96-6.77h-.5l-1.67 6h-.02l-.37-3.73-1.95 3.73h-.02l.9-6h-.52l-.9 6.77h.6l1.68-3.37.26 3.37zm7.27-.07l-.76-6.98-3.72 6.98h.48l1.05-2.04h2.28l.17 2.04h.5zm-2.78-2.4l1.76-3.37.34 3.37h-2.1zm9.8-.95c.26-1.22.23-1.98.1-2.4-.17-.5-.62-.95-1.4-.95h-1.68l-1.43 6.7h1.55c.82 0 1.36-.3 1.76-.75.17-.18.76-.9 1.1-2.6zm-3.05 2.98h-.83l1.27-5.96h.83c.7 0 1.28.08 1.47.8.17.58-.02 1.55-.15 2.2-.14.64-.34 1.53-.74 2.12-.48.76-1.12.86-1.85.86zm10.05-5.96l.07-.37h-3.28l-1.42 6.7h3.34l.08-.37h-2.9l.6-2.9h2.04l.1-.37H133l.58-2.7zm5.94-.37l-2.12 3.35-.7-3.35h-.5l.87 3.86-.6 2.84h.44l.6-2.84 2.5-3.86zm5.46 4.66l.17 2.04h.5l-.76-6.98-3.72 6.98h.48l1.05-2.04h2.3zm-.36-3.74l.33 3.37h-2.1l1.77-3.37zm8.1-.04l-1.24 5.82h.44l1.42-6.7h-.48l-2.3 3.7-.75-3.7h-.48l-1.43 6.7h.44l1.23-5.8.03-.02.76 3.73 2.35-3.73z"/><use xlink:href="#L"/><path d="M112.85 205.3l1.1-1.35-.4-.24a12.86 12.86 0 0 1-1.33 1.8c-.47.5-1.22 1.3-1.87 1.3l.65-3.07h-.44l-1.43 6.7h.44l.7-3.26h.22l1.96 3.26h.6l-2.14-3.4c.77-.4 1.4-1.06 1.95-1.74z"/><use xlink:href="#L" x="-42.65" y="11.06"/><path d="M121.73 204.1h1.93l-1.35 6.33h.44l1.35-6.33h1.94l.07-.38h-4.3zm5.37 6.34h3.34l.1-.37h-2.9l.6-2.9h2.04l.08-.37h-2.04l.58-2.7h2.84l.07-.38h-3.28zm7.55-6.34h.94l-1.27 5.96h-.93l-.1.37h2.3l.1-.37h-.93l1.26-5.96h.94l.07-.38h-2.3zm11.23 2.67h-2.66l.65-3.04h-.44l-1.43 6.7h.44l.7-3.3h2.66l-.7 3.3h.43l1.43-6.7h-.44z"/><use xlink:href="#L" x="-9.5" y="11.06"/><path d="M156.34 207.42l-.75-3.7h-.48l-1.43 6.7h.44l1.23-5.8.03-.02.76 3.73 2.35-3.73h.02l-1.24 5.82h.44l1.42-6.7h-.48zm-.04-140.16h-7.62v1.48h3.37c-1.6 1.26-2.62 3.2-2.62 5.4V85.9h1.48V74.12a5.4 5.4 0 0 1 5.39-5.39h22.38v-1.48H156.3zM91.67 94.84c0-3.32.84-5.8 2.5-7.37 2.1-1.98 4.84-1.84 4.92-1.84h17.57v-1.48h-12.1V80.8h-1.48v3.34h-3.94c-.13-.01-3.4-.2-5.96 2.22-2 1.86-3 4.7-3 8.46v13.25h1.48V94.84zm3.8 13.44l1.17-2.07c1.32 1.28 3.08 1.93 5.24 1.93h14.7v-1.48h-14.7c-2.16 0-3.55-.78-4.47-1.8l5.8-10.22h-3.95l3.9-5.67H96.8v1.48h3.56l-3.9 5.67h4.22l-4.18 7.37c-.78-1.6-.8-3.23-.8-3.37h-1.5c0 .13.02 2.67 1.44 4.87l-1.45 2.57 1.3.72zm9.97-7.08v1.48h10.4v-1.48h-4.46v-4.9h4.46v-1.5h-4.46v-4.36h2.16v-1.5h-5.8v1.5h2.16v4.36h-4.46v1.48h4.46v4.9zm22.33-59.55h.63c0-3.2 2.3-5.8 5.16-5.8 2.84 0 5.16 2.6 5.16 5.8h.63c0-3.55-2.6-6.43-5.8-6.43s-5.8 2.88-5.8 6.43zm-14.58-.07h12.85c.18 0 .33-.15.33-.33s-.15-.33-.33-.33H113.2c-.18 0-.33.15-.33.33.01.18.15.33.33.33zm.5-4.86l12.48 3.08a.22.22 0 0 0 .08.01.33.33 0 0 0 .08-.65l-12.48-3.08a.33.33 0 0 0-.4.24.34.34 0 0 0 .24.4zm1.68-4.6l11.38 5.98c.05.03.1.04.15.04.12 0 .23-.06.3-.17.08-.16.02-.36-.14-.44l-11.38-5.98c-.16-.08-.36-.02-.44.14-.1.15-.02.35.14.43zm12.32 4.46c.06.06.14.08.22.08a.32.32 0 0 0 .24-.11.32.32 0 0 0-.03-.46l-9.6-8.53a.326.326 0 1 0-.43.49l9.6 8.53zm1.3-1.24c.06.1.17.14.27.14.06 0 .13-.02.2-.06.15-.1.2-.3.08-.45l-7.3-10.58c-.1-.15-.3-.18-.45-.08s-.2.3-.08.45L129 35.34zm1.54-.9c.05.13.17.2.3.2.04 0 .08-.01.12-.02.17-.06.25-.25.2-.42l-4.54-12.02c-.06-.17-.25-.25-.42-.2s-.25.25-.2.42l4.53 12.02zm2.04-.2h.04c.18-.02.3-.18.3-.36L131.4 21.1c-.02-.18-.2-.3-.36-.3-.18.02-.3.18-.3.36l1.53 12.76c.01.16.15.3.32.3zm1.75 0h.04c.16 0 .3-.12.32-.3l1.57-12.76c.02-.18-.1-.34-.28-.36s-.34.1-.36.28l-1.57 12.76c-.03.18.1.34.28.37zm1.65.4a.5.5 0 0 0 .12.02c.13 0 .26-.08.3-.2l4.58-12c.06-.17-.02-.36-.2-.42s-.36.02-.42.2l-4.58 12c-.07.17.01.35.18.42zm1.52.8a.33.33 0 0 0 .19.06c.1 0 .2-.05.27-.14l7.32-10.56c.1-.15.07-.35-.08-.45s-.35-.07-.45.08l-7.32 10.56a.32.32 0 0 0 .07.45zm1.27 1.14a.32.32 0 0 0 .24.11c.08 0 .15-.03.22-.08l9.64-8.5a.326.326 0 1 0-.43-.49l-9.64 8.5a.32.32 0 0 0-.03.46zm.97 1.4c.06.1.17.18.3.18.05 0 .1-.01.15-.04l11.4-5.94c.16-.08.22-.28.14-.44s-.28-.22-.44-.14l-11.4 5.94a.32.32 0 0 0-.14.44zm.6 1.6a.33.33 0 0 0 .32.25c.03 0 .05 0 .08-.01l12.5-3.04c.18-.04.28-.22.24-.4a.33.33 0 0 0-.39-.24l-12.5 3.04c-.2.04-.3.2-.25.4zm.53 1.37c-.18 0-.33.15-.33.33s.15.33.33.33l12.85.04c.18 0 .33-.15.33-.33s-.15-.33-.33-.33l-12.85-.04zm10.8 15.8l-.07-.97v-3.16h-1.48v3.2l.07.97a6.88 6.88 0 0 0 6.87 6.87h13.27a6.88 6.88 0 0 0 6.87-6.87V52.6h-1.48v4.18a5.4 5.4 0 0 1-5.39 5.39h-5.93V48.7h-1.48v13.5h-5.86c-2.97 0-5.4-2.42-5.4-5.44zm25.6 57.95h-1.48v2.55a5.4 5.4 0 0 1-5.39 5.39h-5.93v-15.36h2.23a6.88 6.88 0 0 0 6.87-6.87v-2.55h-1.48v2.55a5.4 5.4 0 0 1-5.39 5.39h-2.23V91.4H163v14.37h-2.16c-2.97 0-5.4-2.42-5.4-5.43l-.07-.97v-1.53h-1.48v1.57l.07.97a6.88 6.88 0 0 0 6.87 6.87H163v15.36h-5.86c-2.97 0-5.4-2.42-5.4-5.43l-.07-.97v-1.53h-1.48v1.57l.07.97a6.88 6.88 0 0 0 6.87 6.87h13.27a6.88 6.88 0 0 0 6.87-6.87v-2.53zM97.2 51.82h13.27a5.4 5.4 0 0 1 5.39 5.39h1.48a6.88 6.88 0 0 0-6.87-6.87h-5.9v-3.4h-1.48v3.4h-5.9a6.88 6.88 0 0 0-6.87 6.87h1.48c-.01-2.97 2.4-5.4 5.38-5.4zm52.82 97.48v1.54l.07 2.64a6.88 6.88 0 0 0 6.87 6.87h13.27a6.88 6.88 0 0 0 6.87-6.87v-4.18h-1.48v4.18a5.4 5.4 0 0 1-5.39 5.39h-5.93v-27.5h-1.48v27.5h-5.86a5.41 5.41 0 0 1-5.4-5.4l-.07-2.64v-1.53H150zm27.32-71.73c0-3.3-2.68-5.98-5.98-5.98h-10.48c-3.3 0-5.98 2.68-5.98 5.98v2.24c0 3.3 2.68 5.98 5.98 5.98h10.48c3.3 0 5.98-2.68 5.98-5.98v-2.24zm-1.48 2.24a4.51 4.51 0 0 1-4.5 4.5h-10.48a4.51 4.51 0 0 1-4.5-4.5v-2.24a4.51 4.51 0 0 1 4.5-4.5h10.48a4.51 4.51 0 0 1 4.5 4.5v2.24zm-58.18-12.26l-5.37-5.1 1.7-1.7-1.05-1.05-1.7 1.7-4-3.8-.02.02a6.91 6.91 0 0 0-.71-.61h5.56v-1.48H95.2V57h5.8l-9.95 7 .85 1.2 11.36-8-.03-.04a5.42 5.42 0 0 1 2.83 1.37l-15.02 10.7.86 1.2L107 59.7a5.34 5.34 0 0 1 .79 2.8v.14L91.03 74.5l.85 1.2 15.9-11.22v6.54a5.4 5.4 0 0 1-5.39 5.39v1.48a6.88 6.88 0 0 0 6.87-6.87v-8.5a6.53 6.53 0 0 0-.08-1l7.48 7.1 1.02-1.07zM97.3 130.2c2.4-2.5 2.3-6.2 2.28-6.34v-11.22H98.1v11.25c0 .03.1 3.25-1.87 5.3-1.07 1.1-2.6 1.68-4.5 1.68h-1.85v1.48h1.85c2.35-.01 4.22-.73 5.58-2.14zm19.7 2.12v-1.48h-1.85c-1.92 0-3.43-.56-4.5-1.67-1.96-2.03-1.87-5.26-1.87-5.32v-11.22h-1.48v11.2c-.01.16-.12 3.88 2.28 6.37 1.36 1.42 3.24 2.13 5.58 2.13H117zM93.12 158.2c1.24 1.32 3.02 2 5.3 2h15.36v-5.42h-1.48v3.94H98.4c-1.85 0-3.26-.5-4.2-1.52-1.5-1.6-1.37-4-1.37-4v-.12c-.01-.16-.26-4.03 4.84-7.83l9.3-6.85-.88-1.2-9.3 6.85c-5.53 4.12-5.48 8.5-5.44 9.1-.01.43-.05 3.1 1.77 5.05zm42.85-100l-.3.23c.24.2.5.46.78.9.13-.16.23-.23.33-.28-.2-.25-.54-.62-.82-.84z"/><path d="M132.93 65.24c.92 0 2.14-.1 3.03-.3l-.15-.47c-.36.1-1.37.37-2.98.37-.45 0-1.52-.02-2.16-.42-.24-.15-.3-.4-.3-.6 0-.7.96-1.4 1.2-1.6l-.36-.3c-.7.56-1.28 1.24-1.28 1.9 0 1.1 1.33 1.44 3 1.44zm2.47-6.44l-.3.24a4.81 4.81 0 0 1 .81.88c.1-.1.18-.18.3-.25a6.62 6.62 0 0 0-.81-.87zm-2.8 2.34c.5-.48 1.57-1.4 2.33-1.83l-.3-.35c-1.06.2-2.56.2-2.93.2-.85 0-1.1-.04-1.33-.08l.07.5h.97c1.3 0 2.1-.1 2.53-.15-.25.18-1.4 1.13-1.65 1.34l.3.34zm-.76 13.9a1.55 1.55 0 0 1 .4-.18c-.16-.44-.3-.88-.66-1.5l-.37.15.3.65c-.44.17-.97.33-1.5.48v-1.7h2.22v-2.6h-1.1v-.55c.1-.04.14-.06.14-.1s-.05-.07-.15-.08h-.42v.75h-1.08v4.4l-.54.14.1.4c.03.1.05.16.1.16.03 0 .1-.05.12-.18l2.25-.78.2.55zm-1.82-4.34h1.82v.72h-1.82v-.72zm0 1.08h1.82v.8h-1.82v-.8z"/><path d="M136.57 68.85v-.43h-3.5v2.64c0 1.54-.22 3.22-1.1 4.23.2.1.28.17.37.24.55-.7 1.14-2.07 1.14-4.76h.12c.2 1.53.74 2.62 1.03 3.1-.58.73-1.25 1.1-1.65 1.3.1.1.18.18.33.37.27-.16.92-.56 1.56-1.33a7.62 7.62 0 0 0 1.3 1.4c.07-.1.2-.2.33-.32-.2-.16-.8-.6-1.37-1.42.9-1.34 1.02-2.76 1.04-3.32l-.24-.2h-2.45v-1.53h3.1zm-.83 1.94c-.05.6-.16 1.7-.84 2.75-.63-1.08-.82-2.15-.9-2.75h1.75zm-6.8-.6a3.93 3.93 0 0 1 .36.39c.65-.56 1.23-1.2 1.7-1.92.53.83 1.1 1.3 1.42 1.58l.33-.4c-.54-.4-1.06-.8-1.57-1.48v-.02c.14.01.3.02.3-.1 0-.07-.1-.1-.17-.12l-.4-.1c-.73 1.2-1.54 1.83-2 2.15zm6.9 8.8l-.1-.47c-.82.2-1.78.26-2.62.26-.34 0-.52-.02-.77-.04v.44c.17.02.4.03.72.03.85.01 1.92-.06 2.76-.22zm-1.44 4.86c.56 0 1.3-.04 1.86-.13l.02-.52c-.63.16-1.33.22-1.97.22-1.42 0-1.8-.3-1.8-.75 0-.5.25-.88.38-1.07l-.46-.1c-.22.42-.37.73-.37 1.18 0 .94.95 1.17 2.33 1.17zm-3.48-5.84c0-.06-.08-.1-.16-.12l-.5-.2c-.34 1.75-.52 2.64-.52 4.05 0 1.56.3 2.37.44 2.8l.42-.15c-.02-1 .42-2 .6-2.38-.16-.1-.18-.15-.3-.32-.1.25-.43.97-.6 1.62-.06-.35-.1-.75-.1-1.5a12.99 12.99 0 0 1 .56-3.69c.14-.02.2-.06.2-.13zm-1.62 12.4c1.15-.64 2.33-1.5 3.44-3.1.9 1.28 2.17 2.22 3.56 2.9a1.53 1.53 0 0 1 .35-.43c-2.15-.9-3.28-2.28-3.65-2.74.18-.02.3-.03.3-.13 0-.07-.1-.1-.16-.1l-.53-.07c-1.1 1.88-2.73 2.87-3.64 3.27.2.15.27.28.34.4z"/><path d="M130.4 94.27h.46v-.65h3.8v.65h.46v-3.33h-4.72v3.33zm.46-2.9h3.8v1.83h-3.8v-1.83zm.08-1.9h3.7v.43h-3.7zm-.92 10.8c1-.65 2.5-1.3 3.5-1.3.84 0 1.47.64 1.47 1.67 0 1.38-1.24 2.7-3.67 3l.24.4c2.58-.4 3.9-1.87 3.9-3.45 0-.77-.42-2.03-2-2.03-.96 0-1.8.38-2.55.7-.37.16-.87.37-1.17.42l.27.58zm1.14-3.16c1.22.33 2.38.4 3.14.4l.06-.47c-.68.01-1.82.02-3.12-.4l-.08.45zm4.3 16.5v-6.65h-5.35v6.66h.46v-.58h4.44v.56h.45zm-4.9-6.2H135v2.3h-4.44v-2.3zm0 5.2v-2.46H135v2.46h-4.44zm2.73 5.8h3.3v-.43h-3.56v-1.47c.2-.04.2-.08.2-.13 0-.1-.07-.1-.2-.1l-.43-.04v1.75h-3.55v.43h3.25c-.72 1.58-2.05 3.12-3.4 4.13a2.9 2.9 0 0 1 .39.35c1.42-1.2 2.56-2.67 3.3-4.36v3.28h-1.53v.43h1.53v1.53h.43v-1.53h1.5v-.43h-1.5v-3.23c.7 1.64 1.84 3.05 3.23 4.18.1-.15.2-.24.42-.37-2.17-1.6-3.15-3.5-3.38-3.98zm1.2 13.63c-.62.43-1.2.57-1.55.64.1.1.2.26.3.4.7-.2 1.4-.52 1.92-1.03.77-.77.98-1.7.98-2.37 0-1.73-1.3-2.97-3.13-2.97-2.15 0-3.6 1.9-3.6 3.55 0 1.24.82 2.14 1.42 2.14.53 0 .83-.6 1.02-.98.83-1.72 1-3.38 1.1-4.3 1.47-.08 2.75.97 2.75 2.6 0 .84-.36 1.75-1.2 2.33zm-2.68-1.6c-.2.56-.58 1.5-.98 1.5s-.97-.68-.97-1.72c0-1.36 1.07-2.78 2.63-3.06-.03.45-.1 1.56-.68 3.27zm2.13 5.8l-.35.25c1.37 1.74 2.12 3.46 2.54 5.46.15-.13.24-.2.45-.26a13.14 13.14 0 0 0-2.64-5.45zm-4.55 5.8c1.43-1.5 2.14-3.68 2.4-5.36.14-.03.16-.1.16-.13 0-.07-.05-.1-.15-.1l-.46-.1c-.2 1.6-.82 3.9-2.4 5.42.28.15.34.2.44.28zm.08 9.32c.07 0 .1-.04.13-.15a48.43 48.43 0 0 0 5.8-.96 12.25 12.25 0 0 1 .58 1.24c.1-.14.2-.23.38-.34-.34-.9-1.42-2.58-2.34-3.5l-.37.25a11.57 11.57 0 0 1 1.54 2 43.05 43.05 0 0 1-4.54.75c.83-1.6 1.6-4.03 2-5.24.07-.01.2-.03.2-.14 0-.07-.05-.1-.16-.13l-.44-.14c-.5 2.2-1.64 4.83-2.1 5.7l-.88.06.1.47c.01.07.02.12.1.12zm46.48 29.9V168.7a2.47 2.47 0 0 0-2.47-2.47c-1.37 0-2.47 1.1-2.47 2.47v.76h-14.66v-.32a2.47 2.47 0 0 0-2.47-2.47c-1.37 0-2.47 1.1-2.47 2.47v.32H136.1v-.32a2.47 2.47 0 0 0-2.47-2.47c-1.37 0-2.47 1.1-2.47 2.47v.32h-15.54v-.32a2.47 2.47 0 0 0-2.47-2.47c-1.37 0-2.47 1.1-2.47 2.47v.32H96.02v-.76a2.47 2.47 0 0 0-2.47-2.47c-1.37 0-2.47 1.1-2.47 2.47v12.58a2.47 2.47 0 0 0 2.47 2.47c1.37 0 2.47-1.1 2.47-2.47v-.53h14.66V183a2.47 2.47 0 0 0 2.47 2.47c1.37 0 2.47-1.1 2.47-2.47v-2.27h15.54v3.2a2.47 2.47 0 0 0 2.47 2.47c1.37 0 2.47-1.1 2.47-2.47v-3.2h15.32V183a2.47 2.47 0 0 0 2.47 2.47c1.37 0 2.47-1.1 2.47-2.47v-2.27h14.66v.53a2.47 2.47 0 0 0 2.47 2.47 2.46 2.46 0 0 0 2.47-2.46zm-80.55 0c0 1.03-.83 1.86-1.86 1.86s-1.86-.83-1.86-1.86V168.7c0-1.03.83-1.86 1.86-1.86s1.86.83 1.86 1.86v.76h-1.3a1.61 1.61 0 1 0 0 3.22h1.3v4.83h-1.3a1.61 1.61 0 1 0 0 3.22h1.3v.55zm15.27-1.15H94.1c-.55 0-1-.45-1-1s.45-1 1-1h16.58v2zm0-2.6H96.02v-4.83h14.66v4.83zm0-5.45H94.1c-.55 0-1-.45-1-1s.45-1 1-1h16.58v2zM115 183c0 1.03-.83 1.86-1.86 1.86s-1.86-.83-1.86-1.86v-13.87c0-1.03.83-1.86 1.86-1.86s1.86.83 1.86 1.86v.32h-.87a1.61 1.61 0 1 0 0 3.22h.87v4.83h-.87a1.61 1.61 0 1 0 0 3.22h.87V183zm16.15-2.88h-17.02c-.55 0-1-.45-1-1s.45-1 1-1h17.02v2zm0-2.6H115.6v-4.83h15.54v4.83zm0-5.45h-17.02c-.55 0-1-.45-1-1s.45-1 1-1h17.02v2zm4.33 11.87c0 1.03-.83 1.86-1.86 1.86s-1.86-.83-1.86-1.86v-14.8c0-1.03.83-1.86 1.86-1.86s1.86.83 1.86 1.86v14.8zm.6-13.87h16.8c.55 0 1 .45 1 1s-.45 1-1 1h-16.8v-2zm0 2.62h15.32v4.83h-15.3v-4.83zm0 7.44v-2h16.8c.55 0 1 .45 1 1s-.45 1-1 1h-16.8zm19.64 2.88c0 1.03-.83 1.86-1.86 1.86S152 184.04 152 183v-2.27h.87a1.61 1.61 0 1 0 0-3.22H152v-4.83h.87a1.61 1.61 0 1 0 0-3.22H152v-.32c0-1.03.83-1.86 1.86-1.86s1.86.83 1.86 1.86V183zm.62-12.94h16.6c.55 0 1 .45 1 1s-.45 1-1 1h-16.6v-2zm0 2.62H171v4.83h-14.66v-4.83zm0 7.44v-2h16.6c.55 0 1 .45 1 1s-.45 1-1 1h-16.6zm15.27 1.15v-.53h1.3a1.61 1.61 0 0 0 0-3.22h-1.3v-4.83h1.3a1.61 1.61 0 1 0 0-3.22h-1.3v-.76c0-1.03.83-1.86 1.86-1.86s1.86.83 1.86 1.86v12.58c0 1.03-.83 1.86-1.86 1.86-1.03-.02-1.86-.85-1.86-1.88zM25.52 287.74c.54 0 .9 0 1.48-.58.22-.22.4-.32.6-.32.43 0 2.88 1.2 2.88 1.84 0 .14-.07.22-.8.87-.25.22-.32.47-.32 1.23l.25 6.5c0 1.08-.54 2.1-2.1 2.1-.72 0-.76-.72-.8-1.23-.07-.72-.36-.97-1.15-.97h-11c-.76 0-1.05.22-1.12.97-.07 1.15-.9 1.73-1.8 1.73-.87 0-.87-.65-.87-1.48l.14-6.78-.04-1.62c0-.14-.14-.58-.4-.58-.22 0-2.42 2.27-2.88 2.67-2.38 2.16-4.3 3.28-5.05 3.64-.07.04-.5.25-.58.25-.04 0-.07 0-.07-.04l1.6-1.44c5.08-5.12 9.16-11.14 9.16-12.33 0-.54-.58-.54-.76-.54H9.5c-3.17 0-4.22.07-4.58.1-.1 0-.65.07-.76.07s-.18-.07-.32-.25l-.7-.8c-.07-.1-.14-.22-.14-.25 0-.07.04-.07.1-.07.25 0 1.37.1 1.6.1l4.98.14h17.96c1.62 0 1.8 0 2.3-.6 1-1.2 1.12-1.33 1.44-1.33.25 0 3.4 1.9 3.4 2.38 0 .5-.72.5-1.95.5H17.7c-.97 0-1.08.18-2.2 1.66a48.94 48.94 0 0 1-2.2 2.74c-.22.25-.47.6-.47.9s.32.83 1.9.83h10.8zm1.04-11.9c1.15 0 1.15 0 1.15-3.6 0-.43-.04-.87-.14-1.33-.04-.25-.18-.72-.18-.9 0-.32.3-.43.43-.43.1 0 3.35.3 3.35 1.08 0 .14-.04.14-.43.65-.14.18-.22.43-.25.9-.04.7.04 4.07.04 4.87 0 1.05-.54 1.88-1.7 1.88-1.05 0-1.12-.72-1.2-1.3-.1-.72-.58-.87-1.12-.87H11.4c-.97 0-1.08.3-1.12.97-.07 1.23-1.08 1.6-1.6 1.6-1.26 0-1.26-1.33-1.26-2.1 0-.5.1-2.92.1-3.46 0-1.37-.07-1.84-.14-2.16-.04-.18-.32-1.05-.32-1.26 0-.14.14-.32.47-.32.1 0 2.74.25 2.74 1.08a5.31 5.31 0 0 1-.14.76c-.07.25-.07.4-.07 1.73 0 1.95.07 2.24 1.23 2.24h5.16c.4 0 .94-.04 1.08-.65.04-.22.04-3.82.04-4.36 0-1.2 0-1.5-.1-1.9-.04-.1-.22-.65-.22-.8 0-.36.25-.43.47-.43.58 0 3.25.3 3.25 1.08 0 .14-.58.8-.65.97-.07.22-.07 3.32-.07 3.86 0 1.95 0 2.24 1.15 2.24h5.13zm-.9 20.34c1.2 0 1.23 0 1.23-5.05 0-1.88 0-2.42-1.2-2.42H14.52c-1.12 0-1.2 0-1.2 4.33 0 2.85 0 3.14 1.2 3.14h11.14z"/><path d="M11.63 300.13c-1.15 0-1.15-.93-1.15-1.76l.08-3.55.07-3.23-.03-1.6c0-.1-.06-.23-.1-.3-.3.23-1.18 1.1-1.72 1.62l-1 .95c-2.75 2.5-4.74 3.5-5.1 3.68-.56.28-.63.28-.7.28-.28 0-.35-.2-.35-.32 0-.07.03-.15.08-.2.2-.2.53-.5.84-.76l.75-.68c5.24-5.28 9.08-11.1 9.08-12.13 0-.1 0-.26-.48-.26H9.5c-3.03 0-4.15.07-4.55.1a3.8 3.8 0 0 0-.38.04l-.4.04c-.26 0-.4-.18-.54-.36l-.68-.8c-.15-.22-.2-.32-.2-.43 0-.08.03-.35.4-.35.13 0 .5.03.87.06.3.03.62.05.72.05l.57.02 4.4.12h17.96c1.64 0 1.68-.01 2.1-.5l.12-.14c.95-1.12 1.1-1.3 1.54-1.3.23 0 3.67 1.9 3.67 2.66 0 .78-.9.78-2.23.78H17.7c-.8 0-.87.08-1.88 1.43l-.1.12a52.12 52.12 0 0 1-2.21 2.75c-.25.3-.4.56-.4.72 0 .15.3.55 1.63.55h10.78c.52 0 .8 0 1.28-.5.2-.2.46-.4.8-.4.48 0 3.16 1.23 3.16 2.12 0 .28-.12.38-.9 1.07-.16.14-.23.28-.23 1.02 0 .6.1 2.56.16 4.15l.1 2.34c0 1.5-.9 2.37-2.37 2.37-.97 0-1.03-.95-1.07-1.45-.06-.56-.2-.75-.88-.75H14.55c-.63 0-.78.13-.84.72-.08 1.38-1.1 2-2.08 2zm-1.15-11c.47 0 .68.62.68.86.02.2.04.74.04 1.62 0 .47-.03 1.84-.07 3.24l-.07 3.54c0 .96.06 1.2.6 1.2.66 0 1.46-.38 1.52-1.47.08-.9.48-1.24 1.4-1.24H25.6c.93 0 1.34.35 1.43 1.22.05.7.13.97.52.97 1.58 0 1.8-1.14 1.8-1.8 0-.2-.04-1.18-.1-2.3l-.16-4.18c0-.74.06-1.13.42-1.44.35-.32.66-.6.7-.67-.04-.4-2.2-1.53-2.6-1.54-.1 0-.2.04-.42.24-.66.66-1.1.66-1.68.66H14.7c-2.08 0-2.2-.92-2.2-1.1 0-.3.18-.67.54-1.08a55.66 55.66 0 0 0 2.19-2.73l.1-.12c1.06-1.4 1.25-1.65 2.33-1.65H32.8c.86 0 1.67 0 1.67-.23-.16-.36-2.73-2-3.15-2.1-.13 0-.2.1-1.07 1.1l-.12.14c-.6.7-.88.7-2.52.7H9.7c-1.52 0-2.87-.06-4.43-.12l-.56-.02c-.1 0-.42-.03-.75-.05l-.44-.03.55.63c.03.04.12.15.15.17a1.95 1.95 0 0 1 .3-.04l.4-.04c.47-.05 1.68-.1 4.58-.1h2.38c.94 0 1.04.57 1.04.82 0 1.42-4.35 7.6-9.24 12.53-.06.05-.12.12-.2.2 1.04-.64 2.43-1.65 3.92-3 .17-.14.56-.52.97-.93 1.67-1.65 1.88-1.82 2.1-1.82zm15.18 7.34H14.52c-1.47 0-1.47-.6-1.47-3.42 0-4.17 0-4.6 1.47-4.6H25.7c1.47 0 1.47.84 1.47 2.7 0 5.03 0 5.33-1.5 5.33zM14.52 289c-.9 0-.9 0-.9 4.05 0 2.86.02 2.86.9 2.86h11.14c.95 0 .95 0 .95-4.77 0-2.02-.05-2.14-.9-2.14h-11.2zm-5.8-9.37c-1.54 0-1.54-1.6-1.54-2.37 0-.25.03-.96.05-1.7l.06-1.77c0-1.3-.07-1.78-.14-2.1a3.09 3.09 0 0 0-.1-.35c-.14-.46-.23-.8-.23-.97 0-.3.26-.6.75-.6.03 0 3.02.2 3.02 1.36 0 .15-.12.73-.16.85-.06.2-.06.33-.06 1.64 0 1.96.07 1.96.95 1.96h5.16c.46 0 .72-.07.8-.43.01-.1.03-1.3.03-4.3 0-1.16 0-1.48-.1-1.84-.23-.68-.23-.8-.23-.87 0-.44.3-.7.75-.7.04 0 3.52.12 3.52 1.36 0 .16-.1.32-.4.72-.1.12-.23.3-.26.36-.02.1-.05 1.18-.05 3.75 0 1.96 0 1.96.87 1.96h5.16c.87 0 .87 0 .87-3.33a5.15 5.15 0 0 0-.14-1.27 3.7 3.7 0 0 0-.09-.4c-.06-.27-.1-.44-.1-.56 0-.5.42-.7.7-.7.04 0 3.63.2 3.63 1.36 0 .2-.07.3-.27.54l-.22.28c-.1.13-.16.35-.2.75-.02.44 0 2.14.02 3.38l.02 1.47c0 1.3-.78 2.15-1.97 2.15-1.27 0-1.4-.95-1.46-1.5-.07-.5-.3-.65-.84-.65h-15.1c-.8 0-.8.15-.84.7-.08 1.33-1.2 1.83-1.87 1.83zm-1.16-9.3c-.13 0-.18.05-.2.06 0 .1.14.57.2.8.05.18.1.33.1.4.07.32.15.8.15 2.22 0 .28-.03 1.04-.06 1.8l-.05 1.67c0 1.15.16 1.8.98 1.8a1.34 1.34 0 0 0 1.31-1.32c.04-.82.27-1.24 1.4-1.24h15.1c.3 0 1.23 0 1.4 1.1.08.67.17 1.06.9 1.06 1.28 0 1.42-1.12 1.42-1.6v-1.46l-.02-3.42c.04-.54.13-.83.3-1.06l.23-.28c.07-.1.14-.17.15-.2-.01-.33-2.14-.76-3.08-.8 0 0-.15.01-.15.15a2.77 2.77 0 0 0 .09.43c.04.16.07.3.1.43.1.42.15.87.15 1.37 0 3.6 0 3.88-1.43 3.88H21.4c-1.43 0-1.43-.58-1.43-2.5 0-3.7.06-3.87.1-3.95.05-.12.15-.26.33-.5.1-.14.28-.37.3-.44-.01-.32-1.94-.75-2.97-.75-.2 0-.2.05-.2.15 0 0 .01.13.2.7.12.45.12.78.12 2l-.04 4.4c-.2.88-1.04.88-1.36.88H11.3c-1.44 0-1.5-.6-1.5-2.5 0-1.37 0-1.52.08-1.8.03-.1.13-.6.13-.68.02-.38-1.73-.76-2.45-.78zm43.24 10.63c-.83 0-.83.07-1.05.94-.25.97-1.9 1.15-1.95 1.15-.8 0-.87-.94-.87-1.4l.07-2.27-.1-7.97-.07-.97c0-.14 0-.32.14-.32.3 0 1.48.36 2.45.65.76.25 1.15.36 1.15.8 0 .32-.14.4-.5.7-.18.1-.3.25-.3.6l-.1 4.15c0 2.7.04 3.03 1.12 3.03h4.62c.94 0 1.08-.54 1.08-1.12l-.07-8.58-.25-3.06c0-.18.04-.22.25-.22.58 0 2.27.4 3.06.65.4.1.8.25.8.7 0 .3-.22.5-.83 1.05-.3.3-.3 6.53-.3 7.54l.07 2.56c.22.5.72.5 1 .5h4.5c.97 0 1.08-.5 1.08-1.4v-4.44c0-.58-.3-3.14-.3-3.68 0-.22.04-.32.22-.32.25 0 1.73.43 2.06.5 1.55.4 1.7.43 1.7.87 0 .3-.1.4-.4.72-.3.3-.3.43-.32.87l-.1 3.2v4.76c-.1.94-1.08 1.37-1.84 1.37-.83 0-.94-.32-1.08-.94-.14-.58-.54-.58-.97-.58h-4.54c-1.08 0-1.08.6-1.08 1.23l.04 12.7c0 .4.1.9 1.08.9h8c1 0 1-.6 1-1.23l.1-5.95-.14-3.57c0-.3 0-.32.25-.32.47 0 2.1.5 2.67.7.87.3 1.08.36 1.08.8 0 .32-.14.4-.47.65-.47.32-.5.47-.58 1.84l-.04 4.44.1 4.36c0 1.44-1.4 1.95-2.1 1.95-.97 0-.97-.32-.97-1.7 0-.97-.7-.97-1.08-.97H47.97c-1.05 0-1.05.7-1.05 1.08 0 1.12-.47 2.2-1.88 2.2-.97 0-.97-1.44-.97-2.16l.04-3.25-.25-7.6a24.17 24.17 0 0 1-.14-1.48c0-.1 0-.25.14-.25.3 0 1.6.36 1.8.43 1.95.72 2.13.72 2.13 1.23 0 .25-.25.47-.72.9-.14.14-.22.36-.25.6l-.04 3.17c0 4.15.1 4.15 1.12 4.15h7.43c1.05 0 1.12-.54 1.12-1.37V282.8c0-1.4.04-1.84-1.05-1.84h-4.6z"/><path d="M45.05 300.3c-1.25 0-1.25-1.7-1.25-2.44l.04-3.24-.25-7.6-.15-1.5c0-.48.3-.53.42-.53.36 0 1.74.4 1.9.45l.62.23c1.4.52 1.7.62 1.7 1.27 0 .36-.28.6-.73 1.03l-.08.07c-.08.08-.13.23-.17.45l-.03 3.13c0 3.87.06 3.87.84 3.87h7.43c.77 0 .84-.27.84-1.1v-11.7c0-.6 0-1-.1-1.22-.05-.1-.15-.2-.67-.2H50.8c-.6 0-.6 0-.76.67-.32 1.25-2.2 1.42-2.23 1.42-.43 0-1.15-.22-1.15-1.7l.04-1.2.03-1.07-.1-7.95-.05-.7-.02-.3c0-.4.14-.6.42-.6.3 0 1.1.24 2.32.6l.33.1c.72.24 1.23.4 1.23 1.02 0 .42-.2.6-.5.8l-.1.1c-.1.07-.18.1-.18.4l-.1 4.14c0 2.75.06 2.75.84 2.75h4.62c.68 0 .8-.28.8-.84l-.07-8.57-.02-.34-.22-2.74c0-.44.3-.5.53-.5.6 0 2.33.4 3.15.66.3.1 1 .27 1 .95 0 .4-.3.7-.9 1.22-.1.35-.23 2.45-.23 7.36l.06 2.48c.12.28.4.3.74.3h4.5c.7 0 .8-.23.8-1.13v-4.44c0-.28-.07-1.08-.15-1.86l-.14-1.8c0-.5.27-.6.5-.6.18 0 .62.1 1.53.36l.58.15c1.62.42 1.9.5 1.9 1.14 0 .38-.15.55-.43.87 0 0-.04.05-.05.05-.2.2-.2.26-.24.64l-.1 3.24.03 1.44-.03 3.35c-.12 1.05-1.18 1.62-2.12 1.62-1 0-1.2-.48-1.35-1.15-.1-.34-.24-.36-.7-.36h-4.54c-.8 0-.8.32-.8.95v4l.04 8.67c0 .27 0 .63.8.63h8c.7 0 .73-.27.73-.95l.1-5.95-.08-1.87-.07-1.7c0-.34.04-.6.53-.6.46 0 1.7.37 2.75.7.88.3 1.28.42 1.28 1.06 0 .43-.2.6-.48.8l-.1.07c-.36.25-.4.28-.47 1.63l-.04 4.42.06 2.33.05 2.04c0 1.52-1.42 2.23-2.37 2.23-1.25 0-1.25-.62-1.25-1.97 0-.64-.32-.7-.8-.7H47.97c-.77 0-.77.4-.77.8.01 1.53-.8 2.45-2.15 2.45zM44 285.58c.01.23.1 1.16.14 1.4l.26 7.65-.02 1.74-.02 1.5c0 .93.08 1.88.7 1.88 1.4 0 1.6-1.2 1.6-1.92 0-.37 0-1.36 1.33-1.36h20.16c.37 0 1.36 0 1.36 1.25 0 1.42.01 1.42.7 1.42.57 0 1.8-.42 1.8-1.67l-.1-4.36.04-4.44c.07-1.38.1-1.65.7-2.06l.08-.06c.25-.2.26-.2.26-.35 0-.2 0-.23-.9-.53l-2.55-.67v.04l.15 3.57-.1 5.95c0 .6 0 1.5-1.3 1.5h-8c-.9 0-1.36-.4-1.36-1.18l-.04-8.68v-4c0-.6 0-1.5 1.36-1.5h4.54c.44 0 1.05 0 1.24.8.13.56.17.73.8.73.55 0 1.47-.3 1.56-1.12.1-.87.06-2.15.03-3.27l-.03-1.45.1-3.22c.04-.47.06-.7.4-1.05.28-.32.3-.36.3-.52 0-.2 0-.2-1.48-.6-.1-.02-.34-.1-.6-.16l-1.32-.33v.04c0 .25.07 1.02.14 1.76l.15 1.92v4.44c0 .9-.1 1.7-1.36 1.7h-4.5c-.3 0-.98 0-1.27-.67-.04-.1-.1-.28-.1-2.67l.37-7.73c.56-.5.75-.7.75-.85 0-.17-.1-.28-.6-.42-.77-.24-2.4-.62-2.96-.64l.2 2.63.03.35.07 8.6c0 .35 0 1.4-1.36 1.4h-4.62c-1.4 0-1.4-.7-1.4-3.3l.03-1.07.08-3.08c0-.42.13-.67.43-.85l.08-.07c.28-.22.28-.23.28-.38 0-.2-.17-.27-.85-.5l-.3-.1-2.03-.56v.03c0 .03.01.12.02.25l.05.7.1 8-.04 1.1-.04 1.18c0 .75.2 1.13.6 1.13 0 0 1.47-.17 1.68-.94.24-.98.36-1.15 1.32-1.15h4.62c.45 0 .94.06 1.17.52.16.32.16.78.16 1.47v11.74c0 .7 0 1.65-1.4 1.65h-7.4c-1.35 0-1.4-.44-1.4-4.43l.04-3.2c.05-.37.16-.62.33-.8l.1-.08c.3-.28.55-.5.55-.62 0-.24 0-.25-1.34-.74l-.6-.22c-.22-.13-1.17-.4-1.56-.46zm43.02 10c-1.05 0-1.05.7-1.05 1.3 0 1.05 0 2.2-1.7 2.2-.94 0-1.2-.4-1.2-1.44l.18-16.5-.22-4.8a11.18 11.18 0 0 1-.11-1.15c0-.25.04-.32.32-.32.1 0 3.68.7 3.68 1.44 0 .25-.1.36-.65.94-.3.25-.3 2.06-.3 2.74l-.04 13.4c0 .72.1 1.26 1.05 1.26h7.28c.3 0 .9 0 1-.72.04-.22.22-11.36.22-16.05l-.07-7.6c0-.3-.18-1.55-.18-1.8 0-.22.07-.3.32-.3s1.88.32 2.27.4c.76.14 1.23.22 1.23.7 0 .22-.7 1.05-.76 1.23-.14.4-.18.76-.18 1.55L98 293.4c0 .94.3 1.26 1.08 1.26h7.36c1 0 1.08-.58 1.08-1.44l.07-8.98-.1-7.68c0-.25-.14-1.5-.14-1.77 0-.22.07-.32.3-.32.18 0 3.5.76 3.5 1.55 0 .14-.58.72-.6.83-.22.5-.22 3.14-.22 3.97l.1 15.8c0 1.15-.65 2.02-1.84 2.02-1.05 0-1.08-.8-1.08-1.9 0-.58-.07-1.12-1.05-1.12H87.02z"/><path d="M84.28 299.34c-1.22 0-1.47-.7-1.47-1.72l.18-16.5-.2-4.77a11.24 11.24 0 0 1-.11-1.18c0-.3.07-.6.6-.6.04 0 3.96.62 3.96 1.72 0 .36-.14.5-.68 1.08-.01.01-.06.06-.06.07-.07.1-.2.56-.2 2.53l-.04 13.42c0 .74.1.98.77.98h7.28c.43 0 .67-.08.73-.48.03-.34.2-11.16.2-16l-.07-7.6c0-.13-.05-.55-.1-.92-.05-.46-.1-.75-.1-.88 0-.38.2-.57.6-.57.2 0 .82.1 1.9.32l.5.08c.74.14 1.38.26 1.38.95 0 .2-.17.47-.54.98-.1.16-.2.3-.24.36-.12.34-.16.66-.16 1.44l-.1 21.35c0 .83.2.98.8.98h7.36c.7 0 .8-.25.8-1.16l.04-4.7.03-4.28-.1-7.66c0-.15-.04-.5-.07-.88-.04-.4-.07-.78-.07-.9 0-.54.4-.6.57-.6.04 0 3.78.68 3.78 1.83 0 .17-.12.33-.45.7-.1.1-.17.2-.2.24-.07.16-.2.88-.2 3.85l.12 15.8c0 1.38-.85 2.3-2.12 2.3-1.36 0-1.36-1.16-1.36-2.2 0-.58-.07-.84-.77-.84H87.02c-.73 0-.77.33-.77 1.02 0 1.03 0 2.46-1.97 2.46zm-1.06-24.23v.04c0 .16.07.93.1 1.1.22 2.5.22 2.8.22 4.85l-.18 16.5c0 1 .22 1.16.9 1.16 1.35 0 1.42-.73 1.42-1.92 0-.6 0-1.58 1.33-1.58h19.47c1.33 0 1.33.94 1.33 1.4 0 1.28.1 1.63.8 1.63 1.15 0 1.56-.9 1.56-1.74l-.02-2.58-.02-2.9-.03-4.95-.04-5.37c0-2.43.07-3.7.24-4.08.02-.07.1-.16.28-.37.1-.12.3-.34.32-.4-.01-.36-2.67-1.15-3.24-1.2v.04c0 .12.04.5.07.86.04.4.07.78.07.9.04.43.1 4.67.1 7.68l-.03 4.28-.04 4.7c0 .73 0 1.72-1.36 1.72H99.1c-.95 0-1.36-.46-1.36-1.54l.1-21.35c0-.76.03-1.18.2-1.64.04-.1.13-.23.3-.48.14-.2.4-.57.44-.68 0-.17-.2-.23-.93-.37l-.5-.1c-.5-.1-1.64-.3-1.8-.3h-.04a8.36 8.36 0 0 0 .08.83c.05.42.1.82.1 1v.82l.06 6.8-.22 16.1c-.14.95-1 .95-1.3.95h-7.28c-1.33 0-1.33-1-1.33-1.54l.04-13.4c0-2.18.15-2.74.38-2.95.5-.54.55-.6.55-.73-.12-.42-2.83-1.1-3.42-1.16 0 .01-.01.01-.02.01zm41.48-2.2c-.47 0-.76.07-.94.83-.22.9-.87 3.75-2.67 3.75-.76 0-1.55-.5-1.55-1.48 0-.8.47-1.15 1.44-1.9 1.23-.94 1.9-2.24 2.45-3.64.04-.14.1-.3.18-.4.1.18.07.6.1 1.15.04.72.5.72 1.05.72h8.54c.87 0 1-.25 1-1.15 0-1.55-.07-1.88-.14-2.13-.04-.14-.32-.83-.32-.97 0-.3.25-.36.47-.36.07 0 3.53.4 3.53 1.05 0 .18-.65.76-.76.9-.14.25-.25.8-.25 1.4 0 1.08.22 1.26 1.05 1.26h7.1c.9 0 1.48-.04 2.13-.87.58-.76.7-.76.83-.76.3 0 .5.14 2.27 1.6.5.43.76.65.76 1.2 0 1-.76 1.08-1.9 1.2-1 .1-2.1.65-3.06 1.33-.25.18-.72.54-.87.54a.28.28 0 0 1-.22-.22c0-.18.25-.47.47-.83.6-.97.7-1.55.7-1.7 0-.5-.5-.5-.83-.5H124.7zm12.87 5.3c-.3 0-.65 0-.65.43 0 1.26 3.32 7.72 4.33 7.72 1.12 0 3.93-4.58 4.07-5.05.07-.18.18-1.2.36-1.2.04 0 3.25 2.1 3.25 2.6 0 .32-.5.4-.97.47-.65.1-.83.22-2.2 1.3l-3.46 2.3c-.18.1-.36.3-.36.54 0 .3 3.1 4 8.7 6.24.4.14.94.36 1.15.54-.47.14-1.33.5-1.55.7a7.67 7.67 0 0 0-1.23 1.37c-.1.18-.18.25-.32.25-.18 0-3.6-2.02-6.5-5.34-4.18-4.83-5.3-9.34-5.9-11.9-.07-.32-.18-.76-.5-.76-.25 0-.36.1-1.62 1.26-.3.25-1.77 1.26-1.77 1.6 0 .22.1.3.87.83 5.23 3.8 5.23 10 5.23 10.82 0 4.15-1.95 6.63-4.7 6.63-.54 0-.58-.1-.83-.94s-1.44-1.3-3.17-1.95c-.6-.25-.7-.25-.7-.36s.18-.1.22-.1c.3 0 1.66.18 1.95.22a29.84 29.84 0 0 0 2.31.11c.72 0 1.23-.04 1.84-1.23.3-.58.54-1.6.54-2.96s-.22-2.38-.7-2.38c-.1 0-1.05.87-1.2.97-5.62 5-12.2 6.1-12.22 6.1-.07 0-.14 0-.14-.07 0-.04.9-.54 1.05-.6 4.4-2.52 7.57-4.33 11.36-8.7.3-.36.7-.8.7-1.3 0-.25-.32-1.05-.8-1.05-.14 0-.25.07-1.15.83-4.5 3.86-10.38 5.7-11.03 5.7-.07 0-.14-.04-.14-.07 0-.07 2.42-1.44 2.85-1.73 3.57-2.27 7.86-5.9 7.86-7.03 0-.36-.47-1.08-.97-1.08-.18 0-1.37.8-1.55.94-3.57 2.34-8.62 3.46-8.7 3.46s-.14-.04-.14-.1c0-.1.76-.47 1.26-.72 5.88-2.78 9.27-6.5 9.27-6.96 0-.32-.1-.32-1.15-.32-2.5 0-3.75.04-4.1.07-.1.04-.65.1-.76.1-.14 0-.22-.14-.32-.25l-.7-.83c-.07-.07-.14-.18-.14-.22 0-.07.04-.1.1-.1.25 0 1.37.1 1.62.14l4.47.1h8.5c1.44 0 1.6 0 1.87-.25.3-.3 1.37-1.77 1.7-1.77.25 0 2.92 1.98 2.92 2.5s-.36.5-1.3.5h-6.76z"/><path d="M133.78 299.8c-.75 0-.85-.3-1.1-1.13-.22-.72-1.5-1.2-3-1.77l-.33-.13c-.36-.14-.54-.22-.54-.5 0-.18.13-.4.5-.4.24 0 1.07.1 1.84.2l.14.02c.67.07 1.82.1 2.27.1.65 0 1.04 0 1.6-1.07.15-.3.5-1.2.5-2.83 0-1.44-.24-1.98-.37-2.08-.16.12-.54.45-.74.62l-.33.28c-5.73 5.1-12.34 6.15-12.4 6.15-.4 0-.42-.27-.42-.35 0-.12 0-.26 1.2-.86l.1-.05c4.33-2.48 7.46-4.28 11.18-8.57l.08-.1c.25-.3.54-.66.54-1 0-.18-.28-.77-.5-.77-.1.03-.58.44-.97.76-4.47 3.83-10.46 5.76-11.2 5.76-.2 0-.42-.13-.42-.35 0-.2 0-.2 1.77-1.24l1.2-.72c3.76-2.4 7.74-5.9 7.74-6.8 0-.23-.37-.8-.7-.8-.16.05-1.2.73-1.38.88-3.58 2.35-8.68 3.52-8.86 3.52-.24 0-.42-.17-.42-.4 0-.25.2-.37 1.24-.88l.18-.1c5.6-2.65 8.9-6.14 9.1-6.73-.13-.03-.47-.03-.87-.03-2.5 0-3.74.04-4.08.07-.1.04-.66.1-.8.1-.24 0-.37-.16-.46-.26-.02-.02-.04-.05-.06-.07l-.7-.85c-.04-.03-.2-.22-.2-.4a.37.37 0 0 1 .39-.39 17.35 17.35 0 0 1 1.66.15l1.38.04 3.05.07h8.5c1.43 0 1.5-.01 1.7-.18a7.14 7.14 0 0 0 .37-.44c.84-1.03 1.2-1.4 1.5-1.4.32 0 3.2 2.05 3.2 2.77 0 .78-.63.78-1.58.78h-6.7c-.37 0-.37.04-.37.15 0 1.3 3.3 7.35 4.05 7.44.85 0 3.62-4.25 3.8-4.85.03-.07.05-.2.07-.33.12-.6.2-1.06.56-1.06.23 0 3.52 2.2 3.52 2.88 0 .56-.66.66-1.2.74-.58.1-.7.15-2.1 1.25-.27.2-.94.64-1.65 1.1l-1.8 1.2c-.1.07-.25.17-.25.32.18.4 3.26 3.88 8.5 5.98.93.34 1.16.53 1.23.6.08.07.12.17.1.27s-.1.18-.2.2c-.5.16-1.3.5-1.45.63a7.25 7.25 0 0 0-1.17 1.3c-.1.18-.26.38-.56.38-.34 0-3.88-2.18-6.7-5.43-4.28-4.94-5.38-9.54-5.97-12.02-.1-.45-.18-.54-.23-.54-.13 0-.32.17-1.3 1.06l-.14.13c-.08.07-.23.18-.4.32-.33.25-1.2.9-1.27 1.1.04.05.3.25.7.52l.06.04c4.96 3.6 5.34 9.36 5.34 11.04-.03 4.16-1.98 6.87-5 6.87zm-3.44-3.25c1.47.56 2.6 1.05 2.87 1.95.22.74.22.74.56.74 2.68 0 4.4-2.5 4.4-6.35 0-1.62-.37-7.16-5.1-10.6l-.06-.04c-.77-.55-.92-.66-.92-1.02 0-.33.44-.72 1.5-1.5l.37-.3.14-.12c1.22-1.12 1.32-1.2 1.67-1.2.56 0 .7.66.78.98.58 2.42 1.66 6.94 5.85 11.78 2.66 3.06 5.83 5.03 6.3 5.24-.01-.01.01-.04.05-.1a7.42 7.42 0 0 1 1.29-1.44c.18-.15.63-.36 1.05-.52-.15-.06-.33-.14-.57-.23-5.68-2.27-8.87-6.04-8.87-6.5 0-.3.18-.6.5-.78.23-.18 1-.68 1.82-1.22l1.62-1.08c1.35-1.06 1.6-1.23 2.32-1.35.24-.04.68-.1.74-.2-.13-.34-2.13-1.73-2.87-2.2a6.3 6.3 0 0 0-.1.5c-.04.2-.07.35-.1.4-.12.38-2.98 5.22-4.33 5.22-1.37 0-4.6-6.9-4.6-8 0-.7.67-.7.93-.7h6.7c1.02 0 1.02-.04 1.02-.23-.1-.37-2.14-1.96-2.64-2.2-.23.15-.82.86-1.07 1.17l-.42.5c-.38.33-.57.33-2.07.33h-8.5a81.33 81.33 0 0 1-3.06-.07l-1.4-.04a16.33 16.33 0 0 0-1.24-.12l.56.67c.02.01.05.05.08.08.02.03.06.07.07.08.05-.01.54-.08.63-.1.52-.06 2.07-.1 4.2-.1 1.07 0 1.43 0 1.43.6 0 .7-3.66 4.46-9.33 7.17 1.73-.5 4.8-1.5 7.2-3.07h0s1.37-.98 1.7-.98c.67 0 1.25.85 1.25 1.36 0 1.35-4.65 5.14-8 7.27-.17.12-.68.42-1.22.73-.13.07-.26.16-.4.24 2.04-.66 6.18-2.37 9.62-5.3.95-.8 1.08-.9 1.34-.9.7 0 1.07 1 1.07 1.33 0 .56-.37 1-.66 1.37l-.1.1c-3.76 4.33-6.9 6.15-11.2 8.62 2.18-.58 6.73-2.13 10.77-5.73.06-.05.17-.15.3-.27.8-.7.9-.78 1.06-.78.64 0 .96.9.96 2.66 0 1.23-.2 2.36-.57 3.08-.66 1.28-1.26 1.38-2.1 1.38a31.72 31.72 0 0 1-2.34-.1l-.15-.02-.74-.1zm-9.26-18.82c-.9 0-1.83-.62-1.83-1.76 0-.93.55-1.35 1.54-2.12 1.27-.97 1.9-2.33 2.38-3.53.04-.18.15-.36.2-.45.05-.08.15-.13.24-.12.1 0 .18.05.23.14.1.2.12.45.13.82a7.74 7.74 0 0 0 .02.46c.02.42.15.46.77.46h8.54c.65 0 .73-.05.73-.87 0-1.58-.08-1.85-.13-2.05-.01-.06-.06-.17-.1-.3-.17-.45-.23-.63-.23-.75 0-.4.3-.64.75-.64.04 0 3.8.3 3.8 1.33 0 .22-.2.44-.62.87l-.2.2c-.08.15-.2.63-.2 1.24 0 .98.15.98.77.98h7.1c.9 0 1.34-.03 1.9-.76.57-.74.75-.86 1.05-.86.4 0 .6.14 2.45 1.65.52.45.86.74.86 1.4 0 1.26-1 1.36-2.16 1.47-.85.1-1.87.54-2.93 1.28l-.12.1c-.5.37-.72.5-.9.5a.54.54 0 0 1-.5-.5c0-.2.13-.4.3-.66a5.21 5.21 0 0 0 .2-.3c.64-1 .65-1.53.65-1.55 0-.15-.05-.23-.55-.23H124.7c-.36 0-.52 0-.67.6-.24 1-.94 3.95-2.94 3.95zm2.35-6.58c-.48 1.12-1.15 2.27-2.3 3.14-1.02.8-1.33 1.07-1.33 1.7 0 .8.64 1.2 1.27 1.2 1.55 0 2.18-2.62 2.38-3.5.22-.92.6-1.1 1.22-1.1h20.55c.3 0 1.1 0 1.1.78 0 .12-.04.74-.73 1.84-.07.12-.15.23-.22.33l-.12.18c.15-.1.33-.23.43-.3l.13-.1c1.14-.8 2.25-1.28 3.2-1.38 1.24-.12 1.66-.2 1.66-.9 0-.4-.15-.54-.66-.98-1.58-1.3-1.9-1.52-2.1-1.52-.06.01-.18.1-.6.65-.7.9-1.36.98-2.35.98h-7.1c-1.03 0-1.33-.35-1.33-1.54 0-.64.1-1.23.3-1.54a2.91 2.91 0 0 1 .26-.29c.1-.1.35-.35.44-.48-.34-.34-2.56-.72-3.25-.76-.18 0-.18.06-.18.08.01.07.13.38.2.55.06.16.1.3.12.35.08.3.15.66.15 2.2 0 .97-.2 1.43-1.3 1.43h-8.54c-.5 0-1.28 0-1.33-1 .03-.01.03-.03.02-.04zm59.27.25c1.6 0 1.66-.1 1.84-.32.25-.3 1.2-2.02 1.55-2.02.5 0 3.03 2.27 3.03 2.8 0 .5-.18.5-1.95.5h-22.64c-1.15 0-1.15.07-1.2 2.63-.18 10.7-.6 17.2-3.14 21.56-.6 1.05-1.26 1.84-1.62 1.84-.04 0-.14 0-.14-.04 0-.1.25-.5.3-.58 1.05-2.3 2.2-6.3 2.2-18.6 0-2.38-.07-5.6-.5-8.2 0-.14-.25-.76-.25-.9 0-.1.14-.14.25-.14.58 0 2.16.8 2.7 1.08.7.36 1.08.36 1.55.36h7.86c.4 0 .9 0 .9-.8 0-.5-.04-2.1-.1-2.42-.04-.14-.3-.8-.3-.94s.07-.18.25-.18c.43 0 2.96.58 3.1.6.3.1.5.25.5.5 0 .14-.58.72-.7.87-.14.22-.14.32-.14 1.26 0 .76.07 1.08 1.05 1.08h5.6zm-12.98 12.54c.36 0 .76 0 1.15-.32.18-.14.9-1 1.12-1 .18 0 2.06 1.73 2.06 2.24 0 .18-.07.25-.14.3-.58.36-.65.4-.87.97-1.05 2.8-1.15 3.14-2.6 5.55-.3.47-.43.72-.43 1.05s.32.7.8 1.05c1.95 1.4 3.35 2.24 9.52 2.24 3.24 0 6.8-.3 10.2-.97l1.15-.25c.04 0 .07 0 .07.07 0 .1-.04.14-.65.58-1.44.94-1.88 1.55-2.7 3.2-.14.25-3.32.25-3.82.25-8 0-11.36-1.2-13.45-2.63-.36-.25-2.02-1.77-2.45-1.77-.36 0-.6.25-.94.58-3.06 3.2-7.32 4.87-7.8 4.87-.04 0-.18 0-.18-.1 0-.07.36-.3.47-.36 3.28-1.9 7-6.02 7-6.96 0-.36-.1-.54-.54-1.3-.87-1.5-1.73-4-1.73-4.18 0-.14.07-.25.18-.25.4 0 2.42 3.97 3.06 3.97.9 0 2.2-4.72 2.2-5.12 0-.7-.58-.7-.9-.7h-.87c-.7 0-.8.04-1.23.5-.36.36-.8.7-1.7.7-.36 0-.97-.1-.97-.6 0-.3 2.92-7.5 2.92-8.37 0-.5-.36-.58-.83-.58-.3 0-1.9.14-2.13.14-.14 0-.22-.07-.32-.22l-.72-.83c-.14-.18-.14-.18-.14-.25s.07-.07.14-.07c.5 0 3.03.18 3.6.18.6 0 .9-.07 1.26-.65.36-.54.5-.72.76-.72.1 0 2.6 1.23 2.6 1.66 0 .22-1.05.9-1.2 1.08-.9 1.15-2.42 6.24-2.42 6.45 0 .6.47.6.76.6h.7zm15.04 6.86c.72 0 .97 0 1.23-.1.25-.18 1.26-1.33 1.55-1.33.18 0 2.13 1.55 2.13 1.95 0 .43-.22.43-2.16.43h-7.8c-.83 0-2.45.04-3.32.1-.14 0-.83.07-.97.07-.1 0-.18-.07-.3-.22l-.72-.83c-.14-.18-.14-.18-.14-.25 0-.04.04-.07.1-.07.83 0 4.36.25 5.08.25 1.05 0 1.05-.76 1.05-1.3v-4.22c0-.83-.47-.97-1-.97-.87 0-2.85.04-3.64.07-.1.04-.65.1-.76.1s-.18-.1-.32-.25l-.7-.83c-.14-.14-.14-.18-.14-.22 0-.07.04-.1.1-.1.22 0 1.12.1 1.3.1.65.04 3.5.14 4.15.14.94 0 1-.58 1-1.33v-3.1c0-.36 0-.87-.65-.87-.72 0-5.3.65-6.3.65-.1 0-.36 0-.36-.18 0-.1.07-.14.9-.36 6.45-1.73 10.1-2.63 11.32-3.53.07-.07.3-.43.4-.43s2.8 2.06 3.17 2.3c.1.1.14.22.14.32 0 .32-.3.32-.43.32-.1 0-.65-.07-.76-.07-.36 0-3.32.5-3.97.58-.76.1-1.08.14-1.08 1v3.6c0 1.08.5 1.08 1.15 1.08h1.62c.8 0 .9 0 1.05-.04.32-.07 1.44-1.33 1.77-1.33.36 0 2.2 1.6 2.2 1.9 0 .43-.25.43-2.2.43H184c-1.15 0-1.15.76-1.15 1.37l.04 4.25c.04.65.25.87 1.12.87h.7z"/><path d="M159.95 300.2c-.32 0-.46-.2-.46-.4s.15-.3.53-.56l.06-.04c3.38-1.97 6.87-6.02 6.87-6.73 0-.27-.07-.4-.48-1.12-.85-1.5-1.8-4.07-1.8-4.37s.2-.53.46-.53c.3 0 .54.33 1.44 1.75.5.8 1.35 2.12 1.64 2.22.56-.08 1.87-4.25 1.9-4.84 0-.34-.16-.4-.62-.4h-.87c-.62 0-.65.01-1.02.42-.4.4-.9.78-1.9.78-.76 0-1.25-.35-1.25-.9 0-.14.12-.47.9-2.55l2.02-5.82c0-.18 0-.3-.55-.3-.15 0-.68.04-1.17.08l-.96.07c-.3 0-.45-.2-.55-.33l-.56-.64c-.2 10.68-.77 16.57-3.16 20.7-.53.9-1.28 1.98-1.87 1.98-.38 0-.42-.22-.42-.32 0-.14.08-.3.27-.62l.05-.08c1.07-2.36 2.17-6.4 2.17-18.48 0-3.45-.16-6.12-.5-8.14a2.23 2.23 0 0 0-.12-.41c-.1-.27-.14-.43-.14-.54 0-.25.22-.42.53-.42.7 0 2.5.93 2.84 1.1a2.5 2.5 0 0 0 1.42.33h7.86c.44 0 .62-.02.62-.5 0-.56-.04-2.08-.1-2.36-.01-.04-.04-.14-.08-.25-.15-.42-.2-.62-.2-.74 0-.17.07-.46.53-.46.5 0 3.14.6 3.17.62.2.07.72.27.72.78 0 .18-.13.36-.57.84-.08.1-.14.16-.17.2-.08.13-.1.18-.1 1.1 0 .66 0 .8.77.8h5.6c1.44 0 1.5-.1 1.62-.22.07-.08.22-.32.37-.55.73-1.16 1.06-1.57 1.4-1.57.63 0 3.3 2.35 3.3 3.1 0 .78-.43.78-2.23.78h-22.64c-.88 0-.88 0-.9 2.35v.05c.23-.02.96.04 1.76.08l1.9.1c.56 0 .73-.05 1.03-.52.34-.52.57-.85 1-.85.17 0 2.88 1.24 2.88 1.94 0 .25-.25.47-.88.96a4.47 4.47 0 0 0-.37.3c-.83 1.06-2.3 5.96-2.36 6.3 0 .27.1.3.48.3h.7c.34 0 .66 0 .98-.26.05-.04.15-.15.27-.27.57-.6.8-.8 1.03-.8.4 0 2.33 1.93 2.33 2.5 0 .32-.16.47-.3.54-.54.34-.55.34-.73.82l-.07.2c-.98 2.62-1.13 3.03-2.55 5.4-.3.46-.4.66-.4.9 0 .1.1.37.7.82 1.92 1.4 3.3 2.18 9.35 2.18 3.5 0 7.02-.33 10.15-.97.06-.01.22-.05.4-.1.65-.15.76-.17.82-.17.24 0 .35.18.35.35 0 .26-.12.35-.77.8-1.38.9-1.8 1.47-2.62 3.1-.1.2-.23.4-4.07.4-8.56 0-11.68-1.36-13.6-2.68-.1-.07-.3-.23-.54-.43-.45-.37-1.5-1.25-1.76-1.3-.23 0-.4.17-.73.5-3.15 3.3-7.45 4.96-8 4.96zm5.4-12.82c.26.8.9 2.5 1.58 3.67.45.8.58 1 .58 1.44 0 1.07-3.4 4.73-6.38 6.73 1.54-.66 4.24-2.1 6.4-4.36.35-.35.67-.66 1.14-.66.36 0 .97.46 2.1 1.4.22.2.4.34.5.4 1.74 1.2 4.83 2.58 13.3 2.58 2.4 0 3.37-.1 3.6-.17.82-1.63 1.3-2.28 2.7-3.2l-.3.07c-3.17.64-6.7.98-10.26.98-6.2 0-7.66-.83-9.68-2.3-.62-.48-.9-.88-.9-1.27 0-.4.17-.7.47-1.2 1.4-2.34 1.52-2.68 2.5-5.32l.07-.2c.24-.63.36-.72.95-1.1l.05-.07c-.04-.33-1.38-1.67-1.8-1.94l-.6.6c-.14.15-.26.27-.32.32-.47.38-.95.38-1.33.38h-.7c-.26 0-1.04 0-1.04-.9 0-.34 1.56-5.45 2.47-6.63.07-.1.2-.2.47-.4.2-.15.53-.4.64-.54-.25-.3-2.07-1.27-2.36-1.36-.04.01-.14.12-.46.6-.4.66-.8.77-1.5.77-.3 0-1.13-.05-1.92-.1l-1.34-.08.6.68c.07.1.1.12.1.12.1 0 .5-.03.92-.06l1.2-.08c.3 0 1.1 0 1.1.86 0 .56-.9 2.95-2.05 6.02l-.87 2.38c0 .3.62.3.7.3.82 0 1.2-.3 1.5-.6.5-.54.7-.6 1.42-.6h.87c.3 0 1.18 0 1.18.96 0 .24-1.25 5.4-2.48 5.4-.47 0-1-.75-2.1-2.47l-.76-1.15zm-4.88-17.14c.02.07.05.16.07.22.1.27.14.43.14.54.34 2 .5 4.7.5 8.2 0 11.85-1.06 16.07-2.14 18.52.24-.27.54-.68.9-1.28 2.4-4.14 2.9-10.2 3.1-21.42.04-2.58.04-2.9 1.47-2.9h22.64c.9 0 1.55 0 1.66-.1 0 0 .01.08.01-.14-.08-.44-2.27-2.46-2.76-2.53-.14.08-.68.94-.92 1.3-.2.32-.33.5-.4.6-.28.33-.52.42-2.05.42h-5.6c-1.23 0-1.33-.56-1.33-1.36 0-.98 0-1.13.2-1.42.04-.06.12-.15.2-.25.12-.13.38-.42.43-.52h0c-.01 0-.05-.08-.33-.2-.25-.06-2.44-.55-2.95-.6.04.13.1.34.15.46.05.14.1.26.1.3.1.4.12 2.1.12 2.48 0 1.07-.8 1.07-1.18 1.07h-7.86c-.48 0-.93 0-1.68-.4-.88-.48-2.03-1-2.48-1.04zm14.94 21.95c-.27 0-.42-.2-.5-.33l-.7-.8c-.17-.2-.2-.26-.2-.44 0-.2.17-.35.4-.35.44 0 1.6.07 2.7.13l2.37.12c.73 0 .77-.4.77-1.02v-4.22c0-.6-.25-.7-.73-.7a139.55 139.55 0 0 0-3.6.07c-.2.05-.7.1-.8.1-.2 0-.33-.13-.44-.25l-.08-.08-.7-.85c-.13-.13-.2-.24-.2-.4a.37.37 0 0 1 .39-.39c.12 0 .43.03.73.06l.57.05a146.24 146.24 0 0 0 4.15.14c.63 0 .73-.24.73-1.06v-3.1c0-.46-.05-.6-.37-.6-.3 0-1.46.14-2.67.28-1.5.18-3.07.37-3.64.37-.58 0-.64-.32-.64-.46 0-.34.24-.4 1.1-.63l2-.54c5.1-1.36 8.17-2.18 9.22-2.95-.01.01.01-.02.04-.07.16-.22.3-.42.52-.42.14 0 .17 0 2.46 1.7l.88.65c.2.18.26.36.26.55 0 .23-.1.6-.7.6-.06 0-.23-.02-.4-.04-.15-.02-.3-.03-.35-.04-.2 0-1.38.2-2.25.32l-1.7.25c-.76.1-.83.12-.83.73v3.6c0 .8.22.8.88.8h1.62c.77 0 .87 0 .98-.03.1-.04.46-.35.7-.56.6-.54.9-.78 1.15-.78.47 0 2.48 1.67 2.48 2.2 0 .7-.43.7-2.48.7h-4.43c-.83 0-.88.4-.88 1.1l.04 4.24c.03.46.07.6.84.6h.72c.7 0 .92 0 1.12-.08.01-.02.2-.2.36-.37.73-.73 1.04-1 1.3-1 .33 0 2.4 1.68 2.4 2.23 0 .7-.37.7-2.44.7h-7.8c-.84 0-2.45.04-3.3.1-.1 0-.3.02-.5.04a6.92 6.92 0 0 1-.54.05zm-.67-1.36l.6.68c.08.1.1.12.1.13.04-.01.23-.03.43-.04l.5-.04c.87-.07 2.5-.1 3.32-.1h7.8c1.05 0 1.75 0 1.88-.08v-.07c-.1-.27-1.5-1.44-1.87-1.66-.16.1-.64.58-.88.8-.24.24-.4.4-.5.46-.36.16-.64.16-1.4.16H184c-1 0-1.35-.3-1.4-1.13-.02-.34-.04-1.78-.04-4.27 0-.58 0-1.65 1.43-1.65h4.43c1.03 0 1.78 0 1.92-.1v-.06c-.12-.27-1.6-1.56-1.94-1.63-.08.04-.5.4-.75.64-.45.4-.72.64-.93.7-.17.04-.28.04-1.1.04H184c-.64 0-1.43 0-1.43-1.36v-3.6c0-1.1.54-1.17 1.3-1.28.3-.03.98-.14 1.7-.25 1.27-.2 2.12-.33 2.33-.33.06 0 .23.02.4.04.15.02.3.03.35.04.04 0 .13 0 .16-.02 0-.06-.01-.1-.07-.16-.08-.05-.42-.3-.85-.63l-2.1-1.54c-.04.05-.07.1-.1.13-.05.07-.1.13-.13.16-1.17.86-4.1 1.65-9.44 3.07l-1.76.47c.74-.07 1.77-.2 2.7-.3 1.28-.15 2.4-.3 2.74-.3.93 0 .93.8.93 1.14v3.1c0 .6 0 1.6-1.3 1.6-.64 0-3.5-.1-4.16-.14-.08 0-.34-.02-.6-.05l-.3-.03.63.74a.47.47 0 0 0 .1.1c.03-.01.53-.08.62-.1.02-.01.05-.01.07-.01a108.48 108.48 0 0 1 3.65-.07c.32 0 1.3 0 1.3 1.25v4.22c0 .5 0 1.58-1.33 1.58-.36 0-1.35-.06-2.4-.12l-2.27-.1zm32.16-13.2c-.22-.32-.25-.4-.25-.5 0-.18.14-.22.32-.22 1.9 0 4.58 2.13 4.58 3.06 0 .32-.18.43-.65.76-.54.32-.76.7-1.48 1.7-4.36 6.24-10.42 8.5-10.92 8.5-.22 0-.3-.18-.3-.25 0-.14.1-.25 1-.97 5.55-4.62 8.08-9.6 8.08-10.9 0-.5-.08-.68-.4-1.2zm11.07-.25c.18 0 1.8.65 3.6 1.88 2.56 1.77 5.8 5.16 5.8 7.57 0 .54-.22 2.1-1.8 2.1-1.3 0-1.9-1.3-2.5-3.17-.76-2.42-1.33-3.86-3.75-6.42-.25-.25-1.62-1.5-1.62-1.62-.04-.15.03-.33.25-.33z"/><path d="M198.5 291.23c-.37 0-.57-.3-.57-.53 0-.3.16-.43 1.1-1.2 5.6-4.65 7.97-9.52 7.97-10.67 0-.43-.04-.56-.35-1.04-.2-.32-.3-.46-.3-.66 0-.15.06-.5.6-.5 2 0 4.86 2.16 4.86 3.34 0 .46-.27.64-.7.94l-.06.04c-.44.27-.64.55-1.18 1.3l-.23.32c-4.28 6.16-10.4 8.65-11.14 8.65zm8.45-14.03c.03.05.1.14.18.3.35.54.44.77.44 1.34 0 1.55-2.73 6.58-8.18 11.1-.37.3-.86.7-.92.8.44-.08 6.42-2.32 10.7-8.45l.23-.33c.55-.78.8-1.13 1.33-1.45l.05-.03c.44-.3.46-.34.46-.48 0-.73-2.5-2.8-4.3-2.8zm18.63 12c-1.6 0-2.23-1.67-2.76-3.37-.72-2.3-1.25-3.72-3.68-6.3-.06-.06-.2-.18-.35-.34-1.35-1.28-1.35-1.32-1.35-1.48-.03-.1 0-.28.1-.4a.55.55 0 0 1 .43-.2c.3 0 2 .73 3.76 1.92 2.3 1.58 5.93 5.1 5.93 7.8 0 .9-.44 2.4-2.08 2.4zm-7.53-11.5c.23.25.8.8 1.12 1.1l.37.35c2.4 2.54 3.03 4 3.82 6.53.57 1.84 1.13 2.98 2.22 2.98 1.45 0 1.52-1.5 1.52-1.8 0-2.36-3.32-5.7-5.68-7.34-1.6-1.08-2.96-1.67-3.37-1.8zm28.65 11.1c1.12 0 3.53-.22 8.3-1.05 5.3-.9 5.3-1.08 5.3-1.5s-.32-1.12-1.05-2.13l-.83-1.37c0-.1.1-.22.25-.22 1.04 0 6.5 4.44 6.5 7.97 0 2.42-1.73 2.52-1.98 2.52-1.23 0-1.37-.9-1.84-3.28-.32-1.73-.47-2.06-1-2.06-.18 0-8.33 2.5-9.88 2.92l-6.02 1.48c-.25.1-1.12 1.15-1.37 1.15-.33 0-.33-.04-1.9-1.6-.43-.43-.94-2.52-.94-2.88 0-.1 0-.25.14-.25.18 0 .9.3 1.05.32.3.07.87.18 1.3.18 1.5 0 2.24-.47 4.18-4 1.6-2.92 4.83-9.48 4.83-12.22 0-.18-.07-1.05-.07-1.2 0-.18.04-.4.25-.4.25 0 3.57 2.42 3.57 3.68 0 .6-.4.97-1.12 1.66-.58.54-4.72 7.03-5.62 8.33l-2.5 3.35c-.03.37.15.6.48.6z"/><path d="M243.05 293.5c-.4 0-.45-.05-1.67-1.24l-.44-.43c-.53-.53-1.02-2.72-1.02-3.08 0-.48.3-.53.42-.53.15 0 .38.07.85.24l.26.1c.28.07.83.17 1.23.17 1.34 0 2-.32 3.94-3.86 1.78-3.28 4.8-9.52 4.8-12.1 0-.1-.02-.37-.04-.63-.02-.25-.03-.5-.03-.56 0-.63.4-.68.53-.68.5 0 3.85 2.57 3.85 3.96 0 .72-.43 1.13-1.15 1.8l-.05.05c-.37.34-2.5 3.6-3.92 5.77l-1.67 2.52c-.12.17-.4.53-.72.95l-1.72 2.32c0 .08.01.14.04.17.03.04.1.05.15.05.85 0 3.04-.14 8.25-1.04 4.7-.8 5.07-1.02 5.07-1.24 0-.26-.17-.82-1-1.96l-.32-.5c-.5-.76-.56-.9-.56-1.03 0-.27.24-.5.53-.5 1.2 0 6.77 4.53 6.77 8.25 0 2.2-1.42 2.8-2.26 2.8-1.42 0-1.63-1.04-2.08-3.32l-.04-.18c-.33-1.76-.46-1.83-.74-1.83-.18.04-2.96.87-5.2 1.54l-4.6 1.37-2.13.5-3.86.95c-.08.04-.32.28-.5.45-.5.52-.75.73-.98.73zm-2.57-4.7c.04.48.52 2.3.85 2.63l.44.43c1.1 1.08 1.1 1.08 1.28 1.08.07-.04.4-.37.6-.57.32-.32.5-.5.66-.56.2-.1 1.7-.45 3.95-.98l2.1-.5 4.6-1.37 5.36-1.56c.82 0 .98.66 1.28 2.28l.04.18c.46 2.32.6 2.87 1.53 2.87.28 0 1.7-.1 1.7-2.25 0-3.3-5.03-7.43-6.12-7.68a20.98 20.98 0 0 0 .41.65c.1.18.23.35.32.5.74 1.03 1.1 1.76 1.1 2.27 0 .7-.2.88-5.53 1.8-4.98.87-7.3 1.05-8.34 1.05-.23 0-.43-.08-.56-.23-.1-.1-.22-.32-.18-.65.04-.15.1-.3 1.83-2.55l.7-.94c.3-.4.92-1.37 1.65-2.5 2.03-3.1 3.62-5.5 4-5.87l.05-.05c.7-.66.98-.95.98-1.4 0-.97-2.65-3.02-3.26-3.36v.08c0 .07.02.3.03.52l.04.67c0 3.3-4.37 11.44-4.87 12.36-2 3.6-2.77 4.15-4.43 4.15a6.25 6.25 0 0 1-1.37-.19 2.43 2.43 0 0 1-.32-.11c-.13-.04-.36-.12-.52-.17z"/><defs ><path id="B" d="M206.5 100.4c-1.6-1.45-3.25-2.66-4.66-3.4-1.54-.8-2.62-.94-3.1-.4-1.07 1.18 1.45 4.6 4.5 7.38 1.6 1.45 3.25 2.66 4.66 3.4.93.48 1.68.72 2.25.72.37 0 .66-.1.86-.32.5-.54.25-1.6-.7-3.06-.86-1.33-2.2-2.87-3.8-4.32zm4.06 6.96c-.2.22-.94.2-2.37-.53-1.36-.7-2.97-1.88-4.53-3.3-3.52-3.2-4.97-5.96-4.46-6.5.07-.08.2-.13.4-.13.4 0 1.03.17 1.96.66 1.36.7 2.97 1.88 4.53 3.3s2.88 2.9 3.7 4.2c.87 1.36.94 2.1.75 2.3z"/><path id="C" d="M221.97 97c-1.4.73-3.06 1.94-4.66 3.4-3.05 2.78-5.58 6.2-4.5 7.38.2.2.48.32.86.32.56 0 1.32-.24 2.25-.72 1.4-.73 3.06-1.94 4.66-3.4s2.95-3 3.8-4.32c.94-1.46 1.18-2.52.7-3.06s-1.57-.4-3.1.4zm1.9 2.32c-.83 1.3-2.15 2.78-3.7 4.2s-3.17 2.6-4.53 3.3c-1.43.74-2.17.75-2.37.53-.5-.56.94-3.3 4.46-6.5 1.56-1.42 3.17-2.6 4.53-3.3.94-.5 1.58-.66 1.96-.66.2 0 .34.05.4.13.2.2.13.95-.75 2.3z"/><path id="D" d="M206.5 111.07c-1.6-1.45-3.25-2.66-4.66-3.4-1.54-.8-2.62-.94-3.1-.4-1.07 1.18 1.46 4.6 4.5 7.38 1.6 1.45 3.25 2.66 4.66 3.4.93.48 1.7.72 2.25.72.37 0 .66-.1.86-.32.5-.54.25-1.6-.7-3.06-.86-1.33-2.2-2.87-3.8-4.32zm4.06 6.96c-.2.22-.94.2-2.37-.53-1.36-.7-2.97-1.88-4.53-3.3-3.52-3.2-4.97-5.96-4.46-6.52.07-.08.2-.13.4-.13.4 0 1.03.17 1.96.66 1.36.7 2.97 1.88 4.53 3.3s2.88 2.9 3.7 4.2c.87 1.37.94 2.1.75 2.32z"/><path id="E" d="M221.97 107.68c-1.4.73-3.06 1.94-4.66 3.4-3.05 2.78-5.58 6.2-4.5 7.38.2.2.48.32.86.32.56 0 1.32-.24 2.25-.72 1.4-.73 3.06-1.94 4.66-3.4s2.95-3 3.8-4.32c.94-1.46 1.18-2.52.7-3.06s-1.57-.4-3.1.4zm1.9 2.32c-.83 1.3-2.15 2.78-3.7 4.2s-3.17 2.6-4.53 3.3c-1.43.74-2.17.75-2.37.53-.5-.56.94-3.3 4.46-6.52 1.56-1.42 3.17-2.6 4.53-3.3 1.43-.74 2.17-.75 2.37-.53s.13.96-.75 2.32z"/><path id="F" d="M50.1 100.4c-3.05-2.78-6.7-4.97-7.77-3.8s1.45 4.6 4.5 7.38c2.47 2.25 5.34 4.12 6.9 4.12.37 0 .66-.1.86-.32 1.1-1.2-1.44-4.62-4.5-7.4zm4.06 6.96c-.5.56-3.38-.63-6.9-3.83-3.52-3.2-4.97-5.96-4.46-6.5.08-.1.22-.13.4-.13 1.02 0 3.53 1.27 6.5 3.97 3.53 3.2 4.98 5.94 4.47 6.5z"/><path id="G" d="M70.14 181.57c.1-.14.07-.33-.07-.43s-.33-.07-.43.07c-1.18 1.63-3.25 2.3-5.16 1.67-.16-.05-.33.03-.4.2-.05.16.03.33.2.4a5.23 5.23 0 0 0 1.65.27c1.64 0 3.2-.78 4.2-2.16z"/><path id="H" d="M73.45 183.95c.1-.14.07-.33-.07-.43s-.33-.07-.43.07c-1.18 1.63-3.25 2.3-5.16 1.67-.16-.05-.33.03-.4.2-.05.16.03.33.2.4a5.23 5.23 0 0 0 1.65.27c1.64 0 3.2-.77 4.2-2.16z"/><path id="I" d="M197.9 185.27c-1.9.64-3.98-.04-5.16-1.67-.1-.14-.3-.17-.43-.07s-.17.3-.07.43c1 1.4 2.57 2.16 4.2 2.16.55 0 1.1-.1 1.65-.27.16-.05.25-.23.2-.4a.29.29 0 0 0-.38-.19z"/><path id="J" d="M194.57 187.65c-1.9.63-3.98-.04-5.16-1.67-.1-.14-.3-.17-.43-.07s-.17.3-.07.43c1 1.4 2.57 2.16 4.2 2.16.55 0 1.1-.1 1.65-.27.16-.05.25-.23.2-.4-.05-.15-.22-.24-.38-.2z"/><path id="K" d="M191.26 190.04c-1.9.64-3.98-.04-5.16-1.67-.1-.14-.3-.17-.43-.07s-.17.3-.07.43c1 1.4 2.57 2.16 4.2 2.16.55 0 1.1-.1 1.65-.27.16-.05.25-.23.2-.4-.05-.16-.22-.24-.38-.2z"/><path id="L" d="M157 199.38h.48l1.05-2.04h2.28l.17 2.04h.5l-.76-6.98-3.7 6.98zm1.7-2.4l1.76-3.37.33 3.37h-2.1z"/></defs></svg>