<svg xmlns="http://www.w3.org/2000/svg" viewBox="0 0 180.99 389.37"
width="180.99" height="389.37" xmlns:v="https://vecta.io/nano"><path d="M160.32 14.75c0 1.18-2.73 2.26-3.6 2.62-.5.18-.54.32-.6 1.58-.07.8-.07 3.7-.07 3.88 0 .2 0 .65.32.65.1 0 3.05-1.22 3.62-1.44 3.55-1.33 5.17-1.44 6.1-1.44 2.62 0 5.53 2.05 5.53 5.42 0 4.74-5 6.9-7.93 6.9-2.05 0-3.7-1.04-3.7-2.9 0-1.7 1.47-2.84 1.8-2.84.1 0 .18.1.18.18 0 .1-.07.18-.14.3-.1.14-.32.43-.32.97 0 1.72 1.97 1.72 2.33 1.72 2.37 0 5.38-1.58 5.38-4.45 0-2.55-1.9-3.95-3.45-3.95-1 0-3.23.47-7.43 2.7-2 1.08-2.23 1.18-2.23 1.8 0 .4.1 2 .1 2.37 0 1.65-.54 4.02-1.83 4.02-.97 0-1.36-.75-1.65-1.33-1.15-2.23-1.33-2.23-1.8-2.23-.32 0-.68.14-.9.22-.22.1-1.1.72-1.36.72-.4 0-2.22-1.08-2.22-2.26 0-.65.4-1.4 1.04-1.4.22 0 1.26.18 1.47.18.97 0 1.62-.18 3.73-1.22 1.83-.9 2.05-1 2.05-2a200.83 200.83 0 0 0-.07-4.49c0-.25-.1-.8-.5-.8-.43 0-1.44.25-1.65.32-1.83.6-2 .68-2.55.68-1.22 0-2.58-2.48-2.58-2.73 0-.18.14-.25.3-.25.1 0 .54.14.65.14.65.1 1.18.18 1.65.18 1.3 0 4.34-.86 4.56-1.08.18-.25.36-3.52.36-3.9 0-1.1-.18-1.83-1.18-2.87-.07-.07-.5-.5-.5-.57 0-.32.57-.4.8-.4 2.4 0 3.7 1.76 3.7 2.44 0 .32-.68 1.62-.75 1.87-.04.25-.36 1.7-.36 2.33 0 .14.07.4.3.4.25 0 1.26-.4 1.26-.9 0-.07-.18-.43-.18-.5 0-.04.07-.1.14-.14.48-.05 2.2.45 2.2 1.56zm-8.18 13.75c0 .54.97 1.7 1.5 1.7.5 0 1-1 1-2.76 0-.14 0-.5-.1-.57-.1-.01-2.4 1.14-2.4 1.64zm23.58-11.16c0 .75-.43 1.72-1.18 1.72-.2 0-1.04-.07-1.22-.07-.18.04-.93.25-1.08.25-.07 0-.18-.04-.18-.18 0-.07.1-.25.1-.3.07-.22.14-.4.14-.65 0-1.44-1.8-1.94-3-1.94-.57 0-.9.14-1.4.36-.14.07-.25.1-.36.1s-.14-.04-.14-.14c0-.25 1.5-2.26 3.88-2.26 2.75 0 4.44 1.44 4.44 3.1zM156.38 76.4c-.65 0-.83.07-1.1.83-.3.72-.65 1.18-1.5 1.18-1 0-1.1-.5-1.1-1.33l.18-6.17c0-2.9-.18-2.9-.65-2.9-.2 0-1.22.36-1.4.4-1 .25-3.9.97-6.42.97-.18 0-.25-.07-.25-.18 0-.3 2.26-.72 2.7-.86 1.94-.65 6.64-2.15 10.4-4.92.65-.47 2.37-1.72 2.37-2.2 0-.18-.6-1.04-.93-1.47-.65-.86-1.18-1.72-1.72-2.62-.14-.25-.32-.57-.65-.57-.22 0-.32.07-1.22.86-1.7 1.44-4.06 2.87-6.46 3.84-.04 0-1.54.6-1.58.6-.07 0-.14-.07-.14-.14 0-.04.18-.18 1.54-1.22 1.76-1.33 6.93-5.28 7.93-8.3.22-.6.22-.68.36-.68.07 0 2.84 1.44 2.84 1.94 0 .18-.1.22-.57.4-.22.07-.57.3-.57.54s.32.25.43.25h6.1c.43 0 .86 0 1.33-.54.4-.43 1-1.15 1.18-1.15.2 0 .32.1 1.4 1 1.1.93 1.26 1.04 1.26 1.3 0 .54-.5.6-1 .68-.68.1-.9.32-1.7 1.15l-3.37 3.52c-.57.57-.83.83-.83 1.04 0 .68 6.93 4.3 14.03 4.3.36 0 .43 0 .43.18 0 .1-.18.22-.43.32-.9.47-1.97 1.36-2.3 2.26-.1.32-.18.5-.36.5-.57 0-6.28-2.15-7.97-3-1.72-.9-2.44-1.33-3.95-2.5-.65-.5-.83-.65-1.15-.65-.22 0-.36.1-1.47.9-2.2 1.5-4.63 2.7-5.06 2.9-.75.36-1.04.47-1.04.8 0 .3 1.4 1.15 2.26 1.15H166c.25-.3.83-.93 1.08-.93.14 0 2.55 1.5 2.55 2.15 0 .36-.14.43-.86.8-.36.18-.36.43-.36.68 0 .83.22 5 .22 5.17 0 1.54-1.62 1.58-1.83 1.58-.93 0-1-.54-1.04-1.1-.07-.72-.47-.72-1.15-.72h-8.2zm14.2-26.2c.68 0 .93-.18 1.18-.6.36-.54.36-.57.54-.57.14 0 1.7.9 1.94 1.04 1.87 1.08 2.05 1.18 2.05 1.76 0 .2-.14.6-.72.65-1 .07-2.44.22-3.27.75-.25.14-1.33 1.33-1.36 1.33-.07 0-.07-.04-.07-.1 0-.04.5-2.12.5-2.5 0-.72-.25-.8-.83-.8H149.9c-.9 0-.93.4-1.08 1.54-.1.8-.68 3.2-2.48 3.2-.75 0-1.54-.43-1.54-1.4 0-.6.14-.83 1.36-2.7.4-.57 1.22-2.33 1.22-3.27 0-.07 0-.22.14-.22.18 0 .57.5.83.93.47.86.54.97 1.3.97h8.54c.97 0 .97-.68.97-1.18 0-.54 0-1.76-.1-2.22-.04-.1-.18-.54-.18-.65 0-.14.07-.32.32-.32.1 0 2.23.57 2.4.6 1.18.32 1.33.32 1.33.65 0 .32-.3.47-.57.6-.4.22-.54.32-.54 1.54 0 .6.25.97 1 .97h7.78zm-14.14 19.52c-.25 0-1.1 0-1.1.9l.04 4.13c.18.57.47.68 1.08.68h8.33c.72 0 .9-.2 1.04-.65.04-.1.07-2.84.07-4.27 0-.6-.68-.8-1.1-.8h-8.34zm1.6-14.14c-.18 0-.72 0-.72.4 0 .36 2.73 4.2 3.55 4.2.4 0 .54-.14 1.83-1.54.43-.5 2.08-2.26 2.08-2.62 0-.43-.36-.43-.75-.43h-6zm-5.24 41.56c-1.15 0-1.15.36-1.15 2.05 0 .54.2.65.97 1.08 2.87 1.6 3.3 2.87 3.3 3.98 0 1.04-.5 1.8-1.36 1.8-1.08 0-1.22-.83-1.5-2.73-.18-1.08-.9-2.12-1.22-2.12-.18 0-.18.36-.18.43l.04 15.54c0 1.44 0 3-1.54 3-.93 0-.93-.68-.93-.97l.14-3.2c.07-1.22.32-11.23.32-11.52 0-.1-.04-.3-.14-.3-.04 0-.2.04-.36.25-.97 1.5-3.84 6-4.8 6-.04 0-.18-.04-.18-.18 0-.04 1.3-1.94 1.5-2.3 2.44-4.13 3.52-9.55 3.52-10.08 0-.75-.68-.75-.97-.75-.4 0-2.4.18-2.7.18-.14 0-.2-.1-.32-.25l-.72-.83c-.1-.14-.14-.18-.14-.22 0-.07.04-.1.14-.1.65 0 3.52.22 4.13.22 1.18 0 1.18-1 1.18-1.5l-.04-4.06c-.07-.8-.4-2.33-.4-2.83 0-.18.14-.22.25-.22s1.54.22 2.7.65c.18.07.43.18.43.5 0 .25-.6 1.3-.65 1.5-.25.97-.36 4.23-.36 5.35 0 .57.22.65.72.65.32 0 .8-.04 1.1-.54.54-.83.6-.93.9-.93.43 0 2.22 1.72 2.22 1.94 0 .5-.75.5-1.94.5h-1.97zm7.78 15.58c.32-.18 2.04-1.1 2.12-1.1.1 0 .14.1.14.14 0 .43-4.42 4.1-4.84 5.1-.18.47-.36.86-.65.86-.5 0-2.22-2.98-2.22-3.05 0-.14.07-.18.2-.18.4 0 .86-.07 1.33-.18 1-.3 2.6-.86 3.9-1.58zm1.26-3.05c0 .8-.4 1.33-1.15 1.33-.8 0-1.08-.57-1.5-1.5-.25-.57-1.1-2.44-2.44-3.98-.07-.07-.1-.14-.1-.2s0-.18.14-.18c.47 0 2.8 1.26 3.84 2.15.4.32 1.23 1.18 1.23 2.4zm5.9-9.5c-1.1 0-1.1.4-1.1 2.58 0 1.04.68 1.04 1.15 1.04h2.55c1.5 0 1.7 0 2.05-.32.25-.22 1.08-1.6 1.36-1.6.1 0 3.05 1.94 3.05 2.37 0 .5-.72.5-1.94.5h-1.15c-.18 0-.5.04-.5.3 0 .3 1.76 1.5 1.76 1.94 0 .3-.1.32-.97.6-1.4.5-1.65.72-3.95 2.76-.3.25-.36.32-.36.54 0 .8 4.38 4.3 7.93 4.3.07 0 .25 0 .25.1 0 .07-1.87 1-2.2 1.22-.25.18-1.3 1.18-1.54 1.18-.3 0-3.95-1.72-6.9-8.58-.32-.72-.32-.8-.47-.8-.18 0-.18.18-.18.32 0 .18-.04.97-.04 1.1 0 1.1.32 5.9.32 6.85 0 1.44-.22 2.3-1.08 2.83-.75.47-1.54.65-1.83.65-.25 0-.32-.18-.4-.32-.68-1.44-2.62-2.23-2.9-2.33-.22-.07-.4-.14-.4-.3 0-.1.1-.1.18-.1.3 0 1.65.1 1.94.1 2.08 0 2.08-.25 2.08-2.26l-.04-9.12c0-.25-.04-1.04-.93-1.04-1.72 0-4.3.04-5.13.14-.04 0-.25.04-.3.04-.14 0-.22-.07-.32-.22l-.72-.83c-.1-.18-.14-.18-.14-.25s.04-.07.14-.07c.18 0 1.1.1 1.3.1 1.33.07 3.55.14 4.88.14.65 0 1.22 0 1.22-1 0-2.33 0-2.62-1-2.62-1.1 0-3.1.04-4.02.1-.14 0-.68.07-.8.07s-.18-.07-.3-.2l-.72-.83c-.14-.18-.14-.18-.14-.25s.04-.07.1-.07c.3 0 1.4.1 1.62.1 1.33.07 2.94.14 4.24.14 1 0 1-.65 1-1.26 0-1.94 0-2.4-1-2.4h-.9c-1 0-2.87.04-3.6.07a5.03 5.03 0 0 1-.75.11c-.14 0-.2-.1-.32-.25l-.68-.83c-.14-.14-.18-.18-.18-.22 0-.07.07-.1.14-.1.25 0 1.36.1 1.58.14.32 0 2.87.1 4.6.1h2.37c.83 0 1.18 0 3-4.06.5-1.15.86-2.58.9-2.66.04-.18.1-.32.25-.32s3.2 1.22 3.2 1.72c0 .25-.18.43-.9.86-.9.54-4.24 4.13-4.24 4.24 0 .14.25.2.47.2 2.15 0 2.4 0 2.8-.6.75-1.18.83-1.3 1.22-1.3.25 0 3.37 1.9 3.37 2.37 0 .5-.72.5-1.94.5h-5.85c-.97 0-1.26.07-1.26 2.7 0 .93.72.97 1.1.97h.93c1.44 0 1.58 0 1.87-.25.25-.25 1.18-1.76 1.5-1.76.14 0 3.2 1.97 3.2 2.44 0 .5-.68.5-1.9.5h-5.7zm-3.84-8.26c0 1.36-.86 2.05-1.5 2.05s-.83-.68-1-1.44c-.43-1.87-1.15-3.23-1.76-4.16-.18-.3-.2-.36-.2-.47s.07-.14.2-.14c.5 0 2.15.83 3.48 2.26.68.8.8 1.44.8 1.9zm3.76 12.8c-.4 0-1.1 0-1.1.9 0 .8 1.65 4.13 2.22 4.13.86 0 3.3-4.2 3.3-4.6 0-.43-.32-.43-.47-.43h-3.94zm-6.98 30.54c0 .1.07.25.07.4.14 1.15.36 2.3.36 3.88 0 2.4-.54 5.74-3.7 10.52-2.87 4.38-4.7 5.24-6.14 5.24-2.37 0-4.5-3.7-4.5-8.07 0-1.9.4-5.53 3.98-9.15 4.56-4.67 9.37-4.67 11.45-4.67 3.27 0 4.77.65 5.78 1.15 3.88 1.9 6.24 5.74 6.24 10.44 0 4.67-2.7 10.4-9.04 12.63-3.05 1.08-5.42 1.33-5.96 1.33-.14 0-.36-.04-.36-.25 0-.1.07-.14.97-.5 3.73-1.47 11.52-4.56 11.52-13.5 0-1.4-.14-9.94-9.94-9.94-.7-.01-.74.27-.74.5zm-11.66 11.02c0 2.33.93 5.53 3.12 5.53 1.04 0 1.9-.43 4.38-4.16 1.9-2.9 3.52-6.9 3.52-10.44 0-2.15-.14-2.33-.6-2.33-3.4-.02-10.4 4.6-10.4 11.4z"/><path d="M155.08 177.16c1.04 0 1.04-.6 1.04-1.18 0-1.87 0-2.23-1.04-2.23h-3.16l-4.52.1c-.14 0-.65.07-.75.07-.14 0-.2-.07-.32-.22l-.72-.83c-.1-.18-.14-.18-.14-.25s.04-.07.14-.07c.25 0 1.33.1 1.58.1l4.92.14h16.33c1.62 0 1.8 0 2.26-.6 1.08-1.36 1.18-1.5 1.5-1.5.54 0 3.55 2.15 3.55 2.55 0 .5-.72.5-1.9.5h-7.68c-.93 0-.93.65-.93 2.3 0 .43 0 1.1.9 1.1h2.73c.3 0 .54 0 .86-.22.18-.14.83-1 1.04-1 .22 0 2.5 1.44 2.5 2.08 0 .18-.65.86-.72 1.04-.14.4-.14 2.33-.14 2.87l-.04 2.8c-.07.14-.32 1.18-1.72 1.18-.65 0-.65-.07-.75-.83-.1-.6-.5-.6-.86-.6h-7.64c-.36 0-.4 0-.4.1s1.65.93 1.65 1.26c0 .25-.1.36-1.04.86-.5.3-2.83 3.37-2.83 3.7 0 .3.3.3.8.3h10c1.5 0 1.58-.07 1.8-.25.36-.3 1.5-2.05 1.9-2.05.14 0 3.62 2.2 3.62 2.76 0 .5-.72.5-1.9.5h-7.43c-.3 0-.32 0-.32.07 0 .1.04.1.36.3.9.47 1 .5 1 .75 0 .3-1.08 1-1.26 1.15l-2.58 2.8c-.07.07-.3.3-.3.43 0 .1.1.14 1.1.47 2.9.93 6.64 2.62 6.64 4.38 0 .93-.86 1.3-1.3 1.3-.07 0-.54-.04-.86-.25-4.13-2.87-6.32-4.34-7.25-4.34-.25 0-.4.07-.57.22-3.9 3-11.02 4.7-13.64 4.7-.25 0-.5-.07-.5-.2s.25-.22.43-.25c5.8-1.26 11.45-5.17 11.45-5.6 0-.36-4.42-1.58-4.8-1.58-.43 0-.5.1-1.08.86-1.08 1.44-1.5 1.8-2.33 1.8-.5 0-1.3-.3-1.3-.9 0-.5.07-.57 1.58-2.22.14-.18 2.62-3.4 2.62-3.66 0-.18-.07-.18-.83-.18h-3.12c-3.16 0-4.2.07-4.56.07a5.03 5.03 0 0 1-.75.11c-.1 0-.18-.1-.32-.25l-.68-.83c-.14-.14-.14-.18-.14-.22 0-.07.04-.1.1-.1.25 0 1.36.14 1.58.14 1.76.07 3.27.1 4.95.1h3.6c.43 0 1.04 0 1.54-.68 1.3-1.8 3-4.2 3-5.17 0-.36-.32-.36-.65-.36h-5.96c-.32 0-.83 0-.93.4-.2.9-.43 1.76-1.54 1.76s-1.1-.65-1.1-1.26c0-.65.07-3.45.07-4.02 0-1.65-.07-3.4-.18-4.4-.04-.3-.04-.5-.04-.57 0-.1 0-.36.14-.36.25 0 1.83.8 2.2.9.1.04.65.25 1.3.25h2.7zm-2.76.94c-.97 0-.97.75-.97 1.7 0 3.62 0 3.73 1.04 3.73h2.66c1.08 0 1.08-.54 1.08-1.97 0-3.4 0-3.45-1.08-3.45h-2.73zm6.53 13.56c-.83 0-1.15.14-1.54.65-.18.25-1.9 2.66-1.9 2.83 0 .22.07.22.8.32.68.1 4.8.9 4.88.9 1.04 0 3.88-4.13 3.88-4.4s-.22-.3-.4-.3h-5.72zm.4-13.56c-1.08 0-1.1.3-1.1 2.73s.04 2.7 1.08 2.7h3c.32 0 .8-.04.97-.47.1-.22.07-3.48.07-4.02 0-.93-.75-.93-.9-.93h-3.12zm0-4.35c-1.04 0-1.04.47-1.04 2.15 0 .65 0 1.26 1.08 1.26h3.05c.93 0 .93-.83.93-1.15 0-1.72 0-2.26-.93-2.26h-3.1zm6.9 4.35c-.93 0-.93.43-.93 2.94 0 1.94 0 2.48.93 2.48h2.9c.93 0 .93-.43.93-2.94 0-1.94 0-2.48-.93-2.48h-2.9zm-3.45 59.53c-1 0-1 .8-1 .93l.14 3.48c.2.43.75.43 1.08.43h7.2c1.7 0 1.87 0 2.44-.86.8-1.1.9-1.26 1.18-1.26.43 0 3 1.97 3 2.5s-.6.54-1.9.54h-23.72l-4.52.1c-.1 0-.65.07-.75.07-.14 0-.2-.07-.32-.22l-.68-.83c-.07-.1-.18-.18-.18-.25s.07-.07.14-.07c.22 0 1.33.1 1.58.1l4.92.14h6.7c.47 0 1 0 1.22-.54.07-.18.07-1.97.07-3 0-.97-.14-1.3-1.22-1.3h-3l-4.52.1c-.1 0-.65.07-.75.07s-.18-.07-.32-.22l-.68-.83c-.14-.18-.14-.18-.14-.25s.07-.07.1-.07c.2 0 1.33.1 1.58.1l4.92.14h2.8c.47 0 1.26 0 1.26-.97l-.14-3.34c-.25-.4-.68-.4-1.1-.4h-4.77l-4.52.1c-.1 0-.65.07-.75.07-.14 0-.2-.07-.32-.25l-.72-.8c-.14-.2-.14-.2-.14-.25 0-.07.07-.07.14-.07.22 0 1.33.1 1.58.1l4.92.14h15.32c1.1 0 1.26 0 1.62-.3.32-.22 1.72-1.47 2.05-1.47.22 0 2.58 1.33 2.58 2.12 0 .57-.18.57-1.94.57h-10.37c-1 0-1 .14-1 3.7 0 .72.36 1 1 1h4.5c1.72 0 1.9 0 2.44-.72.65-.86.75-.97 1.04-.97.47 0 2.48 1.76 2.48 2.15 0 .47-.72.47-1.9.47h-8.6zm-11.63-19c-1.08 0-1.18.18-1.18 3.55 0 3.05.3 3.45 2 3.45l4.77-.22 2.26-.2c.57 0 .72.2.72.57 0 .65-.54 1.33-1.08 1.5-.93.32-5.2.36-6.53.36-4.3 0-4.3-.54-4.34-5.02l-.04-3.55c-.1-.3-.3-.36-.57-.36-.14 0-.93.1-1 .1-.1 0-.18-.1-.3-.25l-.72-.83c-.14-.14-.14-.18-.14-.22 0-.07.04-.1.1-.1.25 0 1.36.1 1.6.14l5.13.1c1 0 1-.75 1-1.58 0-.47 0-1.7-.14-2.5-.04-.1-.22-.68-.22-.83 0-.18.18-.36.43-.36.22 0 .47.07 2.55.65.5.14.83.22.83.54 0 .2-.72.83-.83.97-.22.25-.22.43-.22 2.08 0 .8.32 1.04 1.08 1.04 1.76 0 1.97 0 2.37-.6.65-1 .68-1.08.93-1.08.36 0 2.4 1.72 2.4 2.12 0 .54-.65.54-1.9.54h-9zm14.68 4.13c-.86 0-1 .2-1.3.9-2.15 4.77-5.6 5.42-5.7 5.42s-.2-.04-.2-.14c0-.18.83-.72.93-.86.83-.86 3.77-4.2 3.77-9.62 0-1.1.04-1.62-.18-3.45-.07-.8-.18-1.22-.18-1.33 0-.18.04-.32.2-.32.14 0 2.12.83 2.37.93a1.79 1.79 0 0 0 1 .21h4.92c.22 0 .47 0 .68-.14s1.08-1.08 1.3-1.08c.3 0 2.5 1.44 2.5 1.94 0 .22-.97.72-1.08.9-.2.25-.25 1.3-.25 1.72 0 .25-.14 5.6-.83 8.3-.5 1.94-2.22 2.98-3.12 2.98-.6 0-.8-.2-1.65-1.26-.43-.5-.93-.86-1.26-1.04-.18-.1-.6-.32-.6-.5 0-.14.18-.18.3-.18s.43.07.6.1c.5.1 1.54.18 1.94.18.93 0 1.4-.25 1.65-1.47.07-.3.3-1.3.3-1.47 0-.72-.75-.72-1.04-.72h-5.05zm5.35-.97c.72 0 1.04 0 1.04-1.72 0-.83-.68-.83-.86-.83h-4.92c-.68 0-1.15 0-1.15 1.76 0 .8.65.8.93.8h4.96zm-4.38-6.3c-.6 0-1.22 0-1.22.75 0 1.87.04 2.08.93 2.08h4.88c1 0 1-.32 1-1.9 0-.93-.5-.93-1.15-.93h-4.44zm-17.85 47.43c1.5 0 2.05-.14 6.96-1.54 3.2-.9 11.4-3.23 13.78-3.23 1.3 0 2.9.5 2.9 1.72 0 .93-.93 1.33-1.47 1.33-.47 0-2.5-.4-2.9-.4-4.56 0-9.65 4.2-9.65 13.46 0 6.03 2.26 6.42 4.38 6.42.54 0 3.1-.2 3.4-.2 1.1 0 1.76.47 1.76 1.33 0 1.9-3.95 1.9-4.16 1.9-7.32 0-7.32-6-7.32-7.68 0-1.58.04-9.2 5.2-13.82.14-.1.9-.68.9-.75s-.14-.07-.22-.07c-2.08 0-9.5 3.16-10.7 3.84-.47.25-.83.47-1.22.47-1.8 0-3.52-2.4-3.05-2.9.14-.2 1.18.13 1.4.13zm22.94 7.94c0 .83-.68 1.47-1.26 1.47-.65 0-.97-.68-1.54-2.08-.4-1-.65-1.33-1.8-2.8-.1-.14-.36-.5-.36-.65 0-.18.4-.22.72-.14 3.04.82 4.23 3.05 4.23 4.2zm4.34-1.73c0 .93-.57 1.33-1.04 1.33-.86 0-1.26-1.04-1.6-1.9-.32-.8-1.4-2.08-2.37-2.87-.18-.14-.32-.3-.32-.47 0-.22.4-.22.5-.22.3 0 .68.1.9.18 2.1.7 3.94 2.23 3.94 3.95zm-25.35 33.45c1.58 0 1.76 0 1.97-.2.18-.18.83-1.15 1.08-1.15.43 0 1.9 1.33 1.9 1.83s-.22.5-1.94.5h-4.74l-3.23.07a5.03 5.03 0 0 1-.75.11c-.14 0-.2-.1-.32-.25l-.68-.83c-.14-.14-.18-.18-.18-.22 0-.07.07-.1.14-.1.18 0 .93.1 1.08.1l3.98.14h1.7zm-2.08 21.67c-1 0-1 .47-1 1.76 0 .86-.32 1.65-1.72 1.65-.25 0-.93-.04-.93-.72 0-.18.14-1.08.18-1.3.18-1.4.22-3.23.22-4.1l-.1-5.46c0-.14-.14-.83-.14-.97 0-.1.04-.43.3-.43.43 0 1 .3 1.87.75a2.79 2.79 0 0 0 1.5.36h1.5c.32 0 .54 0 .75-.18.18-.1.57-.43.75-.43s2.26.9 2.26 1.4c0 .22-.1.32-.36.5-.5.36-.5.75-.5 1.72l.07 5.53c0 1.04-.8 1.47-1.8 1.47-.57 0-.57-.2-.65-.83-.04-.57-.43-.75-1-.75h-1.2zm.68-17.62c1.8 0 2 0 2.37-.6.18-.3.47-.72.68-.72.36 0 1.65 1.26 1.65 1.8 0 .47-.18.47-1.9.47h-4.24c-.25 0-1.44.18-1.62.18-.1 0-.18-.07-.3-.2l-.72-.83c-.14-.18-.14-.18-.14-.25s.04-.07.14-.07c.25 0 2.2.25 2.62.25h1.45zm.22 4.3c1.6 0 1.8 0 1.94-.22.57-.83.68-.97.9-.97.43 0 1.65 1.22 1.65 1.65 0 .5-.2.5-1.94.5h-3.8c-.3 0-1.47.18-1.6.18-.1 0-.18-.1-.32-.25l-.68-.83c-.1-.14-.14-.18-.14-.2 0-.07.04-.1.1-.1.25 0 2.23.25 2.62.25h1.27zm-1.2-11.88c-.18 0-1.3.18-1.44.18s-.2-.07-.32-.2l-.68-.83c-.14-.18-.14-.18-.14-.25s.04-.07.1-.07c.4 0 2.15.25 2.5.25 1.76 0 1.97 0 2.2-.14.3-.14 1.04-1.54 1.33-1.54.36 0 1.87 1.87 1.87 2.22 0 .4-.18.4-1.9.4h-3.53zm.36 17.73c-1.15 0-1.15.25-1.15 2.55l.14 3.55c.22.43.75.43 1 .43h1.15c1.15 0 1.18-.32 1.18-3.1l-.14-3c-.18-.43-.75-.43-1-.43h-1.2zm5.92-17.98c-.14-.18-.14-.18-.14-.2 0-.1.07-.1.14-.1.1 0 2.94.25 3.48.25 1.18 0 1.3 0 1.62-.54.25-.43.43-.54.68-.54.1 0 2.22 1.1 2.22 1.83 0 .25-.14.47-.36.6l-.83.5c-.47.47-3.1 9.12-3.1 9.26 0 .47.22.47 1.15.47.25 0 .57 0 .8-.25.1-.1.5-.9.68-.9s2.2.9 2.2 1.44c0 .25-.14.43-.32.54-.43.3-.54.43-.57 1.04-.04 1-.22 4.27-.93 7.54-.07.36-.68 2.08-.68 2.48 0 1.26 3.12 2.76 8.94 2.76.75 0 2.76.04 6.07-.5.32-.04 1.72-.47 1.9-.47.1 0 .14.1.14.18 0 .04-.32.43-.4.5a6.05 6.05 0 0 0-.8 1.3c-.1.22-.43 1.33-.6 1.54-.1.18-2.08.18-2.5.18-.97 0-8.97-.04-12.2-2.15-.3-.18-1.47-1.26-1.83-1.26-.25 0-.5.2-.65.32-.75.72-1.18 1.1-2.2 1.7-2.15 1.3-4.7 1.83-4.8 1.83-.04 0-.14-.04-.14-.1 0-.04.93-.47 1.1-.57 3.27-1.94 5.42-4.06 5.42-4.92 0-.32-.14-.57-.36-.97-1.22-2.23-2.12-5.5-2.12-6.96 0-.07 0-.36.25-.36.18 0 .25.2.36.72.18.86 2.08 5.7 2.8 5.7.8 0 1.33-7.8 1.33-8.6 0-.75-.54-.75-.9-.75h-.86c-.43 0-.6 0-.86.3-.47.54-.72.83-1.4.83-.3 0-.83-.07-.83-.65 0-.18.47-1.54.54-1.72 1.3-3.62 3.12-9.47 3.12-9.8 0-.54-.36-.54-1.04-.54-.36 0-2.08.18-2.48.18-.14 0-.22-.1-.32-.25l-.7-.84zm7.65 21.78c-.14-.18-.14-.18-.14-.25s.07-.07.1-.07c.18 0 1.1.1 1.33.1.72 0 .72-.47.72-1.04l-.1-11.1c0-.18-.22-1.1-.22-1.3s.1-.32.3-.32 2.12.57 2.4.68c.25.07.54.14.54.54 0 .25-.22.4-.4.5-.36.18-.54.3-.57.83-.04 1.47 0 8.58 0 10.2 0 .93.14 1.15.97 1.15.9 0 1-.32 1-1.04.07-2.26 0-17.15 0-17.84 0-1.36-.25-1.36-1.54-1.36-.4 0-2.44-.07-2.87-.07-.07 0-.1-.04-.1-.07 0-.14.18-.14.25-.14 1.04 0 5.8-1.26 7.72-2.26.14-.07.75-.83.93-.83s.4.14 2.4 1.58c.72.5.8.54.8.83 0 .36-.07.4-.8.43-4.1.3-4.52.3-4.67.97-.04.18-.04 6.7-.04 7.3 0 .86.04 1.3 1.04 1.3 1.5 0 1.65 0 1.97-.57.5-.9.72-1 .97-1 .47 0 2.2 1.47 2.2 2.05 0 .5-.72.5-1.94.5h-3.2c-1 0-1.08.43-1.08 1.33l.04 8.4c.07.54.5.54.8.54 1.04 0 1.18-.04 1.47-.75.07-.14.54-1.22 1.1-1.22.54 0 2.9 1.72 2.9 2.4 0 .5-.68.5-1.9.5h-6.07c-.86 0-3.3 0-4.56.1-.1 0-.65.07-.75.07s-.18-.07-.32-.2l-.68-.87zm-4.05 24.7c1.1 0 1.1-.43 1.1-2.23 0-2.48-.14-3.55-.22-4.2l-.3-1.15c0-.18.14-.25.4-.25s3.88.36 3.88 1.26c0 .22-.75.9-.86 1.08-.25.54-.32 3.37-.32 4.13 0 .93.04 1.36 1.15 1.36h4.63c1.65 0 1.83 0 2.3-.6 1.08-1.47 1.18-1.62 1.5-1.62.4 0 3.27 2.4 3.27 2.73 0 .47-.83.47-1.9.47h-9.83c-.4 0-.9 0-1.08.6-.07.3-.07 5.9-.07 6.93 0 1.1.07 1.54 1.18 1.54h3.55c1.7 0 1.87 0 2.3-.6 1.1-1.47 1.22-1.62 1.54-1.62.4 0 3.27 2.4 3.27 2.73 0 .47-.83.47-1.94.47h-8.7c-1.04 0-1.15.36-1.15 1.22l.07 8.97c.14.54.57.6 1.15.6h6.57c1.65 0 1.83 0 2.3-.6 1.08-1.47 1.18-1.65 1.5-1.65.4 0 3.27 2.4 3.27 2.73 0 .47-.83.47-1.9.47h-23.83l-4.52.1c-.14 0-.65.07-.8.07-.1 0-.18-.07-.3-.22l-.72-.83c-.14-.18-.14-.18-.14-.25s.04-.07.14-.07c.22 0 1.33.1 1.58.1l4.92.14h6.85c.65 0 1.18 0 1.18-1.3v-8.65c0-.43-.22-.86-1.04-.86h-4.2l-4.52.07a5.55 5.55 0 0 1-.75.1c-.14 0-.22-.1-.32-.25l-.72-.83c-.1-.14-.14-.18-.14-.2 0-.07.04-.1.14-.1.25 0 1.33.1 1.58.14l4.92.1h3.98c1.08 0 1.08-.54 1.08-1.1v-7.03c-.07-.68-.4-.93-1.04-.93h-5.92c-1.1 0-1.18.1-2.08 1.62-1.97 3.3-4.4 6.24-5 6.24-.14 0-.18-.1-.18-.2 0-.07.57-1.15.9-1.72 3.95-7.3 4.63-11.92 4.74-12.63.07-.68.14-.75.2-.75s3.52 1.4 3.52 2c0 .3-1.15 1.08-1.3 1.3-.2.3-1.15 2.4-1.15 2.73 0 .47.43.47.9.47h5.3zm18.07 38.3a3.98 3.98 0 0 1-4.02 3.95c-2.44 0-3.95-1.97-3.95-4.02 0-2.73 2.37-3.95 3.98-3.95 2.3 0 4 1.97 4 4.02zm-7-.04c0 1.6 1.33 2.98 3 2.98 1.58 0 2.98-1.22 2.98-2.9 0-1.44-1.08-3.05-3.05-3.05-1.9 0-2.94 1.58-2.94 2.98zM90.46 5.18c.86.47.97.5.97.86 0 .3-.07.32-.68.47-.1.04-.1.18-.1.25 0 .54 4.3 7 12.56 10.26.47.18 2.87.9 2.87 1.08 0 .25-1.22.43-1.44.5-.6.22-.8.36-1.8 1.22-.1.1-.47.43-.72.43-.57 0-5.38-3.73-8.04-6.82-2.37-2.76-2.7-3.3-3.88-5.3-.1-.18-.4-.54-.57-.54-.2 0-.57.5-1.4 1.5-3.2 4.02-6.75 7.82-11.13 10.48-.6.36-2.48 1.5-2.94 1.5-.07 0-.25-.04-.25-.14 0-.18.47-.54.72-.72C81.67 15.48 86.3 7.16 86.55 6.7c.25-.4 1.25-2.7 1.25-2.73.3-.1 1.33.47 2.66 1.22zm1.72 17.73c.4 0 .72 0 1.33-.18.25-.07 1.4-.86 1.7-.86.32 0 2.3 1.83 2.3 2.2 0 .4-.57.57-.86.65-.54.1-.68.18-.83.4-.18.25-3.16 7.75-3.45 8.5-.9 2.5-1.15 3.1-2.48 3.1-.72 0-1.5-.36-1.5-1.1 0-.25.18-.65.93-2.23.83-1.76 3.7-7.86 3.7-8.94 0-.57-.54-.57-1.1-.57h-6.5c-.86 0-3.3 0-4.52.1-.14 0-.65.07-.8.07-.1 0-.18-.07-.3-.2l-.72-.83c-.14-.18-.14-.18-.14-.25s.07-.07.1-.07c.25 0 1.33.1 1.58.1 1.04.04 2.9.14 4.95.14h6.6zm-2.9-5.56c1.26 0 1.36-.04 1.72-.6.75-1.22.83-1.33 1.22-1.33.54 0 2.73 2 2.73 2.37 0 .5-.54.5-1.44.5H87.1c-.8 0-2.12 0-3.2.07a5.98 5.98 0 0 1-.79.11c-.07 0-.25-.14-.32-.22l-.68-.83a.52.52 0 0 1-.11-.25c0-.04 0-.07.07-.07.18 0 .86.1.97.1 1.08.07 2.9.14 3.95.14h2.3zm2.12 32.57c0 .32-1.7 3.34-1.7 3.95 0 .25.18.5.65.83.86.6 1.3 1 1.3 1.54 0 .57-.4.86-2.66 1.65-.97.32-1.04.57-1.72 2.84-.2.75-.75 2.48-.75 3.12 0 .57.14.57 2.66.8.86.07 2.55.6 2.55 1.5 0 .65-.97 1.04-1.87 1.04-.54 0-3.12-.47-3.3-.47-.9 0-.9 1.7-.9 2.48.04 1.6.47 5.35 4.95 5.35 1.5 0 5.17-.65 5.17-4.88 0-1.54-.32-3.6-3.55-8.1a.55.55 0 0 1-.14-.36c0-.32.8.36.9.43 4.13 3.34 5.74 6.17 5.74 8.7 0 3.4-3.45 6.46-7.64 6.46-.68 0-6.85 0-6.85-6.5 0-.57.3-3 .3-3.52 0-.43-.07-.68-.68-1.15-1.3-.97-1.94-1.94-1.94-3.05 0-1.08.4-2.26 2.66-4.1 1.87-1.5 2.08-1.65 2.08-2.15 0-.47-.18-.6-.97-1.22-1.04-.83-2.4-1.9-2.4-3.4 0-.25.07-.65.32-.65.18 0 .8.75.93.86.97.8 2 1.26 2.44 1.26 1 0 1.3-3.2 1.3-3.7 0-.72-.18-1.9-.36-2.4-.07-.14-.07-.25-.07-.36 1.07-.12 3.58 2.25 3.58 3.22zm-5.96 9.04c-.83 0-2.62 1.22-2.62 2.58 0 1.08 1.1 2.15 1.83 2.15.14 0 .32-.1.4-.3.32-.6.86-3.66.86-3.84.01-.27.01-.6-.46-.6z"/><path d="M73.27 102.1c-.14-.18-.14-.18-.14-.22 0-.07.07-.1.1-.1.6 0 3.55.22 4.24.22.8 0 .97-.18 1.54-.8l1.08-1.04c.32 0 2.5 1.47 2.5 2.12 0 .14-.14.32-.75.68-.47.25-.47.4-.47 1.62 0 7.3.18 7.8 1.08 9.12 1.62 2.48 4.27 2.76 10.84 2.76 4.52 0 7.57-.22 10.16-.54.4-.04 2.4-.36 2.55-.36.1 0 .4 0 .4.14 0 .07-.47.47-.54.57-.1.1-.72.93-.75 1.04-.65 1.36-.72 1.5-.93 1.62-.22.14-3.73.14-4.4.14-12.74 0-14.14-1-15.58-2.05-1.94-1.4-2.76-3.62-3-4.6-.22-.86-.25-1-.54-1-.25 0-.5.3-.65.47-.2.25-3.8 5.13-3.84 5.2-.97 1.5-1.08 1.7-1.44 1.7-.6 0-2-2.58-2-2.7 0-.36.07-.36.97-.65 2.37-.72 5.17-3.12 5.42-4.02.1-.36.1-4.38.1-5.17 0-3.27-.04-3.27-1.62-3.27a161.61 161.61 0 0 0-2.55.07c-.1.04-.6.1-.75.1-.1 0-.18-.1-.32-.25l-.7-.82zm5.88-5.13c-.68 0-.8-.25-1.9-2.44-.93-1.83-2.05-3.4-2.7-4.13-1-1.1-1.1-1.22-1.1-1.33 0-.07.07-.07.14-.07.32 0 2.73.57 4.2 1.72 1.87 1.4 2.73 3.52 2.73 4.6 0 .95-.32 1.66-1.37 1.66zm13.14-3c.72 0 .97-.1 1.36-1.04.75-1.8 1.36-4.3 1.4-4.56.07-.93.07-1.04.3-1.04.3 0 3.3 1.26 3.3 1.7 0 .14-1.3.75-1.5.93-.68.68-2.62 3.73-2.62 3.8 0 .22.2.22.65.22h2.76c1.26 0 1.72 0 2.23-.32.3-.22 1.3-1.72 1.7-1.72s3.2 2.15 3.2 2.55c0 .47-.83.47-1.94.47h-6.75c-.25 0-.65 0-.9.22-.25.25-.25.47-.25 2.55 0 1.83 0 2.12 1.15 2.12h1.33c.68 0 1.1-.3 1.22-.36.3-.22 1.3-1.7 1.65-1.7.43 0 3.2 2.12 3.2 2.55 0 .47-.8.47-1.9.47h-5.5c-.75 0-1.15.14-1.15 1.1 0 2.48 0 2.76.22 2.98.2.2.57.25.93.25 1.8 0 2.08 0 2.58-.36.3-.18 1.3-1.7 1.7-1.7s3.2 2.15 3.2 2.55c0 .47-.83.47-1.94.47H96.3c-1.1 0-1.1 0-1.1 3.4 0 1.6 0 2 1.15 2h2.3c1.22 0 1.72 0 2.2-.36.3-.18 1.33-1.72 1.72-1.72s3.16 2.15 3.16 2.55c0 .47-.8.47-1.9.47H89c-1 0-1 .47-1 1.5 0 1-1.33 1.3-1.9 1.3s-.65-.4-.65-.9c0-.54.14-3 .18-3.6.1-3.2.1-10.08.1-13.46 0-.57 0-.65-.18-.65-.14 0-2.58 2.94-3.12 2.94-.07 0-.1-.07-.1-.14 0-.22 1.4-2.2 1.65-2.62 1.5-2.84 2.4-6 2.87-9.12.04-.1.07-.4.14-.4.5 0 3.2.9 3.2 1.4 0 .14-.65.65-.75.75-.07.1-.18.32-.93 2.05-.14.32-1 1.97-1 2.08 0 .36.4.36.8.36h4zm-.43 5.85c.25 0 .68 0 .9-.25.22-.22.22-.47.22-2.87 0-1.36 0-1.76-1.08-1.76h-2.94c-.65 0-1.1.07-1.1.97 0 .5 0 3.27.07 3.45.04.1.25.47.9.47h3.04zm-.04 5.3c1.15 0 1.15-.25 1.15-2.66 0-1.33 0-1.7-1.15-1.7h-2.8c-1.15 0-1.15.25-1.15 2.7 0 1.3 0 1.65 1.15 1.65h2.8zm.07 6.4c1.08 0 1.08-.36 1.08-3.37 0-1.65 0-2.05-1.08-2.05H89c-1.1 0-1.1.32-1.1 3.37 0 1.65 0 2.05 1.1 2.05h2.9zm-9.43 30.08c-.25.75-.4 12.24-.4 14.97 0 .5.1 2.76.04 3.23-.1.93-1.22 1.94-2 1.94s-.8-.9-.8-1.26c0-.68.2-3.73.25-4.38l.36-11.2c0-2.66-.07-2.76-.36-2.76-.18 0-.32.22-1 1.1-1.04 1.36-3.98 5.2-4.63 5.2-.07 0-.22-.07-.22-.22s3.34-5.56 3.9-6.64c3.3-6.14 4.84-10.55 5.06-11.4.25-1.1.25-1.1.47-1.1.18 0 3.62 1.5 3.62 2.08 0 .25-1.04.9-1.18 1.04-.68.75-.9 1.1-2.76 4.38-.36.6-1.15 1.97-1.15 2.4 0 .4.25.6.6.8.5.25.75.43.75.83-.01.2-.55.87-.58 1zm21.46-3.44c-.93.07-1.22.2-2.15.9-3.95 2.98-4.77 3.62-6.86 4.8-.97.57-2.48 1.44-2.73 2.12-.14.47-.18 6.7-.18 7.86 0 4.92 0 5.02 5 5.02 4.5 0 5-.25 5.38-.9.32-.5.43-1.33.65-3.66.1-1.15.1-1.3.4-1.3.2 0 .2.04.36 1.3.2 1.8.72 2.98.97 3.4.1.22.86 1.22.86 1.5 0 2.05-4.6 2.05-6.6 2.05-9.4 0-9.4-.97-9.4-4.85l.22-21.28c0-2.73-.04-3.3-.14-4.2-.04-.18-.18-1.1-.18-1.33 0-.32.1-.43.25-.43.18 0 1.26.4 2.05.68 1.3.47 1.44.5 1.44.83 0 .1-.07.2-.14.3-.5.47-.54.5-.6.86-.14.6-.3 9.15-.3 10.84 0 .32 0 1.08.43 1.08.9 0 5.85-4.8 8.72-8.54.1-.18.6-.83.72-.83s3.16 2.62 2.8 3.4c-.16.27-.7.35-.95.35zm-17.3 38.57c0 .36-.6 1.72-.68 2-.5 1.83-1.5 9.76-1.5 12.78 0 3.62.68 6.85 5.5 6.85 1.76 0 4.34-.36 7.54-1.87.54-.25 3.27-1.76 3.4-1.76s.18.1.18.18c0 .4-5.3 6.17-12.06 6.17-4.67 0-6.9-2.7-6.9-9.9 0-2.23.07-2.94.83-9.98.14-1.18.47-4.13.47-5.13 0-.65-.1-1.26-.32-1.76-.04-.1-.4-.93-.4-.97 0-.25.3-.36.5-.36 1.86.02 3.44 2.93 3.44 3.75zm-8.15 57.02c0 .22-.86.93-.93 1.1l-1.08 2.87c-.83 2-2.73 5.78-3.2 5.78-.07 0-.07-.1-.07-.14 0-.1.47-1.36.54-1.62.43-1.3 1.54-5.56 1.54-8 0-.2-.14-1.22-.14-1.44 0-.2.32-.3.5-.2.4.1 2.83 1.2 2.83 1.65zm.58-4.4c-.14 0-2.44.3-3.12.68-.14.07-.8.57-.93.57-.5 0-.8-1.1-1.08-1.94l-.47-1.47c0-.18.07-.32.25-.32.1 0 1.22.36 1.47.43.86.22 1.3.3 2.3.3.65 0 .9-.07 1.94-1.83.1-.22 2.94-5.1 3.34-7.8 0-.1.07-.6.18-.6.32 0 3.45 1.22 3.45 1.76 0 .36-.3.47-.97.75-.47.18-.65.47-2.33 2.62-1.36 1.76-2.37 2.87-3.77 4.3-.3.3-.4.43-.4.57 0 .25.47.25.6.25l3.48-.14c.8-.07 1.15-.1 1.15-.43 0-.5-.68-1.62-.97-2.12-.1-.18-.5-.57-.5-.75 0-.07.07-.1.14-.1.3 0 4.16 1.76 4.16 4.16 0 .25-.04 1.65-.97 1.65-.75 0-1.04-.68-1.3-1.33-.1-.25-.3-.36-.54-.36-.14 0-1.83.32-2.12.72-.25.36-.25 2.08-.25 2.98l.07 8.97c0 3.05 0 3.7-1.54 3.7-1.08 0-1.22-.72-1.22-1.5 0-.25.22-2.26.22-2.66a508.4 508.4 0 0 0 .32-9.26c-.01-1.42-.08-1.78-.62-1.78zm.03-8.36c.1.14.6.75.6 1.44 0 .57-.4 1.62-1.1 1.62-.57 0-.68-.07-1.62-1.94-.8-1.58-1.5-2.37-1.76-2.66-.14-.18-1.54-1.47-1.54-1.54 0-.04 0-.1.07-.1.6 0 3.27 1.47 3.48 1.47.83 0 2.98-4.8 3.23-6.1.18-.83.18-.9.4-.9.5 0 3.4 1 3.4 1.76 0 .25-1.08.65-1.26.8-.65.5-3.1 3.3-3.62 3.8-.18.14-.83.72-1 .93-.1.1-.18.18-.18.32.02.22.77.94.9 1.12zm6.82 19.27c-.8 0-.97-.8-1.22-2.4-.1-.83-.6-3.37-1.26-4.52l-.4-.68c0-.07.07-.18.14-.18.43 0 4.27 3.66 4.27 5.78 0 .6-.6 2-1.54 2zm9.15-9.04c0 .18-.8.72-.86.86-.1.2-.54 3.95-.68 4.67-1.04 5.5-4.3 6.86-5.56 7.4-.65.25-1.8.6-2.4.6-.18 0-.3 0-.3-.1s.75-.47.93-.54c2.3-1.08 3.4-2.37 4.34-4.63 1.04-2.5 1.22-5.17 1.22-7 0-.93-.1-1.65-.14-2.12-.04-.22-.1-.47-.1-.6 0-.1 0-.36.36-.36.87 0 3.2 1.3 3.2 1.84zm.1-8.4l-4.23.07c-.14.04-.86.1-1 .1s-.18-.07-.3-.18l-.8-.93c-.07-.1-.14-.14-.14-.18 0-.07.07-.1.14-.1.68 0 3.73.25 4.38.25 1 0 1-.25 1-2.48 0-.83-.18-1.04-.68-1.04l-4.52.1c-.1 0-.57.07-.68.07-.14 0-.22-.07-.32-.18l-.75-.9c-.14-.14-.14-.14-.14-.22 0-.07.07-.1.14-.1.18 0 .97.1 1.15.1l5.28.14c.5 0 .5-.14.5-1.4 0-.47 0-1.36-.18-2l-.25-1.1c0-.3.1-.36.36-.36.1 0 3.37.6 3.37 1.3 0 .25-.07.32-.75 1-.18.18-.3.36-.3.93 0 1.5 0 1.65.8 1.65h1.58c1.65 0 1.94 0 2.48-.8.57-.86.86-1.08 1.08-1.08.07 0 2.62 1.33 2.62 2.2 0 .65-.6.65-1.87.65H97.3c-.57 0-.8.18-.8.8l.04 2.12c.07.6.25.6 1.4.6 1.3 0 1.76-.07 2.15-.8.4-.68.43-.83.8-.83.47 0 2.55 1.4 2.55 2 0 .57-.75.57-1.87.57h-6.4zm4.92 3.2c1.7 0 1.94-.04 2.2-.3.1-.1.68-.8.83-.8s2.66 1.7 2.66 2.4c0 .47-.36.54-1.44.75-.65.1-1.18.4-2.08 1.1-.75.6-.8.68-.9.68s-.14-.07-.14-.18c0-.18.54-1.15.65-1.4.07-.18.14-.47.14-.68 0-.65-.47-.65-1.15-.65H90.82c-.43 0-.5.32-.5.68 0 1.4-.07 3.73-1.72 3.73-.8 0-1.36-.68-1.36-1.4 0-.54 1.15-3.05 1.33-3.55.2-.65.4-1.33.4-1.65s.04-.47.18-.47.32.32.4.5c.4.93.5 1.18.97 1.18h9.58zm.25 4.92c0 .4-.32.6-.8.86-.4.3-.54.36-.54 3.62l.14 5.53c.2.97 1.04 1.04 2.33 1.04 1.76 0 1.97-.1 2.8-3.48.25-1 .3-1.1.4-1.1.14 0 .4 1.72.47 2.15.14.68.2.86.86 1.83.25.36.32.54.32.75 0 .4-.36 1.04-.9 1.4-.65.43-1.26.6-3.12.6-3.88 0-5.38 0-5.38-3.45l-.1-8.58c0-.32-.2-1.87-.2-2.2 0-.22 0-.47.65-.47.22.02 3.1.55 3.1 1.5zM82.7 262.6c0 .6-1.1 3.23-1.3 3.77-.72 2.3-1.18 4.8-1.18 6.75 0 1.62.4 3.66.83 3.66.75 0 2.58-6.42 3.2-6.42.1 0 .14.14.14.25 0 .3-.72 3.4-.86 4.06-.14.68-.68 3.3-.68 4.7 0 .32 0 .75.43 1.62.07.14.43.93.43 1.44 0 .57-.47 1.1-1.22 1.1-1.36 0-2.3-2.04-2.9-4.02-.93-2.87-.97-4.92-.97-6.03 0-1.4.07-2.9.9-8.1l.43-3.88c0-.86-.1-1.7-.36-2.44l-.2-.72c0-.1 0-.3.3-.3.96-.01 3.04 2.4 3.04 4.55zm15.82 4.63c0 7.43-.3 10.37-2.22 13.35-1.9 2.98-4.92 4.52-5.38 4.52-.07 0-.18 0-.18-.1s1.76-2 2.05-2.4c3.12-4.06 3.37-7.54 3.37-14.4 0-1.22-.07-1.44-.65-1.44-.36 0-1.94.1-2.23.1-3.52 0-5.1-1.72-5.1-2.48 0-.07.04-.14.1-.14.22 0 .57.18.83.2.86.14 1.8.22 2.26.22.54 0 3.23 0 4.2-.65.18-.14.32-.3.32-1.5 0-1.26-.32-3.62-.6-4.27-.07-.1-.5-.6-.5-.72 0-.18.43-.4.93-.4 1 0 3.12.97 3.12 1.7 0 .3-.54 1.36-.57 1.62-.1.57-.1 1.36-.1 1.87 0 .6.07.9.36.9.32 0 .8-.36.93-.57.36-.5.36-.54.72-.54.25 0 1.94.25 1.94 1.15 0 1.08-1.22 1.8-2.05 2.2-1.1.54-1.33.65-1.44.83-.1.2-.1.8-.1.95zm-1.67 50.13c0-2.94-2.48-5.46-6.06-5.46-4.74 0-7.8 4.92-8.43 6.03-.72 1.22-1.08 1.9-2.05 1.9-.86 0-1.04-.72-1.04-1 0-.9.3-1.7 2.83-4.67 2.33-2.73 2.7-3.2 8.1-10.8 1.18-1.7 1.7-2.44 1.7-2.84 0-.25-.25-.5-.68-.5-1.33 0-3.45 1.8-4.06 2.3-1.44 1.18-1.94 1.3-2.55 1.3-1.7 0-2.8-2.3-2.8-2.48 0-.1.1-.1.86-.1 1.9 0 4.56-.86 5.56-1.3 2.22-.97 2.48-1.08 3.27-1.08 1.44 0 3.77.9 3.77 2.48 0 1.04-.83 1.62-2.55 2.8-2.58 1.83-5.74 6.75-5.74 7.36 0 .1.1.25.22.25.22-.07.68-.25.9-.32a8.68 8.68 0 0 1 3.16-.57c4.6 0 8.07 3.4 8.07 7.46 0 4.56-4.4 7.75-8.97 7.75-3.55 0-6.1-1.9-6.1-3.7 0-1.3 1.5-2.9 3.55-2.9 1.7 0 3.1 1 4.1 2.3.5.65.72.97 1.22.97 1.2.01 3.73-2.18 3.73-5.16zm-9.23 3.23c-.86 0-1.5.68-1.5 1.26 0 .93 1.54 1.7 3.1 1.7.36 0 .6-.25.6-.65 0-.86-.86-2.3-2.2-2.3zm16.15 24.26c-.72 0-.86-.25-2.05-2.4-.72-1.26-1.65-2.5-3.77-3.84-.1-.07-.5-.3-.5-.43 0-.1.1-.25.4-.25 1.26 0 7.36 1.87 7.36 5.24.01.86-.7 1.7-1.43 1.7zm-82-331.93c0 1.3-.75 1.4-.93 1.4-.4 0-.6-.04-2.05-1.9-.83-1.04-4.74-4.6-5.24-4.6-.3 0-.47.14-.75.4-4.67 4.3-10.16 7.75-10.77 7.75-.07 0-.18-.04-.18-.1 0-.04 2.33-2.05 2.73-2.44 1.62-1.58 5.6-5.6 6.9-8.3.4-.83.4-.9.6-.9.36 0 2.76 1.47 2.76 2.08 0 .3-.1.4-.43.6-.04.04-.2.18-.2.32 0 .18 1.26.8 1.54.93 5.38 2.58 5.78 3.16 5.96 4.16.03.2.07.4.07.58zm-10.6 22.1c-.75 0-.97.04-1.15.47-.3.65-.54 1.15-1.65 1.15-1 0-1-.57-1-.86 0-.25.18-1.5.18-1.8.07-1.26.07-2.83.07-3.27 0-.32 0-2.12-.22-2.12-.07 0-1 2.15-1.22 2.55-1.36 2.4-3.62 4.27-3.9 4.27-.04 0-.07-.04-.07-.1l.68-1c3.3-4.95 3.3-11.52 3.3-12.35 0-2.33-.07-4.3-.36-5.56-.04-.18-.36-1-.36-1.18 0-.14.1-.18.3-.18.22 0 .75.14 1.62.68 1.15.72 1.5.75 2.3.75h5.96c.54 0 .8-.04.97-.18.14-.14.72-.93.93-.93.18 0 2.76 1.54 2.76 1.97 0 .25-.14.43-.3.57-.1.07-.47.47-.65.65-.07.5 0 5.02 0 6 0 1.1-1.08 1.58-1.7 1.58-.36 0-.47-.1-.8-.6-.18-.3-.32-.3-.97-.3H9.04c-.65 0-1.18 0-1.18 1.47 0 .54.14.65 1.65 1.54.5.3 1.26.3 1.62.3h4.7c.68 0 .97-.07 1.33-.6.25-.4.47-.65.72-.65.07 0 2.62 1.1 2.62 1.87 0 .18-.07.36-.2.47-.6.5-.68.57-.72.72-.1.32 0 2.12 0 2.2 0 2.48 0 2.76-.3 3.2s-.93.86-1.54.86c-.54 0-.57-.32-.65-.86-.07-.65-.68-.68-1.1-.68h-4.8zm1.94-22.4c.65 0 .72 0 .86-.14.25-.18 1.1-1.4 1.36-1.4.18 0 2.4 1.5 2.4 2.08 0 .4-.14.4-1.36.4h-4.74c-.47 0-1.7.07-2.12.1a1.91 1.91 0 0 1-.43.07c-.1 0-.14-.07-.25-.22l-.54-.83c-.1-.18-.1-.18-.1-.2 0-.07.04-.1.1-.1.32 0 3.1.25 3.66.25h1.16zm2.8 11.62c.97 0 .97-.22.97-2.15 0-.6-.07-1-.97-1H9.47c-.86 0-1.18.04-1.18 2.37 0 .75.43.8.97.8h6.67zm-.07-4.1c1.04 0 1.04-.36 1.04-1.1 0-1.5 0-1.62-.97-1.62H9.47c-1 0-1 .36-1 1.8 0 .75.2.93 1 .93h6.4zm-4.56 9.3c-1.18 0-1.18.3-1.18 2.15 0 2.23 0 2.48 1.18 2.48h4.67c1.22 0 1.22-.32 1.22-3.12 0-1.08 0-1.5-1.18-1.5h-4.7zM23.72 9.12c.2 0 2.66 1.04 2.87 1.15.14.1.43.32.43.57 0 .22-.68 1-.75 1.18-.14.43-.14.8-.14 4.38v12.96c-.07.9-1.26 1.18-1.97 1.18-.8 0-.86-.5-.86-.8 0-.54.25-2.87.25-3.34l.32-12.17c0-.72-.04-3.16-.2-3.7-.3-.9-.32-1-.3-1.08.02-.23.17-.34.35-.34zm6.03-4.34c.14 0 2.48.86 2.83 1.04.9.32.97.36.97.6s-.93.86-1.04 1.04c-.1.25-.25 1.72-.25 2-.04 1.1-.04 6.85-.04 9.3V33.3c0 2.44-1.94 3.7-3.9 3.7-.6 0-.72-.07-1.22-.93-.18-.36-1.1-1.58-1.87-2-.4-.25-.43-.3-.43-.4s.14-.1.2-.1c.1 0 2.9.25 3.45.25.65 0 1.1-.14 1.18-.83.07-.47.22-6.03.22-10.48l-.18-15.93c0-.3-.25-1.47-.14-1.7.04-.07.1-.1.22-.1z"/><path d="M22.03 68.72c-.5 0-.9 0-.9.36 0 .32.14.4 1.3 1.26 4.16 3.12 8.83 4.3 12.17 4.74.86.1.97.1.97.32s-.18.25-.75.4c-.97.3-1.65 1.18-1.94 1.8-.1.25-.36.68-.47.68-.3 0-1.4-.47-1.76-.6-5.3-2.2-8-4.88-9.87-7.18-.83-1-.86-1.08-1.04-1.08-.3 0-.32.32-.32.43 0 .14.04 1.22.04 1.44l.04 4.7c0 1.3 0 1.58-.36 1.97-.5.54-1.15.72-1.62.72-.43 0-.8-.1-.8-.9a416.82 416.82 0 0 1 .22-3.3c.04-.93.04-2.08.04-3 0-.14 0-.47-.3-.47-.14 0-.72.43-.86.54-6.96 5.13-13.2 6.6-13.78 6.6-.07 0-.25-.04-.25-.18 0-.1.72-.43.75-.47 6.17-2.73 11.84-7.72 11.84-8.43 0-.36-.36-.36-.6-.36H9.04c-1.18 0-3.4 0-4.34.07-.1 0-.83.1-.97.1-.1 0-.18-.07-.32-.25l-.68-.83c-.14-.18-.14-.18-.14-.2 0-.07.07-.1.1-.1.25 0 1.33.14 1.58.14 1.04.04 3.45.1 4.95.1h7.04c.75 0 .75-.32.75-2 0-.4-.04-.83-.9-.83h-2.58c-1.33 0-3.52 0-4.3.07-.1 0-.86.1-.97.1-.14 0-.18-.07-.32-.2l-.72-.86c-.14-.18-.14-.18-.14-.22 0-.07.07-.1.14-.1.22 0 1.33.14 1.58.14 1 .04 3.3.1 4.92.1h2.26c1.04 0 1.04-.43 1.04-1.76 0-.75 0-1.5-.93-1.5h-4.34c-.86 0-3.3 0-4.56.1-.1 0-.65.07-.75.07s-.18-.07-.32-.25l-.68-.83c-.14-.18-.14-.18-.14-.2 0-.07.07-.1.1-.1.22 0 1.33.14 1.58.14a131.76 131.76 0 0 0 4.92.1h1.33c.18 0 .4 0 .4-.3 0-.54-1-2.87-1.47-3.66-.72-1.18-1.18-1.26-1.87-1.26h-.9c-1.44 0-3.84.04-4.52.1-.14 0-.65.07-.8.07-.1 0-.18-.07-.3-.22l-.72-.83c-.17-.15-.17-.15-.17-.22s.07-.07.1-.07c.25 0 1.33.1 1.58.1 1.04.04 2.9.14 4.95.14.54 0 .75 0 .75-.43 0-.5-.93-2.23-1.44-2.9-.22-.25-1.47-1.47-1.47-1.47 0-.1.14-.25.36-.25.9 0 4.77 1.04 4.77 3.37 0 .22-.04.47-.25.9-.18.3-.18.36-.18.5 0 .3.3.3.4.3h1.08c.8 0 .8-.65.8-.97a233.67 233.67 0 0 0-.07-4.16c-.04-.32-.25-1.83-.25-2.2 0-.43.14-.43.36-.43.07 0 2.98.22 2.98 1 0 .14-.22.43-.36.57-.25.3-.32.57-.32 1.36 0 4.8.07 4.8 1.08 4.8h1.3c1.04 0 1.04-.3 1.04-3.1a96.67 96.67 0 0 0-.1-3.4c-.04-.1-.1-.68-.1-.8 0-.3.1-.5.36-.5.2 0 .47.07 2.48.65.22.07.57.32.57.65 0 .14-.07.2-.4.65-.4.47-.4.68-.4 1.26 0 2.05.04 2.23.07 4.06 0 .25.04.54.36.54.65 0 3.23-3.73 3.8-5.06.4-.93.43-1 .6-1 .07 0 2.73 1.44 2.73 2.12 0 .25-.07.25-.83.54-.07 0-1.3.8-1.47.93-.36.2-3.1 1.94-3.1 2.26 0 .18.3.22.43.22h1.76c1.36 0 1.72-.04 2.08-.32.25-.18 1.3-1.54 1.62-1.54.4 0 3.1 1.94 3.1 2.3 0 .5-.72.5-1.94.5h-8.2c-.14 0-.4 0-.4.18 0 .14.07.18.8.6 1.18.68 1.33.75 1.33 1.1 0 .25-.14.36-.65.6-.83.47-2.4 1.9-2.4 2.37 0 .32.43.32.68.32h3.23c1.47 0 1.65 0 1.94-.25.25-.22 1.26-1.6 1.6-1.6.14 0 2.73 1.8 2.73 2.37 0 .47-.18.47-1.83.47h-10c-1.08 0-1.08.43-1.08 1.83 0 .93 0 1.44 1 1.44h2.98c1.58 0 1.76 0 2.26-.57 1.04-1.22 1.15-1.36 1.54-1.36.6 0 2.76 1.76 2.76 2.33s-.65.57-1.8.57h-7.86c-.9 0-.9.3-.9 1.94 0 .43 0 .9.86.9h7.3c.86 0 1.47 0 1.76-.1.32-.14 1.54-1.8 1.97-1.8.36 0 3.1 1.76 3.1 2.37 0 .5-.72.5-1.9.5h-10.5zM13 54.5c-.07 0-.3 0-.3.18 0 .1.6.54.75.6 1.72 1.26 2.2 2.23 2.2 3 0 .36-.07.47-.25.93a.62.62 0 0 0-.07.29c0 .18.25.18.4.18h3.98c1.04 0 1.26-.3 1.65-1.47.6-1.83.68-3.1.68-3.27 0-.36-.14-.47-.75-.47H13zM5.27 99.47c0-.14.14-.3.32-.3.1 0 1.97.5 2.37.5 1.04 0 5.96-1.04 6.03-1.08.6-.43.65-4.06.65-4.23 0-.93-.07-2-.9-3.05-.54-.65-.6-.72-.6-.83 0-.25.43-.3.57-.3 2.4 0 3.8 1.36 3.8 2.3 0 .07-1.36 4.63-1.36 5.3 0 .2.14.32.4.32.18 0 1.83-.18 2.12-.18 2.7 0 4.77 1.3 4.77 4.6 0 2.83-1 9-3.1 11.52-1 1.18-2.44 2.2-3.66 2.2-1.36 0-1.72-1.33-2.12-2.48-.07-.18-.47-1.1-.47-1.18 0-.1.07-.18.18-.18.14 0 .8.22.9.25.72.14 1.44.25 1.83.25 1.04 0 2.37-.5 3.4-4.38.4-1.44 1.1-4.34 1.1-6.24 0-2.5-1.44-2.7-2.48-2.7-1.15 0-3.2.54-3.45.86-.14.18-.18.32-.54 1.54-1.44 4.88-4.92 13.7-7.82 13.7-.8 0-1.15-.5-1.15-1.15 0-.75.25-1.04 2.4-3.4.97-1.08 2.48-2.73 4.4-8.1.14-.36.5-1.44.5-1.7 0-.1-.04-.3-.25-.3-.8 0-4.13 1.44-4.84 1.44-1.4.02-3.04-2.24-3.04-3.03zm25.05 7.47c-.36 0-2-.97-2.44-1.08-.18-.07-1.15-.14-1.15-.25 0-.22 1.18-.83 1.4-1 1.33-1 1.47-1.1 1.47-2.08 0-.6-.25-2.94-2.9-4.13-.3-.14-.86-.4-.86-.54 0-.22.14-.22.25-.22 4.6 0 6.28 4.52 6.28 6.35.01.44-.53 2.95-2.04 2.95zm-9.22 27.82c0 .72-.57 1.72-1.83 1.72-.32 0-.5-.04-2.12-.6-.57-.22-1.15-.36-1.7-.36-1.47 0-2.55 1-2.55 2.37 0 .32.25 1.87.25 2.2s-.36 2.44-.43 2.94l-.47 5.28c0 .54.04 1.65.93 1.65.68 0 1.72-.65 2.08-.86 2.2-1.44 3.55-2.3 5.85-2.3 3.84 0 6.57 2.7 6.57 5.63 0 4.38-5.7 7.3-10.9 7.3-.47 0-.97 0-.97-.3 0-.18.8-.36 1.04-.43 4.5-1 7.86-3.84 7.86-7.2 0-3.77-3.27-3.98-3.98-3.98-1.26 0-3.1.4-4.67 2.7-1.65 2.33-2.05 2.94-3.27 2.94-1.5 0-2.73-1.72-2.73-4.5 0-1.5.86-8.1.97-9.44.1-1.26.25-3.1 3.27-4.3 2-.83 2.87-1.18 2.87-2.23 0-.68-.25-1.08-.6-1.6-.07-.14-.18-.36-.07-.47.26-.2 4.6 1.88 4.6 3.9zM7.32 192.13c0 .22-.86.93-.93 1.1l-1.1 2.87c-.83 2-2.73 5.78-3.2 5.78-.07 0-.07-.1-.07-.14 0-.1.47-1.36.54-1.6.43-1.3 1.54-5.56 1.54-8 0-.2-.14-1.22-.14-1.44 0-.2.32-.3.5-.2.4.1 2.83 1.17 2.83 1.64zm.57-4.42c-.14 0-2.44.3-3.12.68-.14.07-.8.57-.93.57-.5 0-.8-1.1-1.08-1.94l-.47-1.47c0-.18.07-.32.25-.32.1 0 1.22.36 1.47.43.86.22 1.3.3 2.3.3.65 0 .9-.07 1.94-1.83.1-.22 2.94-5.1 3.34-7.8 0-.1.07-.6.18-.6.32 0 3.45 1.22 3.45 1.76 0 .36-.3.47-.97.75-.47.18-.65.47-2.33 2.62-1.36 1.76-2.37 2.87-3.77 4.3-.3.3-.4.43-.4.57 0 .25.47.25.6.25l3.48-.14c.8-.07 1.15-.1 1.15-.43 0-.5-.68-1.62-.97-2.12-.1-.18-.5-.57-.5-.75 0-.07.07-.1.14-.1.3 0 4.16 1.76 4.16 4.16 0 .25-.04 1.65-.97 1.65-.75 0-1.04-.68-1.3-1.33-.1-.25-.3-.36-.54-.36-.14 0-1.83.32-2.12.72-.25.36-.25 2.08-.25 2.98l.07 8.97c0 3.05 0 3.7-1.54 3.7-1.08 0-1.22-.72-1.22-1.5 0-.25.22-2.26.22-2.66a508.4 508.4 0 0 0 .32-9.26c-.01-1.42-.08-1.78-.62-1.78zm.04-8.36c.1.14.6.75.6 1.44 0 .57-.4 1.62-1.1 1.62-.57 0-.68-.07-1.62-1.94-.8-1.58-1.5-2.37-1.76-2.66-.14-.18-1.54-1.47-1.54-1.54 0-.04 0-.1.07-.1.6 0 3.27 1.47 3.48 1.47.83 0 2.98-4.8 3.23-6.1.18-.83.18-.9.4-.9.5 0 3.4 1 3.4 1.76 0 .25-1.08.65-1.26.8-.65.5-3.1 3.3-3.62 3.8-.18.14-.83.72-1 .93-.1.1-.18.18-.18.32.01.22.76.94.9 1.12zm6.82 19.27c-.8 0-.97-.8-1.22-2.4-.1-.83-.6-3.37-1.26-4.52l-.4-.68c0-.07.07-.18.14-.18.43 0 4.27 3.66 4.27 5.78 0 .6-.6 2-1.54 2zm9.15-9.04c0 .18-.8.72-.86.86-.1.22-.54 3.95-.68 4.67-1.04 5.5-4.3 6.85-5.56 7.4-.65.25-1.8.6-2.4.6-.18 0-.3 0-.3-.1s.75-.47.93-.54c2.3-1.08 3.4-2.37 4.34-4.63 1.04-2.5 1.22-5.17 1.22-7 0-.93-.1-1.65-.14-2.12-.04-.22-.1-.47-.1-.6 0-.1 0-.36.36-.36.86.01 3.2 1.3 3.2 1.84zm.1-8.4l-4.24.07c-.14.04-.86.1-1 .1s-.18-.07-.3-.18l-.8-.93c-.07-.1-.14-.14-.14-.18 0-.07.07-.1.14-.1.68 0 3.73.25 4.38.25 1 0 1-.25 1-2.48 0-.83-.18-1.04-.68-1.04l-4.52.1c-.1 0-.57.07-.68.07-.14 0-.22-.07-.32-.18l-.75-.9c-.14-.14-.14-.14-.14-.22s.07-.1.14-.1c.18 0 .97.1 1.15.1l5.28.14c.5 0 .5-.14.5-1.4 0-.47 0-1.36-.18-2l-.25-1.1c0-.3.1-.36.36-.36.1 0 3.37.6 3.37 1.3 0 .25-.07.32-.75 1-.18.18-.3.36-.3.93 0 1.5 0 1.65.8 1.65h1.58c1.65 0 1.94 0 2.48-.8.57-.86.86-1.08 1.08-1.08.07 0 2.62 1.33 2.62 2.2 0 .65-.6.65-1.87.65H26.1c-.57 0-.8.18-.8.8l.04 2.12c.07.6.25.6 1.4.6 1.3 0 1.76-.07 2.15-.8.4-.68.43-.83.8-.83.47 0 2.55 1.4 2.55 2 0 .57-.75.57-1.87.57H24zm4.92 3.2c1.7 0 1.94-.04 2.2-.3.1-.1.68-.8.83-.8.14 0 2.66 1.7 2.66 2.4 0 .47-.36.54-1.44.75-.65.1-1.18.4-2.08 1.1-.75.6-.8.68-.9.68s-.14-.07-.14-.18c0-.18.54-1.15.65-1.4.07-.18.14-.47.14-.68 0-.65-.47-.65-1.15-.65H19.66c-.43 0-.5.32-.5.68 0 1.4-.07 3.73-1.72 3.73-.8 0-1.36-.68-1.36-1.4 0-.54 1.15-3.05 1.33-3.55.2-.65.4-1.33.4-1.65s.04-.47.18-.47.32.32.4.5c.4.93.5 1.18.97 1.18h9.58zm.25 4.9c0 .4-.32.6-.8.86-.4.3-.54.36-.54 3.62l.14 5.53c.2.97 1.04 1.04 2.33 1.04 1.76 0 1.97-.1 2.8-3.48.25-1 .3-1.1.4-1.1.14 0 .4 1.72.47 2.15.14.68.2.86.86 1.83.25.36.32.54.32.75 0 .4-.36 1.04-.9 1.4-.65.43-1.26.6-3.12.6-3.88 0-5.38 0-5.38-3.45l-.1-8.58c0-.32-.2-1.87-.2-2.2 0-.22 0-.47.65-.47.22.02 3.1.56 3.1 1.5zm-10.33 24.48c.86 0 4.4 1.83 4.4 3.16 0 .97-9.62 10.26-9.62 11.8 0 .6.3 1.15 1.08 1.97 3.2 3.48 8.08 8.76 8.08 11.23 0 1.18-.8 1.7-1.54 1.7-1.1 0-1.33-.68-2.08-2.8-1.1-3.16-5.02-7.93-5.96-9.08-1.1-1.36-1.4-1.9-1.4-2.66 0-.97.47-2.05 2.9-5.1 3.55-4.45 4.88-6.32 4.88-7.64 0-.75-.32-1.3-.9-2.08-.1-.18-.18-.32-.1-.43.03-.07.14-.07.25-.07zM7.1 276.42c-.72 0-1.1.25-1.1.97 0 1.47 0 2.8-1.5 2.8-1.3 0-1.3-.72-1.3-1.15 0-.14.04-1.3.18-3.45l.32-9.47-.14-5.78-.25-1.87c0-.22.18-.36.43-.36.18 0 1.5.57 1.72.68.68.32 1.04.47 1.8.47H9.4c.8 0 .97-.2 1.22-.54.4-.47.65-.8.8-.8s1.33 1.04 1.54 1.22c.57.5.72.6.72.93 0 .18-.14.32-.25.43-.54.36-.6.4-.68.54-.25.47-.32 6.53-.32 7.43l.14 6.57c0 1.62-.04 2.84-1.76 2.84-.86 0-.9-.4-.9-.9 0-.4-.3-.57-.8-.57h-2zm.04-16.22c-.32 0-1 0-1.08.8-.14 1.76-.14 10.98-.14 13.5 0 .65.25 1 1.08 1h1.94c.32 0 1 0 1.08-.8.18-2.12.25-11.02.25-13.5 0-.47-.1-1-1.08-1H7.14zm16.83 9.18c-.36 0-.68.18-.68.57 0 .83 3.88 7.32 10.4 10.37.2.1 1.5.43 1.5.68 0 .1-.3.14-.43.18-.68.07-1.08.18-1.6.43-.3.14-1.7 1-1.8 1-.2 0-4.84-2.73-7.93-9.9-.25-.6-.3-.68-.43-.68-.25 0-.25.18-.25.72 0 .32.3 10.37.3 11.7 0 .43 0 2.26-1.65 2.26-.97 0-1.04-.6-1.04-1.15 0-1.04.4-6.1.4-7.25v-5.24c0-.14-.14-.32-.36-.32-.18 0-.25.1-.36.22-1.15 1.65-2.5 3.05-4.13 4.5-3.7 3.34-8.25 5.6-8.6 5.6-.04 0-.1 0-.1-.07 0-.1 3.6-3.12 4.27-3.7 5.02-4.4 7.86-8.97 7.86-9.44 0-.43-.2-.47-1.3-.47-.18 0-2.37.04-3.3.1-.1 0-.65.1-.75.1-.14 0-.22-.1-.32-.25l-.72-.83c-.14-.18-.14-.18-.14-.25s.07-.07.14-.07a27.41 27.41 0 0 1 1.62.14l4.4.1h.68c.3 0 .8 0 1-.57.04-.2.04-3.88.04-4.23 0-.4 0-1.1-.93-1.1-1.18 0-2.87.04-3.95.1-.1 0-.65.07-.75.07-.14 0-.2-.07-.32-.2l-.72-.83c-.14-.18-.14-.18-.14-.25s.07-.07.14-.07c.18 0 1.08.1 1.3.1.54.04 3.55.14 4.16.14s1.18 0 1.18-1.08c0-1-.1-3.48-.14-4.63 0-.22-.25-1.3-.25-1.54 0-.22.1-.32.36-.32.1 0 3.37.5 3.37 1.08 0 .18-.72.68-.83.83-.22.3-.22.47-.22 1.33 0 .47-.07 2.8-.07 3.34 0 .47.07 1 1.08 1h1.94c1.47 0 1.9 0 2.26-.6.68-1.08.75-1.22 1.08-1.22.25 0 2.7 1.9 2.7 2.3 0 .47-.72.47-1.9.47h-6.07c-.3 0-.9 0-1.04.6-.07.3-.07 3.7-.07 4.3 0 1 .72 1 1.08 1h4.16c1.72 0 1.97 0 2.48-.9.57-1 .68-1.26 1.04-1.26.3 0 2.9 2.26 2.9 2.62 0 .47-.72.47-1.9.47h-8.64zm10.08 30.94a3.98 3.98 0 0 1-4.02 3.95c-2.44 0-3.95-1.97-3.95-4.02 0-2.73 2.37-3.95 3.98-3.95 2.3 0 4 1.97 4 4.02zm-7-.04a3 3 0 0 0 3 2.98c1.58 0 2.98-1.22 2.98-2.9 0-1.44-1.08-3.05-3.05-3.05-1.9 0-2.94 1.58-2.94 2.98z"/></svg>