<svg xmlns="http://www.w3.org/2000/svg" viewBox="0 0 242.2 299.97" xmlns:v="https://vecta.io/nano"><path d="M103.37 268c-.33 0-.45.15-1.1.96-.27.3-.4.38-.95.38h-4.87c-.95 0-1.1-.08-2.04-.58l-.07-.04c-.65-.32-1.3-.64-1.7-.64-.64 0-.7.42-.7.6 0 .13.04.37.1.76l.08.6c.3 4.68.3 8.98.3 11.05l-.14 11.65c0 .18-.04.67-.07 1.15-.04.47-.07.93-.07 1.1 0 1.1.72 1.25 1.15 1.25.93 0 2.3-.65 2.3-2.05 0-.95 0-1.05.8-1.05h4.83c.6 0 .73.01.73.48 0 .55 0 1.47.9 1.47.65 0 1.5-.43 1.85-.7.67-.44.67-1.2.67-1.6 0-.2-.03-.76-.06-1.3-.03-.5-.05-1-.05-1.2l-.25-16.47c0-2.24.02-2.25.62-2.56.18-.08.67-.3.67-.8 0-.15-.1-.54-.36-.76-1-.77-2.23-1.68-2.52-1.68zm-1.43 3.4v19.07c0 .86-.03 1.1-.77 1.1H96.3c-.46 0-.7-.07-.77-.45-.03-.23-.1-3.78-.1-7.7l.1-12.24c.1-.3.34-.35.74-.35h4.9c.78.01.78.45.78.6zm-16.42 5.63H90c1.34 0 2.23 0 2.23-.75 0-.78-3.03-2.88-3.38-2.88-.28 0-.56.25-1.23 1.1-.82 1-.82 1-2.23 1-.8 0-.8 0-.8-2.7 0-.9 0-2.56.43-2.88.45-.33 3.25-1 3.5-1.03.1 0 .28.02.48.04l.53.04c.55 0 .75-.33.75-.6 0-.55-3-2.98-3.45-2.98-.2 0-.43.15-1.43.88l-.7.5c-2.73 1.58-6.27 2.54-8.76 3.07-.17.04-.6.15-.6.52 0 .4.47.46 1.47.46.45 0 2.16-.15 3.3-.25l.92-.08c.64 0 .84.2.84 1.42l-.03 3.22c-.08.34-.35.4-.85.4h-.8c-.93 0-2-.04-3.02-.07l-1.27-.04-1.66-.15c-.27 0-.4.18-.4.35 0 .2.1.34.2.43l.7.85c.03.04.06.07.08.1.1.1.2.24.44.24.06 0 .24-.03.42-.06l.35-.05 3.4-.1c1.4 0 1.4.03 1.42.3-.05.44-1.6 4.97-4.78 9.66-.08.1-.32.42-.6.8-1.7 2.25-1.7 2.3-1.7 2.45 0 .32.2.46.42.46.96 0 4.76-4.35 6.54-6.97l.17-.25c.46-.68.74-1.1.8-1.14 0 0 .06.05.06.33 0 2.63-.1 8.1-.18 10.96a67.95 67.95 0 0 1-.06 1.72l-.05 1.63c0 .53 0 1.32 1 1.32.83 0 2.23-.34 2.23-2.66 0-.9-.05-3.42-.1-6.08l-.1-6.47v-1.7h.1c.34.04 2.12 1.4 2.88 3.4.7 1.77.83 2.1 1.56 2.1 1.1 0 1.7-1.36 1.7-2.33 0-3-4.32-4.1-5.78-4.46-.2-.04-.42-.08-.42-.92.01-2.1.01-2.1 1-2.1zm52 .17c-1.76-1.2-3.48-1.92-3.76-1.92-.18 0-.33.07-.43.2s-.14.3-.1.4c0 .16 0 .2 1.33 1.47l.37.35c2.44 2.58 2.96 4 3.7 6.3.52 1.7 1.17 3.37 2.75 3.37 1.64 0 2.08-1.5 2.08-2.37 0-2.7-3.63-6.23-5.93-7.8zm-14.76-2.4c-.55 0-.6.35-.6.5 0 .2.1.34.3.66.3.48.35.6.35 1.04 0 1.15-2.37 6.02-7.97 10.67-.96.77-1.1.9-1.1 1.2a.56.56 0 0 0 .57.53c.73 0 6.86-2.5 11.15-8.63l.23-.32c.54-.76.74-1.04 1.18-1.3l.07-.05c.44-.3.7-.48.7-.94-.01-1.18-2.87-3.34-4.87-3.34zm51.7 5.6c-.3 0-.53.23-.53.5 0 .14.07.27.56 1.03l.32.5c.82 1.15 1 1.7 1 1.96 0 .22-.36.44-5.07 1.24l-8.25 1.04c-.05 0-.1-.01-.15-.05-.03-.03-.04-.1-.04-.17.17-.27 1.13-1.54 1.72-2.3l.72-.96 1.67-2.52 3.92-5.77.06-.05c.72-.68 1.15-1.1 1.15-1.8 0-1.38-3.34-3.96-3.85-3.96-.12 0-.53.05-.53.68 0 .07.02.3.03.56l.04.63c0 2.57-3.02 8.8-4.8 12.1-1.95 3.54-2.6 3.86-3.94 3.86-.4 0-.95-.1-1.23-.17-.04-.01-.14-.05-.26-.1-.47-.17-.7-.24-.85-.24-.13 0-.42.05-.42.53 0 .37.5 2.56 1.02 3.08l.44.43c1.2 1.2 1.26 1.24 1.67 1.24.24 0 .47-.2 1-.73.16-.16.4-.4.48-.44.2-.1 2.38-.6 3.8-.94l2.17-.52 9.8-2.9c.3 0 .4.1.74 1.83l.04.2c.45 2.28.65 3.32 2.08 3.32.84 0 2.26-.6 2.26-2.8-.01-3.74-5.6-8.27-6.78-8.27zm36.2-242.2c-19.95-21.47-47.07-33.9-76.37-35-24.3-.9-47.1 6.23-65.8 19l.02-.07-.32.27a112.45 112.45 0 0 0-8.1 6.13c-8.14 5.6-21.25 13.16-35 15.07-8.95 1.24-8.84 9.7-3.47 11.92 14.3 5.94 8.9 11.43 2.93 14.66-10.7 5.77-23.55 9.58-23.4 15.7.18 7.77 6.62 7.3 14.1 9.28 8.06 2.13 5.2 7.47.67 21.27C9.6 135.65-4.5 159.3 2.97 164.13c4.97 3.18 10.08-3.2 17.06-9.46 10.24-9.2 11.46 27.2 17.24 38.73 5.25 10.46 13.36-2.44 21.42 2.75 18.8 16.2 42.33 25.5 67.48 26.45 29.3 1.08 57.27-9.3 78.75-29.25 21.5-19.95 33.92-47.07 35-76.37 1.1-29.3-9.28-57.27-29.23-78.76zm-12.04 77.22c-.68 18.27-8.43 35.18-21.83 47.62s-30.83 18.9-49.1 18.23-35.18-8.43-47.62-21.82c-12.44-13.4-18.92-30.83-18.24-49.1 1.4-37.7 33.22-67.25 70.92-65.85 18.27.68 35.18 8.43 47.62 21.83s18.92 30.83 18.25 49.1z"/></svg>