<svg xmlns="http://www.w3.org/2000/svg" viewBox="0 0 110.53 451.9" width="110.53" height="451.9" xmlns:v="https://vecta.io/nano"><path d="M78.22 11.38c.65.32 2.08.75 2.98.75 1.47 0 12-1 13.53-1.7 1.1-.5 1.26-.57 1.5-.57.8 0 1.36.5 2.48 1.47 1.62 1.44 1.83 1.83 1.83 2.33 0 .47-.18.65-.83 1.3-.57.54-.72.83-1.4 2.26-5.63 11.7-18.16 16.72-18.52 16.72-.18 0-.25-.14-.25-.2 0-.14.1-.22.47-.47 6.25-4.38 11.3-9.12 14.18-14.2 1.76-3.1 2.44-5.7 2.44-6.07 0-.6-.6-.65-.8-.65-.36 0-10.73 1.72-12.92 2.58-.3.1-1.5.8-1.8.8-.83 0-3.7-1.8-3.7-3.77 0-.68.1-.8.32-.8.07.02.4.24.46.24zm26.3-.15c0 .5-.47 1.36-1.1 1.36-.57 0-.86-.36-1.83-1.72-.57-.8-.93-1.18-2.33-2.33-.14-.1-.5-.43-.5-.57s.32-.25.65-.25c2.53 0 5.12 1.86 5.12 3.5zm2.72-2.72c0 .4-.3 1.08-.93 1.08-.8 0-1.22-.65-1.83-1.47-.54-.72-1.87-1.7-2.98-2.2-.36-.18-.47-.32-.47-.43 0-.36 1.08-.36 1.36-.36 1.52-.01 4.85 1.07 4.85 3.37zm-23.9 65.52C94.55 68 97.5 60.25 97.5 59.5c0-.43-.25-.68-.75-.68-1.22 0-10.23 1.58-11.8 2.05-.25.07-1.4.6-1.65.6-1.54 0-4.1-3.1-4.1-4.1 0-.1.1-.18.22-.18s.54.25.65.3c.68.3 2.05.6 3.55.6 2.94 0 10.08-.93 11.4-1.08.07 0 2.44-.22 2.48-.22.18-.07.86-.4 1.04-.4.6 0 3.16 2.12 3.16 2.94 0 .54-.14.68-.97 1.36-.6.5-.97 1.04-1.94 2.55-2.83 4.3-5.06 7-10.12 9.58-3.2 1.62-6.03 2.33-6.35 2.33-.3 0-.32-.22-.32-.3a.44.44 0 0 1 .07-.22c.06-.06 1.07-.53 1.28-.64zm.9-23.47c.57.14 1.4.14 1.9.14 1.7 0 4.06-.07 5.74-.4.54-.1 3-.72 3.52-.72.6 0 2.2.32 2.2 1.36 0 1.1-1.26 1.22-3.34 1.4-.57.07-8.3.75-8.54.75-1.9 0-2.98-2.44-2.98-2.7 0-.18.07-.25.2-.25.22.02 1.08.38 1.3.4zm5.8 59.74c-.93.68-2.76 2.05-3.52 2.94-.68.83-.75.9-1.3.9-1.94 0-4.6-2.3-4.6-3.73 0-.25.04-1.9.36-1.9.14 0 .93.6 1.08.68.47.3 1.65.83 2.44.83 1.76 0 11.27-6.35 17.23-12.24.57-.57 1.58-1.58 1.65-1.58a.24.24 0 0 1 .18.18c-.01.32-4.2 7.03-13.54 13.92zm-2.94-11.8c-.97 0-1.33-.57-2.5-2.37-1.22-1.83-2.26-2.37-3.27-2.94-.14-.07-.32-.18-.32-.32s.3-.32.8-.32c3.84 0 6.85 2.05 6.85 4.16 0 1.08-.6 1.8-1.54 1.8zm-1.65 32.9c1.3 0 3.88 1.15 3.88 2.3 0 .25-.36 1.3-.4 1.5-.18.9-.36 4.06-.36 5.02 0 .75.18.9 1.18 1.1 2.3.54 7.8 3.16 7.8 5.8 0 1.1-1.04 1.26-1.33 1.26-.86 0-.9-.07-3.37-3.27-1-1.3-2.7-3-3.8-3-.4 0-.5 0-.5 2.66l.18 8.94c.04.4.07 1.3.07 1.83 0 .86 0 3.27-1.04 3.27-1.1 0-2-2.44-2-3.37 0-.14.14-.9.14-1.04.43-3.23.32-3.9.32-8.33 0-10.62 0-11.4-.43-12.56-.3-.75-.65-1.08-1.26-1.65-.04-.04-.07-.1-.07-.14.08-.3.97-.34 1-.34zm15.1 6.13c0 .47-.4 1.36-1.1 1.36-.54 0-.86-.36-1.8-1.72-.6-.9-1-1.22-2.33-2.33-.14-.1-.5-.43-.5-.57 0-.18.32-.25.65-.25 2.53 0 5.08 1.9 5.08 3.5zm2.9-4.1c0 .4-.3 1.08-.93 1.08-.8 0-1.22-.57-1.87-1.4-.5-.65-1.94-1.58-3.1-2.05-.36-.14-.47-.32-.47-.4 0-.22.43-.43 1.36-.43 2.6 0 5 1.43 5 3.2zm-22.23 38.6c.43 0 1.08 0 1.47-.54.3-.43.47-.68.65-.68.25 0 2.73 1.44 2.73 2.08 0 .22-.14.4-.32.57-.14.14-.43.47-.57.65-.25.43-.18 8.76-.18 9.62l.04 14.64c0 1-.07 2-1 2.98-.72.72-1.94 1.18-2.4 1.18-.54 0-.68-.47-.83-1-.07-.3-.25-.9-1.58-1.97-.1-.1-.8-.4-.8-.54 0-.1.1-.1.14-.1.22 0 2.26.18 2.7.18 1.22 0 1.22-.47 1.22-2.3l.07-6.32c0-1.26-.1-1.47-1.15-1.47H80c-.97 0-1.15.3-1.22 1.15-.14 1.83-.32 4.63-1.94 8-1 2.05-2.7 4.24-2.87 4.24-.1 0-.1-.07-.1-.14s.54-1.4.6-1.65c1.5-4.27 2.2-8.43 2.2-20.03l-.1-7.32c-.04-.54-.3-1.36-.3-1.87 0-.22.14-.36.4-.36.3 0 .36.04 2.2.72.72.3 1.33.3 1.72.3h.7zm-1 8.93c-.43 0-.86 0-1.04.43-.1.22-.25 5.53-.25 5.8 0 .83.75.83 1.08.83h1.33c.36 0 .9 0 1.1-.47.1-.25.1-4.38.1-5.13 0-1.1 0-1.47-1.15-1.47h-1.2zm.04-7.96c-1.15 0-1.15.22-1.15 2.15 0 .32 0 4.3.1 4.5.18.4.57.4 1.04.4h1.18c.47 0 .83 0 1.04-.4.14-.3.14-5.28.14-6 0-.65-.8-.65-1.15-.65h-1.2zm7.07-.4a.57.57 0 0 1-.14-.21c0-.07.04-.1.1-.1.2 0 1.18.14 1.4.14a90.75 90.75 0 0 0 4.63.11h5.6c1.1 0 1.33 0 1.76-.72.25-.43.65-1.08 1-1.08s3.12 1.83 3.12 2.37c0 .4-1.1.4-1.9.4h-5.06c-.47 0-1.08 0-1.08.93 0 2.37.83 10.2 1.58 10.2.4 0 3.3-3.23 4.02-5.46.14-.4.2-.57.4-.57.3 0 2.87 1.9 2.87 2.37 0 .25-.3.32-.97.43-.43.1-.65.25-2.55 1.62-.72.5-2.7 1.94-3.05 2.2-.25.18-.4.57-.4.75 0 .5 2.37 6.9 6.93 10.55.25.18 1.54.97 1.54 1.1 0 .1-.18.1-.25.1-1.26 0-1.9.22-2.5.57-.14.1-.75.65-.9.65-.22 0-2.9-2.44-4.8-7-1.83-4.45-2.5-9.26-2.5-15.47 0-1.65 0-1.83-.2-1.83-.07 0-.6.57-.72.68-1.18 1.26-2.83 2.7-3.7 3.3-.36.3-.57.43-.57.6s.47.65.9 1.04c3.3 3.27 4.4 7.97 4.4 12.63 0 6.14-1.8 7.8-2.66 8.58-.68.6-1.58 1.04-2.08 1.04-.32 0-.4-.07-.65-1-.18-.75-1.9-2-2.33-2.23-.57-.32-.6-.36-.6-.43 0-.1.07-.1.14-.1.1 0 .93.18 1.1.18.65.1 1.08.1 1.26.1 1.65 0 3.4-.54 3.4-7 0-1.54-.04-1.72-.32-1.72-.18 0-.25.07-.86.68-3 3.16-6.7 5.24-7.25 5.24-.04 0-.1 0-.1-.07 0-.1.14-.25 1.36-1.44 3.05-2.98 6.5-7.54 6.5-8.8 0-.07-.18-1.7-.68-1.7-.22 0-.5.3-.57.36-2.84 2.76-5.96 4.7-6.5 4.7-.04 0-.1-.04-.1-.07 0-.14.07-.2.68-.86 3.84-4.02 5.17-6.5 5.17-7.1 0-.54-.65-1.44-1.1-1.44-.54 0-3.73 2.3-4.56 2.3-.32 0 .14-.4.54-.72 5.1-4.27 7.04-7.07 7.04-7.54 0-.4-.3-.4-1.04-.4-.4 0-2.33.04-3.2.1-.07 0-.43.07-.5.07-.1 0-.18-.07-.32-.25l-.7-.8zm-1.85 57.92c1.08-1 1.54-1.47 1.54-1.94 0-.1-.25-.93-.32-1.1-.43-1.36-.6-2.2-.6-4.2l.18-5.92c0-1.8-.5-2.33-1.08-2.9-.75-.8-.86-.9-.86-1 0-.14.86-.18.97-.18 2.04 0 3.88 1.65 3.88 2.7 0 .32-.43 1.94-.5 2.3a34.45 34.45 0 0 0-.32 4.74c0 1.36 0 4.27.93 4.27.5 0 .72-.14 2.66-1.36.4-.25 2.66-1.7 3.7-1.7.83 0 1.36.72 1.36 1.33 0 1.08-1.47 1.65-2.76 2.15-8.54 3.45-9.76 6.06-9.76 8.4 0 2.44 2.08 3.34 5 3.34 1.8 0 3.23-.36 4.3-.65 1.62-.43 2-.54 2.7-.54 1.22 0 2.37.83 2.37 1.72 0 1.83-7.32 2-9.22 2-1.65 0-6.86 0-6.86-5.63-.02-1 .27-3.5 2.7-5.82zm13.72 38.68c1.18 0 1.9 0 2.55-.5.3-.22 1.22-1.54 1.54-1.54.36 0 3 2.15 3 2.55 0 .43-.86.43-1.94.43H90.35c-.32 0-.57.14-.57.43 0 .6 3.02 5.35 3.73 5.35.47 0 3.73-2.94 4.24-4.3.25-.6.4-.97.6-.97.25 0 3.23 1.9 3.4 2.3v.1c0 .36-.14.36-1.4.5-1 .1-3.62 1.65-4.95 2.48-.93.57-1.04.6-1.04.83 0 .43 4.63 4.7 10.9 5.67.54.07.65.14.65.3s-.25.3-.6.43c-.86.4-1.54.9-2.37 1.5-.1.07-.6.54-.72.54-.3 0-4.27-1.72-7.2-4.67-1.1-1.1-1.22-1.26-1.62-1.26-.2 0-2.8.86-4.2 1.36l-10.77 3.66c-.14.1-.68.68-.83.8-.07.04-.14.04-.2.04-.4 0-.5-.18-1.36-1.76-.1-.18-.6-1-.68-1.18-.07-.14-.18-.4-.18-.54 0-.43.54-.43.93-.43 1.9 0 2.33 0 3.9-.25.6-.1.6-.4.6-1.22l-.04-8.22c0-1.3-.2-1.47-1.26-1.47-.83 0-2.76.1-3.48.14-.1 0-.43.04-.5.04-.14 0-.22-.07-.32-.22l-.72-.83c-.14-.14-.14-.18-.14-.25 0-.04.04-.07.14-.07.72 0 4.56.25 5.42.25 1.22 0 1.3-.36 1.3-1.4l-.07-9.22c-.04-.6-.36-3.7-.36-3.84 0-.1 0-.3.25-.3.3 0 1.97.72 2.37.9 1.04.47 1.5.47 2 .47h9.73c1.58 0 1.76 0 2.3-.6 1-1.18 1.1-1.33 1.44-1.33.22 0 3.34 1.94 3.34 2.37 0 .54-.72.54-1.9.54H84.7c-1.1 0-1.22.32-1.22 1.33 0 1.58 0 1.97 1.04 1.97h8.3c1.5 0 1.7 0 1.97-.25.25-.22 1.18-1.44 1.47-1.44.54 0 2.94 1.87 2.94 2.2 0 .43-.86.43-1.9.43H84.54c-1.04 0-1.04.65-1.04 1.36 0 1.87 0 2.3 1.1 2.3h8.33c1.47 0 1.62 0 1.94-.3.22-.22 1.18-1.4 1.47-1.4.54 0 2.94 1.87 2.94 2.2 0 .43-.86.43-1.87.43H84.6c-1 0-1.1.47-1.1 1.33 0 1.76 0 2.26 1.08 2.26h14.64zm-15.04.94c-.36 0-.86 0-1 .68-.04.18-.04 2.2-.04 2.7l.07 6.1c0 .5.04.86.57.86.47 0 5.78-1.26 7.07-1.65 1.5-.43 1.7-.5 1.7-.9 0-.07-.07-.18-.6-1.04-.9-1.5-1.97-3.88-2.5-5.1-.65-1.47-.72-1.65-1.44-1.65h-3.8zm-4.56 46.36l-3.98.1c-.1 0-.65.07-.75.07-.14 0-.2-.07-.32-.2l-.72-.83c-.14-.18-.14-.18-.14-.25s.07-.07.14-.07c.5 0 2.94.2 3.52.2.65 0 .9-.32.97-.8.04-.3.1-11.2.1-12.24 0-.6-.18-1.04-1-1.04-.25 0-1.54.14-1.76.14-.1 0-.18-.07-.32-.2l-.68-.83c-.14-.18-.14-.18-.14-.25s.07-.07.1-.07c.4 0 2.33.14 2.76.14 1.08 0 1.08-.47 1.08-1.4 0-.68 0-1.44-.04-2.08 0-.22-.07-1.3-.07-1.33 0-.25.2-.3.36-.3.07 0 2.9.43 2.9 1 0 .18-.25.32-.72.68-.2.14-.2 1.83-.2 2.33 0 1.18.54 1.18 1.26 1.18h2.7c.8 0 1.36 0 1.36-1.08 0-.5-.1-3.12-.1-3.7 0-.2.1-.32.32-.32.04 0 2.94.57 2.94 1.18 0 .14-.54.57-.6.72-.25.4-.25 1.9-.25 2.48 0 .32 0 .6.3.6.32 0 .6-.36.75-.5.57-.8.65-.86.93-.86.43 0 2.2 1.58 2.2 2 0 .4-.68.4-1.65.4h-1.3c-1.3 0-1.33.25-1.33 1.8v11.7c0 .18 0 .54.3.54.25 0 .57-.3.68-.5.6-1.08.68-1.18 1.1-1.18.54 0 2.08 1.97 2.08 2.26 0 .47-.47.47-1.33.47H79.62zm2.98 3.52c0 .36-.25.47-1 .83-.8.36-6.14 6.35-7.68 6.35-.14 0-.22-.07-.22-.14 0-.04 2.2-2.5 2.55-3.05.8-1.1 2.48-3.52 3.05-5.17.14-.43.25-.8.43-.8.32 0 1.1.54 1.47.75 1.26.82 1.4.93 1.4 1.22zm1.94-14.58c1.5 0 1.5-.3 1.5-2.66 0-1.3-.36-1.36-1.5-1.36H82.2c-1.5 0-1.5.3-1.5 2.66 0 1.3.36 1.36 1.5 1.36h2.34zm0 5.14c.86 0 1.5 0 1.5-1.08v-2.22c0-.9-.75-.9-1.5-.9H82.2c-.86 0-1.5 0-1.5 1.08 0 .25 0 2.12.04 2.2 0 .93.72.93 1.47.93h2.34zm-2.48.93c-.86 0-1.33.04-1.33 1.22v1.6c0 1.18.4 1.22 1.33 1.22h2.62c.86 0 1.33-.04 1.33-1.22v-1.58c0-1.22-.4-1.26-1.33-1.26h-2.62zm8.47 11.8c0 .68-.4 1.47-1.18 1.47-.83 0-1.1-.8-1.7-2.37-.43-1.1-.83-2-1.97-3.16-.14-.14-.6-.6-.6-.72a.13.13 0 0 1 .14-.14c.25 0 1.87.86 2.48 1.22.9.5 2.83 1.58 2.83 3.7zm10.55-26.38c.4 0 .72 0 .9-.1s.93-.86 1.18-.86c.3 0 2.55.97 2.55 1.65 0 .2-.14.43-.3.54-.5.43-.54.5-.65.68-.2.47-.2 5.13-.2 6.1l.18 16.65c0 .3.1 1.72.1 2.05 0 2.66-1.97 3.4-3.02 3.4-.47 0-.57-.07-.9-.57-.8-1.22-1.83-1.76-2.8-2.23-.04 0-.68-.32-.47-.4.18-.07 2.3 0 2.73 0 1.4 0 1.7-.18 1.83-.83.1-.54.1-6.53.1-7.6 0-1.36-.22-1.5-1.4-1.5h-4.1c-1.44 0-1.4.14-1.47 1.65-.22 5.74-4.06 11.74-4.85 11.74-.14 0-.18-.1-.18-.14 0-.14.32-.72.36-.86 2.58-5.8 2.58-12.02 2.58-17.23 0-6.7-.2-9.2-.54-11.27-.04-.3-.3-1.7-.3-1.76 0-.14.1-.22.25-.22.36 0 2.55.97 2.8 1.04.36.07.72.07 1.08.07h4.5zm-.03 7.97c.93 0 1.33-.07 1.33-1.18v-4.6c0-1.22-.47-1.22-1.4-1.22h-4.1c-1 0-1.4.07-1.4 1.3 0 .65.07 3.8.07 4.52 0 1.18.47 1.18 1.47 1.18h4.02zm-.1 8.07c.83 0 1.4 0 1.4-1.08.04-1.3.04-3.52.04-4.84 0-1.18-.54-1.22-1.36-1.22h-3.98c-.93 0-1.47 0-1.47 1.18l-.04 4.85c0 1.08.47 1.1 1.33 1.1h4.08z"/><path d="M79.58 363.97c0 3.37-1.65 5.24-3.34 5.24-1.1 0-1.44-1-1.44-1.72 0-1.15.54-1.36 2.26-2.05 1.15-.47 1.5-1.18 2.05-2.2 0-.04.14-.3.25-.3s.22.3.22 1zm1.76-22.5l-4.56.07a5.03 5.03 0 0 1-.75.11c-.1 0-.2-.1-.32-.25l-.68-.83c-.07-.1-.14-.18-.14-.22 0-.07.04-.1.1-.1.2 0 1.1.1 1.33.1l4.67.14c.36 0 .83-.36.83-.93 0-.43-.04-.9-.07-1.26l-.3-1.26c0-.43.5-.5.72-.5.2 0 3.1.57 3.1 1.18 0 .22-.1.36-.54.6-.4.25-.5.43-.5 1.44 0 .43.36.72.83.72h.65c1 0 1.47 0 1.76-.1.3-.14 1.26-1.54 1.58-1.54.54 0 2.12 1.58 2.12 2.08 0 .54-.68.54-1.94.54h-7.9zm4.45 9.55c.22 0 .57 0 .97-.18.14-.07.68-.54.86-.54.14 0 2.26 1.47 2.26 1.97 0 .14-.07.3-.25.32-.14.07-.83.25-.97.3-.04.04-2.83 1.65-3.05 1.76-.83.47-1.15.65-1.15 1 0 .18.18.4.54.4.83 0 6.03-1.08 6.03-.9 0 .5-5 1.97-5.85 2.23-.72.18-.72.68-.72 1.72 0 1.87-.1 2.33-.43 2.8-.72 1-1.94 1.44-2.22 1.44a.72.72 0 0 1-.36-.1c-.25-.22-1.15-1.54-1.4-1.76-.14-.14-1.08-.65-1.08-.86 0-.07.2-.07.36-.07l1.76.04c1.1 0 1.1-.18 1.1-1.94 0-.25-.3-.47-.6-.47-.1 0-3.48.6-3.77.72-.1.07-.75.54-.93.54-.47 0-1.44-2.9-1.44-2.98 0-.1.04-.14.18-.14.22 0 .68.07.8.07l3.8.1c1.54 0 1.94-.22 1.94-1.18 0-.2-.3-1.26-.3-1.5 0-.18.18-.22.36-.22.32 0 1.87.47 2.23.47.72 0 1.76-1.58 1.76-1.65 0-.4-.4-.4-.5-.4H82.5l-4.23.07c-.1 0-.97.1-1.04.1-.14 0-.2-.1-.32-.25l-.68-.83c-.14-.14-.14-.18-.14-.25s.07-.07.1-.07a22.55 22.55 0 0 1 1.58.14l4.92.1h3.1zm-.82-7.04c.5 0 .97-.1 1.26-.4.43-.43.57-.57.8-.57.32 0 1.94.83 1.94 1.47 0 .18-.57.86-.6 1.04V348c0 .8-.9 1.15-1.47 1.15-.5 0-.54-.1-.83-.54-.2-.36-.57-.36-.8-.36H80.3c-.32 0-.83.07-1 .5-.3.6-.47 1.08-1.3 1.08-.4 0-.9-.18-1-.72v-2.58c0-.5-.3-2.83-.3-3 0-.32.18-.47.54-.47.3 0 1.5.6 1.8.72a4.08 4.08 0 0 0 1.44.22h4.48zm-4.85.97c-.9 0-.9.57-.9 1.18s0 1.18.9 1.18h5.1c.86 0 .86-.57.86-1.18s0-1.18-.86-1.18h-5.1zm4.74 17.95c.5 0 2.8 1.36 2.8 3.45 0 1.15-.5 2.37-1.72 2.37-.75 0-.97-.47-.97-1.18l-.14-3.55c-.04-.18-.3-.9-.22-.97.03-.12.18-.12.25-.12zm13.42-18.13c-.18 0-.65 0-.93.5-.04.1-.32 2.62-.4 3.1l-.32 1.9c0 .43.14.8.4 1 .68.57 1.94 1.8 1.94 3.1 0 .57-.2 1.22-.75 1.22-.6 0-1.4-1.15-1.83-1.83-.07-.14-.14-.25-.36-.25-.3 0-.43.3-.54.54-2 5.13-7.64 7.54-8.15 7.54-.04 0-.1 0-.1-.07s.1-.18.22-.25c1.33-.93 1.97-1.58 3.1-2.87 2.7-3.1 3.48-6.35 3.48-6.68 0-.2-.07-.4-.14-.54-.07-.1-1.26-1.36-2.33-2.2-.57-.43-.83-.6-.83-.68 0-.04.04-.04.14-.04.3 0 1.3.22 1.83.5 1.08.57 1.18.65 1.33.65.4 0 .6-.36.65-.5.04-.5.4-2.87.4-3.4a.76.76 0 0 0-.72-.72c-.4 0-2.62.18-2.94.18-.1 0-.18-.07-.32-.2l-.68-.83c-.14-.18-.14-.18-.14-.25s.07-.07.1-.07c.57 0 3.3.2 3.95.2.57 0 .9-.54.9-.9 0-.97 0-3.48-.25-4.92-.04-.14-.32-.86-.32-1.04 0-.25.14-.32.4-.32.36 0 3.05.68 3.2.72.25.1.57.3.57.6 0 .14-.07.25-.25.4a9.19 9.19 0 0 1-.65.5c-.36.32-.47 3.6-.47 4.16 0 .2.1.83.83.83h2c.43 0 .9-.07 1.22-.43.6-.68.68-.75.9-.75.4 0 2.12 1.4 2.12 1.97 0 .18-.1.3-.32.43-.07.07-.54.32-.6.36-.57.43-.72 5.7-.72 6.46 0 2.12.43 5.53 1.22 5.53.57 0 1.65-3.66 1.94-5.1.04-.22.14-.32.2-.32.1 0 .1.18.1.25 0 .1-.5 3.95-.5 4.7 0 1.6.1 1.8.54 2.4.18.3.36.65.36.97 0 .47-.36.9-1.26.9-1.54 0-2.7-1.4-2.94-1.72-1.76-2.2-2-6-2-8.15a44.15 44.15 0 0 1 .3-4.52c.04-.18.18-1.1.18-1.33 0-.32-.18-.72-.93-.72h-1.8zm-1.83 22.3c0 1.15-.93 1.8-1.58 1.8-.83 0-.97-.6-1.26-2.37-.25-1.47-.4-1.97-.97-2.94-.04-.04-.14-.22-.1-.3.23-.35 3.92 1.12 3.92 3.8zm9.62-.07c0 1.04-.68 1.83-1.58 1.83-.83 0-.9-.3-2.08-2.9-.32-.72-1.15-1.94-1.72-2.76a.4.4 0 0 1-.07-.3c.1-.18 5.45 1.08 5.45 4.13zm-25.8 27.26c-.6 0-.93.25-.97.93-.22 3.95-.72 6.82-1.44 9.33-.9 3-2.98 5.96-3.62 5.96-.07 0-.18-.04-.18-.14 0-.14.07-.3.14-.43 1.22-2.15 1.72-4.67 1.97-6.03.57-3.4.8-6.9.8-10.34 0-2.83-.22-5.85-.3-6.53-.04-.3-.25-1.65-.25-1.97 0-.07 0-.2.1-.2.2 0 2.37 1.08 2.83 1.26.36.1.97.22 1.36.22h7.97c.2 0 .68 0 .68-.57 0-.07-.8-5.5-.83-5.7-.04-.04-.32-1.15-.32-1.18 0-.22.1-.3.36-.3.04 0 3.45.32 3.45 1 0 .14-.43.65-.57.8-.22.3-.25.5-.25 1 0 .65.43 4.3.5 4.5.04.07.22.47.93.47h6.2c1.5 0 1.7 0 2-.3.3-.25 1.26-2.05 1.65-2.05.36 0 3.45 2.33 3.45 2.76 0 .5-.75.5-1.94.5H92.65c-.4 0-.68.1-.68.54 0 1.87 2.44 11.13 3.2 11.13.36 0 2.83-5.38 3.3-7.68.1-.54.2-1.08.4-1.08.14 0 .3.07 1.7.86 1.18.65 1.33.75 1.33 1.1 0 .14-.07.3-.18.43-.1.1-.68.5-.8.6-.36.32-2.55 4.7-3 5.6-.2.4-1.3 2.2-1.3 2.44 0 .5 4.63 5.46 6 5.46.57 0 1.15-.97 1.94-2.3.18-.3 1.04-1.76 1.15-1.76s.1.22.1.3c0 .14-.57 3.23-.57 3.84 0 .22 0 .5.22 1.08.43 1.04.5 1.15.5 1.4 0 1.04-.9 1.18-1.22 1.18-2.26 0-5.8-2.76-8.8-6.2-.68-.75-.75-.86-.93-.86s-1.58 1.5-1.9 1.8c-3.4 3.12-7.25 4.7-7.72 4.7-.04 0-.18 0-.18-.1s3.3-2.7 3.9-3.23c2.4-2.15 4.52-4.74 4.52-5.17 0-.14-.04-.25-.14-.43-1.72-3.52-2.73-7.32-3.4-11.16-.36-2.12-.43-2.48-1.4-2.48h-8.2c-.32 0-.97 0-1.04.8-.04.68-.07 3.55-.07 4.27 0 .43 0 1.04 1.04 1.04h2.55c.32 0 .68-.04.93-.22.14-.1.83-.97 1.08-.97.2 0 2.26 1.65 2.26 1.94 0 .18-.75.8-.83.97-.07.14-.2 4.92-.2 5.35-.1 3.95-.68 7.8-3.8 7.8-.25 0-.4-.1-.54-.36-.3-.57-.43-.86-.83-1.18-.32-.25-2.26-1.26-2.26-1.4 0-.1.14-.14.3-.14.43 0 2.5.25 2.98.25.8 0 1.44-.32 1.72-2.55.1-1.04.3-2.26.3-7.4 0-.57-.07-1.15-1.08-1.15h-2.7zm19.84-11.3c0 .75-.32 1.47-1.3 1.47-.5 0-.65-.43-.9-1.15-.3-.8-1.33-2.37-1.94-3.12-.14-.2-.18-.32-.1-.4.15-.18 4.24.64 4.24 3.2zm-9.8 42.94c0 .1.07.25.07.4.14 1.15.36 2.3.36 3.88 0 2.4-.54 5.74-3.7 10.52-2.87 4.38-4.7 5.24-6.14 5.24-2.37 0-4.5-3.7-4.5-8.08 0-1.9.4-5.53 3.98-9.15 4.56-4.67 9.37-4.67 11.45-4.67 3.27 0 4.77.65 5.78 1.15 3.88 1.9 6.24 5.74 6.24 10.44 0 4.67-2.7 10.4-9.04 12.63-3.05 1.08-5.42 1.33-5.96 1.33-.14 0-.36-.04-.36-.25 0-.1.07-.14.97-.5 3.73-1.47 11.52-4.56 11.52-13.5 0-1.4-.14-9.94-9.94-9.94-.7-.01-.74.28-.74.5zm-11.67 11c0 2.33.93 5.53 3.12 5.53 1.04 0 1.9-.43 4.38-4.16 1.9-2.9 3.52-6.9 3.52-10.44 0-2.15-.14-2.33-.6-2.33-3.4-.01-10.4 4.62-10.4 11.4zM29.82 9.2c.4 0 .83-.04 1.08-.32.4-.47.68-.83.9-.83.14 0 2.33 1.6 2.62 1.83.72.54 1 .8 1 1.3 0 .8-.22.8-2.4.8-1.26 0-2.08.5-3.52 1.4l-1.3.72c-.07 0-.1-.07-.1-.1 0-.22 1.76-2.76 1.76-3.27 0-.1-.07-.57-.75-.57H8.43c-.86 0-.93.43-1.08 1.26-.3 1.47-1.3 3.2-2.66 3.2-.36 0-1.65-.25-1.65-1.44 0-.43.07-.68.68-1.4C4.84 10.4 5.4 9.22 5.67 8c.03-.2.2-1.1.28-1.1.18 0 .72 1.1.83 1.33.4.86.43.97 1.33.97h8.5c1.15 0 1.15-.25 1.15-2.55 0-.4-.07-1.08-.2-1.8-.04-.18-.3-.9-.3-1.08 0-.14.1-.22.32-.22s3.34.6 3.37.65c.25.07.5.22.5.57 0 .22-.47.86-.6 1.04-.22.32-.32.43-.32 1.94 0 1.26.22 1.44 1.1 1.44h8.2zM16.54 21.86c-.36 0-.75.04-.75.3 0 .22.25.32 1.04.6.25.1.86.4.86.93 0 .36-.07.4-.68.72-.36.18-.36.25-.8 2.48-1.22 6.45-8.3 8.93-12 8.93-.25 0-.25-.14-.25-.18 0-.1.1-.1.93-.4 1.44-.47 4.95-1.65 7.32-5.2 1.47-2.2 1.65-3.77 1.94-6.32 0-.22.07-.75.07-1 0-.4-.04-.86-1.15-.86h-3.5c-.8 0-3.27 0-4.52.07-.1 0-.65.1-.75.1-.14 0-.2-.1-.32-.25l-.7-.83c-.14-.14-.18-.18-.18-.22 0-.07.07-.1.14-.1.25 0 1.36.1 1.58.14a115.37 115.37 0 0 0 4.92.11h17.6c1.47 0 1.65 0 1.94-.3.3-.25 1.4-1.83 1.76-1.83.32 0 3.4 2.08 3.4 2.55 0 .54-.72.54-1.94.54h-8.3c-1.04 0-1.04.4-1.04 1.54l.07 8.3c.1 1.15.47 1.26 3.8 1.26 4.06 0 4.1-.07 5-3.34l.5-1.97c.04-.18.07-.3.2-.3.1 0 .18.07.18.18 0 1.08 0 2.9 1.26 4.16.54.5.68.68.68 1.08 0 .83-.72 1.6-1.62 1.97-.68.3-1.87.8-7.36.8-4.2 0-5.24-.4-5.24-4.38v-8.18c-.04-1-.54-1.1-1.18-1.1H16.5zm5.8-6.68c1.22 0 1.3 0 1.62-.65.25-.47.75-1.47 1.15-1.47.25 0 2.9 1.76 2.9 2.5 0 .57-.57.57-1.9.57H15.8c-.83 0-3.27 0-4.52.07a5.98 5.98 0 0 1-.79.11c-.1 0-.18-.07-.3-.25l-.72-.83c-.14-.14-.14-.18-.14-.22 0-.07.04-.1.1-.1.25 0 1.36.14 1.62.14 1.62.07 3.23.1 4.92.1h6.33z"/><path d="M13.92 68.06l-3.4.07c-.14.04-.68.1-.83.1-.1 0-.22-.07-.36-.2l-.75-.83a.52.52 0 0 1-.11-.25c0-.04.04-.07.1-.07.14 0 .9.1 1.04.1l4.2.14h2.8c.32 0 .97 0 .97-1l-.04-5.02c-.14-.8-.72-.8-1-.8h-1.18l-3.2.07a5.35 5.35 0 0 1-.75.1c-.07 0-.25-.14-.32-.2l-.72-.83a.52.52 0 0 1-.11-.25c0-.04.04-.07.1-.07.14 0 .83.1.97.1l3.9.14h6.7c1.26 0 1.36-.04 1.72-.6.72-1.22.83-1.33 1.22-1.33.54 0 2.73 2 2.73 2.37 0 .5-.54.5-1.44.5h-5c-.57 0-1.04.25-1.04 1.08l-.04 4.8c0 .93.68.93 1.1.93h1.58c1.3 0 1.44 0 1.87-.6.8-1.22.86-1.33 1.3-1.33.57 0 2.94 2 2.94 2.37 0 .5-.57.5-1.58.5h-6.07c-.4 0-1.15 0-1.15 1l.04 5.06c.04.6.4.93 1.04.93h5.56c1.6 0 1.8 0 2.3-.6 1-1.18 1.1-1.33 1.47-1.33.2 0 3.34 1.9 3.34 2.37 0 .5-.72.5-1.9.5H9.94l-4.52.1c-.14 0-.65.07-.75.07-.14 0-.22-.07-.32-.22l-.68-.83c-.14-.18-.18-.18-.18-.25s.07-.07.14-.07c.25 0 1.36.1 1.58.1l4.92.14h6.46c.75 0 1-.5 1-1v-5.2c-.14-.8-.75-.8-.97-.8h-2.7zM20.1 46.1c.86.47.97.5.97.86 0 .3-.07.32-.68.47-.1.04-.1.18-.1.25 0 .54 4.3 7 12.56 10.26.47.18 2.87.9 2.87 1.08 0 .25-1.22.43-1.44.5-.6.22-.8.36-1.8 1.22-.1.1-.47.43-.72.43-.57 0-5.38-3.73-8.04-6.82-2.37-2.76-2.7-3.3-3.88-5.3-.1-.18-.4-.54-.57-.54-.2 0-.57.5-1.4 1.5-3.2 4.02-6.75 7.82-11.13 10.48-.6.36-2.48 1.5-2.94 1.5-.07 0-.25-.04-.25-.14 0-.18.47-.54.72-.72 7.03-4.73 11.66-13.06 11.9-13.53.25-.4 1.22-2.73 1.26-2.73.28-.14 1.32.47 2.65 1.23zM8.03 100.5c-.57 0-.6.18-.68.86-.14 1.5-1.33 3.7-2.87 3.7-.65 0-1.18-.54-1.18-1.26 0-.6.14-.8 1.44-2.37.22-.25.93-1.15 1.47-3.2.07-.3.1-.36.18-.36.2 0 .65.8.68.9.25.57.3.75 1 .75H29.7c.25 0 .65-.04.9-.14.22-.1.9-.83 1.08-.83.5 0 3.37 2.44 3.37 3.16 0 .43-.36.57-.6.57-.2 0-1.1-.14-1.3-.14-.72 0-1.3.22-2.9 1.26-.1.07-.75.5-.86.5s-.18-.07-.18-.2c0-.18 1.18-2.26 1.18-2.73 0-.36-.3-.47-.68-.47H8.03zm2.1 3.95c-.14-.14-.14-.18-.14-.22 0-.07.04-.1.1-.1a22.61 22.61 0 0 1 1.62.14l4.92.1h5.78c.43 0 .9 0 1.3-.57.57-.86.68-1 1.1-1 .6 0 3.2 1.58 3.2 2.12 0 .43-.3.5-1.58.86-.47.14-.68.36-1.04.9a26.77 26.77 0 0 1-3.3 4.1c-.65.68-.72.75-.72 1 0 .83 4.3 2.55 4.84 2.73 1.97.68 6.28 1.33 6.7 1.33l1.94-.04c.3 0 .43.14.43.25 0 .25-1.08.6-1.26.72-.86.47-1.54 1-2.08 1.76-.18.25-.43.6-.68.6s-5.78-1.26-10.48-4.92c-.75-.57-1-.8-1.26-.8-.5 0-2.4 1.47-2.8 1.7-5 2.94-7.86 3.6-9.3 3.88-.9.18-1.83.4-2.73.4-.07 0-.3 0-.3-.18s.1-.22 1.18-.5c3.27-.93 6.14-2.3 8.6-4.02 1.1-.75 3.62-2.55 3.62-3.2 0-.25-1.54-2.58-1.8-3.1l-1.26-2.55c-.2-.4-.43-.5-.97-.5-.36 0-2.37.18-2.7.18-.1 0-.18-.1-.3-.25l-.7-.84zm21.2-15.65c.57.32 1 .57 1 .97 0 .36-.32.47-.57.47-.14 0-.8-.07-.93-.07-1.08 0-2.7.14-4.77.4-5.24.57-10.48 1-15.76 1H8.18c-.4 0-.65-.14-.65-.25 0-.14.65-.25.83-.25 2.8-.3 10.4-.93 16.65-2.98.43-.14 2.58-1.08 2.7-1.08.14.01 3.23 1.6 3.63 1.8zm-18.6 10.27c-1.1 0-1.22-.65-1.65-2.76-.18-.97-.72-2.3-1.04-2.9-.07-.1-.43-.6-.43-.72s.07-.22.25-.22c.47 0 4.34 2.8 4.34 5.1 0 .9-.65 1.5-1.47 1.5zm3.7 6.28c-.97 0-1.08 0-1.08.25 0 .57 2.87 4.52 3.8 4.52.75 0 3.6-3.95 3.6-4.4 0-.36-.36-.36-.6-.36h-5.7zm4.1-6.46c-1.04 0-1.08-.32-1.47-3.34-.1-.8-.36-1.7-.6-2.26-.04-.04-.4-.86-.4-.9 0-.18.14-.25.25-.25.47 0 3.62 2.87 3.62 5.06.01.22.01 1.7-1.4 1.7zm4.45-.47c.9-2 1.65-4.06 2.2-6.17.25-1 .3-1.1.54-1.1.22 0 3.05 1.4 3.05 2 0 .3-.1.47-.68.68-.97.4-1.36.83-2.2 1.97-1.15 1.58-2.98 3.7-3.2 3.4-.08-.04.25-.75.28-.8zM8.2 141.6c0 .65-.43 1.4-1.15 1.4-.57 0-.68-.14-1.72-1.62-.57-.86-1.58-1.97-2.76-3-.07-.07-.5-.36-.5-.43 0-.1.1-.1.25-.1 1.1 0 5.88.8 5.88 3.77zm2.52-.86c0 .25-.75 2.58-.9 3.05-1.65 5.78-2.2 7.68-2.2 9.73 0 .86.04 1 .5 3.27.14.68.25 1.4.25 1.8 0 1.47-1.08 2.08-1.8 2.08-1.44 0-1.44-1.47-1.44-2.05 0-2.4 0-4.23-1.4-5.42-.14-.1-1.04-.65-1.04-.72 0-.18.36-.18.47-.18 1.7 0 1.83 0 5.67-8.36.32-.68 1.36-2.98 1.58-3.27.07-.1.18-.14.2-.1.08.05.08.12.08.2zm.7-6.75c0 1.1-.8 1.58-1.3 1.58-.8 0-1.1-.54-2.3-2.4-.97-1.47-1.44-1.94-2.23-2.76-.22-.22-.36-.36-.36-.5s.1-.18.3-.18c.8-.01 5.9 1.35 5.9 4.26zm8.22 13.82c-.65 0-2.87 0-4.34.07-.14 0-.93.1-.97.1-.07 0-.18-.1-.2-.18l-.8-.9c-.14-.14-.14-.18-.14-.22 0-.07.07-.07.14-.07.25 0 1.36.1 1.58.1l4.92.14h.68c.93 0 .93-.8.93-1.18l-.04-7.1c0-.47-.07-1.15-.93-1.15h-2.5l-3.8.04c-.22.04-1.22.14-1.44.14-.1 0-.18-.04-.22-.1l-.86-.97c-.14-.14-.14-.18-.14-.22 0-.07.07-.1.14-.1.25 0 1.36.1 1.58.14a90.96 90.96 0 0 0 4.88.11h10.4c1.76 0 1.97-.3 2.3-.93.75-1.44.8-1.62 1.15-1.62.5 0 3.23 2.55 3.23 3.05 0 .47-.18.47-1.87.47h-8.1c-.36 0-.83.04-1 .43-.1.3-.14 3.37-.14 4.16l.04 4.02c.07.47.32.83.9.83h2c1.9 0 2.12 0 2.7-.86.75-1.15.83-1.26 1.15-1.26.54 0 2.84 2.33 2.84 2.66 0 .4-.22.4-1.9.4h-6.78c-.93 0-.93.83-.93 1.04l-.04 8.08c0 .4 0 1.04.97 1.04h4.02c1.54 0 1.97 0 2.66-1.33.47-.93.68-1.22 1.04-1.22.72 0 3.37 2.76 3.37 3 0 .5-.75.5-1.9.5H16.6l-3.77.04c-.25.04-1.26.14-1.47.14-.14 0-.18-.04-.3-.18l-.8-.9c-.14-.14-.14-.18-.14-.2 0-.07.07-.1.14-.1a22.61 22.61 0 0 1 1.62.14l4.88.1h3.48c1.08 0 1.18-.18 1.18-3.88v-5.35c0-.18-.04-.93-.93-.93h-.86zm5.64-13.9c0 1.22-.97 1.76-1.7 1.76-.9 0-1-.25-1.87-2.44-.22-.5-.8-1.97-2.12-3.37-.83-.86-.9-.97-.9-1.08 0-.07.04-.14.1-.14.15-.04 6.47 1.9 6.47 5.27zm-8.48 44.15c1.1 0 1.1-.43 1.1-2.22 0-2.48-.14-3.55-.22-4.2l-.3-1.15c0-.18.14-.25.4-.25s3.88.36 3.88 1.26c0 .22-.75.9-.86 1.08-.25.54-.32 3.37-.32 4.13 0 .93.04 1.36 1.15 1.36h4.63c1.65 0 1.83 0 2.3-.6 1.08-1.47 1.18-1.6 1.5-1.6.4 0 3.27 2.4 3.27 2.73 0 .47-.83.47-1.9.47H21.6c-.4 0-.9 0-1.08.6-.07.3-.07 5.9-.07 6.93 0 1.1.07 1.54 1.18 1.54h3.55c1.7 0 1.87 0 2.3-.6 1.1-1.47 1.22-1.6 1.54-1.6.4 0 3.27 2.4 3.27 2.73 0 .47-.83.47-1.94.47h-8.7c-1.04 0-1.15.36-1.15 1.22l.07 8.97c.14.54.57.6 1.15.6h6.57c1.65 0 1.83 0 2.3-.6 1.08-1.47 1.18-1.65 1.5-1.65.4 0 3.27 2.4 3.27 2.73 0 .47-.83.47-1.9.47H9.65l-4.52.1c-.14 0-.65.07-.8.07-.1 0-.18-.07-.3-.22L3.3 200c-.14-.18-.14-.18-.14-.25s.04-.07.14-.07c.22 0 1.33.1 1.58.1l4.92.14h6.85c.65 0 1.18 0 1.18-1.3v-8.65c0-.43-.22-.86-1.04-.86h-4.2l-4.52.07a5.55 5.55 0 0 1-.75.1c-.14 0-.22-.1-.32-.25l-.72-.83c-.1-.14-.14-.18-.14-.22 0-.07.04-.1.14-.1.25 0 1.33.1 1.58.14l4.92.1h3.98c1.08 0 1.08-.54 1.08-1.1V180c-.07-.68-.4-.93-1.04-.93h-5.9c-1.1 0-1.18.1-2.08 1.6-1.97 3.3-4.4 6.25-5 6.25-.14 0-.18-.1-.18-.22 0-.07.57-1.15.9-1.72 3.95-7.3 4.63-11.92 4.74-12.63.07-.68.14-.75.2-.75s3.52 1.4 3.52 2c0 .3-1.15 1.08-1.3 1.3-.2.3-1.15 2.4-1.15 2.73 0 .47.43.47.9.47h5.3z"/><path d="M27.95 223.4c1.72 0 1.87-.04 2.66-1.26.36-.54.75-.97.97-.97.43 0 3 2.5 3 2.7 0 .4-.4.5-1.94.5H9.3c-1.08 0-1.15.4-1.15 1.5 0 6.42-.04 9.37-1.1 12.78-.9 2.8-3.12 5.2-3.6 5.2-.1 0-.1-.1-.1-.14 0-.14.6-1.22.72-1.47 1.08-2.4 1.76-5 1.76-11.88 0-1.62-.04-3.45-.32-5.85-.04-.3-.3-1.54-.3-1.83 0-.1.1-.14.18-.14a92.74 92.74 0 0 1 2.37.65 5.61 5.61 0 0 0 1.54.2h11.23c.9 0 1.3 0 3.37-3 .83-1.18 1.54-2.94 1.54-3.45 0-.4-.18-.4-.86-.4H11.95c-2.94 0-3.95.04-4.52.07-.14 0-.65.1-.75.1-.14 0-.22-.1-.32-.25l-.72-.83c-.1-.14-.14-.18-.14-.2 0-.07.04-.1.14-.1.25 0 1.33.14 1.58.14a106.19 106.19 0 0 0 4.92.1h4.8c1.04 0 1.04-.68 1.04-1.22s-.04-1.33-.07-1.54c0-.14-.18-.75-.18-.86 0-.18.18-.25.32-.25.5 0 3.27.18 3.27.8 0 .14-.5.6-.57.72-.14.32-.22.86-.22 1.18 0 .43 0 1.18 1 1.18h5.3c1.65 0 2.05-.04 2.33-.47.93-1.4 1-1.54 1.26-1.54.4 0 3 2.15 3 2.48 0 .4-.43.5-1.9.5H27.4c-.32 0-.8 0-.8.36 0 .25.07.32.93 1 .68.57.93.8.93 1.1s-.18.32-.68.43c-.2.04-4.95 3.12-4.95 3.73 0 .2.36.2.54.2h4.55zm-9.58 6.64c1.08 0 1.1-.5 1.1-1.36 0-.6-.04-1.6-.14-2.3 0-.1-.1-.65-.1-.75 0-.14.04-.32.22-.32.32 0 3.7.86 3.7 1.5 0 .22-.72.86-.83 1-.22.32-.25.83-.25 1.1 0 .57.1 1.1 1.08 1.1h2.2c1.44 0 2-.04 2.33-.5.97-1.47 1.08-1.65 1.36-1.65.36 0 2.9 2.33 2.9 2.66 0 .36-.36.43-1.9.43H23.1c-1.08 0-1.08.5-1.08 2.26 0 2.05 0 2.4 1.04 2.4h2c1.83 0 2.2-.07 2.66-.9.4-.65.6-1.04.9-1.04s2.73 2.12 2.73 2.4c0 .43-.43.47-1.94.47h-6.2c-.72 0-1.1.18-1.1 1.15 0 4.27.1 4.27 1.1 4.27h4.4c1.47 0 1.97-.1 2.5-1.04.4-.72.65-.97.97-.97.54 0 3.12 2.15 3.12 2.48 0 .5-.36.5-1.9.5H13.96c-3.12 0-4.16.07-4.52.1-.1 0-.65.07-.75.07-.14 0-.22-.1-.32-.25l-.68-.8c-.14-.18-.18-.22-.18-.25 0-.07.07-.1.14-.1.25 0 1.36.14 1.58.14l4.92.14h4.38c1 0 1-.54 1-2.15 0-.54 0-2.58-.1-2.87-.18-.43-.72-.43-1.04-.43h-1.3c-3.16 0-4.2.07-4.56.1-.1 0-.65.07-.75.07s-.18-.07-.32-.2l-.68-.83c-.14-.18-.14-.18-.14-.25 0-.04.04-.07.1-.07.25 0 1.36.1 1.58.1l4.95.14h1.18c.36 0 1.08 0 1.08-.9 0-.5 0-3-.1-3.27-.22-.5-.68-.5-1.04-.5h-3.73c-1.08 0-1.15.1-1.9 1.3-.65 1-3.12 4.4-3.55 4.4-.07 0-.18-.07-.18-.18 0-.07.54-1.04.65-1.22.86-1.94 2.4-5.8 2.4-7.6 0-.14-.1-.72-.1-.86 0-.18.1-.32.32-.32.14 0 3.23.97 3.23 1.54 0 .22-.83.9-.93 1.08-.22.3-.3.43-.3.6 0 .32.25.32.54.32h3.53zm-2.5-8.8c0 .9-.6 1.58-1.4 1.58-1.08 0-1.3-.8-1.76-2.55-.22-.75-.75-1.87-1.22-2.4-.07-.04-.25-.25-.25-.4 0-.18.18-.32.54-.22.6.22 4.1 1.52 4.1 4zM5.63 265.7c0-.14.14-.3.32-.3.1 0 1.97.5 2.37.5 1.04 0 5.96-1.04 6.03-1.08.6-.43.65-4.06.65-4.24 0-.93-.07-2-.9-3.05-.54-.65-.6-.72-.6-.83 0-.25.43-.3.57-.3 2.4 0 3.8 1.36 3.8 2.3 0 .04-1.36 4.63-1.36 5.3 0 .22.14.32.4.32.18 0 1.83-.18 2.12-.18 2.7 0 4.77 1.3 4.77 4.6 0 2.84-1 9-3.1 11.52-1 1.18-2.44 2.2-3.66 2.2-1.33 0-1.7-1.26-2.12-2.48-.07-.25-.47-1.08-.47-1.18s.07-.18.18-.18c.14 0 .8.2.9.25.75.18 1.47.25 1.83.25 1.04 0 2.37-.5 3.4-4.38.4-1.44 1.1-4.34 1.1-6.25 0-2.5-1.44-2.7-2.48-2.7-1.15 0-3.2.54-3.45.86-.14.18-.18.32-.54 1.54-1.44 4.88-4.92 13.7-7.82 13.7-.8 0-1.15-.5-1.15-1.15 0-.75.25-1.04 2.4-3.4.97-1.08 2.48-2.73 4.42-8.1.14-.36.5-1.44.5-1.7 0-.1-.04-.3-.25-.3-.8 0-4.13 1.44-4.84 1.44-1.38.04-3.03-2.22-3.03-3zm24.9 7.6c-.4 0-2.05-.93-2.44-1.08-.25-.07-1.15-.1-1.15-.25 0-.2 1.18-.83 1.4-1 1.33-1 1.47-1.1 1.47-2.08 0-.6-.25-2.94-2.9-4.13-.3-.14-.86-.4-.86-.54 0-.2.14-.2.25-.2 4.6 0 6.25 4.52 6.28 6.35 0 .43-.54 2.94-2.04 2.94zm1.65-12.02c0 .6-.43 1.4-1.04 1.4-.5 0-.8-.22-1.9-1.54-.72-.86-1.08-1.1-2.55-2.12-.18-.1-.54-.4-.54-.54 0-.1.3-.32.6-.32 4.6 0 5.42 2.7 5.42 3.12zm2.87-3c0 .43-.3 1.04-.9 1.04-.8 0-1.18-.47-1.9-1.3-.57-.6-2-1.47-3.2-1.9-.36-.1-.47-.25-.47-.36 0-.3.86-.5 1.3-.5 4.45-.01 5.17 2.32 5.17 3zm-8.57 48.02c.54 0 .93-.32.93-.93 0-.3-.04-.83-.1-1.08 0-.1-.32-.6-.32-.72 0-.2.25-.3.4-.3.14 0 2.5.36 2.5 1.04 0 .18-.3.86-.3 1.04 0 .93.75.93.9.93.25 0 .72-.18.9-.47.5-.8.57-.86.8-.86.32 0 2.05 1.22 2.05 1.72 0 .54-.6.54-1.94.54h-1.76c-1 0-1 .72-1 1.33 0 1.44 0 1.65.72 1.65a1.35 1.35 0 0 0 1.04-.57c.5-.83.54-.9.75-.9.3 0 2.05 1.26 2.05 1.87 0 .57-.6.57-1.94.57h-1.7c-.93 0-.93.65-.93 1.8 0 .75 0 1.4.83 1.4.25 0 .65-.04.9-.3.22-.2.97-1.36 1.22-1.36.18 0 2.48 1.44 2.48 2.08 0 .54-.68.54-1.72.54h-6.4c-.2 0-.68.07-.68.43 0 .72 1.44 3.3 2 3.3s1.5-1.33 1.83-2c.1-.18.3-1.1.47-1.1.3 0 2.4 1.22 2.4 1.8 0 .2-.07.2-.83.36-.25.04-3.05 1.33-3.05 2 0 .75 2.9 2.94 5.85 4.52.2.1 1.26.43 1.26.6 0 .14-.14.14-.25.14-.14 0-1.58.14-1.83.36-.14.1-.57.68-.68.8-.07.07-.2.1-.3.1-.72 0-3.27-2.37-4.3-3.8-.5-.68-.75-.8-.97-.8-.32 0-.47.07-1.47.68l-6.93 3.9c-.2.18-.75.6-.9.6-.68 0-1.72-2.44-1.72-2.62 0-.1.07-.14.2-.14.68 0 1.26 0 2.55-.4.9-.3 1-.68 1-1.97 0-2-.18-2.08-.47-2.08-.07 0-2.44 1.08-2.87 1.26-.6.2-.9.4-.9 1.1v2.5c-.14.75-1.33 1.04-1.7 1.04s-.68-.1-.68-.83c0-.93 0-1.5-.9-1.5h-5.7c-.9 0-.9.65-.93 1.4 0 .65-.07 1.65-1.5 1.65-.9 0-.97-.47-.97-.75 0-.18.18-1.83.18-2.15.18-3.84.32-7.43.32-15.54 0-1.22-.04-3.77-.22-4.88 0-.1-.1-.57-.1-.65 0-.14.04-.36.25-.36s2.37 1.4 2.87 1.4c.83 0 .83-.72.83-1.08v-3.34c0-1-.65-1.04-1.1-1.04-.4 0-2.55.14-2.83.14-.1 0-.22-.14-.25-.18l-.6-.86-.14-.18c0-.07.07-.07.1-.07.18 0 .97.07 1.15.07 1.22.07 3.27.14 4.5.14h3.34c.8 0 1.3 0 1.5-.1.4-.18 1.54-1.9 1.94-1.9.47 0 2.04 1.8 2.04 2.37s-.43.57-1.7.57H13.9c-.83 0-.9.65-.93 1-.04.5-.07 2.8-.07 3.4 0 .25 0 1.08.83 1.08.4 0 .68-.3.83-.5.43-.54.5-.6.75-.6.36 0 1.94.93 1.94 1.44 0 .25-.04.32-.57.93-.18.18-.18.36-.18 1.8l-.18 13.6c0 .25.1.43.43.43.4 0 5.1-4.2 5.1-5.17 0-.36-.57-.36-.75-.36-.65 0-2.05.07-2.73.1-.07.04-.4.07-.47.07-.1 0-.18-.07-.32-.2l-.68-.83c-.14-.18-.14-.18-.14-.25s.04-.07.1-.07c.57 0 2.98.18 3.48.18.83 0 .83-.83.83-1.3 0-1.26 0-1.83-.93-1.83-.3 0-1.8.14-2 .14-.1 0-.18-.07-.32-.25l-.68-.83c-.14-.14-.14-.18-.14-.22 0-.07.04-.07.1-.07.5 0 2.66.18 3.1.18.86 0 .86-.8.86-1.1 0-1.15 0-1.76-.97-1.76-.25 0-1.62.1-1.8.1-.1 0-.18-.07-.32-.22l-.68-.83c-.1-.1-.14-.18-.14-.25 0-.04.07-.07.1-.07.43 0 2.33.18 2.73.18.32 0 1 0 1-.93 0-.25-.18-1.22-.18-1.4 0-.2.18-.3.36-.3.36 0 2.48.47 2.48.9 0 .14-.36.75-.36.86 0 .6.4.93.93.93h2.15zm-13.2 16.4c.83 0 1.04-.18 1.04-4.23 0-.3-.04-.97-.9-.97H7.24c-.86 0-.93.72-.93.97l.04 3c0 .47 0 1.22.9 1.22h6.02zm.22-6.14c.97 0 .97-.43.97-4.06 0-.86-.1-.86-.22-.86s-.57.32-.68.36c-.18.07-.54.1-1.04.1-1.22 0-1.33-.6-1.33-1.4V306c0-.83-.14-1.26-.75-1.26s-.65.5-.68 1.22c-.18 3.62-.54 4.84-2.15 6.75-1.15 1.36-1.26 1.54-1.26 2.73 0 .3 0 1.1.93 1.1h6.2zm-7.1-3.98c0 .07.04.3.18.3.1 0 1.44-.65 1.44-7.1 0-.43 0-1-.68-1s-.8.54-.83.72c-.04.36-.1 4.67-.1 5.35v1.75zm4.8-10.84c0-3.4-.18-3.45-.72-3.45-.5 0-.6.25-.6 1.94L9.9 303c.04.5.22.8.57.8.72 0 .72-1.04.72-2.04zm3.1 7.97c.2 0 .2-.54.2-.65.04-.86.04-2.2.04-3.16 0-.36 0-1.15-.86-1.15-.8 0-.8.25-.8 2.37l.04 2.73c0 .14.07.4.3.4.36 0 .36-.32.36-1.26 0-.04 0-.14.04-.14.07 0 .4.68.5.75.02.04.1.12.17.12zm14.68-10.63c1.7 0 1.9 0 2.15-.5.54-1.15.6-1.26.9-1.26.57 0 2.33 1.76 2.33 2.2 0 .54-.65.54-1.94.54H23.2c-.83 0-3.27 0-4.52.07a5.55 5.55 0 0 1-.75.1c-.14 0-.22-.1-.32-.25l-.68-.83c-.14-.14-.18-.18-.18-.2 0-.07.04-.1.14-.1.25 0 1.33.1 1.58.14.25 0 2.87.1 4.4.1 1.08 0 1.08-.6 1.08-1.58 0-.5-.07-.97-.22-1.36-.04-.1-.3-.54-.3-.6 0-.14.22-.14.3-.14.04 0 3.66.47 3.66 1.08 0 .18-.75.83-.8 1-.04.14-.04.54-.04.68 0 .65.4.93.93.93h1.48zm-10.6 4.45c.72-.54 2.12-2.05 2.58-2.7.22-.32.36-.5.5-.6a56.71 56.71 0 0 1 1.65.97c.25.14.57.32.57.65 0 .36-.32.4-1.08.5-.07 0-4.7 2.55-5.06 2.05-.1-.18.55-.65.84-.87zm6.96 18.7c1.18-.47 2-.75 2-1.36 0-.1-1.54-3.88-1.76-4.63-.04-.14-.18-.54-.43-.54-.18 0-1.58 1.47-1.94 1.83-.9.93-1.04 1.18-1.04 2.44v1.9c0 .75.04 1.15.4 1.22.3.04.44 0 2.77-.86zm-1.1-15c-.9 0-.9.75-.9 1.08 0 1.33 0 1.9.93 1.9h2.3c.93 0 .93-.6.93-1.76 0-.47 0-1.22-.93-1.22h-2.33zm.04 3.95c-.93 0-.93.5-.93 2 0 .47 0 1.22.93 1.22h2.33c.93 0 .93-.6.93-1.9 0-.57 0-1.33-.93-1.33h-2.33zm2.8-10.66c.75 0 3.3.57 4.16.8.4.1 2.15.57 2.15 2.08 0 .5-.32.83-.65.83s-5.96-3.34-5.9-3.6c.06-.08.13-.1.23-.1zm-19.55 45.9c2.48 0 7.14-.75 9.76-1.22 1.87-.32 2.08-.36 2.08-1.3 0-1.76-.2-3.95-.5-4.88-.04-.18-.6-.83-.6-1 0-.25.54-.25.75-.25 1.58 0 2.98.65 2.98 1.8 0 .18-.14.93-.14 1.1 0 .83 1.04 1.36 3.16 2.26.9.36 1.83.72 3.16.72.36 0 1.87-.18 2.15-.18.47 0 2.05.14 2.05 1.4 0 .93-.68 1.26-1.94 1.26-.75 0-4.1-.32-4.77-.32-.86 0-3.2.07-3.88.36-.5.2-.57.72-.57 3.88 0 1 .04 1.26.47 2.33.6 1.5 1.04 2.73 1.04 4.85 0 6.96-5.42 11.4-6.53 11.4-.07 0-.18-.04-.18-.14 0-.07 1.47-1.8 1.72-2.15.93-1.4 2-3.73 2-5.28 0-.1 0-.5-.36-.5-.1 0-.65.07-.75.07-1.94 0-3.66-1.83-3.66-4.7 0-.47 0-4.42 3.48-4.95 1-.14 1-.36 1-2.2 0-1.94 0-2.15-.72-2.15-.36 0-4.02.68-6.35 1.44-.6.18-3.23 1.44-3.84 1.44-.8 0-3.77-1.5-3.77-2.98 0-.14.07-.32.18-.36.36.01 2.08.22 2.58.22zm10.66 5.96c-.9 0-2.05 1.47-2.05 3.3 0 2 1.4 2.87 2.33 2.87 1.4 0 1.44-2.15 1.44-2.73a6.73 6.73 0 0 0-.47-2.5c-.1-.25-.53-.93-1.25-.93zm3.3-8.58c0 .57.14.68.65.68.14 0 2.48-.07 2.48-.6 0-.3-2.4-1.97-2.73-1.9-.25.07-.4.9-.4 1.83zM7.9 400.57c-.72 0-1.1.25-1.1.97 0 1.47 0 2.8-1.5 2.8-1.3 0-1.3-.72-1.3-1.15 0-.14.04-1.3.18-3.45l.32-9.47-.14-5.78-.25-1.87c0-.2.18-.36.43-.36.18 0 1.5.57 1.72.68.68.32 1.04.47 1.8.47h2.15c.8 0 .97-.22 1.22-.54.4-.47.65-.8.8-.8s1.33 1.04 1.54 1.22c.57.5.72.6.72.93 0 .18-.14.32-.25.43-.54.36-.6.4-.68.54-.25.47-.32 6.53-.32 7.43l.14 6.57c0 1.6-.04 2.83-1.76 2.83-.86 0-.9-.4-.9-.9 0-.4-.3-.57-.8-.57h-2zm.04-16.22c-.32 0-1 0-1.08.8-.14 1.76-.14 10.98-.14 13.5 0 .65.25 1 1.08 1h1.94c.32 0 1 0 1.08-.8.18-2.12.25-11.02.25-13.5 0-.47-.1-1-1.08-1H7.93zm16.83 9.2c-.36 0-.68.18-.68.57 0 .83 3.88 7.32 10.4 10.37.2.1 1.5.43 1.5.68 0 .1-.3.14-.43.18-.68.07-1.08.18-1.6.43-.3.14-1.7 1-1.8 1-.2 0-4.84-2.73-7.93-9.9-.25-.6-.3-.68-.43-.68-.25 0-.25.18-.25.72 0 .32.3 10.37.3 11.7 0 .43 0 2.26-1.65 2.26-.97 0-1.04-.6-1.04-1.15 0-1.04.4-6.1.4-7.25v-5.24c0-.14-.14-.32-.36-.32-.18 0-.25.1-.36.2-1.15 1.65-2.5 3.05-4.13 4.5-3.7 3.34-8.25 5.6-8.6 5.6-.04 0-.1 0-.1-.07 0-.1 3.6-3.12 4.27-3.7 5.02-4.4 7.86-8.97 7.86-9.44 0-.43-.2-.47-1.3-.47-.18 0-2.37.04-3.3.1-.1 0-.65.1-.75.1-.14 0-.22-.1-.32-.25l-.72-.83c-.14-.18-.14-.18-.14-.25s.07-.07.14-.07a27.41 27.41 0 0 1 1.62.14l4.4.1h.68c.3 0 .8 0 1-.57.04-.22.04-3.88.04-4.24 0-.4 0-1.1-.93-1.1-1.18 0-2.87.04-3.95.1-.1 0-.65.07-.75.07-.14 0-.2-.07-.32-.22l-.72-.83c-.14-.18-.14-.18-.14-.25s.07-.07.14-.07c.18 0 1.08.1 1.3.1.54.04 3.55.14 4.16.14s1.18 0 1.18-1.08c0-1-.1-3.48-.14-4.63 0-.2-.25-1.3-.25-1.54 0-.22.1-.32.36-.32.1 0 3.37.5 3.37 1.08 0 .18-.72.68-.83.83-.22.3-.22.47-.22 1.33 0 .47-.07 2.8-.07 3.34 0 .47.07 1 1.08 1h1.94c1.47 0 1.9 0 2.26-.6.68-1.08.75-1.22 1.08-1.22.25 0 2.7 1.9 2.7 2.3 0 .47-.72.47-1.9.47h-6.07c-.3 0-.9 0-1.04.6-.07.3-.07 3.7-.07 4.3 0 1 .72 1 1.08 1h4.16c1.72 0 1.97 0 2.48-.9.57-1 .68-1.26 1.04-1.26.3 0 2.9 2.26 2.9 2.62 0 .47-.72.47-1.9.47h-8.64zm10.07 30.92a3.98 3.98 0 0 1-4.02 3.95c-2.44 0-3.95-1.97-3.95-4.02 0-2.73 2.37-3.95 3.98-3.95 2.3 0 4 1.98 4 4.02zm-7-.03a3 3 0 0 0 3 2.98c1.58 0 2.98-1.22 2.98-2.9 0-1.44-1.08-3.05-3.05-3.05-1.9 0-2.94 1.58-2.94 2.98z"/></svg>