<svg xmlns="http://www.w3.org/2000/svg" xmlns:xlink="http://www.w3.org/1999/xlink" viewBox="0 0 475.6 301.29" xmlns:v="https://vecta.io/nano"><path d="M288.15 25.32c-.86 0-1.85-.23-2.92-.67-2.76-1.15-7.33-3.78-12.17-6.56l-3.63-2.1c-2.57-1.47-5.9-3.33-8.75-4.75-3-1.48-5.06-2.28-6.5-2.5-.04-.01-.08-.01-.12 0a17.5 17.5 0 0 0-3.51-.36c-2.35 0-4.6.5-6.5 1.45-2.17 1.08-3.9 2.72-5.1 4.88-1.14 2-1.72 3.96-1.72 5.8 0 1.68.5 3.2 1.45 4.27.9 1.05 2.14 1.63 3.47 1.63.6 0 1.2-.12 1.77-.34 1.62-.63 2.2-2 2.2-3.07a3 3 0 0 0-.46-1.62c-.17-.27-.45-.5-.83-.7a2.66 2.66 0 0 0-1.17-.29c-.33 0-.8.08-1.2.45-.37.34-.58.84-.65 1.5a.34.34 0 0 0 .3.38h.03c.17 0 .32-.13.34-.3.05-.48.2-.83.43-1.05.2-.18.45-.27.75-.27.28 0 .6.08.87.22.25.12.46.3.56.45.23.37.35.8.35 1.25 0 1.1-.66 2-1.75 2.42-.5.2-1 .3-1.52.3-1.13 0-2.18-.5-2.96-1.4-.84-.97-1.28-2.3-1.28-3.82 0-1.7.56-3.58 1.63-5.45 1.15-2.03 2.78-3.58 4.82-4.6 1.8-.9 3.94-1.38 6.18-1.38 3.73 0 7.58 1.34 9.83 3.4 1.88 1.72 2.9 4.03 2.9 6.5 0 1.78-.54 3.44-1.53 4.68-1.04 1.3-2.43 2-4.03 2h-.22c-1.78-.07-3.17-.63-4.12-1.66-.8-.86-1.23-2.02-1.23-3.28 0-.94.25-1.87.7-2.6.47-.76 1.1-1.26 1.83-1.44a2.98 2.98 0 0 1 .78-.1c.77 0 1.45.3 1.97.9a3.03 3.03 0 0 1 .74 1.97c0 .68-.24 1.28-.7 1.73-.06.07-.1.15-.1.24a.35.35 0 0 0 .1.24c.13.13.35.13.48 0 .57-.58.9-1.37.9-2.22a3.72 3.72 0 0 0-.92-2.42 3.26 3.26 0 0 0-2.47-1.12c-.32 0-.64.04-.95.12-.9.23-1.7.83-2.25 1.75-.52.84-.8 1.9-.8 2.96 0 1.43.5 2.76 1.4 3.74 1.06 1.15 2.65 1.8 4.6 1.88.1 0 .17.01.26 0 1.8 0 3.4-.8 4.55-2.24 1.1-1.36 1.68-3.18 1.68-5.1 0-2.52-1-4.9-2.82-6.7 3.53 1.8 7.65 4.16 11.63 6.46l.86.5c4.83 2.78 8.73 5 11.3 6.06 1.15.48 2.22.73 3.18.73.9 0 1.72-.23 2.36-.67-.01.1-.01.17-.01.25 0 1.08.5 2.74 2.83 4.55 2.42 1.87 6.96 4.53 11.77 7.34l3.65 2.15c2.28 1.35 5.18 3.1 7.7 4.74-.84-.23-1.7-.35-2.55-.35-2.26 0-4.43.82-6.1 2.3-1.6 1.43-2.53 3.33-2.53 5.2a5.67 5.67 0 0 0 .9 3.08c1.3 2.06 3.08 3.2 5.04 3.2 1.36 0 2.74-.55 3.8-1.5 1.05-.95 1.65-2.17 1.66-3.36a3.1 3.1 0 0 0-.13-.92c-.23-.82-.7-1.5-1.3-1.93a3.42 3.42 0 0 0-1.98-.62 3.74 3.74 0 0 0-2.02.6 3.02 3.02 0 0 0-1.26 1.76c-.05.18.06.37.24.42a.38.38 0 0 0 .26-.03c.08-.05.14-.12.16-.2.15-.56.5-1.03 1-1.37.47-.32 1.05-.5 1.64-.5s1.13.17 1.58.5c.5.36.86.9 1.05 1.56.07.24.1.48.1.74 0 .98-.53 2.04-1.43 2.85-.93.85-2.15 1.33-3.33 1.33h0c-1.22 0-2.98-.5-4.47-2.87-.53-.85-.8-1.76-.8-2.72 0-1.67.84-3.38 2.3-4.7 1.54-1.37 3.54-2.12 5.64-2.12.92 0 1.85.15 2.76.44 2.3.73 4.77 2.6 6.6 5 2.04 2.67 3.16 5.74 3.16 8.66 0 2.03-.53 3.97-1.57 5.77-2.63 4.54-5.7 5.03-6.9 5.03-1.04 0-1.98-.32-2.7-.93-.74-.62-1.22-1.5-1.38-2.5a2.81 2.81 0 0 1-.04-.5c0-.93.4-1.53.76-1.87.45-.44 1.05-.7 1.65-.7h.1c.2 0 .62.17.93.47.34.3.53.68.52 1.02 0 .4-.24.76-.7 1.1a.35.35 0 0 0-.08.48.35.35 0 0 0 .48.08c.65-.46 1-1.05 1-1.66 0-.54-.27-1.08-.74-1.53-.43-.4-.93-.63-1.37-.66h-.12c-.78 0-1.56.33-2.13.9-.62.6-.96 1.45-.96 2.36 0 .2.02.4.05.6.18 1.2.74 2.2 1.62 2.94.86.7 1.94 1.1 3.14 1.1 2.8 0 5.52-1.96 7.5-5.37 1.1-1.9 1.67-3.96 1.66-6.12 0-3.07-1.17-6.3-3.3-9.08l-.78-.95c-.01-.04-.03-.08-.06-.1-.92-1.13-2.63-2.53-5.4-4.4-3.45-2.32-7.87-4.9-12.15-7.42l-.85-.5c-4.62-2.7-8.62-5.1-10.8-6.77-2.12-1.64-2.57-3.08-2.57-4a2.63 2.63 0 0 1 .81-1.91c.5-.47 1.15-.74 1.8-.74h0c.64 0 1.23.25 1.72.7.5.48.75.96.75 1.42 0 .48-.3.82-.53 1.02-.32.26-.76.42-1.15.42a1.25 1.25 0 0 1-.7-.2c-.2-.15-.33-.38-.4-.7a.34.34 0 0 0-.14-.22c-.08-.05-.17-.07-.26-.05s-.17.07-.22.14c-.05.08-.07.17-.05.26.1.47.3.86.65 1.1.3.23.68.35 1.1.35a2.55 2.55 0 0 0 1.59-.58c.5-.4.78-.96.78-1.55 0-.64-.33-1.3-.96-1.9-.6-.58-1.38-.9-2.2-.9h0a3.25 3.25 0 0 0-1.87.6 2.45 2.45 0 0 0 .02-.27 3.33 3.33 0 0 0-.58-1.9c-.4-.6-1-1-1.73-1.22-.36-.1-.7-.16-1.02-.16-.66 0-1.22.24-1.6.68-.32.38-.5.9-.5 1.46 0 .54.16 1.07.45 1.47.33.46.82.72 1.35.72a2.11 2.11 0 0 0 .65-.11c.18-.06.27-.26.2-.44a.34.34 0 0 0-.17-.2c-.08-.04-.17-.04-.26-.02-.5.18-.92.05-1.23-.36-.2-.28-.32-.67-.32-1.06s.12-.76.33-1c.25-.3.6-.44 1.07-.44.25 0 .53.04.83.13.57.17 1.03.5 1.36.95.3.43.46.96.46 1.5a2.63 2.63 0 0 1-.76 1.87c-.56.58-1.36.87-2.36.87zM248.9 11.3l1.54-.06c4.3 0 6.8 1.58 8.16 2.9 1.5 1.48 2.4 3.47 2.4 5.3a.33.33 0 0 0 .34.34c.2 0 .34-.15.34-.34 0-2.03-.98-4.2-2.62-5.8-1.44-1.42-4.1-3.1-8.63-3.1l-1.6.07c-3.7.3-5.97 2.18-7.22 3.7-1.5 1.8-2.38 4.18-2.38 6.32 0 .88.15 1.66.43 2.33.3.7.77 1.26 1.34 1.6a.32.32 0 0 0 .18.05c.03 0 .06 0 .08-.01.1-.02.16-.08.2-.16.1-.16.04-.37-.12-.47-.46-.28-.82-.7-1.07-1.3-.25-.57-.38-1.28-.38-2.06 0-2 .83-4.2 2.22-5.88 1.2-1.44 3.3-3.2 6.77-3.48z"/><path d="M264.9 18.54a.39.39 0 0 0 .2.16c.03.01.06.01.08.01a.34.34 0 0 0 .33-.26c.07-.27.1-.57.1-.88 0-1.26-.53-2.48-.7-2.82v-.02c-.1-.18-.3-.25-.46-.16a.34.34 0 0 0-.15.46l.02.05c.06.13.6 1.33.6 2.5a3.08 3.08 0 0 1-.08.71.34.34 0 0 0 .04.26zm2.2.98a.39.39 0 0 0 .2.16.22.22 0 0 0 .08.01c.15 0 .3-.1.33-.26a3.63 3.63 0 0 0 .1-.83c0-1.2-.5-2.33-.66-2.67a.34.34 0 0 0-.63.05.33.33 0 0 0 .02.26l.02.05c.02.05.57 1.22.57 2.3 0 .24-.02.46-.07.66-.03.1-.02.18.03.26zm2.4 1.14a.22.22 0 0 0 .08.01c.15 0 .3-.1.33-.26a3.21 3.21 0 0 0 .09-.78c0-1.07-.43-2.1-.6-2.47v-.02c-.04-.1-.1-.15-.2-.18-.08-.03-.18-.02-.26.02-.17.1-.24.3-.15.46l.02.05c.05.12.53 1.15.52 2.14 0 .22-.02.42-.07.6-.03.18.08.37.26.42zm1.98.82a.39.39 0 0 0 .2.16c.03.01.06.01.08.01.06 0 .12-.02.18-.05a.32.32 0 0 0 .15-.21 3.24 3.24 0 0 0 .08-.72c0-1.03-.43-2.02-.57-2.3a.34.34 0 0 0-.2-.17.33.33 0 0 0-.26.02.34.34 0 0 0-.17.2.36.36 0 0 0 .01.25l.02.05c.02.04.5 1.04.48 1.97 0 .2-.02.4-.06.56-.02.07 0 .16.05.24zm2.2.98a.39.39 0 0 0 .2.16c.03.01.06.01.08.01.06 0 .12-.02.18-.05a.32.32 0 0 0 .15-.21 2.86 2.86 0 0 0 .08-.67c0-.92-.37-1.8-.52-2.12l-.01-.02c-.1-.18-.3-.25-.46-.16s-.24.3-.15.46l.02.04c.02.04.44.95.44 1.8a1.96 1.96 0 0 1-.06.5c-.02.08-.01.17.04.25zm2.4 1.14a.22.22 0 0 0 .08.01c.15 0 .3-.1.33-.26.05-.2.07-.4.07-.62 0-.85-.34-1.65-.48-1.96a.34.34 0 0 0-.2-.17.33.33 0 0 0-.26.02.34.34 0 0 0-.15.46l.02.03c.02.03.4.86.4 1.63a2.16 2.16 0 0 1-.05.46c-.05.17.06.36.24.4zm1.98.8a.39.39 0 0 0 .2.16.22.22 0 0 0 .08.01c.15 0 .3-.1.33-.26a2.62 2.62 0 0 0 .06-.57c0-.77-.3-1.5-.43-1.77v-.02c-.04-.1-.1-.15-.2-.18-.08-.03-.18-.02-.26.02a.34.34 0 0 0-.17.2c-.03.08-.02.17.02.25l.02.04c0 .01.36.76.36 1.45 0 .14-.02.28-.04.4-.03.1-.02.2.03.27zm2.2 1a.32.32 0 0 0 .21.15c.03.01.06.01.08.01.06 0 .12-.02.18-.05a.32.32 0 0 0 .15-.21c.04-.16.06-.33.06-.5 0-.7-.27-1.35-.4-1.6a.34.34 0 0 0-.2-.17.33.33 0 0 0-.26.02c-.17.1-.24.3-.15.46l.01.03c.1.18.32.77.3 1.28 0 .13-.01.25-.04.35-.01.08.01.18.05.25zm-47.4-1.4a.39.39 0 0 0-.16.2.34.34 0 0 0 .04.26c.06.1.18.17.3.17.06 0 .12-.02.18-.05.57-.35 1.04-.9 1.34-1.6.3-.67.43-1.45.43-2.33 0-2.14-.9-4.5-2.38-6.32-1.25-1.53-3.52-3.4-7.22-3.7l-1.6-.07c-4.52 0-7.2 1.7-8.63 3.1-1.64 1.6-2.62 3.78-2.62 5.8a.33.33 0 0 0 .34.34c.2 0 .34-.15.34-.34 0-1.85.9-3.83 2.4-5.3 1.35-1.33 3.86-2.9 8.16-2.9l1.54.06c3.46.28 5.58 2.04 6.75 3.46 1.4 1.7 2.22 3.9 2.22 5.88 0 .77-.13 1.48-.38 2.05-.23.6-.6 1.04-1.05 1.32zm-23.05-8.76l.07-.16.02-.05c.08-.17.02-.38-.15-.46s-.37-.01-.46.15c0 0-.01.01-.01.02-.16.34-.7 1.56-.7 2.83a3.54 3.54 0 0 0 .1.88.34.34 0 0 0 .33.26c.03 0 .06 0 .08-.01.18-.05.3-.23.25-.42a3.08 3.08 0 0 1-.08-.71c0-.65.17-1.3.32-1.74l.23-.6zm-2.2 1.2l.07-.15.02-.05c.08-.17.02-.38-.15-.46a.34.34 0 0 0-.46.16l-.01.02c-.2.4-.65 1.5-.65 2.65 0 .3.03.57.1.83a.34.34 0 0 0 .33.26c.03 0 .06 0 .08-.01.18-.05.3-.23.25-.42-.05-.2-.07-.42-.07-.66 0-.6.16-1.2.3-1.62.05-.2.12-.37.2-.55zm-2.24 1.2c.02-.06.05-.1.06-.14l.02-.05c.08-.17.02-.38-.15-.46a.34.34 0 0 0-.46.16l-.01.02c-.18.4-.6 1.4-.6 2.47a3.21 3.21 0 0 0 .09.78.34.34 0 0 0 .33.26c.03 0 .06 0 .08-.01.18-.05.3-.23.25-.42a2.35 2.35 0 0 1-.07-.6c0-.56.15-1.12.27-1.5l.2-.5zm-2.22 1.2l.08-.17c.08-.17.02-.38-.15-.46s-.37-.01-.46.15c0 0-.01.01-.01.02-.13.28-.56 1.27-.57 2.3a3.4 3.4 0 0 0 .08.73.34.34 0 0 0 .33.26c.03 0 .05 0 .08-.01.18-.05.3-.23.25-.42-.04-.16-.06-.35-.06-.56 0-.5.14-1.03.25-1.38l.18-.46zm-2.57.56a.34.34 0 0 0-.2.17s-.01.01-.01.02c-.16.33-.52 1.2-.52 2.13a2.86 2.86 0 0 0 .08.67c.02.1.08.16.16.2a.32.32 0 0 0 .18.05c.03 0 .06 0 .08-.01.18-.05.3-.23.25-.42a1.96 1.96 0 0 1-.06-.5 4.05 4.05 0 0 1 .23-1.26l.16-.42.05-.12.02-.04c.08-.17.02-.38-.15-.46a.32.32 0 0 0-.27-.02zm-1.87 1.82l.06-.14c.08-.17.02-.38-.15-.46-.08-.04-.17-.05-.26-.02s-.16.1-.2.18l-.01.02c-.14.3-.47 1.1-.48 1.95 0 .22.02.43.07.62a.34.34 0 0 0 .33.26c.03 0 .06 0 .08-.01.18-.05.3-.23.25-.42a2.14 2.14 0 0 1-.05-.45 3.68 3.68 0 0 1 .21-1.14l.15-.4zm-2.23 1.2l.06-.12c.04-.08.05-.18.02-.26a.34.34 0 0 0-.17-.2c-.16-.08-.37-.01-.46.17-.13.27-.43 1-.44 1.78a2.12 2.12 0 0 0 .07.57c.02.1.08.16.16.2a.32.32 0 0 0 .18.05c.03 0 .06 0 .08-.01.1-.02.16-.08.2-.16a.34.34 0 0 0 .04-.26c-.03-.12-.04-.25-.04-.4 0-.4.12-.8.2-1.02.02-.15.07-.27.1-.35zm-2.22 1.2l.05-.1c.08-.17.02-.38-.15-.46s-.37-.01-.46.15c0 0-.01.01-.01.02-.12.25-.4.9-.4 1.6a2.12 2.12 0 0 0 .06.52.36.36 0 0 0 .15.21.32.32 0 0 0 .18.05c.03 0 .06 0 .08-.01.1-.02.16-.08.2-.16a.34.34 0 0 0 .04-.26c-.03-.1-.04-.22-.04-.35a3.17 3.17 0 0 1 .16-.9l.12-.3zm-3.95-2.25c.05 0 .1-.01.16-.04l.8-.44 25.1-13.46c3.4-1.7 7.72-2.72 11.58-2.72 3.2 0 6.03.65 8.46 1.93-.8.5-1.53 1.07-2.2 1.7-.14.13-.15.35-.02.48a.32.32 0 0 0 .24.11c.1 0 .18-.03.24-.1.72-.68 1.53-1.28 2.4-1.8a13.93 13.93 0 0 1 2.41 1.81c.07.06.15.1.25.1s.17-.04.24-.1c.13-.14.12-.35-.02-.48a15.67 15.67 0 0 0-2.2-1.7c2.42-1.28 5.27-1.93 8.46-1.93 3.86 0 8.2 1.02 11.58 2.72 3.98 2 10.8 5.67 15.83 8.4l10.08 5.5c.16.1.37.03.46-.14s.03-.38-.14-.47c-.18-.1-18.33-10.1-25.93-13.9-3.53-1.78-7.87-2.8-11.9-2.8-3.47 0-6.54.74-9.14 2.2-2.6-1.46-5.68-2.2-9.14-2.2-4.02 0-8.36 1.02-11.9 2.8-7.6 3.83-25.74 13.8-25.93 13.9-.17.1-.23.3-.14.47.08.1.2.17.3.17zm-5.73 196.02c.36.1.7.16 1.02.16.66 0 1.22-.24 1.58-.68.32-.38.5-.9.5-1.45s-.16-1.07-.46-1.47c-.33-.46-.82-.72-1.35-.72-.22 0-.44.04-.65.1a.34.34 0 0 0-.2.17c-.04.08-.05.18-.02.26a.34.34 0 0 0 .17.2c.08.04.18.05.26.02.15-.05.3-.08.42-.08.33 0 .6.14.8.44.2.28.32.67.32 1.06 0 .4-.12.76-.33 1-.25.3-.6.43-1.07.44-.25 0-.53-.04-.83-.13a2.48 2.48 0 0 1-1.36-.96c-.3-.43-.46-.96-.46-1.5a2.63 2.63 0 0 1 .76-1.87c.56-.57 1.38-.86 2.37-.87.87 0 1.85.23 2.92.67 2.76 1.15 7.33 3.78 12.17 6.57l3.63 2.08c2.56 1.46 5.87 3.32 8.75 4.75 3 1.48 5.05 2.28 6.5 2.5h.12a17.33 17.33 0 0 0 3.5.36c2.35 0 4.6-.5 6.5-1.45a11.75 11.75 0 0 0 5.1-4.87c1.12-1.98 1.72-3.98 1.72-5.8 0-1.68-.52-3.2-1.45-4.28-.9-1.05-2.14-1.63-3.47-1.63a5.02 5.02 0 0 0-1.78.34c-1.62.63-2.2 2-2.2 3.07 0 .58.16 1.15.46 1.62.17.27.46.5.83.7a2.66 2.66 0 0 0 1.17.29c.33 0 .8-.08 1.2-.45.36-.33.58-.85.65-1.5a.34.34 0 0 0-.3-.38.33.33 0 0 0-.25.08c-.07.06-.1.14-.12.23-.05.48-.2.83-.43 1.05-.2.18-.45.27-.76.27-.28 0-.6-.08-.87-.22-.24-.12-.46-.3-.56-.45-.23-.37-.35-.8-.35-1.25 0-1.1.66-2 1.75-2.43.5-.2 1-.3 1.52-.3 1.13 0 2.18.5 2.96 1.4.84.97 1.28 2.3 1.28 3.82 0 1.7-.56 3.57-1.63 5.45-1.15 2.03-2.78 3.58-4.82 4.6-1.8.9-3.94 1.38-6.18 1.38-3.73 0-7.58-1.34-9.83-3.4-1.88-1.72-2.9-4.03-2.9-6.5 0-1.78.54-3.44 1.53-4.68 1.04-1.3 2.43-2 4.03-2h.22c1.78.07 3.17.63 4.12 1.66.8.86 1.23 2.02 1.23 3.28 0 .94-.25 1.87-.7 2.6-.46.76-1.1 1.26-1.83 1.44-1.08.27-2.06-.02-2.74-.8a3.03 3.03 0 0 1-.74-1.97c0-.68.24-1.28.7-1.73.13-.13.13-.35 0-.5-.13-.13-.35-.13-.48 0-.57.58-.9 1.37-.9 2.22a3.72 3.72 0 0 0 .92 2.42 3.21 3.21 0 0 0 2.47 1.12h0a3.91 3.91 0 0 0 .94-.12c.9-.23 1.7-.85 2.25-1.75.52-.84.8-1.9.8-2.97 0-1.43-.5-2.76-1.4-3.74-1.06-1.15-2.65-1.8-4.6-1.88h-.25c-1.8 0-3.4.8-4.57 2.25-1.1 1.36-1.68 3.18-1.7 5.1 0 2.52 1 4.9 2.82 6.7-3.54-1.8-7.67-4.18-11.67-6.48l-.82-.47c-4.83-2.78-8.73-5-11.3-6.06-1.15-.48-2.22-.72-3.18-.73-.9 0-1.72.23-2.36.67.01-.1.01-.17.01-.25 0-1.08-.5-2.74-2.83-4.55-2.42-1.87-6.95-4.52-11.75-7.34l-3.67-2.16c-2.28-1.35-5.2-3.1-7.7-4.74a9.66 9.66 0 0 0 2.54.35c2.26 0 4.43-.82 6.1-2.3 1.6-1.43 2.53-3.33 2.53-5.2a5.67 5.67 0 0 0-.9-3.08c-1.3-2.06-3.08-3.2-5.04-3.2-1.36 0-2.74.55-3.8 1.5-1.05.95-1.65 2.17-1.65 3.36 0 .3.04.63.13.92.23.82.7 1.5 1.3 1.93a3.42 3.42 0 0 0 1.98.62 3.74 3.74 0 0 0 2.02-.6c.63-.43 1.07-1.04 1.26-1.76a.38.38 0 0 0-.03-.26c-.05-.08-.12-.14-.2-.16s-.18-.01-.26.03-.13.1-.16.2c-.15.57-.5 1.04-.98 1.38-.47.32-1.05.5-1.64.5s-1.14-.17-1.6-.5c-.5-.36-.86-.9-1.05-1.56-.07-.24-.1-.48-.1-.74 0-.98.53-2.04 1.43-2.85.93-.85 2.15-1.33 3.33-1.33h0c1.22 0 2.98.5 4.48 2.87.53.85.8 1.76.8 2.72 0 1.67-.84 3.38-2.3 4.7-1.54 1.37-3.54 2.12-5.64 2.12-.92 0-1.85-.15-2.76-.44-2.3-.73-4.77-2.6-6.6-5-2.04-2.67-3.16-5.74-3.16-8.66 0-2.03.53-3.97 1.57-5.77 2.63-4.54 5.7-5.03 6.9-5.03 1.04 0 1.98.32 2.7.93.74.62 1.22 1.5 1.38 2.5.02.16.04.33.04.5 0 .93-.4 1.53-.76 1.87-.45.44-1.05.7-1.65.7h-.1c-.2 0-.6-.17-.93-.47-.34-.3-.53-.68-.53-1.02 0-.4.24-.76.7-1.1a.35.35 0 0 0 .08-.48c-.05-.07-.13-.12-.22-.14s-.18.01-.25.06c-.65.46-1 1.05-1 1.66 0 .54.27 1.08.74 1.53.43.4.93.63 1.37.66h.12c.78 0 1.56-.33 2.13-.9.62-.6.96-1.45.96-2.36 0-.2-.02-.4-.05-.6-.18-1.2-.74-2.2-1.62-2.94-.86-.7-1.95-1.1-3.15-1.1-2.8 0-5.52 1.96-7.5 5.37-1.1 1.9-1.67 3.96-1.67 6.12 0 3.07 1.18 6.3 3.3 9.08.24.3.5.63.78.95.01.03.03.07.05.1.93 1.14 2.64 2.54 5.42 4.4 3.43 2.3 7.83 4.9 12.08 7.38l.92.54c4.62 2.7 8.62 5.1 10.8 6.77 2.12 1.64 2.57 3.08 2.57 4a2.63 2.63 0 0 1-.81 1.91c-.5.47-1.15.74-1.8.74h0c-.64 0-1.23-.25-1.7-.7-.5-.48-.75-.96-.75-1.42 0-.38.18-.74.53-1.02.32-.26.76-.42 1.15-.42a1.25 1.25 0 0 1 .7.2c.2.16.33.38.4.7a.34.34 0 0 0 .14.22c.08.05.17.07.26.05.18-.04.3-.22.27-.4-.1-.47-.32-.85-.65-1.1-.3-.23-.68-.35-1.1-.35a2.55 2.55 0 0 0-1.59.58c-.5.4-.78.96-.78 1.55 0 .64.33 1.3.96 1.9.6.58 1.38.9 2.18.9h0a3.25 3.25 0 0 0 1.87-.6c-.01.1-.02.18-.02.27a3.33 3.33 0 0 0 .58 1.9 3.36 3.36 0 0 0 1.78 1.26zm40.75 8.16l-1.54.06c-4.3 0-6.8-1.58-8.16-2.9-1.5-1.48-2.4-3.47-2.4-5.3a.33.33 0 0 0-.34-.34c-.2 0-.34.15-.34.34 0 2.03.98 4.2 2.62 5.8 1.44 1.42 4.1 3.1 8.62 3.1l1.6-.07c3.7-.3 5.97-2.18 7.22-3.7 1.5-1.8 2.38-4.18 2.38-6.32 0-.88-.14-1.66-.43-2.33-.3-.7-.77-1.26-1.34-1.6a.34.34 0 0 0-.26-.04c-.1.02-.16.08-.2.16a.34.34 0 0 0-.04.26c.02.1.08.16.16.2.46.28.82.7 1.07 1.3.25.57.38 1.28.38 2.05 0 2-.83 4.2-2.22 5.88-1.2 1.45-3.3 3.2-6.77 3.5z"/><path d="M209.1 218.14h0c-.18-.04-.37.07-.4.25-.07.27-.1.56-.1.88 0 1.27.53 2.5.7 2.83v.02a.34.34 0 0 0 .2.17c.04.01.07.02.1.02.05 0 .1-.01.15-.04a.34.34 0 0 0 .17-.2.33.33 0 0 0-.02-.26l-.02-.05c-.03-.05-.6-1.3-.6-2.5a3.08 3.08 0 0 1 .08-.71.37.37 0 0 0-.26-.42zm-2.2-.98h0c-.18-.04-.37.07-.4.25a3.56 3.56 0 0 0-.1.83c0 1.15.46 2.23.65 2.65h.01a.35.35 0 0 0 .3.2c.05 0 .1-.01.15-.04a.34.34 0 0 0 .15-.46l-.02-.05c-.02-.05-.57-1.22-.57-2.32 0-.24.02-.46.08-.66.05-.18-.07-.36-.25-.4zm-2.18-.98c-.18-.04-.37.07-.4.25a3.21 3.21 0 0 0-.09.78c0 1.07.43 2.1.6 2.47l.01.02a.34.34 0 0 0 .2.17c.04.01.07.02.1.02.05 0 .1-.01.15-.04a.34.34 0 0 0 .15-.46l-.02-.05c-.02-.05-.53-1.12-.52-2.14 0-.22.02-.43.07-.6a.37.37 0 0 0-.26-.41zm-2.2-.98c-.18-.05-.37.07-.4.25a2.79 2.79 0 0 0-.08.72c0 1.03.43 2.02.57 2.3l.01.02a.34.34 0 0 0 .2.17c.04.01.07.02.1.02.05 0 .1-.01.15-.04a.34.34 0 0 0 .15-.46l-.02-.04c-.02-.04-.5-1.03-.48-1.97 0-.2.02-.4.06-.56.03-.18-.08-.37-.26-.4zm-2.2-.97a.34.34 0 0 0-.26.04.39.39 0 0 0-.16.2 2.86 2.86 0 0 0-.08.67c0 .93.37 1.8.52 2.13l.01.02a.34.34 0 0 0 .2.17c.04.01.07.02.1.02.05 0 .1-.01.15-.04a.34.34 0 0 0 .15-.46l-.02-.04c0-.01-.44-.94-.44-1.8a1.85 1.85 0 0 1 .06-.5c.05-.2-.06-.38-.24-.42zm-1.98-.83a.39.39 0 0 0-.2-.16.34.34 0 0 0-.26.04.32.32 0 0 0-.15.21c-.05.2-.07.4-.07.62 0 .84.34 1.64.48 1.94l.01.02a.34.34 0 0 0 .2.17c.04.01.07.02.1.02.05 0 .1-.01.15-.04a.34.34 0 0 0 .17-.2.33.33 0 0 0-.02-.26l-.02-.04c-.02-.03-.4-.86-.4-1.63 0-.17.02-.32.05-.45.02-.07 0-.16-.04-.24zm-2.4-1.13c-.18-.05-.37.07-.4.25s-.07.37-.07.57c0 .78.3 1.5.44 1.8a.35.35 0 0 0 .3.2c.05 0 .1-.01.15-.04a.34.34 0 0 0 .17-.2.33.33 0 0 0-.02-.26l-.01-.03c0-.01-.36-.76-.36-1.45 0-.14.01-.28.04-.4.06-.2-.05-.37-.24-.42zm-2.2-.97a.34.34 0 0 0-.26.04.39.39 0 0 0-.16.2 2.12 2.12 0 0 0-.06.52c0 .7.28 1.35.4 1.6l.01.02a.35.35 0 0 0 .19.17c.04.01.07.02.1.02.05 0 .1-.01.15-.04a.34.34 0 0 0 .15-.46l-.01-.02c0-.01-.32-.68-.3-1.28 0-.13.01-.25.04-.35.05-.2-.06-.38-.24-.43zm47.6 1.54c.16-.1.2-.3.12-.47a.39.39 0 0 0-.2-.16.34.34 0 0 0-.26.04c-.58.35-1.04.9-1.34 1.6-.3.67-.43 1.45-.43 2.33 0 2.14.9 4.5 2.38 6.32 1.25 1.53 3.52 3.4 7.22 3.7l1.6.07c4.53 0 7.2-1.7 8.64-3.1 1.64-1.6 2.6-3.78 2.62-5.8a.33.33 0 0 0-.34-.34c-.2 0-.34.15-.34.34 0 1.85-.9 3.83-2.4 5.3-1.35 1.33-3.86 2.9-8.16 2.9a20.61 20.61 0 0 1-1.54-.06c-3.46-.28-5.58-2.04-6.75-3.46-1.4-1.7-2.22-3.9-2.22-5.88 0-.77.13-1.48.38-2.05.23-.6.58-1.04 1.04-1.32zm23.04 8.76l-.07.16-.03.05c-.08.17-.02.38.15.46a.42.42 0 0 0 .15.04c.04 0 .07-.01.1-.02.1-.03.16-.1.2-.18h.01c.16-.34.7-1.57.7-2.82 0-.3-.03-.6-.1-.88-.05-.18-.24-.3-.4-.25-.18.05-.3.23-.25.42.05.22.08.46.08.7 0 .65-.17 1.3-.32 1.74-.07.26-.15.46-.2.6zm2.23-1.2l-.07.15-.02.05c-.04.08-.05.17-.02.26a.34.34 0 0 0 .17.2.42.42 0 0 0 .15.04c.12 0 .25-.07.3-.2 0 0 .01-.01.01-.02.15-.32.65-1.46.65-2.65 0-.3-.03-.57-.1-.83-.05-.2-.24-.3-.4-.25-.1.02-.16.08-.2.16a.34.34 0 0 0-.04.26c.05.2.07.43.07.66 0 .6-.16 1.2-.3 1.62l-.2.54zm2.22-1.2l-.08.18c-.04.08-.05.18-.02.26a.34.34 0 0 0 .17.2.42.42 0 0 0 .15.04c.04 0 .07-.01.1-.02.1-.03.16-.1.2-.18l.01-.02c.18-.4.6-1.4.6-2.47a3.33 3.33 0 0 0-.09-.78h0c-.04-.18-.23-.3-.4-.25s-.3.23-.25.42a2.46 2.46 0 0 1 .07.6c0 .6-.17 1.2-.27 1.5l-.2.5zm2.3-.55c.05.02.1.04.15.04.12 0 .25-.07.3-.2 0-.01 0-.01.01-.02h0c.13-.28.56-1.27.57-2.3a3.24 3.24 0 0 0-.08-.72h0a.35.35 0 0 0-.41-.25c-.18.05-.3.23-.25.42.04.17.06.36.06.56 0 .5-.14 1.03-.25 1.38a4.02 4.02 0 0 1-.18.46c-.02.06-.04.1-.06.13v.04c-.1.16-.02.37.15.45zm2.15-1.82l-.05.12-.02.04c-.08.17-.01.38.15.46.05.02.1.04.15.04.04 0 .07-.01.1-.02.1-.03.16-.1.2-.18l.01-.02c.16-.33.52-1.2.52-2.12a2.86 2.86 0 0 0-.08-.67.36.36 0 0 0-.15-.21.34.34 0 0 0-.26-.04c-.1.02-.16.08-.2.16a.34.34 0 0 0-.04.26c.04.16.06.33.06.5a4.05 4.05 0 0 1-.23 1.26l-.16.4zm2.22-1.2l-.06.14c-.04.08-.05.17-.02.26a.34.34 0 0 0 .17.2c.05.02.1.04.15.04.04 0 .07-.01.1-.02a.34.34 0 0 0 .2-.17s.01-.01.01-.02c.14-.3.47-1.1.48-1.95 0-.22-.02-.43-.07-.62-.04-.18-.23-.3-.4-.25s-.3.23-.25.42a2.14 2.14 0 0 1 .05.45 3.68 3.68 0 0 1-.21 1.14l-.15.38zm2.22-1.2l-.06.12c-.04.08-.05.18-.02.26a.34.34 0 0 0 .17.2c.05.02.1.04.15.04.04 0 .07-.01.1-.02a.34.34 0 0 0 .2-.17l.01-.02c.13-.28.43-1 .43-1.77a2.12 2.12 0 0 0-.07-.57c-.02-.1-.08-.16-.16-.2a.34.34 0 0 0-.26-.04.35.35 0 0 0-.25.41c.03.12.04.26.04.4 0 .4-.12.8-.2 1.02-.02.16-.07.28-.1.35zm2.23-1.2l-.05.1c-.04.08-.05.18-.02.26a.34.34 0 0 0 .17.2.42.42 0 0 0 .15.04c.12 0 .25-.07.3-.2 0-.01.01-.01.01-.02h0c.14-.3.4-.93.4-1.6a2.04 2.04 0 0 0-.06-.51c-.05-.18-.23-.3-.4-.25-.1.02-.16.08-.2.16a.34.34 0 0 0-.04.26c.03.1.04.22.04.35a3.17 3.17 0 0 1-.16.9l-.12.28zm-21.83 16.8c7.6-3.83 25.74-13.8 25.93-13.9.17-.1.23-.3.14-.47s-.3-.22-.46-.14l-.8.44-25.1 13.46c-3.4 1.7-7.7 2.72-11.58 2.72-3.2 0-6.03-.65-8.46-1.93a15.29 15.29 0 0 0 2.19-1.68.36.36 0 0 0 .02-.5c-.13-.15-.34-.15-.48-.02-.72.68-1.53 1.28-2.4 1.8a13.93 13.93 0 0 1-2.41-1.81c-.14-.13-.35-.12-.48.02a.36.36 0 0 0 .02.5 15.56 15.56 0 0 0 2.2 1.68c-2.43 1.28-5.27 1.93-8.46 1.93-3.87 0-8.2-1.02-11.58-2.72-3.17-1.6-8.5-4.42-15.83-8.4l-10.08-5.5c-.16-.1-.37-.03-.46.14-.04.08-.05.17-.03.26.03.1.08.16.16.2l25.93 13.92c3.53 1.78 7.87 2.8 11.9 2.8 3.46 0 6.54-.74 9.14-2.2 2.6 1.46 5.67 2.2 9.14 2.2 4-.02 8.35-1.04 11.88-2.8zm-80.1-203.42a2.68 2.68 0 0 0 1.6.58c.42 0 .8-.12 1.1-.35.34-.25.56-.64.65-1.1.02-.1 0-.18-.05-.26s-.13-.13-.22-.14c-.1-.02-.18 0-.26.05s-.13.13-.14.22c-.06.3-.2.54-.4.7-.18.14-.42.2-.7.2h0a1.89 1.89 0 0 1-1.15-.42c-.35-.28-.53-.64-.53-1.02 0-.45.25-.93.75-1.42.48-.47 1.07-.7 1.7-.7.66 0 1.32.27 1.8.74a2.63 2.63 0 0 1 .81 1.91c0 .92-.44 2.36-2.57 4-2.37 1.83-6.92 4.5-11.75 7.33l-3.6 2.12c-2.54 1.5-5.8 3.46-8.46 5.25-2.77 1.87-4.5 3.26-5.4 4.4-.03.03-.04.07-.06.1-.3.33-.55.64-.78.95-2.13 2.78-3.3 6-3.3 9.08 0 2.15.56 4.2 1.67 6.1 1.97 3.4 4.7 5.37 7.5 5.37 1.2 0 2.3-.38 3.15-1.1.88-.73 1.44-1.74 1.62-2.94.03-.2.05-.4.05-.6 0-.9-.34-1.75-.96-2.36-.58-.57-1.35-.9-2.13-.9h-.12c-.44.02-.94.26-1.37.66-.48.44-.74 1-.74 1.53 0 .6.35 1.2 1 1.66.07.05.17.07.25.06a.28.28 0 0 0 .22-.14.35.35 0 0 0-.08-.48c-.48-.35-.7-.7-.7-1.1 0-.34.2-.7.52-1.02.32-.3.72-.47.93-.47h.1c.6 0 1.2.25 1.65.7.35.34.76.94.76 1.87a2.63 2.63 0 0 1-.04.49c-.16 1.02-.63 1.9-1.38 2.5-.74.6-1.67.93-2.7.93-2.54 0-5.05-1.83-6.9-5.02-1.04-1.8-1.57-3.74-1.57-5.77 0-2.92 1.12-6 3.16-8.66 1.84-2.4 4.3-4.28 6.6-5 .9-.3 1.84-.44 2.76-.44 2.1 0 4.1.75 5.64 2.12 1.46 1.3 2.3 3 2.3 4.68 0 .96-.27 1.88-.8 2.72-1.5 2.37-3.26 2.87-4.48 2.87-1.2 0-2.4-.48-3.33-1.33-.9-.8-1.43-1.87-1.43-2.85a2.64 2.64 0 0 1 .1-.74c.2-.67.55-1.2 1.05-1.56.45-.32 1-.5 1.58-.5.6 0 1.17.18 1.64.5.5.34.84.8 1 1.37.02.1.08.16.16.2s.17.06.26.03c.18-.05.3-.24.24-.42-.2-.73-.63-1.33-1.26-1.76-.58-.4-1.3-.6-2.02-.6a3.35 3.35 0 0 0-1.98.62c-.63.44-1.08 1.1-1.32 1.93-.08.3-.13.6-.13.92 0 1.18.6 2.4 1.65 3.36 1.06.95 2.44 1.5 3.8 1.5 1.97 0 3.76-1.13 5.05-3.2a5.76 5.76 0 0 0 .9-3.1c0-1.87-.92-3.77-2.53-5.2-1.66-1.48-3.82-2.3-6.1-2.3-.85 0-1.7.12-2.54.35 3.3-2.18 7.4-4.6 11.38-6.9l.84-.5c4.64-2.72 8.66-5.1 10.88-6.82 2.34-1.8 2.83-3.47 2.83-4.55 0-.08 0-.17-.01-.25.64.44 1.45.67 2.36.67.96 0 2.03-.24 3.18-.73 2.8-1.17 7.37-3.8 12.2-6.57l3.7-2.12c3.36-1.92 5.83-3.27 7.93-4.33-1.82 1.82-2.82 4.2-2.82 6.7 0 1.94.6 3.75 1.7 5.1 1.15 1.45 2.77 2.24 4.56 2.24h.26c1.94-.08 3.53-.73 4.6-1.88.9-1 1.4-2.32 1.4-3.75 0-1.07-.3-2.12-.8-2.96-.55-.9-1.35-1.52-2.25-1.75-.32-.08-.63-.12-.94-.12-.97 0-1.84.4-2.48 1.12a3.74 3.74 0 0 0-.92 2.42c0 .85.32 1.64.9 2.22.13.13.35.13.48 0s.13-.35 0-.5a2.4 2.4 0 0 1-.7-1.73 3.05 3.05 0 0 1 .74-1.97c.52-.58 1.2-.9 1.97-.9a3.09 3.09 0 0 1 .78.1c.74.2 1.37.68 1.83 1.44.45.74.7 1.66.7 2.6 0 1.26-.44 2.42-1.23 3.28-.95 1.03-2.34 1.58-4.12 1.66h-.22c-1.6 0-3-.7-4.03-2-1-1.24-1.53-2.9-1.53-4.68 0-2.47 1.03-4.78 2.9-6.5 2.25-2.07 6.1-3.4 9.82-3.4 2.25 0 4.4.48 6.2 1.38 2.05 1.02 3.67 2.57 4.82 4.6 1.07 1.88 1.63 3.76 1.63 5.45 0 1.5-.46 2.87-1.28 3.82-.78.9-1.83 1.4-2.96 1.4-.5 0-1.02-.1-1.52-.3-1.1-.43-1.75-1.34-1.75-2.42 0-.45.12-.9.35-1.25.1-.15.3-.33.56-.45.28-.14.6-.22.87-.22.3 0 .56.1.75.27.24.22.38.57.43 1.05.02.18.17.3.34.3h.03a.34.34 0 0 0 .3-.38c-.06-.64-.3-1.16-.65-1.5-.4-.37-.88-.45-1.2-.45-.4 0-.8.1-1.18.3s-.66.43-.83.7a3.05 3.05 0 0 0-.46 1.62c0 1.07.57 2.44 2.2 3.07a4.76 4.76 0 0 0 1.77.34h0c1.33 0 2.57-.58 3.47-1.63.94-1.08 1.45-2.6 1.45-4.27 0-1.84-.58-3.8-1.72-5.8-1.22-2.15-2.94-3.8-5.1-4.88-1.9-.95-4.14-1.45-6.5-1.45a17.5 17.5 0 0 0-3.51.36c-.04-.01-.08-.01-.12 0-1.43.23-3.5 1.03-6.5 2.5-3.7 1.83-8.08 4.36-12.33 6.8l-.98.57c-4.64 2.67-8.7 4.97-11.23 6.03-1.07.45-2.05.67-2.92.67-1 0-1.8-.3-2.37-.87a2.63 2.63 0 0 1-.76-1.87c0-.54.16-1.07.46-1.5.33-.47.78-.8 1.36-.95.3-.1.58-.13.83-.13.47 0 .82.15 1.07.44.22.25.33.6.33 1s-.12.78-.32 1.06a1 1 0 0 1-1.23.36c-.18-.06-.37.04-.43.2-.06.18.04.37.2.44a2.11 2.11 0 0 0 .65.11c.53 0 1.02-.26 1.35-.72.3-.4.45-.92.46-1.47 0-.56-.18-1.08-.5-1.45-.37-.44-.93-.68-1.57-.68-.32 0-.67.05-1.03.16-.72.2-1.32.63-1.73 1.22-.38.55-.58 1.2-.58 1.9 0 .1.01.18.02.27-.56-.4-1.22-.6-1.87-.6h0c-.8 0-1.58.32-2.18.9-.63.6-.96 1.27-.96 1.9-.02.6.26 1.17.77 1.58zm-17.66 20.6c1.3 0 2.53.3 3.5.88.16.1.37.04.47-.12.05-.08.06-.17.03-.26-.02-.1-.08-.16-.16-.2-1.08-.62-2.44-.97-3.84-.97-2 0-6.9.76-10.2 7.74-.7 1.5-1.06 3.04-1.06 4.6 0 2.47.9 4.9 2.55 6.8 1.5 1.74 3.38 2.8 5.03 2.8.58 0 1.12-.13 1.58-.4.08-.04.14-.12.16-.2.03-.1.02-.18-.03-.26-.1-.17-.3-.23-.46-.13a2.54 2.54 0 0 1-1.25.3c-1.44 0-3.16-.98-4.5-2.56-1.54-1.8-2.4-4.06-2.4-6.36 0-1.45.33-2.9 1-4.3 3.02-6.4 7.3-7.35 9.58-7.36z"/><path d="M161.76 42.33c-.2 0-.35.14-.36.32-.01.2.13.35.32.36l.08.01c.2.02.73.08 1.32.26.5.14 1.2.42 1.67.88.07.06.15.1.24.1a.31.31 0 0 0 .24-.1c.06-.07.1-.15.1-.24a.35.35 0 0 0-.1-.24c-.52-.5-1.27-.88-2.23-1.12-.65-.18-1.18-.22-1.28-.23zm5.2.5c.1 0 .18-.04.25-.1.13-.14.13-.35-.01-.5-.5-.47-1.2-.83-2.1-1.06-.6-.15-1.1-.2-1.2-.2s-.18.03-.25.1a.31.31 0 0 0-.1.24.33.33 0 0 0 .08.25.29.29 0 0 0 .23.1h.08a6.66 6.66 0 0 1 1.23.24c.46.13 1.1.38 1.55.82.07.07.15.1.24.1zm1.93-1.42c.1 0 .18-.03.25-.1.06-.07.1-.15.1-.24a.35.35 0 0 0-.1-.24c-.46-.44-1.12-.77-1.96-1-.55-.14-1-.18-1.12-.2-.18 0-.35.13-.36.32s.13.35.32.36l.07.01c.22.02.66.08 1.14.22.43.12 1.03.36 1.44.76.05.06.14.1.22.1zm-.7-3.1a.34.34 0 0 0-.34.32c-.01.2.13.35.32.36h.07c.16.02.58.07 1.05.2.4.1.94.33 1.32.7.07.06.15.1.24.1s.18-.03.25-.1c.06-.07.1-.15.1-.25a.35.35 0 0 0-.1-.24c-.43-.42-1.03-.72-1.82-.92a5.93 5.93 0 0 0-1.04-.17l-.01.07.01-.07-.05.01zm2.18-1.34c-.1 0-.18.03-.25.1a.31.31 0 0 0-.1.24c0 .1.03.18.1.25s.14.1.23.1h.06a4.79 4.79 0 0 1 .96.19c.36.1.86.3 1.2.63.07.06.15.1.24.1s.18-.03.25-.1c.06-.07.1-.15.1-.24a.35.35 0 0 0-.1-.24c-.4-.4-.95-.66-1.7-.85-.5-.15-.9-.18-.98-.18v.07-.07zm2.15-1.34c-.1 0-.18.03-.25.1a.31.31 0 0 0-.1.24.33.33 0 0 0 .08.25.29.29 0 0 0 .23.1h.06a5 5 0 0 1 .87.17c.26.08.75.25 1.08.57.07.06.15.1.24.1s.18-.04.25-.1a.36.36 0 0 0-.01-.5c-.37-.35-.87-.6-1.55-.78-.44-.12-.8-.16-.9-.16v.07-.07zm2.17-.64h0c.1.01.4.04.78.15.4.12.75.3.96.5a.35.35 0 0 0 .24.1.35.35 0 0 0 .24-.1c.13-.13.13-.35-.01-.5-.34-.32-.8-.56-1.4-.72-.4-.1-.7-.13-.8-.13h-.02a.32.32 0 0 0-.23.1.31.31 0 0 0-.1.24.33.33 0 0 0 .08.25.29.29 0 0 0 .23.1h.05zm4.14-1.27c-.3-.3-.72-.5-1.28-.65a3.01 3.01 0 0 0-.72-.12c-.1 0-.18.03-.25.1a.31.31 0 0 0-.1.24.33.33 0 0 0 .08.25c.06.07.14.1.23.12h.04c.08.01.37.04.7.13.2.06.6.2.84.44.07.06.15.1.24.1s.18-.03.25-.1c.06-.07.1-.15.1-.24-.01-.1-.04-.2-.1-.26zm-31.8 37.1c1.72 0 3.44.46 4.72 1.26.6.38 1.1.83 1.44 1.3.34.5.52 1 .53 1.5a.35.35 0 0 0 .34.34c.1 0 .2-.04.25-.1s.1-.15.1-.24c-.01-.65-.23-1.28-.65-1.9-.6-.84-1.53-1.55-2.73-2.07s-2.6-.8-4-.8c-3.45 0-6.57 1.67-8.57 4.6-1.86 2.7-2.8 5.4-2.8 8 0 3.92 2.15 6.55 4 7.62a.31.31 0 0 0 .17.05c.03 0 .06 0 .1-.01.1-.02.16-.08.2-.16s.06-.17.03-.26c-.02-.1-.08-.16-.16-.2-1.68-.98-3.65-3.4-3.65-7.03 0-2.45.9-5 2.68-7.6a9.48 9.48 0 0 1 8-4.28zm-9.78 21.86c-.04-.08-.12-.14-.2-.16-.76-.2-1.44-.84-1.78-1.2a5.91 5.91 0 0 1-.55-.64l-.15-.2-.05-.07a.34.34 0 0 0-.47-.1c-.16.1-.2.32-.1.48a6.85 6.85 0 0 0 .82 1c.7.7 1.4 1.18 2.08 1.38.03.01.06.01.1.01.06 0 .1-.01.16-.04.08-.05.14-.12.16-.2.05-.1.04-.18 0-.26zm-.65 2.9c.03.01.06.01.1.01a.38.38 0 0 0 .17-.04c.08-.05.14-.12.16-.2s.02-.18-.03-.26c-.04-.08-.12-.14-.2-.16-.7-.2-1.34-.78-1.65-1.1a6.17 6.17 0 0 1-.51-.6l-.14-.2-.04-.07a.34.34 0 0 0-.22-.15c-.1-.02-.18 0-.26.05a.34.34 0 0 0-.15.22c-.02.1 0 .18.05.26a9.3 9.3 0 0 0 .77.95c.67.7 1.3 1.1 1.96 1.3zm-2.8.3c.03.04.3.44.72.88.62.64 1.22 1.03 1.83 1.2.03.01.06.01.1.01.06 0 .1-.01.16-.04.08-.04.14-.12.16-.2.05-.18-.05-.37-.23-.43-.65-.18-1.23-.72-1.53-1.03l-.48-.55c-.06-.07-.1-.13-.13-.17l-.04-.06a.34.34 0 0 0-.22-.15c-.1-.02-.18 0-.26.05a.34.34 0 0 0-.15.22c0 .1.02.2.07.27zm-.08 2.54c.02.03.26.4.67.82.57.6 1.13.96 1.7 1.13.03.01.06.01.1.01.06 0 .1-.02.17-.04.08-.04.14-.12.16-.2s.01-.18-.03-.26-.12-.14-.2-.16c-.6-.17-1.13-.66-1.4-.95l-.44-.5-.12-.16-.04-.05a.34.34 0 0 0-.22-.15c-.1-.02-.18 0-.26.05a.34.34 0 0 0-.15.22.44.44 0 0 0 .07.26zm-.07 2.56h0c.03.04.25.38.62.76.53.55 1.05.9 1.58 1.04.03.01.06.01.1.01.06 0 .1-.01.16-.04.08-.05.14-.12.16-.2.03-.1.02-.18-.03-.26-.04-.08-.12-.14-.2-.16-.54-.15-1.03-.6-1.27-.86-.14-.14-.27-.3-.4-.46-.05-.06-.08-.1-.1-.15l-.03-.05a.34.34 0 0 0-.47-.1c-.17.1-.22.32-.1.48zm-.08 2.53a5.16 5.16 0 0 0 .57.7c.5.5.96.82 1.45.96.03.01.06.01.1.01.15 0 .3-.1.33-.25a.38.38 0 0 0-.03-.26c-.04-.08-.12-.14-.2-.16-.48-.14-.93-.54-1.15-.78-.16-.16-.28-.32-.36-.42l-.1-.13-.03-.04a.34.34 0 0 0-.22-.15c-.1-.02-.18 0-.26.05a.34.34 0 0 0-.15.22.43.43 0 0 0 .07.25zm-.07 2.55c.02.03.2.3.52.63.44.46.88.74 1.32.88.03.01.06.01.1.01.15 0 .3-.1.33-.25.05-.18-.05-.37-.23-.43-.43-.12-.82-.48-1.02-.7l-.33-.38c-.04-.05-.06-.1-.1-.12l-.03-.04c-.1-.16-.3-.2-.47-.1a.34.34 0 0 0-.15.22c0 .1.01.2.06.27zm-.08 2.55c.02.03.2.28.46.57.4.4.8.67 1.2.8.03.01.06.01.1.01a.38.38 0 0 0 .17-.04c.08-.05.14-.12.16-.2.05-.18-.05-.37-.23-.42-.27-.08-.6-.3-.9-.6l-.3-.33-.1-.14a.34.34 0 0 0-.22-.15c-.1-.02-.18 0-.25.05a.34.34 0 0 0-.15.22.39.39 0 0 0 .06.26zm-3.56 2.2c.1 0 .18-.03.25-.1a.31.31 0 0 0 .1-.24l.02-.9.97-28.6c.22-3.7 1.46-7.9 3.32-11.24 1.6-2.88 3.64-5.1 6-6.63.04.94.16 1.87.36 2.75a.35.35 0 0 0 .41.26.32.32 0 0 0 .21-.15.34.34 0 0 0 .04-.26c-.22-.97-.34-1.98-.35-3a15.18 15.18 0 0 1 2.76-1.2.34.34 0 0 0 .2-.17c.04-.08.05-.17.02-.26a.35.35 0 0 0-.43-.23 15.17 15.17 0 0 0-2.55 1.07c.13-3.24 1.35-6.65 3.53-9.86 1.9-2.8 4.5-5.43 7.18-7.2 2.95-1.96 8.05-5.2 15.14-9.6l9.77-6.03a.39.39 0 0 0 .16-.2.34.34 0 0 0-.04-.26.39.39 0 0 0-.2-.16.36.36 0 0 0-.25.03l-.1.07-24.84 15.58c-2.73 1.82-5.42 4.5-7.37 7.4-2.34 3.46-3.6 7.14-3.65 10.64-2.63 1.57-4.85 3.96-6.6 7.1-1.93 3.46-3.18 7.66-3.4 11.53-.5 8.54-.98 29.34-1 29.55a.34.34 0 0 0 .34.35zm166.32 99.37a2.68 2.68 0 0 0-1.6-.58c-.42 0-.8.12-1.1.35-.34.25-.56.64-.65 1.1-.02.1 0 .18.05.26a.34.34 0 0 0 .22.15c.1.02.18 0 .26-.05s.13-.13.14-.22c.06-.3.2-.54.4-.7.18-.14.42-.2.7-.2a1.92 1.92 0 0 1 1.16.42c.35.28.53.64.53 1.02 0 .45-.25.93-.75 1.42a2.4 2.4 0 0 1-1.7.7c-.66 0-1.32-.27-1.8-.74a2.63 2.63 0 0 1-.81-1.91c0-.92.44-2.37 2.57-4 2.37-1.83 6.92-4.5 11.75-7.33l3.6-2.1c2.54-1.5 5.8-3.46 8.46-5.25 2.77-1.87 4.5-3.26 5.4-4.4.02-.03.04-.07.06-.1.28-.32.54-.64.78-.95 2.13-2.78 3.3-6 3.3-9.08a12.03 12.03 0 0 0-1.66-6.1c-1.97-3.4-4.7-5.37-7.5-5.37-1.2 0-2.28.38-3.14 1.1-.88.73-1.43 1.74-1.62 2.94-.03.2-.05.4-.05.6 0 .9.34 1.75.96 2.36.58.57 1.35.9 2.14.9h.12c.44-.02.94-.26 1.37-.66.48-.44.74-1 .74-1.53 0-.6-.35-1.2-1-1.66a.35.35 0 0 0-.48.08.39.39 0 0 0-.06.26c.02.1.06.17.14.22.48.35.7.7.7 1.1 0 .34-.2.7-.52 1.02-.32.3-.72.47-.93.47h-.1c-.6 0-1.2-.25-1.65-.7-.34-.34-.75-.94-.76-1.87a2.7 2.7 0 0 1 .04-.49c.16-1.02.63-1.9 1.38-2.5.74-.6 1.67-.93 2.7-.93 2.54 0 5.06 1.83 6.9 5.03 1.04 1.8 1.57 3.74 1.57 5.77 0 2.92-1.12 6-3.16 8.66-1.84 2.4-4.3 4.27-6.6 5-.9.3-1.84.44-2.76.44-2.1 0-4.1-.75-5.64-2.12-1.46-1.3-2.3-3-2.3-4.7 0-.96.27-1.87.8-2.72 1.5-2.37 3.26-2.87 4.48-2.87 1.18 0 2.4.48 3.33 1.33.9.8 1.43 1.87 1.43 2.85a2.64 2.64 0 0 1-.1.74c-.2.67-.55 1.2-1.05 1.56-.45.32-1 .5-1.58.5-.6 0-1.17-.18-1.64-.5-.5-.34-.84-.8-.98-1.37-.02-.1-.08-.16-.16-.2s-.17-.06-.26-.03c-.1.02-.16.08-.2.16s-.06.17-.03.26a3.11 3.11 0 0 0 1.26 1.76c.58.4 1.3.6 2.02.6a3.35 3.35 0 0 0 1.98-.62c.63-.45 1.08-1.1 1.3-1.93.08-.3.13-.6.13-.92 0-1.2-.6-2.4-1.66-3.36-1.06-.95-2.44-1.5-3.8-1.5-1.97 0-3.76 1.13-5.05 3.2-.6.96-.9 2-.9 3.08 0 1.87.92 3.77 2.53 5.2 1.66 1.48 3.82 2.3 6.1 2.3a10.02 10.02 0 0 0 2.54-.34c-3.32 2.18-7.42 4.6-11.4 6.92l-.83.48c-4.64 2.72-8.66 5.1-10.88 6.82-2.34 1.8-2.83 3.47-2.83 4.55 0 .08 0 .16.01.25-.64-.44-1.45-.67-2.36-.67-.96 0-2.03.25-3.18.73-2.8 1.17-7.37 3.8-12.2 6.58l-3.68 2.1c-3.36 1.92-5.83 3.27-7.93 4.33 1.82-1.82 2.82-4.2 2.82-6.7 0-1.93-.6-3.75-1.68-5.1-1.15-1.45-2.77-2.24-4.55-2.24h-.26c-1.94.08-3.53.73-4.6 1.88-.9 1-1.4 2.32-1.4 3.74a5.94 5.94 0 0 0 .8 2.97c.56.9 1.34 1.52 2.25 1.75a3.91 3.91 0 0 0 .94.12 3.28 3.28 0 0 0 2.48-1.12 3.72 3.72 0 0 0 .92-2.42c0-.85-.32-1.64-.9-2.22-.13-.13-.35-.13-.48 0s-.13.35 0 .5a2.4 2.4 0 0 1 .7 1.73 3.05 3.05 0 0 1-.74 1.97c-.68.77-1.65 1.07-2.74.8-.74-.2-1.37-.68-1.83-1.44-.45-.74-.7-1.66-.7-2.6 0-1.26.44-2.42 1.23-3.28.95-1.03 2.34-1.6 4.12-1.66h.22c1.6 0 3 .7 4.03 2 1 1.24 1.53 2.9 1.53 4.68 0 2.47-1.03 4.78-2.9 6.5-2.25 2.07-6.1 3.4-9.82 3.4-2.25 0-4.4-.48-6.2-1.38-2.05-1.02-3.67-2.57-4.82-4.6-1.07-1.88-1.63-3.76-1.63-5.45 0-1.53.44-2.86 1.28-3.83.78-.9 1.83-1.4 2.96-1.4.5 0 1.02.1 1.52.3 1.1.43 1.75 1.34 1.75 2.42a2.39 2.39 0 0 1-.35 1.26c-.1.15-.3.33-.56.45-.28.14-.6.22-.87.22-.3 0-.56-.1-.75-.27-.24-.22-.38-.57-.43-1.05-.01-.1-.05-.17-.12-.23s-.16-.1-.25-.07a.34.34 0 0 0-.3.38c.06.64.3 1.16.64 1.5.4.37.88.45 1.2.45a2.7 2.7 0 0 0 1.18-.29c.37-.2.66-.43.83-.7a3.05 3.05 0 0 0 .46-1.62c0-1.07-.57-2.44-2.2-3.06-.58-.23-1.18-.34-1.77-.34h0c-1.33 0-2.57.58-3.48 1.63-.94 1.08-1.45 2.6-1.45 4.28 0 1.8.6 3.8 1.72 5.8 1.22 2.15 2.94 3.8 5.1 4.87 1.9.95 4.14 1.45 6.5 1.45a17.5 17.5 0 0 0 3.51-.36c.04.01.08.01.12 0 1.43-.23 3.5-1.03 6.5-2.5 3.7-1.84 8.14-4.4 12.4-6.85l.9-.52c4.65-2.67 8.7-4.97 11.23-6.03 1.07-.45 2.05-.67 2.9-.67 1 0 1.8.3 2.38.87a2.63 2.63 0 0 1 .76 1.87c0 .54-.16 1.07-.46 1.5a2.4 2.4 0 0 1-1.36.96c-.3.1-.58.13-.83.13-.47 0-.82-.14-1.07-.44-.2-.25-.33-.62-.33-1s.12-.78.32-1.06a1 1 0 0 1 1.23-.36.33.33 0 0 0 .26-.02.34.34 0 0 0 .17-.2.33.33 0 0 0-.02-.26.35.35 0 0 0-.19-.17c-.22-.08-.43-.1-.64-.1-.54 0-1.03.26-1.36.72-.3.4-.45.92-.46 1.47 0 .56.18 1.08.5 1.45.37.44.93.68 1.57.68a3.51 3.51 0 0 0 1.04-.16c.72-.2 1.32-.63 1.73-1.22.38-.55.58-1.2.58-1.9 0-.1-.01-.18-.02-.27.56.4 1.22.6 1.87.6.8 0 1.58-.32 2.18-.9.63-.6.96-1.27.96-1.9-.04-.68-.32-1.23-.82-1.64zm17.65-20.6c-1.3 0-2.53-.3-3.5-.88-.16-.1-.37-.04-.47.13-.1.16-.04.37.12.47 1.08.62 2.44.96 3.84.96 2 0 6.9-.76 10.2-7.74.7-1.5 1.06-3.04 1.06-4.6a10.36 10.36 0 0 0-2.56-6.8c-1.5-1.75-3.38-2.8-5.03-2.8-.58 0-1.1.13-1.58.4-.08.04-.14.12-.16.2s-.01.18.03.26c.1.17.3.23.46.13a2.54 2.54 0 0 1 1.25-.3c1.45 0 3.17.98 4.52 2.56 1.54 1.8 2.4 4.06 2.4 6.36 0 1.45-.33 2.9-1 4.3-3 6.4-7.3 7.35-9.57 7.36zm-1.38 4.9h.02a.34.34 0 0 0 .34-.32c.01-.2-.13-.35-.32-.36l-.08-.01c-.2-.02-.73-.08-1.32-.26-.5-.14-1.2-.42-1.67-.88-.14-.13-.35-.13-.48.01-.06.07-.1.15-.1.24a.35.35 0 0 0 .1.24c.52.5 1.27.88 2.23 1.12.65.17 1.18.22 1.28.22zm-5.45-.4c-.13.14-.13.35.01.5.5.47 1.2.83 2.1 1.06.6.15 1.1.2 1.2.2.2 0 .35-.14.36-.32a.33.33 0 0 0-.08-.25.29.29 0 0 0-.23-.1l-.08-.01a6.66 6.66 0 0 1-1.23-.24c-.46-.13-1.1-.4-1.55-.82a.36.36 0 0 0-.5 0zm-1.94 1.42c-.13.14-.13.35.01.5.46.44 1.1.77 1.96 1 .57.14 1.03.18 1.12.2h.02a.34.34 0 0 0 .34-.32c0-.1-.03-.18-.1-.25s-.14-.1-.23-.1h-.07c-.17-.02-.63-.07-1.14-.22-.43-.12-1.03-.36-1.43-.76a.36.36 0 0 0-.5 0zm.94 3c.2 0 .35-.14.36-.32a.33.33 0 0 0-.08-.25.29.29 0 0 0-.23-.1l-.07-.01c-.12-.01-.56-.06-1.05-.2-.4-.1-.94-.33-1.32-.7-.13-.13-.35-.13-.48.01-.06.07-.1.15-.1.24a.35.35 0 0 0 .1.24c.43.42 1.03.72 1.82.92.52.13.93.16 1.05.17z"/><path d="M303.84 199.86h.02a.34.34 0 0 0 .34-.32c.01-.2-.13-.35-.32-.36l-.06-.01c-.14-.01-.53-.06-.96-.2-.36-.1-.86-.3-1.2-.63a.35.35 0 0 0-.24-.1c-.1 0-.2.04-.25.1-.06.07-.1.15-.1.24a.35.35 0 0 0 .1.24c.4.4.95.66 1.68.85.5.14.88.17 1 .18zm-2.14 1.34a.34.34 0 0 0 .34-.32.33.33 0 0 0-.08-.25.29.29 0 0 0-.23-.1h-.05c-.13-.01-.48-.05-.87-.17-.26-.08-.76-.25-1.08-.57a.35.35 0 0 0-.24-.1c-.1 0-.2.04-.25.1-.13.14-.13.35.01.48.37.36.88.6 1.55.78.44.1.78.14.88.15l.01-.07-.01.07zm-2.17 1.34h.02a.34.34 0 0 0 .34-.32c.01-.2-.13-.35-.32-.36h-.05c-.1-.01-.4-.04-.78-.15-.4-.12-.75-.3-.96-.5a.35.35 0 0 0-.24-.1c-.1 0-.2.04-.25.1s-.1.15-.1.24a.35.35 0 0 0 .1.24c.33.32.8.56 1.4.72.42.1.74.1.83.12zm-4.16.56c.3.3.72.5 1.28.65a3.01 3.01 0 0 0 .72.12c.1 0 .18-.03.25-.1a.31.31 0 0 0 .1-.24.33.33 0 0 0-.08-.25.29.29 0 0 0-.23-.1h-.04c-.08-.01-.37-.04-.7-.13-.2-.06-.6-.2-.84-.44-.13-.13-.35-.13-.48.01-.06.07-.1.15-.1.25 0 .08.04.17.1.23zm49.36-86.9a.31.31 0 0 0 .22.09h.02c.1-.01.17-.05.23-.12a.33.33 0 0 0 .08-.25c-.01-.1-.05-.17-.1-.24-.28-.24-.4-.5-.4-.8 0-.34.2-.72.52-1.02s.76-.48 1.14-.48h0a1.17 1.17 0 0 1 .8.3c.28.26.5.66.63 1.2.05.2.08.43.08.64 0 .68-.28 1.32-.8 1.8-.5.46-1.16.73-1.82.73-.77 0-1.5-.35-2.07-1-.7-.8-1.2-2.04-1.4-3.6-.4-2.98-.4-8.3-.43-13.92l-.02-4.18c-.02-2.98-.08-6.8-.3-10-.22-3.35-.56-5.55-1.08-6.9a.88.88 0 0 0-.06-.1c-.6-1.8-1.5-3.53-2.6-4.97-2.54-3.36-6.1-5.2-10.03-5.2h-.07c-2.76.01-5.1.7-6.76 2.02-1.46 1.15-2.3 2.74-2.3 4.36 0 1.42.63 2.7 1.78 3.64.65.52 1.4.8 2.15.8h0c1.15 0 2.23-.64 2.75-1.64.12-.24.2-.54.2-.9 0-.54-.15-1.06-.42-1.47a1.7 1.7 0 0 0-1.44-.79c-.35 0-.7.1-1.1.26-.08.04-.15.1-.18.2s-.03.18.01.26.1.15.2.18.18.03.26-.01c.3-.13.56-.2.8-.2.37 0 .65.16.88.5.2.28.3.7.3 1.1 0 .22-.04.45-.1.58-.4.77-1.24 1.27-2.14 1.27h0c-.6 0-1.2-.22-1.73-.65-.98-.8-1.52-1.9-1.53-3.1 0-1.4.74-2.8 2.04-3.82 1.07-.85 3.05-1.86 6.34-1.87h.06c4.75 0 7.8 2.7 9.5 4.94 2.07 2.74 3.3 6.34 3.3 9.64 0 .82-.08 1.6-.23 2.3-.98 4.5-4.75 6.86-7.97 6.86h0c-2.15 0-3.86-1-4.8-2.8-.55-1.06-.83-2.08-.83-3.05 0-1.73.86-2.85 1.58-3.48.9-.8 2.14-1.28 3.3-1.28.94 0 1.73.3 2.28.88s.83 1.22.83 1.93-.3 1.43-.8 1.97c-.67.7-1.6 1-2.48.78-.18-.05-.37.06-.42.24a.38.38 0 0 0 .03.26c.05.08.12.14.2.16a2.98 2.98 0 0 0 .78.1c.86 0 1.73-.4 2.37-1.07s1-1.56 1-2.45c0-.88-.35-1.72-1.02-2.4-.68-.7-1.66-1.1-2.77-1.1-1.33 0-2.7.53-3.74 1.46-1.17 1.03-1.82 2.45-1.82 4 0 1.08.3 2.2.9 3.37 1.04 2 3 3.15 5.4 3.15 3.4 0 7.34-2.4 8.55-6.98.22 4 .24 8.77.26 13.4v.95c.02 5.6.07 10.1.43 12.9.23 1.73.75 3.06 1.56 3.97a3.99 3.99 0 0 0 1.16.9c-.43.2-.82.5-1.16.9-.8.9-1.34 2.24-1.56 3.97-.4 3.04-.42 8.33-.44 13.93l-.02 4.24c-.02 2.66-.07 6.06-.23 9.07-1.2-4.58-5.16-6.98-8.54-6.98-2.4 0-4.35 1.15-5.4 3.15-.6 1.15-.9 2.3-.9 3.37 0 1.55.64 2.97 1.82 4 1.05.92 2.4 1.45 3.74 1.46 1.1 0 2.1-.4 2.77-1.1s1.02-1.53 1.02-2.4-.37-1.78-1-2.45c-.65-.68-1.5-1.07-2.37-1.07-.26 0-.52.04-.78.1-.18.05-.3.24-.24.42a.34.34 0 0 0 .42.24 2.54 2.54 0 0 1 .6-.08c.68 0 1.36.3 1.88.86s.82 1.26.8 1.97c0 .7-.28 1.36-.83 1.93s-1.34.88-2.28.88c-1.15 0-2.38-.48-3.3-1.28-.72-.64-1.58-1.76-1.58-3.48 0-.97.28-2 .83-3.05.94-1.8 2.64-2.78 4.8-2.8h0c3.22 0 7 2.36 7.97 6.86.15.7.23 1.47.23 2.3 0 3.3-1.24 6.9-3.3 9.64-1.7 2.25-4.74 4.94-9.5 4.94h-.06c-3.3-.02-5.27-1.03-6.34-1.87-1.3-1.03-2.04-2.42-2.04-3.82 0-1.2.54-2.3 1.53-3.1.53-.43 1.1-.65 1.73-.65.9 0 1.74.5 2.14 1.27.07.13.1.36.1.58 0 .4-.12.8-.3 1.08a1.01 1.01 0 0 1-.88.49c-.24 0-.5-.07-.8-.2a.34.34 0 0 0-.45.17c-.08.17 0 .38.17.45.38.17.74.26 1.08.26a1.69 1.69 0 0 0 1.44-.79c.27-.4.42-.93.42-1.47 0-.35-.06-.65-.2-.9-.52-1-1.6-1.64-2.74-1.64-.76 0-1.5.28-2.15.8-1.15.93-1.78 2.22-1.78 3.64 0 1.62.84 3.2 2.3 4.36 1.66 1.3 4 2 6.77 2.02h.06c3.94 0 7.5-1.85 10.04-5.2 1.1-1.45 2-3.17 2.6-4.97.03-.03.05-.06.06-.1.5-1.36.86-3.56 1.08-6.9.27-4.16.3-9.3.3-14.26v-1.03c.02-5.38.07-10.06.43-12.8.2-1.56.7-2.8 1.4-3.6.58-.65 1.3-1 2.07-1 .66 0 1.33.27 1.82.73.5.48.8 1.12.8 1.8 0 .2-.03.42-.08.64-.13.54-.34.95-.63 1.2a1.19 1.19 0 0 1-.8.3c-.4 0-.82-.18-1.15-.48s-.52-.67-.52-1.02c0-.3.13-.56.4-.8.07-.06.1-.14.12-.23a.33.33 0 0 0-.08-.25c-.06-.07-.14-.1-.23-.12a.33.33 0 0 0-.25.08c-.42.36-.64.83-.64 1.32 0 .55.27 1.1.74 1.53.46.42 1.04.66 1.6.66h0c.47 0 .9-.17 1.26-.5.4-.35.67-.87.83-1.55a3.21 3.21 0 0 0 .1-.81 3.15 3.15 0 0 0-1-2.3c-.25-.23-.53-.43-.85-.58a3.55 3.55 0 0 0 .85-.58 3.11 3.11 0 0 0 1-2.3c0-.26-.03-.54-.1-.8-.16-.68-.45-1.2-.83-1.55-.35-.32-.8-.5-1.26-.5h0c-.56 0-1.15.24-1.6.66-.47.44-.74.98-.74 1.52a1.9 1.9 0 0 0 .67 1.35zM327.18 166c-1.72 0-3.44-.46-4.72-1.26-.6-.38-1.1-.84-1.44-1.3-.34-.5-.52-1-.53-1.5a.35.35 0 0 0-.34-.34c-.1 0-.2.04-.25.1-.06.07-.1.15-.1.24.01.65.23 1.28.65 1.9.6.84 1.53 1.55 2.73 2.07s2.6.8 4 .8c3.45 0 6.57-1.67 8.57-4.6 1.86-2.7 2.8-5.4 2.8-8 0-3.92-2.15-6.55-4-7.62-.08-.05-.17-.06-.26-.03-.1.02-.16.08-.2.16s-.06.17-.03.26c.02.1.08.16.16.2 1.68.98 3.65 3.4 3.65 7.03 0 2.45-.9 5-2.68 7.6-2.55 3.7-6.1 4.27-8 4.28zm10-21.7c.76.2 1.44.84 1.78 1.2.24.25.43.5.55.64l.15.2.05.07a.34.34 0 0 0 .29.15c.06 0 .13-.02.2-.06.16-.1.2-.32.1-.48-.06-.1-.36-.52-.83-1-.7-.7-1.4-1.18-2.08-1.38-.08-.02-.18-.02-.26.03s-.14.12-.16.2a.32.32 0 0 0 .22.43zm.43-3.06c-.08-.02-.18-.01-.26.03-.08.05-.14.12-.16.2-.03.1-.02.18.03.26.04.08.12.14.2.16.7.2 1.34.78 1.65 1.1.22.23.4.45.5.6l.14.2.04.06a.34.34 0 0 0 .22.15c.02 0 .05.01.07.01a.33.33 0 0 0 .19-.06c.16-.1.2-.32.1-.48-.05-.08-.33-.5-.77-.94-.65-.66-1.3-1.1-1.96-1.3z"/><path d="M340.42 140.94c-.05-.08-.3-.46-.72-.88-.62-.64-1.22-1.03-1.83-1.2a.38.38 0 0 0-.26.03c-.08.05-.14.12-.16.2-.05.18.05.37.23.43.64.18 1.23.72 1.53 1.03l.48.55.13.17.04.06a.34.34 0 0 0 .22.15c.02 0 .05.01.07.01a.33.33 0 0 0 .19-.06.34.34 0 0 0 .15-.22c-.01-.1-.02-.2-.07-.27zm.08-2.54c-.02-.03-.26-.4-.67-.82-.57-.6-1.13-.96-1.7-1.13-.1-.02-.18-.02-.26.03s-.14.12-.16.2-.01.18.03.26.12.14.2.16c.6.17 1.13.66 1.4.95l.44.5.12.16.04.05a.34.34 0 0 0 .29.15c.06 0 .13-.02.2-.06a.34.34 0 0 0 .15-.22c0-.08-.02-.17-.07-.25zm.07-2.55c-.02-.04-.25-.38-.62-.76-.53-.55-1.05-.9-1.58-1.04-.08-.02-.18-.01-.26.03-.08.05-.14.12-.16.2s-.01.18.03.26.12.14.2.16c.54.15 1.03.6 1.27.86l.4.46c.05.06.08.1.1.15l.03.05a.34.34 0 0 0 .29.15c.06 0 .13-.02.2-.06a.34.34 0 0 0 .15-.22.32.32 0 0 0-.05-.25zm.07-2.55h0c-.06-.08-.26-.37-.57-.7-.5-.5-.96-.82-1.45-.96-.18-.05-.37.05-.42.24a.38.38 0 0 0 .03.26c.04.08.12.14.2.16.48.14.93.55 1.15.78.16.16.28.32.36.42l.1.13.03.04a.34.34 0 0 0 .29.15c.06 0 .13-.02.2-.06.15-.1.2-.3.1-.46zm.08-2.55h0a4.44 4.44 0 0 0-.52-.63c-.44-.46-.88-.74-1.32-.87-.1-.02-.18-.02-.26.03-.08.04-.14.12-.16.2s-.01.18.03.26.12.14.2.16c.3.1.7.34 1.02.7.1.1.2.24.33.38.04.05.06.1.08.12l.03.04a.34.34 0 0 0 .22.15c.02 0 .05.01.07.01a.33.33 0 0 0 .19-.06.34.34 0 0 0 .15-.22c.01-.1-.01-.2-.06-.27zm.08-2.55a4.57 4.57 0 0 0-.47-.57c-.4-.4-.8-.67-1.2-.8-.08-.02-.18-.01-.26.03-.08.05-.14.12-.16.2-.02.1-.02.18.03.26.04.08.12.14.2.16.27.08.6.3.9.6l.3.33.1.14a.34.34 0 0 0 .22.15c.02 0 .05.01.07.01a.33.33 0 0 0 .19-.06c.15-.1.2-.3.1-.47zm-7.1 46.33c2.63-1.57 4.84-3.96 6.6-7.1 1.93-3.46 3.18-7.66 3.4-11.53.5-8.54.98-29.34 1-29.55 0-.2-.15-.35-.33-.35-.2 0-.35.15-.35.33v.92l-.97 28.6c-.22 3.72-1.46 7.92-3.32 11.24-1.6 2.88-3.64 5.1-6 6.63a16.41 16.41 0 0 0-.35-2.75c-.02-.1-.07-.17-.15-.2a.34.34 0 0 0-.26-.04.32.32 0 0 0-.21.15.34.34 0 0 0-.04.26c.22.97.34 1.98.35 3a15.18 15.18 0 0 1-2.76 1.2.34.34 0 0 0-.2.17c-.04.08-.05.17-.02.26.06.18.25.28.43.23.86-.27 1.72-.62 2.55-1.07-.13 3.24-1.35 6.65-3.53 9.86-1.9 2.8-4.52 5.44-7.18 7.2-3.72 2.47-10.3 6.58-15.14 9.6l-9.78 6.04a.39.39 0 0 0-.16.2.34.34 0 0 0 .04.26c.06.1.18.17.3.17.06 0 .12-.02.18-.05.57-.34 17.9-10.95 24.94-15.64 2.74-1.82 5.42-4.5 7.37-7.4 2.32-3.5 3.58-7.16 3.63-10.66zm-204.22-53.88a.31.31 0 0 0-.22-.09c-.1.01-.2.05-.25.12-.12.14-.1.36.03.48.27.24.4.5.4.8 0 .34-.2.72-.52 1.02s-.75.48-1.14.48c-.32 0-.6-.1-.82-.3-.28-.26-.5-.66-.63-1.2-.05-.2-.08-.43-.08-.64 0-.68.28-1.32.8-1.8.5-.46 1.15-.73 1.82-.73h0c.78 0 1.5.34 2.07 1 .7.8 1.2 2.04 1.4 3.6.4 2.97.4 8.28.43 13.9l.02 4.2c.02 2.96.08 6.77.3 10 .22 3.35.56 5.54 1.08 6.9.01.04.04.07.06.1.6 1.8 1.5 3.53 2.6 4.97 2.54 3.36 6.1 5.2 10.03 5.2h.07c2.76-.01 5.1-.7 6.76-2.02 1.46-1.15 2.3-2.74 2.3-4.36 0-1.42-.63-2.7-1.78-3.64-.65-.52-1.4-.8-2.15-.8h0c-1.15 0-2.23.64-2.74 1.64-.12.24-.2.54-.2.9 0 .54.15 1.06.42 1.47.33.5.85.8 1.43.8.34 0 .7-.1 1.1-.26a.34.34 0 0 0-.28-.62c-.3.13-.56.2-.8.2a.98.98 0 0 1-.88-.49 1.96 1.96 0 0 1-.3-1.09c0-.22.04-.45.1-.58.4-.77 1.23-1.27 2.14-1.27.6 0 1.2.22 1.72.65.98.8 1.52 1.9 1.53 3.1 0 1.4-.74 2.8-2.04 3.82-1.07.85-3.04 1.86-6.34 1.87h-.06c-4.76 0-7.8-2.7-9.5-4.94-2.07-2.74-3.3-6.34-3.3-9.64 0-.82.08-1.6.23-2.3.98-4.5 4.75-6.86 7.97-6.86h0c2.15 0 3.86 1 4.8 2.8.55 1.06.83 2.08.83 3.05 0 1.72-.86 2.84-1.58 3.48-.9.8-2.14 1.28-3.3 1.28-.94 0-1.73-.3-2.28-.88-.55-.57-.83-1.22-.83-1.93s.3-1.43.82-1.97 1.2-.86 1.88-.86c.2 0 .4.03.6.08a.38.38 0 0 0 .26-.03c.08-.05.14-.12.16-.2s.01-.18-.03-.26-.1-.13-.2-.16a3.11 3.11 0 0 0-.79-.1c-.86 0-1.73.4-2.38 1.07-.64.67-1 1.56-1 2.45 0 .88.35 1.72 1.02 2.4.68.7 1.66 1.1 2.77 1.1 1.33 0 2.7-.53 3.74-1.46 1.17-1.03 1.82-2.45 1.82-4 0-1.08-.3-2.22-.9-3.37-1.04-2-3-3.15-5.4-3.15-3.4 0-7.34 2.4-8.55 6.98-.22-4-.24-8.8-.26-13.46v-.9c-.02-5.6-.07-10.1-.44-12.9-.23-1.73-.75-3.06-1.56-3.97a3.99 3.99 0 0 0-1.16-.9c.43-.2.82-.5 1.16-.9.8-.9 1.34-2.24 1.56-3.97.4-3.04.42-8.33.44-13.92l.02-4.26c.02-2.66.07-6.06.23-9.07 1.2 4.58 5.15 6.98 8.54 6.98 2.4 0 4.35-1.15 5.4-3.15.6-1.16.9-2.3.9-3.37 0-1.55-.64-2.97-1.82-4-1.05-.92-2.4-1.45-3.74-1.46-1.1 0-2.1.4-2.77 1.1s-1.02 1.53-1.02 2.4.37 1.78 1 2.45c.65.68 1.5 1.07 2.38 1.07.26 0 .52-.04.78-.1.18-.05.3-.24.24-.42-.02-.1-.08-.16-.16-.2s-.16-.06-.25-.04c-.87.23-1.82-.07-2.5-.78-.52-.54-.82-1.26-.82-1.97s.28-1.36.83-1.93 1.34-.88 2.28-.88c1.15 0 2.38.48 3.3 1.28.72.64 1.58 1.76 1.58 3.48 0 .97-.28 2-.83 3.05-.94 1.8-2.64 2.78-4.8 2.8h0c-3.22 0-7-2.36-7.97-6.86-.15-.7-.23-1.47-.23-2.3 0-3.3 1.23-6.9 3.3-9.64 1.7-2.25 4.74-4.94 9.5-4.94h.06c3.3.02 5.27 1.03 6.35 1.87 1.3 1.02 2.04 2.42 2.04 3.82 0 1.2-.54 2.3-1.53 3.1-.53.43-1.1.64-1.72.65h0c-.9 0-1.74-.5-2.14-1.27-.07-.13-.1-.35-.1-.58 0-.4.12-.8.3-1.1.23-.33.5-.48.88-.5.24 0 .5.07.8.2a.34.34 0 0 0 .45-.17c.08-.17 0-.38-.17-.45-.38-.17-.74-.26-1.08-.26a1.69 1.69 0 0 0-1.44.79c-.27.4-.42.93-.42 1.47 0 .35.06.65.2.9.5 1 1.6 1.64 2.74 1.64h0c.76 0 1.5-.28 2.15-.8 1.15-.93 1.78-2.22 1.78-3.64 0-1.62-.84-3.2-2.3-4.36-1.66-1.3-4-2-6.76-2.02h-.06c-3.94 0-7.5 1.85-10.04 5.2-1.1 1.45-2 3.17-2.6 4.97-.03.03-.05.07-.06.1-.5 1.37-.86 3.56-1.08 6.9-.27 4.16-.3 9.3-.3 14.26v1.03c-.02 5.4-.07 10.07-.43 12.8-.2 1.56-.7 2.8-1.4 3.6-.58.65-1.3 1-2.07 1-.67 0-1.33-.27-1.82-.73-.5-.48-.8-1.12-.8-1.8 0-.2.03-.43.08-.64.13-.54.35-.95.63-1.2a1.19 1.19 0 0 1 .8-.3h0c.4 0 .82.18 1.15.48s.52.68.5 1.02c0 .3-.13.56-.4.8-.07.06-.1.14-.12.23a.33.33 0 0 0 .08.25c.06.07.14.1.23.12.1 0 .18-.02.25-.08.4-.36.64-.83.64-1.32 0-.55-.27-1.1-.74-1.53-.47-.42-1.03-.66-1.6-.66a1.87 1.87 0 0 0-1.27.49c-.4.35-.67.87-.83 1.55a3.21 3.21 0 0 0-.1.81 3.15 3.15 0 0 0 1 2.3c.25.24.54.43.85.58a3.55 3.55 0 0 0-.85.58 3.11 3.11 0 0 0-1 2.3c0 .26.03.54.1.8.17.68.45 1.2.83 1.55.35.32.8.5 1.26.5.57 0 1.16-.24 1.6-.66.48-.43.74-.98.74-1.53.01-.44-.2-.9-.63-1.27z"/><path d="M140 147.07a.39.39 0 0 0 .16-.2.38.38 0 0 0-.03-.26c-.05-.08-.12-.14-.2-.16s-.18-.01-.26.03c-1.84 1.07-3.98 3.7-4 7.62 0 2.6.94 5.3 2.8 8 2 2.9 5.12 4.6 8.56 4.6 1.88 0 3.68-.5 5.1-1.36.7-.43 1.24-.94 1.64-1.5.42-.6.64-1.23.65-1.9a.34.34 0 0 0-.34-.35c-.2 0-.35.15-.35.34-.01.5-.2 1.02-.53 1.5-.5.72-1.37 1.37-2.44 1.83-1.12.48-2.4.74-3.72.74-1.9 0-5.45-.56-8-4.3-1.78-2.6-2.68-5.15-2.68-7.6.01-3.6 1.97-6.04 3.66-7.02zm-5.95-.57a.33.33 0 0 0 .19.06c.1 0 .22-.05.28-.15h.01c.08-.12.4-.54.82-1 .32-.33.97-.9 1.7-1.1.1-.03.16-.08.2-.16s.05-.17.03-.26-.08-.16-.16-.2-.17-.05-.26-.03c-.7.2-1.4.66-2.08 1.38-.5.5-.8.96-.82 1a.34.34 0 0 0 .09.48h0zm.1-2.48c.02 0 .05 0 .07-.01a.34.34 0 0 0 .22-.15l.01-.02a5.92 5.92 0 0 1 .77-.92c.37-.37.94-.85 1.57-1.03.1-.02.16-.08.2-.16s.05-.17.03-.26-.08-.16-.16-.2-.17-.05-.26-.03c-.65.2-1.3.63-1.95 1.3-.48.5-.77.95-.77.95-.05.08-.07.17-.05.26a.34.34 0 0 0 .15.22c.04.04.1.06.17.06zm-.08-2.55a.35.35 0 0 0 .29-.15l.01-.01c.07-.1.33-.47.7-.85.28-.28.84-.78 1.45-.95.18-.05.3-.24.23-.43-.05-.18-.25-.28-.42-.23-.62.18-1.2.57-1.83 1.2a6.95 6.95 0 0 0-.72.88c-.05.08-.07.17-.05.26a.34.34 0 0 0 .15.22c.05.03.12.05.18.05zm-.26-2.6c.06.04.12.06.18.06.1 0 .22-.06.3-.17.06-.1.3-.43.65-.78.25-.26.77-.7 1.33-.87.1-.02.16-.08.2-.16s.05-.17.03-.26-.08-.16-.16-.2-.17-.05-.26-.03c-.57.17-1.13.54-1.7 1.13-.42.44-.67.82-.67.82-.1.15-.06.36.1.47zm.1-2.5c.02 0 .05 0 .07-.01.1-.02.17-.07.22-.16a5.17 5.17 0 0 1 .6-.72c.23-.24.7-.65 1.2-.8.1-.02.16-.08.2-.16s.05-.17.03-.26c-.05-.18-.24-.28-.42-.24-.53.16-1.05.5-1.58 1.04-.37.38-.6.72-.62.76-.1.16-.06.37.1.47a.28.28 0 0 0 .19.07zm-.08-2.55c.02 0 .05 0 .07-.01.1-.02.17-.07.22-.16.04-.06.24-.34.54-.65.2-.2.63-.6 1.1-.72.18-.05.3-.24.23-.43-.05-.18-.24-.28-.42-.24-.5.14-.96.46-1.45.96-.34.35-.54.66-.57.7-.05.08-.07.17-.05.26a.34.34 0 0 0 .15.22.27.27 0 0 0 .2.08zm-.07-2.53c.1 0 .22-.06.3-.16 0 0 .2-.28.48-.58.2-.2.56-.52.97-.64.18-.05.3-.24.23-.43-.03-.1-.08-.16-.16-.2s-.17-.05-.26-.03c-.45.13-.88.42-1.32.87a6.14 6.14 0 0 0-.52.63c-.05.08-.07.17-.05.26a.34.34 0 0 0 .15.22.28.28 0 0 0 .19.07zm-.26-2.62a.33.33 0 0 0 .19.06c.02 0 .05 0 .07-.01a.34.34 0 0 0 .22-.15v-.01a3.39 3.39 0 0 1 .43-.51c.28-.28.6-.5.85-.56.18-.05.3-.24.23-.42-.02-.1-.08-.16-.16-.2s-.17-.05-.26-.03c-.4.12-.8.38-1.2.8-.3.3-.46.57-.46.57-.05.08-.07.17-.05.26a.28.28 0 0 0 .14.22zm23.18 40.35c.48 0 .9.1 1.26.3.16.1.37.03.46-.13.1-.17.03-.38-.13-.47-.47-.26-1-.4-1.57-.4-1.66.01-3.54 1.05-5.04 2.8-1.65 1.92-2.55 4.34-2.55 6.8 0 1.56.36 3.1 1.06 4.6 3.28 6.98 8.2 7.74 10.18 7.74 1.4 0 2.78-.34 3.85-.97a.39.39 0 0 0 .16-.2.38.38 0 0 0-.03-.26c-.1-.16-.3-.22-.47-.13-.97.57-2.2.88-3.5.88-2.3 0-6.57-.96-9.58-7.35-.66-1.4-1-2.84-1-4.3 0-2.3.85-4.57 2.4-6.36 1.34-1.57 3.07-2.55 4.5-2.55zm8.68 23.9c0-.1-.03-.18-.1-.25-.13-.14-.35-.14-.48-.01-.56.55-1.45.83-1.92.95a7.17 7.17 0 0 1-.83.16l-.32.04a.33.33 0 0 0-.32.36.34.34 0 0 0 .34.32h.01c.1-.01.63-.05 1.3-.2.96-.24 1.7-.62 2.23-1.12a.43.43 0 0 0 .1-.24zm-1.48 2.9h.02s.53-.03 1.2-.2c.9-.23 1.6-.58 2.1-1.06a.37.37 0 0 0 .01-.5.31.31 0 0 0-.24-.1c-.1 0-.18.03-.25.1-.53.5-1.34.77-1.8.88-.24.06-.5.1-.77.15l-.23.03-.08.01a.33.33 0 0 0-.32.36.44.44 0 0 0 .1.24c.08.05.16.08.24.08zm2.15 1.34a6.3 6.3 0 0 0 1.14-.2c.84-.2 1.5-.55 1.96-1a.31.31 0 0 0 .1-.24.31.31 0 0 0-.34-.34c-.1 0-.18.03-.25.1-.48.47-1.24.7-1.65.82-.23.06-.47.1-.7.14l-.2.02h-.07a.33.33 0 0 0-.32.36c.02.17.17.3.35.3zm2.15 1.34h.02c.08-.01.5-.04 1.04-.17.8-.2 1.4-.5 1.82-.92a.31.31 0 0 0 .1-.24.31.31 0 0 0-.1-.24c-.13-.14-.35-.14-.48-.01-.44.43-1.14.66-1.5.75l-.66.13-.27.03a.33.33 0 0 0-.32.36.44.44 0 0 0 .1.24c.1.04.17.07.25.07zm2.16 1.34h.01c.1 0 .48-.04.97-.16.74-.2 1.3-.47 1.7-.85a.37.37 0 0 0 .01-.5.31.31 0 0 0-.24-.1c-.1 0-.18.03-.25.1-.4.4-1.04.6-1.38.68-.2.05-.4.1-.6.12l-.18.02h-.06a.33.33 0 0 0-.32.36c.02.18.17.32.35.32zm2.14 1.34h.02c.04 0 .4-.03.88-.15.67-.17 1.18-.43 1.55-.78.14-.13.14-.35.01-.5a.31.31 0 0 0-.24-.1c-.1 0-.18.03-.25.1-.36.35-.93.54-1.24.6l-.54.1h-.2c-.1.01-.17.05-.23.12a.33.33 0 0 0-.08.25.44.44 0 0 0 .1.24.35.35 0 0 0 .22.08zm2.16 1.34h.02c.1-.01.4-.03.8-.13.62-.16 1.08-.4 1.4-.72a.31.31 0 0 0 .1-.24.31.31 0 0 0-.34-.34.31.31 0 0 0-.24.1c-.32.3-.83.47-1.1.54-.15.04-.32.07-.5.1-.06.01-.1.01-.14.02h-.05c-.1.01-.17.05-.23.12s-.1.16-.1.25c.03.17.2.3.36.3zm2.16 1.34h.02c.08-.01.37-.03.72-.12.55-.14.97-.35 1.28-.65a.37.37 0 0 0 .01-.5c-.13-.15-.35-.14-.48-.01-.3.3-.78.43-.97.47l-.43.08c-.05.01-.1.01-.13.01h-.04c-.1.01-.17.05-.23.12s-.1.16-.1.25a.44.44 0 0 0 .1.24.29.29 0 0 0 .23.1zm.02 3.72a48.1 48.1 0 0 1-.77-.47L151.93 192c-2.67-1.77-5.28-4.4-7.18-7.2-2.18-3.22-3.4-6.62-3.53-9.86a14.83 14.83 0 0 0 2.55 1.07.33.33 0 0 0 .26-.02.37.37 0 0 0 .17-.2.33.33 0 0 0-.02-.26.34.34 0 0 0-.2-.17 13.66 13.66 0 0 1-2.76-1.2c.01-1.02.13-2.03.35-3a.39.39 0 0 0-.04-.26.32.32 0 0 0-.21-.15c-.18-.04-.37.07-.4.26-.2.88-.32 1.8-.36 2.75-2.38-1.52-4.4-3.74-6-6.63-1.86-3.32-3.1-7.53-3.32-11.24-.2-3.56-.44-9.62-.7-18l-.22-8.13-.08-3.4a.32.32 0 0 0-.11-.24.34.34 0 0 0-.24-.09c-.2 0-.35.16-.34.35 0 .2.48 21 1 29.55.23 3.87 1.48 8.07 3.4 11.53 1.75 3.13 3.97 5.52 6.6 7.1.05 3.5 1.3 7.17 3.65 10.64 1.95 2.88 4.63 5.57 7.37 7.4 7.16 4.75 24.9 15.6 24.94 15.64s.12.05.18.05c.03 0 .05 0 .08-.01.1-.02.16-.08.2-.16a.34.34 0 0 0 .04-.26.36.36 0 0 0-.16-.23zm157.4-117.84c-.08.05-.14.12-.16.2s-.01.18.03.26c.05.08.12.14.2.16.03.01.06.01.1.01.06 0 .12-.02.17-.05 1.84-1.07 3.98-3.7 4-7.62 0-2.6-.94-5.28-2.8-8-2-2.9-5.12-4.6-8.56-4.6-1.88 0-3.68.48-5.1 1.36-.7.43-1.24.94-1.64 1.5-.42.6-.64 1.23-.65 1.9a.34.34 0 0 0 .34.35c.2 0 .35-.15.35-.34.01-.5.18-1 .53-1.5.5-.72 1.37-1.37 2.44-1.83 1.12-.48 2.4-.74 3.7-.74a9.51 9.51 0 0 1 8.02 4.29c1.78 2.6 2.68 5.15 2.68 7.6-.02 3.63-1.98 6.06-3.66 7.03zm5.94.57c-.16-.1-.37-.06-.47.1v.02a7.02 7.02 0 0 1-.82.98c-.4.4-1 .9-1.7 1.1-.1.02-.16.08-.2.16s-.05.17-.03.26c.04.15.18.25.33.25.03 0 .06 0 .1-.01.7-.2 1.4-.67 2.08-1.38.5-.5.8-.96.82-1a.36.36 0 0 0-.1-.48zm-.17 2.5a.34.34 0 0 0-.22.15l-.01.02c-.03.05-.33.47-.77.92-.37.37-.94.85-1.57 1.03-.1.02-.16.08-.2.16s-.06.17-.03.26c.02.1.08.16.16.2.05.03.1.04.17.04.03 0 .06 0 .1-.01.65-.2 1.3-.63 1.96-1.3.44-.45.72-.86.77-.95.1-.16.06-.37-.1-.47-.07-.07-.16-.08-.25-.06zm.06 2.54c-.1.02-.17.07-.2.14l-.01.02c-.01.02-.28.42-.7.85-.28.28-.83.78-1.45.95-.18.05-.3.24-.23.43.02.1.08.16.16.2.05.03.1.04.16.04.03 0 .06 0 .1-.01.6-.18 1.2-.57 1.83-1.2.43-.45.7-.84.72-.88.1-.16.06-.37-.1-.47-.08-.07-.17-.1-.26-.07zm.08 2.55a.34.34 0 0 0-.23.16c-.06.1-.3.43-.65.78-.26.26-.77.7-1.33.87-.1.02-.16.08-.2.16s-.06.17-.03.26c.02.1.08.16.16.2.05.03.1.04.16.04.03 0 .06 0 .1-.01.57-.17 1.13-.53 1.7-1.13.42-.44.67-.82.67-.82.1-.16.06-.37-.1-.47-.06-.05-.15-.07-.24-.05zm.33 2.6c-.16-.1-.37-.06-.48.1a5.02 5.02 0 0 1-.6.7c-.23.24-.7.65-1.2.8-.1.02-.16.08-.2.16s-.06.17-.03.26.08.16.16.2c.05.03.1.04.16.04.03 0 .06 0 .1-.01.53-.16 1.05-.5 1.58-1.04.37-.38.6-.72.62-.76.1-.16.06-.37-.1-.47h0zm-.17 2.48a.34.34 0 0 0-.22.15h0c-.05.07-.25.35-.55.66-.2.2-.63.6-1.1.72-.18.05-.3.24-.23.42.02.1.08.16.16.2.05.03.1.04.16.04.03 0 .06 0 .1-.01.5-.14.96-.46 1.45-.96a5.16 5.16 0 0 0 .57-.7c.1-.16.06-.37-.1-.47-.07-.06-.16-.08-.25-.06zm-.16 2.7c-.01.01-.2.3-.48.58-.2.2-.56.52-.97.64-.18.05-.3.24-.23.43.04.15.18.25.33.25.03 0 .06 0 .1-.01.45-.13.88-.42 1.32-.88.25-.26.43-.5.52-.63.05-.08.07-.17.05-.26a.34.34 0 0 0-.15-.22c-.15-.1-.37-.06-.48.1zm.3 2.4a.34.34 0 0 0-.22.15 3.4 3.4 0 0 1-.43.5c-.16.17-.5.46-.85.56-.1.02-.16.08-.2.16s-.05.17-.03.26.08.16.16.2c.05.03.1.04.17.04.03 0 .06 0 .1-.01.4-.12.8-.38 1.2-.8.3-.3.47-.57.47-.57.1-.16.06-.37-.1-.47-.08-.06-.17-.07-.26-.05zM317.5 67.8c-.48 0-.9-.1-1.26-.3-.08-.05-.17-.05-.26-.03s-.16.08-.2.16-.06.17-.03.26c.02.1.08.16.16.2.46.26 1 .4 1.58.4 1.65-.01 3.53-1.05 5.03-2.8 1.65-1.92 2.55-4.34 2.55-6.8 0-1.55-.36-3.1-1.06-4.6-3.28-6.98-8.2-7.74-10.18-7.74-1.4 0-2.78.34-3.85.97-.08.05-.14.12-.16.2s-.01.18.03.26c.1.16.3.22.47.12.97-.56 2.2-.88 3.5-.88 2.28 0 6.56.96 9.57 7.35.66 1.4 1 2.84 1 4.3 0 2.3-.85 4.57-2.4 6.36-1.34 1.6-3.06 2.57-4.5 2.57zm-8.66-23.9a.31.31 0 0 0 .1.24c.07.07.16.1.25.1s.17-.03.24-.1c.56-.55 1.45-.83 1.92-.95.26-.07.54-.12.83-.16l.25-.03h.08a.33.33 0 0 0 .32-.36.34.34 0 0 0-.34-.32c-.12.01-.65.05-1.3.2-.96.24-1.7.62-2.23 1.12-.08.1-.12.17-.12.26zm1.48-2.9c-.1.01-.6.05-1.22.2-.9.23-1.6.58-2.1 1.06-.14.13-.14.35-.01.5a.31.31 0 0 0 .24.1.31.31 0 0 0 .24-.1c.52-.5 1.34-.77 1.8-.88.32-.08.6-.12.77-.15l.23-.03c.05 0 .07 0 .08-.01a.33.33 0 0 0 .32-.36c-.02-.17-.17-.32-.35-.32zm-4.78.32c.48-.47 1.24-.7 1.65-.82.23-.06.47-.1.7-.14l.2-.02h.07a.33.33 0 0 0 .32-.36.34.34 0 0 0-.34-.32h-.02c-.1.01-.55.04-1.12.2-.84.2-1.5.55-1.96 1a.31.31 0 0 0-.1.24.31.31 0 0 0 .1.24.34.34 0 0 0 .24.1.31.31 0 0 0 .24-.1z"/><path d="M303.36 40a.31.31 0 0 0 .24-.1c.44-.43 1.14-.65 1.5-.75.26-.07.5-.1.66-.13l.2-.02h.07a.33.33 0 0 0 .32-.36.44.44 0 0 0-.1-.24c-.05-.06-.14-.1-.23-.1-.13.01-.54.04-1.06.17-.8.2-1.4.5-1.82.92a.31.31 0 0 0-.1.24.31.31 0 0 0 .1.24h0a.28.28 0 0 0 .23.12zm.5-3.02h-.02c-.08 0-.47.04-.96.16-.73.2-1.3.47-1.7.85a.31.31 0 0 0-.1.24.31.31 0 0 0 .34.34c.1 0 .18-.03.25-.1.4-.4 1.04-.6 1.38-.68l.6-.12.18-.02h.06a.37.37 0 0 0 .24-.12c.06-.07.1-.16.1-.25-.04-.16-.2-.3-.37-.3zm-2.16-1.34a5.59 5.59 0 0 0-.9.15c-.68.17-1.18.43-1.55.78a.31.31 0 0 0-.1.24c0 .1.03.18.1.25s.16.1.25.1.17-.03.24-.1c.36-.35.93-.53 1.24-.6l.54-.1.16-.02h.05a.33.33 0 0 0 .32-.36c-.02-.2-.17-.33-.35-.33zm-2.15-1.34h-.02c-.1.01-.4.03-.8.13-.62.16-1.08.4-1.4.72-.14.13-.14.35-.01.5.07.07.16.1.25.1s.17-.03.24-.1c.23-.23.63-.43 1.1-.54.15-.04.32-.07.5-.1h.14.05a.33.33 0 0 0 .32-.36c-.03-.2-.18-.33-.36-.33zm-2.15-1.34h-.02c-.08.01-.37.03-.72.12-.55.14-.97.35-1.28.65a.31.31 0 0 0-.1.24.31.31 0 0 0 .1.24c.07.07.16.1.25.1s.17-.03.24-.1c.3-.3.77-.43.97-.48l.43-.08c.05-.01.1-.01.12-.02h.04a.33.33 0 0 0 .32-.36c-.02-.17-.18-.3-.35-.3zm.75-3.26l24.14 15.15c2.67 1.77 5.28 4.4 7.18 7.2 2.18 3.22 3.4 6.63 3.53 9.86a14.83 14.83 0 0 0-2.55-1.07c-.18-.05-.37.05-.43.23-.05.18.05.37.23.43a13.66 13.66 0 0 1 2.76 1.2c-.01 1.02-.13 2.03-.35 3a.39.39 0 0 0 .04.26.32.32 0 0 0 .21.15c.18.04.37-.07.4-.26a14.57 14.57 0 0 0 .35-2.75c2.38 1.52 4.4 3.74 6 6.63 1.86 3.32 3.1 7.52 3.32 11.24.27 4.46.52 12.25.7 18l.28 10.62.02.92c0 .2.16.33.34.33.2 0 .35-.16.34-.35 0-.2-.48-21-1-29.55-.23-3.87-1.48-8.07-3.4-11.53-1.75-3.13-3.97-5.52-6.6-7.1-.05-3.5-1.3-7.17-3.65-10.64-1.95-2.88-4.63-5.57-7.37-7.4-6.54-4.34-21.84-13.74-24.84-15.58l-.1-.06a.34.34 0 0 0-.26-.04c-.1.02-.16.08-.2.16a.34.34 0 0 0-.04.26.33.33 0 0 0 .15.21l.8.47zm-105.4 36.97a2.64 2.64 0 0 0-.1-.27l-.07-.2-.15-.42-.52-1.45c-.02-.07-.04-.13-.07-.2l-.07-.2c-.02-.02-.05-.12-.1-.32l-.07-.3c-.02-.05-.04-.12-.07-.22 0-.02-.01-.05-.02-.1-.02-.13-.04-.23-.07-.3h-1.76l-.17 1-.22.87-1.46 4.24-2.16 6.26-1.54 3.9c-.02.05-.04.14-.07.27l-.02.05c-.02.02-.04.06-.07.12-.03.07-.06.1-.07.12-.07.15-.2.3-.37.45-.2.22-.54.42-1 .62l-.7.35-.82.47 7.68.05-.67-.4-1.1-.57c-.46-.25-.72-.47-.77-.67v-.17c.02-.18.06-.35.12-.5l.22-.75 1.44-4.34h5.35l1.7 4.64.07.17c.02.05.04.14.07.27.07.12.1.23.12.35v.05c.02.03.02.12.02.27v.12c-.05.2-.22.37-.52.52-.33.17-.77.34-1.3.52l-.84.47h8.35l-.72-.3a8.27 8.27 0 0 1-1.16-.57c-.46-.23-.76-.44-.9-.62-.2-.33-.37-.68-.52-1.05-.03-.03-.12-.23-.25-.6l-.07-.15c-.02-.07-.08-.24-.2-.52l-.07-.15-.22-.52-.05-.15c-.12-.25-.24-.55-.37-.9l-.3-.75-3.24-8.25c-.08-.06-.12-.15-.15-.25zm2.03 6.08l1.44 3.8c.12.25.23.53.35.85l.6 1.42.27.67c.08.22.23.47.45.75.08.13.2.23.32.3l.4.2.45.25h-4.1l.4-.27.77-.35c.25-.13.4-.23.42-.3l.02-.15c0-.15-.06-.34-.17-.57-.05-.08-.12-.26-.22-.52l-5.72-14.6-.05 1.85-2.45 6.63h5.18l.77.5-.37.62h-5.95l-1.83 5.68-.02.15c-.02.05-.02.1-.02.15 0 .07.01.1.02.12a1.04 1.04 0 0 0 .17.37c.07.07.18.15.35.25l.77.47h-4.3l.74-.35.8-.32c.26-.12.45-.27.57-.47l.45-1.45 4.73-13.63.27-.5-.15-1.35h1l1.3 3.68 2.34 6.12zm-2.23-.22h-4.1l2-5.86 2.1 5.86zm7.66-10.3l.2 6.43.47-1.42.35-1.1c.2-.68.37-1.08.52-1.2l.3-.22c.07-.07.18-.1.35-.1h3.74l.02 14.03c0 .13-.02.37-.05.72v.07c-.05.18-.14.37-.27.55s-.47.38-1.02.6l-1.14.52-.6.35h8.35l-.5-.3-1.5-.67c-.35-.12-.56-.24-.64-.37-.17-.22-.25-.4-.25-.52-.02-.03-.02-.15-.02-.35v-.5l-.05-14.16h2.97l.55.05c.05.02.16.04.32.07.03 0 .07.01.1.02.05 0 .08.01.1.02.2.07.4.32.64.77l.22.52c.13.37.23.6.3.72l.67 1.8-.05-6.46-1.5.8h-11.3l-1.27-.67zm12.43.97l1.34-.5v3.14l-.64-2-.7.47h-4.48v14.63c0 .03.01.1.02.22.02.05.02.1.02.15v.05l.07.3v.05c.08.23.17.42.27.55.03.08.12.16.27.22l.62.32.3.25h-4.46l.37-.22 1.1-.42c.28-.13.45-.23.5-.3.03-.13.05-.33.05-.6v-.8l-.02-.67v-14.3l-.9.62h-4.63l-1.04 1.6.37-2.32-.37-.6.92.17h10.98z"/><path d="M219.64 65.72v12.94a3.84 3.84 0 0 1-.07.8c-.03.2-.12.38-.25.55-.13.18-.46.38-1 .6l-1.16.52-.57.35h12.93l.2-5.1-.45 1.02-.5 1.22-.1.17-.17.32-.1.1-.17.2c-.15.13-.28.2-.4.22-.12.05-.3.07-.52.07h-3.94l-.15.02H223l-.22-.02-.22-.12a1.8 1.8 0 0 1-.42-.32c-.1-.15-.15-.32-.15-.52V72.8l3.6.02.45.02c.13.02.26.07.37.15.23.12.44.4.62.87l.45 1.15.35.77v-6.83l-.5 1.05-.17.32c-.12.2-.22.34-.32.42-.2.15-.36.23-.5.25h-.07a.77.77 0 0 0-.15.02c-.12.02-.2.02-.22.02-.05.02-.2.02-.42.02h-.22l-3.27-.02V65.7l-.02-.17v-.3l.05-.3.22-.2c.03-.02.06-.02.07-.02.05-.02.1-.02.15-.02l.22-.02.2.02h3.15l.3-.02h.27l.4.05c.07.02.18.07.35.17a1.82 1.82 0 0 1 .49.67l.3.75.6 1.4v-4.8l-1.02.07H216.6l.62.37 1.54.62c.3.15.54.3.67.42.05.03.08.1.1.17l.02.02c.02.02.02.03.02.05s.01.03.02.05c0 .05.01.08.02.1.02.03.02.17.02.42v.53zm1.16 12.34V65l-.02-.42c-.02-.08-.06-.2-.12-.32-.08-.08-.26-.17-.52-.27l-1.1-.37-.42-.25h8.15l1.64-.25-.05 2.3-.62-1.32-.5.3h-4.75l-.25-.02c-.2 0-.33.03-.4.1-.1.05-.16.1-.17.17l-.05.27.07.4c.02.03.02.14.02.32v5.73h4.63l.74.37.42-.85v2.74l-.52-1.45-.52.32h-4.73v6.43c0 .12.07.27.22.45.03.05.1.13.22.25.02.02.06.05.12.1l.17.17c.08.05.25.1.5.12l.77.02 4.46-.02.55.47.45-1.55v2.1h-10.33l.37-.22 1.1-.42c.28-.13.45-.23.5-.3.03-.13.05-.33.05-.6v-.8l-.03-.65zm14.37-12.34v12.94c0 .32-.02.57-.07.77-.02.2-.1.4-.22.57-.16.17-.5.37-1.02.6l-1.14.52-.6.35h12.5l.15-5.28-.74 1.82a4.45 4.45 0 0 1-.22.45c-.02.02-.05.07-.1.17 0 .02-.02.07-.07.17l-.02.05c0 .02-.01.03-.02.05-.02.05-.07.12-.15.22-.02.03-.03.06-.05.07-.05.07-.12.14-.22.22-.17.17-.42.27-.77.32l-.72.05h-3.1c-.17 0-.3-.02-.45-.07-.12-.02-.23-.1-.35-.25a1.35 1.35 0 0 1-.25-.55l-.02-.72V65.52l.05-.65c.05-.23.13-.4.25-.52.08-.1.3-.22.67-.37l1.56-.65.54-.32h-8.47l.62.32.07.02c.15.05.26.1.32.15.07.02.13.04.2.07l.2.07a1.69 1.69 0 0 1 .45.15c.13.07.23.1.3.12.38.17.6.32.67.45a.82.82 0 0 1 .2.35 2.6 2.6 0 0 1 .05.42l-.02.3v.3zm1.16 12.34V65l-.02-.42c-.03-.15-.08-.26-.15-.32-.1-.12-.26-.2-.5-.27l-1.12-.37-.42-.25h4.53l-.3.25-.62.35c-.17.1-.26.17-.3.22-.16.22-.25.45-.25.7v13.83a1.38 1.38 0 0 0 .02.22l.02.07c.02.17.04.27.07.32l.2.4c.08.12.2.2.37.27.05.03.14.07.27.1l.07.02c.03.02.1.02.22.02h4.7l.47.5.64-2.02-.05 2.44h-9.88l.37-.22 1.1-.42c.3-.12.46-.22.5-.3.03-.13.05-.33.05-.6v-1.46zm13.77-12.34v12.94c0 .32-.02.57-.07.77-.02.2-.1.4-.22.57-.16.17-.5.37-1.02.6l-1.14.52-.6.35h12.5l.15-5.28-.74 1.82a4.45 4.45 0 0 1-.22.45c-.02.02-.05.07-.1.17 0 .02-.02.07-.07.17l-.02.05c0 .02-.01.03-.02.05-.02.05-.07.12-.15.22-.02.03-.03.06-.05.07-.05.07-.12.14-.22.22-.17.17-.42.27-.77.32l-.72.05h-3.1c-.16 0-.3-.02-.45-.07-.12-.02-.23-.1-.35-.25a1.35 1.35 0 0 1-.25-.55l-.02-.72V65.52l.05-.65c.05-.23.13-.4.25-.52.08-.1.3-.22.67-.37l1.56-.65.54-.32h-8.47l.62.32.07.02c.15.05.26.1.32.15.07.02.13.04.2.07l.2.07a1.69 1.69 0 0 1 .45.15c.13.07.23.1.3.12.38.17.6.32.67.45a.82.82 0 0 1 .2.35 2.6 2.6 0 0 1 .05.42l-.02.3v.3zm1.16 12.34V65l-.02-.42c-.03-.15-.08-.26-.15-.32-.1-.12-.26-.2-.5-.27l-1.12-.37-.42-.25h4.53l-.3.25-.62.35c-.17.1-.26.17-.3.22-.16.22-.25.45-.25.7v13.83a1.38 1.38 0 0 0 .02.22l.02.07c.02.17.04.27.07.32l.2.4c.08.12.2.2.37.27.05.03.14.07.27.1l.07.02c.03.02.1.02.22.02h4.7l.47.5.64-2.02-.05 2.44h-9.88l.37-.22 1.1-.42c.3-.12.46-.22.5-.3.03-.13.05-.33.05-.6v-1.46zm13.58-12.34v12.94a3.84 3.84 0 0 1-.07.8c-.03.2-.12.38-.25.55-.13.18-.46.38-1 .6l-1.16.52-.57.35h12.93l.2-5.1-.45 1.02-.5 1.22-.1.17-.17.32-.1.1-.17.2c-.15.13-.28.2-.4.22-.12.05-.3.07-.52.07h-3.94l-.15.02h-.22l-.22-.02-.22-.12a1.8 1.8 0 0 1-.42-.32c-.1-.15-.15-.32-.15-.52V72.8l3.6.02.45.02c.13.02.26.07.37.15.23.12.44.4.62.87l.45 1.15.35.77v-6.83l-.5 1.05-.17.32c-.12.2-.22.34-.32.42-.2.15-.36.23-.5.25h-.07c-.05 0-.1.01-.15.02-.12.02-.2.02-.22.02-.05.02-.2.02-.42.02h-.22l-3.27-.02V65.7l-.02-.17v-.3l.05-.3.22-.2c.03-.02.06-.02.07-.02.05-.02.1-.02.15-.02l.22-.02.2.02h3.15l.3-.02h.27l.4.05c.07.02.18.07.35.17a1.82 1.82 0 0 1 .49.67l.3.75.6 1.4v-4.8l-1.02.07H261.8l.62.37 1.54.62c.3.15.54.3.67.42.05.03.08.1.1.17l.02.02c.02.02.02.03.02.05s.01.03.02.05c0 .05.01.08.02.1.02.03.02.17.02.42v.53zM266 78.06V64.58c-.02-.08-.06-.2-.12-.32-.08-.08-.26-.17-.52-.27l-1.1-.37-.42-.25H272l1.64-.25-.05 2.3-.62-1.32-.5.3h-4.75l-.25-.02c-.2 0-.33.03-.4.1-.1.05-.16.1-.17.17l-.05.27.07.4c.02.03.02.14.02.32l-.02 5.73h4.63l.74.37.42-.85v2.74l-.52-1.45-.52.32h-4.73v6.43c0 .12.07.27.22.45.03.05.1.13.22.25.02.02.06.05.12.1l.17.17c.08.05.25.1.5.12l.77.02 4.46-.02.55.47.45-1.55v2.1h-10.33l.37-.22 1.1-.42c.28-.13.45-.23.5-.3.03-.13.05-.33.05-.6v-.8l-.03-.65z"/><path d="M277.95 63.33l.05.02.52.22c.02 0 .04.01.07.02h.07l.8.3c.35.17.56.32.64.45.13.13.2.26.2.37.05.1.07.25.07.45l-.02.27v13.5l.02.3c0 .17-.02.32-.07.47a.71.71 0 0 1-.17.35c-.08.15-.3.3-.64.45l-1.5.65-.5.3h8.32l-.57-.35-1.46-.67c-.38-.18-.6-.34-.67-.47-.07-.07-.12-.13-.15-.2-.02-.05-.04-.12-.07-.22-.02-.05-.02-.2-.02-.45v-5.75l3.62 3.8 2.2 2.5c.96 1 1.72 1.62 2.28 1.82.4.15.77.26 1.1.32.4.08.73.12.94.12.17 0 .3-.02.4-.07l1.16-.52-1-.32c-.26-.1-.64-.3-1.14-.62-.12-.12-.2-.2-.3-.27l-.3-.27c-.07-.05-.22-.2-.47-.45l-.62-.65-.4-.42-.64-.67-1.6-1.8-2.35-2.62.37-.15.2-.07c.08-.03.22-.1.42-.2l.3-.15.72-.45c.7-.5 1.22-1.05 1.6-1.65.48-.83.72-1.77.72-2.82 0-1.43-.53-2.58-1.6-3.44-.96-.85-2.1-1.27-3.42-1.27h-7.73l.63.3zm7.18.02c.68 0 1.25.1 1.73.32.5.2 1 .52 1.5.95.9.8 1.36 1.85 1.36 3.12 0 .9-.17 1.74-.52 2.47-.48 1.05-1.27 1.76-2.38 2.14l-1.7.6 5.28 5.88 1.34 1.37 1.56 1.15c-.35 0-.7-.04-1.07-.12-.26-.07-.58-.22-.94-.47-.28-.2-.6-.47-.97-.8-.03-.03-.08-.07-.15-.12l-.3-.27-.22-.22-.25-.27-5.72-6.4-.5.42h-.8l.02 5.98a1.07 1.07 0 0 0 .02.25c.03.05.06.16.07.32a1.99 1.99 0 0 0 .35.62c.05.07.14.14.27.22l.6.32.32.25h-4.46l.37-.25 1.07-.4.47-.3.02-.05c.02-.07.02-.12.02-.15.02-.03.02-.1.02-.22v-.17l-.02-.3v-.37l.01-13.86-.02-.45c-.03-.15-.07-.24-.12-.27-.07-.1-.24-.2-.52-.3l-1.12-.37-.42-.25h5.8zm.47 8.45c1-.28 1.74-.68 2.25-1.2.64-.68.97-1.52.97-2.52 0-.78-.2-1.48-.6-2.1-.45-.73-1.1-1.26-2-1.57a2.68 2.68 0 0 0-.8-.2c-.05-.02-.12-.02-.22-.02s-.17-.01-.22-.02h-.52l-.64.02c-.05.02-.14.02-.27.02s-.22.01-.27.02c-.35.07-.55.14-.6.22-.07.07-.12.15-.17.25-.03.07-.07.15-.1.25V65a3.27 3.27 0 0 0-.05.57v6.53h.84a7.81 7.81 0 0 0 2.41-.31zm-3.02-6.35c0-.07.01-.17.02-.3l.02-.12a.57.57 0 0 1 .25-.3c.07-.07.24-.12.52-.17l.1-.02c.12-.02.22-.02.32-.02.03-.02.16-.02.4-.02l.54.05a4.08 4.08 0 0 1 1.21.35c.36.18.68.43.94.75a3.42 3.42 0 0 1 .82 2.24c0 1.26-.38 2.23-1.14 2.9-.78.68-1.8 1.02-3.07 1.02h-.94v-6.35zm-98.42 32.18v12.94c0 .17-.02.4-.05.7v.07c-.05.2-.14.4-.27.57-.15.18-.48.38-1 .6l-1.14.52-.6.35h5.1l.7.02h.7l1.73.02 1.5-.02c.23 0 .48-.02.74-.07.12-.02.26-.02.42-.02.92-.13 1.9-.44 2.95-.92 1.42-.7 2.56-1.63 3.42-2.8 1.1-1.5 1.64-3.28 1.64-5.36l-.02-.6-.02-.57c-.15-1.63-.68-3.07-1.6-4.34-.8-1.06-1.78-1.94-2.95-2.62-1.06-.58-2.03-.92-2.92-1.02-.12-.03-.3-.06-.6-.07h-.07l-.74-.05a8.74 8.74 0 0 1-.69-.02h-.84l-4 .12-4.4-.15.62.32.12.05c.05.02.1.03.12.05l.54.22a1.69 1.69 0 0 1 .45.15c.13.07.23.1.3.12.38.17.6.32.67.45.05.03.08.1.1.17l.02.02c.02.02.02.03.02.05s.01.03.02.05c.02.02.02.03.02.05s.01.03.02.05c.02.03.02.17.02.42l-.02.27v.27zm1.17 13.06l-.02-.72.02-13.06-.02-.47c-.02-.1-.07-.2-.15-.27-.1-.12-.26-.2-.5-.27l-1.12-.37-.42-.25H191c2.26 0 4.2.75 5.85 2.24 1.64 1.46 2.56 3.36 2.77 5.68l.05.47v.42a8.75 8.75 0 0 1-2.45 6.2c-1.68 1.8-3.68 2.7-6 2.7h-7.88l.37-.2 1.1-.45c.3-.12.46-.22.5-.3.03-.1.05-.3.05-.6l-.02-.75zm.9.37l.05.05a1.46 1.46 0 0 1 .15.2c.03.05.12.14.25.27l.15.15a.84.84 0 0 1 .12.1c.07.07.24.12.52.17.05.02.12.02.2.02a.68.68 0 0 0 .2.02h.3c.38.1.62.15.72.15.05 0 .1.01.12.02h.72a3.59 3.59 0 0 0 .4-.02l.47-.02.25-.02 1.3-.22c2-.38 3.6-1.3 4.78-2.8s1.76-3.36 1.76-5.63c0-2-.73-3.7-2.18-5.06-1.35-1.3-3.07-2.07-5.15-2.27a16.96 16.96 0 0 0-1.64-.07l-1.26.05-.42.02c-.03.02-.1.02-.2.02-.02 0-.05.01-.1.02-.05 0-.08.01-.1.02a2.73 2.73 0 0 0-.57.07c-.22.05-.36.1-.42.17l-.32.47c-.08.22-.12.4-.12.55v13.34l.02.1.01.12zm.25-6.38v-7.05c0-.25.05-.45.15-.6a.94.94 0 0 1 .37-.37c.08-.03.13-.06.15-.07l.14-.04c.03-.02.15-.02.35-.02l.2-.02c.15-.02.3-.02.45-.02h.82l.92.04c.08.02.3.02.67.02l.7.02c.03 0 .08.01.15.02.08 0 .14.01.17.02l.12.02a.43.43 0 0 0 .12.02 6.83 6.83 0 0 1 4.01 2.59c1.1 1.4 1.66 3.04 1.66 4.9 0 .65-.07 1.33-.2 2.04a8.39 8.39 0 0 1-.55 1.72c-.4.8-.96 1.54-1.68 2.17-.33.28-.6.47-.77.55-.25.18-.6.38-1.07.6-.38.2-.88.34-1.5.42a12.08 12.08 0 0 1-1.98.15 15.32 15.32 0 0 1-.94-.02l-.8-.07c-.53-.05-.85-.1-.97-.17-.02-.02-.06-.04-.12-.07l-.22-.15c-.02-.02-.04-.03-.07-.05-.03-.03-.06-.05-.07-.05-.15-.18-.22-.36-.22-.52v-6z"/><path d="M284.44 97.63v12.94a3.84 3.84 0 0 1-.07.8c-.03.2-.12.38-.25.55-.13.18-.46.38-1 .6l-1.16.52-.57.35h12.93l.2-5.1-.45 1.02-.5 1.22-.1.17-.17.32-.1.1-.17.2c-.15.13-.28.2-.4.22-.12.05-.3.07-.52.07h-3.94l-.15.02h-.22l-.22-.02-.22-.12a1.8 1.8 0 0 1-.42-.32c-.1-.15-.15-.32-.15-.52v-5.96h3.6l.45.02c.13.02.26.07.37.15.23.12.44.4.62.87l.45 1.15.35.77v-6.83l-.5 1.05-.17.32c-.12.2-.22.34-.32.42-.2.15-.36.23-.5.25h-.07a.77.77 0 0 0-.15.02c-.12.02-.2.02-.22.02-.05.02-.2.02-.42.02h-.22l-3.27-.02V97.6l-.02-.17v-.3l.05-.3.22-.2c.03-.02.06-.02.07-.02.05-.02.1-.02.15-.02l.22-.02.2.02h3.15l.3-.02h.27l.4.05c.07.02.18.07.35.17a1.82 1.82 0 0 1 .49.67l.3.75.6 1.4v-4.8l-1.02.07H281.4l.62.37 1.54.62c.3.15.54.3.67.42.05.03.08.1.1.17l.02.02c.02.02.02.03.02.05s.01.03.02.05c0 .05.01.08.02.1.02.03.02.17.02.42v.54zm1.16 12.34V96.9l-.02-.42c-.02-.08-.06-.2-.12-.32-.08-.08-.26-.17-.52-.27l-1.1-.37-.42-.25h8.15l1.64-.25-.05 2.3-.62-1.32-.5.3h-4.75l-.25-.02c-.2 0-.33.03-.4.1-.1.05-.16.1-.17.17l-.05.27.07.4c.02.03.02.14.02.32v5.73h4.63l.74.37.42-.85v2.74l-.52-1.44-.52.32-4.73.02v6.43c0 .12.07.27.22.45.03.05.1.13.22.25.02.02.06.05.12.1l.17.17c.08.05.25.1.5.12l.77.02 4.46-.02.55.47.45-1.55v2.1h-10.33l.37-.22 1.1-.42c.28-.13.45-.23.5-.3.03-.13.05-.33.05-.6v-.8l-.03-.66zm-103.57 35.9l.2.02h.22c.68 0 1.3-.1 1.86-.3 1.1-.47 1.85-1.08 2.23-1.84.3-.56.47-1.43.47-2.6v-11.82c0-.13.01-.22.02-.27 0-.02.01-.07.02-.17l.02-.17v-.07a1.68 1.68 0 0 1 .22-.47c.08-.1.3-.22.67-.37l1.56-.65.55-.32h-8.47l.62.32.12.05c.05.02.1.03.12.05l.55.22a1.69 1.69 0 0 1 .45.15c.13.07.23.1.3.12.38.17.6.32.67.45.08.08.13.15.15.2.02.02.02.03.02.05s.01.03.02.05c0 .05.01.08.02.1.02.03.02.17.02.42l-.02.27v12.2c0 .66-.08 1.2-.25 1.65s-.46.86-.9 1.25c-.3.25-.6.44-.87.57l-.97.4-.92.35 1.3.14zm2.48-1.37l.3-.27.25-.3c.17-.17.33-.48.5-.95.18-.58.27-1.08.27-1.5V128.8l-.02-.42c-.02-.02-.02-.05-.02-.1 0-.03-.01-.06-.02-.07-.02-.08-.04-.13-.07-.15-.08-.08-.26-.17-.52-.27l-1.1-.37-.42-.25h4.53l-.32.25c-.07.07-.26.18-.6.35l-.3.22c-.1.13-.17.25-.2.35l-.05.35v12.5a5.48 5.48 0 0 1-.17 1.4c-.02.17-.08.4-.2.67l-.22.5c-.3.42-.62.75-.97 1-.38.28-.7.44-.94.47l-.72.1 1.02-.86zm45.65.1h-.05l-.82.37-.47.3h8.32l-.6-.35-1.46-.67c-.3-.17-.52-.32-.67-.47-.13-.18-.22-.4-.25-.62l-.05-.7c-.02-.07-.02-.13-.02-.2 0-.08-.01-.14-.02-.17-.02-.3-.04-.5-.07-.6l-.07-.82-.1-.87-.4-4.5-.42-5.1c0-.1-.02-.3-.07-.6-.02-.07-.02-.13-.02-.2-.02-.1-.02-.17-.02-.2-.02-.15-.02-.4-.02-.75l-.02-.8v-.17l-.02-.37-.02-.67H231l-.5 1.3-.82 1.92-2.13 4.14-1.93 3.74-1.88 3.2-.3-.47-.32-.52-1.04-1.82-2.65-4.76-2.28-4.4-.55-1.2-.45-1.12h-1.8l.02.87.02 1.45-.07 1.97v.12l-.1 1.3c-.02.13-.02.24-.02.32l-.02.52-.02 1.35-.35 5.24c0 .73-.03 1.33-.1 1.8-.07.6-.14 1-.22 1.17 0 .38-.05.66-.15.85l-.4.52c-.07.12-.28.25-.64.4l-1.54.65-.47.3-.7-.3a8.27 8.27 0 0 1-1.16-.57c-.46-.23-.76-.44-.9-.62-.2-.33-.37-.68-.52-1.05-.03-.03-.12-.23-.25-.6l-.07-.15c-.02-.07-.08-.24-.2-.52l-.07-.15-.22-.52-.05-.15c-.12-.25-.24-.55-.37-.9l-.3-.75-3.24-8.25-.1-.27a2.64 2.64 0 0 0-.1-.27l-.07-.2-.15-.42-.52-1.45c-.02-.07-.04-.13-.07-.2l-.07-.2c-.02-.02-.05-.12-.1-.32l-.07-.3c-.02-.05-.04-.12-.07-.22 0-.02-.01-.05-.02-.1-.02-.13-.04-.23-.07-.3h-1.76l-.17 1-.22.87-3.6 10.5-1.54 3.9c-.02.05-.04.14-.07.27l-.02.05c-.02.02-.04.06-.07.12-.03.07-.06.1-.07.12-.07.15-.2.3-.37.45-.2.22-.54.42-1 .62l-.7.35-.82.47 7.68.05-.67-.4-1.1-.57c-.46-.25-.72-.47-.77-.67v-.17c.02-.18.06-.35.12-.5l.22-.75 1.44-4.34h5.35l1.7 4.64.07.17c.02.05.04.14.07.27.07.12.1.23.12.35v.05c.02.03.02.12.02.27v.12c-.05.2-.22.37-.52.52-.33.17-.77.34-1.3.52l-.84.47h16.7l-.6-.35-1.46-.67c-.36-.18-.6-.33-.67-.45-.16-.23-.26-.4-.3-.52-.05-.15-.07-.42-.07-.82l.64-10.2.92 1.62 1.93 3.42 2.95 5.6c.1.15.27.47.52.95l.2.42a7.25 7.25 0 0 0 .2.42l.64 1.3.35-.8 1.54-3.12 1.9-3.66 1.98-3.7 1.46-2.67.97 10.52v.17l.02.22c0 .38-.1.7-.32.97-.17.15-.6.37-1.34.65zm-25.84.22l.4-.27.77-.35c.25-.13.4-.23.42-.3l.02-.15c0-.15-.06-.34-.17-.57-.05-.08-.12-.26-.22-.52l-5.72-14.6-.05 1.85-2.45 6.63h5.18l.77.5-.37.62h-5.95l-1.83 5.68-.02.15c-.02.05-.02.1-.02.15 0 .07.01.1.02.12a1.04 1.04 0 0 0 .17.37c.07.07.18.15.35.25l.77.47h-4.3l.74-.35.8-.32c.26-.12.45-.27.57-.47l.45-1.45 4.73-13.63.27-.5-.15-1.35h1l1.3 3.68.74 1.94 1.6 4.16 1.44 3.8c.12.25.23.53.35.85l.6 1.42.27.67c.08.22.23.47.45.75.08.13.2.23.32.3l.4.2.45.25h-4.1zm-2.4-8.47h-4.1l2-5.86 2.1 5.86zm29.03-5.43l-7.28 13.9-.17-1.67-7.98-14.66.45 2.57-.74 12.2c0 .27.04.44.12.52l.3.32.32.22.57.32.32.25h-4.46l.37-.25 1.07-.4c.26-.13.42-.22.47-.27.03-.1.05-.17.05-.22.02-.03.02-.1.02-.22v-.17l-.02-.32v-.35l.94-14.78-.52-1.05h1.07l7.8 14.5.15 1.35 7.43-14.28-.28 2.48zm1.9 12.2l-.02-.45-1.3-14.2-.25-.15v-1.6h1.14l1.4 16.68a1.65 1.65 0 0 0 .1.32v.05l.22.32c.08.1.17.18.27.25l.62.32.3.25h-4.44l.35-.25 1.07-.4c.26-.12.42-.22.47-.3.05-.05.07-.22.07-.5l-.02-.33zm11.57 2.22l1.14.02c.84 0 1.58-.13 2.2-.4a5.5 5.5 0 0 0 1.86-1.15c1.16-1 1.73-2.3 1.73-3.84 0-1-.28-1.88-.84-2.64-.55-.73-1.3-1.28-2.25-1.65l-1.04-.42.32-.2c.84-.58 1.45-1.17 1.83-1.77.45-.68.67-1.48.67-2.4 0-1.23-.48-2.23-1.44-3a5.01 5.01 0 0 0-3.2-1.1h-8.08l.6.32.37.15c.15.07.3.12.45.17a1.69 1.69 0 0 1 .45.15c.13.07.23.1.3.12.35.17.56.32.64.45.13.13.2.25.22.35.02.05.02.2.02.47v13.46a3.84 3.84 0 0 1-.07.8c-.05.23-.13.4-.25.52-.15.2-.5.4-1.02.62l-1.14.52-.57.35h5.23l1.88.08zm-4.48-.67c.08-.08.36-.2.82-.32.48-.18.73-.32.74-.4.05-.08.07-.28.07-.6v-.12l-.04-1.34.02-13.06c0-.1-.02-.23-.05-.4v-.07c-.02-.13-.06-.22-.12-.27-.1-.12-.26-.2-.5-.27l-1.14-.37-.42-.25h6.2c1.1 0 2.1.35 2.95 1.05.86.7 1.3 1.6 1.3 2.67 0 .9-.33 1.8-1 2.67-.58.75-1.2 1.26-1.88 1.54l-.94.37 1.46.27c1.1.2 1.97.7 2.65 1.47.66.76 1 1.7 1 2.84a4.47 4.47 0 0 1-1.58 3.5 5.47 5.47 0 0 1-3.7 1.4l-6.22.02.38-.32zm7.4-10.85c.92-.83 1.4-1.7 1.4-2.6l-.02-.25c-.08-.7-.3-1.3-.7-1.8-.13-.17-.37-.38-.72-.65-.23-.15-.53-.3-.9-.42l-.3-.07-.05-.02c-.08-.02-.17-.02-.27-.02l-.77-.05c-.4 0-.9.04-1.5.12-.5.07-.78.13-.82.2-.15.15-.24.3-.27.45l-.02.17c-.02.08-.02.14-.02.17-.02.05-.02.17-.02.35v5.73l2.16-.07c.95 0 1.9-.42 2.82-1.25zm-4.75 1.02v-5.58c0-.08.01-.14.02-.17 0-.07.01-.12.02-.17.02-.02.02-.05.02-.1a2.35 2.35 0 0 1 .22-.3.83.83 0 0 1 .25-.12c.05-.02.17-.02.37-.02l1.4-.05c.88 0 1.52.2 1.93.62.5.43.78 1.16.87 2.17v.12.17a3.05 3.05 0 0 1-1.16 2.47c-.76.6-1.72.92-2.87.92l-1.08.04zm7.48 5.36l-.02-.3-.02-.27c-.2-1.25-.93-2.15-2.16-2.72-.92-.47-2.17-.7-3.74-.7l-1.7.02-.02 6.53c.02.15.1.34.25.57.03.07.1.15.2.25l.27.27c.08.05.23.1.45.15.18.07.37.1.57.1a.59.59 0 0 0 .2-.02.82.82 0 0 1 .22.02c.05.02.14.02.27.02h.3c1.22 0 2.34-.37 3.37-1.1 1.04-.77 1.57-1.72 1.57-2.82zm-3.82 3.44c-.33.12-.74.17-1.2.17-.23 0-.4-.01-.47-.02-.03-.02-.07-.02-.12-.02s-.1-.01-.12-.02c-.12 0-.2-.01-.25-.02l-.3-.07-.07-.02c-.03-.02-.06-.02-.07-.02l-.15-.07-.07-.02c-.03-.02-.06-.02-.07-.02-.15-.08-.26-.2-.32-.4-.08-.25-.12-.48-.12-.7v-5.88h1.5c1.16 0 2.16.25 3 .75.92.57 1.45 1.36 1.56 2.4l.02.52a3.48 3.48 0 0 1-.6 1.99c-.48.63-1.2 1.13-2.15 1.46zm22-14.78c-.97-.88-2.04-1.54-3.2-1.97-1.14-.42-2.45-.62-3.94-.62-2.58 0-4.74.96-6.5 2.87s-2.63 4.25-2.63 7c0 2.64.9 4.9 2.68 6.8 1.82 1.88 3.96 2.82 6.44 2.82 2.8 0 5.16-.88 7.1-2.64 2.05-1.86 3.07-4.2 3.07-7.03 0-3.02-1-5.43-3.04-7.24zm-6.12 16.48l-.94-.05c-2.2-.22-4.14-1.25-5.77-3.1-1.57-1.83-2.35-3.98-2.35-6.46s.75-4.62 2.26-6.43c1.57-1.88 3.5-2.82 5.82-2.82 2.7 0 5.03.92 6.96 2.77 1.92 1.83 2.87 4.07 2.87 6.73 0 2.63-.85 4.84-2.55 6.63-1.7 1.8-3.8 2.72-6.3 2.72zm5.5-15.24c-1.57-1.73-3.43-2.6-5.6-2.6l-.92.05c-2.33.3-4.1 1.23-5.3 2.8a7.38 7.38 0 0 0-1.29 2.49c-.28.98-.42 2-.42 3.07 0 2.2.68 4.1 2.06 5.73 1.37 1.6 3.1 2.5 5.18 2.7l.74.02c2.2 0 4.07-.8 5.57-2.42a8.14 8.14 0 0 0 2.3-5.8 8.69 8.69 0 0 0-2.32-6.02zm-1 11.96c-1.42 1.28-3.2 1.92-5.33 1.92-1.92 0-3.56-.82-4.93-2.47-1.3-1.56-1.96-3.4-1.96-5.48 0-2.2.56-4.08 1.7-5.6 1.27-1.68 2.93-2.52 4.98-2.52 2.26 0 4.15.87 5.65 2.62 1.44 1.65 2.16 3.65 2.16 6 0 2.33-.75 4.17-2.26 5.53z"/><path d="M286.45 126.82l.5.3c.02 0 .2.08.6.25l.94.42c.35.17.55.3.62.37l.37.52c.08.22.12.5.12.85v11.6l-2.28-2.6-4.4-4.86-4.58-4.96-.57-.6-.37-.45c-.05-.03-.12-.1-.2-.2l-.74-.9h-1.6v15.7a3.52 3.52 0 0 1-.12.92c-.02.07-.07.18-.17.35-.02.07-.07.15-.15.25-.02.02-.03.04-.05.07s-.03.06-.05.07c-.07.1-.28.23-.64.4l-1.54.65-.5.3 8.35-.02-.6-.35-1.46-.65c-.33-.18-.54-.33-.64-.45-.23-.33-.35-.78-.35-1.35V130.8l1.76 1.87 3.32 3.6 1.4 1.57 1.26 1.42 1.02 1.17.1.12 2.87 3.3 1.5 1.75h1.6v-16.28l.05-.65c.05-.18.13-.33.25-.45.15-.18.48-.38 1-.6l1.16-.5.57-.35h-8.35zm6.26.62l-.62.35c-.15.12-.24.2-.27.25l-.35.27c-.1.12-.15.3-.15.55v16.4h-1.04l.4-.95-14.6-16.05-.1.27.6 1.5v13.2c0 .23.04.42.12.55l.3.3c.05.07.15.14.3.22l.6.32.3.25h-4.46l.37-.25 1.07-.4c.26-.12.42-.22.47-.3l.02-.07c.02-.07.02-.12.02-.15v-.45-15.23l-.62-1.17h1.2l13.6 15.03.52 1.57.2-.05v-14.3a2.04 2.04 0 0 1-.07-.47c-.02-.12-.06-.27-.12-.47-.05-.08-.2-.17-.45-.27l-1.07-.45-.37-.25H293l-.28.25zm-85.43 49.4l-1.46-.67c-.3-.17-.52-.32-.67-.47-.13-.18-.22-.4-.25-.62l-.05-.7c-.02-.07-.02-.13-.02-.2 0-.08-.01-.14-.02-.17-.02-.3-.04-.5-.07-.6l-.07-.82-.1-.87-.4-4.5-.42-5.1c0-.1-.02-.3-.07-.6-.02-.07-.02-.13-.02-.2-.02-.1-.02-.17-.02-.2-.02-.15-.02-.4-.02-.75l-.02-.8v-.17l-.02-.37-.02-.67h-1.78l-.5 1.3-.82 1.92-2.13 4.14-1.93 3.74-1.88 3.2-.3-.47-.32-.52-1.04-1.82-2.65-4.76-2.28-4.4-.55-1.2-.45-1.12h-1.8l.02.87.02 1.45-.07 1.97v.12l-.1 1.3c-.02.13-.02.24-.02.32l-.02.52-.02 1.35-.35 5.23c0 .73-.03 1.33-.1 1.8-.07.6-.14 1-.22 1.17 0 .38-.05.66-.15.85l-.4.52c-.07.12-.28.25-.64.4l-1.54.65-.47.3h8.35l-.6-.35-1.46-.67c-.36-.18-.6-.33-.67-.45-.16-.23-.26-.4-.3-.52-.05-.15-.07-.42-.07-.82l.64-10.2.92 1.62 1.93 3.42 2.95 5.6c.1.15.27.47.52.95l.2.42a7.25 7.25 0 0 0 .2.42l.64 1.3.35-.8 1.54-3.12 1.9-3.66 1.98-3.7 1.46-2.67.97 10.52v.17l.02.22c0 .38-.1.7-.32.97-.12.15-.55.37-1.3.65l-.05.02-.82.37-.47.3h8.32l-.63-.36zm-5.6-14.04l-7.28 13.9-.17-1.67-7.98-14.66.45 2.57-.74 12.2c0 .27.04.44.12.52l.3.32.32.22.57.32.32.25h-4.46l.37-.25 1.07-.4c.26-.13.42-.22.47-.27.03-.1.05-.17.05-.22.02-.03.02-.1.02-.22v-.84l.94-14.78-.52-1.05h1.07l7.8 14.5.15 1.35 7.43-14.28-.28 2.48zm-.03 14l.35-.25 1.07-.4c.26-.12.42-.22.47-.3.05-.05.07-.22.07-.5V175v-.45l-1.3-14.2-.25-.15v-1.6h1.14l1.4 16.68a1.65 1.65 0 0 0 .1.32v.05l.22.32c.08.1.17.18.27.25l.62.32.3.25h-4.44zm26.43.1a8.27 8.27 0 0 1-1.16-.57c-.46-.23-.76-.44-.9-.62-.2-.33-.37-.68-.52-1.05-.03-.03-.12-.23-.25-.6l-.07-.15c-.02-.07-.08-.24-.2-.52l-.07-.15-.22-.52-.05-.15c-.12-.25-.24-.55-.37-.9l-.3-.75-3.24-8.25-.1-.27a2.64 2.64 0 0 0-.1-.27l-.07-.2-.15-.42-.52-1.45c-.02-.07-.04-.13-.07-.2l-.07-.2c-.02-.02-.05-.12-.1-.32l-.07-.3c-.02-.05-.04-.12-.07-.22 0-.02-.01-.05-.02-.1-.02-.13-.04-.23-.07-.3h-1.76l-.17 1-.22.87-1.46 4.24-2.16 6.26-1.54 3.9c-.02.05-.04.14-.07.27l-.02.05c-.02.02-.04.06-.07.12s-.06.1-.07.12c-.07.15-.2.3-.37.45-.2.22-.54.42-1 .62l-.7.35-.82.47 7.68.05-.67-.4-1.1-.57c-.46-.25-.72-.47-.77-.67v-.17c.02-.18.06-.35.12-.5l.22-.75 1.44-4.34h5.35l1.7 4.64.07.17c.02.05.04.14.07.27.07.12.1.23.12.35v.05c.02.03.02.12.02.27v.12c-.05.2-.22.37-.52.52-.33.17-.77.34-1.3.52l-.84.47h8.35l-.77-.28zm-5.25-.18l.4-.27.77-.35c.25-.13.4-.23.42-.3l.02-.15c0-.15-.06-.34-.17-.57-.05-.08-.12-.26-.22-.52l-5.72-14.6-.05 1.85-2.45 6.63H221l.77.5-.37.62h-5.95l-1.83 5.68-.02.15c-.02.05-.02.1-.02.15 0 .07.01.1.02.12a1.04 1.04 0 0 0 .17.37c.07.07.18.15.35.25l.77.47h-4.3l.74-.35.8-.32c.26-.12.45-.27.57-.47l.45-1.45 4.73-13.63.27-.5-.15-1.35h1l1.3 3.68.74 1.94 1.6 4.16 1.44 3.8c.12.25.23.53.35.85l.6 1.42.27.67c.08.22.23.47.45.75.08.13.2.23.32.3l.4.2.45.25h-4.1zm-2.4-8.47h-4.1l2-5.86 2.1 5.86zm14.63-6.8v-.47c0-.12.02-.26.07-.42a1.68 1.68 0 0 1 .22-.47c.1-.1.32-.22.67-.37l1.56-.65.54-.32h-8.45l.62.32.05.02.52.22c.02 0 .04.01.07.02l.07.02.8.3c.38.17.6.32.67.45.13.13.2.26.2.37.05.1.07.25.07.45l-.02.27v13.2l-.05.8c-.05.18-.14.37-.27.55-.15.17-.5.37-1.02.6l-1.14.52-.57.35H238l-.5-.3-1.5-.67c-.35-.12-.56-.24-.64-.37-.18-.23-.28-.5-.3-.8v-13.6zm-.25 13.9c.08.25.2.47.32.67l.32.22.57.32.32.25h-4.46l.37-.22 1.1-.42c.28-.12.44-.2.47-.27.03-.17.05-.37.05-.62v-.8l-.02-.67v-13.06l-.02-.45c-.03-.15-.07-.24-.12-.27-.07-.1-.24-.2-.52-.3l-1.12-.37-.42-.25h4.53l-.3.25-.2.12-.42.22c-.17.1-.26.17-.3.22-.16.22-.25.45-.25.7v14.08l.1.64zm9.6.5h-.3l-.32-.05c-.66-.1-1.2-.24-1.64-.42-.63-.33-1.07-.8-1.34-1.4l-1.1-2.67-.1 5.4 1.2.37a3.03 3.03 0 0 0 .64.22c.15.05.34.1.57.12h.02c.53.12 1.1.17 1.7.17 1.8 0 3.24-.42 4.3-1.25 1.2-.9 1.78-2.2 1.78-3.86 0-1.1-.25-2-.74-2.72-.35-.6-1-1.2-1.93-1.77-.03-.02-.07-.04-.12-.07l-.12-.07-.62-.35-.82-.45-1.1-.6c-1.17-.63-1.95-1.17-2.33-1.62-.45-.53-.67-1.1-.67-1.72 0-.95.3-1.7.92-2.27.63-.58 1.4-.87 2.3-.87.76 0 1.33.08 1.7.25a2.09 2.09 0 0 1 1.07 1.1l1.24 2.9.12-5.33-.77-.2c-.36-.13-.86-.23-1.5-.3l-1.83-.07c-1.5 0-2.75.48-3.8 1.45-1.1 1-1.66 2.3-1.66 3.9 0 .98.2 1.78.62 2.4.33.53.85 1.04 1.56 1.52l2.28 1.3 1.9 1.07c.68.4 1.16.8 1.46 1.2.38.48.57 1.08.57 1.8 0 .9-.33 1.62-1 2.17-.54.5-1.3.75-2.24.75zm4.17-3.34c0-.83-.22-1.54-.64-2.12-.35-.47-.88-.9-1.6-1.35l-2.06-1.15-1.96-1.12c-.68-.43-1.17-.9-1.5-1.4-.4-.63-.6-1.4-.6-2.27 0-1.3.48-2.38 1.44-3.24a4.57 4.57 0 0 1 3.2-1.27l.9.02.87.07c.64.07 1.04.13 1.2.2l.57.22-.02 2.82-.7-1.9c-.36-.22-.8-.36-1.3-.42-.4-.07-.92-.1-1.54-.1a3.78 3.78 0 0 0-2.6.97c-.76.66-1.14 1.5-1.14 2.5 0 .88.35 1.67 1.07 2.37.54.52 1.25 1 2.13 1.42.96.42 1.75.82 2.38 1.22.88.55 1.54 1.16 2 1.82a4.85 4.85 0 0 1 .82 2.74c0 1.4-.47 2.5-1.4 3.34-.9.8-2.12 1.22-3.64 1.22a6.96 6.96 0 0 1-1.76-.22c-.46-.12-.95-.3-1.46-.57l-.77-.42-.2-2 .84 1.2a1.53 1.53 0 0 1 .2.15l.42.3c.23.13.46.24.7.32.43.17 1 .28 1.7.35l.15.02h.42c.58 0 1.1-.07 1.54-.22.45-.17.85-.4 1.2-.72.75-.68 1.14-1.6 1.14-2.8zm18.26-10.5c-1.57-1.73-3.43-2.6-5.6-2.6l-.92.05c-2.33.3-4.1 1.23-5.3 2.8a7.38 7.38 0 0 0-1.29 2.49c-.28.98-.42 2-.42 3.07 0 2.2.68 4.1 2.06 5.73 1.37 1.6 3.1 2.5 5.18 2.7l.74.02c2.2 0 4.07-.8 5.57-2.42a8.14 8.14 0 0 0 2.3-5.8 8.6 8.6 0 0 0-2.32-6.02zm-1 11.97c-1.42 1.28-3.2 1.92-5.33 1.92-1.92 0-3.56-.82-4.93-2.47-1.3-1.56-1.96-3.4-1.96-5.48 0-2.2.56-4.08 1.68-5.6 1.27-1.68 2.93-2.52 4.98-2.52 2.26 0 4.15.87 5.65 2.62 1.44 1.65 2.16 3.65 2.16 6 .01 2.32-.74 4.17-2.25 5.53zm1.62-13.2c-.97-.88-2.04-1.54-3.2-1.97-1.14-.42-2.45-.62-3.94-.62-2.58 0-4.74.96-6.5 2.87s-2.63 4.25-2.63 7c0 2.64.9 4.9 2.68 6.8 1.82 1.88 3.96 2.82 6.44 2.82 2.8 0 5.16-.88 7.1-2.64 2.05-1.86 3.07-4.2 3.07-7.03.01-3.02-1-5.43-3.04-7.24zm-6.12 16.47l-.94-.05c-2.2-.22-4.14-1.25-5.77-3.1-1.57-1.83-2.35-3.98-2.35-6.46s.75-4.62 2.26-6.43c1.57-1.88 3.5-2.82 5.82-2.82 2.7 0 5.03.92 6.96 2.77 1.92 1.83 2.87 4.07 2.87 6.73 0 2.63-.85 4.84-2.55 6.63-1.7 1.82-3.8 2.72-6.3 2.72zm22.1-7.47l1.26 1.42 1.02 1.17.1.12 2.87 3.3 1.5 1.75h1.6v-16.28l.05-.65c.05-.18.13-.33.25-.45.15-.18.48-.38 1-.6l1.16-.5.57-.35h-8.35l.5.3c.02 0 .2.08.6.25l.94.42c.35.17.55.3.62.37l.37.52c.08.22.12.5.12.85V173l-2.28-2.6-4.4-4.86-4.58-4.96-.57-.6-.37-.45c-.05-.03-.12-.1-.2-.2l-.74-.9h-1.6v15.7a3.52 3.52 0 0 1-.12.92c-.02.07-.07.18-.17.35-.02.07-.07.15-.15.25-.02.02-.03.04-.05.07s-.03.06-.05.07c-.07.1-.28.23-.64.4l-1.54.65-.5.3 8.35-.02-.6-.35-1.46-.65c-.33-.18-.54-.33-.64-.45-.23-.33-.35-.78-.35-1.35V162.7l1.76 1.87 3.32 3.6 1.4 1.6zm-7.34-9.6l-.1.27.6 1.5v13.2c0 .23.04.42.12.55l.3.3c.05.07.15.14.3.22l.6.32.3.25h-4.46l.37-.25 1.07-.4c.26-.12.42-.22.47-.3l.02-.07c.02-.07.02-.12.02-.15l.02-.45v-15.23l-.62-1.17h1.2l13.6 15.03.52 1.57.2-.05V161a2.04 2.04 0 0 1-.07-.47c-.02-.12-.06-.27-.12-.47-.05-.08-.2-.17-.45-.27l-1.07-.45-.37-.25H293l-.3.25-.62.35c-.15.12-.24.2-.27.25l-.35.27c-.1.12-.15.3-.15.55v16.4h-1.04l.4-.95-14.57-16.05zm-62.12-58.94c-.1-.2-.14-.22-.2-.22s-.1.06-.12.2l-.7 4.66c-.04.25-.1.53-.3.57-.1.02-.16.02-.22.02-.07 0-.12.01-.12.05 0 .07.06.08.13.08l.7-.02.76.02c.1 0 .17-.01.17-.08 0-.04-.05-.05-.1-.05a1.37 1.37 0 0 1-.3-.04c-.12-.03-.22-.1-.22-.23 0-.12.01-.2.02-.34l.37-2.82h.03l.75 1.55.83 1.64c.12.22.2.36.25.36s.1-.07.27-.4l1.57-3.23h.03l.43 3.15c.03.2.01.3-.04.3-.05.02-.08.04-.08.08s.04.07.2.08l1.46.04c.1 0 .2-.02.2-.08 0-.04-.05-.05-.12-.05-.1 0-.24-.01-.45-.07-.22-.07-.3-.27-.35-.73l-.66-4.43c-.02-.15-.06-.22-.13-.22-.06 0-.1.06-.16.17l-1.96 4.08-1.94-4.03zm6.75 4.87c-.02.18-.06.3-.2.33-.06.01-.13.02-.22.02-.08 0-.1.04-.1.07 0 .04.04.07.12.07l.44-.01.36-.01.73.01 1.17.02c.24 0 .3 0 .34-.16.04-.12.1-.54.1-.68 0-.07-.01-.14-.06-.14-.04 0-.06.03-.07.1-.04.25-.12.38-.27.46-.17.07-.43.08-.6.08-.65 0-.84-.1-.86-.5-.01-.18 0-.7 0-.9v-.5c0-.04.01-.07.04-.07l1 .03c.24.02.32.12.35.24v.22c0 .03.01.05.06.05.06 0 .06-.1.06-.14a3.91 3.91 0 0 1 .03-.41l.05-.45c0-.04-.02-.07-.05-.07s-.05.04-.1.08c-.06.06-.15.08-.3.1a40.71 40.71 0 0 1-1.11.01c-.04 0-.04-.03-.04-.07v-1.52c0-.04.01-.06.04-.06l1 .03c.32.03.37.12.42.22a.49.49 0 0 1 .04.22c0 .05.01.08.05.08.05 0 .06-.07.07-.1l.04-.4c.01-.28.05-.36.05-.4 0-.03-.01-.06-.04-.06s-.06.02-.1.03c-.05.01-.15.03-.27.04s-1.53 0-1.73 0c-.18 0-.58-.01-.9-.01-.1 0-.14.01-.14.06 0 .04.04.07.1.07.1 0 .2.01.25.02.2.06.26.12.27.33l.01 1.3v1.1l-.03 1.3z"/><path d="M227.16 106.45c-.06.01-.08.03-.08.07s.07.04.2.05l1.22.01c.24 0 .27-.01.27-.07 0-.04-.03-.07-.1-.07s-.14-.01-.24-.02c-.1-.02-.3-.1-.54-.66l-1.6-3.76c-.06-.14-.1-.2-.2-.2-.06 0-.12.07-.2.25l-1.65 3.84c-.13.3-.24.5-.53.54l-.2.01c-.05 0-.07.03-.07.07 0 .05.04.07.12.07l.73-.02.7.02c.06 0 .1-.01.1-.07 0-.04-.01-.07-.1-.07h-.1c-.2 0-.25-.07-.25-.17 0-.07.03-.22.1-.38l.34-.83c.01-.04.02-.04.06-.04h1.5c.03 0 .05.01.06.04l.5 1.25c.03.07-.02.13-.06.14zm-.63-1.77h-1.22c-.02 0-.04-.01-.02-.04l.6-1.54c.01-.02.01-.06.04-.06.01 0 .02.04.03.06l.6 1.54c-.01.03-.01.04-.04.04zm2.45-2.78c-.16-.02-.22-.07-.27-.07-.04 0-.06.04-.07.12l-.14.75c0 .06.01.1.06.1.04 0 .06-.03.07-.08.02-.04.04-.12.1-.2.1-.14.24-.18.6-.2l.94-.02v2.5l-.03 1.3c-.02.18-.06.3-.2.33a1.18 1.18 0 0 1-.22.02c-.08 0-.1.04-.1.07 0 .04.04.07.12.07l.83-.02 1.02.02c.07 0 .12-.02.12-.07 0-.03-.03-.07-.1-.07a3.23 3.23 0 0 1-.32-.02c-.2-.03-.22-.14-.25-.32-.03-.27-.04-.75-.04-1.32v-2.5h.8c.57.01.73.2.75.35l.01.07c.01.1.02.12.07.12.04 0 .05-.04.06-.1V102c0-.1-.01-.13-.05-.13-.02 0-.07.01-.17.03-.1.01-.23.03-.43.03h-2.57l-.63-.04zm6.57 3.18c0 .63.46 1.6 2 1.6 1 0 1.47-.44 1.7-.66.62.48.88.56 1.7.56h.55c.16 0 .22-.02.22-.07 0-.06-.04-.07-.1-.07-.14 0-.54-.12-.77-.25-.2-.12-.52-.3-1-.7.4-.5.7-1.16.7-1.72 0-.1-.1-.13-.24-.14l-.86-.05c-.06 0-.12.01-.12.07 0 .04.04.06.1.06.1 0 .26.02.35.1.1.1.14.22.14.33 0 .44-.2.9-.35 1.1l-1.27-1.2c-.58-.64-1.2-1.22-1.2-1.9a.77.77 0 0 1 .77-.83c.4 0 .66.15.8.33.16.2.2.42.2.6 0 .1.01.14.05.14s.07-.02.1-.12c.02-.1.08-.7.08-.93 0-.1 0-.14-.12-.2-.2-.08-.52-.15-.87-.15-1.25 0-1.76.76-1.75 1.33.01.33.06.62.37 1.03-.44.22-1.18.87-1.18 1.72zm1.36-1.44c.12.18.58.7.77.9l1.3 1.25a1.94 1.94 0 0 1-1.18.43c-.75 0-1.38-.58-1.38-1.48.01-.58.26-.92.5-1.1zm8-2.5c-.2 0-.66-.02-1.04-.02-.1 0-.16.01-.16.07 0 .05.04.07.12.07a2.03 2.03 0 0 1 .28.02c.24.05.3.17.3.4l.01 1.54v1.27l-.04 1.54c-.03.2-.06.37-.2.4-.06.01-.15.03-.26.03-.1 0-.1.02-.1.06 0 .05.05.07.14.07l.5-.01.4-.01c.18 0 .43.02.7.04l.83.04c1.33 0 2.08-.5 2.4-.85.4-.4.78-1.1.78-2.02 0-.86-.34-1.46-.7-1.84-.78-.83-2-.83-2.9-.83l-1.1.02zm3.73 2.85c0 .75-.14 1.4-.6 1.8-.43.38-.92.52-1.66.52-.57 0-.85-.15-.94-.3-.06-.08-.07-.37-.08-.55-.01-.14-.01-.7-.01-1.46v-.9l.01-1.45c0-.08.02-.12.1-.14.06-.03.32-.05.47-.05.56 0 1.38.1 2.04.72.3.3.68.9.68 1.8zm2.37 2.12c-.02.18-.06.3-.2.33-.06.01-.13.02-.22.02-.08 0-.1.04-.1.07 0 .04.04.07.12.07l.44-.01.36-.01.73.01 1.17.02c.24 0 .3 0 .34-.16.04-.12.1-.54.1-.68 0-.07-.01-.14-.06-.14-.04 0-.06.03-.07.1-.04.25-.12.38-.27.46-.17.07-.43.08-.6.08-.65 0-.84-.1-.86-.5-.01-.18 0-.7 0-.9v-.5c0-.04.01-.07.04-.07l1 .03c.24.02.32.12.35.24v.22c0 .03.01.05.06.05.06 0 .06-.1.06-.14a3.91 3.91 0 0 1 .03-.41l.05-.45c0-.04-.02-.07-.05-.07s-.05.04-.1.08c-.06.06-.15.08-.3.1-.14.01-.96.01-1.1.01-.04 0-.04-.03-.04-.07v-1.52c0-.04.01-.06.04-.06l1 .03c.32.03.37.12.42.22a.49.49 0 0 1 .04.22c0 .05.01.08.05.08.05 0 .06-.07.07-.1l.04-.4c.01-.28.05-.36.05-.4 0-.03-.01-.06-.04-.06s-.06.02-.1.03c-.05.01-.15.03-.27.04s-1.53 0-1.73 0c-.18 0-.58-.01-.9-.01-.1 0-.14.01-.14.06 0 .04.04.07.1.07.1 0 .2.01.25.02.2.06.26.12.27.33l.01 1.3v1.1l-.03 1.3zm4.15 0c-.02.18-.06.3-.2.33-.06.01-.13.02-.22.02-.08 0-.1.04-.1.07 0 .04.04.07.12.07l.44-.01.36-.01.84.01 1.14.02c.33 0 .36-.03.4-.17a5.04 5.04 0 0 0 .1-.7c0-.06-.01-.14-.06-.14s-.06.04-.07.1a.66.66 0 0 1-.16.37c-.16.17-.4.17-.74.17-.5 0-.73-.04-.84-.13-.14-.12-.14-.5-.14-1.3v-1.1l.01-1.3c.01-.22.06-.3.24-.33a1.95 1.95 0 0 1 .25-.02c.08 0 .12-.02.12-.07 0-.04-.04-.06-.14-.06l-.9.01c-.17 0-.58-.01-.87-.01-.1 0-.14.01-.14.06 0 .04.04.07.1.07a1.15 1.15 0 0 1 .21.02c.2.06.26.12.27.33v2.4l-.03 1.32zm4.87-3.7c.01-.22.06-.3.24-.33.07-.01.12-.02.2-.02.06 0 .1-.01.1-.07 0-.04-.05-.05-.13-.05l-.8.01c-.18 0-.6-.01-.85-.01-.1 0-.15.01-.15.05 0 .06.04.07.1.07.08 0 .16.01.23.03.14.04.2.12.22.33v1.3 1.1l-.03 1.34c-.02.18-.06.27-.2.3-.06.01-.13.02-.22.02-.08 0-.1.04-.1.07 0 .04.04.07.12.07h.83 1.02c.07 0 .12-.02.12-.07 0-.03-.03-.07-.1-.07a3.23 3.23 0 0 1-.32-.02c-.2-.03-.23-.12-.25-.3-.03-.26-.03-.75-.03-1.35v-2.4zm2.16 3.6c.58.5 1.3.67 2.17.67.4 0 .9-.04 1.14-.14.1-.04.14-.07.16-.18.06-.2.14-.75.14-.82 0-.05-.03-.1-.07-.1-.05 0-.06.03-.08.12a.73.73 0 0 1-.22.4c-.25.28-.56.33-1.12.33-.85 0-1.97-.7-1.97-2.16 0-.6.12-1.2.58-1.6.3-.25.64-.35 1.2-.35.58 0 1 .15 1.22.36a.83.83 0 0 1 .24.57c0 .08.01.13.06.13.06 0 .08-.07.1-.15.01-.12.01-.46.02-.67l.03-.34c0-.04-.02-.06-.1-.07-.2-.02-.4-.07-.63-.1a5.95 5.95 0 0 0-.92-.07c-.94 0-1.55.25-2 .65-.6.54-.74 1.27-.74 1.7.02.6.18 1.3.8 1.83z"/><path d="M269.45 106.45c-.06.01-.08.03-.08.07s.07.04.2.05l1.22.01c.24 0 .27-.01.27-.07 0-.04-.03-.07-.1-.07s-.14-.01-.24-.02c-.1-.02-.3-.1-.54-.66l-1.6-3.76c-.06-.14-.1-.2-.2-.2-.06 0-.12.07-.2.25l-1.65 3.84c-.13.3-.24.5-.53.54l-.2.01c-.05 0-.07.03-.07.07 0 .05.04.07.12.07l.73-.02.7.02c.06 0 .1-.01.1-.07 0-.04-.01-.07-.1-.07h-.1c-.2 0-.25-.07-.25-.17 0-.07.03-.22.1-.38l.34-.83c.01-.04.02-.04.06-.04h1.5c.03 0 .05.01.06.04l.5 1.25c.02.07-.02.13-.06.14zm-.64-1.77h-1.22c-.02 0-.04-.01-.02-.04l.6-1.54c.01-.02.01-.06.04-.06.01 0 .02.04.03.06l.6 1.54c0 .03-.01.04-.04.04zM23.33 273.37c-.18 0-.44.14-1.1.56l-.48.3c-.96.38-11.67 2.07-14.83 2.07-.86 0-1.6-.05-2.23-.14-.15-.02-.6-.1-1-.2-.7-.14-.82-.17-.9-.17-.37 0-.53.22-.53.42 0 1.42 2.92 3.85 3.96 3.85.33 0 1.1-.3 2.17-.7.4-.16.77-.3.94-.35 5.8-1.74 12.24-2.22 12.8-2.22.28 0 .4.14.4.26 0 .8-3.37 4.12-4.2 4.12-.14-.01-.75-.24-1-.34-.14-.05-.25-.1-.3-.12-.9-.3-1.36-.34-2.03-.34-.66 0-1.04.22-1.04.6 0 .2.05.3.35.92.3.6.44 1.24.44 2 0 1.6-.7 4.6-2.66 7.75-2.04 3.25-4.62 5.34-6.4 6.63-.67.52-.83.64-.83.9s.2.46.5.46c.36 0 1.5-.47 2.62-1.08 4.36-2.4 7.46-6.2 9.2-11.3l.14-.4c1.12-3.17 1.27-3.58 1.65-4.13.67-.9 6-2.9 7.37-3.18 1.3-.3 1.48-.76 1.48-1.2.02-1.38-3.5-4.96-4.5-4.96zm22.05 7.76c-.98-.24-.98-.27-.98-.88 0-.92.14-4.1.3-4.92l.03-.08c.3-.9.42-1.33.42-1.53 0-1.4-2.8-2.6-4.17-2.6-.46 0-1.23.07-1.3.57-.01.05 0 .1.03.16l.07.14c.01.03.03.06.06.08.56.53.9.86 1.16 1.55.4 1.1.4 2.4.4 12.52 0 4.5-.07 5.4-.32 8.36 0 .07-.04.28-.07.48a6.07 6.07 0 0 0-.08.57c0 .92.93 3.67 2.3 3.67 1.33 0 1.33-2.5 1.33-3.56 0-.54-.04-1.45-.07-1.85-.14-3.18-.18-5.1-.18-8.97 0-.55 0-2.2.13-2.38h.1c.9 0 2.5 1.47 3.62 2.95 2.44 3.17 2.6 3.36 3.63 3.36.55 0 1.58-.32 1.58-1.54 0-2.96-5.8-5.6-8-6.1zm32.46-10.25c-.82 0-1.33.02-1.33.5 0 .17.05.26.52.9.73 1.04 1.35 1.93 1.35 4.67 0 6.44 0 13.1-7.14 20.72-.14.15-.46.47-.84.86-2 2.04-2 2.08-2 2.25 0 .27.2.46.5.46.65 0 3.3-2.1 3.42-2.2 8.24-6.56 8.9-14.36 9.12-16.92.05-.57.08-1.95.12-3.4.04-1.73.1-3.7.17-4.2.03-.15.1-.36.16-.57.1-.35.2-.7.2-.92-.01-1.16-1.95-2.13-4.25-2.13zm-7.12 16.18c0-.26-.08-1.12-.17-2.05l-.05-.56-.1-8.28c0-.1.02-.33.04-.58l.04-.6c0-.86-2.22-2.15-3.13-2.15-.78 0-1.7.2-1.7.75 0 .4.25.7.54 1 1.07 1.24 1.23 2.02 1.23 5.98l-.07 3.68c0 .13-.05.52-.1.87l-.1.93c0 1.03.88 3.13 1.9 3.13.7 0 1.65-1.05 1.65-2.12zm44.03 1.44c-.28 0-1.2.1-1.92.17l-.75.08-2.65.16-3.58.2c-.8 0-.8-.13-.8-.4 0-.02 0-.05.01-.08.01-.08.03-.2.02-.28l.1-.67.52-4.3.07-.3.23-1.1c0-.4-.14-.54-1.06-1.5-.2-.2-.24-.3-.24-.34 0-.08.2-.12.3-.12l1.75-.2 3.52-.4c.9-.04 2.12-.1 2.12-1.04 0-1.38-2.7-2.12-3.8-2.12-.23 0-.66.18-1.34.47l-.76.3c-3.3 1-7.78 1.43-8.93 1.43-.9 0-2.46-.18-2.94-.35h0c-.2-.1-.63-.2-.8-.04-.4.4.42 1.57.6 1.82.55.66 2.06 1.72 2.56 1.72.07 0 .17-.02 1.02-.25l3.64-.83c.72 0 1.02.68 1.02 4.9 0 1.45 0 3.64-.54 3.88-.4.12-6.53 1-8.52 1-1.38 0-2.7-.25-3.07-.32-.6-.15-.97-.22-1.1-.22a.49.49 0 0 0-.53.53c0 1.96 3.66 3.6 3.96 3.6.2 0 .64-.15 1.3-.4l.7-.24c4.9-1.35 11.24-1.83 15.54-1.83 2.4 0 3.44.23 4.3.46l.42.1c1.07.3 1.7.44 1.92.44.32 0 1.6-.18 1.6-1.04-.03-1.25-2.85-2.92-3.88-2.92z"/><circle cx="133.46" cy="284.93" r="2.66"/><path d="M162.58 281.2c-.97-.2-.97-.3-.97-.84 0-1 .18-4.13.36-5 .01-.08.07-.27.14-.5.16-.53.26-.9.26-1.07 0-1.4-2.8-2.6-4.17-2.6-.12 0-1.15.01-1.3.6 0 .13.08.27.16.35l.06.05c.57.53.88.83 1.14 1.5.42 1.1.42 1.97.42 12.52v2.15c.01 2.67.02 3.57-.33 6.22 0 .07-.04.28-.07.48a6.07 6.07 0 0 0-.08.57c0 .94.9 3.67 2.3 3.67 1.33 0 1.33-2.5 1.33-3.56 0-.54-.04-1.45-.07-1.85a173.97 173.97 0 0 1-.18-8.96c0-.72 0-2.22.12-2.38h.1c.92 0 2.47 1.47 3.6 2.92l.16.2c2.37 3.06 2.46 3.18 3.45 3.18.56 0 1.6-.32 1.6-1.54-.03-2.96-5.85-5.62-8.07-6.14zm8.7-11.15c-1.05 0-1.65.26-1.65.7 0 .2.17.47.64.66 1.13.46 2.53 1.38 3.03 2.02.64.82 1.14 1.46 2.05 1.46.8 0 1.22-.8 1.22-1.36 0-1.9-2.42-3.5-5.3-3.5zm-3.03 3.78c-.84 0-.93.37-.93.53 0 .32.5.72.6.8l.08.06c1.26 1.05 1.64 1.37 2.2 2.22.94 1.37 1.33 1.85 2.03 1.85.92 0 1.4-1.07 1.4-1.65.01-1.84-2.76-3.8-5.4-3.8zm30.75 7.43c-.22 0-.6.15-1.17.4l-.7.28-2.97.18c-.4 0-.48-.14-.48-.55 0-.47.05-1.1.15-1.32 0-.01.4-.85.4-1.06 0-1-2.28-1.9-3.16-1.9-.62 0-1.25.2-1.25.68 0 .24.1.35.33.64l.24.3c.55.64.55.87.55 2.33v.26c0 .8 0 .8-.6.9l-2.88.25c-.3 0-.46-.07-1.2-.5-.48-.3-1.07-.58-1.8-.58-.23 0-1.4.04-1.4.75 0 .3.32.82.77 1.5l.27.43c.74 1.44.9 3.5.9 3.77 0 .5.03 2.6.16 3.1.3 1.05.86 1.65 1.57 1.65 1.04 0 1.04-1.3 1.04-1.9 0-.5 0-1.8-.47-5.1-.03-.16-.07-.53-.07-.7 0-.3 0-.44 1.85-.66 1.57-.2 6.08-.47 8.18-.47.55 0 .55.1.55.26-.02.84-1.65 7.7-8.08 13.23-.12.1-.42.33-.77.6-1.9 1.48-1.9 1.48-1.9 1.67 0 .26.23.46.53.46.07 0 8.4-2.7 12.66-13.48l.18-.45.6-1.54c.7-.63.85-.76.85-1.18-.01-.7-2.3-2.27-2.93-2.27z"/><circle cx="222.15" cy="284.93" r="2.66"/><path d="M262.35 269.36c-.8 0-1.65 0-1.65.6 0 .1.04.4.55.68 1.1.57 2.4 1.6 2.8 2.24.47.77 1.05 1.72 2 1.72.78 0 1.25-.73 1.25-1.43-.01-2.62-3.82-3.8-4.97-3.8zm-5.08 2.84c0 .35.58.8.6.8 1.33 1.2 1.65 1.48 2.23 2.34.92 1.43 1.3 1.93 2 1.93.88 0 1.43-1.08 1.43-1.65 0-2.18-3.22-3.96-5.33-3.96-.83 0-.92.37-.92.53zm-10.03 1.82c-.47 0-3.02.2-3.02 1.04 0 .33.2.4.6.55l.12.04c1.5.52 2.17.88 3.02 1.86l.1.1c1.25 1.47 1.4 1.65 1.93 1.65.78 0 1.47-.92 1.47-1.97 0-1.43-1.22-2.45-2.26-2.9-.83-.35-1.65-.38-1.96-.38zm17.46 6.02c-.17 0-.2 0-2.52 2.33l-.26.27c-6.38 5.87-16.05 11.14-17.9 11.14-.2 0-1.04-.27-1.45-.4-.5-.16-.57-.18-.65-.18-.33 0-.57.23-.57.57a1.68 1.68 0 0 0 .2.75c.05.12.2.33.42.66.13.2.3.43.34.5.75 1.62 1.23 2.54 2.16 2.54.5 0 .68-.14 2.04-1.2.28-.2.42-.32 2.6-1.68 14.36-9.05 16.07-14.76 16.07-14.8.02-.3-.24-.5-.48-.5zm-20.76 5.3c.52.87.78 1.25 1.5 1.25 1.06 0 1.65-1.23 1.65-2.08 0-2-2.4-3.45-4.03-3.45-2.8 0-2.8.6-2.8.82 0 .28.28.46.5.6 1.1.63 2.5 1.7 3.18 2.86zm44.98-4.46c-.23 0-.65.2-1.55.64l-.68.32c-.74.28-4.52 1.1-5.24 1.1-.55 0-.55-2.15-.55-3.43 0-1.72-2.22-1.72-2.95-1.72-.5 0-2.08 0-2.08.86a.52.52 0 0 0 .2.4l.2.13.6.4c1.13.92 1.66 3.33 1.66 3.82 0 .2-.24.3-.3.3-.86.24-3.54.64-4.97.64-.35 0-1 0-1.84-.28-.05-.01-.16-.05-.27-.1-.34-.12-.5-.17-.6-.17-.38 0-.6.43-.6 1.18 0 .66.25 1.12.84 1.53 1.6 1.1 1.83 1.24 2.28 1.24.25 0 .37-.05 1.5-.52l.45-.2c1.17-.5 3.7-1.13 3.96-1.13.28 0 .3 0 .74 1.42.3 1.02 1.18 4.67 1.82 7.33l.8 3.3c.36 1.16 1.94 2.22 2.43 2.22.62 0 1.04-.93 1.04-1.8 0-.7-.2-1.28-1.03-3.42-1.25-3.17-3.08-9-3.08-9.52 0-.36 0-.36 1.22-.66l1.52-.36 3.44-.8c.07 0 .1.01.12.01 0 .45-1.24 2-1.98 2.93-.92 1.17-1.16 1.5-1.16 1.72 0 .2.15.46.46.46.53 0 2.38-1.25 3.45-2l.18-.13c1.43-1.05 1.62-1.2 2.3-1.42.63-.2 1.34-.45 1.34-1.24-.01-1.13-2.56-3.1-3.7-3.1z"/><use xlink:href="#B"/><path d="M301.72 275.15l.14.08c.94.54 1.92 1.1 3.05 2.8l.07.1c1.15 1.74 1.58 2.4 2.68 2.4s1.83-.84 1.83-2.08c0-2.42-3.28-4.46-7.17-4.46-.63 0-1.07.25-1.07.6 0 .34.35.5.47.57zm49.5-4.85c-.17 0-1.6.02-1.6.7 0 .26.22.5.65.66 1.13.42 2.46 1.28 3 1.93.7.9 1.22 1.48 2.1 1.48.8 0 1.18-.8 1.18-1.36-.01-1.65-2.04-3.42-5.33-3.42zm-4.3 3.7c0 .17.1.37.7.75l.07.04c1.46.87 1.86 1.1 2.57 1.86 1.25 1.33 1.6 1.53 2.15 1.53.7 0 1.3-.76 1.3-1.7 0-.62-.53-1.56-1.72-2.3-1.33-.84-2.22-.84-4.2-.84-.42 0-.88.33-.88.64zm2.57 8.2l2.84.38c.6 0 1.22-.3 1.22-1 0-.74-.56-1.1-.98-1.35 0 0-.06-.04-.07-.04-1.5-.86-2.65-1.26-3.64-1.26-.26 0-.94.14-1.87.35l-.94.2-.57.08-2.9.28c-.87 0-1.13-.13-1.13-1.02 0-1.3.1-2.28.3-2.67.02-.06.1-.18.2-.33.32-.5.47-.77.47-.96 0-.52-1.1-2.15-3.67-2.15-.87 0-1.5.27-1.5.64 0 .2.17.4.46.74a2.04 2.04 0 0 1 .26.33c.5.96.73 3.24.73 4.5 0 1-.2 1.17-1.46 1.24l-2.2.1-3.6.15c-1.54 0-2.58-.1-3.1-.34l-.16-.06c-.34-.13-.45-.17-.62-.17-.16 0-.53.06-.53.6 0 .84 1.87 3.45 2.88 3.45.3 0 1.4-.37 1.5-.4 2.12-.54 6.35-1.14 6.6-1.15.62 0 .77.2.77 2.1l-.18 7.2c-.1.73-.32.73-.44.73-.1 0-.5-.13-.76-.22-.47-.15-.77-.25-.93-.25-.25 0-.42.18-.42.42 0 .16.07.26.15.4l.1.2c.72 1.12.9 1.4 1.32 2.55.75 2.07.9 2.44 1.87 2.44.82 0 2.2-.42 2.2-3.2l-.1-5.23-.1-5.73c0-1.76.03-1.78 3.15-1.78l4.25.18c.1-.02.3.02.57.06zm-16.6 4.8c-.2 0-.5.2-.9.6l-.1.1c-1.4 1.24-2.55 2.14-3.4 2.65-1.04.64-1.5 1.08-1.5 1.93 0 .84.64 1.42 1.22 1.6a2.09 2.09 0 0 0 .8.16c2.52 0 4.35-4.45 4.35-6.34 0-.32-.12-.7-.46-.7zm13.1-1.34c-.5 0-.53.38-.53.46 0 .23.2.47 1.43 1.63l.1.1c1.17 1.03 2.27 2.92 2.85 4.33l.04.1c.64 1.53 1.03 2.45 2.2 2.45h.06c.45 0 .86-.16 1.17-.46.5-.5.68-1.25.68-1.8 0-3.26-6-6.8-8-6.8zm37.16-8c-.16 0-.2 0-1.85 1.67-6 5.94-15.45 12.2-17.1 12.2-.72 0-1.86-.5-2.33-.8a4.92 4.92 0 0 1-.3-.2c-.56-.4-.75-.5-.9-.5-.17 0-.64 0-.64 2.2 0 1.66 2.88 4.03 4.9 4.03.7 0 .83-.17 1.5-1 .52-.62 1.7-1.6 3.48-2.9 9.3-6.88 13.7-13.74 13.7-14.2a.49.49 0 0 0-.45-.47zm-22.32-2.5l.14.08c.94.54 1.92 1.1 3.05 2.8l.07.1c1.15 1.74 1.58 2.4 2.68 2.4s1.83-.84 1.83-2.08c0-2.42-3.28-4.46-7.17-4.46-.63 0-1.07.25-1.07.6.01.34.36.5.47.57zm45.16-1.62c-.97-.75-2.16-1.2-2.6-1.2-.32 0-.57.26-.57.6 0 .15.07.26.14.37.03.05.07.1.1.2.13.23.22.43.22.7 0 .6-.6 2.5-1.3 4.22-1.27 3.07-1.8 3.4-1.97 3.4-.2-.02-1.1-.46-1.55-.67l-.62-.3c-1.7-.7-3.33-1.14-3.9-1.14a.55.55 0 0 0-.6.57c0 .35.17.44.9.82 2.44 1.35 4.52 2.84 4.54 3.25-.01.2-.55 1.2-2.53 3.68-.77.94-3.13 3.8-9.52 8.8l-.2.16c-.82.68-1.03.88-1.03 1.1 0 .27.22.46.53.46.4 0 7.67-3.06 14.37-11.45.12-.18.34-.38.53-.38.16 0 .5.3 1.3 1.73 1.3 2.28 1.87 3.3 3.34 3.3.58 0 1.43-.4 1.43-1.47 0-.97-.47-3-3.63-5.8-.26-.22-.52-.5-.52-.76 0-.2.1-.45.32-.75a42.84 42.84 0 0 0 2.07-3.62c.92-1.74 1-1.87 1.32-2.04l.13-.07c.7-.35.92-.46.92-.9 0-.33-.5-1.88-1.66-2.8zm35.85-4.23c-.34 0-1.05.03-1.6.15-.56.1-1.46.43-1.46.92 0 .28.3.5.77.6 1.13.2 2.66.82 3.35 1.36.94.8 1.25 1.06 2.04 1.06.8 0 1.22-.67 1.22-1.33 0-.86-1.1-2.76-4.32-2.76zm-19.07 15.48c.46 0 1.76-.4 1.76-2.23 0-3.72-5.18-4.82-6.9-5.18l-.15-.03c-.01 0-.07-.01-.08-.01-.1-.01-.3-.02-.43.1a.4.4 0 0 0-.12.28c0 .2.14.37.3.52 1.5 1.55 2.08 2.15 2.84 3.44 1.6 2.75 1.8 3.1 2.78 3.1zm15.15-12.38c-.42.05-.86.3-.86.64 0 .17.1.37.72.75 1.57.9 2.02 1.2 2.67 1.86 1.2 1.3 1.55 1.53 2.1 1.53.73 0 1.32-.77 1.32-1.72 0-.52-.37-1.16-1-1.7-.58-.52-2.25-1.68-4.97-1.35zm-.26 3.95c-.9-.75-1.35-1.07-2.8-1.07-.8 0-1.22.2-1.22.6 0 .15.08.3.28.5.55.48.92 1.13.92 1.63-.03.9-2.5 9.7-10.77 17.25-.2.2-.76.67-1.38 1.2-2.53 2.17-2.53 2.2-2.53 2.4a.48.48 0 0 0 .46.46c.3 0 2.3-.88 4.15-2.02 4.22-2.64 7.87-6.7 10.84-12.07.15-.26.48-.95.87-1.73.55-1.12 1.24-2.52 1.5-2.93a3.13 3.13 0 0 1 .3-.34c.7-.8 1.02-1.22 1.02-1.5-.01-.8-.85-1.66-1.62-2.36zm11.86-1.2l.14.08c.94.54 1.92 1.1 3.05 2.8l.07.1c1.15 1.74 1.58 2.4 2.68 2.4s1.83-.84 1.83-2.08c0-2.42-3.28-4.46-7.17-4.46-.63 0-1.07.25-1.07.6.01.34.35.5.47.57z"/><use xlink:href="#B" x="147.81"/><defs ><path id="B" d="M324.03 277.66c-.16 0-.2 0-1.85 1.67-6 5.94-15.45 12.2-17.1 12.2-.72 0-1.86-.5-2.33-.8-.05-.03-.16-.1-.3-.2-.56-.4-.75-.5-.9-.5-.17 0-.64 0-.64 2.2 0 1.66 2.88 4.03 4.9 4.03.7 0 .83-.17 1.5-1 .52-.62 1.7-1.6 3.48-2.9 9.3-6.88 13.7-13.74 13.7-14.2a.48.48 0 0 0-.45-.47z"/></defs></svg>