<svg xmlns="http://www.w3.org/2000/svg" viewBox="0 0 109.21 428.56" width="109.21" height="428.56" xmlns:v="https://vecta.io/nano"><path d="M80.62 10.5l-4.56.1c-.1 0-.65.07-.75.07s-.18-.07-.32-.22l-.68-.83c-.07-.1-.14-.18-.14-.25 0-.04.04-.07.1-.07.25 0 1.36.1 1.58.1l4.92.14h7.43c.8 0 .9-.32.9-1.3 0-.8-.07-1.22-.75-1.22-.6 0-3.27.18-3.8.2l-6.4.1c-.25 0-1.18-.04-1.18-.22 0-.04 10.98-1.54 13.03-1.97 1.18-.25 5.8-1.18 6.32-1.54.5-.32.57-.36.72-.36.18 0 3.84 2.05 3.84 2.66 0 .43-.65.43-.9.43-2.12 0-4.2.14-6.32.32l-1.8.18c-.43.14-.43.5-.43 1.4 0 1.15.14 1.3.97 1.3h7.18c1.58 0 1.76 0 2.26-.6 1-1.18 1.15-1.33 1.47-1.33.22 0 3.34 1.94 3.34 2.37 0 .5-.72.5-1.9.5h-11.6c-.32 0-.5 0-.5.25 0 1.1 8.33 5.28 13.32 6.2.93.18 1 .18 1 .36 0 .14-.1.18-.54.25-.68.14-1.8.43-2.5 1.36-.25.36-.4.54-.75.54-1.3 0-7.1-4.02-9.55-6.24-.32-.3-1.8-1.97-1.94-1.97-.25 0-.25.18-.25.68 0 .83.14 5.13.14 5.2 0 1.04-.86 1.65-1.62 1.65-.54 0-1.08-.18-1.08-1.44 0-.22.18-3.12.18-3.48 0-1.6 0-1.8-.36-1.8-.1 0-.68.47-.75.54-5.5 4.56-10.87 6.2-11.63 6.46-.14.04-.47.14-.72.22-.14.04-.47.1-.47.04s.97-.72 1.26-.9c2.26-1.44 9.73-6.42 9.73-7.54 0-.4-.36-.4-.6-.4h-4.88zm12.17 17c-.72 0-1.04.36-1.04.75v4.77c0 1.36-.1 2.98-2.84 2.98-.68 0-.83-.14-1-.57-.43-1.08-.54-1.3-1.36-1.76-.07-.04-.9-.43-.9-.5s.07-.14.25-.14c.2 0 1.87.25 2.22.25.9 0 1.15-.25 1.15-.86v-2.66c0-2 0-2.26-1-2.26H81.1a140.09 140.09 0 0 0-4.52.1c-.1 0-.65.07-.75.07-.14 0-.18-.07-.32-.22l-.68-.83c-.18-.18-.18-.18-.18-.25s.1-.07.14-.07c.22 0 1.33.1 1.58.1 1.04.07 2.9.14 4.92.14h6.96c.3 0 .97 0 .97-.86 0-.22-.18-1.33-.18-1.62 0-.54.4-.54.65-.54s1.62.25 1.94.25c.75 0 3.37-1.97 3.37-2.83 0-.36-.4-.36-.65-.36h-9.3c-.93 0-3.48.04-4.52.1-.18 0-.68.07-.8.07s-.18-.07-.3-.22l-.72-.83c-.07-.1-.14-.18-.14-.25s.1-.07.14-.07c.25 0 1.3.1 1.54.1 1.04.04 2.9.14 4.95.14h9.65c.65 0 1.15 0 1.54-.36.18-.14.93-1.15 1.18-1.15.36 0 2.7 1.65 2.7 2.5 0 .4-.14.43-1.47.75-.5.14-2.87 1.4-4.27 2.15-.68.36-2.73 1.47-2.73 2.2 0 .8.83.8 1.04.8h6.07c.86 0 1.5 0 1.76-.1.36-.18 1.54-1.83 1.97-1.83.32 0 2.9 1.9 2.9 2.4 0 .47-.43.47-1.44.47H92.8zm-10 22.9c-.4 0-.68 0-.68.18 0 .14.14.3.54.57 2.76 1.97 3.05 2.23 3.05 3.3 0 .68-.5 1.5-1.26 1.5-.6 0-1.08-.3-1.33-.75-.1-.2-.4-1.47-.47-1.72-1.1-3.1-1.97-3.1-2.33-3.1-.97 0-1.04.07-1.65.86-1.08 1.33-3.98 4.88-4.74 4.88-.04 0-.1 0-.1-.1 0-.22.2-.5.25-.57a23.03 23.03 0 0 0 1.04-1.65c1.58-2.8 3.1-5.78 3.52-7.97.18-.86.18-.97.4-.97.18 0 3.37.83 3.37 1.54 0 .22-1 .83-1.15 1-.3.32-1.15 1.6-1.15 1.8 0 .22.18.22.68.22h3.4c1.47 0 1.58 0 2.22-.75.65-.72.93-1.08 1.3-1.08s2.66 1.76 2.66 2.3c0 .43-.5.5-2.33.5H82.8zm2.73 6.18c.32 0 .75-.04 1.04-.18.18-.1 1.04-.8 1.26-.8.6 0 2.05 1.22 2.05 1.65 0 .14-.5.75-.57.93-.14.32-.14 1.04-.14 7.64 0 2.2-1.44 2.2-1.54 2.2-.72 0-.83-.4-.93-.72-.14-.4-.43-.4-1.04-.4h-4.56c-.57 0-1.36 0-1.36.9v4.06c0 .6 0 1.36.83 1.36.25 0 2.26-.54 2.58-.65 2.66-.8 2.94-.86 2.94-1.15 0-.5-1.83-2.44-1.83-2.48 0-.07.04-.18.18-.18.65 0 5.56 2.5 5.56 5.7 0 .54-.36 1.4-1.33 1.4-.83 0-1.18-.57-1.58-1.9-.36-1.18-.4-1.33-.72-1.33-.25 0-6.4 2.62-8.22 3.6-.36.18-2.12 1.4-2.23 1.4-.65 0-1.72-2.7-1.72-3 0-.07 1.5-.22 1.7-.25.97-.14 1.36-.25 1.47-.65.22-.65.18-10.44.18-12.45 0-.83-.2-5.2-.2-5.7 0-.14 0-.25.14-.25.22 0 .4.07 1.87.83.4.18.86.43 1.7.43h4.5zm-.1 4.63c.72 0 1.15 0 1.33-.47.1-.22.1-1.62.1-2.12 0-1.1-.54-1.1-1.44-1.1h-4.27c-.72 0-1.1 0-1.33.47-.1.22-.1 1.62-.1 2.12 0 1.1.54 1.1 1.44 1.1h4.27zm-4.2.93c-1.5 0-1.5.25-1.5 2.33 0 1.4.2 1.47 1.5 1.47h4.06c1.5 0 1.5-.14 1.5-1.94 0-1.65 0-1.87-1.5-1.87H81.2zm13.42-11.77c-.97 0-1.22 0-1.76.68-2.33 2.87-4.1 4.1-4.27 4.1-.07 0-.1-.07-.1-.1 0-.1.54-.97.6-1.1 2.2-3.98 3.52-6.75 3.77-8.07.14-.83.14-.93.36-.93.18 0 1.94.47 2.76.72.6.22 1 .32 1 .72 0 .32-.2.4-.93.6-.75.25-1.7 2.08-1.7 2.2 0 .3.14.3.6.3h4.52c1.7 0 1.87 0 2.3-.6.86-1.22.93-1.36 1.36-1.36s3.16 1.87 3.16 2.4c0 .5-.72.5-1.9.5h-5.7c-.47 0-.6 0-.6.14 0 .18.18.36.54.65 1.4 1.15 2.33 2.3 2.33 3.27 0 .86-.6 1.72-1.5 1.72-.4 0-.9-.32-1-.72l-.4-1.76c-.75-3.3-1.58-3.3-2.12-3.3h-1.32zm6.03 6.28c.65 0 .83 0 1.15-.43.68-.9.75-1 1.04-1 .5 0 2.48 1.36 2.48 1.87 0 .18-.68.83-.8.97-.43.65-.43 1.5-.43 9.2 0 3.05-.04 3.98-.6 4.95-.65 1.08-2.33 1.58-2.48 1.58s-.2-.04-.32-.18-.54-.86-.65-1c-.3-.32-2.05-1.65-2.3-1.83 0-.1.07-.14.22-.14.25 0 1.44.07 1.72.07 1.83 0 1.94-.83 2-1.47.07-.9.25-4.02.25-10 0-1.36-.07-1.58-1.47-1.58h-3.34c-.72 0-1.3 0-1.4.68-.07.36-.07 4.45-.07 5.17l.07 11.88c0 .72 0 .97-.54 1.47-.47.47-1.04.68-1.44.68-.68 0-.83-.43-.83-1 0-.07 0-.32.04-.68.1-2.33.36-13.06.36-15.9 0-.6-.07-3.45-.07-3.95 0-.4 0-.8.36-.8.32 0 1.4.68 1.83.97.8.47 1 .5 1.72.5h3.5zM90.32 92.63c0 .1.07.25.07.4.14 1.15.36 2.3.36 3.88 0 2.4-.54 5.74-3.7 10.52-2.87 4.38-4.7 5.24-6.14 5.24-2.37 0-4.5-3.7-4.5-8.07 0-1.9.4-5.53 3.98-9.15 4.56-4.67 9.37-4.67 11.45-4.67 3.27 0 4.77.65 5.78 1.15 3.88 1.9 6.24 5.74 6.24 10.44 0 4.67-2.7 10.4-9.04 12.63-3.05 1.08-5.42 1.33-5.96 1.33-.14 0-.36-.04-.36-.25 0-.1.07-.14.97-.5C93.2 114.1 101 111 101 102.08c0-1.4-.14-9.94-9.94-9.94-.7-.01-.74.27-.74.5zm-11.67 11.02c0 2.33.93 5.53 3.12 5.53 1.04 0 1.9-.43 4.38-4.16 1.9-2.9 3.52-6.9 3.52-10.44 0-2.15-.14-2.33-.6-2.33-3.4-.02-10.4 4.6-10.4 11.4zm1.83 31.82c2.05 1.22 2.26 1.33 2.26 1.58s-1.04.8-1.18.97c-.3.3-1.33 1.6-1.54 1.87-1.4 1.6-2.76 2.83-4.63 3.77-.22.1-1 .47-1.15.47s-.04-.18.04-.2c1.76-1.83 3.7-4.5 4.7-7.03.1-.3.4-1.76.5-1.83.14-.1.46.1 1 .4zm19.2-2.72c1.47 0 1.9 0 2.3-.6.9-1.47 1-1.62 1.36-1.62.97 0 3.37 2.48 3.37 2.7 0 .47-.75.47-1.9.47h-8.15c-1 0-1.15.47-1.15 1.1l.14 6.96c0 1.04-.14 2.08-1.26 2.87-.72.54-1.44.75-1.83.75-.57 0-.6-.18-.93-1.15-.1-.36-.47-1-1.44-1.58-.14-.07-.8-.36-.8-.43s.18-.07.25-.07h2.4c1.04-.18 1.04-.43 1.04-2.87l-.04-4.63c-.04-.97-.68-.97-1.1-.97H89.4c-1.04 0-1.04.18-1.3 1.72-.9 5.5-3.16 8.1-5.85 9.76-2.9 1.76-5.85 1.94-5.92 1.94-.4 0 .14-.25.5-.43 3.12-1.5 5.6-2.7 7-5.63.86-1.76 1.6-4.6 1.6-6.4 0-.86-.47-.97-1.08-.97h-3.7c-2.66 0-3.73.04-4.52.1-.14 0-.65.07-.75.07-.14 0-.2-.1-.32-.22l-.72-.83c-.07-.1-.14-.18-.14-.25 0-.04.04-.07.14-.07.25 0 1.33.1 1.58.1a112.66 112.66 0 0 0 4.92.14h6.6c1.1 0 1.26-.3 1.26-1.8 0-.5-.04-1.15-.25-1.7-.04-.07-.25-.65-.25-.72 0-.14.18-.14.3-.14.18 0 2.73.43 3.27.5.18.04.65.1.65.47 0 .22-.04.25-.5.6-.3.2-.3.83-.3 1.4 0 1.1.18 1.36 1.08 1.36h6.97zm-5.78 14.7c.8 0 .97-.04 1.18-.22.25-.22 1.44-1.7 1.83-1.7.18 0 2.94 1.5 2.94 2.26 0 .4-.47.57-.75.65-.8.18-.86.18-1.26.72-1.83 2.33-2.9 3.37-3.52 3.95-.57.57-.86.83-.86 1.04 0 .6 3.88 2.05 9.5 2.05.57 0 3.77-.25 4.02-.18a3.67 3.67 0 0 1-.5.65c-.68.6-1.5 1.8-1.7 2.33-.18.57-.4.9-.75.9-1.47 0-7.36-1.1-11.38-3.62-.8-.47-.9-.5-1.1-.5-.25 0-.47.14-1.08.54-4.95 3.4-12.78 4.1-15.04 4.1-.1 0-.43 0-.43-.14 0-.04.14-.18.4-.22 2.33-.43 4.7-1.15 6.1-1.58 5.78-1.87 8.1-3.95 8.1-4.4 0-.25-.22-.5-.4-.68-.6-.65-1.5-1.8-2.48-3.45-.1-.22-.25-.4-.5-.4-.22 0-1.83 1.4-2.2 1.65-3.62 2.5-7.75 3-8.18 3-.04 0-.18 0-.18-.14 0-.1 1.44-.6 1.7-.72 3.37-1.5 6.57-3.9 8.33-7.54.14-.3.68-1.83.86-1.83.1 0 .25.07 1.4.6.75.32 1.8.83 1.8 1.18 0 .32-.25.47-.57.68-.14.07-.72.4-.72.72 0 .3.32.3.57.3h4.87zm-5.52.97c-1.36 0-1.44.25-1.44.5 0 .68 3.05 3.98 3.98 3.98.75 0 3.4-3.55 3.4-4.06 0-.43-.4-.43-.6-.43h-5.34zm9.58-12.45c2.62 0 7.36 3.05 7.36 5.63 0 1.26-.75 2.08-1.44 2.08-.6 0-.72-.2-1.7-2.33-.72-1.54-2.7-4.2-4.2-5.06-.1-.04-.3-.14-.25-.22 0-.07.15-.1.22-.1zm-14.72 46.26c-.25.75-.4 12.24-.4 14.97 0 .5.1 2.76.04 3.23-.1.93-1.22 1.94-2 1.94s-.8-.9-.8-1.26c0-.68.2-3.73.25-4.38l.36-11.2c0-2.66-.07-2.76-.36-2.76-.18 0-.32.22-1 1.1-1.04 1.36-3.98 5.2-4.63 5.2-.07 0-.22-.07-.22-.22s3.34-5.56 3.9-6.64c3.3-6.14 4.84-10.55 5.06-11.4.25-1.1.25-1.1.47-1.1.18 0 3.62 1.5 3.62 2.08 0 .25-1.04.9-1.18 1.04-.68.75-.9 1.1-2.76 4.38-.36.6-1.15 1.97-1.15 2.4 0 .4.25.6.6.8.5.25.75.43.75.83 0 .2-.54.87-.58 1zm21.47-3.44c-.93.07-1.22.22-2.15.9-3.95 2.98-4.77 3.62-6.86 4.8-.97.57-2.48 1.44-2.73 2.12-.14.47-.18 6.7-.18 7.86 0 4.92 0 5.02 5 5.02 4.5 0 5-.25 5.38-.9.32-.5.43-1.33.65-3.66.1-1.15.1-1.3.4-1.3.2 0 .2.04.36 1.3.2 1.8.72 2.98.97 3.4.1.22.86 1.22.86 1.5 0 2.05-4.6 2.05-6.6 2.05-9.4 0-9.4-.97-9.4-4.84l.22-21.28c0-2.73-.04-3.3-.14-4.2-.04-.18-.18-1.1-.18-1.33 0-.32.1-.43.25-.43.18 0 1.26.4 2.05.68 1.3.47 1.44.5 1.44.83 0 .1-.07.22-.14.3-.5.47-.54.5-.6.86-.14.6-.3 9.15-.3 10.84 0 .32 0 1.08.43 1.08.9 0 5.85-4.8 8.72-8.54.1-.18.6-.83.72-.83s3.16 2.62 2.8 3.4c-.16.26-.7.34-.95.34zm-23.04 54.43c.6 0 .93-.57 1.72-2.8.22-.6.32-.9.5-.9s.18.36.18.43c0 .4-.83 4.6-.83 5.46 0 .6.5 1.7.57 1.87.25.5.43 1.1.43 1.58 0 .72-.57 1.22-1.18 1.22-2.22 0-3.88-6.1-3.88-9.55 0-2.3.3-3.34 1.5-7.82.6-2.2.6-3.1.6-3.73 0-1.15-.22-2.12-.36-2.55-.04-.1-.2-.54-.2-.65s.14-.18.3-.18c1.65 0 3.16 3.27 3.16 4.56 0 .4 0 .43-.68 1.65-.4.75-2.76 6.03-2.76 9.26-.01 1.08.35 2.15.93 2.15zm20.85 3.6c0 1.4-1.08 1.83-6.1 1.83-3.52 0-4.84-.9-5.6-1.6-.18-.18-1.1-1.1-1.1-1.8 0-.07 0-.36.18-.36.14 0 .72.43.86.5 1.04.54 2.5.6 3.84.6.93 0 2.23 0 3.12-.1l3.16-.3c1.36 0 1.65.8 1.65 1.22zm-1.7-17.48c0 1.76-3.98 1.76-4.42 1.76-4.06 0-6.28-2.2-6.28-2.66 0-.07.04-.18.25-.18.1 0 .54.14 1 .25.83.18 1.8.22 2.44.22 1.76 0 3.45-.36 3.95-.54 1.08-.4 1.18-.43 1.54-.4.66.12 1.52.73 1.52 1.55zm-8.9 34.8c.04.04.07.1.07.18 0 .2-.1.25-.4.47-.1.07-.14.18-.14.3 0 .25 2.3 4.6 5.6 7.54a29.66 29.66 0 0 0 9.04 5.53c1.15.43 1.15.43 1.15.68 0 .32-.14.36-1.26.6-.75.14-1.72.47-2.26 1-.14.14-.32.32-.47.32-.14 0-1.87-.6-5.2-3.95-3.88-3.88-5.2-6.03-6.75-9.47-.22-.47-.75-1.62-.93-1.62s-.25.1-.97 1.15c-5.92 8.58-14.14 13.96-15.07 13.96-.18 0-.3-.1-.3-.22 0-.18 3.48-3.27 4.13-3.9 4.92-5.06 7.72-9.7 8.76-12.02.18-.36.75-2.26.86-2.33.17-.12 3.9 1.43 4.12 1.8zm3.23 18.73c.25 0 .54 0 .8-.14.2-.18 1.15-1.22 1.4-1.22.2 0 2.33 1.65 2.33 2.26 0 .32-.1.43-.47.75s-.4 1.94-.4 2.48c0 1.1.2 6.1.2 7.1 0 .97-1.8 1.44-2.3 1.44-.8 0-.8-.68-.8-.93 0-1.5 0-1.9-.93-1.9h-10.8c-.36 0-1.08 0-1.08.97s0 1.08-.25 1.33c-.3.3-1.18.72-1.9.72-.93 0-.93-.75-.93-.93 0-.2.32-6.82.32-8.1 0-.75.04-2.83-.07-3.48 0-.14-.18-.97-.18-1.1 0-.1 0-.4.32-.4.3 0 1.8.83 2.15.97.43.2.93.2 1.47.2h11.13zm-5.17-5.6c1.3 0 1.72 0 2.12-.32.3-.25 1.4-1.76 1.72-1.76s3.27 2.3 3.27 2.58c0 .43-.86.43-1.94.43H88.4c-2.55 0-3.52.04-4.56.1-.1 0-.65.07-.75.07s-.18-.07-.32-.22l-.68-.83c-.14-.14-.14-.18-.14-.25 0-.04.04-.07.1-.07.25 0 1.36.14 1.58.14 1.76.1 3.27.1 4.95.1H90zm5.06 14.5c1.04 0 1.04-.68 1.04-1.1l.04-5.74c0-.43 0-1.1-1-1.1H84.2c-1.04 0-1.1.57-1.1 1.1l-.04 5.74c0 .47.04 1.1 1.08 1.1h10.9zM87 303.9c.93.57.93 1.15.93 1.4 0 .6-.2 1.1-.5 1.72-.1.22-.25.5-.25.68 0 .1.07.18.14.18.18 0 .86-.47 1.04-.54 3.55-1.8 5.5-2.08 7.25-2.08 5.6 0 8.15 3.73 8.15 7.54 0 8.6-11.48 11.4-12.3 11.4-.07 0-.14 0-.14-.07 0-.1 2.26-1.36 2.66-1.65 1.8-1.22 7-5.17 7-10.52 0-4.1-2.98-5.56-5.42-5.56-3.95 0-8.04 2.15-9.4 3.7-.47.54-.68 1.15-.68 3.6 0 .8.04 5.35.18 7.25.04.3.18 1.47.18 1.7 0 1.15-1.04 2.08-1.58 2.08-1 0-1.1-1.3-1.26-3.48-.07-.75-.3-4.16-1.15-4.16-.18 0-.65.9-.93 1.47-.54 1.04-1.3 2.5-2.58 2.5-.43 0-.86-.3-.86-1 0-.6.18-.93 1.08-2.44.36-.65 1.8-3.12 1.8-3.48 0-.65-.75-1.97-1.4-2.76-1.15-1.44-1.26-1.58-1.26-2.22 0-1.22.97-1.36 2.44-1.58.6-.1.83-.14 3.23-2.37.18-.18.9-.75.93-.86.18-.36.32-1.94.32-3.05 0-3.2-.83-4.38-1.44-5.06-.6-.72-.68-.8-.68-.93 0-.3.86-.47 1.22-.47.97 0 3.4 1.47 3.4 2.66 0 .54-.47 2.8-.54 3.27-.07.57-.18 1.7-.18 2.08 0 .66.04.7.6 1.05zm-4.45 4.27c-.32.5-.72 1.18-1.54 1.26-1.15.07-1.5.1-1.5.57 0 .5 1.3 2.8 1.7 2.8.22 0 .32-.18.72-.75 2.23-3.27 2.23-3.34 2.23-4.63 0-.3 0-.47-.14-.5-.23-.04-.84.2-1.45 1.25zm-.1 7.47c0 .47.72 1.4 1.04 1.4.43 0 .43-1.94.43-3.6 0-.14-.07-.22-.18-.22-.3 0-1.3 1.98-1.3 2.4z"/><path d="M97.06 344.25l-.3 2.87c0 .18.3.18.4.18.14 0 1.4-.14 1.7-.14.8-.07 1.1-.1 1.1-.5 0-.2-.07-.3-.72-.9-.07-.04-.14-.14-.14-.22 0-.14.2-.14.3-.14.36 0 2 .47 2.58.65 2.26.65 2.8 1.22 2.8 1.94 0 .93-1.04 1.18-1.76 1.18s-3.84-.4-4.5-.4c-2.08 0-2.12.07-2.33 1.94-.68 5.3-2.62 7.14-3.9 7.14-1.22 0-1.36-.4-1.7-1.44-.18-.54-.47-1.15-.68-1.58-.07-.1-.47-.65-.47-.75 0-.07.1-.07.18-.07.4 0 2 .65 2.33.65.6 0 .97-.36 1.22-.93.6-1.3 1.04-3.73 1.04-4.1 0-.3 0-.47-.54-.47-.75 0-7.25 1.44-7.72 2.22-.25.43-.3.8-.32 1.47l-.1 4.56c0 3.37.65 5.06 5.67 5.06.72 0 1.94-.04 3.16-.3.14-.04 1.22-.25 1.72-.25 1 0 1.94.75 1.94 1.54 0 1.7-3.27 1.7-4.1 1.7-10.26 0-10.26-2.87-10.26-9.7 0-3 0-3.37-.65-3.37-.6 0-3.1 1.1-3.62 1.1-.8 0-3.7-.68-3.7-2.66 0-.47.14-.5.47-.5.36 0 1.87.14 2.2.14 2.22 0 3.95-.3 4.56-.5.57-.18.6-.5.6-1.83 0-1.94-.18-2.83-.57-3.77-.1-.3-.83-1.54-.83-1.7 0-.32.6-.5 1.04-.5.86 0 3.1 1 3.1 2.26 0 .2-.07.57-.18 1.1 0 .04-.18 1.1-.18 2.76 0 .75 0 1.04.47 1.04.25 0 4.77-1 5.7-1.15 2.23-.36 2.48-.4 2.62-1.15.1-.72.18-2.44.18-2.9 0-1.08-.1-1.87-.43-2.48-.04-.04-.68-1.26-.68-1.33 0-.36.6-.4.8-.4 2.2 0 3.05 1.76 3.05 2.5 0 .08-.5 1.73-.54 2.06zM78.9 386.8c1.54 0 2.08-.14 7-1.54 3.2-.9 11.38-3.23 13.78-3.23 1.26 0 2.87.5 2.87 1.72 0 .93-.93 1.33-1.44 1.33-.47 0-2.5-.4-2.94-.4-4.56 0-9.65 4.2-9.65 13.46 0 6.03 2.26 6.42 4.38 6.42.54 0 3.12-.2 3.4-.2 1.1 0 1.8.47 1.8 1.33 0 1.9-3.95 1.9-4.16 1.9-7.36 0-7.36-6-7.36-7.68 0-1.58.04-9.2 5.24-13.82.14-.1.86-.68.86-.75s-.14-.07-.2-.07c-2.05 0-9.5 3.2-10.66 3.84-.5.3-.86.47-1.26.47-1.8 0-3.48-2.4-3.05-2.9.15-.2 1.22.13 1.4.13zm25.66 40.3c-.72 0-.86-.25-2.05-2.4-.72-1.26-1.65-2.5-3.77-3.84-.1-.07-.5-.3-.5-.43 0-.1.1-.25.4-.25 1.26 0 7.36 1.87 7.36 5.24.01.86-.7 1.68-1.43 1.68zM29.17 9.77c.36 0 .72 0 1.08-.5.43-.65.54-.75.72-.75.22 0 3.12 2.4 3.12 2.8 0 .22-.93.86-1.08 1-.36.36-.36.57-.36 2.48l.07 4.92c0 3.45-.1 9.98-1.26 12.85-1.3 3.23-3.95 3.4-4.38 3.4-.72 0-.8-.2-.86-.6-.25-1.22-1.9-2-2.23-2.15-.18-.07-.43-.22-.43-.4 0-.14.14-.2.32-.2.14 0 .65.1.9.14 1.22.18 1.6.14 2.55.14.5 0 1.1-.1 1.54-.97 1.26-2.37 1.3-8.36 1.3-10.98l-.14-9.58c-.07-.4-.43-.65-1.08-.65h-16c-1.22 0-1.33.25-2.3 1.8-2.12 3.4-3.88 5.06-6.53 7.6-.57.57-.68.6-.83.6-.1 0-.14-.04-.14-.14s.4-.6.54-.8c5.2-6.96 7.4-14.03 7.4-15.47 0-.18-.32-.86-.32-1 0-.1.1-.14.22-.14.25 0 4.27 1.22 4.27 2.12 0 .22-.93.72-1.08.86-.4.36-1.65 2.87-1.65 3.23 0 .4.4.4.6.4h16.04zm-9.2 6.03c.32 0 .9 0 1.44-.47.07-.07 1-.9 1.1-.9.36 0 1.9 1.7 1.9 1.94 0 .2-.68.83-.8.97-.18.22-.3.5-.3.68-.04.57-.07 2.9-.07 3.52 0 1.3.18 7.97.18 8.18 0 .83-.07 2.15-1.9 2.15-.68 0-.72-.3-.8-.9-.07-.86-.72-.86-1.1-.86h-5c-1.08 0-1.08.54-1.1 1.36 0 .8-.32 1.6-1.72 1.6-.97 0-.97-.72-.97-.97 0-.14.18-1.54.18-1.8.04-.93.04-4.74.04-6v-8.65c-.04-.14-.3-.75-.3-.86 0-.18.1-.22.22-.22.14 0 2.37.8 2.8.93.54.18 1.08.25 1.62.25h4.54zm-.07 13.4c1.15 0 1.15-.32 1.15-3.52 0-2 0-2.5-1.15-2.5h-5.3c-1.1 0-1.1 0-1.1 3.8 0 1.72 0 2.23 1.1 2.23h5.3zm.07-6.96c.32 0 1.04-.07 1.04-.86 0-3.34 0-3.98-.07-4.16-.14-.4-.6-.47-.97-.47H14.6c-1.08 0-1.08.3-1.08 2.98 0 2.26 0 2.5 1.08 2.5h5.38zM19.16 51c0 .1.07.25.07.4.14 1.15.36 2.3.36 3.88 0 2.4-.54 5.74-3.7 10.52-2.87 4.38-4.7 5.24-6.14 5.24-2.37 0-4.5-3.7-4.5-8.08 0-1.9.4-5.53 3.98-9.15 4.56-4.67 9.37-4.67 11.45-4.67 3.27 0 4.77.65 5.78 1.15 3.88 1.9 6.24 5.74 6.24 10.44 0 4.67-2.7 10.4-9.04 12.63-3.05 1.08-5.42 1.33-5.96 1.33-.14 0-.36-.04-.36-.25 0-.1.07-.14.97-.5 3.73-1.47 11.52-4.56 11.52-13.5 0-1.4-.14-9.94-9.94-9.94-.7-.01-.74.28-.74.5zM7.5 62.02c0 2.33.93 5.53 3.12 5.53 1.04 0 1.9-.43 4.38-4.16 1.9-2.9 3.52-6.9 3.52-10.44 0-2.15-.14-2.33-.6-2.33-3.42-.01-10.4 4.62-10.4 11.4zm8.82 35.45c.32 0 1.04-.04 1.04-1.08 0-1.58 0-1.97-.2-2.73-.04-.14-.3-.8-.3-.93 0-.25.36-.32.54-.32.68 0 3.45.83 3.45 1.47 0 .22-.6.9-.68 1.08-.1.18-.18.43-.18.93 0 .97 0 1.58 1.08 1.58h1.3c.3 0 .83 0 1.4-.43.14-.14.86-.83 1.04-.83.2 0 2.55 1.26 2.55 1.8 0 .22-.86.97-.97 1.15-.2.36-.2 1.1-.2 2.08l.18 5.78c0 1.44-.65 2.73-2.05 2.73-.8 0-.83-.47-.86-1.08-.04-.36-.36-.36-.97-.36h-3c-.14 0-.4 0-.4.32 0 .57 3.6 3.77 4.02 3.77.47 0 3.66-2.3 4.77-3.4.1-.1.32-.32.5-.32.1 0 2.48 2.23 2.48 2.44 0 .25-.57.32-.83.36-1.3.1-5.74 1.3-5.74 1.65 0 .5 5.28 2.87 8.9 3.27 1.08.1 1.36.14 1.36.36 0 .18-.43.32-.54.36-1.18.4-1.97 1.15-2.26 1.5-.36.47-.47.54-.68.54-.57 0-5.56-2.58-8.08-4.52-.5-.4-.65-.5-.93-.5-.43 0-5.13 1.72-6.14 2.05l-7.1 2.37c-.18.1-.9.72-1.1.72-.3 0-.36-.14-1.1-1.47l-.8-1.58c0-.25.43-.25.75-.25 1.22 0 1.7-.1 3.34-.36.97-.14 1-1.15 1-1.76l.07-11.34c0-.86-.04-5.7-.6-5.7-.14 0-5.9 3.34-7.14 3.34-.14 0-.36-.07-.36-.18 0-.22.5-.47.65-.54 1.44-.75 9.94-6.4 13.06-12.1.1-.14.4-.9.5-1.04.04-.1.18-.18.3-.18.18 0 3.48 1.44 3.48 1.9 0 .07-.32.32-.32.4 0 .25 3.05 3.23 5.96 4.74 3.1 1.6 7.86 3.05 8.9 3.2.14.04.4.07.4.22 0 .18-.2.2-.6.4-.9.4-1.1.65-2 1.58-.36.36-.4.4-.57.4-.83 0-7.75-3.62-11.84-8.94-.68-.86-.75-.93-1-.93-.4 0-.43.04-1.5 1.1-.32.32-3.2 3.1-5.3 4.67-.25.2-1.26.97-1.26 1.1 0 .07 1.44 1.54 2.76 1.54h1.93zm6.18 9.9c.9 0 1.1-.14 1.1-2.83 0-.65 0-1.36-1.04-1.36H14.3c-1.08 0-1.08.43-1.08 2.7 0 .83 0 1.5 1.08 1.5h8.18zm.07-5.13c.57 0 1.04-.3 1.04-.9V99.4c0-1-.83-1-1.04-1h-8.25c-1.04 0-1.04.3-1.04 2.83 0 1 .8 1 1.04 1h8.25zm-8.18 6.06c-.6 0-.97.1-1.08.75-.04.14-.04 4.02-.04 4.52 0 .54 0 1.15.8 1.15.5 0 5.3-1.1 6.32-1.33.18-.04.75-.14.75-.36 0-.1-.47-.57-.57-.72a23.9 23.9 0 0 1-2.33-3.27c-.36-.65-.57-.75-1.18-.75H14.4zm-7 29.7l-2.62.07a5.03 5.03 0 0 1-.75.11c-.14 0-.2-.1-.32-.25l-.68-.83c-.07-.1-.18-.18-.18-.2 0-.07.07-.1.14-.1.65 0 3.48.25 4.05.25 1.62 0 2.05 0 2.05-1.15l-.1-5.85c-.04-.25-.32-1.3-.32-1.5 0-.25.25-.36.5-.36a32.9 32.9 0 0 1 3.02.83c.3.1.6.25.6.57 0 .18-.07.25-.8.83-.36.3-.43.57-.43 1.04l-.04 4.2c0 .8 0 1.4.97 1.4.75 0 1.1-.32 1.4-.97.4-.83.57-.97.8-.97.3 0 2.76 2.05 2.76 2.44 0 .47-.75.47-1.94.47h-2.76c-.9 0-1.26.1-1.26 1.44 0 1.15.32 1.33 1.44 1.87 2.76 1.4 3.9 2 3.9 3.62 0 .9-.6 1.65-1.26 1.65-.6 0-.75-.25-1.97-2.48-.25-.43-1.4-2.23-1.83-2.23-.3 0-.3.5-.3.72v4.27c0 1.9.36 11.52.36 12.02 0 .8 0 1.9-1.8 1.9-1.1 0-1.1-.86-1.1-1.26 0-.3.14-1.62.14-1.87.07-1.1.07-2.5.07-5.78l-.04-4.8c0-.36 0-.6-.14-.6s-.22.07-.68.93c-1.18 2.12-4.84 7.07-5.2 7.07-.07 0-.14-.07-.14-.1 0-.07.18-.32.2-.43 3.98-7.97 5.63-14.46 5.63-15.25 0-.68-.47-.68-.8-.68h-.6zm17.55-.1c-3.12 0-4.16.07-4.52.1-.1 0-.65.07-.75.07-.14 0-.2-.07-.32-.22l-.68-.83c-.07-.1-.18-.18-.18-.25 0-.04.07-.07.14-.07.25 0 1.36.1 1.58.14a117.73 117.73 0 0 0 4.92.1h1.18c.97 0 .97-.5.97-1.72 0-1-.04-3.7-.2-5.35-.04-.22-.22-1.04-.22-1.22s.04-.36.32-.36c.14 0 3.77.8 3.77 1.36 0 .22-.83.86-.93 1.04-.25.36-.25 3.66-.25 4.3 0 1.47 0 1.94 1.04 1.94.65 0 .72-.1 1.36-1.15.25-.4.36-.57.5-.57.5 0 2.62 1.72 2.62 2.3 0 .32-.32.36-1.87.36h-2.58c-.5 0-1.04.1-1.04 1 0 2.76.4 14.82.4 17.26 0 2.23-.14 2.84-1.26 3.6-1.26.86-2.62 1.08-2.87 1.08-.36 0-.47-.22-.72-.6-.75-1.22-2.73-2.08-3.88-2.33-.32-.07-.36-.07-.36-.18 0-.14.14-.18.3-.18.18 0 3.16.22 3.7.22 1.4 0 2.12-.14 2.26-.86.14-.65.14-4.06.14-5.02l-.04-7.14c-.04-.18-.07-.43-.32-.43-.14 0-.68.6-.8.75-3.7 4.63-6.6 7.54-9.76 9.87-.8.57-1.94 1.26-2.12 1.26-.07 0-.1-.04-.1-.07s1.65-1.65 1.94-1.94c7.5-7.97 10.55-14.9 10.55-15.83 0-.4-.36-.43-.6-.43H25zM8.1 188.87c0-1.08 1-2.23 3.45-5.06 1.6-1.87 3.05-4.84 3.05-5.35 0-.22-.25-.25-.4-.25-.36 0-1.83.3-2.15.3-1.36 0-3.2-1.76-3.2-3.16 0-.1 0-.25.22-.25s1.15.57 1.36.68c.43.22 1.4.65 2.37.65 2.94 0 2.94-.97 2.94-1.7 0-.22-.04-.8-.3-1.26-.1-.18-.86-.83-.86-1.04 0-.3.93-.57 1.58-.57.86 0 1.76.32 1.83 1.1.04.47.18.54 1.62.65.25 0 1.6.18 1.6.93 0 1.18-2.62 2.2-4.27 2.83-.54.22-.57.3-1.36 2.12-.86 1.97-1 2.26-1.94 3.88-.18.32-.25.43-.25.57a.13.13 0 0 0 .14.14c.1 0 .8-.25 1.1-.4.4-.18.86-.3 1.4-.3.47 0 2.12.07 3.05 2.2.25.6.3.68.36.68.1 0 1.3-1.65 1.47-1.94 1.18-1.65 3.52-4.92 6.64-4.92 1.97 0 3.37 1.7 3.37 3.2 0 1.7-2.83 2.87-5.06 3.84l-5.6 2.4c-.57.36-.6.75-.6 1.5l.07 2.15c0 .57 0 2.62-1.33 2.62-.97 0-1.1-1.18-1.1-1.83 0-.36.1-2.08.1-2.12 0-.14 0-.43-.25-.43-.3 0-3.48 2.22-3.48 4.27 0 2.48 3.6 2.48 4.63 2.48a10.69 10.69 0 0 0 2.3-.22c.5-.07 2.8-.65 3.27-.65.75 0 1.76.36 1.76 1.22 0 2.23-5.56 2.37-6.42 2.37-4.56 0-6.96-1.87-6.96-4.7 0-2.3 1.36-3.45 4.74-6.17.36-.3.54-.72.54-1.26 0-1.6-.3-3.62-1.72-3.62-1.36 0-3.48 1.65-4.4 3.8-.4.9-.8 1.76-1.94 1.76-.72.03-1.4-.2-1.4-1.16zm9.15-13.57c.07 0 1.8-.47 1.8-.86 0-.47-.9-.54-1.22-.54-.5 0-.65 1-.65 1.15s0 .25.08.25zm3.26 11.63c0 .07.04.18.14.18s7.18-2.87 7.18-5.24c0-.9-.8-1.08-1.26-1.08-2.97.01-6.06 5.57-6.06 6.14z"/><path d="M9.22 232.76l-4.56.07a5.03 5.03 0 0 1-.75.11c-.14 0-.18-.1-.32-.25l-.68-.83c-.07-.07-.14-.18-.14-.22 0-.07.04-.1.1-.1.25 0 1.36.14 1.58.14l4.92.1h7.68c.68 0 .93-.18.93-.97 0-.54-.07-1-.18-1.8l-.32-1.4c0-.18.04-.43.5-.43.3 0 2.15.5 2.4.57.3.1.6.25.6.57 0 .1-.36.72-.43.86-.3.47-.32.6-.32 1.33 0 .86.04 1.26 1.08 1.26h7.4c1.54 0 1.72 0 2.05-.32.25-.2 1.18-1.5 1.5-1.5s2.7 1.9 2.7 2.3c0 .5-.75.5-1.94.5H22.17c-.32 0-.6 0-.6.4 0 1.18 6.5 6.24 13.78 6.85.07 0 .65.04.65.14s-.04.1-.43.2c-.72.18-2.37.72-2.98 2.2-.18.43-.18.5-.32.5-.36 0-8.54-3.8-11.34-8.83-.2-.43-.3-.57-.43-.57-.25 0-.25.43-.25.5 0 1.36.22 7.25.22 8.47 0 1.54-1.33 1.54-1.4 1.54-.4 0-1.36-.22-1.36-1.62 0-1.26.25-6.75.25-7.86 0-.1 0-.36-.25-.36-.22 0-1.44 1.33-1.72 1.58-3.52 3.1-7.72 5.35-12.3 6.2l-1.62.3c-.1 0-.18-.04-.18-.14s.07-.14.6-.36c6.14-2.33 12.7-7.6 12.7-8.76 0-.4-.57-.4-.83-.4H9.22zm-2.26-3.2c-.04.22-.04.57-.5.57-.3 0-3-1.97-3-2.5 0-.22.1-.25 1.15-.8 1.33-.68 7.72-5.3 7.75-5.3s.1.04.1.1c0 .32-4.38 5.85-5.17 6.85-.33.44-.33.87-.33 1.08zm2-9.8c-.68 0-.93-.43-1.22-.97-.75-1.5-1.83-2.8-3.45-4.16-.1-.07-.2-.18-.3-.25 0-.07.07-.1.18-.1.86 0 2.2.4 3 .72 2.58 1.04 3.23 1.65 3.23 3.1.01.8-.57 1.68-1.46 1.68zm12.6-4.28c.32 0 .83 0 1.26-.36.14-.14.8-1.08 1-1.08.3 0 2.44 1.44 2.44 2.05 0 .18-.14.36-.3.5-.47.43-.5.47-.5.83 0 1.22.32 7.1.32 8.47 0 1.3-.65 2.15-1.65 2.15-.97 0-1.04-.86-1.08-1.15-.07-.93-.47-1-1-1H16.5c-.3 0-.97 0-1.04.83-.04.68-.1 1.8-1.65 1.8-1.04 0-1.04-.8-1.04-1.15 0-.97.22-5.74.22-6.82 0-.57 0-3.37-.3-4.88-.04-.18-.25-.97-.25-1.18 0-.25.18-.32.43-.32.47 0 2.44 1.33 2.94 1.33.65 0 .97-1.97.97-2.87 0-.14-.07-.75-.07-.9 0-.32.18-.4.54-.4s3.4.65 3.4 1.33c0 .22-.1.3-.93.83-.25.18-1.87 1.4-1.87 1.76 0 .25.2.25.68.25h3zm.36 4.5c1.18 0 1.18-.57 1.18-1.72 0-1.3 0-1.83-1.18-1.83h-5.38c-1.18 0-1.18.54-1.18 1.65 0 1.44 0 1.9 1.18 1.9h5.38zm.04 4.95c1.15 0 1.15-.43 1.15-2.08 0-1.44 0-1.94-1.15-1.94h-5.42c-1.18 0-1.18.54-1.18 1.72 0 1.94 0 2.3 1.18 2.3h5.42zm11.2 3.95c-.57 0-.68-.14-2.94-2.66-.57-.65-3.8-3.9-3.8-3.98 0-.1.07-.1.1-.1.36 0 7.64 2.08 7.64 5.56-.01.9-.55 1.2-1 1.2zm-5.64-8.65c-.1 0-.14-.07-.14-.1s.9-1.08 1.08-1.3c.9-1.18 2.5-3.48 2.66-4.56.07-.5.07-.6.3-.6.57 0 3.34 2.15 3.34 2.55 0 .3-.18.32-.75.47-.65.14-.86.3-1.26.57-1.1.76-4.54 2.98-5.22 2.98zm-11.27 38.75c0 .36-.6 1.72-.68 2-.5 1.83-1.5 9.76-1.5 12.78 0 3.62.68 6.85 5.5 6.85 1.76 0 4.34-.36 7.54-1.87.54-.25 3.27-1.76 3.4-1.76s.18.1.18.18c0 .4-5.3 6.17-12.06 6.17-4.67 0-6.9-2.7-6.9-9.9 0-2.23.07-2.94.83-9.98.14-1.18.47-4.13.47-5.13 0-.65-.1-1.26-.32-1.76-.04-.1-.4-.93-.4-.97 0-.25.3-.36.5-.36 1.86.02 3.44 2.93 3.44 3.75zm-.9 39c.3 1.22.36 1.54 1.15 1.62 1.7.18 2.33.25 2.33 1.33 0 .9-.8 1.47-2 2l-2.4.86c-.54.32-.68 2.55-.68 2.94 0 .4.1.54.4.86.83 1.04 1.18 1.47 1.18 2.9 0 2.8-1.7 4.3-1.9 4.5-.4.3-.5.4-.5.8 0 .32.4 1.8.4 2.15a1.27 1.27 0 0 1-.79 1.18c-.65.32-.8.4-.8.8 0 1.8 2.05 2.62 6.03 2.62 6.6 0 7.32-1.76 7.43-8.04.07-3.16.2-9.47 4.05-9.47 2.23 0 4.5 4.24 4.5 6.28 0 1.18-.83 1.7-1.18 1.7-.3 0-1.44-.8-1.72-.9-.36-.1-2.26-.54-2.26-.75s1.26-.54 1.47-.68c.54-.3.68-.68.68-1.26 0-1.54-.93-3.2-2.12-3.2-2.08 0-2.5 3.16-2.5 7.03 0 1.18.14 3.16.25 4.2.07.54.6 3.1.6 3.7 0 3.77-7.25 3.9-9.08 3.9-7.07 0-7.54-3.16-7.54-4.1 0-.32.3-1.76.3-2.08 0-.47-.07-.54-.8-1.36-.9-1-2.05-3.52-2.05-5.78 0-.54 0-3.23 2.98-4.52.18-.07 1.1-.3 1.33-.36.25-.07.32-1.94.32-2.08 0-.47-.18-.5-.4-.5-.36 0-2.2.47-2.62.47-1.15 0-2.73-1.58-2.73-3 0-.1.04-.5.3-.5.3 0 1.65.4 1.97.47.57.14 1.26.2 2.12.2 1.7 0 1.97 0 1.97-1.33a5.87 5.87 0 0 0-.57-2.48c-.1-.22-.83-1.1-.83-1.36 0-.47.9-.4 1.18-.36.83.12 2.34.66 2.55 1.6zm-3.94 10.88c-.9 0-1.97 1-1.97 2.87 0 1.26.65 2.62 1.65 2.62.43 0 .6-.47.72-.8.14-.54.43-3 .43-3.55-.01-.8-.3-1.15-.83-1.15zm3.44-8.15c0 .25.07.36.25.36.04 0 1.22-.32 1.22-.72 0-.25-.32-.57-.75-.57-.04 0-.22 0-.36.07-.36.2-.36.8-.36.86zM7.9 358.67c-.72 0-1.1.25-1.1.97 0 1.47 0 2.8-1.5 2.8-1.3 0-1.3-.72-1.3-1.15 0-.14.04-1.3.18-3.45l.32-9.47-.14-5.78-.25-1.87c0-.22.18-.36.43-.36.18 0 1.5.57 1.72.68.68.32 1.04.47 1.8.47h2.15c.8 0 .97-.2 1.22-.54.4-.47.65-.8.8-.8s1.33 1.04 1.54 1.22c.57.5.72.6.72.93 0 .18-.14.32-.25.43-.54.36-.6.4-.68.54-.25.47-.32 6.53-.32 7.43l.14 6.57c0 1.62-.04 2.83-1.76 2.83-.86 0-.9-.4-.9-.9 0-.4-.3-.57-.8-.57h-2zm.04-16.22c-.32 0-1 0-1.08.8-.14 1.76-.14 10.98-.14 13.5 0 .65.25 1 1.08 1h1.94c.32 0 1 0 1.08-.8.18-2.12.25-11.02.25-13.5 0-.47-.1-1-1.08-1H7.93zm16.83 9.2c-.36 0-.68.18-.68.57 0 .83 3.88 7.32 10.4 10.37.2.1 1.5.43 1.5.68 0 .1-.3.14-.43.18-.68.07-1.08.18-1.6.43-.3.14-1.7 1-1.8 1-.2 0-4.84-2.73-7.93-9.9-.25-.6-.3-.68-.43-.68-.25 0-.25.18-.25.72 0 .32.3 10.37.3 11.7 0 .43 0 2.26-1.65 2.26-.97 0-1.04-.6-1.04-1.15 0-1.04.4-6.1.4-7.25v-5.24c0-.14-.14-.32-.36-.32-.18 0-.25.1-.36.22-1.15 1.65-2.5 3.05-4.13 4.5-3.7 3.34-8.25 5.6-8.6 5.6-.04 0-.1 0-.1-.07 0-.1 3.6-3.12 4.27-3.7 5.02-4.42 7.86-8.97 7.86-9.44 0-.43-.2-.47-1.3-.47-.18 0-2.37.04-3.3.1-.1 0-.65.1-.75.1-.14 0-.22-.1-.32-.25l-.72-.83c-.14-.18-.14-.18-.14-.25s.07-.07.14-.07a27.41 27.41 0 0 1 1.62.14l4.4.1h.68c.3 0 .8 0 1-.57.04-.2.04-3.88.04-4.23 0-.4 0-1.1-.93-1.1-1.18 0-2.87.04-3.95.1-.1 0-.65.07-.75.07-.14 0-.2-.07-.32-.2l-.72-.83c-.14-.18-.14-.18-.14-.25s.07-.07.14-.07c.18 0 1.08.1 1.3.1.54.04 3.55.14 4.16.14s1.18 0 1.18-1.08c0-1-.1-3.48-.14-4.63 0-.22-.25-1.3-.25-1.54 0-.2.1-.32.36-.32.1 0 3.37.5 3.37 1.08 0 .18-.72.68-.83.83-.22.3-.22.47-.22 1.33 0 .47-.07 2.8-.07 3.34 0 .47.07 1 1.08 1h1.94c1.47 0 1.9 0 2.26-.6.68-1.08.75-1.22 1.08-1.22.25 0 2.7 1.9 2.7 2.3 0 .47-.72.47-1.9.47h-6.07c-.3 0-.9 0-1.04.6-.07.3-.07 3.7-.07 4.3 0 1 .72 1 1.08 1h4.16c1.72 0 1.97 0 2.48-.9.57-1 .68-1.26 1.04-1.26.3 0 2.9 2.26 2.9 2.62 0 .47-.72.47-1.9.47h-8.64zm10.07 30.92a3.98 3.98 0 0 1-4.02 3.95c-2.44 0-3.95-1.97-3.95-4.02 0-2.73 2.37-3.95 3.98-3.95 2.3 0 4 1.97 4 4.02zm-7-.04a3 3 0 0 0 3 2.98c1.58 0 2.98-1.22 2.98-2.9 0-1.44-1.08-3.05-3.05-3.05-1.9 0-2.94 1.58-2.94 2.98z"/></svg>