<svg xmlns="http://www.w3.org/2000/svg" viewBox="0 0 73.54 225.99" xmlns:v="https://vecta.io/nano"><path d="M41.57 83.68c.13-.2.34-.4.58-.4.36 0 .77.22.77.62 0 .27-.56 1.3-.72 1.54-.07.1-.15.2-.32.2-.06 0-.17-.01-.2-.15s-.04-1.16-.04-1.36h-6c-.1.93-.2 1.6-.55 1.6-.2 0-.3-.2-.32-.3-.08-.27-.3-1.15-.3-1.46 0-.33.15-.67.62-.67.28 0 .52.1.6.38h2.4l-.04-.7c-.22-.13-.25-.15-.25-.25 0-.3.54-.67.88-.67.13 0 .46.05.46.47 0 .15-.1.95-.12 1.14h2.57zM40.4 88.3c.1-.17.35-.27.55-.27s.5.13.5.4c0 .08-.08.45-.08.54 0 .26.1 1.5.1 1.78 0 .45-.6.5-.7.5-.36 0-.36-.13-.38-.58h-3.66c-.01.2-.02.68-.6.68-.4 0-.4-.2-.4-.35l.07-2.14a.62.62 0 0 0-.04-.23c0-.02-.05-.15-.05-.18 0-.25.5-.47.7-.47.03 0 .3 0 .37.3h1.12l.1-1.16h-.73c-.02.28-.26.4-.52.4-.34 0-.34-.13-.34-.3l.04-1.75c0-.06 0-.08-.04-.14-.02-.03-.04-.05-.04-.1 0-.2.4-.45.6-.45.02 0 .3.01.37.25h2.43c.15-.15.35-.25.5-.25.2 0 .5.14.5.4 0 .06-.06.32-.06.38l.05 1.47c0 .45-.55.45-.62.45-.33 0-.34-.12-.34-.38h-.83c-.03.3-.1.58-.33 1.16h1.8zm.03 1.95v-.2l-.01-1.22c-.01-.05-.03-.1-.1-.1h-3.5c-.07 0-.08.05-.08.1v.8l.01.6h3.7zm-.63-3.5v-1.18c0-.06-.04-.1-.1-.1h-2.33c-.08 0-.08.05-.08.12v1.16h2.5zm-5.13 11.57c-.1 0-.5.13-.58.13-.15 0-.28-.06-.28-.2 0-.15.12-.44.36-.44.06 0 .34.04.4.04l.57.01V96.8l-.02-.58c-.17-.18-.23-.25-.23-.33 0-.33.52-.73.86-.73.12 0 .4.04.4.43 0 .1-.05.5-.05.58l-.05 1.68h.25c.1-.25.28-.3.36-.3.25 0 .47.3.47.5 0 .25-.03.25-1.08.24l-.04 2.6c.06-.01 1.06-.32 1.1-.32s.05.02.05.06c0 .43-2.37 1.55-2.9 1.55-.2 0-.55-.13-.55-.5 0-.3.17-.4.6-.46l.82-.17.03-2.75-.47.01zm3.53 1.2c-.07 1.26-.16 2.7-1.45 3.66-.35.26-.93.56-1.23.56-.04 0-.14-.01-.14-.08 0-.03.02-.05.24-.2 1.13-.83 1.7-1.8 1.7-4.43V97.9c0-.35 0-.4-.1-.46-.1-.07-.14-.1-.14-.15 0-.26.4-.6.67-.6.15 0 .43.12.5.4h1.4l-.13-1.23c-.02-.25-.06-.3-.13-.36-.14-.13-.16-.15-.16-.2 0-.3.5-.7.86-.7.43 0 .43.35.43.58l.06 1.9H42c.1-.14.3-.42.54-.42.3 0 .62.35.62.63 0 .25-.36.27-.6.27H40.6c.1.88.2 1.48.5 2.82.25-.67.3-1 .34-1.28a.57.57 0 0 1-.04-.22c0-.25.35-.5.6-.5.3 0 .5.17.5.5 0 .07-.06.77-.94 2.4.15.3.8 1.5 1.3 1.5.2 0 .33-.16.5-.42.13-.2.14-.24.18-.24.05 0 .05.06.05.08.01.1.02.46.02.5 0 .56 0 1.33-.66 1.33-.62 0-1.43-.7-2-2-1 1.3-1.96 1.3-2.18 1.3-.08 0-.14 0-.14-.06 0-.03.14-.1.17-.13.18-.1 1-.62 1.76-1.85-.25-.62-.4-1.32-.5-1.86 0 .13-.1.17-.15.2-.05 1.16-.14 2.86-1.25 2.86-.4 0-.7-.47-.8-.74.02-.05.04-.06.06-.06.03.01.15.06.45.06.2 0 .3-.04.4-.33.1-.3.22-1.08.24-1.88l-.82.03zm.03-1.97v1.57l.82-.02c.1-.23.3-.3.4-.3.2 0 .47.2.6.5l-.3-1.76h-1.5zm3-.9c-.1 0-.13-.1-.13-.17 0-.14.36-1 .4-1.1.07-.14.2-.43.57-.43a.52.52 0 0 1 .52.5c0 .3-1.08 1.2-1.37 1.2zm-11.7 66.03c.25-.74.44-1.32 1.4-1.32.77 0 1.45.5 1.45 1.04 0 1.9-5.05 7.85-7.13 7.85-.16 0-.27-.05-.27-.22s.03-.2.38-.58c.96-1.07 1.12-1.26 1.56-1.87 1.57-2.23 2.34-4.04 2.6-4.9zm3.18-4.38a35.82 35.82 0 0 0-.14-3.26c-.82.08-5.27.03-5.27-.77 0-.25.63-.33 1.3-.38 3.8-.38 6.6-1.26 8.4-2.1a1.53 1.53 0 0 1 1.32-.71c.66 0 1.67.47 1.67 1.37 0 1.18-1.12 1.43-4.7 2.28-.1 1.12-.14 1.92-.14 3.6h1.5c.14-.27.5-.9 1.2-.9s1.45.74 1.45 1.45c0 .58-.5.7-1.15.7h-3.02v2.83c.6.9 1.34 1.43 3.65 3 .63.4.7.47.7.66 0 .63-1.15 1.4-1.65 1.4-.47 0-.7-.27-2.63-2.63.1 2.72.17 5.4.17 8.12 0 2.14-1.87 2.14-1.9 2.14-1.15 0-1.15-.7-1.15-.96 0-.1.05-.96.05-1.2.16-3.07.27-7.35.3-10.42l.03-2.9c-1.04.03-1.98.03-3.07.03-.3 0-.4-.03-.82.14-.82.3-.9.36-1.15.36-.33 0-.77-.17-.77-.63 0-.52.47-1.32 1.15-1.32.14 0 .82.16 1 .16h3.66zm14.32-.4c.27-.63.85-1.1 1.48-1.1.74 0 1.56.52 1.56 1.37 0 .14-.33.85-.33 1.02v1.12c0 1.2.17 7.1.17 8.45 0 .44 0 .74-.38 1.12-.36.36-.93.63-1.5.63-.96 0-.96-.6-.96-1.62h-4.4v1.48c0 .7-1.04 1.32-1.7 1.32-.88 0-.88-.77-.88-1.37 0-1.45.17-8.64.17-10.26 0-.7 0-.8-.14-1.02-.27-.38-.3-.44-.3-.6 0-.55 1.12-1.5 1.73-1.5.2 0 1.15.22 1.2.96h4.27zm.1 9.82l.03-8.64H43.2c-.2 0-.38.05-.47.2-.14.25-.05 7.1-.08 8.45h4.47zm-15.68 27.72c-1.1.85-2.83 1.97-3.87 1.97-.27 0-.44-.05-.44-.22 0-.1.05-.17.08-.2.27-.25.74-.58 1-.8 4.1-3.46 6.12-7.93 6.12-8.78 0-.14-.08-.7-.08-.85 0-.55.6-1.32 1.37-1.32.5 0 1.62.3 1.62 1.65 0 2-2.2 5.7-5.8 8.54zm15.67-.3c-1.18 0-1.43-.93-1.78-2.28-.58-2.2-1.9-4.5-3.68-5.87-.7-.55-1-.77-1-.88 0-.22.3-.36.58-.36.3 0 1.62.3 3.18 1.32 2.1 1.37 4.17 4.12 4.17 6.17 0 1.07-.44 1.9-1.48 1.9zm-.47 27.5c0 1-.7 1.76-1.56 1.76-.58 0-1-.33-1.18-1l-.77-2.4c-5.4 1.84-10.9 3.3-11.66 3.3-.93 0-1.8-.8-1.8-1.65 0-.7.88-.7 1.56-.74.22 0 1.26-.14 1.5-.16 1.32-2.33 3.84-7.96 4.03-10.12.05-.63.14-1.7 1.73-1.7.6 0 1.5.33 1.5 1.12 0 .5-.27 1.1-.44 1.4l-4.7 9.14c2.66-.33 4.86-.77 7.82-1.45a18 18 0 0 0-.91-1.81c-.25-.44-.96-1.45-.96-1.6 0-.2.14-.27.3-.27.14 0 .63.22.8.27 2.3.83 4.73 4.07 4.73 5.9zM42 113.4c.15-.3.4-.38.58-.38.3 0 .62.28.62.58s-.14.3-1.63.3H38.5a.37.37 0 0 1 .04.14c0 .06-.05.1-.1.22-.14.24-.27.4-.8 1l.13.12h2.92c.18-.2.44-.3.6-.3.26 0 .46.2.46.4a1.01 1.01 0 0 1-.03.17c-.02.14-.04.25-.04.54l.06 1.83c0 .35-.35.5-.68.5-.38 0-.38-.18-.37-.6h-3c0 .36-.35.52-.6.52-.36 0-.36-.2-.36-.35l.1-2.15c-1.15 1.14-2.44 1.32-2.7 1.32-.05 0-.35-.01-.35-.1 0-.04.26-.15.33-.2 2.04-.92 3.4-2.7 3.4-3.1h-1.87c-.1 0-.6.16-.72.16-.04 0-.3 0-.3-.26 0-.2.1-.46.42-.46.01 0 .26.05.3.05.17.03.3.03.5.03H42zm-1.15-1.4v-.87c0-.04-.01-.12-.05-.17-.06-.1-.07-.1-.07-.15 0-.23.55-.44.8-.44.3 0 .3.24.3.38l-.03.7v.36l.02.73c0 .3-.48.36-.64.36-.33 0-.33-.1-.33-.48h-4.13c0 .13 0 .46-.58.46-.3 0-.34-.15-.34-.28l.03-1.52c0-.02 0-.08-.02-.12-.01-.03-.1-.16-.1-.2 0-.23.5-.43.74-.43.2 0 .33.1.33.27 0 .02-.03.14-.03.17-.03.18-.02.33-.02.7v.5h1.54l-.02-1.5c-.05-.06-.12-.14-.12-.26 0-.3.52-.5.78-.5.16 0 .35.08.35.3 0 .05-.04.3-.04.33a37.4 37.4 0 0 0-.05 1.6h1.68zm-.15 5.47v-1.53c0-.05-.03-.14-.12-.14h-2.8c-.07 0-.1.01-.1.45.01.18-.01 1.02-.01 1.22h3.02zm.5 9.63v-1.33c0-.06 0-.13-.02-.2-.01-.04-.16-.2-.16-.26 0-.22.6-.5.85-.5.03 0 .4 0 .4.38 0 .01-.01.06-.01.08-.06.27-.05.6-.05 1.2l.06 1.35c0 .33-.54.48-.72.48-.1 0-.36-.04-.36-.28v-.47h-5.02v.3c0 .27-.45.45-.67.45-.2 0-.35-.1-.35-.3l.07-2.2c0-.18 0-.26-.07-.34-.1-.13-.1-.14-.1-.2 0-.24.6-.5.8-.5.3 0 .35.25.35.37 0 .07-.04.38-.04.45-.02.37 0 1.35 0 1.5h2l.04-3.27h-1.6c0 .15 0 .25-.14.35-.13.1-.34.2-.52.2-.32 0-.32-.24-.32-.38l.06-2.06c0-.1 0-.22-.08-.3-.1-.12-.1-.13-.1-.18 0-.2.54-.52.77-.52.04 0 .38 0 .38.34 0 .1-.05.6-.05.7v1.4h1.6l-.07-2.58c-.01-.05-.2-.25-.2-.3 0-.3.53-.68.87-.68.25 0 .42.12.42.44 0 .1-.06.66-.06.78l-.05 2.35h1.78l-.01-1.64c-.01-.05-.16-.26-.16-.3 0-.23.6-.5.84-.5.06 0 .4.01.4.34 0 .05 0 .07-.02.16-.03.14-.05.27-.05.7v1.63c0 .22 0 .3-.17.43-.15.1-.35.18-.52.18-.35 0-.34-.23-.34-.55H39.1v3.27h2.12zm.03 6.1l-.01-.35c-.01-.04-.02-.06-.05-.1-.14-.15-.15-.16-.15-.25 0-.28.7-.6 1-.6.32 0 .32.25.32.4 0 .1-.05.6-.05.7l-.02 1.4.06 2.9c0 .27 0 .36-.23.5a1.24 1.24 0 0 1-.54.16c-.14 0-.36-.07-.36-.3v-.57h-5.02v.3c0 .34-.4.64-.7.64-.37 0-.37-.2-.37-.57l.06-2.08.01-2.35c0-.1 0-.2-.02-.27-.01-.05-.18-.25-.18-.3 0-.23.62-.56.9-.56.37 0 .37.25.37.37 0 .14-.07.83-.07.98v3.34h1.97l.02-2.93-.02-2.33c0-.53-.04-.58-.1-.64-.15-.18-.16-.18-.16-.27 0-.3.56-.7.96-.7.35 0 .42.2.42.44 0 .14-.06.84-.07 1l-.1 5.42h2.13v-3.4zM40.08 2.87c-6.55-.24-12.67 1.7-17.7 5.15l.02-.07-.38.32a39.22 39.22 0 0 0-1.6 1.2c-2.16 1.52-5.83 3.72-9.7 4.25-2.4.33-2.38 2.6-.93 3.2 3.85 1.6 2.4 3.07.8 3.94-2.88 1.55-6.33 2.58-6.3 4.23.05 2.1 1.78 1.96 3.8 2.5 2.17.57 1.4 2 .18 5.72-1.7 5.17-5.5 11.53-3.48 12.82 1.33.87 2.7-.85 4.58-2.53C12.1 41.13 12.43 50.9 14 54c1.5 3 3.9-1.18 6.22 1.1v-.02c4.98 4.13 11.12 6.52 17.7 6.77 7.88.3 15.4-2.5 21.18-7.87a29.24 29.24 0 0 0 9.4-20.53 29.35 29.35 0 0 0-7.86-21.18c-5.4-5.77-12.68-9.1-20.56-9.4zM51.5 45.85c-3.6 3.34-8.3 5.08-13.2 4.9a18.27 18.27 0 0 1-12.8-5.87c-3.35-3.6-5.1-8.3-4.9-13.2a18.42 18.42 0 0 1 19.07-17.7 18.27 18.27 0 0 1 12.8 5.87c3.35 3.6 5.1 8.3 4.9 13.2-.2 4.92-2.28 9.47-5.88 12.8z"/></svg>