<svg xmlns="http://www.w3.org/2000/svg" xmlns:xlink="http://www.w3.org/1999/xlink" viewBox="0 0 73.54 303.94" xmlns:v="https://vecta.io/nano"><path d="M60 57.97c-.38 0-.75-.1-1.04-.26-.05-.03-.1-.01-.14.04s-.01.1.04.14a2.35 2.35 0 0 0 1.14.29c.6 0 2.05-.23 3.03-2.3a3.16 3.16 0 0 0 .32-1.37c0-.74-.27-1.45-.76-2.03-.45-.52-1-.83-1.5-.83a.94.94 0 0 0-.47.12c-.02.01-.04.03-.05.06s0 .05.01.08c.03.05.1.07.14.04a.75.75 0 0 1 .37-.09c.42 0 .94.3 1.34.76a2.9 2.9 0 0 1 .71 1.89 2.96 2.96 0 0 1-.3 1.28c-.9 1.9-2.17 2.18-2.84 2.18zm-.4 1.46c.06 0 .1-.04.1-.1s-.04-.1-.1-.1h-.02c-.06-.01-.22-.02-.4-.08-.15-.04-.36-.12-.5-.26-.04-.04-.1-.04-.14 0-.02.02-.03.04-.03.07s.01.05.03.07c.15.15.38.26.66.34l.38.06zm-1.63-.13c-.04.04-.04.1 0 .14.14.14.35.25.62.3a1.62 1.62 0 0 0 .36.06c.06 0 .1-.04.1-.1 0-.03-.01-.05-.02-.07-.02-.02-.04-.03-.07-.03h-.02c-.04 0-.2-.02-.37-.07a1.2 1.2 0 0 1-.46-.24c-.04-.04-.1-.04-.15 0z"/><path d="M57.54 59.73c-.04-.04-.1-.04-.14 0s-.04.1 0 .14c.14.13.33.23.58.3a2.64 2.64 0 0 0 .33.06c.06 0 .1-.04.1-.1 0-.03-.01-.05-.03-.07s-.04-.03-.07-.03h-.02c-.05 0-.2-.02-.34-.06-.12-.04-.3-.1-.42-.23z"/><path d="M57.67 60.62c.06 0 .1-.04.1-.1 0-.03-.01-.05-.02-.07-.02-.02-.04-.03-.07-.03h-.02a1.54 1.54 0 0 1-.31-.06c-.12-.03-.28-.1-.4-.2-.04-.04-.1-.04-.14 0-.02.02-.03.04-.03.07s.01.05.03.07c.13.12.3.2.54.27a1.11 1.11 0 0 0 .3.06zm-.64.4c.06 0 .1-.04.1-.1s-.04-.1-.1-.1H57c-.04 0-.16-.02-.3-.06a.84.84 0 0 1-.36-.19c-.02-.02-.04-.03-.07-.03s-.05.01-.07.03-.03.04-.03.07.01.05.03.07a1.07 1.07 0 0 0 .5.25c.15.06.26.07.3.07zm-.63.4a.1.1 0 0 0 .1-.1c0-.03-.01-.05-.02-.07-.02-.02-.04-.03-.07-.03h-.02c-.04 0-.14-.01-.26-.05-.08-.02-.22-.07-.32-.17-.02-.02-.04-.03-.07-.03s-.05.01-.07.03c-.04.04-.04.1 0 .14.1.1.26.18.46.23a1.41 1.41 0 0 0 .27.04v-.02h0zm-.65.4c.06 0 .1-.04.1-.1s-.04-.1-.1-.1h-.01c-.03 0-.12-.01-.23-.04-.12-.04-.22-.1-.3-.15-.02-.02-.04-.03-.07-.03s-.05.01-.07.03-.03.04-.03.07.01.05.03.07c.1.1.24.17.42.2a.98.98 0 0 0 .23.04zM54.5 62c.1.1.22.15.38.2.1.03.2.03.22.04.03 0 .06-.01.08-.03s.03-.04.03-.07-.01-.05-.02-.07c-.02-.02-.04-.03-.07-.03h-.01a.82.82 0 0 1-.2-.04c-.06-.02-.18-.06-.25-.13-.04-.04-.1-.04-.14 0-.02.02-.03.04-.03.07-.02.03-.01.05.01.07zm15.3-25.2a.85.85 0 0 0 .25-.17c.2-.18.3-.42.3-.7 0-.08-.01-.16-.03-.24-.05-.2-.13-.36-.25-.46a.58.58 0 0 0-.37-.15h0a.71.71 0 0 0-.48.2c-.14.13-.22.3-.22.45a.54.54 0 0 0 .19.39c.02.02.04.03.07.03.04 0 .06-.02.08-.04s.03-.05.02-.07c0-.03-.01-.05-.03-.07-.08-.07-.12-.15-.12-.24 0-.1.06-.2.15-.3a.47.47 0 0 1 .34-.14h0a.31.31 0 0 1 .24.1c.08.08.15.2.2.36.02.06.02.13.02.2a.73.73 0 0 1-.24.54.79.79 0 0 1-.54.22c-.23 0-.44-.1-.62-.3-.2-.24-.35-.6-.4-1.07-.12-.9-.12-2.47-.13-4.14l-.01-1.24-.1-2.97c-.07-1-.17-1.65-.32-2.05-.01-.01-.01-.02-.02-.03a5.08 5.08 0 0 0-.77-1.48c-.76-1-1.82-1.55-2.98-1.55H64c-.82 0-1.52.2-2 .6-.44.34-.7.82-.7 1.3a1.37 1.37 0 0 0 .53 1.08.98.98 0 0 0 .64.24h0c.34 0 .66-.2.82-.5a.54.54 0 0 0 .06-.27c0-.16-.04-.32-.12-.44-.1-.15-.25-.24-.43-.24-.1 0-.2.03-.32.08-.02.01-.04.03-.05.06a.11.11 0 0 0 0 .08c.01.02.03.04.06.05a.11.11 0 0 0 .08 0c.1-.04.17-.06.24-.06.1 0 .2.05.26.14.06.08.1.2.1.32 0 .07-.01.13-.03.17-.12.23-.37.38-.64.38h0a.77.77 0 0 1-.51-.19c-.3-.24-.45-.56-.45-.92 0-.42.22-.83.6-1.14.32-.25.9-.55 1.9-.56h.02c1.4 0 2.32.8 2.82 1.47a4.9 4.9 0 0 1 .98 2.87c0 .24-.02.47-.07.68-.3 1.34-1.4 2.04-2.37 2.04h0c-.64 0-1.15-.3-1.43-.83-.16-.3-.25-.62-.25-.9a1.4 1.4 0 0 1 .47-1.04c.27-.24.64-.38.98-.38.28 0 .5.1.68.26.16.17.25.36.25.58 0 .2-.1.42-.24.6-.2.2-.48.3-.74.23-.05-.01-.1.02-.12.07-.01.02 0 .05.01.08.01.02.04.04.06.05.07.02.15.03.23.03.26 0 .5-.12.7-.32a1.04 1.04 0 0 0 .3-.73c0-.26-.1-.5-.3-.72s-.5-.32-.82-.32h0a1.67 1.67 0 0 0-1.1.43c-.35.3-.54.73-.54 1.2 0 .32.1.66.27 1 .3.6.9.94 1.6.94 1 0 2.18-.7 2.54-2.07l.08 4v.28l.13 3.83c.07.5.22.9.47 1.18.1.1.22.2.34.26-.13.06-.24.15-.34.26-.24.27-.4.67-.47 1.18-.12.9-.12 2.48-.13 4.15l-.01 1.26-.07 2.7c-.36-1.36-1.53-2.08-2.54-2.08-.7 0-1.3.34-1.6.94-.18.34-.27.68-.27 1 0 .46.2.88.54 1.2a1.71 1.71 0 0 0 1.1.43c.33 0 .62-.1.82-.32s.3-.46.3-.72a1.04 1.04 0 0 0-.3-.73c-.2-.2-.45-.32-.7-.32-.08 0-.16.01-.23.03-.05.01-.1.07-.07.12.02.06.07.1.12.07.06-.01.12-.02.18-.02.2 0 .4.1.56.25a.83.83 0 0 1 .24.6c0 .22-.08.4-.25.57s-.4.26-.68.26c-.34 0-.7-.14-.98-.38-.2-.2-.47-.52-.47-1.04 0-.3.08-.6.25-.9.28-.53.8-.83 1.43-.83h0c.96 0 2.08.7 2.37 2.04a2.9 2.9 0 0 1 .07.68c0 .98-.37 2.05-.98 2.87-.5.67-1.4 1.47-2.82 1.47h-.02c-.98-.01-1.57-.3-1.9-.56-.4-.3-.6-.72-.6-1.14a1.16 1.16 0 0 1 .45-.92.79.79 0 0 1 .51-.19c.27 0 .52.15.64.38a.43.43 0 0 1 .03.17.49.49 0 0 1-.1.32.29.29 0 0 1-.26.14c-.07 0-.15-.02-.24-.06-.05-.02-.1 0-.13.05s0 .1.05.13c.1.05.22.08.32.08a.52.52 0 0 0 .43-.24c.08-.12.12-.28.12-.44 0-.1-.02-.2-.06-.27a.92.92 0 0 0-.82-.5.98.98 0 0 0-.64.24 1.37 1.37 0 0 0-.53 1.08c0 .48.25.95.68 1.3.5.4 1.2.6 2 .6H64c1.17 0 2.23-.55 2.98-1.55a5.08 5.08 0 0 0 .77-1.48c.01-.01.01-.02.02-.03.15-.4.26-1.06.32-2.06l.1-4.24V42l.13-3.8c.06-.47.2-.84.4-1.07a.82.82 0 0 1 .62-.3h0a.79.79 0 0 1 .54.22c.15.14.24.33.24.54 0 .06-.01.12-.02.2-.04.16-.1.28-.2.36-.07.06-.15.1-.24.1-.12 0-.24-.05-.34-.14s-.15-.2-.15-.3.04-.17.12-.24c.02-.02.03-.04.03-.07s-.01-.06-.02-.07c-.02-.02-.04-.03-.07-.04-.03 0-.05.01-.07.02a.54.54 0 0 0-.19.39c0 .16.08.32.22.45.14.12.3.2.48.2h0c.14 0 .27-.05.37-.15a.89.89 0 0 0 .25-.46c.02-.08.03-.16.03-.24a.97.97 0 0 0-.3-.69c-.07.01-.16-.05-.25-.1z"/><path d="M63.98 50.95a2.78 2.78 0 0 1-1.4-.37 1.49 1.49 0 0 1-.43-.39.85.85 0 0 1-.16-.45c0-.03-.01-.05-.03-.07s-.04-.03-.07-.03-.05.01-.07.03-.03.04-.03.07c0 .2.07.38.2.56.17.25.46.46.8.6.36.16.77.24 1.2.24 1.02 0 1.95-.5 2.55-1.36.55-.8.83-1.6.83-2.38 0-1.17-.64-1.95-1.2-2.27-.02-.01-.05-.02-.08-.01s-.05.02-.06.05c-.01.02-.02.05-.01.08.01.02.02.05.05.06.5.3 1.1 1 1.08 2.1 0 .73-.27 1.5-.8 2.26-.75 1.1-1.8 1.28-2.37 1.28zm2.97-6.45c.23.06.43.25.53.36.07.07.13.14.16.2.02.02.03.05.04.06l.01.02c.02.03.05.04.08.04.02 0 .04-.01.06-.02.05-.03.06-.1.03-.14-.02-.02-.1-.15-.24-.3-.2-.2-.4-.35-.62-.4-.02-.01-.05 0-.08.01-.02.01-.04.04-.05.06-.01.06.02.12.08.13z"/><path d="M67.08 43.6c-.02-.01-.05-.01-.08.01-.02.01-.04.03-.05.06s0 .05.01.08c.01.02.03.04.06.05a1.17 1.17 0 0 1 .49.33c.07.07.12.14.15.18.02.02.03.04.04.06v.02c.02.02.04.04.06.04h.02c.02 0 .04-.01.06-.02.05-.03.06-.1.03-.14-.02-.02-.1-.14-.23-.28-.18-.2-.38-.34-.57-.4z"/><path d="M67.9 43.5c-.02-.02-.1-.14-.22-.26-.18-.2-.36-.3-.54-.36-.03-.01-.05-.01-.08.01-.02.01-.04.03-.05.06-.02.05.02.1.07.13.2.05.37.2.45.3l.14.17c.01.02.03.04.04.05l.01.02c.02.02.04.04.07.04.04 0 .06-.01.08-.02s.04-.04.04-.06c.01-.04.01-.06-.01-.1zm.04-.76c-.01-.01-.08-.12-.2-.24-.17-.18-.34-.3-.5-.34-.02-.01-.05-.01-.08.01-.02.01-.04.03-.05.06s0 .05.01.08c.01.02.03.04.06.05.18.05.34.2.42.28.06.06.1.12.13.15.02.02.03.04.03.05l.01.02c.02.03.05.04.1.04.02 0 .04-.01.06-.02s.04-.04.04-.06c.01-.03 0-.06-.01-.08zm.02-.76c-.01-.01-.07-.1-.18-.22-.16-.16-.3-.26-.47-.3-.02-.01-.05 0-.08.01-.02.01-.04.04-.05.06-.01.03 0 .05.01.08.01.02.03.04.06.05.16.05.3.18.38.26l.12.14c.01.02.02.03.03.04h.01c.02.03.05.05.08.05.02 0 .04-.01.06-.02.02-.02.04-.04.04-.07.01-.03 0-.06-.01-.08zm.02-.76c-.02-.02-.08-.1-.17-.2a1.09 1.09 0 0 0-.43-.29c-.05-.02-.1.02-.12.07-.01.02 0 .05.01.08.01.02.03.04.06.05.14.04.28.16.34.23.05.05.08.1.1.13.01.02.02.03.03.04v.01c.02.03.05.04.1.04.02 0 .04-.01.06-.02.03-.02.04-.08.01-.13h0zm.02-.76h0l-.15-.2a.89.89 0 0 0-.39-.26c-.03-.01-.05 0-.08.01-.02.01-.04.04-.05.06s0 .05.01.08c.01.02.04.04.06.05a.75.75 0 0 1 .3.21l.14.14c.02.02.04.04.06.04.04 0 .06-.01.08-.02.02-.02.04-.04.04-.07 0-.01 0-.03-.02-.06zm.03-.76c-.01-.02-.06-.1-.14-.17-.12-.12-.23-.2-.36-.24-.02-.01-.05 0-.08.01-.02.01-.04.03-.05.06-.01.02 0 .05.01.08.01.02.03.04.06.05.08.02.18.1.27.18.03.03.06.06.08.1l.03.04c.01.02.04.04.06.04h.02c.02 0 .04-.01.06-.02.06-.01.07-.08.04-.13zm1.05-.65a.1.1 0 0 0-.1.1l-.01.27-.3 8.5c-.07 1.1-.44 2.35-1 3.34-.48.86-1.08 1.52-1.8 1.97a4.38 4.38 0 0 0-.11-.82c-.01-.03-.02-.05-.04-.06s-.05-.02-.08-.01-.05.02-.06.04-.02.05-.01.08a3.94 3.94 0 0 1 .1.9c-.26.15-.54.27-.82.36-.03.01-.05.02-.06.05-.01.02-.02.05-.01.08.02.05.07.08.13.07.26-.08.5-.2.76-.32-.04.96-.4 1.98-1.05 2.93-.56.84-1.34 1.62-2.14 2.14L58 61.52l-2.68 1.66-.23.14c-.02.01-.04.04-.05.06-.01.03 0 .05.01.08a.11.11 0 0 0 .1.05c.02 0 .04 0 .05-.01l7.42-4.65c.8-.54 1.6-1.34 2.2-2.2.7-1.03 1.07-2.12 1.1-3.16.78-.47 1.44-1.18 1.96-2.1a8.1 8.1 0 0 0 1.01-3.43l.3-8.8c.03-.06-.02-.1-.08-.1zm-3-10.78c-.02.01-.04.04-.05.06-.01.03 0 .05.01.08.01.02.04.04.06.05h.03c.02 0 .03 0 .05-.01.55-.32 1.2-1.1 1.2-2.27 0-.77-.28-1.57-.83-2.38-.6-.87-1.52-1.36-2.54-1.36-.56 0-1.1.14-1.5.4-.2.13-.37.28-.5.45-.13.18-.2.37-.2.56 0 .06.04.1.1.1a.1.1 0 0 0 .1-.1c0-.15.06-.3.16-.45.15-.22.4-.4.72-.54a2.88 2.88 0 0 1 1.1-.22 2.84 2.84 0 0 1 2.38 1.27c.53.77.8 1.53.8 2.26 0 1.08-.6 1.8-1.1 2.1zm1.77.17c-.05-.03-.1-.02-.14.03v.01c-.01.01-.1.15-.24.3-.12.12-.3.27-.5.33-.03.01-.05.02-.06.05-.01.02-.02.05-.01.08.01.04.05.07.1.07h.03c.2-.06.4-.2.62-.4.15-.15.24-.3.25-.3.01-.06 0-.12-.05-.15z"/><path d="M67.8 29.18c-.03.01-.05.02-.06.04v.01c-.01.01-.1.14-.23.27-.1.1-.28.25-.47.3-.03.01-.05.02-.06.05-.01.02-.02.05-.01.08s.02.05.05.06a.09.09 0 0 0 .05.01c.01 0 .02 0 .03-.01.2-.06.4-.2.58-.4.13-.14.2-.26.23-.28.03-.05.02-.1-.03-.14-.03-.01-.06-.01-.08-.01z"/><path d="M67.8 29.94c-.03.01-.05.02-.06.04V30c0 .01-.08.12-.2.25-.08.08-.25.23-.43.28-.05.02-.1.07-.07.13.01.03.02.05.05.06a.09.09 0 0 0 .05.01h.03c.18-.05.36-.17.54-.36a1.23 1.23 0 0 0 .21-.26c.03-.05.02-.1-.03-.14-.03-.02-.06-.03-.08-.02z"/><path d="M67.83 30.7c-.03.01-.05.02-.07.05a1.62 1.62 0 0 1-.19.23c-.08.08-.23.2-.4.26-.03.01-.05.02-.06.05-.01.02-.02.05-.01.08.01.02.02.05.05.06.02.01.03.01.05.01h.03c.17-.05.34-.16.5-.34.13-.13.2-.24.2-.24.03-.05.02-.1-.03-.14-.02-.03-.05-.03-.08-.02zm.1.77c-.05-.03-.1-.02-.14.03-.01.02-.08.1-.18.2-.07.07-.2.2-.36.24-.03.01-.05.02-.06.05-.01.02-.02.05-.01.08.01.02.02.05.05.06a.09.09 0 0 0 .05.01h.03c.16-.05.3-.15.47-.3.1-.1.18-.2.18-.22.03-.06.02-.12-.03-.15h0zm-.05.73c-.03.01-.05.02-.06.04h0c-.01.02-.07.1-.16.2a.89.89 0 0 1-.32.21c-.05.01-.08.07-.07.12.01.03.02.05.05.06a.09.09 0 0 0 .05.01h.03a.85.85 0 0 0 .43-.3c.1-.1.15-.18.17-.2.03-.05.02-.1-.03-.14-.04.01-.07 0-.1.01zm-.05.82l-.14.17c-.06.06-.17.16-.3.2-.05.01-.08.07-.07.12.01.04.05.07.1.07h.03a.89.89 0 0 0 .39-.26.84.84 0 0 0 .15-.19c.02-.02.02-.05.02-.08S68 33 67.97 33c-.05-.03-.1-.01-.15.04zm.1.7c-.03.01-.05.02-.07.05-.01.01-.05.08-.13.15-.05.05-.15.14-.25.17-.03.01-.05.02-.06.05-.01.02-.02.05-.01.08s.02.05.05.06a.09.09 0 0 0 .05.01c.01 0 .02 0 .03-.01.12-.03.24-.1.36-.23.1-.1.14-.17.14-.17.03-.05.02-.1-.03-.14-.03-.02-.05-.03-.08-.02zm-6.82-12c-.14 0-.27-.03-.37-.1-.02-.01-.05-.02-.08-.01s-.05.02-.06.05c-.01.02-.02.05-.01.08s.02.05.05.06a.94.94 0 0 0 .47.12c.5 0 1.05-.3 1.5-.83.5-.57.76-1.3.76-2.03 0-.46-.1-.92-.32-1.37-.98-2.08-2.44-2.3-3.03-2.3-.42 0-.82.1-1.14.3-.02.01-.04.04-.05.06-.01.03 0 .05.01.08.03.05.1.07.14.04.3-.17.66-.26 1.04-.26.68 0 1.95.3 2.85 2.2a2.96 2.96 0 0 1 .3 1.28 2.88 2.88 0 0 1-.71 1.89c-.4.46-.93.75-1.35.75zm-2.58-7.1c0 .03.01.05.03.07s.05.03.07.03c.03 0 .05-.01.07-.03.17-.16.43-.25.57-.28l.25-.05c.03-.01.06-.01.07-.01h.02a.1.1 0 0 0 .1-.1c0-.05-.05-.1-.1-.1-.04 0-.2.01-.4.06-.3.07-.5.2-.66.34-.02.03-.03.05-.03.08zm-3.18-4.23l7.18 4.5c.8.53 1.57 1.3 2.14 2.14.65.96 1 1.97 1.05 2.93-.25-.13-.5-.24-.76-.32-.05-.02-.1.01-.13.07-.02.05.01.1.07.13.28.1.56.2.82.36 0 .3-.04.6-.1.9-.01.03 0 .05.01.08.01.02.04.04.06.04.05.01.1-.02.12-.08a5.4 5.4 0 0 0 .11-.82c.7.45 1.3 1.1 1.8 1.97a8.55 8.55 0 0 1 1 3.34l.2 5.35.07 2.42.02.6v.13.27a.1.1 0 0 0 .2 0l-.3-8.8c-.07-1.15-.44-2.4-1-3.43-.52-.93-1.18-1.64-1.96-2.1-.02-1.04-.4-2.13-1.1-3.17-.58-.86-1.38-1.66-2.2-2.2l-7.42-4.65c-.02-.01-.05-.02-.08-.01s-.05.02-.06.05c-.01.02-.02.05-.01.08s.02.05.05.06l.2.16z"/><path d="M52.37 9.1c-.26 0-.55-.07-.87-.2-.82-.34-2.18-1.12-3.62-1.95l-1.08-.62-2.6-1.4c-.9-.44-1.5-.68-1.93-.75h-.04a5.35 5.35 0 0 0-1.05-.11c-.7 0-1.36.15-1.93.43-.65.32-1.16.8-1.52 1.45-.34.6-.5 1.18-.5 1.72 0 .5.15.95.43 1.27a1.36 1.36 0 0 0 1.03.48h0a1.42 1.42 0 0 0 .53-.1.97.97 0 0 0 .65-.91c0-.17-.05-.34-.14-.48-.05-.08-.13-.15-.25-.2a.73.73 0 0 0-.35-.09c-.1 0-.24.02-.36.13-.1.1-.17.25-.2.44-.01.06.04.1.1.1.06 0 .1-.04.1-.1.01-.14.06-.25.13-.3a.33.33 0 0 1 .22-.08c.08 0 .18.02.26.06.07.04.14.1.17.13a.61.61 0 0 1 .1.37c0 .32-.2.6-.52.72-.15.06-.3.1-.45.1-.34 0-.65-.15-.88-.4-.25-.3-.38-.68-.38-1.14 0-.5.17-1.06.48-1.62.34-.6.83-1.07 1.43-1.37.54-.27 1.17-.4 1.84-.4 1.1 0 2.25.4 2.92 1 .56.5.87 1.2.87 1.93 0 .53-.16 1.02-.46 1.4a1.48 1.48 0 0 1-1.2.59h-.07c-.53-.02-.94-.2-1.23-.5a1.42 1.42 0 0 1-.37-.98c0-.28.07-.56.2-.77.14-.22.33-.37.55-.43a.97.97 0 0 1 .23-.03c.23 0 .43.1.6.26.14.16.22.37.22.6 0 .2-.07.38-.2.52-.02.02-.03.04-.03.07s.01.05.03.07c.04.04.1.04.14 0a.94.94 0 0 0 .27-.66c0-.26-.1-.52-.27-.72a.98.98 0 0 0-.73-.33c-.1 0-.2.01-.28.04-.27.07-.5.25-.67.52a1.76 1.76 0 0 0-.24.88 1.61 1.61 0 0 0 .42 1.11c.32.34.8.54 1.37.56h.08a1.7 1.7 0 0 0 1.35-.67c.32-.4.5-.94.5-1.52 0-.75-.3-1.45-.84-2l3.46 1.92.26.15 3.36 1.8c.34.14.66.22.95.22.27 0 .5-.07.7-.2v.07c0 .32.15.82.84 1.35.72.56 2.07 1.35 3.5 2.2l1.1.64 2.3 1.4c-.25-.07-.5-.1-.76-.1-.67 0-1.32.24-1.8.68-.48.43-.75 1-.75 1.55 0 .32.1.63.27.92.38.6.9.95 1.5.95.4 0 .8-.16 1.13-.45.3-.28.5-.65.5-1 0-.1-.01-.2-.04-.27-.07-.24-.2-.44-.4-.57-.17-.12-.37-.18-.6-.18s-.43.06-.6.18c-.2.13-.32.3-.38.52-.01.05.02.1.07.12.03.01.05 0 .08-.01.02-.01.04-.04.05-.06.04-.17.15-.3.3-.4.14-.1.3-.15.5-.15a.84.84 0 0 1 .47.14c.15.1.26.26.3.47a.78.78 0 0 1 .03.22c0 .3-.16.6-.42.85a1.51 1.51 0 0 1-.99.39h0c-.36 0-.9-.15-1.33-.85-.16-.25-.24-.52-.24-.8 0-.5.25-1 .68-1.4.46-.4 1.05-.63 1.68-.63a2.6 2.6 0 0 1 .82.13c.68.22 1.42.77 1.97 1.5.6.8.94 1.7.94 2.58 0 .6-.16 1.18-.47 1.72-.78 1.35-1.7 1.5-2.06 1.5h0c-.3 0-.6-.1-.8-.28-.22-.2-.36-.44-.4-.75.01-.03.01-.08.01-.13a.77.77 0 0 1 .22-.56c.13-.13.3-.2.5-.2h.03c.06 0 .18.05.28.14s.16.2.16.3c0 .12-.07.22-.2.33-.04.03-.06.1-.02.14.03.05.1.06.14.02.2-.14.3-.3.3-.5 0-.16-.08-.32-.22-.45-.13-.12-.28-.2-.4-.2h-.04c-.23 0-.46.1-.63.27a.99.99 0 0 0-.29.7c0 .06 0 .12.01.18a1.33 1.33 0 0 0 .48.87c.26.2.58.32.93.32.83 0 1.64-.58 2.23-1.6a3.59 3.59 0 0 0 .5-1.82c0-.9-.35-1.87-.98-2.7l-.23-.28c0-.01-.01-.02-.02-.03-.27-.34-.78-.75-1.6-1.3l-3.6-2.2-.25-.15-3.2-2.02c-.63-.5-.76-.92-.76-1.2a.8.8 0 0 1 .24-.57.79.79 0 0 1 .54-.22h0a.71.71 0 0 1 .51.21c.15.14.22.3.22.42 0 .14-.1.24-.16.3-.1.08-.23.12-.34.12a.37.37 0 0 1-.21-.06c-.06-.05-.1-.1-.12-.2-.01-.03-.02-.05-.04-.07-.02-.01-.05-.02-.08-.01-.03 0-.05.02-.07.04s-.02.05-.02.08c.03.14.1.26.2.33.1.07.2.1.33.1.17 0 .34-.06.47-.17.15-.12.23-.3.23-.46 0-.2-.1-.4-.3-.57a.95.95 0 0 0-.65-.27h0c-.2 0-.4.06-.56.18 0-.03.01-.05.01-.08 0-.2-.06-.4-.17-.56-.12-.17-.3-.3-.5-.36-.1-.03-.2-.05-.3-.05-.2 0-.36.07-.47.2-.1.1-.15.27-.15.43s.05.32.14.44c.1.14.24.2.4.2a.63.63 0 0 0 .19-.03c.05-.02.08-.08.06-.13-.01-.03-.03-.05-.05-.06s-.05-.01-.08-.01c-.15.05-.28.01-.37-.1-.06-.08-.1-.2-.1-.32a.47.47 0 0 1 .1-.3c.07-.1.18-.13.32-.13a.81.81 0 0 1 .25.04c.17.05.3.14.4.28.1.13.14.28.14.44a.82.82 0 0 1-.22.56c-.16.23-.4.32-.7.32z"/><path d="M40.7 4.93l.46-.02c1.28 0 2.03.47 2.43.86.45.44.72 1.03.72 1.58a.1.1 0 0 0 .2 0c0-.6-.3-1.25-.78-1.73-.43-.42-1.22-.92-2.57-.92h0l-.48.02a3.06 3.06 0 0 0-2.15 1.1c-.44.54-.7 1.24-.7 1.88 0 .26.04.5.13.7a1.01 1.01 0 0 0 .4.48c.02.01.03.02.05.02.05-.01.07-.02.08-.05.03-.05.01-.1-.03-.14-.14-.08-.24-.2-.32-.38a1.62 1.62 0 0 1-.11-.61c0-.6.25-1.25.66-1.75a2.84 2.84 0 0 1 2.02-1.03zm4.75 2.15c.01.02.04.04.06.05h.02c.05 0 .1-.03.1-.08a1.09 1.09 0 0 0 .03-.26c0-.37-.16-.74-.2-.84h0c-.02-.05-.1-.07-.14-.05s-.07.1-.05.14l.01.02a1.93 1.93 0 0 1 .18.74 1.25 1.25 0 0 1-.02.21c0 .02 0 .05.02.07z"/><path d="M46.1 7.37c.01.02.04.04.06.05h.02c.05 0 .1-.03.1-.08.02-.08.03-.16.03-.25a1.9 1.9 0 0 0-.2-.79h0c-.02-.05-.1-.07-.14-.05-.02.01-.04.03-.05.06s-.01.05.01.08h.01a1.78 1.78 0 0 1 .17.7 1.23 1.23 0 0 1-.02.2c-.01.03 0 .06.01.08zm.72.33h.02c.05 0 .1-.03.1-.08.02-.07.03-.15.03-.23 0-.32-.13-.62-.18-.74v-.01c-.01-.02-.03-.04-.06-.05-.02-.01-.05-.01-.08.01-.05.03-.07.1-.05.14v.01c.02.03.16.34.16.64 0 .06-.01.12-.02.18-.02.06.01.12.07.13zm.58.26c.01.02.04.04.06.05h.02c.02 0 .04-.01.05-.02.02-.01.04-.04.05-.06.02-.07.02-.14.02-.22 0-.3-.13-.6-.17-.7h0a.12.12 0 0 0-.05-.05c-.03-.01-.05-.01-.08.01-.02.01-.04.03-.05.06-.01.02-.01.05 0 .07h.01a1.54 1.54 0 0 1 .14.59.88.88 0 0 1-.02.17c0 .02 0 .05.02.08z"/><path d="M48.06 8.25c.01.02.04.04.06.05h.02c.02 0 .04-.01.05-.01.02-.01.04-.04.05-.06.02-.06.02-.13.02-.2a1.53 1.53 0 0 0-.16-.63h0c-.03-.05-.1-.07-.14-.04s-.07.1-.05.14h.01a1.35 1.35 0 0 1 .13.53.68.68 0 0 1-.02.15c.01.02.01.04.03.07zm.7.33c.07 0 .1-.03.12-.08a1.1 1.1 0 0 0 .02-.18c0-.25-.1-.5-.14-.58-.01-.02-.03-.04-.06-.05-.02-.01-.05-.01-.08.01-.05.02-.07.1-.05.14v.01c.01.01.12.26.12.48a.59.59 0 0 1-.02.14.1.1 0 0 0 .1.1z"/><path d="M49.36 8.83c.01.02.04.04.06.05.07 0 .1-.03.12-.08a.88.88 0 0 0 .02-.17c0-.23-.1-.44-.13-.53h0c-.01-.02-.03-.04-.06-.05-.02-.01-.05-.01-.08.01-.02.01-.04.03-.05.06-.01.02-.01.05 0 .07h0s.1.22.1.43c0 .04 0 .08-.01.12 0 .03.01.06.02.08zm.64.3c.01.02.04.04.06.04h.02c.02 0 .04-.01.05-.01.02-.01.04-.04.05-.06.01-.05.02-.1.02-.15a1.14 1.14 0 0 0-.12-.48h0c-.01-.02-.03-.04-.06-.05s-.05-.01-.08.01c-.05.03-.07.1-.05.14v.01a.98.98 0 0 1 .1.38c0 .04 0 .07-.01.1.02.02.02.05.03.07zM35.92 8.7c-.02.01-.04.04-.05.06-.01.03 0 .05.01.08a.11.11 0 0 0 .1.05c.02 0 .04-.01.05-.02a1.01 1.01 0 0 0 .4-.48 1.86 1.86 0 0 0 .13-.7c0-.64-.26-1.34-.7-1.88-.37-.45-1.05-1-2.15-1.1h-.47c-1.35 0-2.14.5-2.57.92-.5.48-.78 1.12-.78 1.73a.1.1 0 0 0 .2 0c0-.55.27-1.14.72-1.58.4-.4 1.15-.86 2.43-.86l.46.02a2.87 2.87 0 0 1 2.01 1.03c.4.5.66 1.16.66 1.75a1.62 1.62 0 0 1-.11.61.87.87 0 0 1-.32.38zm-6.86-2.6c.01-.02.02-.04.02-.05l.01-.02c.02-.05 0-.1-.05-.14-.05-.02-.1 0-.14.05h0c-.05.1-.2.46-.2.84a1.03 1.03 0 0 0 .03.26c.01.05.05.08.1.08.08-.01.12-.06.1-.12s-.02-.14-.02-.2a1.87 1.87 0 0 1 .09-.52l.07-.17z"/><path d="M28.4 6.45c.01-.02.01-.03.02-.04h.01c.02-.05 0-.1-.05-.14s-.1 0-.14.05v.01a1.96 1.96 0 0 0-.19.79c0 .1.01.17.03.25.01.05.05.08.1.08.07-.01.1-.07.1-.12-.01-.06-.02-.12-.02-.2 0-.18.05-.36.1-.48.02-.08.04-.13.06-.2z"/><path d="M27.74 6.8c.01-.02.01-.03.02-.04l.01-.01c.02-.05.01-.1-.04-.14-.05-.02-.1 0-.14.05v.01c-.05.1-.18.42-.18.74 0 .08.01.16.03.23.01.05.05.08.1.08.07-.01.1-.07.1-.12a.99.99 0 0 1-.02-.18 1.45 1.45 0 0 1 .08-.45c.01-.1.03-.14.05-.17zm-.66.36l.02-.05c.02-.05 0-.1-.05-.14-.05-.02-.1 0-.13.05-.04.1-.17.4-.17.7 0 .08.01.15.02.22.01.05.05.08.1.08.07-.01.1-.07.1-.12-.01-.05-.02-.1-.02-.17 0-.15.04-.3.07-.4l.07-.15zm-.78.17c-.02.01-.05.03-.06.05-.05.1-.15.37-.16.64a1.23 1.23 0 0 0 .02.2c.01.03.02.05.05.06a.09.09 0 0 0 .05.01c.07-.01.1-.07.1-.12v-.15c0-.14.04-.28.07-.37l.05-.13c.01-.01.01-.03.02-.03l.01-.01c.02-.05 0-.1-.05-.14-.03-.02-.06-.02-.1-.01z"/><path d="M25.75 7.87l.02-.04c.02-.05 0-.1-.05-.14-.02-.01-.05-.01-.08-.01-.03.01-.05.03-.06.05v.01c-.04.1-.14.33-.14.58 0 .07.01.13.02.2.01.04.05.08.1.08.07-.01.1-.07.1-.12a.59.59 0 0 1-.02-.14c0-.12.03-.25.06-.34.04-.06.06-.1.06-.12z"/><path d="M25.1 8.23V8.2c.01-.02.01-.05.01-.08-.01-.02-.03-.05-.05-.06-.05-.02-.1 0-.14.05a1.3 1.3 0 0 0-.13.53.88.88 0 0 0 .02.17c.01.02.02.05.05.06a.09.09 0 0 0 .05.01c.05-.01.07-.02.08-.05.01-.02.02-.05.01-.08-.01-.02-.01-.06-.01-.1 0-.12.03-.24.06-.3l.03-.1zm-.67.35l.02-.03c.02-.05 0-.1-.05-.14-.05-.02-.1 0-.14.05-.03.08-.12.28-.12.48 0 .06.01.1.02.15.01.02.02.05.05.06a.09.09 0 0 0 .05.01c.05-.01.07-.02.08-.05.01-.02.02-.05.01-.08s-.01-.07-.01-.1c0-.1.03-.2.05-.27.02-.02.03-.05.04-.08zM23.3 7.9l.24-.13 7.47-4c1-.5 2.3-.8 3.44-.8h0c.95 0 1.8.2 2.52.57a4.14 4.14 0 0 0-.65.5c-.04.04-.04.1-.01.14.02.02.04.03.07.03s.05-.01.07-.03a4.83 4.83 0 0 1 .72-.54 4.83 4.83 0 0 1 .72.54c.02.02.05.03.07.03.03 0 .05-.01.07-.03.04-.04.04-.1-.01-.14-.2-.18-.42-.35-.65-.5.72-.38 1.57-.57 2.52-.57a8.08 8.08 0 0 1 3.44.8l4.7 2.5 2.1 1.15.65.36.24.13c.05.02.1.01.14-.04s.01-.1-.04-.14l-7.7-4.14c-1.05-.53-2.34-.83-3.54-.83-1.03 0-1.95.22-2.72.66-.77-.44-1.7-.66-2.72-.66a8.08 8.08 0 0 0-3.54.83l-7.7 4.14c-.05.03-.07.1-.04.14a.11.11 0 0 0 .1.05c.02 0 .03-.01.05-.01zM22 64.5c.26 0 .55.07.87.2.82.34 2.18 1.12 3.62 1.95l1.08.62 2.6 1.4c.9.44 1.5.68 1.93.75h.04a5.35 5.35 0 0 0 1.05.11c.7 0 1.37-.15 1.93-.43.65-.32 1.16-.8 1.52-1.45.33-.6.5-1.18.5-1.72 0-.5-.15-.95-.43-1.27a1.37 1.37 0 0 0-1.03-.49c-.18 0-.35.04-.53.1a.97.97 0 0 0-.65.91c0 .17.05.34.14.48a.57.57 0 0 0 .25.2.73.73 0 0 0 .35.09c.1 0 .24-.02.36-.13.1-.1.17-.25.2-.44a.09.09 0 0 0-.09-.11c-.03 0-.05.01-.07.02-.02.02-.03.04-.04.07-.01.14-.06.25-.13.3a.33.33 0 0 1-.22.08c-.08 0-.18-.02-.26-.06a.92.92 0 0 1-.17-.13c-.07-.1-.1-.24-.1-.37 0-.32.2-.6.52-.72a1.22 1.22 0 0 1 .45-.1c.34 0 .65.15.88.4.25.3.38.68.38 1.14 0 .5-.17 1.06-.48 1.62a3.43 3.43 0 0 1-1.43 1.37c-.54.27-1.17.4-1.84.4-1.1 0-2.25-.4-2.92-1a2.64 2.64 0 0 1-.87-1.94c0-.53.16-1.02.46-1.4a1.48 1.48 0 0 1 1.2-.59h.07c.53.02.94.2 1.22.5.24.26.37.6.37.97 0 .28-.07.56-.2.77a.92.92 0 0 1-.55.43.8.8 0 0 1-.82-.24.89.89 0 0 1-.22-.58.75.75 0 0 1 .2-.52c.04-.04.04-.1 0-.14s-.1-.04-.14 0a.94.94 0 0 0-.27.66c0 .26.1.52.27.72a.96.96 0 0 0 .74.34h0c.1 0 .2-.01.28-.04.27-.07.5-.25.67-.52a1.76 1.76 0 0 0 .24-.88c0-.42-.15-.82-.42-1.1-.32-.34-.8-.54-1.37-.56h-.07c-.53 0-1 .24-1.36.67-.32.4-.5.94-.5 1.52 0 .75.3 1.45.84 2l-3.47-1.93-.24-.14-3.36-1.8c-.34-.14-.66-.22-.95-.22h0a1.25 1.25 0 0 0-.7.2v-.07c0-.32-.15-.82-.84-1.35-.72-.56-2.07-1.34-3.5-2.18l-1.1-.64-2.3-1.4c.25.07.5.1.76.1.67 0 1.32-.24 1.8-.68.48-.42.75-1 .75-1.55 0-.32-.1-.63-.27-.92-.38-.6-.92-.95-1.5-.95-.4 0-.8.16-1.13.45-.3.28-.5.65-.5 1 0 .1.01.2.04.27.07.24.2.44.4.57.17.12.37.18.6.18a1.09 1.09 0 0 0 .6-.18c.2-.13.32-.3.38-.52.01-.02 0-.05-.01-.08-.01-.02-.04-.04-.06-.05-.03-.01-.05 0-.08.01-.02.01-.04.03-.05.06-.04.17-.15.3-.3.4-.14.1-.3.15-.5.15-.17 0-.34-.05-.47-.15a.71.71 0 0 1-.3-.46.78.78 0 0 1-.03-.22c0-.3.16-.6.42-.85.28-.25.64-.4 1-.4h0c.36 0 .9.15 1.33.86.16.25.24.52.24.8 0 .5-.25 1-.68 1.4-.46.4-1.05.63-1.68.63a2.6 2.6 0 0 1-.82-.13c-.68-.22-1.42-.77-1.97-1.5-.6-.8-.94-1.7-.94-2.58 0-.6.16-1.18.47-1.72.78-1.35 1.7-1.5 2.05-1.5.3 0 .6.1.8.28.22.2.36.44.4.75.01.05.01.1.01.15a.77.77 0 0 1-.22.56c-.13.13-.3.2-.5.2h-.03c-.06 0-.18-.05-.28-.14s-.16-.2-.16-.3c0-.12.07-.23.2-.33.05-.03.06-.1.02-.14-.02-.02-.04-.04-.07-.04-.03-.01-.05 0-.08.02-.2.14-.3.3-.3.5 0 .16.08.32.22.45.13.12.28.2.4.2h.04c.23 0 .46-.1.63-.27a.99.99 0 0 0 .29-.7c0-.06 0-.12-.01-.18a1.33 1.33 0 0 0-.48-.87c-.26-.2-.58-.32-.94-.32-.83 0-1.64.58-2.23 1.6a3.59 3.59 0 0 0-.5 1.82c0 .9.35 1.87.98 2.7l.23.28c0 .01.01.02.02.03.27.34.78.75 1.6 1.3l3.6 2.2.27.16 3.2 2.02c.63.5.76.92.76 1.2a.8.8 0 0 1-.24.57.79.79 0 0 1-.54.22h0a.71.71 0 0 1-.51-.21c-.15-.14-.22-.3-.22-.42a.38.38 0 0 1 .16-.3c.1-.08.23-.12.34-.12.08 0 .15.02.2.06a.31.31 0 0 1 .12.2c.01.03.02.05.04.07.02.01.05.02.08.01.06-.01.1-.06.08-.12a.55.55 0 0 0-.19-.33c-.1-.07-.2-.1-.33-.1-.17 0-.34.06-.47.17-.15.12-.23.3-.23.46 0 .2.1.4.3.57a.95.95 0 0 0 .65.27h0c.2 0 .4-.06.56-.18 0 .02-.01.05-.01.08a1 1 0 0 0 .17.56c.12.18.3.3.5.36.1.03.2.05.3.05.2 0 .36-.07.47-.2.1-.1.15-.27.15-.43s-.05-.32-.14-.44c-.1-.14-.24-.2-.4-.2a.63.63 0 0 0-.19.03c-.02.01-.05.03-.06.05s-.01.05 0 .08.03.05.05.06.05.01.08.01c.04-.02.1-.02.13-.02.1 0 .17.04.24.13.06.08.1.2.1.32s-.03.22-.1.3c-.07.1-.18.13-.32.13a.81.81 0 0 1-.25-.04.72.72 0 0 1-.4-.28.8.8 0 0 1-.14-.45.82.82 0 0 1 .22-.56c.16-.24.4-.33.7-.33z"/><path d="M33.67 68.66l-.46.02c-1.28 0-2.03-.47-2.43-.87-.45-.44-.72-1.03-.72-1.58a.1.1 0 0 0-.1-.1c-.06 0-.1.04-.1.1 0 .6.3 1.25.78 1.73.43.42 1.22.92 2.57.92l.47-.02c1.1-.1 1.78-.65 2.15-1.1.44-.54.7-1.24.7-1.88 0-.26-.04-.5-.13-.7a1.01 1.01 0 0 0-.4-.48c-.02-.01-.05-.02-.08-.01s-.05.02-.06.05c-.01.02-.02.05-.01.08s.02.05.05.06c.14.08.24.2.32.4a1.62 1.62 0 0 1 .11.61c0 .6-.25 1.25-.66 1.75a2.9 2.9 0 0 1-2 1.02zm-4.82-2.2h0c-.05-.01-.1.02-.12.07a1.09 1.09 0 0 0-.03.26c0 .38.16.74.2.84v.01c.01.02.03.04.06.05.01 0 .02.01.03.01.02 0 .03 0 .05-.01s.04-.03.05-.06.01-.05-.01-.08l-.01-.02a2.01 2.01 0 0 1-.18-.74 1.25 1.25 0 0 1 .02-.21c.02-.05-.02-.1-.07-.12z"/><path d="M28.2 66.17h0c-.05-.01-.1.02-.12.07a.95.95 0 0 0-.03.25c0 .34.14.66.2.8h0a.1.1 0 0 0 .1.06c.02 0 .03 0 .05-.01.05-.02.07-.1.05-.14h-.01a1.84 1.84 0 0 1-.17-.7 1.23 1.23 0 0 1 .02-.2c.02-.06-.02-.12-.07-.13zm-.65-.3h0c-.05-.01-.1.02-.12.07-.02.07-.03.15-.03.23 0 .32.13.62.18.74v.01c.01.02.03.04.06.05.01 0 .02.01.03.01.02 0 .03 0 .05-.01.05-.02.07-.1.04-.14l-.01-.01a1.59 1.59 0 0 1-.16-.64c0-.07.01-.13.02-.18.02-.06-.01-.12-.06-.13z"/><path d="M26.9 65.6c-.05-.02-.1.02-.12.07-.02.07-.02.14-.02.22 0 .3.13.6.17.7h0c.01.02.03.04.06.05.01 0 .02.01.03.01.02 0 .03 0 .04-.01.05-.02.07-.1.05-.14v-.01a1.54 1.54 0 0 1-.14-.59.88.88 0 0 1 .02-.17c.01-.05-.02-.1-.08-.12z"/><path d="M26.24 65.3c-.03-.01-.05 0-.08.01s-.04.04-.05.06c-.02.06-.02.13-.02.2a1.35 1.35 0 0 0 .16.63h0c.01.02.03.04.06.05.01 0 .02.01.03.01.02 0 .03 0 .05-.01.05-.02.07-.1.05-.14h-.01s-.13-.28-.13-.54c0-.06.01-.1.02-.15s-.02-.1-.08-.1zm-.6-.25c-.01-.02-.04-.04-.06-.05-.03-.01-.05 0-.08.01-.02.01-.04.04-.05.06-.01.06-.02.12-.02.18 0 .25.1.5.14.58v.01c.01.02.03.04.06.05.01 0 .02.01.03.01.02 0 .03 0 .05-.01s.04-.03.05-.06.01-.05-.01-.08l-.01-.01c0-.01-.12-.25-.12-.48 0-.05 0-.1.01-.13.03-.03.03-.06.01-.08zm-.7-.35c-.06-.01-.1.02-.12.07a.88.88 0 0 0-.02.17 1.3 1.3 0 0 0 .13.53h0a.1.1 0 0 0 .1.06c.02 0 .03 0 .04-.01.02-.01.04-.03.05-.06s.01-.06-.01-.08v-.01s-.1-.22-.1-.43c0-.04 0-.08.01-.12.02-.05-.01-.1-.06-.12zm-.64-.28c-.03-.01-.05 0-.08.01-.02.01-.04.04-.05.06-.01.05-.02.1-.02.15 0 .2.08.4.12.47v.01c.01.02.03.04.06.05.01.01.02.01.03.01.02 0 .03 0 .05-.01.05-.02.07-.1.04-.14v-.01s-.1-.2-.1-.38c0-.04 0-.07.01-.1.01-.05-.02-.1-.07-.12zm14.15.46c.05-.03.06-.1.03-.14-.01-.02-.04-.04-.06-.05-.03-.01-.05 0-.08.01a1.01 1.01 0 0 0-.4.48 1.86 1.86 0 0 0-.13.7c0 .64.27 1.34.7 1.88.37.46 1.05 1 2.15 1.1l.47.02c1.35 0 2.14-.5 2.57-.92.5-.48.78-1.12.78-1.73a.1.1 0 0 0-.1-.1c-.06 0-.1.04-.1.1 0 .55-.27 1.14-.72 1.58-.4.4-1.15.87-2.43.87-.15 0-.3-.01-.46-.02a2.83 2.83 0 0 1-2.01-1.03c-.42-.5-.66-1.16-.66-1.75a1.62 1.62 0 0 1 .11-.61c.08-.16.2-.3.33-.38zm6.85 2.62c-.01.02-.02.04-.02.05l-.01.02c-.02.05 0 .1.05.14.01.01.03.01.05.01.01 0 .02 0 .03-.01.03-.01.05-.03.06-.05v-.01c.05-.1.2-.47.2-.84a1.09 1.09 0 0 0-.03-.26c-.01-.06-.07-.1-.12-.07-.05.01-.1.07-.07.12a.68.68 0 0 1 .02.2 1.87 1.87 0 0 1-.09.52c-.04.07-.06.13-.08.17z"/><path d="M45.96 67.13c-.01.02-.02.03-.02.04l-.01.01c-.01.02-.01.05-.01.08.01.03.03.05.05.06.01.01.03.01.05.01.04 0 .07-.02.1-.06a2.01 2.01 0 0 0 .2-.8.95.95 0 0 0-.03-.25c-.01-.06-.07-.1-.12-.07-.03.01-.05.02-.06.05-.01.02-.02.05-.01.08a1.23 1.23 0 0 1 .02.2c0 .18-.05.36-.1.48a.43.43 0 0 1-.05.17zm.66-.35l-.02.06c-.01.02-.01.05-.01.08.01.03.03.05.05.06.01.01.03.01.05.01.01 0 .02 0 .03-.01.03-.01.05-.03.06-.05v-.01c.05-.1.18-.42.18-.74 0-.08-.01-.16-.03-.23h0c-.01-.06-.07-.1-.12-.07s-.1.07-.07.12a1.1 1.1 0 0 1 .02.18c0 .18-.05.36-.08.45-.02.05-.03.1-.06.15zm.73-.16c.04 0 .07-.02.1-.06v-.01c.04-.08.17-.38.17-.7 0-.08-.01-.15-.02-.22h0c-.01-.05-.07-.1-.12-.07-.05.01-.1.07-.07.12a.88.88 0 0 1 .02.17c0 .15-.04.3-.07.4l-.05.14c-.01.02-.01.03-.02.04l-.01.01c-.02.05 0 .1.05.14 0 .02.02.02.03.02z"/><path d="M47.95 66.07c-.01.01-.01.03-.02.03h-.01c-.02.05 0 .1.05.14.01.01.03.01.05.01.01 0 .02 0 .03-.01.03-.01.05-.03.06-.05h0a1.71 1.71 0 0 0 .16-.63 1.23 1.23 0 0 0-.02-.2c-.01-.02-.02-.05-.05-.06-.02-.01-.05-.02-.08-.01s-.05.02-.06.05c-.01.02-.02.05-.01.08a.77.77 0 0 1 .02.15c0 .14-.04.28-.07.37l-.05.12z"/><path d="M48.6 65.72v.04c-.01.02-.01.05-.01.08.01.02.03.05.05.06.01.01.03.01.04.01s.02 0 .03-.01c.03-.01.05-.03.06-.05.04-.1.14-.34.14-.6a.99.99 0 0 0-.02-.18c-.01-.05-.07-.1-.12-.07-.05.01-.1.07-.07.12a.69.69 0 0 1 .02.13 1.09 1.09 0 0 1-.06.34c-.01.04-.03.08-.04.12zm.67-.36l-.02.04c-.01.02-.01.05-.01.08.01.02.03.05.05.06.01.01.03.01.04.01s.02 0 .03-.01c.03-.01.05-.03.06-.05.04-.1.13-.3.13-.54a.88.88 0 0 0-.02-.17c-.01-.03-.02-.05-.05-.06-.02-.01-.05-.02-.08-.01-.05.01-.1.07-.07.12.01.04.01.08.01.12 0 .12-.03.24-.06.3.01.05 0 .1-.01.1zm.66-.36l-.01.03c-.01.02-.01.05-.01.08.01.03.03.05.05.06.01.01.03.01.04.01.04 0 .07-.02.1-.06v-.01a1.75 1.75 0 0 0 .12-.47c0-.06-.01-.1-.02-.15s-.07-.1-.12-.07c-.03.01-.05.02-.06.05-.01.01-.01.04-.01.07a.34.34 0 0 1 .01.1.93.93 0 0 1-.05.27l-.03.1zm.87.8l-7.47 4c-1 .5-2.3.8-3.44.8-.95 0-1.8-.2-2.52-.57a4.14 4.14 0 0 0 .65-.5c.04-.04.04-.1.01-.14-.04-.04-.1-.04-.14-.01a4.83 4.83 0 0 1-.72.54 4.83 4.83 0 0 1-.72-.54c-.04-.04-.1-.04-.14.01-.04.04-.04.1.01.14a4.14 4.14 0 0 0 .65.5c-.72.38-1.57.57-2.52.57a8.08 8.08 0 0 1-3.44-.8l-4.7-2.5-2.12-1.15-.88-.5c-.05-.03-.1-.01-.14.04-.01.02-.02.05-.01.08s.02.05.05.06l7.7 4.14c1.05.53 2.34.83 3.54.83 1.03 0 1.95-.22 2.72-.66.77.44 1.7.66 2.72.66a8.08 8.08 0 0 0 3.54-.83l7.7-4.14c.05-.03.07-.1.04-.14s-.1-.07-.14-.04l-.24.13zM20.08 9.66a.61.61 0 0 0 .33-.1c.1-.07.17-.2.2-.33.01-.03 0-.06-.02-.08-.01-.02-.04-.04-.06-.04-.03-.01-.05 0-.08.01-.02.01-.04.04-.04.06-.02.1-.06.16-.12.2-.05.04-.12.06-.2.06h0c-.12 0-.25-.05-.34-.12-.1-.08-.16-.2-.16-.3 0-.14.07-.28.22-.42a.71.71 0 0 1 .51-.21.79.79 0 0 1 .54.22c.16.15.24.35.24.57 0 .27-.13.7-.76 1.2-.7.54-2.06 1.34-3.5 2.18l-1.07.63-2.52 1.56c-.82.56-1.34.97-1.6 1.3-.01.01-.01.02-.02.03l-.23.28c-.63.83-.98 1.8-.98 2.7a3.59 3.59 0 0 0 .5 1.82c.6 1 1.4 1.6 2.23 1.6.36 0 .68-.1.94-.32a1.38 1.38 0 0 0 .48-.87c.01-.06.01-.12.01-.18a.95.95 0 0 0-.29-.7.91.91 0 0 0-.64-.27h-.04c-.13.01-.28.08-.4.2-.14.13-.22.3-.22.45 0 .18.1.36.3.5.02.02.05.02.08.02s.05-.02.07-.04c.03-.04.02-.1-.02-.14-.14-.1-.2-.2-.2-.33 0-.1.06-.2.16-.3s.2-.14.28-.14h.03a.79.79 0 0 1 .5.2.77.77 0 0 1 .22.56c0 .05 0 .1-.01.15a1.34 1.34 0 0 1-.4.75c-.22.18-.5.28-.8.28-.75 0-1.5-.54-2.05-1.5-.3-.54-.47-1.1-.47-1.72 0-.87.33-1.78.94-2.58.55-.72 1.28-1.27 1.97-1.5a2.6 2.6 0 0 1 .82-.13 2.52 2.52 0 0 1 1.68.63c.44.4.7.9.68 1.4 0 .3-.08.56-.24.8-.44.7-.97.85-1.33.85a1.51 1.51 0 0 1-.99-.39c-.27-.24-.43-.56-.42-.85 0-.07.01-.15.03-.22a.87.87 0 0 1 .31-.47.84.84 0 0 1 .47-.14h0a.86.86 0 0 1 .49.15.67.67 0 0 1 .29.41c.01.03.02.05.05.06.02.01.05.02.08.01.05-.01.1-.07.07-.12a.97.97 0 0 0-.37-.52c-.17-.12-.4-.18-.6-.18a1.06 1.06 0 0 0-.6.18c-.2.13-.32.33-.4.57a1.26 1.26 0 0 0-.04.27c0 .35.18.72.5 1s.73.45 1.13.45c.58 0 1.12-.34 1.5-.95a1.7 1.7 0 0 0 .27-.92c0-.56-.27-1.12-.75-1.55-.5-.44-1.14-.68-1.8-.68a2.89 2.89 0 0 0-.76.1l3.64-2.2 3.23-2.03c.7-.55.84-1.05.84-1.37V9.1a1.25 1.25 0 0 0 .7.2h0c.28 0 .6-.07.95-.22.84-.35 2.2-1.13 3.62-1.95l1.1-.63 2.36-1.3c-.54.54-.84 1.25-.84 2 0 .58.18 1.12.5 1.52.34.43.82.67 1.36.67h.07c.58-.02 1.05-.2 1.37-.56.27-.3.42-.7.42-1.12 0-.32-.08-.63-.24-.88-.16-.27-.4-.45-.67-.52a1.35 1.35 0 0 0-.28-.04.97.97 0 0 0-.74.33c-.17.2-.27.46-.27.72s.1.5.27.66c.04.04.1.04.14 0s.04-.1 0-.14a.7.7 0 0 1-.2-.52c0-.22.08-.42.22-.6a.78.78 0 0 1 .6-.26.97.97 0 0 1 .23.03.92.92 0 0 1 .55.43 1.53 1.53 0 0 1 .21.77c0 .37-.13.72-.37.98-.28.3-.7.47-1.22.5h-.07a1.51 1.51 0 0 1-1.2-.59c-.3-.37-.46-.86-.46-1.4 0-.73.3-1.42.87-1.93.67-.62 1.8-1 2.92-1 .67 0 1.3.14 1.84.4a3.26 3.26 0 0 1 1.43 1.37c.32.56.48 1.12.48 1.62 0 .45-.14.85-.38 1.14-.23.27-.54.4-.88.4a1.05 1.05 0 0 1-.45-.1c-.33-.13-.52-.4-.52-.72 0-.14.04-.26.1-.37a.4.4 0 0 1 .17-.13c.08-.04.18-.06.26-.06.1 0 .17.03.22.08.07.06.1.17.13.3.01.05.05.1.1.1.07-.01.1-.06.1-.1-.02-.2-.08-.34-.2-.44a.57.57 0 0 0-.36-.13h0a.73.73 0 0 0-.35.09c-.1.06-.2.13-.25.2-.1.14-.14.3-.14.48a.97.97 0 0 0 .65.91c.17.07.35.1.53.1h0c.4 0 .76-.17 1.03-.48.28-.32.43-.77.43-1.27 0-.55-.17-1.13-.5-1.72-.36-.64-.87-1.13-1.52-1.45-.56-.28-1.23-.43-1.93-.43-.35 0-.7.04-1.04.1h-.04c-.43.07-1.04.3-1.93.75L26.5 6.97l-.3.14-3.34 1.8c-.3.13-.6.2-.86.2-.3 0-.54-.1-.7-.26-.14-.15-.22-.34-.22-.56 0-.16.05-.32.14-.44.1-.14.23-.24.4-.28a.81.81 0 0 1 .25-.04c.14 0 .24.04.32.13a.47.47 0 0 1 .1.3.53.53 0 0 1-.1.32c-.1.12-.2.16-.37.1-.05-.02-.1.01-.13.06s.01.1.06.13a.68.68 0 0 0 .19.03c.16 0 .3-.08.4-.2s.13-.27.14-.44c0-.17-.05-.32-.15-.43-.1-.13-.27-.2-.47-.2-.1 0-.2.02-.3.05-.2.06-.4.2-.5.36a1 1 0 0 0-.17.56c0 .03 0 .06.01.08-.17-.1-.36-.18-.56-.18h0a.91.91 0 0 0-.65.27c-.2.18-.3.38-.3.57 0 .18.08.34.23.46.12.1.3.17.46.17z"/><path d="M14.36 15.62c.38 0 .75.1 1.04.26.05.03.1.01.14-.04.01-.02.02-.05.01-.08s-.02-.05-.05-.06c-.32-.2-.73-.3-1.14-.3-.6 0-2.05.23-3.03 2.3a3.16 3.16 0 0 0-.32 1.37c0 .74.27 1.45.76 2.03.45.52 1 .83 1.5.83a.94.94 0 0 0 .47-.12c.02-.01.04-.03.05-.06s0-.05-.01-.08c-.03-.05-.1-.07-.14-.04a.75.75 0 0 1-.37.09c-.42 0-.94-.3-1.34-.76a2.9 2.9 0 0 1-.71-1.89 2.96 2.96 0 0 1 .3-1.28c.88-1.9 2.16-2.18 2.84-2.18zm.4-1.46c-.06 0-.1.04-.1.1s.04.1.1.1h.02c.06.01.22.02.4.07.15.04.36.12.5.26.02.02.05.03.07.03s.05-.01.07-.03.03-.04.03-.07-.01-.05-.03-.07c-.15-.15-.38-.26-.66-.34a1.76 1.76 0 0 0-.37-.06zm1.55.14c.03 0 .05-.01.07-.03.04-.04.04-.1 0-.14-.14-.14-.35-.25-.62-.3a1.62 1.62 0 0 0-.36-.06c-.03 0-.05.01-.07.03s-.03.04-.03.07.01.05.02.07c.02.02.04.03.07.03.06 0 .2.02.4.07.14.04.33.1.46.24.02.02.04.03.07.03zm.5-.44c.02.02.05.03.07.03.03 0 .05-.01.07-.03s.03-.04.03-.07-.01-.05-.03-.07c-.14-.13-.33-.23-.58-.3-.17-.04-.3-.05-.33-.06a.1.1 0 0 0-.1.1c0 .06.04.1.1.1h.02c.07.01.2.02.34.07.13.02.3.1.43.2z"/><path d="M16.68 12.96a.1.1 0 0 0-.1.1c0 .06.04.1.1.1h.02c.05.01.17.02.3.06.12.03.28.1.4.2.02.02.04.03.07.03s.05-.01.07-.03.03-.04.03-.07-.01-.05-.03-.07c-.13-.12-.3-.2-.54-.27-.15-.05-.28-.06-.3-.07v.02-.02zm.65-.4c-.03 0-.05.01-.07.02-.02.02-.03.04-.03.07s.01.05.03.07.04.03.07.03h.02c.04 0 .16.02.3.06a.84.84 0 0 1 .36.19c.02.02.05.03.07.03.03 0 .05-.01.07-.03s.03-.04.03-.07-.01-.05-.03-.07a1.07 1.07 0 0 0-.5-.25c-.17-.04-.3-.05-.3-.05v.02-.02zm.64-.4c-.03 0-.05.01-.07.03s-.03.04-.03.07.01.05.02.07c.02.02.04.03.07.03h.02c.03 0 .14.01.26.05.08.02.22.07.32.17.02.02.05.03.07.03.03 0 .05-.01.07-.03.04-.04.04-.1 0-.14-.1-.1-.26-.18-.46-.23-.14-.04-.24-.05-.27-.05v.02-.02zm.63-.2h0c.03 0 .12.01.23.04.12.04.22.1.3.15.02.02.04.03.07.03s.05-.01.07-.03c.04-.04.04-.1 0-.14-.1-.1-.24-.17-.42-.2-.12-.03-.2-.04-.24-.04s-.06.01-.08.03-.03.04-.03.07.01.05.02.07c.02.02.04.03.07.03h.02z"/><path d="M19.88 11.67c0-.03-.01-.05-.03-.07-.1-.1-.22-.15-.38-.2-.1-.03-.2-.03-.22-.04-.03 0-.05.01-.07.03s-.03.04-.03.07.01.05.02.07c.02.02.04.03.07.03h.01a.82.82 0 0 1 .2.04c.06.02.18.06.25.13.02.02.05.03.07.03s.05-.01.07-.03c.03-.02.04-.04.04-.07zm-9.5 10.97c.5 0 1.02.14 1.4.38a1.49 1.49 0 0 1 .43.39.85.85 0 0 1 .16.45c0 .03.01.05.03.07s.04.03.07.03.05-.01.07-.03.03-.05.03-.07c0-.2-.07-.38-.2-.56-.17-.25-.46-.46-.8-.6-.36-.16-.77-.24-1.2-.24-1.02 0-1.95.5-2.55 1.36-.55.8-.83 1.6-.83 2.37 0 1.17.64 1.95 1.2 2.27a.09.09 0 0 0 .05.01h.03c.03-.01.05-.02.06-.05.01-.02.02-.05.01-.08s-.02-.05-.05-.06c-.5-.3-1.08-1-1.08-2.1 0-.73.27-1.5.8-2.26.75-1.1 1.8-1.28 2.37-1.28zm-2.9 6.5c-.01-.02-.03-.04-.06-.05-.22-.06-.43-.25-.53-.36a1.46 1.46 0 0 1-.16-.19c-.02-.02-.03-.05-.04-.06l-.01-.02c-.03-.05-.1-.06-.14-.03s-.06.1-.03.14c.01.01.1.15.25.3.2.2.4.35.62.4.01 0 .02.01.03.01.02 0 .03-.01.05-.01.02-.01.04-.04.05-.06-.01-.02-.01-.05-.03-.08z"/><path d="M7.28 30c.01 0 .02.01.03.01.02 0 .03-.01.05-.01.02-.01.04-.03.05-.06s0-.05-.01-.08c-.01-.02-.03-.04-.06-.05a1.17 1.17 0 0 1-.49-.33l-.15-.18c-.02-.02-.03-.04-.04-.06l-.01-.02c-.02-.02-.04-.04-.06-.04-.03-.01-.05 0-.08.01-.02.02-.04.04-.04.07-.01.02 0 .05.01.07 0 0 .08.13.23.28.2.2.38.34.57.4z"/><path d="M6.45 30.1c.01.01.1.13.22.26.18.2.36.3.54.36h.03c.02 0 .03 0 .05-.01s.04-.03.05-.06c.02-.05-.02-.1-.07-.13-.2-.05-.37-.2-.45-.3l-.14-.17c-.03 0-.04-.02-.05-.03l-.01-.02c-.02-.02-.04-.04-.06-.04s-.05 0-.08.02c-.02.01-.04.04-.04.06s-.01.05.01.07z"/><path d="M6.42 30.85c.01.01.08.12.2.24.17.18.34.3.5.34h.03c.02 0 .03 0 .05-.01s.04-.04.05-.06c.01-.03 0-.05-.01-.08-.01-.02-.03-.04-.06-.05-.18-.05-.34-.2-.42-.28a1.35 1.35 0 0 1-.13-.15c-.02-.02-.03-.04-.03-.05v-.02c-.02-.02-.04-.04-.07-.04-.03-.01-.05 0-.08.01-.02.02-.04.04-.04.06-.01.04 0 .07.01.1zm-.02.75c.01.01.07.1.18.22.16.17.32.27.47.32h.03c.02 0 .03 0 .05-.01s.04-.04.05-.06c.01-.03 0-.05-.01-.08-.01-.02-.03-.04-.06-.05-.16-.05-.3-.18-.38-.26a1.74 1.74 0 0 1-.12-.14c-.01-.02-.02-.03-.03-.04h-.01c-.03-.05-.1-.06-.14-.03s-.06.1-.03.14h0zm-.02.77c.02.03.08.1.17.2a1.09 1.09 0 0 0 .43.29H7c.04 0 .08-.03.1-.07.01-.02 0-.05-.01-.08-.01-.02-.03-.04-.06-.05-.14-.04-.28-.16-.34-.23l-.1-.12c-.01-.02-.02-.03-.03-.04l-.01-.01c-.02-.02-.04-.04-.06-.04-.03-.01-.05 0-.08.02-.02.01-.04.04-.04.06-.01.01-.01.03.01.06zm-.02.75c.01.01.06.1.15.2a.89.89 0 0 0 .39.26h.03c.04 0 .08-.03.1-.07.02-.05-.02-.1-.07-.12a.64.64 0 0 1-.3-.21l-.1-.1c-.01-.01-.02-.02-.02-.03l-.01-.01c-.03-.05-.1-.06-.14-.03-.03.01-.04.03-.05.06 0 .02 0 .05.02.07z"/><path d="M6.33 33.88c.01.01.06.08.14.17.12.12.24.2.36.23.01 0 .02.01.03.01.02 0 .03-.01.05-.01.02-.01.04-.03.05-.06.02-.05-.02-.1-.07-.13-.1-.02-.18-.1-.27-.18-.04-.04-.07-.07-.08-.1l-.04-.04c-.02-.02-.04-.04-.07-.04-.03-.01-.05 0-.08.02-.02.01-.04.04-.04.06s.01.05.02.07zm-1.05.66c.03 0 .05-.01.07-.03s.03-.04.03-.07l.01-.27.3-8.5c.07-1.1.43-2.35 1-3.34.48-.86 1.08-1.52 1.8-1.97a4.38 4.38 0 0 0 .11.82c.01.06.07.1.12.08.03-.01.05-.02.06-.04s.02-.05.01-.08a3.94 3.94 0 0 1-.1-.9c.26-.15.54-.27.82-.36.03-.01.05-.02.06-.05.01-.02.02-.05.01-.08-.02-.05-.07-.1-.13-.07-.26.08-.5.2-.76.32.04-.96.4-1.98 1.05-2.93.56-.84 1.34-1.62 2.14-2.14l4.5-2.85 2.68-1.66.23-.14c.02-.01.04-.04.05-.06s0-.05-.01-.08c-.01-.02-.04-.04-.06-.05-.03-.01-.05 0-.07.01l-.03.02-7.4 4.63c-.8.54-1.6 1.34-2.2 2.2-.7 1.03-1.07 2.12-1.1 3.17-.78.47-1.44 1.18-1.96 2.1a8.1 8.1 0 0 0-1.01 3.43l-.3 8.8c-.03.04.01.1.07.1z"/><path d="M54.28 63.93a.61.61 0 0 0-.33.1c-.1.07-.17.2-.2.33-.01.03 0 .06.02.08s.04.04.07.04c.03.01.05 0 .08-.01.02-.02.04-.04.04-.07.02-.1.06-.16.12-.2.05-.04.12-.06.2-.06.12 0 .25.05.34.12.1.08.16.2.16.3 0 .14-.07.28-.22.42a.71.71 0 0 1-.51.21.79.79 0 0 1-.54-.22c-.16-.15-.24-.35-.24-.57 0-.27.13-.7.76-1.2.7-.54 2.06-1.34 3.5-2.18l1.07-.63 2.52-1.56c.82-.56 1.34-.97 1.6-1.3.01-.01.01-.02.02-.03l.23-.28c.63-.83.98-1.8.98-2.7a3.59 3.59 0 0 0-.5-1.82c-.6-1.02-1.4-1.6-2.23-1.6-.36 0-.68.1-.94.32a1.38 1.38 0 0 0-.48.87c-.01.06-.01.12-.01.18a.95.95 0 0 0 .29.7.91.91 0 0 0 .64.27h.04c.13-.01.28-.08.4-.2.14-.13.22-.3.22-.45 0-.18-.1-.36-.3-.5-.05-.03-.1-.02-.14.02-.02.02-.02.05-.02.07 0 .03.02.05.04.07.14.1.2.2.2.33 0 .1-.06.2-.16.3s-.2.14-.28.14h0-.03a.74.74 0 0 1-.5-.2.77.77 0 0 1-.22-.56c0-.05 0-.1.01-.14a1.34 1.34 0 0 1 .4-.75c.22-.18.5-.28.8-.28.76 0 1.5.54 2.06 1.5.3.54.47 1.1.47 1.72 0 .87-.33 1.78-.94 2.58-.55.72-1.28 1.27-1.97 1.5a2.6 2.6 0 0 1-.82.13 2.52 2.52 0 0 1-1.68-.63c-.44-.4-.7-.9-.68-1.4 0-.3.08-.56.24-.8.44-.7.97-.85 1.33-.86a1.47 1.47 0 0 1 .99.4c.27.24.42.56.42.85 0 .07-.01.15-.03.22-.06.2-.16.36-.3.46-.13.1-.3.15-.47.15a.89.89 0 0 1-.5-.15.67.67 0 0 1-.29-.41c-.01-.03-.02-.05-.05-.06-.02-.01-.05-.02-.08-.01s-.05.02-.06.05c-.01.02-.02.05-.01.08.06.2.2.4.38.52.17.12.4.18.6.18a1.06 1.06 0 0 0 .6-.18c.2-.13.32-.33.4-.57.03-.1.04-.18.04-.27 0-.35-.18-.72-.5-1s-.72-.45-1.13-.45c-.58 0-1.12.34-1.5.95a1.7 1.7 0 0 0-.27.92c0 .56.27 1.12.75 1.55a2.73 2.73 0 0 0 1.81.68 2.89 2.89 0 0 0 .76-.1l-3.4 2.06-.25.14-3.24 2.03c-.7.54-.84 1.03-.84 1.35v.07a1.25 1.25 0 0 0-.7-.2c-.28 0-.6.07-.95.22-.84.35-2.2 1.13-3.63 1.96l-1.1.63-2.36 1.3a2.8 2.8 0 0 0 .84-2c0-.57-.18-1.1-.5-1.52a1.7 1.7 0 0 0-1.35-.67h-.07c-.58.02-1.05.22-1.37.56a1.66 1.66 0 0 0-.42 1.1c0 .32.08.63.24.88.17.27.4.45.67.52a1.35 1.35 0 0 0 .28.04.96.96 0 0 0 .74-.34c.17-.2.27-.46.27-.72s-.1-.5-.27-.66c-.04-.04-.1-.04-.14 0s-.04.1 0 .14a.7.7 0 0 1 .2.52.89.89 0 0 1-.22.58c-.2.23-.5.32-.82.24a.92.92 0 0 1-.55-.43c-.14-.22-.2-.5-.2-.77 0-.37.13-.72.37-.97.28-.3.7-.47 1.23-.5h.07c.47 0 .9.2 1.2.6.3.37.46.86.46 1.4 0 .74-.3 1.42-.87 1.94-.67.62-1.8 1-2.92 1-.67 0-1.3-.14-1.84-.4a3.26 3.26 0 0 1-1.43-1.37c-.32-.56-.48-1.12-.48-1.62 0-.46.13-.85.38-1.14a1.15 1.15 0 0 1 .88-.41 1.05 1.05 0 0 1 .45.1c.32.13.52.4.52.72 0 .14-.04.26-.1.37a.4.4 0 0 1-.17.13c-.08.04-.18.06-.26.06-.1 0-.17-.03-.22-.08-.07-.07-.1-.17-.13-.3 0-.03-.02-.05-.04-.07s-.05-.03-.07-.02c-.06.01-.1.06-.1.1.02.2.08.34.2.44a.57.57 0 0 0 .36.13.73.73 0 0 0 .35-.09c.1-.06.2-.13.25-.2.1-.14.14-.3.14-.48a.97.97 0 0 0-.65-.91c-.17-.07-.35-.1-.53-.1h0a1.3 1.3 0 0 0-1.03.5c-.28.32-.43.77-.43 1.27 0 .54.18 1.13.5 1.72.36.64.87 1.13 1.52 1.45.56.28 1.23.43 1.93.43a5.35 5.35 0 0 0 1.05-.11h.04c.43-.07 1.04-.3 1.93-.75l3.96-2.2 3.34-1.8c.32-.13.6-.2.87-.2.3 0 .54.1.7.26.14.15.22.34.22.56a.8.8 0 0 1-.14.45.72.72 0 0 1-.4.28.81.81 0 0 1-.25.04c-.14 0-.24-.04-.32-.13a.47.47 0 0 1-.1-.3.53.53 0 0 1 .1-.32c.1-.12.22-.16.37-.1.03.01.05.01.08-.01.02-.01.04-.03.05-.06.01-.02.01-.05-.01-.08-.01-.02-.03-.04-.06-.05a.68.68 0 0 0-.19-.03c-.16 0-.3.08-.4.2s-.14.27-.14.44.05.32.15.43c.1.13.27.2.47.2a.82.82 0 0 0 .3-.05c.2-.06.4-.2.5-.36a1 1 0 0 0 .17-.56c0-.03 0-.05-.01-.08.17.1.36.18.56.18h0a.91.91 0 0 0 .65-.27c.2-.18.3-.38.3-.57 0-.18-.08-.34-.23-.46-.18-.07-.35-.13-.52-.13zM5.16 37.46c-.02-.02-.04-.03-.07-.03-.04 0-.06.01-.08.04-.04.04-.03.1.01.14.08.07.12.15.12.24 0 .1-.06.2-.15.3a.47.47 0 0 1-.34.14.31.31 0 0 1-.24-.1c-.08-.08-.15-.2-.2-.36-.02-.06-.02-.13-.02-.2a.74.74 0 0 1 .23-.54.79.79 0 0 1 .54-.22h0c.23 0 .44.1.62.3.2.24.35.6.42 1.07.12.88.12 2.46.13 4.13l.01 1.25.1 2.97c.07 1 .17 1.65.32 2.06 0 .01.01.02.02.03a5.08 5.08 0 0 0 .77 1.48c.76 1 1.82 1.55 3 1.55h.02c.82 0 1.52-.2 2-.6.44-.34.7-.82.7-1.3a1.37 1.37 0 0 0-.53-1.08.98.98 0 0 0-.64-.24h0c-.34 0-.66.2-.82.5a.58.58 0 0 0-.07.28c0 .16.04.32.12.44.1.15.25.24.43.24.1 0 .2-.03.32-.08.05-.02.07-.08.05-.13s-.08-.07-.13-.05c-.1.04-.17.06-.24.06a.29.29 0 0 1-.26-.14c-.06-.08-.1-.2-.1-.32 0-.07.01-.13.03-.17.12-.23.37-.38.64-.38h0a.77.77 0 0 1 .51.19c.3.24.45.56.45.92 0 .42-.22.83-.6 1.14-.32.25-.9.55-1.9.56h-.02c-1.42 0-2.32-.8-2.82-1.47-.62-.8-1-1.9-.98-2.87 0-.24.02-.47.07-.68.3-1.34 1.4-2.04 2.37-2.04h0c.64 0 1.15.3 1.43.83.16.3.25.62.25.9a1.4 1.4 0 0 1-.47 1.04c-.27.24-.64.38-.98.38-.28 0-.5-.1-.68-.26-.16-.17-.25-.36-.25-.57s.1-.42.24-.6c.15-.16.36-.25.56-.25a1.1 1.1 0 0 1 .18.02c.03.01.05 0 .08-.01.02-.01.04-.04.05-.06s0-.05-.01-.08c-.01-.02-.03-.04-.06-.05a.91.91 0 0 0-.23-.03.96.96 0 0 0-.7.32c-.18.2-.3.47-.3.73s.1.5.3.72.5.32.82.32a1.67 1.67 0 0 0 1.1-.43c.35-.3.54-.73.54-1.2 0-.32-.1-.66-.27-1-.3-.6-.9-.94-1.6-.94-1 0-2.18.7-2.54 2.07l-.08-4v-.27l-.13-3.83c-.07-.5-.22-.9-.47-1.18-.1-.1-.22-.2-.34-.26.13-.06.24-.15.34-.26.24-.27.4-.67.47-1.18.12-.9.12-2.48.13-4.14l.01-1.27.07-2.7c.36 1.36 1.53 2.08 2.54 2.08.7 0 1.3-.34 1.6-.94.18-.34.27-.68.27-1 0-.46-.2-.88-.54-1.2a1.71 1.71 0 0 0-1.1-.43c-.33 0-.62.12-.82.32s-.3.46-.3.72a1.04 1.04 0 0 0 .3.73c.2.2.45.32.7.32.08 0 .16-.01.23-.03.05-.01.1-.07.07-.12-.01-.03-.02-.05-.05-.06-.02-.01-.05-.02-.07-.01-.26.07-.54-.02-.74-.23a.89.89 0 0 1-.24-.6c0-.22.08-.4.25-.58.16-.17.4-.26.68-.26.34 0 .7.14.98.38a1.33 1.33 0 0 1 .47 1.04c0 .3-.08.6-.25.9-.28.53-.8.83-1.43.83h0c-.96 0-2.08-.7-2.37-2.04a2.9 2.9 0 0 1-.07-.68c0-.98.37-2.05.98-2.87.5-.67 1.4-1.47 2.82-1.47h.02c.98 0 1.57.3 1.9.56.4.3.6.72.6 1.14a1.16 1.16 0 0 1-.45.92.79.79 0 0 1-.51.19h0c-.27 0-.52-.15-.64-.38a.43.43 0 0 1-.03-.17.49.49 0 0 1 .1-.32.29.29 0 0 1 .26-.14c.07 0 .15.02.24.06.05.02.1 0 .13-.05s0-.1-.05-.14c-.1-.05-.22-.08-.32-.08a.52.52 0 0 0-.43.24c-.08.06-.13.2-.13.37 0 .1.02.2.06.27a.92.92 0 0 0 .82.5h0a.98.98 0 0 0 .64-.24c.34-.28.53-.66.53-1.08 0-.48-.25-.95-.7-1.3-.5-.4-1.2-.6-2-.6h-.02c-1.17 0-2.23.55-2.98 1.55a5.08 5.08 0 0 0-.77 1.48c-.01.01-.01.02-.02.03-.15.4-.26 1.06-.32 2.05l-.1 4.24v.3l-.13 3.8c-.06.47-.2.84-.42 1.07a.82.82 0 0 1-.62.3c-.2 0-.4-.08-.54-.22-.15-.14-.23-.33-.23-.54 0-.06.01-.13.02-.2.04-.16.1-.28.2-.36.07-.06.15-.1.24-.1h0c.12 0 .24.05.34.14s.15.2.15.3-.04.17-.12.24c-.02.02-.03.05-.03.08s.01.05.02.07c.02.02.04.03.07.04.03 0 .05-.01.07-.03a.54.54 0 0 0 .19-.39c0-.16-.08-.32-.22-.45a.71.71 0 0 0-.48-.2h0c-.14 0-.27.05-.37.15-.12.1-.2.26-.25.46-.02.08-.03.16-.03.24a.97.97 0 0 0 .3.69.85.85 0 0 0 .25.17.85.85 0 0 0-.25.17c-.2.18-.3.42-.3.68 0 .08.01.16.03.24.05.2.13.36.25.46a.58.58 0 0 0 .37.15.71.71 0 0 0 .48-.2c.14-.13.22-.3.22-.45a.49.49 0 0 0-.19-.39zm3.14 7.86c.02-.01.04-.03.05-.06s0-.06-.01-.08-.03-.04-.06-.05c-.02-.01-.05 0-.08.01-.55.32-1.2 1.1-1.2 2.27 0 .77.28 1.57.83 2.38a3.05 3.05 0 0 0 2.55 1.36c.56 0 1.1-.14 1.5-.4.2-.13.37-.28.5-.45.12-.18.2-.37.2-.56 0-.06-.04-.1-.1-.1a.1.1 0 0 0-.1.1c0 .15-.06.3-.16.45-.15.22-.4.4-.72.54a2.89 2.89 0 0 1-1.11.22A2.84 2.84 0 0 1 8 49.66c-.53-.77-.8-1.53-.8-2.26 0-1.07.6-1.8 1.1-2.08zm-1.78-.17c.02.01.04.02.06.02.03 0 .07-.01.08-.04v-.01c.02-.04.1-.16.25-.3.1-.1.3-.27.5-.33.03-.01.05-.02.06-.05.01-.02.02-.05.01-.08s-.02-.05-.05-.06c-.02-.01-.05-.01-.08-.01-.2.06-.4.2-.62.4a1.82 1.82 0 0 0-.25.3c-.02.05-.01.1.04.14h0z"/><path d="M6.55 44.4h.02c.03-.01.05-.02.06-.04v-.01c.02-.02.1-.14.23-.27.1-.1.28-.25.47-.3.03-.01.05-.02.06-.05.01-.02.02-.05.01-.08s-.02-.05-.05-.06c-.02-.01-.05-.01-.08-.01-.2.06-.4.2-.58.4-.14.15-.23.28-.23.28-.02.02-.02.05-.02.08.01.03.02.05.04.06.04.01.05.02.07.02zm-.02-.75c.03 0 .07-.02.08-.05h0a2.55 2.55 0 0 1 .2-.25c.08-.08.25-.23.43-.28.05-.02.08-.07.07-.13-.02-.06-.07-.08-.13-.07-.18.05-.36.17-.54.36-.1.1-.2.22-.22.26-.01.02-.02.05-.01.08s.02.05.04.06c.03.02.05.02.07.02zm-.08-.77c.02.01.04.02.05.02a.12.12 0 0 0 .09-.05 1.62 1.62 0 0 1 .19-.23c.07-.08.23-.2.4-.26.03-.01.05-.02.06-.05.01-.02.02-.05.01-.08s-.02-.05-.05-.06c-.02-.01-.05-.02-.08-.01-.17.05-.34.16-.5.34l-.2.24c-.02.04 0 .1.04.14zm.05-.74c.05-.01.07-.02.1-.05s.08-.12.18-.2c.07-.07.2-.2.36-.24.03-.01.05-.02.06-.05.01-.02.02-.05.01-.08-.02-.05-.07-.08-.13-.07-.16.05-.3.15-.47.3-.1.1-.18.2-.18.22-.03.05-.02.1.03.14.01.02.03.03.05.03zm-.04-.76h.02c.03-.01.05-.02.07-.05.01-.02.07-.1.16-.2a.89.89 0 0 1 .32-.21c.05-.02.08-.07.07-.13-.02-.05-.07-.08-.13-.07a.85.85 0 0 0-.43.3c-.1.1-.16.2-.17.2-.02.02-.02.05-.02.08.01.03.02.05.04.06.04 0 .05.01.07.01zm-.02-.76a.12.12 0 0 0 .09-.05l.14-.17c.06-.06.17-.16.3-.2.05-.01.08-.07.07-.13-.01-.02-.03-.04-.05-.06-.03-.01-.06-.01-.1-.01a.89.89 0 0 0-.39.26c-.1.1-.15.18-.15.2-.02.02-.02.05-.02.08.01.03.02.05.04.06.02.02.04.02.06.02z"/><path d="M6.36 39.85c.02.01.04.02.06.02h.02c.03-.01.05-.02.06-.04h0a.49.49 0 0 1 .13-.15.74.74 0 0 1 .25-.17c.05-.01.1-.07.07-.12-.01-.03-.02-.05-.05-.06-.02-.03-.04-.03-.07-.03a.84.84 0 0 0-.36.24c-.1.1-.14.17-.14.17-.02.02-.02.05-.02.08.02.02.03.04.05.06zm6.9 12a.79.79 0 0 1 .38.09c.05.03.1.01.14-.04s.01-.1-.04-.14a.94.94 0 0 0-.47-.12c-.5 0-1.05.3-1.5.83-.5.57-.76 1.3-.76 2.03 0 .46.1.92.32 1.37.98 2.08 2.44 2.3 3.03 2.3.42 0 .82-.1 1.14-.3.02-.01.04-.04.05-.06.01-.03 0-.05-.01-.08-.03-.05-.1-.07-.14-.04-.3.17-.66.26-1.04.26-.68 0-1.95-.3-2.85-2.2a2.96 2.96 0 0 1-.3-1.28 2.88 2.88 0 0 1 .71-1.89c.4-.46.92-.75 1.34-.75zm2.58 7.1c0-.03-.01-.05-.03-.07-.04-.04-.1-.04-.14 0-.17.16-.43.25-.57.28l-.25.05c-.03.01-.06.01-.07.01h-.02a.1.1 0 0 0-.1.1c0 .05.05.1.1.1h0a1.91 1.91 0 0 0 .38-.06c.3-.07.5-.2.66-.34.03-.02.04-.04.04-.07zm-.44.87h0c.01 0 .16-.01.36-.06.27-.07.48-.17.62-.3.04-.04.04-.1 0-.14-.02-.02-.04-.03-.07-.03s-.05.01-.07.03c-.16.15-.4.23-.53.26a1.57 1.57 0 0 1-.23.04c-.03 0-.05.01-.07.01h-.02a.09.09 0 0 0-.09.11c0 .03.01.05.03.07.02.01.05.02.07.02zm.65.4a1.25 1.25 0 0 0 .33-.06c.25-.06.45-.16.58-.3.02-.02.03-.04.03-.07s-.01-.05-.03-.07-.04-.03-.07-.03-.05.01-.07.03c-.14.14-.37.2-.5.24-.07.02-.14.03-.2.04-.03 0-.05.01-.06.01h-.02a.09.09 0 0 0-.09.11c-.01.04.04.1.1.1zm.63.4h0c.03 0 .16-.01.32-.05.24-.06.4-.15.54-.27.02-.02.03-.04.03-.07s-.01-.05-.03-.07c-.04-.04-.1-.04-.14 0-.13.13-.34.2-.45.22-.06.02-.13.03-.2.04-.02 0-.04.01-.05.01h-.02a.09.09 0 0 0-.09.11c0 .03.01.05.03.07.01.01.04.01.06.01zm.65.4h0a1.64 1.64 0 0 0 .3-.05c.22-.06.38-.14.5-.25h0c.04-.04.04-.1 0-.14-.02-.02-.04-.03-.07-.03s-.05.01-.07.03c-.12.12-.3.18-.4.2-.06.01-.12.03-.18.04-.02 0-.04 0-.05.01h-.02a.1.1 0 0 0-.1.1c0 .04.05.08.1.08zm.63.4a1.82 1.82 0 0 0 .27-.04c.2-.05.35-.13.46-.23.04-.04.04-.1 0-.14-.02-.02-.04-.03-.07-.03s-.05.01-.07.03c-.1.1-.28.16-.37.18l-.16.03c-.02 0-.04.01-.05.01h-.02c-.03 0-.05.01-.07.03s-.03.05-.03.07c0 .03.01.05.03.07.03.01.06.02.08.02zm.64.4c.03 0 .12-.01.24-.04.18-.05.32-.12.42-.2.02-.02.03-.04.03-.07s-.01-.05-.03-.07-.04-.03-.07-.03-.05.01-.07.03a.83.83 0 0 1-.33.16l-.14.03c-.02 0-.03 0-.04.01h-.02c-.03 0-.05.01-.07.04-.02.02-.03.05-.03.07.01.04.05.08.1.08zm.64.4h0c.03 0 .12-.01.22-.04.17-.04.3-.1.38-.2.04-.04.04-.1 0-.14s-.1-.04-.14 0a.69.69 0 0 1-.29.14c-.04.01-.08.02-.13.02h-.05c-.03 0-.05.01-.07.03s-.03.05-.03.07c0 .03.01.05.03.07.04.03.06.04.08.04zm.01 1.1c-.01 0-.1-.05-.23-.14l-7.18-4.5c-.8-.53-1.57-1.3-2.14-2.14-.65-.96-1-1.97-1.05-2.93.25.13.5.24.76.32.03.01.05.01.08-.01.02-.01.04-.03.05-.06.01-.02.01-.05-.01-.08-.01-.02-.03-.04-.06-.05-.28-.1-.56-.2-.82-.36 0-.3.04-.6.1-.9.01-.03 0-.05-.01-.08-.01-.02-.04-.04-.06-.04-.05-.01-.1.02-.12.08a4.38 4.38 0 0 0-.11.82c-.7-.45-1.3-1.1-1.8-1.97a8.55 8.55 0 0 1-1-3.34l-.2-5.35-.07-2.42-.02-1c0-.03-.01-.05-.03-.07s-.04-.03-.07-.03a.1.1 0 0 0-.1.1l.3 8.8c.07 1.15.44 2.4 1 3.43.52.93 1.18 1.64 1.96 2.1.02 1.04.4 2.13 1.1 3.16.58.86 1.38 1.66 2.2 2.2l7.42 4.65c.02.01.03.01.05.01.05-.01.07-.02.08-.05.01-.02.02-.05.01-.08.01-.04-.01-.06-.03-.07zM24 21.4l-.03-.08c0-.01-.01-.03-.02-.06-.02-.06-.04-.1-.04-.13l-.15-.43c-.01-.02-.01-.04-.02-.06-.01-.03-.02-.05-.02-.06-.01-.01-.01-.04-.03-.1l-.02-.1c-.01-.01-.01-.04-.02-.07 0-.01 0-.02-.01-.03a.2.2 0 0 0-.02-.09h-.52l-.05.3-.07.26-.43 1.26-.64 1.86-.46 1.16c-.01.01-.01.04-.02.08l-.01.01c-.01 0-.01.02-.02.04s-.02.03-.02.04c-.02.04-.06.1-.1.13-.06.06-.16.13-.3.2l-.2.1-.24.14 2.28.01-.2-.12-.33-.17c-.14-.07-.2-.14-.23-.2v-.05c.01-.05.02-.1.04-.15l.07-.22.43-1.3h1.6l.5 1.38c0 .01.01.03.02.05 0 .02.01.04.02.08.02.03.03.07.04.1h0c0 .01.01.04.01.08v.04c-.01.06-.07.1-.15.16-.1.05-.23.1-.4.16l-.25.14h2.48l-.2-.1a2.23 2.23 0 0 1-.35-.17c-.14-.07-.23-.13-.27-.2-.06-.1-.1-.2-.15-.3-.01-.01-.03-.07-.07-.18v-.04c-.01-.02-.02-.07-.06-.16l-.02-.04c-.03-.08-.06-.14-.07-.16l-.01-.04-.1-.27c-.03-.1-.06-.17-.1-.22l-.7-1.78-.27-.67c-.05-.01-.06-.04-.07-.07zm.6 1.8l.43 1.14.1.25.18.42.08.2a.89.89 0 0 0 .13.22c.02.04.06.07.1.1l.12.06.13.07h-1.22l.12-.08.23-.1c.07-.04.12-.07.13-.1l.01-.04c0-.04-.02-.1-.05-.17-.01-.02-.04-.08-.07-.16l-1.7-4.35v.55l-.73 1.97h1.54l.23.15-.1.2H22.5l-.5 1.54-.05.16-.01.04c0 .01-.01.03-.01.04 0 .02 0 .03.01.04a.37.37 0 0 0 .05.11c.02.02.05.04.1.07l.23.14H21l.22-.1.24-.1c.08-.03.14-.08.17-.14l.13-.43 1.4-4.06.08-.15-.04-.4h.3l.2.58.18.52.22.58.48 1.24zm-.66-.07H22.7l.6-1.74.62 1.74zm2.26-3.05l.06 1.9.14-.42.1-.32c.06-.2.1-.32.15-.36l.1-.07c.02-.02.05-.03.1-.03h1.1l.01 4.18c0 .04-.01.1-.02.2v.02a.4.4 0 0 1-.08.16c-.04.06-.14.1-.3.18l-.34.16-.18.1h2.48l-.15-.1-.45-.2c-.1-.03-.17-.07-.2-.1-.05-.06-.07-.12-.07-.16 0-.01-.01-.04-.01-.1V25l-.01-4.2h.88.16c.02.01.05.01.1.02.01 0 .02 0 .03.01.02 0 .02 0 .03.01.06.02.12.1.2.23.02.03.04.1.07.16l.1.22.2.53-.02-1.92-.44.24h-3.37l-.36-.2zm3.7.3l.4-.15v.94l-.2-.6-.2.14h-1.33v4.35c0 .01 0 .03.01.07 0 .02.01.03.01.04v.01c.01.02.01.06.02.1l.01.01c.02.07.05.12.08.16a.19.19 0 0 0 .08.07l.18.1.1.07h-1.33l.1-.07.33-.13c.08-.04.13-.07.15-.1.01-.04.02-.1.02-.18v-.24l-.01-.2V20.5l-.27.2h-1.38l-.3.47.1-.7-.1-.18.27.05h3.27zm2.08.74v3.85a1.66 1.66 0 0 1-.02.24.33.33 0 0 1-.07.16c-.04.06-.14.1-.3.18l-.35.16-.17.1h3.85l.06-1.5-.13.3-.15.36c-.01.01-.02.03-.03.05-.03.05-.05.1-.05.1l-.03.03c-.02.02-.04.04-.05.06-.04.04-.08.06-.12.07a.54.54 0 0 1-.15.02h-1.34l-.07-.04c-.04-.02-.08-.05-.12-.1-.03-.04-.04-.1-.04-.16v-1.77l.97.01h.1l.13.01c.04.01.08.02.1.04.07.03.13.12.18.26l.13.34.1.23V22.1l-.2.4c-.03.06-.07.1-.1.13-.06.04-.1.07-.15.07h-.02c-.02 0-.03 0-.04.01-.03.01-.06.01-.07.01-.02.01-.06.01-.13.01h-.07l-.97-.01v-1.6l-.01-.05v-.1l.02-.1c.03-.03.05-.05.07-.06.01-.01.02-.01.02-.01.01-.01.03-.01.04-.01h1.25l.12.02c.02 0 .05.02.1.05a.62.62 0 0 1 .15.2l.1.22.18.42v-1.43l-.3.02h-3.3l.18.1.46.2a.69.69 0 0 1 .2.13c.01.01.02.03.03.05l.01.01c.01.01.01.02.02.03 0 .01 0 .02.01.03 0 .01.01.05.01.13v.14zm.35 3.67v-3.9l-.01-.13c-.01-.02-.02-.06-.04-.1-.02-.02-.08-.05-.15-.08l-.33-.1-.13-.07h2.43l.5-.07-.02.68-.18-.4-.15.1h-1.42l-.07-.01c-.06 0-.1.01-.12.03-.03.01-.05.03-.05.05l-.02.08.02.12c0 .01.01.04.01.1v1.7h1.38l.22.1.12-.25v.82l-.15-.43-.15.08-1.4.01v1.9c0 .03.02.08.07.13.01.01.03.04.07.07 0 .01.02.01.04.03l.05.05c.02.01.07.03.15.04l.23.01 1.33-.01.16.14.13-.46v.62h-3.07l.1-.07.32-.13c.08-.04.13-.07.15-.1.01-.04.01-.1.01-.18v-.24l-.01-.17zm4.27-3.67v3.85c0 .1-.01.17-.02.23 0 .06-.03.12-.07.17-.05.05-.15.1-.3.18l-.34.16-.18.1h3.72l.04-1.57-.22.54c-.02.03-.04.08-.07.13 0 .01-.01.02-.03.05 0 .01-.01.02-.02.05v.01c-.01.03-.03.05-.05.08-.01.01-.01.02-.02.02-.01.02-.04.04-.07.07-.05.05-.12.08-.23.1-.08.01-.15.01-.2.01h-.9c-.05 0-.1-.01-.13-.02-.03 0-.07-.03-.1-.07-.04-.06-.06-.1-.07-.16l-.01-.22v-3.77l.02-.2c.01-.07.04-.12.07-.16.02-.03.1-.07.2-.1l.47-.2.16-.1H35.7l.18.1h.02c.04.02.08.03.1.04s.04.01.06.02c.03.01.05.02.06.02.04.01.08.02.13.04l.1.04a.67.67 0 0 1 .2.13c.03.03.05.06.06.1.01.05.01.1.01.12v.2zm.35 3.67v-3.9l-.01-.13c-.01-.04-.02-.08-.04-.1-.03-.03-.08-.06-.15-.08l-.33-.1-.12-.07h1.35l-.1.07-.18.1c-.05.03-.08.05-.1.07-.05.06-.07.13-.07.2v4.1a.17.17 0 0 0 .01.07l.01.02c.01.05.01.08.02.1l.06.12c.02.04.06.06.1.08a.34.34 0 0 0 .08.03l.02.01c.01.01.03.01.07.01H39l.14.15.2-.6-.01.73H36.4l.1-.07.32-.13c.1-.03.14-.06.15-.1s.01-.1.01-.18v-.24l-.02-.2zm4.1-3.67v3.85c0 .1-.01.17-.02.23 0 .06-.03.12-.07.17-.05.05-.15.1-.3.18l-.34.16-.18.1h3.72l.04-1.57-.22.54c-.01.03-.04.08-.07.13-.01.01-.02.02-.03.05 0 .01-.01.02-.02.05l-.01.01c-.01.03-.03.05-.05.08 0 .01-.01.02-.02.02-.01.02-.04.04-.07.07-.05.05-.12.08-.23.1-.08.01-.15.01-.2.01h-.92c-.05 0-.1-.01-.13-.02-.03 0-.07-.03-.1-.07-.04-.06-.06-.1-.07-.16l-.01-.22v-3.77l.01-.2a.48.48 0 0 1 .07-.16c.02-.03.1-.07.2-.1l.46-.2.16-.1h-2.52l.18.1h.02c.04.02.08.03.1.04s.04.01.06.02c.03.01.05.02.06.02a.93.93 0 0 1 .13.04l.1.04a.67.67 0 0 1 .2.13c.03.03.05.06.06.1l.02.12-.01.1v.1zm.34 3.67v-3.9l-.01-.13c-.01-.04-.02-.08-.04-.1-.03-.03-.08-.06-.15-.08l-.33-.1-.13-.07h1.35l-.08.08-.18.1c-.05.03-.08.05-.1.07-.05.06-.07.13-.07.2v4.1a.17.17 0 0 0 .01.07l.01.02c0 .05.01.08.02.1l.06.12c.02.04.06.06.1.08.01.01.04.02.08.03h.02c.01.01.03.01.07.01h1.4l.14.15.2-.6-.02.73H40.8l.1-.07.32-.13c.1-.03.14-.06.15-.1s.02-.1.02-.18v-.4z"/><path d="M45.43 21.12v3.85a1.66 1.66 0 0 1-.02.24.33.33 0 0 1-.07.16c-.04.06-.14.1-.3.18l-.35.15-.17.1h3.85l.06-1.5-.13.3-.15.36c-.01.01-.02.03-.03.05-.03.05-.05.1-.05.1-.01.01-.02.01-.03.03-.02.02-.04.04-.05.06-.04.04-.08.06-.12.07-.03.01-.1.02-.16.02h-1.17-.04-.07-.07l-.07-.04c-.04-.02-.08-.05-.12-.1-.03-.04-.04-.1-.04-.16v-1.8h.97.1l.13.01c.04.01.08.02.1.04.07.03.13.12.18.26l.13.34.1.23v-2.03l-.2.4c-.03.06-.07.1-.1.13-.06.04-.1.07-.15.07h-.02c-.02 0-.03 0-.04.01-.03.01-.06.01-.07.01-.02.01-.06.01-.13.01H46.1v-1.6l-.01-.05v-.1l.01-.1c.03-.03.05-.05.07-.06.01-.01.02-.01.02-.01.01-.01.03-.01.04-.01h1.37c.02 0 .05.02.1.05a.62.62 0 0 1 .15.2l.1.22.18.42v-1.43l-.3.02h-3.3l.18.1.46.2a.69.69 0 0 1 .2.13c.02.01.02.03.03.05v.01c.01.01.01.02.02.03 0 .01 0 .02.01.03s.01.05.01.13v.15zm.35 3.67v-3.9l-.01-.13c-.01-.02-.02-.06-.04-.1-.02-.02-.08-.05-.15-.08l-.33-.1-.12-.07h2.42l.5-.07-.01.68-.18-.4-.15.1h-1.4l-.07-.01c-.06 0-.1.01-.12.03-.03.01-.05.03-.05.05l-.01.08.02.12c0 .01.01.04.01.1l-.01 1.7h1.38l.22.1.13-.25v.82l-.16-.43-.15.1-1.4.01v1.9c0 .03.02.08.07.13.01.01.03.04.07.07 0 .01.02.01.04.03l.05.05c.02.01.07.03.15.04H48l.16.14.13-.46v.62h-3.07l.1-.07.32-.13c.08-.04.13-.07.15-.1.01-.04.01-.1.01-.18v-.24l-.04-.2zm3.55-4.4h.02a.71.71 0 0 1 .15.07s.01 0 .02.01h.02l.24.1a.85.85 0 0 1 .2.13c.04.04.06.08.06.1a.39.39 0 0 1 .02.13l-.01.08v4l.01.1a.59.59 0 0 1-.02.14.27.27 0 0 1-.05.11c-.02.04-.1.1-.2.13l-.45.2-.15.1h2.48l-.17-.1-.44-.2c-.1-.06-.18-.1-.2-.14-.02-.02-.03-.04-.04-.06s-.01-.04-.02-.07c-.01-.02-.01-.06-.01-.13v-1.7l1.08 1.13.66.74c.28.3.5.48.68.54l.33.1.28.04c.05 0 .1-.01.12-.02l.35-.16-.3-.1c-.08-.03-.2-.1-.34-.2-.03-.03-.06-.06-.1-.08-.02-.02-.05-.05-.1-.08-.02-.01-.07-.06-.14-.13l-.18-.2a.68.68 0 0 0-.12-.12l-.2-.2-.48-.53-.7-.78.1-.04.06-.02c.02-.01.07-.03.12-.06l.1-.04.2-.13c.2-.15.36-.3.47-.5a1.69 1.69 0 0 0 .21-.84c0-.42-.16-.77-.47-1.02a1.48 1.48 0 0 0-1.02-.38h-2.3l.18.06zm2.14 0c.2 0 .37.03.52.1.15.06.3.15.44.28a1.19 1.19 0 0 1 .41.93 1.78 1.78 0 0 1-.15.74c-.14.3-.38.52-.7.64l-.5.18 1.57 1.75.4.4.46.34a1.22 1.22 0 0 1-.32-.04c-.08-.02-.17-.07-.28-.14l-.3-.24-.04-.04c-.04-.04-.07-.07-.1-.08l-.07-.07c-.02-.02-.04-.05-.07-.08l-1.7-1.9-.15.12h-.24l.01 1.78c0 .04 0 .06.01.07s.02.05.02.1c.02.07.06.13.1.2.01.02.04.04.08.07l.18.1.1.07h-1.33l.1-.07.32-.12.14-.1h0c.01-.02.01-.04.01-.04.01-.01.01-.03.01-.07v-.05-.1-4.35c-.01-.04-.02-.07-.04-.08-.02-.03-.07-.06-.15-.1l-.33-.1-.13-.07h1.73z"/><path d="M51.6 22.93c.3-.08.52-.2.67-.36a1.05 1.05 0 0 0 .29-.75 1.1 1.1 0 0 0-.18-.62c-.13-.22-.33-.37-.6-.47-.07-.03-.15-.05-.24-.06-.02-.01-.04-.01-.07-.01s-.05 0-.07-.01h-.15l-.2.01c-.02 0-.04.01-.08.01s-.07 0-.08.01c-.1.02-.16.04-.18.07-.02.02-.04.04-.05.07-.01.02-.02.04-.03.07h-.01a.88.88 0 0 0-.02.17V23h.25a2.41 2.41 0 0 0 .74-.1zm-.9-1.9c0-.02 0-.05.01-.1l.01-.04c.01-.04.04-.07.07-.1.02-.02.07-.04.16-.05l.03-.01c.03-.01.07-.01.1-.01.01 0 .05-.01.12-.01l.16.02c.12.01.24.05.36.1.1.05.2.13.28.22a1.02 1.02 0 0 1 .24.67c0 .38-.1.66-.34.86s-.54.3-.9.3h-.28V21zM22.05 34.6h.01c.02.02.03.04.04.06.01.01.03.04.07.08l.04.04c.02.02.03.02.04.03.02.02.07.04.16.05.01.01.03.01.06.01.02.01.04.01.06.01h.1c.1.03.18.04.2.04s.03 0 .04.01h.22c.05 0 .1 0 .12-.01.05 0 .1 0 .14-.01l.07-.01.38-.07a2.27 2.27 0 0 0 1.42-.83c.35-.43.52-1 .52-1.67 0-.6-.22-1.1-.65-1.5-.4-.4-.9-.62-1.53-.67l-.5-.02-.37.01c-.07 0-.1 0-.13.01-.01.01-.03.01-.06.01 0 0-.01 0-.03.01-.01 0-.02 0-.03.01-.04 0-.1.01-.17.02-.06.01-.1.03-.12.05l-.1.14c-.02.06-.04.12-.04.16v3.97l.01.03.02.04zm.07-1.9v-2.1c0-.07.02-.13.04-.18a.29.29 0 0 1 .11-.11l.08-.04c.01 0 .04-.01.1-.01l.06-.01c.04-.01.1-.01.13-.01h.25a.95.95 0 0 1 .14.01.53.53 0 0 1 .13.01c.02.01.1.01.2.01l.2.01c.01 0 .02 0 .04.01.02 0 .04 0 .05.01h.04c.02.01.03.01.04.01.5.1.9.37 1.2.77a2.29 2.29 0 0 1 .49 1.45c0 .2-.02.4-.06.6-.03.17-.1.34-.16.5-.12.24-.28.46-.5.65-.1.08-.17.14-.23.16-.07.06-.18.1-.32.18a1.44 1.44 0 0 1-.44.13 3.57 3.57 0 0 1-.59.04c-.15 0-.24 0-.28-.01-.1 0-.18-.01-.24-.02-.16-.01-.25-.03-.3-.05-.01-.01-.02-.01-.04-.02l-.07-.04c0-.01-.01-.01-.02-.02s-.02-.01-.02-.01c-.04-.06-.07-.1-.07-.16v-1.8z"/><path d="M21.43 30.6v3.85l-.01.2v.02c-.02.06-.04.12-.08.17-.04.06-.14.1-.3.18l-.34.16-.18.1h1.92l.52.01.44-.01c.07 0 .14-.01.22-.02.03-.01.08-.01.12-.01.27-.04.57-.13.88-.27.42-.2.76-.48 1.02-.83.32-.44.5-.98.5-1.6l-.01-.18-.01-.17a2.49 2.49 0 0 0-.47-1.29 2.86 2.86 0 0 0-.88-.78 2.78 2.78 0 0 0-.87-.31.68.68 0 0 0-.18-.02h-.02c-.1-.01-.17-.01-.22-.01-.1 0-.17 0-.2-.01h-.25l-.7.02h-.5l-1.3-.04.18.1.04.02c.02 0 .03.01.04.01l.16.07a.93.93 0 0 1 .13.04l.1.04a.67.67 0 0 1 .2.13c.01.01.02.03.03.05l.01.01c.01.02.01.02.02.03s.01.02.02.02c.01.01.01.05.01.13l-.01.08v.07zm.35 3.9l-.01-.22.01-3.88c0-.08 0-.13-.01-.14 0-.03-.02-.06-.04-.08-.03-.03-.08-.06-.15-.08l-.33-.1-.13-.07h2.34a2.48 2.48 0 0 1 1.74.67c.5.44.76 1 .83 1.7l.02.14v.13c0 .7-.24 1.33-.73 1.85-.5.53-1.1.8-1.78.8H21.2l.1-.06.32-.13c.1-.03.14-.06.15-.1s.02-.1.02-.18l-.02-.24zm29.48-3.9v3.85a1.66 1.66 0 0 1-.02.24.33.33 0 0 1-.07.16c-.04.06-.14.1-.3.18l-.35.16-.17.1h3.85l.06-1.5-.13.3-.15.36c-.01.01-.02.03-.03.05-.03.05-.05.1-.05.1-.01.01-.02.01-.03.03-.02.02-.04.04-.05.06-.04.04-.08.06-.12.07-.03.02-.1.02-.16.02h-1.17l-.04.01h-.07l-.07-.01-.07-.04c-.04-.02-.08-.05-.12-.1-.03-.04-.04-.1-.04-.16V32.7h.97.1l.13.01c.04.01.08.02.1.04.07.04.13.12.18.26l.13.34.1.23v-2.03l-.2.4c-.03.06-.07.1-.1.12-.06.04-.1.07-.15.07h-.02c-.02 0-.03 0-.04.01-.03.01-.06.01-.07.01-.01.01-.05.01-.12.01h-1.04v-1.6l-.01-.05v-.1l.02-.1c.03-.03.05-.05.07-.06.01-.01.02-.01.02-.01.01-.01.03-.01.04-.01l.07-.01.06.01h.94l.1-.01h.08l.12.01c.02.01.05.02.1.05a.62.62 0 0 1 .15.2l.1.22.18.4V29.7h-.3-3.3l.18.1.45.2a.69.69 0 0 1 .2.13c.02.01.02.03.03.05h.01c.01.02.01.02.02.03 0 .01 0 .02.01.03 0 .01.01.05.01.13v.15zm.35 3.67v-4c-.01-.02-.02-.06-.04-.1-.02-.02-.08-.05-.15-.08l-.33-.1-.13-.07h2.42l.5-.07-.02.68-.18-.4-.15.1h-1.4l-.07-.01c-.06 0-.1.01-.12.03-.03.02-.05.03-.05.05l-.02.08.02.12c0 .01.01.04.01.1v1.7h1.38l.22.1.12-.25v.82l-.15-.43-.16.1-1.4.01v1.9c0 .03.02.08.07.13.01.01.03.04.07.07 0 .01.02.02.04.03l.05.05c.02.01.07.03.15.04h1.56L54 35l.13-.46v.62h-3.07l.1-.07.32-.13c.08-.04.13-.07.15-.1.01-.04.01-.1.01-.18v-.44zm-30.8 10.7l.06.01h.07a1.35 1.35 0 0 0 .55-.1c.33-.14.55-.32.66-.55.1-.17.14-.42.14-.77v-3.52c0-.04 0-.07.01-.08 0 0 0-.02.01-.05v-.07a.61.61 0 0 1 .07-.14c.02-.03.1-.07.2-.1l.46-.2.16-.1h-2.52l.18.1h.04c.02.01.03.01.04.01l.16.07c.04 0 .08.02.13.04l.1.04a.67.67 0 0 1 .2.13c.02.02.04.04.04.06 0 .01.01.01.01.02.01.02.01.03.02.04s.01.05.01.13v3.7c0 .2-.02.36-.07.5s-.14.26-.27.37c-.1.07-.17.13-.26.17l-.3.12-.27.1.37.05zm.73-.4l.1-.08.07-.1c.05-.05.1-.14.15-.28.05-.17.08-.32.08-.44V39.9c0-.07 0-.12-.01-.13s-.01-.01-.01-.03c0-.01 0-.02-.01-.02-.01-.02-.01-.04-.02-.04-.02-.02-.08-.05-.16-.08l-.33-.1-.13-.07h1.35l-.1.07a.61.61 0 0 1-.18.1l-.1.07c-.03.04-.05.07-.06.1l-.02.1v3.72a1.86 1.86 0 0 1-.05.42c-.01.05-.02.12-.06.2a.69.69 0 0 1-.07.15c-.1.12-.18.22-.3.3a.46.46 0 0 1-.28.14l-.2.03.34-.26zm13.57.02v.01l-.24.1-.14.1h2.48l-.18-.1-.43-.2a.74.74 0 0 1-.2-.14.4.4 0 0 1-.07-.18l-.02-.2c-.01-.02-.01-.04-.01-.06s0-.04-.01-.05c0-.1-.01-.15-.02-.18-.01-.06-.01-.14-.02-.24l-.03-.26-.12-1.34-.12-1.5c0-.03-.01-.1-.02-.18-.01-.02-.01-.04-.01-.06 0-.03-.01-.05-.01-.06-.01-.04-.01-.12-.01-.22v-.4c0-.1-.01-.17-.01-.2h-.53l-.15.4-.24.57-.63 1.23-.57 1.1-.56.95c-.03-.04-.06-.1-.1-.14l-.1-.16-.3-.54-.8-1.42-.68-1.3-.16-.36-.13-.33h-.54v.26l.01.43-.02.6v.04l-.03.4c-.01.04-.01.07-.01.1l-.01.16-.01.4-.1 1.56c0 .22-.01.4-.03.53-.02.18-.04.3-.07.35 0 .1-.01.2-.04.25l-.12.16c-.02.04-.08.07-.2.12l-.46.2-.14.1-.2-.1a2.23 2.23 0 0 1-.35-.17c-.14-.07-.23-.13-.27-.2-.06-.1-.1-.2-.15-.3-.01-.01-.03-.07-.07-.18l-.02-.04c0-.02-.02-.07-.06-.16l-.02-.04c-.03-.08-.06-.14-.07-.16l-.01-.04-.1-.27c-.03-.1-.06-.17-.1-.22l-.7-1.78-.27-.67a.69.69 0 0 1-.03-.08l-.03-.08c0-.01-.01-.03-.02-.06l-.04-.12-.15-.43c-.01-.02-.01-.04-.02-.06-.01-.03-.02-.05-.02-.06-.01-.01-.01-.04-.03-.1l-.02-.1c0-.01-.01-.04-.02-.07 0-.01 0-.01-.01-.03-.01-.04-.01-.07-.02-.1h-.52l-.05.3-.07.26-.43 1.26-.64 1.86-.46 1.16c-.01.01-.01.04-.02.08h-.01c-.01.01-.01.02-.02.04s-.02.03-.02.04c-.02.04-.06.1-.1.13-.06.06-.16.13-.3.2l-.2.1-.24.14h2.28l-.2-.12-.33-.17c-.14-.07-.2-.14-.23-.2v-.05c.01-.05.02-.1.04-.15l.07-.22.43-1.3h1.6l.5 1.38c.01.02.01.03.02.05 0 .01.01.04.02.08.02.04.03.07.04.1v.01c0 .01.01.04.01.08v.04c-.01.06-.07.1-.15.16-.1.05-.23.1-.4.16l-.25.14h4.96l-.18-.1-.43-.2a.67.67 0 0 1-.2-.13 1.21 1.21 0 0 1-.1-.16c-.02-.04-.02-.12-.02-.24l.2-3.03.27.48.57 1.02.88 1.67c.03.04.08.14.15.28l.06.13c.02.03.03.07.06.12l.18.35.1-.24.46-.92.57-1.1.6-1.1.43-.8.3 3.13v.12c0 .1-.03.2-.1.3-.04.04-.17.1-.4.2zm-7.68.07l.12-.08.23-.1c.07-.04.12-.07.13-.1v-.04c0-.04-.02-.1-.05-.17-.01-.02-.04-.08-.07-.16l-1.7-4.35-.02.55-.73 1.97h1.54l.23.15-.12.18h-1.77l-.5 1.54-.05.16-.01.04c0 .02-.01.03-.01.04 0 .02 0 .03.01.04a.37.37 0 0 0 .05.11c.02.02.05.04.1.07l.23.14h-1.28l.22-.1.24-.1c.08-.04.14-.08.17-.14l.13-.43 1.4-4.06.08-.15-.04-.4h.3l.2.58.18.52.22.58.48 1.24.43 1.13.1.25.18.42.08.2a.89.89 0 0 0 .13.22c.02.04.06.07.1.1l.12.06.13.07h-1.2zm-.72-2.53h-1.2l.6-1.74.62 1.74zm8.64-1.6l-2.17 4.14-.05-.5-2.37-4.36.13.76-.22 3.63c0 .08.01.13.04.16l.1.1.1.07.17.1.1.07h-1.33l.1-.07.32-.12c.08-.04.12-.07.14-.08.01-.03.01-.05.01-.07 0-.01.01-.03.01-.07v-.05l-.01-.1V44l.28-4.4-.16-.3h.32l2.32 4.3.04.4 2.2-4.25-.08.75zm.57 3.62V44l-.38-4.23-.07-.04v-.47h.34l.42 4.96.03.1v.01l.07.1c.02.03.05.06.08.07l.18.1.1.07h-1.32l.1-.07.32-.12c.08-.03.13-.06.14-.1.02-.01.02-.06.02-.15l-.01-.1zm5.13-.87l-.01-.1-.01-.08c-.06-.37-.28-.64-.64-.8-.28-.14-.65-.2-1.1-.2h-.5l-.01 1.94c0 .04.03.1.07.17.01.02.03.04.06.07l.08.08c.02.01.07.03.13.04a.43.43 0 0 0 .17.03c.03 0 .05 0 .06-.01.03 0 .06 0 .07.01.02.01.04.01.08.01h.1c.36 0 .7-.1 1-.33.32-.22.48-.5.48-.83zM39.9 44.3a.98.98 0 0 1-.36.05c-.07 0-.12 0-.14-.01-.01 0-.02-.01-.04-.01-.01 0-.03 0-.04-.01-.03 0-.06 0-.07-.01-.03-.01-.06-.02-.1-.02l-.02-.01c-.01 0-.02-.01-.02-.01-.02-.01-.03-.02-.04-.02l-.02-.01c-.01 0-.02-.01-.02-.01-.04-.02-.08-.06-.1-.12-.02-.07-.04-.14-.04-.2v-1.75h.45c.34 0 .64.07.9.22.27.17.43.4.46.7v.16a1.06 1.06 0 0 1-.18.6c-.13.22-.34.37-.63.47zm.33-2.92c.27-.25.4-.5.4-.77l-.01-.07a1.09 1.09 0 0 0-.2-.53c-.04-.05-.1-.1-.2-.2-.07-.04-.16-.1-.27-.12l-.1-.02-.01-.01c-.02-.01-.05-.01-.08-.01l-.23-.02c-.12 0-.27.01-.45.04-.15.02-.23.04-.24.06a.38.38 0 0 0-.08.13l-.01.05c-.01.02-.01.04-.01.05 0 .02-.01.05-.01.1v1.7l.64-.02c.3-.01.58-.14.86-.38zm-1.42.3v-1.66c0-.02 0-.04.01-.05 0-.02 0-.04.01-.05.01 0 .01-.01.01-.03.02-.04.05-.07.07-.1.02-.01.04-.03.07-.04.01-.01.05-.01.1-.01l.4-.01c.26 0 .45.06.57.2.15.13.23.34.26.64l.01.04v.05a.89.89 0 0 1-.35.73c-.23.18-.5.27-.86.27l-.32.02z"/><path d="M39.36 44.8h.34a1.69 1.69 0 0 0 .66-.12c.2-.07.38-.2.55-.34.34-.3.52-.68.52-1.14 0-.3-.08-.56-.25-.8-.16-.22-.4-.38-.67-.5l-.3-.12.1-.06c.25-.17.43-.35.55-.52.13-.2.2-.44.2-.7a1.07 1.07 0 0 0-.43-.89c-.27-.22-.6-.32-.95-.32h-2.4l.18.1.1.04a1.12 1.12 0 0 0 .13.05c.04 0 .08.02.13.04l.1.04a.85.85 0 0 1 .2.13c.04.04.06.07.07.1 0 .01.01.06.01.14v4a1.66 1.66 0 0 1-.02.24c-.01.07-.04.12-.07.16-.04.06-.15.12-.3.2l-.34.16-.17.1h2.08zm-1.34-.2c.02-.02.1-.06.24-.1.14-.06.22-.1.22-.12.01-.02.02-.08.02-.18v-.04l-.02-.4.01-3.9c0-.03 0-.07-.01-.12v-.02c-.01-.04-.02-.07-.04-.08-.03-.03-.08-.06-.15-.08l-.34-.1-.13-.07h1.84a1.35 1.35 0 0 1 .88.31c.26.2.38.48.38.8 0 .27-.1.54-.3.8-.17.22-.36.38-.56.46l-.28.1.43.08c.32.06.6.2.8.44s.3.5.3.84c0 .42-.16.77-.47 1.04-.32.28-.7.4-1.1.4l-1.85.01.14-.07zm8.24-4.33c-.47-.5-1.02-.77-1.66-.77h-.27c-.7.1-1.22.37-1.58.83a2.26 2.26 0 0 0-.38.74 3.45 3.45 0 0 0-.13.91c0 .65.2 1.22.6 1.7a2.17 2.17 0 0 0 1.54.8h.22a2.18 2.18 0 0 0 1.66-.72c.46-.48.7-1.06.7-1.73-.01-.67-.24-1.27-.7-1.78zm-.3 3.56c-.42.38-.95.57-1.58.57-.57 0-1.06-.24-1.47-.74-.4-.46-.58-1-.58-1.63 0-.66.17-1.2.5-1.67a1.77 1.77 0 0 1 1.48-.75 2.13 2.13 0 0 1 1.68.78c.43.5.64 1.1.64 1.8.01.7-.22 1.25-.67 1.65z"/><path d="M46.44 39.9a3.07 3.07 0 0 0-.95-.59 3.5 3.5 0 0 0-1.17-.19 2.51 2.51 0 0 0-1.93.85c-.53.57-.78 1.26-.78 2.08a2.83 2.83 0 0 0 .8 2.02c.54.56 1.18.84 1.92.84.83 0 1.54-.26 2.12-.8a2.69 2.69 0 0 0 .91-2.09c-.01-.87-.3-1.6-.92-2.13zm-1.82 4.9h-.28c-.66-.06-1.23-.37-1.72-.92a2.86 2.86 0 0 1-.7-1.92c0-.74.22-1.37.67-1.9.47-.56 1.04-.84 1.73-.84.8 0 1.5.27 2.07.82a2.64 2.64 0 0 1 .86 2c0 .78-.25 1.44-.76 1.97-.5.54-1.12.8-1.87.8zm7.24-5.5l.15.1.18.07.28.12c.1.05.16.1.18.1l.1.16c.02.06.04.15.04.25v3.45l-.68-.77-1.3-1.45-1.36-1.48-.17-.18a1.01 1.01 0 0 1-.1-.13c-.02-.01-.03-.03-.06-.06l-.22-.27h-.47v4.67c0 .1-.01.2-.04.27 0 .02-.02.05-.05.1 0 .02-.02.04-.04.07l-.02.02c0 .01-.01.02-.01.02-.02.03-.08.07-.2.12l-.47.23-.15.1h2.48l-.18-.1-.43-.2c-.1-.05-.16-.1-.2-.13-.07-.1-.1-.23-.1-.4V40.5l.52.56 1 1.07.42.47.38.42c.06.06.16.18.3.35l.03.04.45.52.4.47.45.52h.47v-4.84l.01-.2c.02-.05.04-.1.07-.13.04-.05.14-.1.3-.18l.35-.15.17-.1h-2.48zm1.86.2l-.18.1c-.04.04-.07.06-.08.07l-.1.08c-.03.03-.04.1-.04.16v4.88H53l.12-.28-4.34-4.78-.03.08.18.45v3.93c0 .07.01.12.04.16l.1.1c.01.02.04.04.1.07l.18.1.1.07H48.1l.1-.07.32-.12c.08-.03.12-.06.14-.1l.01-.02c0-.02.01-.03.01-.04l.01-.13v-4.53l-.18-.35h.36l4.05 4.47.16.47.06-.01V40c-.01-.03-.02-.08-.02-.14l-.04-.14c-.02-.02-.06-.05-.13-.08l-.32-.13-.1-.07h1.33l-.13.06zM28.3 54.18l-.43-.2a.74.74 0 0 1-.2-.14.44.44 0 0 1-.07-.19v-.2c-.01-.02-.01-.04-.01-.06s0-.04-.01-.05l-.02-.18c-.01-.06-.01-.14-.02-.24l-.03-.26-.12-1.34-.12-1.5c0-.03-.01-.1-.02-.18 0-.02-.01-.04-.01-.06-.01-.03-.01-.05-.01-.06-.01-.04-.01-.12-.01-.22v-.24-.36h-.53l-.15.4-.24.57-.63 1.23-.57 1.1-.56.95c-.03-.04-.06-.1-.1-.14l-.1-.16-.3-.54-.8-1.42-.68-1.3-.16-.36-.13-.34h-.55v.26.43.6.02l-.03.4c0 .04-.01.07-.01.1l-.01.16-.01.4-.1 1.56c0 .22-.01.4-.03.53-.02.18-.04.3-.07.35 0 .1-.02.2-.04.25l-.12.16c-.02.04-.08.07-.2.12l-.46.2-.14.1h2.48l-.18-.1-.43-.2a.67.67 0 0 1-.2-.13 1.21 1.21 0 0 1-.1-.16c-.02-.04-.02-.13-.02-.25l.2-3.03.27.48.57 1.02.88 1.67c.03.04.08.14.15.28l.06.13c.02.03.03.08.06.12l.2.4.1-.24.22-.44.26-.5.57-1.1.6-1.1.43-.8.3 3.13v.05.07c0 .1-.03.2-.1.3-.03.04-.16.1-.38.2v.01l-.24.1-.14.1h2.48l-.2-.1zM26.64 50l-2.17 4.14-.05-.5-2.37-4.36.13.76-.22 3.63c0 .08.01.13.04.16l.1.1.1.07.17.1.1.07h-1.33l.1-.07.32-.12c.08-.04.13-.07.14-.08.01-.03.02-.05.02-.07 0-.01.01-.03.01-.07v-.06l-.01-.1v-.1l.28-4.4-.15-.3h.32l2.32 4.3.04.4 2.2-4.25-.1.75zm-.01 4.16l.1-.07.32-.12c.08-.03.12-.06.14-.1.01-.01.02-.06.02-.15v-.23l-.38-4.23-.07-.04v-.47h.34l.42 4.96c0 .03.01.06.03.1v.01l.07.1c.02.03.05.06.08.07l.18.1.1.07h-1.32zm7.87.04a2.23 2.23 0 0 1-.35-.17c-.14-.07-.23-.13-.27-.2-.06-.1-.1-.2-.15-.3-.01-.01-.03-.07-.07-.18l-.02-.04c0-.02-.02-.07-.06-.16l-.02-.04c-.03-.08-.06-.14-.07-.16l-.01-.04-.1-.27c-.03-.1-.06-.17-.1-.22l-.7-1.78-.27-.67a.69.69 0 0 1-.03-.08l-.03-.08c-.01-.02-.01-.04-.02-.06l-.04-.12-.15-.43c-.01-.02-.01-.04-.02-.06-.01-.03-.02-.05-.02-.06-.01 0-.02-.04-.03-.1l-.02-.1c0-.02-.01-.04-.02-.07 0-.01 0-.01-.01-.03-.01-.04-.01-.07-.02-.1h-.52l-.05.3-.07.26-.46 1.25-.64 1.86-.46 1.16c-.01.02-.01.04-.02.08h-.01c0 .01-.01.02-.02.04s-.02.03-.02.04c-.02.04-.06.1-.1.13-.06.06-.16.12-.3.2l-.2.1-.24.14 2.28.02-.2-.12-.33-.17c-.14-.07-.2-.14-.23-.2v-.05a.54.54 0 0 1 .04-.15l.07-.22.43-1.3h1.6l.5 1.38c.01.01.01.03.02.05 0 .01.01.04.02.08a.69.69 0 0 1 .04.1h0c0 .01.01.04.01.08v.04c-.01.06-.07.1-.15.16-.1.05-.23.1-.4.16l-.25.14h2.48l-.22-.1zm-1.57-.05l.12-.08.23-.1c.07-.04.12-.07.13-.1l.01-.04c0-.04-.02-.1-.05-.17-.02-.02-.04-.08-.07-.16l-1.7-4.35v.55l-.73 1.97h1.54l.23.15-.12.18h-1.77l-.5 1.53-.05.16v.04c0 .01-.01.03-.01.04 0 .02 0 .03.01.04a.37.37 0 0 0 .05.11c.02.02.05.04.1.07l.23.14H29.3l.22-.1.24-.1a.34.34 0 0 0 .17-.14l.13-.43 1.4-4.06.08-.15-.04-.4h.3l.2.6.18.52.22.58.48 1.24.43 1.13.1.25.18.42.08.2a.89.89 0 0 0 .13.22c.02.04.06.07.1.1l.12.06.13.07h-1.22zm-.7-2.52H31l.6-1.74.62 1.74zm4.34-2.03v-.14c0-.03.01-.07.02-.12a.37.37 0 0 1 .07-.14c.03-.03.1-.07.2-.1l.46-.2.16-.1h-2.5l.18.1h.02a.71.71 0 0 1 .15.07s.01 0 .02.01l.02.01.24.1a.67.67 0 0 1 .2.13c.04.04.06.08.06.1a.39.39 0 0 1 .02.13l-.01.08v3.92l-.01.24c-.01.06-.04.1-.08.16s-.14.1-.3.18l-.34.16-.17.1h2.48l-.15-.1-.45-.2c-.1-.03-.17-.07-.2-.1a.5.5 0 0 1-.09-.24V49.6zm-.07 4.13a.75.75 0 0 0 .1.2l.1.07.17.1.1.07h-1.33l.1-.07.33-.13c.08-.03.13-.06.14-.08a.92.92 0 0 0 .02-.19v-.24l-.01-.2v-3.9l-.01-.13c-.01-.04-.02-.07-.04-.08-.02-.03-.07-.06-.15-.1l-.33-.1-.12-.07h1.35l-.1.07-.08.05c-.06.03-.1.05-.12.07-.05.03-.08.05-.1.07-.05.06-.07.13-.07.2v4.2l.02.18zm2.85.15h-.1l-.1-.01c-.2-.03-.36-.07-.5-.12-.2-.1-.32-.24-.4-.42l-.32-.8-.03 1.6.36.1c.06.03.13.05.2.07.04.01.1.03.17.04h.01a2.07 2.07 0 0 0 .5.05c.53 0 .96-.12 1.28-.37.35-.27.53-.65.53-1.15 0-.33-.07-.6-.22-.8-.1-.18-.3-.35-.57-.53-.01-.01-.02-.01-.04-.02s-.03-.02-.04-.02l-.18-.1-.24-.13-.32-.18c-.35-.2-.58-.35-.7-.48-.13-.16-.2-.33-.2-.5a.91.91 0 0 1 .27-.67c.2-.17.42-.26.68-.26.23 0 .4.02.5.07.15.07.25.18.32.33l.37.86.04-1.6-.23-.06c-.1-.04-.26-.07-.44-.1s-.36-.02-.55-.02c-.44 0-.82.14-1.13.43a1.52 1.52 0 0 0-.5 1.16c0 .3.06.53.18.7.1.16.25.3.46.45l.68.4.57.32c.2.12.35.24.44.36a.84.84 0 0 1 .17.53c0 .27-.1.48-.3.65a1.19 1.19 0 0 1-.68.2zm1.24-1c0-.25-.06-.46-.2-.63-.1-.14-.26-.27-.48-.4l-.6-.34-.58-.33a1.59 1.59 0 0 1-.44-.4 1.22 1.22 0 0 1-.18-.67c0-.4.14-.7.43-.96a1.4 1.4 0 0 1 .95-.38l.27.01c.05.01.13.01.26.02.2.02.3.04.35.06l.17.07-.01.84-.2-.56a1.12 1.12 0 0 0-.39-.13c-.12-.02-.28-.03-.46-.03a1.08 1.08 0 0 0-.77.3c-.23.2-.34.44-.34.74 0 .26.1.5.32.7a2.65 2.65 0 0 0 .63.42 6.61 6.61 0 0 1 .71.36c.26.16.46.34.6.54.16.24.24.5.24.82 0 .42-.14.75-.42 1-.27.24-.63.36-1.08.36-.18 0-.35-.02-.52-.07-.14-.03-.28-.1-.44-.17l-.23-.13-.07-.6.25.36c.03.02.05.04.06.04l.13.1a2 2 0 0 0 .21.1 2 2 0 0 0 .5.1h.17c.17 0 .32-.02.46-.07.13-.05.25-.12.36-.22.22-.2.34-.47.34-.82zm5.6-3.48a3.07 3.07 0 0 0-.95-.59 3.5 3.5 0 0 0-1.17-.19 2.53 2.53 0 0 0-1.93.85c-.52.57-.78 1.26-.78 2.08a2.83 2.83 0 0 0 .8 2.02c.54.56 1.18.84 1.92.84.83 0 1.54-.26 2.12-.8a2.69 2.69 0 0 0 .91-2.09c-.02-.87-.32-1.6-.92-2.13zm-1.82 4.9h-.28c-.66-.06-1.23-.37-1.72-.92-.47-.54-.7-1.18-.7-1.92s.22-1.37.67-1.9c.47-.56 1.04-.84 1.73-.84.8 0 1.5.27 2.07.82a2.64 2.64 0 0 1 .86 2c0 .78-.25 1.44-.76 1.97-.5.54-1.13.8-1.87.8z"/><path d="M46.02 49.76c-.47-.5-1.02-.77-1.67-.77h-.27c-.7.1-1.22.37-1.58.83a2.26 2.26 0 0 0-.38.74 3.45 3.45 0 0 0-.13.91c0 .65.2 1.22.6 1.7a2.17 2.17 0 0 0 1.54.8l.23.02a2.18 2.18 0 0 0 1.66-.72c.46-.48.68-1.06.68-1.73a2.51 2.51 0 0 0-.7-1.8zm-.3 3.56c-.42.38-.95.57-1.58.57-.57 0-1.06-.24-1.47-.73-.4-.47-.58-1-.58-1.63 0-.66.17-1.2.5-1.67a1.77 1.77 0 0 1 1.48-.75 2.13 2.13 0 0 1 1.68.78c.43.5.64 1.1.64 1.8s-.22 1.24-.67 1.64zm5.24-1.25l.38.42c.06.06.16.18.3.35l.03.04.45.52.4.47.45.52h.47v-4.84l.01-.2c.02-.05.04-.1.07-.13.04-.06.14-.1.3-.18l.35-.15.17-.1h-2.48l.15.1.18.07.28.13c.1.05.16.1.18.1l.1.16c.02.06.04.15.04.25v3.45l-.68-.77-1.3-1.45-1.36-1.48-.17-.18a1.01 1.01 0 0 1-.1-.13c-.02-.01-.03-.03-.06-.06l-.22-.27h-.47v4.67c0 .1-.01.2-.04.27 0 .02-.02.05-.05.1 0 .02-.02.04-.04.07-.01 0-.01.01-.02.02 0 .01-.01.02-.01.02-.02.03-.08.07-.2.12l-.46.2-.15.1 2.48-.01-.18-.1-.43-.2c-.1-.05-.16-.1-.2-.13-.07-.1-.1-.23-.1-.4v-3.46l.52.56 1 1.07.4.47zm-2.18-2.85l-.03.08.18.45v3.93c0 .07.01.12.04.16l.1.1c.01.02.04.04.1.07l.18.1.1.07H48.1l.1-.07.32-.12c.08-.03.12-.06.14-.1l.01-.02c0-.02.01-.03.01-.04l.01-.13v-4.55l-.18-.35h.36l4.05 4.47.16.47.06-.02v-4.26c-.01-.03-.02-.08-.02-.14l-.04-.14c-.02-.02-.06-.05-.13-.08l-.32-.13-.1-.07h1.33l-.1.07-.18.1c-.04.03-.07.06-.08.07l-.1.08c-.03.03-.04.1-.04.16v4.88H53l.12-.28-4.34-4.76zM30.3 31.68c-.03-.06-.04-.07-.06-.07s-.03.02-.04.06l-.2 1.4c-.01.07-.03.16-.1.17-.03.01-.05.01-.06.01-.02 0-.03.01-.03.02 0 .02.02.02.04.02l.2-.01.22.01c.03 0 .05 0 .05-.02 0-.01-.01-.02-.03-.02s-.05 0-.1-.01-.06-.03-.06-.07 0-.06.01-.1l.1-.84h.01l.22.46.25.5c.03.07.06.1.07.1.02 0 .03-.02.08-.12l.47-.96h.01l.13.94c.01.06 0 .1-.01.1-.02.01-.02.01-.02.02s.01.02.06.02a6.93 6.93 0 0 0 .43.01c.03 0 .06-.01.06-.02s-.02-.01-.03-.01c-.03 0-.07 0-.13-.02s-.1-.08-.1-.22l-.2-1.32c-.01-.04-.02-.07-.04-.07s-.03.02-.05.05l-.58 1.2-.6-1.2zm2 1.45c-.01.05-.02.1-.06.1-.02 0-.04.01-.07.01-.02 0-.03.01-.03.02s.01.02.04.02h.24l.22.01H33c.07 0 .1 0 .1-.05a1.38 1.38 0 0 0 .03-.2c0-.02 0-.04-.02-.04-.01 0-.02.01-.02.03-.01.07-.03.1-.08.14-.05.02-.13.02-.18.02-.2 0-.25-.03-.26-.15v-.45c0-.01 0-.02.01-.02l.3.01c.07.01.1.04.1.07a.17.17 0 0 0 .01.07c0 .01 0 .01.02.01s.02-.02.02-.04c0-.01 0-.1.01-.12l.02-.13c0-.01-.01-.02-.02-.02s-.01.01-.03.02c-.02.02-.05.02-.1.03h-.33c-.01 0-.01-.01-.01-.02V32c0-.01 0-.02.01-.02h.3c.1.01.1.03.12.07.01.02.01.06.01.07s0 .02.02.02.02-.02.02-.03c0-.02.01-.1.01-.12 0-.1.02-.1.02-.12s0-.02-.01-.02-.02.01-.03.01c-.02 0-.05.01-.08.01h-.78c-.03 0-.04 0-.04.02 0 .01.01.02.03.02.03 0 .06 0 .07.01.06.02.08.04.08.1v.7l-.03.38z"/><path d="M34.2 33.25c0 .01.02.01.06.02h.36c.07 0 .08 0 .08-.02 0-.01-.01-.02-.03-.02s-.04 0-.07-.01-.1-.03-.16-.2l-.48-1.12c-.02-.04-.03-.06-.06-.06-.02 0-.03.02-.06.07l-.5 1.14c-.04.1-.07.15-.16.16h-.06c-.02 0-.02.01-.02.02 0 .02.01.02.03.02l.22-.01.2.01c.02 0 .03 0 .03-.02 0-.01 0-.02-.03-.02h-.03c-.06 0-.07-.02-.07-.05 0-.02.01-.07.03-.1l.1-.25c0-.01.01-.01.02-.01h.44c.01 0 .02 0 .02.01l.15.37c.01.02 0 .04-.02.04-.01.02-.01.03-.01.04zm-.17-.54h-.36l.17-.47c0-.01 0-.02.01-.02 0 0 .01.01.01.02l.18.46z"/><path d="M34.76 31.88l-.08-.02c-.01 0-.02.01-.02.04 0 .01-.04.2-.04.22s0 .03.02.03c.01 0 .02-.01.02-.02a.11.11 0 0 1 .03-.06c.03-.04.07-.05.18-.06h.28v.74l-.01.4c-.01.05-.02.1-.06.1-.02 0-.04.01-.07.01-.02 0-.03.01-.03.02s.01.02.04.02h.25.3c.02 0 .04-.01.04-.02s-.01-.02-.03-.02c-.03 0-.07 0-.1-.01-.06-.01-.07-.04-.07-.1-.01-.08-.01-.22-.01-.4V32h.24c.17 0 .22.06.22.1v.02c0 .03.01.04.02.04s.02-.01.02-.03v-.22c0-.03 0-.04-.02-.04-.01 0-.02 0-.05.01-.03 0-.07.01-.13.01h-.76c-.05-.01-.12-.01-.18-.02zm1.96.95c0 .2.14.48.6.48.3 0 .44-.13.5-.2.18.14.26.17.5.17h.17c.05 0 .06-.01.06-.02 0-.02-.01-.02-.03-.02a.65.65 0 0 1-.23-.07c-.06-.03-.15-.1-.3-.2.12-.14.2-.34.2-.5 0-.03-.03-.04-.07-.04h-.26c-.02 0-.03.01-.03.02s.01.02.03.02c.03 0 .08.01.1.03.03.03.04.07.04.1a.68.68 0 0 1-.1.33l-.38-.36c-.17-.2-.36-.36-.36-.57 0-.18.14-.24.23-.24.12 0 .2.04.24.1a.26.26 0 0 1 .06.18c0 .03 0 .04.02.04.01 0 .02-.01.03-.04a2.03 2.03 0 0 0 .02-.28c0-.02 0-.04-.04-.06-.06-.02-.15-.04-.26-.04-.37 0-.52.22-.52.4a.47.47 0 0 0 .11.31c-.15.05-.37.24-.37.5zm.4-.43l.23.27.4.37a.61.61 0 0 1-.35.13c-.22 0-.4-.17-.4-.44 0-.18.07-.28.14-.33zm2.38-.75c-.06 0-.2-.01-.3-.01-.03 0-.05 0-.05.02 0 .01.01.02.04.02s.07 0 .08.01c.07.01.1.05.1.12v.84l-.01.46c-.01.06-.02.1-.06.12-.02.01-.04.01-.08.01-.03 0-.03.01-.03.02s.01.02.04.02h.27l.2.01a2.09 2.09 0 0 0 .25.01c.4 0 .62-.15.72-.26.12-.12.23-.33.23-.6a.8.8 0 0 0-.2-.55c-.23-.24-.6-.24-.86-.24-.12-.01-.26 0-.32 0zm1.1.85c0 .22-.04.42-.18.54-.13.1-.27.16-.5.16-.17 0-.25-.04-.28-.1-.02-.02-.02-.1-.02-.16V31.8c0-.02.01-.03.03-.04a.52.52 0 0 1 .14-.02c.17 0 .4.03.6.22.08.08.2.25.2.53zm.72.63c-.01.05-.02.1-.06.1-.02 0-.04.01-.07.01-.02 0-.03.01-.03.02s.01.02.04.02h.24l.22.01H42c.07 0 .1 0 .1-.05.01-.04.02-.16.02-.2 0-.02 0-.04-.02-.04-.01 0-.02.01-.02.03-.01.07-.03.1-.08.14-.05.02-.13.02-.18.02-.2 0-.25-.03-.25-.15v-.45c0-.01 0-.02.01-.02l.3.01c.07.01.1.04.1.07a.17.17 0 0 0 .01.07c0 .01 0 .01.02.01s.02-.02.02-.04c0-.01 0-.1.01-.12l.01-.13c0-.01-.01-.02-.01-.02s-.02.01-.03.02c-.02.02-.04.02-.1.03h-.33c-.01 0-.01-.01-.01-.02V32c0-.01 0-.02.01-.02h.3c.1.01.1.03.12.07.01.02.01.06.01.07s0 .02.02.02c.01 0 .02-.02.02-.03 0-.02.01-.1.01-.12 0-.1.02-.1.02-.12s0-.02-.01-.02-.02.01-.03.01c-.02 0-.04.01-.08.01h-.78c-.03 0-.04 0-.04.02 0 .01.01.02.03.02.03 0 .06 0 .07.01.06.02.08.04.08.1v.7l-.02.38z"/><path d="M42.56 33.13c-.01.05-.02.1-.06.1-.02 0-.04.01-.07.01-.02 0-.03.01-.03.02s.01.02.04.02h.24l.25.01h.34c.1 0 .1-.01.12-.05a1.04 1.04 0 0 0 .03-.21c0-.02 0-.04-.02-.04-.01 0-.02.01-.02.03 0 .03-.02.1-.05.1-.05.05-.12.05-.22.05-.15 0-.22-.01-.25-.04-.04-.03-.04-.15-.04-.4v-.7c0-.07.02-.1.07-.1.02 0 .05-.01.07-.01s.03-.01.03-.02-.01-.02-.04-.02h-.53c-.03 0-.04 0-.04.02 0 .01.01.02.03.02s.05 0 .06.01c.06.02.08.04.08.1v.7l.01.37z"/><path d="M44 32.03c0-.07.02-.1.07-.1.02 0 .04-.01.06-.01s.03 0 .03-.02c0-.01-.02-.02-.04-.02h-.5c-.03 0-.04 0-.04.02s.01.02.03.02.05 0 .07.01c.04.01.06.04.06.1v.7l-.01.4c-.01.05-.02.08-.06.1-.02 0-.04.01-.07.01-.02 0-.03.01-.03.02s.01.02.04.02l.25-.01.3.01c.02 0 .04-.01.04-.02s-.01-.02-.03-.02c-.03 0-.07 0-.1-.01-.06-.01-.07-.04-.07-.1-.01-.08-.01-.22-.01-.4v-.7zm.65 1.07c.17.14.4.2.65.2.12 0 .27-.01.34-.04.03-.01.04-.02.05-.05.02-.06.04-.22.04-.24s-.01-.03-.02-.03c-.02 0-.02.01-.02.04-.01.03-.03.1-.06.12-.07.08-.17.1-.33.1-.25 0-.6-.2-.6-.64 0-.18.03-.36.17-.48a.57.57 0 0 1 .36-.1c.16 0 .3.04.36.1.05.05.07.1.07.17 0 .02 0 .04.02.04s.02-.02.03-.04c0-.04 0-.14.01-.2 0-.06.01-.1.01-.1s-.01-.02-.03-.02l-.2-.03c-.1-.01-.16-.02-.27-.02-.28 0-.46.07-.6.2-.18.16-.22.38-.22.5a.59.59 0 0 0 .22.52z"/><path d="M46.78 33.25c0 .01.02.01.06.02h.36c.07 0 .08 0 .08-.02 0-.01-.01-.02-.03-.02s-.04 0-.07-.01-.1-.03-.16-.2l-.48-1.12c-.02-.04-.03-.06-.06-.06-.02 0-.03.02-.06.07l-.5 1.14c-.04.1-.07.15-.16.16h-.06c-.01 0-.02.01-.02.02 0 .02.01.02.03.02l.22-.01.2.01c.02 0 .03 0 .03-.02 0-.01 0-.02-.03-.02h-.03c-.06 0-.07-.02-.07-.05 0-.02.01-.07.03-.1l.1-.25c0-.01.01-.01.02-.01h.44c.01 0 .01 0 .02.01l.15.37c.01.02 0 .04-.02.04-.01.02-.01.03-.01.04zm-.17-.54h-.36l.17-.47c0-.01 0-.02.01-.02 0 0 .01.01.01.02l.18.46zm-13.73 64.9a8.31 8.31 0 0 0 3.23-4.54c.32-1.14.38-2.12.38-2.36 0-.47-.22-.62-.87-.9l.06-.22c.18-.04.4-.12.68-.12.7 0 1.45.46 1.45.87 0 .04-.01.1-.03.13.84-.52 1.9-1.2 3.1-2.5.16-.16.2-.24.2-.3 0-.1-.13-.12-.2-.12-.68 0-5.67.6-7.16 1.02l-.96.3c-.44 0-1.3-.8-1.3-1.56 0-.12.01-.24.04-.47l.2-.07c.18.28.5.8 1.3.8.84 0 7.38-.75 7.76-.83.15-.01.77-.27.9-.27.46 0 1.27 1.08 1.27 1.4 0 .22-.2.28-.47.38-.32.1-1.52 1.03-1.77 1.2-1.53 1.06-2.57 1.5-3.1 1.73-.35 2.1-1 5.18-4.6 6.6l-.13-.17zm1.72 3.13c.2-.1.4-.22.74-.22.68 0 1.58.44 1.58.93 0 .15-.16.8-.2.93-.1.68-.1 1.65-.12 2.42 1.8.4 3.7 1.18 4.4 1.74.28.2.52.6.52 1.06 0 .5-.34.52-.4.52-.24 0-.34-.07-1.2-.8-.8-.66-1.83-1.36-3.33-1.95l.1 6.57c0 .24 0 .77-.43.77-.55 0-.78-1.03-.78-1.33 0-.15.1-.78.1-.9l.04-1.28-.01-6.93c-.03-.84-.2-1.02-1.03-1.28v-.24zm-1.58 15.88c.13-.07.3-.2.56-.2.6 0 1.48.47 1.48.84 0 .1-.12.44-.13.52-.01.12-.03.25-.03.77l.04 3.22c0 .66 0 1.12-.5 1.12s-.7-1.06-.7-1.28c0-.5.12-1 .12-1.5 0-3-.03-3-.87-3.28l.03-.22zm5.44-.65c.2-.15.4-.28.77-.28.6 0 1.53.4 1.53.84 0 .15-.16.75-.18.87-.07.55-.07 3-.1 3.5-.07 2.05-.2 5.56-5.12 6.76l-.1-.2c4.13-2.1 4.13-4.47 4.13-9.67 0-1.28 0-1.4-.96-1.64l.02-.2zm-7.4 22.12c.2.24.5.6 1.15.6.12 0 3.8-.37 4.44-.43l-.01-4.38c-.03-.86-.1-1.12-.25-1.4l-2.54.34c-.37 0-1.17-.53-1.14-1.4l.2-.1c.44.44.83.5 1.3.5.68 0 3.92-.24 5.05-.4l1.17-.24c.32 0 1.17.43 1.17.78 0 .3-.5.3-.96.3l-3.28.13c.25.16.44.33.44.65 0 .2-.12 1.08-.13 1.25l-.07 3.9 3.3-.1c.16 0 .92-.07 1.06-.07.77 0 1.42.75 1.42 1.05 0 .15-.12.27-.4.27-.24 0-1.24-.16-1.45-.2a20.19 20.19 0 0 0-2.35-.12c-1.48 0-4.25.15-5.83.47l-1.2.3c-.53 0-1.34-.83-1.34-1.42 0-.07.01-.12.04-.27l.2-.06zm7.43 9.53a1.31 1.31 0 0 1-1.3 1.3 1.31 1.31 0 0 1-1.3-1.3c0-.74.6-1.3 1.3-1.3s1.3.56 1.3 1.3zm-4.13 7.94c.2-.1.4-.22.74-.22.7 0 1.58.44 1.58.93 0 .15-.16.8-.2.93-.1.68-.1 1.65-.12 2.42 1.8.4 3.7 1.18 4.4 1.74.28.2.52.6.52 1.06 0 .5-.34.52-.38.52-.25 0-.35-.07-1.2-.8-.32-.28-1.45-1.22-3.33-1.95l.1 6.4c0 .44 0 .93-.43.93-.55 0-.78-1.03-.78-1.33 0-.15.1-.8.1-.93.04-.5.04-.74.04-1.28v-6.95c-.04-.83-.2-1-1.03-1.25l.01-.22zm4.7 1.06c1.83.38 2.82 1.33 2.82 2 0 .33-.22.53-.4.53-.24 0-.3-.1-.63-.58-.75-1.03-1.58-1.54-1.9-1.74l.12-.2zm1.18-1.26c1.62.22 2.9 1.15 2.9 1.87 0 .35-.22.52-.4.52-.22 0-.27-.04-.65-.55-.7-.9-1.5-1.34-1.98-1.62l.12-.22zm-3.32 24.13c1.36-.8 3.05-2.14 3.9-4.7.25-.77.4-1.56.4-1.8 0-.12-.07-.15-.28-.15-1.08 0-2.82.15-3.94.28l-1.28.1.1 2.24c0 .27-.13.46-.33.46-.4 0-.7-.5-.7-.78 0-.18.07-.93.07-1.1 0-1.27-.2-1.46-.55-1.77l.12-.2c.37 0 .62.01 1.28.43l2.24-.2-.03-1c-.03-.27-.2-.37-.74-.55v-.22c.2-.13.38-.24.68-.24.35 0 1.18.25 1.18.68 0 .12-.15.62-.16.72l-.04.53 2.2-.16c.1-.01.53-.24.62-.24.33 0 .96.66.96.9 0 .13-.06.18-.3.38-.1.1-.13.2-.22.53-1.08 4.3-3.36 5.5-5.12 6.02l-.1-.2zm1.57 8.34a1.31 1.31 0 0 1-1.3 1.3 1.31 1.31 0 0 1-1.3-1.3c0-.74.6-1.3 1.3-1.3s1.3.56 1.3 1.3zm-6.6 9.78c2.26-.03 3.85.56 3.85 1.6 0 .3-.2.6-.5.6-.22 0-.34-.1-.56-.32-.15-.15-.92-.9-2.83-1.65l.04-.23zm1.32 5.68c.3.44.66.75.94.75.58 0 2.94-1.5 4.47-2.7 1.7-1.34 3.22-2.9 4.43-4.66l.2.1c-1.5 3.9-5.25 6.34-7.63 7.9-.1.07-.46.3-.7.5-.2.18-.35.3-.55.3-.44 0-1.46-.86-1.46-1.73 0-.16.03-.28.06-.4l.22-.07zm.1-8.82c1.92.01 3.84.47 3.84 1.6 0 .37-.2.6-.47.6-.24 0-.35-.1-.58-.32-.8-.8-2.14-1.4-2.83-1.67l.04-.22zm6.57-.68c1.6.47 2.5 1.45 2.5 2.05 0 .34-.2.55-.4.55-.24 0-.3-.12-.6-.6-.56-.94-1.22-1.5-1.65-1.82l.14-.2zm1.12-.93c1.56.3 2.67 1.2 2.67 1.92 0 .3-.2.5-.38.5-.22 0-.28-.1-.6-.55a6.07 6.07 0 0 0-1.81-1.65l.13-.2zm-6.96 18.65c.13.15.35.43.7.43.22 0 2.27-.44 2.66-.52-.4-1.84-.46-2.14-1.22-2.24v-.22c.16-.12.38-.25.78-.25.43 0 1.06.16 1.06.66 0 .3.01.84.24 1.87l3.07-.66c.16-.04.3-.1.44-.16.34-.2.38-.2.5-.2.27 0 1.06.65 1.06.94 0 .16-.01.16-.53.44-.12.07-.46.46-.55.58-.25.3-1.18 1.4-1.96 1.96l-.18-.14 1.6-2.7c0-.03-.03-.03-.06-.03-.1 0-2.2.5-3.25.74l.94 4.37.25 1.3c0 .1 0 .46-.37.46-.28 0-.8-.4-.83-1.48-.01-.58-.24-1.64-.84-4.46l-2 .55c-.1.04-.58.3-.68.3-.38 0-1.1-.65-1.1-1.15 0-.12.03-.22.04-.33l.22-.05z"/><use xlink:href="#B"/><path d="M34.43 240.48c-.16.72-.4 1.77-1.33 3.05-.77 1.1-1.03 1.1-1.2 1.1-.4 0-.4-.46-.4-.6 0-.8.34-1.03.8-1.37.53-.37 1.1-.92 1.95-2.3l.2.1zm.3 3.56l1.74.52c.15 0 .18-.1.18-.32l-.01-5.5-2.83.44c-.2.03-.97.3-1.15.3-.43 0-1.1-.7-1.1-1.2a1.06 1.06 0 0 1 .06-.35l.2-.07c.25.3.47.52 1 .52.24 0 .58-.03.9-.06.1 0 2.48-.24 2.94-.28l-.07-2.18c-.13-.46-.56-.6-.93-.7l.01-.22a1.16 1.16 0 0 1 .69-.22c.56 0 1.5.46 1.5.9 0 .13-.2.68-.2.8-.04.35-.06.8-.07 1.53l2.92-.28c.12-.01.66-.12.78-.12.24 0 1.37.38 1.37.87 0 .18-.13.37-.4.37-.03 0-.72-.1-.77-.1-.2-.03-.8-.1-1.83-.1l-2.1.1.1 6.24c0 .84-.34 1.55-.8 1.55-.28 0-.32-.15-.44-.6-.16-.58-.25-.63-1.73-1.6l.07-.23zm4.4-3.9c.4.2 3.54 1.67 3.54 3.3 0 .53-.25.72-.5.72-.35 0-.52-.3-.8-.88-.35-.7-1-1.74-2.36-2.95l.12-.18zm.76-5.3c1.67.2 2.82 1.05 2.82 1.76 0 .27-.16.5-.38.5-.2 0-.25-.06-.62-.5-.74-.88-1.48-1.28-1.92-1.52l.1-.23zm1.12-1c1.67.06 2.95.84 2.95 1.56 0 .25-.15.46-.38.46-.15 0-.2-.06-.77-.58-.78-.75-1.54-1.06-1.9-1.22l.1-.22z"/><use xlink:href="#B" y="29"/><path d="M31.2 273.5c3.63-1.76 5.5-4.32 6.2-5.37-1.25-.96-2.63-1.8-3.76-2.42l.1-.2c1.36.34 2.63.84 4.2 1.8.9-1.46 1.64-3.16 1.64-3.64 0-.4-.3-.62-.7-.88l.06-.22c.13-.03.27-.07.47-.07.8 0 1.7.86 1.7 1.22 0 .2-.07.28-.3.56-.24.28-.3.38-.78 1.4l-1.22 2.2c1.15.86 2.4 1.9 2.4 2.7 0 .5-.27.66-.44.66-.22 0-.3-.1-.74-.62a12.85 12.85 0 0 0-1.82-1.83c-2.15 3.02-4.3 4.28-6.92 4.93l-.1-.22zm.72 5.3c2.17.68 3.14 2.07 3.14 2.9 0 .5-.3.84-.62.84-.35 0-.5-.27-.7-.78a8.63 8.63 0 0 0-1.93-2.77l.12-.18zm7.85-.48a2.4 2.4 0 0 1 .47-.06c.8 0 1.87.93 1.87 1.37 0 .15-.06.24-.32.63-.22.33-.8 1.93-.94 2.26-1.58 3.73-3.97 5.52-7.5 6.26l-.07-.2c1.33-.56 3.98-1.8 5.77-4.85 1.06-1.8 1.48-3.8 1.48-4.16 0-.53-.47-.83-.83-1.05l.07-.2zm.64-1.7c1.6.24 2.76 1.1 2.76 1.8 0 .3-.18.5-.38.5-.22 0-.28-.07-.62-.52-.55-.7-1.06-1.1-1.87-1.56l.1-.2zm1.04-1.1c1.8.13 2.9.94 2.9 1.62 0 .3-.2.46-.37.46-.2 0-.25-.04-.63-.46-.78-.84-1.55-1.2-2-1.42l.08-.2zm-8.98 16.5c.4.1 3.92.83 3.92 2.48 0 .4-.2.75-.5.75-.25 0-.4-.2-.74-.65-.44-.6-1.25-1.45-2.8-2.4l.1-.2zm.35 8.26c.2.27.55.74 1 .74.77 0 5.86-2.85 9.03-7.2l.2.1c-1.62 3.84-5.24 6.23-7.83 7.83-.27.16-.47.3-.63.44-.3.24-.38.32-.55.32-.44 0-1.46-.87-1.46-1.77 0-.16.03-.3.06-.4l.2-.06z"/><defs ><path id="B" d="M32.47 220.8c.4.1 3.92.83 3.92 2.48 0 .4-.2.75-.5.75-.25 0-.4-.2-.74-.65-.44-.6-1.25-1.45-2.8-2.4l.1-.2zm.35 8.27c.2.27.55.74 1 .74.77 0 5.86-2.85 9.03-7.2l.2.1c-1.62 3.84-5.24 6.23-7.83 7.83-.27.16-.47.3-.63.44-.3.24-.38.32-.55.32-.44 0-1.46-.87-1.46-1.77 0-.16.03-.3.06-.4l.2-.06z"/></defs></svg>