<svg xmlns="http://www.w3.org/2000/svg" xmlns:xlink="http://www.w3.org/1999/xlink" viewBox="0 0 263.34 50.73" xmlns:v="https://vecta.io/nano"><g fill="#366625"><path d="M.57 25.92c0 6.52.98 9 1.23 10.1 1.16 3.27 2.06 5.7 3.77 7.53.08.1.17.18.26.27s.17.18.26.27c1.76 1.77 4.1 2.7 7.27 3.9 1.06.25 3.46 1.27 9.76 1.27h.47c6.3 0 8.7-1.02 9.76-1.27 3.16-1.2 5.5-2.14 7.27-3.9.1-.1.17-.18.26-.27s.17-.18.26-.27c1.7-1.82 2.6-4.26 3.77-7.53.25-1.1 1.23-3.58 1.23-10.1v-.08c0-6.52-.98-9-1.23-10.1-1.16-3.27-2.06-5.7-3.77-7.53-.08-.1-.17-.18-.26-.27s-.17-.18-.26-.27c-1.76-1.77-4.1-2.7-7.27-3.9C32.3 3.5 29.9 2.5 23.6 2.5h-.47c-6.3 0-8.7 1.02-9.76 1.27C10.2 4.97 7.87 5.9 6.1 7.7c-.1.08-.17.17-.26.26-.08.1-.17.18-.25.27-1.7 1.82-2.6 4.26-3.77 7.53C1.57 16.85.6 19.33.6 25.85v.08zm49.7 0c0 6.52.98 9 1.23 10.1 1.16 3.27 2.06 5.7 3.77 7.53.08.1.17.18.26.27s.17.18.26.27c1.76 1.77 4.1 2.7 7.27 3.9 1.06.25 3.46 1.27 9.76 1.27h.47c6.3 0 8.7-1.02 9.76-1.27 3.16-1.2 5.5-2.14 7.27-3.9.1-.1.17-.18.26-.27s.17-.18.26-.27c1.7-1.82 2.6-4.26 3.77-7.53.25-1.1 1.23-3.58 1.23-10.1v-.08c0-6.52-.98-9-1.23-10.1-1.16-3.27-2.06-5.7-3.77-7.53a6.5 6.5 0 0 0-.26-.27c-.1-.1-.17-.18-.26-.27-1.76-1.77-4.1-2.7-7.27-3.9C82 3.5 79.6 2.5 73.3 2.5h-.47c-6.3 0-8.7 1.02-9.76 1.27-3.16 1.2-5.5 2.14-7.27 3.9-.1.1-.17.18-.26.27s-.17.18-.26.27c-1.7 1.82-2.6 4.26-3.77 7.53-.25 1.1-1.23 3.58-1.23 10.1v.07zm77.08-6.66c-.96 0-1.43.25-1.43.75v6.4c0 1.4-.37 2.45-1.12 3.17-.75.7-1.8 1.07-3.2 1.07-.62 0-1.16-.08-1.63-.24s-.87-.37-1.2-.65a2.76 2.76 0 0 1-.72-.96c-.17-.36-.25-.75-.25-1.18 0-.46.12-.82.37-1.1.24-.27.58-.4 1-.4.4 0 .72.1.94.34s.33.5.33.86a1.17 1.17 0 0 1-.3.8c-.2.22-.45.33-.76.37a.74.74 0 0 0 .25.4 2.49 2.49 0 0 0 .44.32c.17.1.36.16.57.2s.42.07.63.07a2.54 2.54 0 0 0 .94-.17 1.52 1.52 0 0 0 .69-.54c.2-.25.33-.58.42-1 .1-.4.14-.9.14-1.5V20c0-.5-.47-.75-1.42-.75v-.95h5.3v.96z"/><use xlink:href="#B"/><path d="M154.26 28.7c0 .5.45.73 1.35.73v.93H151v-.93c.7 0 1.05-.24 1.05-.73v-3.6c0-.68-.08-1.17-.23-1.46a.76.76 0 0 0-.7-.44c-.48 0-.93.2-1.36.57s-.8.9-1.1 1.6v3.35c0 .5.34.73 1.02.73v.93h-4.25v-.93c.7 0 1.05-.24 1.05-.73v-3.6c0-.68-.08-1.17-.24-1.46a.78.78 0 0 0-.73-.44c-.48 0-.93.2-1.37.57s-.8.9-1.07 1.6v3.35c0 .5.35.73 1.05.73v.93h-4.57v-.93c.9 0 1.34-.24 1.34-.73v-4.96c0-.5-.45-.73-1.34-.73v-.92h3.52l-.01 1.7c.17-.24.36-.47.58-.7s.46-.43.73-.6.57-.3.9-.42a3.8 3.8 0 0 1 1.1-.15c.6 0 1.1.15 1.5.46s.65.8.74 1.44c.35-.53.8-.98 1.37-1.35s1.2-.55 1.94-.55c.7 0 1.25.2 1.66.57s.6 1 .6 1.85v4.35zm5.86-5.75c.22-.37.57-.66 1.05-.87.47-.2 1.03-.32 1.67-.32a5.29 5.29 0 0 1 1.45.2c.46.13.86.37 1.2.7s.62.78.82 1.33c.2.56.3 1.26.3 2.1 0 .9-.1 1.65-.3 2.23-.2.6-.5 1.05-.84 1.4a2.92 2.92 0 0 1-1.24.72c-.48.14-1 .2-1.53.2a3.63 3.63 0 0 1-1.19-.18c-.35-.12-.65-.27-.9-.45s-.45-.37-.6-.57a1.77 1.77 0 0 1-.29-.56l-.5 1.48h-1.3V19.52c0-.5-.46-.73-1.37-.73v-.93h3.55v5.1zm2.08-.07c-.4 0-.77.08-1.06.24s-.53.4-.7.68-.3.64-.4 1.04-.12.84-.12 1.33.04.93.12 1.34.2.75.4 1.04a1.9 1.9 0 0 0 .71.67c.3.16.65.24 1.06.24s.76-.08 1.05-.24.52-.4.7-.67a2.86 2.86 0 0 0 .4-1.04 6.88 6.88 0 0 0 .12-1.34c0-.5-.04-.93-.12-1.33s-.2-.75-.4-1.04-.42-.52-.7-.68-.63-.24-1.05-.24z"/><use xlink:href="#C"/><use xlink:href="#D"/><path d="M211.1 19.26c-.96 0-1.43.25-1.43.75v8.7c0 .5.48.75 1.43.75v.93h-5.22v-.93c.95 0 1.42-.25 1.42-.75v-8.52l-3.5 10.2h-2.07l-3.5-10.2v8.52c0 .5.47.75 1.42.75v.93h-4.16v-.93c.95 0 1.42-.25 1.42-.75V20c0-.5-.47-.75-1.42-.75v-.96h4.75l3.15 9.5 3.15-9.5h4.54v.96z"/><use xlink:href="#B" x="84.52"/><path d="M227.98 28.7c-.02.5.44.73 1.4.73v.93h-4.94v-.93c.9 0 1.37-.24 1.37-.73v-4.94c0-.5-.46-.75-1.37-.75v-.92H228v6.6zm.2-9.34a1.35 1.35 0 0 1-.4.98 1.25 1.25 0 0 1-.96.41 1.32 1.32 0 0 1-.53-.11c-.17-.08-.3-.18-.43-.3a1.35 1.35 0 0 1-.29-.44 1.41 1.41 0 0 1-.11-.54c0-.4.13-.72.4-.98s.6-.4.96-.4a1.28 1.28 0 0 1 .96.41 1.42 1.42 0 0 1 .38.97zm10.4 5.7l-.94.1c-.12-.76-.43-1.32-.93-1.7s-1.14-.55-1.9-.55c-.45 0-.8.1-1.08.27a.79.79 0 0 0-.4.72c0 .35.14.6.42.77s.63.3 1.05.4l1.36.3a6.34 6.34 0 0 1 1.36.41 2.81 2.81 0 0 1 1.05.77c.28.33.42.78.42 1.36 0 .4-.07.77-.22 1.1a2.21 2.21 0 0 1-.63.79c-.27.2-.6.37-.96.47a4.71 4.71 0 0 1-1.23.15c-.64 0-1.16-.05-1.58-.16-.4-.1-.76-.26-1.05-.47l-.23-.13a.55.55 0 0 0-.23-.07c-.02 0-.08.06-.17.2a1.22 1.22 0 0 0-.2.54h-.92v-3.12l.92-.1a2.37 2.37 0 0 0 .37.99c.2.3.44.54.73.74s.62.36 1 .46a3.89 3.89 0 0 0 1.12.16c.5 0 .9-.1 1.16-.32a.97.97 0 0 0 .39-.79c0-.33-.14-.6-.42-.75-.28-.17-.63-.3-1.05-.4l-1.36-.3a6.36 6.36 0 0 1-1.36-.43c-.42-.2-.77-.45-1.05-.8-.28-.33-.42-.8-.42-1.38 0-.75.25-1.33.76-1.75s1.23-.63 2.17-.63a4.4 4.4 0 0 1 1.35.2c.4.13.75.28 1 .43l.24.14c.07.04.15.06.22.06.03 0 .1-.06.17-.18a1.83 1.83 0 0 0 .21-.5h.9v3z"/><use xlink:href="#C" x="72.08"/><use xlink:href="#D" x="71.77"/></g><defs ><path id="B" d="M136.18 28.78c0 .48.16.72.48.72a.34.34 0 0 0 .33-.22 1.15 1.15 0 0 0 .11-.5v-.96h.75v.73c0 .36-.04.66-.13.9s-.2.45-.37.6-.35.26-.57.33a2.3 2.3 0 0 1-.71.1c-.3 0-.53-.05-.73-.14s-.37-.2-.5-.37a1.62 1.62 0 0 1-.32-.52 3.15 3.15 0 0 1-.17-.62c-.12.24-.28.46-.5.68s-.45.4-.74.58a4.03 4.03 0 0 1-.97.4c-.36.1-.75.15-1.16.15-1 0-1.73-.2-2.2-.62-.46-.42-.7-.98-.7-1.7 0-.43.08-.8.25-1.08.16-.3.4-.53.68-.72s.63-.35 1.02-.46l1.24-.3 1.37-.27 1.4-.33v-.5c0-.27-.04-.53-.1-.76-.07-.24-.18-.45-.33-.62a1.55 1.55 0 0 0-.58-.42c-.23-.1-.5-.15-.83-.15-.54 0-1 .05-1.36.16-.37.1-.66.25-.88.44a1.1 1.1 0 0 1 .62.24c.17.14.25.34.25.6a1.01 1.01 0 0 1-.29.74c-.2.2-.47.28-.84.28s-.65-.1-.84-.3-.28-.48-.28-.84c0-.27.08-.54.25-.8s.4-.5.73-.73a4.1 4.1 0 0 1 1.19-.52c.47-.13 1-.2 1.62-.2.5 0 .96.05 1.42.14s.86.25 1.2.47.63.53.84.9c.2.4.3.87.3 1.46v4.03zm-2.1-2.97l-1.77.48c-.5.15-.9.3-1.24.47s-.57.36-.73.58-.24.5-.24.8c0 .4.13.7.4.9.26.22.67.32 1.2.32s1.02-.13 1.44-.4.73-.57.93-.92V25.8z"/><path id="C" d="M177.3 26.2c0 1.42-.38 2.5-1.15 3.28-.76.77-1.87 1.16-3.33 1.16a6.76 6.76 0 0 1-1.64-.2 3.33 3.33 0 0 1-1.36-.7c-.4-.33-.7-.77-.93-1.3-.23-.55-.35-1.23-.35-2.04 0-1.48.37-2.62 1.1-3.4s1.85-1.2 3.36-1.2c.58 0 1.14.07 1.66.22.53.15.98.4 1.37.73s.7.8.92 1.35.35 1.27.35 2.1zm-4.3-3.35c-.8 0-1.37.26-1.73.8s-.54 1.28-.54 2.27c0 .74.05 1.34.14 1.82s.24.85.42 1.13c.2.28.4.47.67.58s.56.16.9.16c.84 0 1.42-.3 1.76-.86s.5-1.4.5-2.44c0-.68-.05-1.25-.15-1.7s-.25-.8-.44-1.06-.42-.44-.67-.54c-.26-.1-.55-.16-.87-.16z"/><path id="D" d="M188.46 28.7c0 .5.47.73 1.4.73v.93h-4.65v-.93c.7 0 1.07-.24 1.07-.73v-3.6c0-.68-.1-1.17-.32-1.46s-.5-.44-.86-.44a2.14 2.14 0 0 0-.82.16 2.91 2.91 0 0 0-.77.46c-.24.2-.47.42-.67.7s-.37.55-.5.85v3.35c0 .5.36.73 1.07.73v.93h-4.62v-.93c.9 0 1.37-.24 1.37-.73v-4.96c0-.5-.46-.73-1.37-.73v-.92h3.55v1.66c.4-.53.9-.97 1.52-1.3s1.3-.5 2.08-.5c.8 0 1.42.2 1.86.57s.66 1 .66 1.85v4.35z"/></defs></svg>