<svg xmlns="http://www.w3.org/2000/svg" viewBox="0 0 444.91 500.08">
  <defs>
    <style>
      .cls-1 {
        fill: #040000;
      }
    </style>
  </defs>
  <g id="Layer_2" data-name="Layer 2">
    <g id="レイヤー_1" data-name="レイヤー 1">
      <g>
        <path class="cls-1" d="M424,14.28c0,.72-.48,1.73-1.31,1.73-.52,0-.69-.21-1.21-1.07a9,9,0,0,0-3.16-2.85c-.1-.07-.34-.2-.34-.34,0-.52,2.21-.52,2.42-.52C421.93,11.23,424,12.58,424,14.28ZM420,24.92c-.11-.21-.66-.94-.73-1.11a1.4,1.4,0,0,1-.17-.63.25.25,0,0,1,.27-.27c.11,0,1.67.55,2,.55,1.87,0,11.3-5.16,17.4-10.78.38-.38,2.39-2.42,2.49-2.42a.22.22,0,0,1,.21.21c0,.06-1.73,5.44-15.32,14-2.11,1.32-2.25,1.43-2.53,1.63-1.28,1-1.42,1.11-1.8,1.11C421.07,27.2,420.65,26.41,420,24.92Zm8.28-17.57c0,.9-.59,1.63-1.15,1.63-.38,0-.51-.18-1.73-1.6a5.84,5.84,0,0,0-3-1.87c-.49-.17-.52-.17-.52-.31,0-.38,1.59-.73,2.63-.73a4.73,4.73,0,0,1,1.77.35A3,3,0,0,1,428.24,7.35Zm11.61-1.6c0,.42-.45,1.32-1.11,1.32s-.83-.38-1.7-1.73A10.5,10.5,0,0,0,434.82,3c-.14-.11-.45-.42-.45-.56s.42-.24.63-.24C437,2.22,439.85,3.92,439.85,5.75Zm3.64-2.35a1,1,0,0,1-.94,1.1c-.73,0-1.21-.72-1.7-1.52A8.62,8.62,0,0,0,438,.73c-.31-.18-.38-.35-.38-.42,0-.31.7-.31,1.32-.31C439.88,0,443.49,1,443.49,3.4Z"/>
        <path class="cls-1" d="M442.24,38.05c0,.55-.52.72-1.11.93a7.93,7.93,0,0,0-2.5,1.49,14.47,14.47,0,0,1-3.15,1.91c-.14,0-.14-.14-.14-.17,0-.39,3-3.61,3-4.47,0-.28-.28-.28-.42-.28s-4.36,1-4.82,1.11c-1.24.27-1.38.31-1.38.9a81,81,0,0,0,3,9.25c.8,2.05,1,2.53,1,3.19s-.35,1.45-.73,1.45a3.65,3.65,0,0,1-2.08-2c-.17-.56-2-8.6-2.53-10.19-.41-1.42-.45-1.56-.93-1.56a22.19,22.19,0,0,0-3.16.8,20.78,20.78,0,0,1-2.56,1c-.31,0-.49-.1-2-1.11A1.41,1.41,0,0,1,421,39s0-.87.31-.87a4.41,4.41,0,0,1,1,.28,4.73,4.73,0,0,0,1.67.24,23.46,23.46,0,0,0,4.81-.66c.35-.1.49-.24.49-.55a6.19,6.19,0,0,0-1.7-3.85c-.1-.1-.69-.41-.8-.52a.18.18,0,0,1-.07-.17c0-.56,1.46-.56,1.74-.56,1.38,0,2.56.28,2.56,1.39,0,1.7,0,3.57.8,3.57a30.86,30.86,0,0,0,5.13-1.11,18.28,18.28,0,0,1,2.08-.87C439.92,35.34,442.24,37.15,442.24,38.05Z"/>
        <path class="cls-1" d="M428.55,75.61a24.27,24.27,0,0,0-3.4,2.84c-.65.8-.72.87-1.24.87-1.87,0-4.44-2.22-4.44-3.61,0-.24,0-1.83.35-1.83a8.56,8.56,0,0,1,1,.66,5.82,5.82,0,0,0,2.35.79c1.7,0,10.88-6.13,16.64-11.81A21.54,21.54,0,0,1,441.44,62a.23.23,0,0,1,.17.17C441.61,62.48,437.56,69,428.55,75.61Zm-2.84-11.4c-.94,0-1.28-.56-2.43-2.29a7.75,7.75,0,0,0-3.15-2.84c-.14-.07-.31-.17-.31-.31s.27-.31.76-.31c3.71,0,6.62,2,6.62,4A1.53,1.53,0,0,1,425.71,64.21Z"/>
        <path class="cls-1" d="M416.14,103.71c0-.66.32-1,1.32-1.63a29.16,29.16,0,0,0,3.4-2.67c.17-.17.55-.51.69-.51s.17.31.17.41c0,1.63-1.63,5.82-3.91,5.82a1.66,1.66,0,0,1-.66-.14A1.4,1.4,0,0,1,416.14,103.71ZM429.73,106c0,.52,0,2.81-1.84,2.81-.76,0-.83-.21-1.56-2.22a9.65,9.65,0,0,0-1.28-2.46c-.14-.25-.21-.31-.21-.42a.13.13,0,0,1,.14-.14c.24,0,1.39.45,1.63.45.45,0,.62-.38.69-.93.18-1.63.18-5.1.18-7,0-1.66-.07-2.28-1-2.28-.21,0-4.37.58-6.41,1.1a10.32,10.32,0,0,1-1.39.39c-.76,0-2.49-2.36-2.49-3,0-.18,0-.32.24-.32a2,2,0,0,1,.66.21,10.13,10.13,0,0,0,3.08.35c.8,0,4.54-.21,5.58-.24,1.32-.07,1.67-.32,1.67-1.46a12.64,12.64,0,0,0-.73-4.43c-.07-.18-.66-.73-.66-.91s.38-.34,1.18-.34c2.39,0,3.26,1.52,3.26,1.8a7,7,0,0,1-.63,1.14,8.72,8.72,0,0,0-.31,2.67c0,1.08.45,1.25,1.35,1.25a30.43,30.43,0,0,0,3.36-.35c.45-.07,2.29-.52,2.67-.52a7.25,7.25,0,0,1,3.36,1.18c.38.24.87.52.87,1.11s-.76.69-.9.69c-.52,0-2.77-.38-3.26-.45-1.32-.14-3.85-.17-4.12-.17-3,0-3.3,0-3.3,2C429.55,97.13,429.73,104.51,429.73,106Zm8.35-2.5a12.36,12.36,0,0,0-2.81-4.26,7.84,7.84,0,0,1-1.38-1.45c0-.18.17-.18.24-.18,1.84,0,7.41,3.36,7.41,6.27,0,.8-.41,2-1.55,1.91C439,105.79,438.7,105,438.08,103.5Zm1.7-16.94a2.79,2.79,0,0,1,1.52,2c0,.7-.41,1.36-1,1.36-.41,0-.69-.14-1.87-1.39a9.75,9.75,0,0,0-2.6-1.87c-.17-.11-.55-.35-.55-.49s.27-.34.59-.34C437.77,85.8,438.56,85.8,439.78,86.56Zm4.22-.69c0,.41-.27,1-.86,1s-1.18-.51-1.8-1.31a8.38,8.38,0,0,0-3-1.94c-.34-.14-.45-.28-.45-.38s.63-.42,1.28-.42C442,82.85,444,84.38,444,85.87Z"/>
        <path class="cls-1" d="M428.55,131.47a24.27,24.27,0,0,0-3.4,2.84c-.65.79-.72.86-1.24.86-1.87,0-4.44-2.21-4.44-3.6,0-.24,0-1.84.35-1.84a8.56,8.56,0,0,1,1,.66,5.68,5.68,0,0,0,2.35.8c1.7,0,10.88-6.13,16.64-11.82.55-.55,1.52-1.52,1.59-1.52a.21.21,0,0,1,.17.17C441.61,118.33,437.56,124.81,428.55,131.47Zm-2.84-11.4c-.94,0-1.28-.56-2.43-2.29a7.75,7.75,0,0,0-3.15-2.84c-.14-.07-.31-.18-.31-.31s.27-.32.76-.32c3.71,0,6.62,2,6.62,4A1.54,1.54,0,0,1,425.71,120.07Z"/>
        <path class="cls-1" d="M426.47,147.51a2.29,2.29,0,1,1,2.29,2.29A2.29,2.29,0,0,1,426.47,147.51Z"/>
        <path class="cls-1" d="M427.06,167.78a19.38,19.38,0,0,0,2.18.94c.73,0,1.74-2.43,2.15-3.44a16.78,16.78,0,0,0,1.28-4.15,1.51,1.51,0,0,0-.24-.8c-.1-.21-.21-.31-.21-.42a.29.29,0,0,1,.28-.31,5.36,5.36,0,0,1,2.32,1.11,4.53,4.53,0,0,1,1.49,2.5c0,.27-.1.31-.86.69-.39.21-.49.38-1.39,2.08-.59,1.14-1.25,2.32-2,3.46a1.65,1.65,0,0,0-.34.87,1.36,1.36,0,0,0,.59.93c3,2.64,3.39,4.51,3.39,5.38a1.08,1.08,0,0,1-1.11,1.14c-1.24,0-1.76-.9-3-3-.34-.62-1-1.8-1.49-1.8a1,1,0,0,0-.72.48c-6.34,7.94-13.28,10.88-13.59,10.88-.1,0-.24,0-.24-.17s.66-.66,1.07-1c5.89-4.61,8.22-7.32,9.19-8.49s2.49-3.19,2.49-3.71c0-.73-3.19-2.64-4.5-3.36-.66-.35-.73-.38-.73-.56s.07-.27.31-.27A14,14,0,0,1,427.06,167.78Z"/>
        <path class="cls-1" d="M424.11,199.87c0,1.66-1.21,1.87-1.42,1.87-.76,0-.9-.21-2.42-2.84a15.28,15.28,0,0,0-2.77-3.36c-.07-.07-.21-.21-.21-.32s.21-.1.28-.1C419,195.43,424.11,196.4,424.11,199.87Zm13-2.08c-.41.66-1.94,3.88-2.28,4.5a30.88,30.88,0,0,1-10.33,11.51,18.84,18.84,0,0,1-3.85,1.9.18.18,0,0,1-.17-.17c0-.14,3.12-2.74,3.67-3.26,8.39-7.66,10.43-16.28,10.43-16.77a2.63,2.63,0,0,0-1-1.77s-.18-.17-.18-.27c0-.32.76-.32.9-.32a3.13,3.13,0,0,1,2.53,1c.35.32,1.46,1.29,1.46,2C438.29,196.47,437.25,197.54,437.07,197.79Zm5.65-4.75c0,.76-.45,1.39-1,1.39s-.66-.14-1.84-1.39a10.37,10.37,0,0,0-2.63-1.84c-.18-.1-.56-.34-.56-.48s.28-.31.59-.35C440.61,190,442.72,192,442.72,193ZM441,187.39c2.84,0,3.88,1.63,3.88,2.39a.93.93,0,0,1-.91,1c-.65,0-.9-.21-1.8-1a8.81,8.81,0,0,0-3.32-1.35c-.35-.07-.52-.21-.52-.32s.55-.52,1.18-.62A8.52,8.52,0,0,1,441,187.39Z"/>
        <path class="cls-1" d="M428.55,238a25,25,0,0,0-3.4,2.84c-.65.8-.72.87-1.24.87-1.87,0-4.44-2.22-4.44-3.6,0-.25,0-1.84.35-1.84a8.56,8.56,0,0,1,1,.66,5.68,5.68,0,0,0,2.35.8c1.7,0,10.88-6.14,16.64-11.82a21.54,21.54,0,0,1,1.59-1.53.23.23,0,0,1,.17.18C441.61,224.85,437.56,231.33,428.55,238Zm-2.84-11.4c-.94,0-1.28-.55-2.43-2.28a7.87,7.87,0,0,0-3.15-2.85c-.14-.07-.31-.17-.31-.31s.27-.31.76-.31c3.71,0,6.62,2,6.62,4A1.53,1.53,0,0,1,425.71,226.58Z"/>
        <path class="cls-1" d="M375.68,15c0,.62-.21,1-.73,1s-.76-.32-.76-1V6.69c0-.94-.21-.94-4.37-.94-3.88,0-21.1.07-24.64,0-.8,0-1.11-.18-1.11-.7,0-.76.24-.76,2.29-.76h27.9a1.28,1.28,0,0,1,1.42,1.46Z"/>
        <path class="cls-1" d="M368,26.2c1.56,0,1.73,0,2.22-.59,1.38-1.73,1.56-1.91,2-1.91s.55,0,3,2.15c.55.49.83.73.83,1,0,.49-.21.49-1.91.49H350.24c-2.91,0-3.95.07-4.37.1l-.72.07c-.14,0-.21-.1-.31-.2l-.73-1c0-.07-.18-.25-.18-.32s.11-.07.14-.07c.18,0,1.25.14,1.46.14,1.11.11,3.81.11,4.82.11Z"/>
        <path class="cls-1" d="M354,67.08c-.38,0-.87,0-1,.59a1.74,1.74,0,0,1-2,1.49c-.9,0-.9-.48-.9-.76s.14-2.53.17-3c.11-1.63.11-6.14.11-7.9,0-1.29,0-1.43-.32-1.43a8.85,8.85,0,0,0-1,.49c-3.43,1.87-4.92,2.11-5.06,2.11s-.24-.1-.24-.2.14-.25,1.18-.8a36,36,0,0,0,9.63-8.32,7.46,7.46,0,0,0,.9-1.52c0-.28-.24-.31-.86-.31h-4c-.8,0-3.15,0-4.36.1-.14,0-.66.07-.77.07s-.17-.07-.27-.21l-.7-.8c-.14-.13-.14-.17-.14-.24s0-.07.11-.07c.24,0,1.32.11,1.56.14,1.56.07,3.12.1,4.75.1h.79c.42,0,.66,0,.66-.27,0-.11-1-3.74-1.9-4.33-.35-.25-.59-.25-1.46-.32-1.42-.1-1.56-.1-1.56-.34s.1-.24,1.18-.38a122.54,122.54,0,0,0,17.39-3c.32-.07,1.74-.66,2.05-.66.69,0,2.94,2.32,2.94,2.67,0,.14-.13.31-.45.31-.13,0-.76-.11-.9-.11s-1.59.07-1.59.35.83.73.93.8c.77.48.87.59.87.93s0,.25-.94.63-4.12,3.46-4.12,3.53.11.17.56.17h3c1.18,0,1.36,0,2-.83s1.24-1.52,1.48-1.52,3.54,2.42,3.54,2.87-1,.39-2.05.39H362.54c-.27,0-.41,0-.41.2S366,54,375,55.3c1.29.21,1.49.25,1.49.38s-.41.32-.69.38a3.93,3.93,0,0,0-2.43,1.81c-.17.34-.31.69-.58.69a3,3,0,0,1-1.63-.87c-.35-.27-.42-.31-.52-.31-.28,0-.63.35-.73.49-.62.62-.62,1.18-.62,2.42s.17,6.07.17,7.07c0,.59-.07.8-.38,1a3.31,3.31,0,0,1-1.63.59c-.66,0-.69-.25-.83-1.22-.07-.52-.59-.66-1-.66Zm11-10.6a2,2,0,0,0,1.49-.42c.21-.17.84-.72.84-1s0-.17-.49-.55a21.23,21.23,0,0,1-5-5.58,9.16,9.16,0,0,0-.62-1c-.14,0-.14.07-.14.42,0,.83,0,4.74,0,5.65a1.62,1.62,0,0,1-.45,1.31,2.13,2.13,0,0,1-1.28.59c-.9,0-.9-.66-.9-1,0-.8.28-4.75.28-5.65,0-.45,0-.66-.25-.66s-.76.69-.83.8a30.74,30.74,0,0,1-4.95,4.85c-.8.59-.9.66-.9.8s.1.2.86.79a2.35,2.35,0,0,0,1.91.66ZM357.8,46.6c.55,0,.86-.2.93-.69,0-.14,0-.52,0-3.91,0-.39-.11-.7-.56-.7-.24,0-4.54.35-5.4.38s-.8,0-.8.18.66.48.86.66a3.44,3.44,0,0,1,1.67,2.8c0,.14-.11.8-.11.94,0,.34.18.34.84.34Zm-4,10.78c-1,0-1,.63-1,1.53,0,1.94,0,2.32,1,2.32h3.71c1,0,1-.63,1-1.53,0-1.83,0-2.32-1-2.32Zm0,4.75c-1,0-1,.48-1,2.08s0,2,1,2h3.64c1,0,1-.41,1-2.46,0-1,0-1.59-1-1.59Zm8.11-4.75c-1,0-1,.49-1,2.46,0,.76,0,1.39,1,1.39h3.88c1,0,1-.66,1-1.35,0-2.08-.07-2.5-1-2.5Zm3.81,8.8c1,0,1.08-.34,1.08-2.42,0-1.11,0-1.63-1.08-1.63H362c-1,0-1,.55-1,1.35,0,2.43,0,2.7,1.07,2.7ZM362.65,46.6a1.4,1.4,0,0,0,1.38-.79c.73-1.18,2.19-3.71,2.19-4.85,0-.21-.07-.35-.32-.35s-1.56.14-3,.28c-1.62.14-1.8.17-1.9.45s0,2.74,0,4.12c0,.63,0,1.14,1,1.14Z"/>
        <path class="cls-1" d="M360.6,77.79a37.7,37.7,0,0,0,5,15.87c.59.94,4.5,7.28,9.84,8.66.1,0,.34.11.34.25s-.1.17-1.21.41a7.06,7.06,0,0,0-2.39,1c-.66.49-.76.59-.87.59s-4.53-2.74-7.9-10.08a37.52,37.52,0,0,1-3.32-13.41c0-.38,0-.42-.18-.42s-.2.14-.34,1.39-1,9.18-4.44,14.83a19.17,19.17,0,0,1-10.08,8.25c-.11,0-.21,0-.21-.18s.17-.24.45-.41a25.69,25.69,0,0,0,8.21-8.91c4-7.52,4-17.43,4-17.81a9.32,9.32,0,0,0-.14-2.11,5.73,5.73,0,0,1-.13-.7.29.29,0,0,1,.27-.27c.21,0,1.7.48,2,.55,1.67.45,2.36.66,2.36,1.28,0,.38-.28.49-.59.56s-.45.07-.55.2A.68.68,0,0,0,360.6,77.79Z"/>
        <path class="cls-1" d="M353.32,116.18a2.66,2.66,0,0,0-2.39,1.18c-3.36,3.74-6.06,5-6.48,5-.07,0-.14,0-.14-.07s1.6-1.76,1.88-2.08a33.17,33.17,0,0,0,5.44-8.63c.17-.38.48-1.17.69-1.17s3.19,1.21,3.19,1.9c0,.28-.24.35-.83.56S353,114.76,353,115s.38.28.56.28H366.7c1.46,0,1.63,0,1.87-.24s1.39-1.84,1.77-1.84,2.7,1.94,2.7,2.49-.62.52-1.87.52Zm7.28,23.95c-1,0-1.45-.73-2-1.7-.18-.31-1.35-2.29-2.15-2.29-.31,0-.49.11-1.14.7-4.44,3.81-8.91,5.4-9.71,5.4-.1,0-.21,0-.21-.17a8.44,8.44,0,0,1,1.77-1.08c3.74-1.9,7.42-5.85,7.42-6.61,0-1.11-5.89-4.68-5.89-5.13,0-.11.14-.14.17-.14a27.58,27.58,0,0,1,4,1.59,35.57,35.57,0,0,0,3.26,1.56c.76,0,2.39-3.29,2.87-5.13.25-.9.25-1,.45-1s2.91,1.28,2.91,2c0,.31-.2.45-.55.63-.52.27-.69.55-2.22,2.87-.14.25-.83,1.22-1,1.42a1.39,1.39,0,0,0-.21.56c0,.34.14.48,1.25,1.56.49.45,2.39,2.28,2.39,3.57A1.3,1.3,0,0,1,360.6,140.13Zm-7.76-15c-.8,0-3.15,0-4.37.11-.14,0-.62.07-.72.07s-.21-.07-.32-.21l-.69-.8c-.1-.14-.14-.17-.14-.24s0-.07.14-.07,1.32.1,1.53.14c1.59.07,3.11.1,4.74.1h14.73a1.91,1.91,0,0,0,.9-.17c.31-.14,1.49-1.14,1.8-1.14.56,0,2.12,1.94,2.12,2.25s-.21.45-.87.73c-1.11.52-1.14,3.84-1.14,5.16,0,2.39.14,5.47,1.38,7,.28.35.84.9,1.22.9.86,0,1.66-5,2-5,.17,0,.17.17.17.24,0,.83-.45,4.37-.45,5.1,0,.38.59,2.11.59,2.49,0,.8-.66,1-1.18,1a5.35,5.35,0,0,1-3.85-2.35c-1.45-2-2.15-4.34-2.15-8.74a39.78,39.78,0,0,1,.21-4.64,8.92,8.92,0,0,0,.14-1.07c0-.52-.31-.84-1-.84Zm11-5.4c1.52,0,1.8,0,2.22-.59.83-1.18.9-1.32,1.28-1.32.87,0,2.36,2.15,2.36,2.36,0,.45-.7.45-1.84.45H355.92c-.76,0-3.15,0-4.36.1-.11,0-.63.07-.73.07s-.21-.07-.31-.21l-.66-.79c-.14-.14-.17-.18-.17-.25s.07-.06.13-.06c.25,0,1.32.1,1.53.13,1.59.07,3.15.11,4.75.11Z"/>
        <path class="cls-1" d="M344.42,148.58c0-.66.21-1,.73-1s.76.28.76,1v8.28c0,.94.21.94,4.37.94l24.63,0c.8,0,1.11.18,1.11.73,0,.76-.24.76-2.28.76h-27.9c-1,0-1.42-.55-1.42-1.49Z"/>
        <path class="cls-1" d="M360.08,169.48c0,.1.07.24.07.38a26.21,26.21,0,0,1,.35,3.74c0,2.32-.52,5.54-3.57,10.15-2.77,4.23-4.54,5.06-5.93,5.06-2.28,0-4.33-3.57-4.33-7.8a12.19,12.19,0,0,1,3.85-8.83,14.32,14.32,0,0,1,11.05-4.51,11.33,11.33,0,0,1,5.58,1.11,10.88,10.88,0,0,1,6,10.09,12.91,12.91,0,0,1-8.73,12.19,21.46,21.46,0,0,1-5.75,1.29c-.14,0-.35,0-.35-.25s.07-.14.94-.48c3.6-1.42,11.12-4.4,11.12-13,0-1.35-.14-9.6-9.6-9.6C360.12,169,360.08,169.27,360.08,169.48Zm-11.26,10.63c0,2.26.9,5.34,3,5.34,1,0,1.84-.42,4.23-4a19.79,19.79,0,0,0,3.4-10.08c0-2.08-.14-2.26-.59-2.26C355.58,169.09,348.82,173.56,348.82,180.11Z"/>
        <path class="cls-1" d="M361.05,201.91c.21.28,5.23,6.07,9.29,8.7.59.38,3.19,1.94,3.64,2.32a1.7,1.7,0,0,1,.76,1.28c0,.8-.83,1-1.46,1-1,0-3.63,0-12.23-10.39-.41-.49-2.11-2.64-2.49-3.05a1.64,1.64,0,0,0-1-.52c-.59,0-.63,0-5.51,4.54a7.34,7.34,0,0,0-1.56,1.76,2.23,2.23,0,0,1-1.73,1.08c-.73,0-1.32-.38-2.91-2a1.5,1.5,0,0,1-.42-1.08c0-.17,0-.41.24-.41s.9.14,1.08.14c1.59,0,3.36-.66,7.69-4.16,1.63-1.32,2.18-1.77,3.15-1.77C358.94,199.38,360.12,200.73,361.05,201.91Zm10.29,0c0,.48-.41,1.35-1,1.35s-.8-.28-1.77-1.6a9.94,9.94,0,0,0-2.36-2.18c-.17-.14-.52-.38-.52-.52s.35-.28.62-.28C369.51,198.65,371.34,200.73,371.34,201.88Zm3.12-2.71a1,1,0,0,1-.9,1.11c-.76,0-1.21-.69-1.73-1.49a8,8,0,0,0-2.77-2.29c-.35-.17-.42-.34-.42-.41,0-.31.69-.28,1.35-.28C370.89,195.85,374.46,196.82,374.46,199.17Z"/>
        <path class="cls-1" d="M361.92,223.43c0,.27-.42,1.45-.45,1.7-.11.93-.38,6.16-.38,7.34,0,1.67,0,7.18.07,8.46,0,.83.14,2.56.14,3.36s-.25,3.12-1.22,3.12c-.48,0-1.28-1.32-1.28-3.26,0-.73.14-4,.14-4.71,0-2.26.1-8.6.1-10.23,0-2.14,0-5-.73-6.23a3.26,3.26,0,0,0-.83-1,.48.48,0,0,1-.17-.32c0-.34.73-.72,1.21-.72S361.92,222,361.92,223.43Z"/>
        <path class="cls-1" d="M353.67,255.34c3.12,0,10.5-.62,11.26-1.11,1.25-.83,1.39-.9,1.7-.9.69,0,4,2.22,4,3.12,0,.31-.1.42-1.18,1.21-.62.45-.76,1-1.94,5.79-.07.31-.55,1.84-.55,2,0,.45.31.49.83.59.87.14,2.15.59,2.15,1.46s-1.6.93-1.87.93c-.87,0-4.72-.24-5.51-.24-2.15,0-8.74.73-9.29.87-.21,0-1.07.41-1.25.41-.62,0-2.67-1.56-2.67-2.77,0-.14.14-.24.32-.24s.9.14,1,.17a11.53,11.53,0,0,0,1.76.11,116.28,116.28,0,0,0,12-.9c.42-.21.56-.63.8-2.36.42-3,.73-6.07.73-6.76s-.14-.73-.52-.73c-1.08,0-9.67,1.39-11,1.7-.31.07-1.53.56-1.8.56-.77,0-3.23-2.12-3.23-2.81,0-.28.25-.35.42-.35S353.08,255.34,353.67,255.34Z"/>
        <path class="cls-1" d="M359.84,292.8a24.27,24.27,0,0,0-3.4,2.84c-.65.8-.72.87-1.24.87-1.88,0-4.44-2.22-4.44-3.61,0-.24,0-1.83.35-1.83a9.86,9.86,0,0,1,1,.65,5.68,5.68,0,0,0,2.35.8c1.7,0,10.88-6.13,16.64-11.81a21.54,21.54,0,0,1,1.59-1.53.21.21,0,0,1,.17.17C372.9,279.67,368.85,286.15,359.84,292.8ZM357,281.4c-.94,0-1.28-.56-2.43-2.29a7.75,7.75,0,0,0-3.15-2.84c-.14-.07-.31-.17-.31-.31s.27-.31.76-.31c3.71,0,6.62,2,6.62,4A1.53,1.53,0,0,1,357,281.4Z"/>
        <path class="cls-1" d="M375.23,306.21a3.84,3.84,0,0,1-3.89,3.81,3.85,3.85,0,0,1,0-7.69A3.91,3.91,0,0,1,375.23,306.21Zm-6.76,0a2.9,2.9,0,0,0,2.91,2.88,2.84,2.84,0,0,0,2.88-2.81,2.91,2.91,0,0,0-2.95-2.94A2.82,2.82,0,0,0,368.47,306.17Z"/>
        <path class="cls-1" d="M296.92,4.85c0,.52-.21.9-1.32,1.63a96.28,96.28,0,0,0-8,6.93,26.22,26.22,0,0,0-3.22,3.74c0,.14.14.21.31.21a45.76,45.76,0,0,0,6.17-2.08c3.71-1.42,5.58-2.11,7-2.11.76,0,3.22.45,3.22,1.7,0,.86-1.31,1.1-1.8,1.1L298,15.91c-2.77,0-9.39,1.35-9.39,6.3,0,3.26,2.18,3.78,6.2,4.71,1.74.42,2.08,1.46,2.08,1.77,0,.73-1.07,1.11-2.29,1.11-.24,0-7.38-.41-7.38-6.27a8.52,8.52,0,0,1,1.53-4.82,12.3,12.3,0,0,0,.83-1.07s0-.11-.14-.11a11.71,11.71,0,0,0-2.6,1.39c-1.87,1.35-2.35,1.7-3.43,1.7-1.42,0-1.8-1.7-1.8-2,0-.66.31-1,1.32-1.87.31-.25,6.37-7.42,7.65-8.7C291.65,7,293.76,4.78,293.76,4a.57.57,0,0,0-.59-.58A4,4,0,0,0,291,4.64c-.94,1-1.32,1.39-2.6,1.39-1.87,0-2.43-2.95-2.43-3.05a.25.25,0,0,1,.24-.28c.11,0,1.46.24,1.7.24a4,4,0,0,0,1.21-.17c3.4-.86,3.78-1,4.61-1A3.15,3.15,0,0,1,296.92,4.85Z"/>
        <path class="cls-1" d="M288.56,38.81a15.76,15.76,0,0,1-.65,1.94,82.55,82.55,0,0,0-1.46,12.34c0,3.5.66,6.61,5.3,6.61A17,17,0,0,0,299,57.9c.52-.24,3.15-1.7,3.29-1.7a.17.17,0,0,1,.18.18c0,.38-5.13,6-11.65,6-4.5,0-6.65-2.6-6.65-9.57,0-2.14.07-2.84.8-9.63.13-1.14.45-4,.45-5a4.3,4.3,0,0,0-.32-1.7c0-.11-.38-.9-.38-.94,0-.24.28-.35.49-.35C287,35.2,288.56,38,288.56,38.81Z"/>
        <path class="cls-1" d="M280.35,73.15c1.49,0,2-.14,6.76-1.49,3.08-.87,11-3.12,13.31-3.12,1.21,0,2.77.48,2.77,1.66a1.38,1.38,0,0,1-1.39,1.28c-.45,0-2.42-.38-2.84-.38-4.4,0-9.32,4.06-9.32,13,0,5.82,2.18,6.2,4.23,6.2.52,0,3-.21,3.29-.21,1.07,0,1.73.45,1.73,1.29,0,1.83-3.81,1.83-4,1.83-7.1,0-7.1-5.78-7.1-7.41s0-8.87,5.06-13.34a6.48,6.48,0,0,0,.83-.73c0-.07-.14-.07-.21-.07-2,0-9.18,3.08-10.29,3.71a2.59,2.59,0,0,1-1.21.45c-1.74,0-3.37-2.33-2.95-2.81C279.14,72.84,280.18,73.15,280.35,73.15Z"/>
        <path class="cls-1" d="M305.13,106c-.69,0-.83-.25-2-2.32a9.71,9.71,0,0,0-3.63-3.71c-.11-.07-.49-.28-.49-.42s.1-.24.38-.24c1.21,0,7.11,1.8,7.11,5.06A1.63,1.63,0,0,1,305.13,106Z"/>
        <path class="cls-1" d="M301.14,120a1.53,1.53,0,0,0,1.42-.73c.59-.66.94-.86,1.25-.86.59,0,2.36,2,2.36,2.53,0,.2-.66.9-.87,1.07a37.3,37.3,0,0,0-.1,3.88c0,2.6-.11,15.35-.11,18.23,0,2.22,0,3.39-.45,4.09a4.09,4.09,0,0,1-2.8,1.49.65.65,0,0,1-.59-.31,4.52,4.52,0,0,0-1.73-1.74c-.39-.24-3-1-3-1.42a.16.16,0,0,1,.17-.14c.1,0,1.28.18,1.52.21a17.74,17.74,0,0,0,2.39.18c1,0,1.43-.07,1.67-.28s.28-.52.34-2.95c.14-6.06.18-15.11.18-21.21,0-.58,0-1.14-1-1.14H281.29c-1,0-1,.45-1,1.94,0,2.32-.17,13.79-.17,16.39,0,1.08.1,6.38.1,7.59,0,.66,0,2.77-1.76,2.77,0,0-1.29,0-1.29-1.63,0-.65.32-7.17.35-8.28.28-6,.31-12.37.31-13.62,0-2.07,0-3.32-.14-5.57,0-.21-.1-1.22-.1-1.46s0-.31.17-.31a16.06,16.06,0,0,1,2.26.86A4.8,4.8,0,0,0,282,120Zm-7.9,6.13c1.32,0,1.74,0,2.36-1s.9-1.21,1.18-1.21c.52,0,3.29,2.11,3.29,2.6s-.69.48-1.84.48h-9c-3.05,0-4.06.07-4.4.11-.11,0-.63.07-.73.07s-.17-.07-.31-.21l-.66-.8c-.14-.17-.14-.17-.14-.24s0-.07.11-.07c.24,0,1.31.11,1.52.11,1.7.06,3.12.13,4.75.13Zm-4.57,15.25c-1,0-1,.31-1,2.08a1.38,1.38,0,0,1-1.56,1.52c-1.25,0-1.25-.86-1.25-1.24,0-.14.28-5.69.28-6.76,0-1.32,0-3.5-.14-5,0-.21-.17-1.15-.17-1.39s0-.21.17-.21,1.8,1.11,2.18,1.28a4.46,4.46,0,0,0,1.46.25h5.23a1.59,1.59,0,0,0,1.32-.52c.55-.63.62-.7.9-.7s2.53,1.49,2.53,1.94c0,.21-.94,1-1,1.25-.1.49,0,6.62,0,7.62a1.49,1.49,0,0,1-1.56,1.74c-1,0-1.1-.59-1.21-1.28s-.69-.56-1-.56Zm5.37-.9c1,0,1-.66,1-1.28s.07-4.33.07-4.58c0-1.28,0-1.8-1-1.8H288.6c-1,0-1,.66-1,1.25,0,.83,0,4.43,0,5.16s0,1.25,1,1.25Z"/>
        <path class="cls-1" d="M287.14,158.67c0,.31-.52,1.62-.58,1.9a87.46,87.46,0,0,0-.94,11.51c0,5,1.35,7.27,5.27,7.27a16.34,16.34,0,0,0,7.52-2.11c.52-.28,3.08-1.87,3.22-1.87a.22.22,0,0,1,.21.21c0,.45-5.27,6.44-11.78,6.44-3.75,0-6.62-1.8-6.62-10.88,0-2,.55-10.74.55-12.51a5.16,5.16,0,0,0-.38-2.18c0-.07-.42-.9-.42-.94,0-.24.25-.38.49-.38C285.58,155.13,287.14,157.94,287.14,158.67Zm10.54,3.22c0,.48-.42,1.32-1.08,1.32-.48,0-.79-.28-1.73-1.6a10.13,10.13,0,0,0-2.32-2.25c-.14-.11-.49-.38-.49-.52s.32-.28.63-.28C295.39,158.56,297.68,160.43,297.68,161.89Zm3.33-3.57a1,1,0,0,1-.87,1c-.76,0-1.14-.48-1.8-1.28a8.75,8.75,0,0,0-3-1.9c-.35-.14-.45-.25-.45-.35,0-.31.93-.45,1.24-.45C299.48,155.34,301,157,301,158.32Z"/>
        <path class="cls-1" d="M288.18,201.88c1.56,0,1.74,0,2.08-.52.77-1.11.87-1.25,1.08-1.25s2.7,1.83,2.7,2.22-.66.45-1.87.45H282c-3,0-4,.07-4.37.1-.1,0-.62.1-.73.1s-.21-.1-.31-.24l-.66-.8c-.14-.13-.17-.17-.17-.2a.13.13,0,0,1,.14-.11c.24,0,1.31.14,1.52.14,1.7.11,3.12.11,4.75.11Zm-4.85-8c-3,0-4,.07-4.36.1-.11,0-.63.07-.73.07s-.21-.07-.31-.24l-.66-.77c-.14-.17-.18-.2-.18-.24s.07-.07.14-.07c.25,0,1.32.11,1.56.11s3,.14,4,.14,1-.59,1-1.11v-3.64c0-.73,0-.8.25-.8,0,0,3.11.55,3.11,1.21,0,.18-.65.84-.76,1a3.54,3.54,0,0,0-.24,1.49c0,1.42,0,1.88,1.07,1.88h.94c1,0,1.14-.11,1.35-.32s1-1.45,1.28-1.45a6.86,6.86,0,0,1,2.5,2.15c0,.52-.63.52-1.87.52ZM288,207.11a1,1,0,0,0,.94-.45c.59-.8.62-.87.86-.87.42,0,2.5,1.35,2.5,1.8,0,.25-.8,1-.87,1.25s-.14,5-.14,5.48c0,.31.07,1.76.07,2.08a1.73,1.73,0,0,1-1.87,1.8c-.62,0-.73-.32-.73-.8,0-.87,0-1.32-1-1.32h-5.58c-1,0-1,.52-1.07.94a1.88,1.88,0,0,1-1.87,1.87c-.76,0-.76-.9-.76-1.11,0-.8.13-4.37.13-5.06,0-3.05-.07-4.19-.2-6.2,0-.11-.11-.59-.11-.69a.2.2,0,0,1,.24-.21,15.39,15.39,0,0,1,2.36,1.28,3.83,3.83,0,0,0,1.08.21Zm-6.27-5.82c-.83,0-1.15-.87-1.32-2.26a8.54,8.54,0,0,0-1.32-3.46c-.06-.07-.55-.73-.55-.76s.14-.18.24-.18c.52,0,3.88,1.46,4.3,4.2C283.26,200,282.57,201.29,281.74,201.29Zm.31,6.72c-1,0-1.07.21-1.07,4.16,0,2.84.13,3,1.17,3h5.72c1,0,1-.69,1-1.38s.07-3.89.07-4.61c0-.52,0-1.18-1-1.18Zm9.53-11.61c0,.21-.17.31-.42.49-.72.45-1,.72-2.94,3-.35.38-1.18,1.32-1.6,1.32-.1,0-.1-.11-.1-.18s1.32-2.94,1.56-3.53a16.37,16.37,0,0,0,.87-2.57c.17-.55.2-.62.34-.62a6.14,6.14,0,0,1,1.22.83C291.48,195.92,291.58,196,291.58,196.4Zm10.36-6.51a1,1,0,0,0,1.08-.49c.41-.62.48-.69.65-.69s2.95,1.73,2.95,2.28c0,.32-.1.39-1,.94s-4.89,7.52-4.89,7.55a9.25,9.25,0,0,0,1.42,1.46,11.52,11.52,0,0,1,3.78,8.11c0,4.09-3.26,6.3-4,6.3-.39,0-.49-.13-1.39-1.21-.28-.31-1.94-1.52-1.94-1.66s.24-.28.48-.28l1.39.07a2.09,2.09,0,0,0,2.32-1.73,9.22,9.22,0,0,0,.56-3.22,9.06,9.06,0,0,0-2.64-6.9c-.72-.62-.79-.69-.79-1,0-.14,1-2.78,1.17-3.3s1.46-4.36,1.46-4.57c0-.66-.35-.76-.9-.76h-3.4a1,1,0,0,0-.93.38,37.74,37.74,0,0,0-.18,4.68c0,3,.14,16.28.14,19s0,4-1.59,4c-1.11,0-1.11-.94-1.11-1.35,0-.07.17-3.64.17-4.12,0-1.95.14-12,.18-13.9,0-.94,0-4.68,0-6,0-.69,0-2.32-.07-3.08,0-.17-.1-.93-.1-1.07s.2-.35.38-.35a13.39,13.39,0,0,1,2,.76,4.26,4.26,0,0,0,1.49.18Z"/>
        <path class="cls-1" d="M279.38,236.87c0-.14,0-.41-.17-.41s-3.47,5.23-4.13,5.23c0,0-.06,0-.06-.07s2.25-4.89,2.63-5.82c1-2.43,3.57-8.91,3.57-10.68,0-.13,0-.65,0-.76s0-.31.18-.31,4.09,1.59,4.09,2-1.36,1-1.56,1.24-2.6,5.34-2.6,5.48c0,.35.38.45.73.59s.41.24.41.34-.66.56-.69.7a1.77,1.77,0,0,0-.11.79c0,2.26.07,12.17.07,14.18,0,.79,0,4.29-.1,4.78-.17.87-1.66,1-1.8,1-.7,0-.8-.48-.8-1.07,0-1,.24-5.65.28-6.58.1-3.26.1-5.38.1-9.08Zm19.86,15.53c1.42,0,1.56,0,2.22-.59.24-.25,1.83-1.7,1.94-1.77a.5.5,0,0,1,.27-.1c.49,0,2.29,1.69,2.91,2.25.25.21.56.48.56.66,0,.45-.69.48-1.84.48H289.15c-.79,0-3.15,0-4.4.07-.1,0-.62.11-.72.11s-.18-.11-.32-.25l-.65-.79c-.07-.11-.14-.18-.14-.21a.12.12,0,0,1,.1-.11c.24,0,1.32.11,1.56.14,1.59.07,3.12.11,4.75.11H294c.45,0,.86,0,1.1-.9a106.89,106.89,0,0,0,2.67-16.64c0-.28-.17-1.35-.17-1.56s.07-.2.24-.2,2.15.65,2.53.79c1.35.52,1.39.52,1.39.76s-.14.35-.63.73-.62.94-1,2.7a120.38,120.38,0,0,1-4.22,13.38,2.16,2.16,0,0,0-.14.56c0,.38.38.38.62.38ZM299.17,231c1.45,0,1.63,0,1.94-.28s1.25-1.73,1.59-1.73,3.33,2.08,3.33,2.43-.69.48-1.87.48H290.33c-.76,0-3.15,0-4.36.11-.11,0-.63.07-.73.07s-.21-.07-.31-.21l-.66-.8c-.11-.1-.18-.17-.18-.24s.07-.07.14-.07c.25,0,1.32.1,1.53.1,1.59.07,3.15.14,4.75.14h1.1c1,0,1-.24,1-2.46a14,14,0,0,0-.21-3.19c0-.14-.35-.66-.35-.76a.36.36,0,0,1,.39-.35c.31,0,2.11.38,3.29.66.24.07.8.21.8.59s-.07.28-.73.76c-.42.32-.52.63-.52,1.39,0,.35,0,2.56,0,2.74.11.55.66.62,1.15.62Zm-6.27,15.25c0,1.94-1,3.36-1.94,3.36s-.94-1-1-2.77a24.12,24.12,0,0,0-1.81-9.46c-.27-.73-.45-1.15-.31-1.25C288.43,235.73,292.9,242.31,292.9,246.23Z"/>
        <path class="cls-1" d="M278.72,269.44a.3.3,0,0,1,.32-.27c.1,0,1.9.48,2.28.48a56.18,56.18,0,0,0,5.82-1c.59-.41.63-3.91.63-4.09a4.36,4.36,0,0,0-.87-2.94c-.52-.63-.59-.7-.59-.8s.42-.28.56-.28c2.32,0,3.67,1.32,3.67,2.22,0,.07-1.32,4.47-1.32,5.13,0,.21.14.31.38.31s1.77-.17,2-.17c2.6,0,4.61,1.24,4.61,4.43,0,2.74-1,8.7-3,11.13a5.39,5.39,0,0,1-3.54,2.11c-1.31,0-1.66-1.28-2-2.39-.07-.17-.45-1.08-.45-1.14a.17.17,0,0,1,.17-.18,7.36,7.36,0,0,1,.87.24,10.84,10.84,0,0,0,1.77.25c1,0,2.28-.49,3.29-4.23a27.64,27.64,0,0,0,1.07-6c0-2.43-1.38-2.6-2.39-2.6a7.6,7.6,0,0,0-3.33.83c-.14.18-.17.32-.52,1.49-1.38,4.72-4.74,13.24-7.55,13.24a1,1,0,0,1-1.11-1.11c0-.73.24-1,2.32-3.29.94-1,2.39-2.63,4.26-7.83a9.41,9.41,0,0,0,.49-1.63c0-.1,0-.28-.24-.28-.77,0-4,1.39-4.68,1.39C280.32,272.39,278.72,270.21,278.72,269.44Zm24.19,7.21c-.35,0-1.94-.93-2.36-1-.17-.07-1.1-.14-1.1-.24s1.14-.8,1.35-1c1.28-1,1.42-1.08,1.42-2a4.46,4.46,0,0,0-2.81-4c-.28-.13-.83-.38-.83-.52s.14-.2.24-.2c4.44,0,6.07,4.36,6.07,6.13C304.89,274.23,304.37,276.65,302.91,276.65Z"/>
        <path class="cls-1" d="M294,294.48a1.71,1.71,0,0,1-1.77,1.66,6.47,6.47,0,0,1-2.05-.59,4.69,4.69,0,0,0-1.63-.35,2.31,2.31,0,0,0-2.46,2.29c0,.31.25,1.8.25,2.11s-.35,2.36-.42,2.85c-.17,1.28-.45,4.22-.45,5.09,0,.52,0,1.59.9,1.59a5.08,5.08,0,0,0,2-.83c2.12-1.38,3.43-2.22,5.65-2.22,3.71,0,6.34,2.6,6.34,5.44,0,4.23-5.51,7-10.53,7-.45,0-.94,0-.94-.28s.76-.34,1-.41c4.33-1,7.59-3.71,7.59-7a3.62,3.62,0,0,0-3.85-3.85,5.3,5.3,0,0,0-4.51,2.6c-1.59,2.26-2,2.84-3.15,2.84-1.45,0-2.63-1.66-2.63-4.33,0-1.45.83-7.83.93-9.11s.25-3,3.16-4.16c1.94-.8,2.77-1.14,2.77-2.15a2.53,2.53,0,0,0-.59-1.56c-.07-.14-.17-.34-.07-.45S294,292.53,294,294.48Z"/>
        <path class="cls-1" d="M280,329.15c1.46,0,2-.14,6.72-1.49,3.09-.87,11-3.12,13.31-3.12,1.25,0,2.81.48,2.81,1.66a1.38,1.38,0,0,1-1.42,1.28c-.45,0-2.43-.38-2.81-.38-4.4,0-9.32,4.06-9.32,13,0,5.82,2.18,6.2,4.23,6.2.52,0,3-.21,3.29-.21,1.07,0,1.7.45,1.7,1.28,0,1.84-3.82,1.84-4,1.84-7.07,0-7.07-5.79-7.07-7.42s0-8.87,5-13.34a6.39,6.39,0,0,0,.87-.72c0-.07-.14-.07-.21-.07-2,0-9.18,3-10.33,3.7a2.53,2.53,0,0,1-1.18.45c-1.73,0-3.39-2.32-2.94-2.8C278.76,328.83,279.76,329.15,280,329.15Zm22.14,7.66a1.4,1.4,0,0,1-1.21,1.42c-.62,0-.93-.66-1.49-2a9,9,0,0,0-1.73-2.71,1.78,1.78,0,0,1-.35-.62c0-.17.38-.21.69-.14C301,333.55,302.11,335.7,302.11,336.81Zm4.2-1.67c0,.9-.56,1.28-1,1.28-.83,0-1.21-1-1.56-1.83a9,9,0,0,0-2.28-2.78c-.18-.13-.32-.27-.32-.45s.38-.2.49-.2a3.2,3.2,0,0,1,.87.17C304.54,332,306.31,333.48,306.31,335.14Z"/>
        <path class="cls-1" d="M289.22,356c.59,2.11,1.56,3.57,1.81,3.57a3.38,3.38,0,0,0,1.35-.55c.69-.42.79-.49,1.21-.49a1.08,1.08,0,0,1,1.18,1,2,2,0,0,1-1.49,1.7c-.11,0-.83.31-.83.41.24.42,1.8,2.91,2.11,2.91.14,0,1.25-.38,1.25-1,0-.13-.45-.62-.45-.76s.34-.31.48-.34c1.25-.11,1.94-.18,2.15-.18,1.14,0,2.05.56,2.05,1.53,0,.48-.07,1.28-3.05,2.35-.91.32-1,.38-1,.52s0,.25,1.11,1.94c1.7,2.64,2.22,4.16,2.22,5.44a2.31,2.31,0,0,1-2,2.4c-.87,0-1.11-.18-3.36-1.74a5.63,5.63,0,0,0-3.37-1c-3.11,0-4.57,2-4.57,3.57,0,2.57,3.05,2.74,3.95,2.74.56,0,2.88-.24,3.36-.24s1.63.14,1.63,1.25c0,2-3.64,2-4.05,2-1,0-6.83,0-6.83-4.85,0-2,1.49-5.44,6.72-5.44a14.77,14.77,0,0,1,3.33.41,6.31,6.31,0,0,0,1.52.21c.52,0,.91-.17.91-.73a12.32,12.32,0,0,0-1.56-4.26c-.52-1-.56-1.11-.87-1.11s-1.53.38-1.8.45a16.35,16.35,0,0,1-4.16.52c-2.08,0-3.5-.27-4.58-1.31a2.78,2.78,0,0,1-.83-1.49.32.32,0,0,1,.32-.35,8.72,8.72,0,0,1,1.1.62,8.87,8.87,0,0,0,3.64.7c2.74,0,5.37-.9,5.37-1.11s-1.94-3.26-2.35-3.26c-.07,0-1.91.31-2.26.31-2.7,0-4.74-1.87-4.74-2.53a.27.27,0,0,1,.27-.27,6.49,6.49,0,0,1,.91.31,6.33,6.33,0,0,0,2.39.48c.83,0,2-.17,2-.41a11.9,11.9,0,0,0-3.53-3.68c-1-.48-1.15-.52-1.15-.76s.66-.93,1.35-.93S288.91,355,289.22,356Z"/>
        <path class="cls-1" d="M298.44,406.83c0-2.84-2.39-5.26-5.86-5.26-4.57,0-7.52,4.74-8.14,5.82s-1,1.84-2,1.84a1,1,0,0,1-1-1c0-.87.28-1.63,2.74-4.51,2.25-2.63,2.6-3.08,7.83-10.43,1.14-1.63,1.63-2.36,1.63-2.74s-.24-.48-.66-.48c-1.28,0-3.33,1.73-3.92,2.21-1.38,1.15-1.87,1.25-2.46,1.25-1.62,0-2.7-2.22-2.7-2.39s.11-.1.83-.1a16.65,16.65,0,0,0,5.37-1.25c2.15-.94,2.4-1,3.16-1,1.38,0,3.64.87,3.64,2.39,0,1-.8,1.56-2.46,2.7-2.5,1.77-5.55,6.52-5.55,7.11a.27.27,0,0,0,.21.24l.87-.31a8.24,8.24,0,0,1,3.05-.56,7.48,7.48,0,0,1,7.79,7.21c0,4.4-4.26,7.49-8.66,7.49-3.43,0-5.89-1.84-5.89-3.57a3.33,3.33,0,0,1,3.43-2.81,5.11,5.11,0,0,1,4,2.22c.48.62.69.93,1.18.93C296,411.82,298.44,409.71,298.44,406.83Zm-8.9,3.12a1.42,1.42,0,0,0-1.46,1.22c0,.9,1.49,1.62,3,1.62a.57.57,0,0,0,.59-.62A2.36,2.36,0,0,0,289.54,410Z"/>
        <path class="cls-1" d="M230.53,6.79c1.56,0,1.73,0,2.22-.59,1.38-1.73,1.55-1.9,2-1.9s.56,0,3,2.15c.55.48.83.72.83,1,0,.49-.21.49-1.91.49H212.82c-2.91,0-3.95.07-4.37.1l-.72.07c-.14,0-.21-.1-.32-.21l-.72-1c0-.07-.18-.24-.18-.31s.11-.07.14-.07c.18,0,1.25.14,1.46.14,1.11.1,3.81.1,4.81.1Z"/>
        <path class="cls-1" d="M216.53,47.68c-.38,0-.87,0-1,.59a1.74,1.74,0,0,1-2,1.49c-.9,0-.9-.49-.9-.76s.14-2.53.17-3c.1-1.63.1-6.13.1-7.9,0-1.28,0-1.42-.31-1.42a8.85,8.85,0,0,0-1,.49c-3.43,1.87-4.92,2.11-5.06,2.11s-.24-.1-.24-.21.14-.24,1.18-.79a36,36,0,0,0,9.63-8.32,8,8,0,0,0,.9-1.53c0-.27-.24-.31-.86-.31h-4c-.8,0-3.15,0-4.37.11-.13,0-.65.06-.76.06s-.17-.06-.27-.2l-.7-.8c-.14-.14-.14-.17-.14-.24s0-.07.11-.07c.24,0,1.31.1,1.56.14,1.56.07,3.12.1,4.74.1h.8c.42,0,.66,0,.66-.28,0-.1-1-3.74-1.91-4.33-.34-.24-.59-.24-1.45-.31-1.42-.1-1.56-.1-1.56-.35s.1-.24,1.18-.38a119.72,119.72,0,0,0,17.39-3c.31-.07,1.74-.66,2.05-.66.69,0,2.94,2.33,2.94,2.67,0,.14-.14.31-.45.31-.14,0-.76-.1-.9-.1s-1.59.07-1.59.35.83.72.93.79c.77.49.87.59.87.94s0,.24-.94.62S227.27,27,227.27,27s.1.17.55.17h3.05c1.18,0,1.36,0,2-.83s1.25-1.53,1.49-1.53,3.54,2.43,3.54,2.88-1,.38-2,.38H225.12c-.28,0-.41,0-.41.21s3.91,6.27,12.85,7.59c1.28.21,1.49.24,1.49.38s-.41.31-.69.38a4,4,0,0,0-2.43,1.8c-.17.35-.31.7-.59.7a3.08,3.08,0,0,1-1.62-.87c-.35-.28-.42-.31-.52-.31a1.21,1.21,0,0,0-.73.48c-.63.63-.63,1.18-.63,2.43S232,47,232,48c0,.59-.07.79-.38,1a3.21,3.21,0,0,1-1.63.59c-.66,0-.7-.24-.83-1.21-.07-.52-.59-.66-1-.66Zm11-10.6a2,2,0,0,0,1.49-.42c.21-.17.83-.73.83-1s0-.18-.48-.56a20.9,20.9,0,0,1-5-5.58,8.86,8.86,0,0,0-.62-1c-.14,0-.14.07-.14.41,0,.84,0,4.75,0,5.65a1.63,1.63,0,0,1-.45,1.32,2.19,2.19,0,0,1-1.28.59c-.9,0-.9-.66-.9-1,0-.79.28-4.74.28-5.65,0-.45,0-.65-.25-.65s-.76.69-.83.79a30.74,30.74,0,0,1-4.95,4.85c-.8.59-.91.66-.91.8s.11.21.87.8a2.35,2.35,0,0,0,1.91.66Zm-7.14-9.88c.56,0,.87-.21.94-.69,0-.14,0-.52,0-3.92,0-.38-.1-.69-.55-.69-.24,0-4.54.35-5.41.38-.72,0-.79,0-.79.17s.66.49.86.66a3.46,3.46,0,0,1,1.67,2.81c0,.14-.11.8-.11.93,0,.35.18.35.83.35Zm-4,10.78c-1,0-1,.62-1,1.52,0,1.94,0,2.32,1,2.32h3.71c1,0,1-.62,1-1.52,0-1.84,0-2.32-1-2.32Zm0,4.75c-1,0-1,.48-1,2.07s0,2,1,2h3.64c1,0,1-.42,1-2.46,0-1,0-1.59-1-1.59ZM224.5,38c-1,0-1,.48-1,2.46,0,.76,0,1.38,1,1.38h3.88c1,0,1-.65,1-1.35,0-2.08-.07-2.49-1-2.49Zm3.81,8.8c1,0,1.07-.35,1.07-2.43,0-1.1,0-1.62-1.07-1.62h-3.74c-1,0-1,.55-1,1.35,0,2.42,0,2.7,1.07,2.7ZM225.23,27.2a1.39,1.39,0,0,0,1.38-.8c.73-1.17,2.18-3.7,2.18-4.85,0-.21-.06-.34-.31-.34s-1.56.13-3,.27c-1.63.14-1.8.18-1.9.45s0,2.74,0,4.13c0,.62,0,1.14,1,1.14Z"/>
        <path class="cls-1" d="M238.25,68.23c0,.62-.2,1-.72,1s-.76-.31-.76-1V59.91c0-.93-.21-.93-4.37-.93-3.88,0-21.1.07-24.64,0-.8,0-1.11-.17-1.11-.69,0-.76.24-.76,2.29-.76h27.89A1.27,1.27,0,0,1,238.25,59Z"/>
        <path class="cls-1" d="M220.51,75.54c.59,2.11,1.56,3.57,1.8,3.57a3.27,3.27,0,0,0,1.36-.56c.69-.41.79-.48,1.21-.48a1.08,1.08,0,0,1,1.18,1,2,2,0,0,1-1.49,1.7c-.11,0-.83.31-.83.41.24.42,1.8,2.91,2.11,2.91.14,0,1.25-.38,1.25-1,0-.14-.45-.62-.45-.76s.34-.31.48-.35c1.25-.1,1.94-.17,2.15-.17,1.14,0,2,.55,2,1.52,0,.49-.06,1.29-3,2.36-.9.31-1,.38-1,.52s0,.24,1.11,1.94c1.7,2.63,2.22,4.16,2.22,5.44a2.31,2.31,0,0,1-2,2.39c-.87,0-1.11-.17-3.36-1.73a5.56,5.56,0,0,0-3.37-1c-3.11,0-4.57,2-4.57,3.57,0,2.56,3.05,2.74,4,2.74.55,0,2.88-.24,3.36-.24s1.63.13,1.63,1.24c0,2-3.64,2-4,2-1,0-6.83,0-6.83-4.85,0-2,1.49-5.44,6.72-5.44a14.22,14.22,0,0,1,3.33.41,6.31,6.31,0,0,0,1.52.21c.52,0,.9-.17.9-.73a12.45,12.45,0,0,0-1.55-4.26c-.52-1-.56-1.11-.87-1.11s-1.53.38-1.8.45a16.35,16.35,0,0,1-4.16.52c-2.08,0-3.5-.28-4.58-1.32A2.71,2.71,0,0,1,214,85a.32.32,0,0,1,.31-.34,8.18,8.18,0,0,1,1.11.62,8.86,8.86,0,0,0,3.64.69c2.74,0,5.37-.9,5.37-1.1s-1.94-3.26-2.35-3.26c-.07,0-1.91.31-2.26.31-2.7,0-4.74-1.87-4.74-2.53a.27.27,0,0,1,.27-.28,6.51,6.51,0,0,1,.91.32,6.3,6.3,0,0,0,2.39.48c.83,0,2-.17,2-.42a11.9,11.9,0,0,0-3.53-3.67c-1-.48-1.15-.52-1.15-.76s.66-.94,1.35-.94S220.2,74.5,220.51,75.54Z"/>
        <path class="cls-1" d="M225.29,111.42a1.7,1.7,0,0,1-1.76,1.66,6.15,6.15,0,0,1-2.05-.59,4.69,4.69,0,0,0-1.63-.35,2.31,2.31,0,0,0-2.46,2.29c0,.31.25,1.8.25,2.12s-.35,2.35-.42,2.84c-.17,1.28-.45,4.22-.45,5.09,0,.52,0,1.59.9,1.59a5.08,5.08,0,0,0,2-.83c2.11-1.38,3.43-2.21,5.65-2.21,3.71,0,6.34,2.59,6.34,5.44,0,4.22-5.51,7-10.53,7-.45,0-.94,0-.94-.28s.76-.34,1-.41c4.33-1,7.58-3.71,7.58-7A3.6,3.6,0,0,0,225,124a5.28,5.28,0,0,0-4.51,2.59c-1.59,2.26-2,2.85-3.15,2.85-1.46,0-2.63-1.67-2.63-4.34,0-1.45.83-7.83.93-9.11s.24-3,3.16-4.16c1.94-.79,2.77-1.14,2.77-2.15a2.55,2.55,0,0,0-.59-1.56c-.07-.13-.17-.34-.07-.45S225.29,109.48,225.29,111.42Z"/>
        <path class="cls-1" d="M219.47,149c.9.56.9,1.11.9,1.35a3.79,3.79,0,0,1-.48,1.67,2,2,0,0,0-.24.66.16.16,0,0,0,.14.17,6.83,6.83,0,0,0,1-.52c3.43-1.73,5.3-2,7-2,5.41,0,7.87,3.6,7.87,7.28,0,8.31-11.09,11-11.89,11-.07,0-.14,0-.14-.07s2.18-1.32,2.57-1.6c1.73-1.18,6.75-5,6.75-10.15a5,5,0,0,0-5.23-5.37c-3.81,0-7.76,2.08-9.08,3.57-.45.52-.66,1.11-.66,3.46,0,.77,0,5.17.18,7,0,.28.17,1.42.17,1.63a2.12,2.12,0,0,1-1.52,2c-1,0-1.08-1.25-1.22-3.36-.07-.73-.28-4-1.11-4-.17,0-.62.87-.9,1.42-.52,1-1.25,2.43-2.49,2.43-.42,0-.83-.28-.83-1s.17-.9,1-2.36a26.51,26.51,0,0,0,1.73-3.36,6.07,6.07,0,0,0-1.35-2.67c-1.11-1.39-1.22-1.52-1.22-2.15,0-1.18.94-1.32,2.36-1.52.59-.11.8-.14,3.12-2.29a11.41,11.41,0,0,0,.9-.83,11.62,11.62,0,0,0,.31-2.95c0-3.08-.8-4.22-1.38-4.88s-.66-.77-.66-.9c0-.28.83-.45,1.18-.45.93,0,3.29,1.42,3.29,2.56,0,.52-.45,2.7-.52,3.15s-.18,1.63-.18,2C218.88,148.65,218.92,148.69,219.47,149Zm-4.29,4.13c-.32.48-.7,1.14-1.49,1.21-1.11.07-1.46.1-1.46.55s1.25,2.71,1.63,2.71c.21,0,.31-.18.69-.73,2.15-3.15,2.15-3.22,2.15-4.47,0-.28,0-.45-.14-.49S215.77,152.15,215.18,153.16Zm-.11,7.2c0,.45.7,1.36,1,1.36s.41-1.88.41-3.47c0-.14-.07-.21-.17-.21C216,158,215.07,160,215.07,160.36Z"/>
        <path class="cls-1" d="M218.71,176.13c0,.28-.31,1.8-.35,2.11s-.17,1.6-.17,2.5c0,.73.1.9.73,1.21.31.17.52.35.52.69a1.71,1.71,0,0,1-.31.9c-.73,1-.84,1.15-.84,1.25a.1.1,0,0,0,.11.11c.07,0,.17-.07.87-.73,1.8-1.73,6-5.69,9.21-5.69,2.36,0,3.4,1.67,3.4,4.13a29.64,29.64,0,0,1-.42,4.43,29.61,29.61,0,0,0-.55,5.2c0,1.35.21,3.22,2.56,3.22a4.62,4.62,0,0,0,3.64-1.73c.24-.27.56-.59.73-.59s.21.18.21.28c0,.49-1.91,4.51-5.58,4.51-4.09,0-4.09-4.13-4.09-5.06a14.62,14.62,0,0,1,.41-3.26,57.72,57.72,0,0,0,.94-7.24,2,2,0,0,0-2.15-2.39c-2.46,0-5.4,2.46-7.69,4.6s-2.67,3.61-2.67,7.11a30.63,30.63,0,0,0,.28,4.47,21.7,21.7,0,0,1,.41,3.22c0,1.14-.27,1.94-1.35,1.94s-1.21-.8-1.56-2.63c-.07-.45-1-3.81-1.35-3.81-.14,0-.17.1-.41.93-.32,1-.87,1.94-1.91,1.94a1.27,1.27,0,0,1-1.25-1.28c0-1.21,1.18-3.26,1.53-3.88a3.32,3.32,0,0,0,.45-1.14,18.14,18.14,0,0,0-.8-2.6c-.76-1.94-.8-2.19-.8-2.78a2.79,2.79,0,0,1,1.74-2.7,22.85,22.85,0,0,0,4.12-1.42c.21-.14.24-.38.24-1a11.58,11.58,0,0,0-.9-5.06,13.08,13.08,0,0,1-1-1.74c0-.31.56-.34.8-.34C216.56,173.81,218.71,175.5,218.71,176.13Zm-3.12,8c-.28,0-3.88.73-3.88,2.46,0,1.21.83,3.81,1.14,3.81.14,0,.32-.21.39-.35s1.94-3.81,2.11-4.15a4.84,4.84,0,0,0,.62-1.56A.36.36,0,0,0,215.59,184.1Zm0,8c0-.17.07-1.15.07-1.21s0-.32-.17-.32c-.35,0-1.35,2.29-1.35,2.67a5.67,5.67,0,0,0,1.21,2.5C215.59,195.78,215.59,195.53,215.59,192.14Z"/>
        <path class="cls-1" d="M229.73,224.43c0-2.84-2.39-5.26-5.86-5.26-4.57,0-7.52,4.74-8.14,5.82s-1,1.83-2,1.83a1,1,0,0,1-1-1c0-.86.28-1.62,2.74-4.5,2.25-2.63,2.6-3.08,7.83-10.43,1.14-1.63,1.63-2.36,1.63-2.74s-.24-.48-.66-.48c-1.28,0-3.33,1.73-3.92,2.21-1.38,1.15-1.87,1.25-2.46,1.25-1.62,0-2.7-2.22-2.7-2.39s.1-.1.83-.1a16.92,16.92,0,0,0,5.37-1.25c2.15-.94,2.39-1,3.16-1,1.38,0,3.64.87,3.64,2.39,0,1-.8,1.56-2.46,2.7-2.5,1.77-5.55,6.52-5.55,7.11a.26.26,0,0,0,.21.24l.87-.31a8.23,8.23,0,0,1,3-.56,7.49,7.49,0,0,1,7.8,7.21c0,4.4-4.26,7.49-8.66,7.49-3.43,0-5.89-1.84-5.89-3.57a3.33,3.33,0,0,1,3.43-2.81,5.11,5.11,0,0,1,3.95,2.22c.48.62.69.93,1.18.93C227.3,229.42,229.73,227.31,229.73,224.43Zm-8.91,3.12a1.41,1.41,0,0,0-1.45,1.22c0,.9,1.49,1.62,3,1.62a.57.57,0,0,0,.59-.62A2.36,2.36,0,0,0,220.82,227.55Z"/>
        <path class="cls-1" d="M207,239c0-.66.21-1,.73-1s.76.27.76,1v8.28c0,.93.21.93,4.36.93l24.64,0c.8,0,1.11.17,1.11.73,0,.76-.24.76-2.29.76H208.42c-1,0-1.42-.56-1.42-1.49Z"/>
        <path class="cls-1" d="M223.63,262c.21.28,5.23,6.06,9.29,8.7.59.38,3.19,1.94,3.64,2.32a1.7,1.7,0,0,1,.76,1.28c0,.8-.83,1-1.46,1-1,0-3.63,0-12.23-10.39-.41-.49-2.11-2.64-2.49-3.05a1.64,1.64,0,0,0-1-.52c-.59,0-.63,0-5.51,4.54a7.34,7.34,0,0,0-1.56,1.76,2.23,2.23,0,0,1-1.73,1.08c-.73,0-1.32-.38-2.92-2a1.55,1.55,0,0,1-.41-1.08c0-.17,0-.41.24-.41s.9.14,1.08.14c1.59,0,3.36-.66,7.69-4.16,1.63-1.32,2.18-1.77,3.15-1.77C221.52,259.5,222.7,260.85,223.63,262Zm10.29,0c0,.48-.41,1.35-1,1.35-.48,0-.79-.28-1.76-1.6a9.94,9.94,0,0,0-2.36-2.18c-.17-.14-.52-.38-.52-.52s.35-.28.62-.28C232.09,258.77,233.92,260.85,233.92,262Zm3.12-2.71a1,1,0,0,1-.9,1.11c-.76,0-1.21-.69-1.73-1.49a8,8,0,0,0-2.77-2.29c-.35-.17-.42-.34-.42-.41,0-.31.69-.28,1.35-.28C233.47,256,237,256.94,237,259.29Z"/>
        <path class="cls-1" d="M224.5,283.55c0,.27-.42,1.45-.45,1.7-.11.93-.38,6.16-.38,7.34,0,1.67,0,7.18.07,8.46,0,.83.13,2.56.13,3.36s-.24,3.12-1.21,3.12c-.48,0-1.28-1.32-1.28-3.26,0-.73.14-4,.14-4.71,0-2.26.1-8.6.1-10.23,0-2.14,0-4.95-.73-6.23a3.26,3.26,0,0,0-.83-1,.48.48,0,0,1-.17-.32c0-.34.73-.72,1.21-.72S224.5,282.16,224.5,283.55Z"/>
        <path class="cls-1" d="M216.25,315.46c3.12,0,10.5-.62,11.26-1.11,1.25-.83,1.39-.9,1.7-.9.69,0,4,2.22,4,3.12,0,.31-.1.42-1.18,1.21-.62.45-.76,1-1.94,5.79-.07.31-.55,1.84-.55,2,0,.45.31.49.83.59.87.14,2.15.59,2.15,1.46s-1.6.93-1.87.93c-.87,0-4.72-.24-5.51-.24-2.15,0-8.74.73-9.29.87-.21,0-1.08.41-1.25.41-.62,0-2.67-1.56-2.67-2.77,0-.14.14-.24.32-.24s.9.14,1,.17a11.53,11.53,0,0,0,1.76.11,116.28,116.28,0,0,0,12-.9c.42-.21.56-.63.8-2.36.41-3.05.73-6.07.73-6.76s-.14-.73-.52-.73c-1.08,0-9.67,1.39-11,1.7-.31.07-1.53.56-1.8.56-.77,0-3.23-2.12-3.23-2.81,0-.28.25-.35.42-.35S215.66,315.46,216.25,315.46Z"/>
        <path class="cls-1" d="M222.42,352.92a24.27,24.27,0,0,0-3.4,2.84c-.66.8-.73.87-1.24.87-1.88,0-4.44-2.22-4.44-3.61,0-.24,0-1.83.35-1.83a9.28,9.28,0,0,1,1,.65,5.68,5.68,0,0,0,2.35.8c1.7,0,10.88-6.13,16.64-11.82.55-.55,1.52-1.52,1.59-1.52a.21.21,0,0,1,.17.17C235.48,339.79,231.43,346.27,222.42,352.92Zm-2.84-11.4c-.94,0-1.29-.56-2.43-2.29a7.75,7.75,0,0,0-3.15-2.84c-.14-.07-.31-.17-.31-.31s.27-.31.76-.31c3.71,0,6.62,2,6.62,4A1.53,1.53,0,0,1,219.58,341.52Z"/>
        <path class="cls-1" d="M211.26,367.26c1.46,0,2-.13,6.72-1.49,3.09-.86,11-3.12,13.31-3.12,1.25,0,2.81.49,2.81,1.67a1.38,1.38,0,0,1-1.42,1.28c-.45,0-2.43-.38-2.81-.38-4.4,0-9.32,4-9.32,13,0,5.83,2.18,6.21,4.22,6.21.52,0,3-.21,3.3-.21,1.07,0,1.7.45,1.7,1.28,0,1.84-3.82,1.84-4,1.84-7.07,0-7.07-5.79-7.07-7.42s0-8.87,5-13.34a6.38,6.38,0,0,0,.87-.73c0-.07-.14-.07-.21-.07-2,0-9.18,3.05-10.33,3.71a2.64,2.64,0,0,1-1.18.45c-1.73,0-3.39-2.32-2.94-2.8C210.05,367,211.05,367.26,211.26,367.26Zm22.14,7.66a1.4,1.4,0,0,1-1.21,1.42c-.62,0-.93-.66-1.49-2a9,9,0,0,0-1.73-2.7,1.78,1.78,0,0,1-.35-.62c0-.18.38-.21.69-.14C232.26,371.66,233.4,373.81,233.4,374.92Zm4.2-1.66c0,.9-.56,1.28-1,1.28-.83,0-1.21-1-1.56-1.84a9,9,0,0,0-2.28-2.77c-.18-.14-.32-.28-.32-.45s.38-.21.49-.21a3,3,0,0,1,.86.18C235.83,370.1,237.6,371.6,237.6,373.26Z"/>
        <path class="cls-1" d="M224.46,395.37c0,.31-1.63,3.22-1.63,3.81,0,.24.18.49.63.8.83.59,1.25,1,1.25,1.49s-.39.83-2.57,1.59c-.93.31-1,.56-1.66,2.74a18,18,0,0,0-.73,3c0,.56.14.56,2.56.77.84.07,2.46.59,2.46,1.45,0,.63-.93,1-1.8,1-.52,0-3-.45-3.18-.45-.87,0-.87,1.62-.87,2.39,0,1.56.45,5.16,4.78,5.16,1.46,0,5-.62,5-4.71,0-1.49-.31-3.47-3.43-7.83a.61.61,0,0,1-.14-.35c0-.31.76.35.87.42,4,3.22,5.54,6,5.54,8.38,0,3.29-3.32,6.24-7.38,6.24-.66,0-6.62,0-6.62-6.27,0-.56.28-2.91.28-3.4s-.07-.66-.66-1.11a3.75,3.75,0,0,1-1.87-2.94c0-1,.38-2.19,2.56-3.95,1.81-1.46,2-1.6,2-2.08s-.17-.59-.93-1.18c-1-.8-2.32-1.84-2.32-3.29,0-.25.07-.63.31-.63s.76.73.9.83a5.1,5.1,0,0,0,2.36,1.22c1,0,1.24-3.09,1.24-3.57a9.23,9.23,0,0,0-.34-2.32.7.7,0,0,1-.07-.35C222,392.15,224.46,394.43,224.46,395.37Zm-5.75,8.73c-.8,0-2.53,1.18-2.53,2.5a2.28,2.28,0,0,0,1.77,2.08.45.45,0,0,0,.38-.28,22.69,22.69,0,0,0,.83-3.71C219.16,404.41,219.16,404.1,218.71,404.1Z"/>
        <path class="cls-1" d="M217.43,449.35c-1.77,1.39-3.54,2.53-5.2,2.53s-1.7-1.77-1.7-2.39c0-3.74,3.33-7.73,7.56-10.64,1.07-.76,1.42-1.07,1.42-3.53,0-.56-.11-.73-.76-.73-.07,0-1.32.07-1.56.07a4.61,4.61,0,0,1-4.44-2.53c0-.21.14-.35.42-.35s1.24.31,1.45.35a21.24,21.24,0,0,0,2.36.14c.62,0,2.63,0,2.84-.52a13.29,13.29,0,0,0,.31-2.57c0-.34-.34-2.11-.34-2.18s.17-.21.31-.21,3.05.63,3.05,1.39c0,0-.52,1.14-.56,1.21a4.71,4.71,0,0,0-.48,1.7c0,.28,0,.35.45.35.73,0,3.91-1.15,4.57-1.15a1.35,1.35,0,0,1,1.46,1.15c0,1.11-1.25,1.42-4.2,2.14-2,.49-2.56.63-2.77.91a4.59,4.59,0,0,0-.38,1.69c0,.8.17.87.59.87a4.17,4.17,0,0,0,1-.17,18.71,18.71,0,0,1,4.34-.66c5.06,0,7.86,3.5,7.86,7.93,0,7.52-6.89,9.46-10.12,10.33a11,11,0,0,1-2.39.42c-.21,0-.34-.07-.34-.25s.27-.24.69-.38c7-2.35,9.53-6,9.53-9.87,0-4.37-2.91-6.69-5.72-6.69-1.66,0-1.73.21-2.36,2.25a16.89,16.89,0,0,1-2.39,4.71,1.86,1.86,0,0,0-.38,1.25c0,.28.11,1.53.11,1.77,0,.93-.35,1.73-1.11,1.73-.59,0-.83-.41-1.08-.8s-.27-.48-.38-.48A14.65,14.65,0,0,0,217.43,449.35Zm1.56-4.12c.14-.35.21-4,.21-4.37,0-.21,0-.8-.25-.8-1.28,0-6.16,5.83-6.16,8.43,0,.48.17.83.72.76C214.69,449.11,218.5,446.48,219,445.23Zm3.91-6.93c-1.8,0-1.8,1.18-1.8,2.39,0,.31,0,1.66.42,1.66s1.9-2.74,1.9-3.64a.75.75,0,0,0-.1-.34C223.25,438.3,223,438.3,222.9,438.3Z"/>
        <path class="cls-1" d="M229.73,478.11c0-2.84-2.39-5.27-5.86-5.27-4.57,0-7.52,4.75-8.14,5.83s-1,1.83-2,1.83a1,1,0,0,1-1-1c0-.86.28-1.63,2.74-4.5,2.25-2.64,2.6-3.09,7.83-10.43,1.14-1.63,1.63-2.36,1.63-2.74s-.24-.49-.66-.49c-1.28,0-3.33,1.74-3.92,2.22-1.38,1.15-1.87,1.25-2.46,1.25-1.62,0-2.7-2.22-2.7-2.39s.1-.1.83-.1a16.92,16.92,0,0,0,5.37-1.25c2.15-.94,2.39-1,3.16-1,1.38,0,3.64.86,3.64,2.39,0,1-.8,1.56-2.46,2.7-2.5,1.77-5.55,6.52-5.55,7.11a.26.26,0,0,0,.21.24l.87-.31a8.23,8.23,0,0,1,3-.56c4.44,0,7.8,3.29,7.8,7.21,0,4.4-4.26,7.48-8.66,7.48-3.43,0-5.89-1.83-5.89-3.56A3.33,3.33,0,0,1,221,480a5.11,5.11,0,0,1,3.95,2.22c.48.62.69.93,1.18.93C227.3,483.1,229.73,481,229.73,478.11Zm-8.91,3.12a1.41,1.41,0,0,0-1.45,1.21c0,.9,1.49,1.63,3,1.63a.57.57,0,0,0,.59-.62A2.36,2.36,0,0,0,220.82,481.23Z"/>
        <path class="cls-1" d="M237.8,496.27a3.85,3.85,0,1,1-3.84-3.88A3.9,3.9,0,0,1,237.8,496.27Zm-6.75,0a2.9,2.9,0,0,0,2.91,2.88,2.83,2.83,0,0,0,2.87-2.81,2.91,2.91,0,0,0-2.94-2.94A2.82,2.82,0,0,0,231.05,496.23Z"/>
        <path class="cls-1" d="M148.79,18.47c1-1,1.49-1.42,1.49-1.87,0-.1-.28-.94-.31-1.08a11.09,11.09,0,0,1-.59-4c0-.8.17-4.82.17-5.72a3.32,3.32,0,0,0-1-2.8c-.73-.77-.83-.87-.83-1s.8-.18.9-.18c2.08,0,3.78,1.63,3.78,2.6,0,.31-.42,1.87-.49,2.22a24.15,24.15,0,0,0-.31,3.78,21.12,21.12,0,0,0,.21,4.12c0,.1.24.76.69.76s.69-.14,2.53-1.28c.38-.24,2.56-1.63,3.6-1.63a1.3,1.3,0,0,1,1.29,1.28c0,1-1.36,1.56-2.67,2.08-8.39,3.33-9.57,5.89-9.57,8.11,0,2.46,2.29,3.19,5,3.19a14.73,14.73,0,0,0,4.19-.62,8.83,8.83,0,0,1,2.6-.49c1.18,0,2.29.8,2.29,1.66,0,1.77-7.07,1.94-8.87,1.94-1.63,0-6.66,0-6.66-5.44A7.72,7.72,0,0,1,148.79,18.47ZM162.86,9c0,.46-.38,1.32-1,1.32s-.77-.28-1.77-1.63a11.16,11.16,0,0,0-2.32-2.18c-.14-.1-.49-.38-.49-.52s.31-.28.59-.28C160.81,5.75,162.86,7.76,162.86,9Zm3.64-3.46a1,1,0,0,1-.91,1c-.72,0-1.17-.59-1.76-1.35a8.24,8.24,0,0,0-3-2c-.35-.14-.45-.31-.45-.41s.35-.38,1.32-.38C163.93,2.43,166.5,3.74,166.5,5.58Z"/>
        <path class="cls-1" d="M153.08,37a3.47,3.47,0,0,0,2.26,1.9c1.45.35,2.15.52,2.15,1.46,0,2-3.19,2.88-5.48,3.26-.69.1-.76.27-.87.72-.9,4.3-1,4.89-1,6.38,0,.45,0,1.59.41,1.59a1.56,1.56,0,0,0,.73-.38,11.08,11.08,0,0,1,6.48-2.21c4.37,0,5.93,3.63,5.93,6.13,0,5.85-6.31,7.24-9.08,7.69a20.31,20.31,0,0,1-2.77.24c-.11,0-.52,0-.52-.17A8,8,0,0,1,153,63c6.89-2,8.1-4.88,8.1-7.17,0-4.23-3.25-4.47-3.88-4.47-3.29,0-6,2.56-6.44,4-.56,1.77-.59,2-1.32,2-1.42,0-1.7-3-1.7-3.32,0-1.63,1.81-9.19,1.81-10.16,0-.27-.07-.27-.66-.34-4.4-.52-4.92-3.05-4.92-3.22s.07-.25.17-.25,1,.56,1.21.63a10.38,10.38,0,0,0,4.13.69c.41,0,.55-.07.69-.28a10.24,10.24,0,0,0,.69-3.19,3.93,3.93,0,0,0-.76-2.32c-.28-.31-.38-.41-.38-.52,0-.27.86-.41,1-.41A3,3,0,0,1,153.08,37Zm-1,4.05c0,.21.21.24.35.24.52,0,2.36-.52,2.36-1.21s-1.42-1.77-1.63-1.77C152.67,38.32,152,41,152,41.06Z"/>
        <path class="cls-1" d="M156.58,72a1.7,1.7,0,0,1-1.76,1.66,6.15,6.15,0,0,1-2-.59,4.9,4.9,0,0,0-1.63-.34A2.31,2.31,0,0,0,148.68,75c0,.32.25,1.81.25,2.12s-.35,2.35-.42,2.84c-.17,1.28-.45,4.23-.45,5.09,0,.52,0,1.6.9,1.6a5.23,5.23,0,0,0,2-.83c2.11-1.39,3.43-2.22,5.65-2.22,3.71,0,6.34,2.6,6.34,5.44,0,4.23-5.51,7-10.53,7-.45,0-.94,0-.94-.27s.76-.35,1-.42c4.33-1,7.58-3.71,7.58-7a3.61,3.61,0,0,0-3.84-3.84,5.26,5.26,0,0,0-4.51,2.6c-1.59,2.25-2,2.84-3.15,2.84-1.46,0-2.63-1.66-2.63-4.33,0-1.46.83-7.83.93-9.12s.24-3,3.16-4.15c1.94-.8,2.77-1.15,2.77-2.15a2.59,2.59,0,0,0-.59-1.56c-.07-.14-.18-.35-.07-.45S156.58,70.08,156.58,72Z"/>
        <path class="cls-1" d="M154,103.64c0,.1.07.24.07.38a26.35,26.35,0,0,1,.35,3.74c0,2.33-.52,5.55-3.57,10.16-2.77,4.22-4.54,5.06-5.93,5.06-2.29,0-4.33-3.57-4.33-7.8a12.2,12.2,0,0,1,3.85-8.84,14.34,14.34,0,0,1,11.05-4.5A11.24,11.24,0,0,1,161,103a10.85,10.85,0,0,1,6,10.08,12.92,12.92,0,0,1-8.73,12.2,21.3,21.3,0,0,1-5.76,1.28c-.13,0-.34,0-.34-.24s.07-.14.93-.49c3.61-1.42,11.13-4.4,11.13-13,0-1.35-.14-9.6-9.6-9.6C154,103.15,154,103.43,154,103.64Zm-11.26,10.64c0,2.25.9,5.33,3,5.33,1,0,1.84-.41,4.23-4a19.83,19.83,0,0,0,3.4-10.09c0-2.08-.14-2.25-.59-2.25C149.45,103.26,142.69,107.73,142.69,114.28Z"/>
        <path class="cls-1" d="M154.92,136.08c.21.27,5.23,6.06,9.29,8.69.59.38,3.19,1.94,3.64,2.33a1.7,1.7,0,0,1,.76,1.28c0,.79-.83,1-1.46,1-1,0-3.63,0-12.23-10.4-.41-.48-2.11-2.63-2.49-3.05a1.69,1.69,0,0,0-1-.52c-.59,0-.63,0-5.51,4.54a7.19,7.19,0,0,0-1.56,1.77,2.22,2.22,0,0,1-1.74,1.07c-.72,0-1.31-.38-2.91-2a1.52,1.52,0,0,1-.41-1.07c0-.17,0-.42.24-.42s.9.14,1.07.14c1.6,0,3.37-.66,7.7-4.16,1.63-1.31,2.18-1.76,3.15-1.76C152.81,133.55,154,134.9,154.92,136.08Zm10.29,0c0,.49-.41,1.35-1,1.35-.48,0-.79-.27-1.76-1.59a9.73,9.73,0,0,0-2.36-2.18c-.17-.14-.52-.39-.52-.52s.35-.28.62-.28C163.38,132.82,165.21,134.9,165.21,136Zm3.12-2.7a1,1,0,0,1-.9,1.11c-.76,0-1.21-.7-1.73-1.49a8,8,0,0,0-2.77-2.29c-.35-.17-.42-.35-.42-.42,0-.31.69-.27,1.35-.27C164.76,130,168.33,131,168.33,133.34Z"/>
        <path class="cls-1" d="M155.79,157.59c0,.28-.42,1.46-.45,1.7-.11.94-.38,6.17-.38,7.35,0,1.66,0,7.17.06,8.45,0,.83.14,2.57.14,3.36,0,.94-.24,3.12-1.21,3.12-.48,0-1.28-1.31-1.28-3.26,0-.72.14-4,.14-4.71,0-2.25.1-8.59.1-10.22,0-2.15,0-5-.73-6.24a3.26,3.26,0,0,0-.83-1,.45.45,0,0,1-.17-.31c0-.35.73-.73,1.21-.73S155.79,156.21,155.79,157.59Z"/>
        <path class="cls-1" d="M147.54,189.51c3.12,0,10.5-.63,11.26-1.11,1.25-.84,1.39-.9,1.7-.9.69,0,4,2.21,4,3.11,0,.32-.1.42-1.18,1.22-.62.45-.76,1-1.94,5.78-.07.32-.55,1.84-.55,2,0,.45.31.48.83.59.86.14,2.15.59,2.15,1.45s-1.6.94-1.87.94c-.87,0-4.72-.24-5.51-.24-2.15,0-8.74.72-9.29.86-.21,0-1.08.42-1.25.42-.62,0-2.67-1.56-2.67-2.77a.29.29,0,0,1,.32-.25,7.88,7.88,0,0,1,1,.18,12.87,12.87,0,0,0,1.77.1c2.39,0,11.47-.62,12-.9s.56-.62.8-2.36c.41-3.05.73-6.06.73-6.75s-.14-.73-.52-.73c-1.08,0-9.67,1.38-11,1.7-.31.07-1.53.55-1.8.55-.77,0-3.23-2.11-3.23-2.81,0-.27.25-.34.42-.34S147,189.51,147.54,189.51Z"/>
        <path class="cls-1" d="M153.71,227a24.34,24.34,0,0,0-3.4,2.85c-.66.79-.73.86-1.25.86-1.87,0-4.43-2.22-4.43-3.6,0-.24,0-1.84.35-1.84a9.41,9.41,0,0,1,1,.66,5.68,5.68,0,0,0,2.35.8c1.7,0,10.88-6.14,16.63-11.82.56-.55,1.53-1.52,1.6-1.52a.21.21,0,0,1,.17.17C166.77,213.83,162.72,220.31,153.71,227Zm-2.84-11.4c-.94,0-1.29-.55-2.43-2.28a7.87,7.87,0,0,0-3.15-2.85c-.14-.07-.31-.17-.31-.31s.27-.31.76-.31c3.71,0,6.62,2,6.62,4A1.53,1.53,0,0,1,150.87,215.56Z"/>
        <path class="cls-1" d="M145.6,252.92c.59,0,.9-.56,1.66-2.71.21-.58.31-.86.49-.86s.17.34.17.41c0,.39-.8,4.44-.8,5.27a6.08,6.08,0,0,0,.56,1.8,3.81,3.81,0,0,1,.41,1.53,1.16,1.16,0,0,1-1.14,1.18c-2.15,0-3.74-5.89-3.74-9.22,0-2.22.28-3.22,1.45-7.56a11.73,11.73,0,0,0,.59-3.6,8.88,8.88,0,0,0-.34-2.46,3.78,3.78,0,0,1-.21-.62c0-.11.14-.18.28-.18,1.59,0,3.05,3.16,3.05,4.4,0,.39,0,.42-.66,1.6-.38.73-2.67,5.82-2.67,8.94C144.7,251.88,145,252.92,145.6,252.92Zm20.13,3.46c0,1.35-1,1.77-5.89,1.77-3.39,0-4.68-.87-5.4-1.56-.18-.17-1.08-1.07-1.08-1.73,0-.07,0-.35.18-.35a5.61,5.61,0,0,1,.83.49,8.48,8.48,0,0,0,3.7.59,27.35,27.35,0,0,0,3-.11c.48,0,2.91-.28,3-.28C165.46,255.2,165.73,256,165.73,256.38Zm-1.63-16.87c0,1.69-3.84,1.69-4.26,1.69-3.91,0-6.06-2.11-6.06-2.56,0-.07,0-.17.24-.17s.52.14,1,.24a12.12,12.12,0,0,0,2.36.21,14.2,14.2,0,0,0,3.81-.52c1-.38,1.14-.42,1.49-.38A1.72,1.72,0,0,1,164.1,239.51Z"/>
        <path class="cls-1" d="M149.1,267.54a2.8,2.8,0,0,0-.49-1.53,6.84,6.84,0,0,1-.65-1c0-.41.72-.72,1.42-.72a2.81,2.81,0,0,1,2.49,1.52c.17.24.52.38,1.56.66.66.17,2,.55,2,1.52,0,1.32-1.94,1.94-4.75,2.78-.31.1-.35.2-.66,1.42-.42,1.73-3.4,13.44-6.58,13.44-.94,0-1.08-.62-1.08-1s.11-.66,1.15-2.15a31.11,31.11,0,0,0,4.78-11.29c0-.31-.24-.35-.76-.38-4.09-.35-4.09-2.78-4.09-2.81s0-.42.24-.42.24,0,.93.45a5.12,5.12,0,0,0,2.67.73,4.32,4.32,0,0,0,1.53-.21A1.65,1.65,0,0,0,149.1,267.54Zm10,21.69c-.45,3-3.08,3.78-4.89,3.78-3.29,0-5.23-2.29-5.23-4,0-2.25,2.46-3.43,5.58-3.43.28,0,1.56.07,1.8.07s.49,0,.49-.38c0-.52-.14-2.85-.14-3.33,0-3.81.21-5.65,3.12-7.31,2.15-1.25,2.39-1.35,2.39-2.25a3,3,0,0,0-1-1.77c-.31-.28-.45-.42-.45-.56s.1-.17.24-.17a10.71,10.71,0,0,1,2,.59,3.7,3.7,0,0,1,2.53,3.53,1.65,1.65,0,0,1-1.62,1.81,2.38,2.38,0,0,1-.8-.14c-1.32-.49-1.46-.56-1.87-.56a4.17,4.17,0,0,0-2.53,1,3.91,3.91,0,0,0-.83,2.88c0,.87.34,6.24,1.38,7,.31.25,1.94.8,2.25,1,.73.39,2.74,1.49,2.74,2.78,0,.59-.24,1.21-.93,1.21-.35,0-.56-.1-1.08-.55-.93-.84-2.53-1.91-3-1.7C159.15,288.75,159.15,288.88,159.08,289.23Zm-5-2c-.8,0-3.92,0-3.92,1.83,0,.83,1,1.87,3.12,1.87,3.36,0,3.85-2.63,3.64-3.18S154.89,287.26,154.09,287.26Zm-.94-19.82c0-.25-1.21-.87-1.42-.87-.59,0-.83,1.42-.83,1.52a.4.4,0,0,0,.07.21C151.07,268.4,153.15,268,153.15,267.44Z"/>
        <path class="cls-1" d="M148.06,300.77a23.31,23.31,0,0,0,5.65-1.53,5.51,5.51,0,0,1,2.87-.79c1.7,0,2.6,1.11,2.6,2,0,1.25-.79,1.94-2.35,3.23a50.18,50.18,0,0,0-6.31,7c0,.06,0,.17.24.17a12.63,12.63,0,0,0,1.87-.76,15.32,15.32,0,0,1,5.31-1.08,7.28,7.28,0,0,1,7.48,6.86c0,7.25-12.2,9.46-14.17,9.46-.31,0-.52-.07-.52-.2s.14-.25,1.35-.59c.35-.11,10.36-3,10.36-9.12a4.48,4.48,0,0,0-4.82-4.78c-5.4,0-10.29,4.16-11.88,7-1.28,2.21-1.67,2.87-2.67,2.87a1.28,1.28,0,0,1-1.28-1.49c0-1.28.52-1.84,1.83-3.26,2.57-2.77,12-13.09,12-14.45a.34.34,0,0,0-.38-.38c-1.11,0-5.4,2.71-6.41,2.71a2.27,2.27,0,0,1-1.59-.91c-.17-.24-1.35-1.8-1.35-1.83s.24-.21.34-.21S147.78,300.77,148.06,300.77Z"/>
        <path class="cls-1" d="M161,344.88c0,10.78-11,14.48-12,14.48,0,0-.1,0-.1-.06a11.28,11.28,0,0,1,1.53-1.15c4.71-3.33,8-7.86,8-13.44,0-1.11-.21-5-3.5-5a6.55,6.55,0,0,0-4.65,2.05c-.93,1.14-1,1.28-1.59,1.28-1.49,0-3.19-2.19-3.19-2.64,0-.17.21-.27.35-.27s1.35.24,1.59.24c.8,0,1-.1,3.19-1a10,10,0,0,1,4.57-1.21C158.21,338.16,161,340.24,161,344.88ZM152.39,331a8.92,8.92,0,0,0,1.6.11,5.73,5.73,0,0,1,2.73.31c1.42.59,1.63,1.39,1.63,1.7,0,.86-.93,1.07-1.59,1.07-.28,0-1.49-.14-1.74-.14-1.14,0-1.94.42-4.19,1.67-.17.1-1.07.62-1.14.62a.13.13,0,0,1-.14-.14c0-.14,2.39-2.74,2.39-3.39,0-.21-.07-.28-.73-.59a9.55,9.55,0,0,1-2.49-1.7c0-.17.28-.17.34-.17S151.87,330.91,152.39,331Z"/>
        <path class="cls-1" d="M149.31,381c1-1,1.49-1.42,1.49-1.87a10.82,10.82,0,0,0-.31-1.07,11.1,11.1,0,0,1-.59-4.06c0-.8.17-4.81.17-5.72a3.23,3.23,0,0,0-1-2.8c-.73-.77-.83-.87-.83-1s.83-.18.93-.18c2,0,3.75,1.6,3.75,2.6,0,.31-.42,1.87-.49,2.22a32.39,32.39,0,0,0-.31,4.57c0,1.32,0,4.13.9,4.13.49,0,.69-.14,2.56-1.32.39-.24,2.57-1.63,3.57-1.63a1.34,1.34,0,0,1,1.32,1.28c0,1-1.42,1.6-2.67,2.08-8.24,3.33-9.42,5.86-9.42,8.11s2,3.23,4.81,3.23a15.33,15.33,0,0,0,4.16-.63,9.67,9.67,0,0,1,2.6-.52c1.18,0,2.29.8,2.29,1.66,0,1.77-7.07,1.95-8.91,1.95-1.59,0-6.62,0-6.62-5.45A7.86,7.86,0,0,1,149.31,381Z"/>
        <path class="cls-1" d="M155.75,400.32c0,.32-1.63,3.23-1.63,3.82,0,.24.18.48.63.79.83.59,1.25,1,1.25,1.49s-.39.83-2.57,1.6c-.93.31-1,.55-1.66,2.73a18.06,18.06,0,0,0-.73,3c0,.55.14.55,2.56.76.84.07,2.46.59,2.46,1.46,0,.62-.93,1-1.8,1-.52,0-3-.45-3.19-.45-.86,0-.86,1.63-.86,2.39,0,1.56.45,5.17,4.78,5.17,1.46,0,5-.63,5-4.72,0-1.49-.31-3.46-3.43-7.83a.59.59,0,0,1-.14-.35c0-.31.76.35.87.42,4,3.22,5.54,6,5.54,8.39,0,3.29-3.32,6.23-7.38,6.23-.66,0-6.62,0-6.62-6.27,0-.55.28-2.91.28-3.39s-.07-.66-.66-1.11a3.76,3.76,0,0,1-1.87-3c0-1,.38-2.18,2.56-3.95,1.81-1.45,2-1.59,2-2.08s-.17-.59-.93-1.18c-1-.79-2.32-1.83-2.32-3.29,0-.24.07-.62.31-.62s.76.73.9.83a5.15,5.15,0,0,0,2.36,1.21c1,0,1.24-3.08,1.24-3.57a9.3,9.3,0,0,0-.34-2.32.68.68,0,0,1-.07-.35C153.33,397.1,155.75,399.39,155.75,400.32ZM150,409.06c-.8,0-2.53,1.17-2.53,2.49a2.27,2.27,0,0,0,1.77,2.08.43.43,0,0,0,.38-.28,22.6,22.6,0,0,0,.83-3.7C150.45,409.37,150.45,409.06,150,409.06Z"/>
        <path class="cls-1" d="M80.46,12.54c-1.15,0-1.21.28-1.21,2.33,0,.9.31,1.07.65,1.14,1.25.31,5.34,1.32,5.34,4,0,.8-.49,2-1.35,2-.52,0-.59-.17-1.25-1.83a6.33,6.33,0,0,0-3-3.43c-.28,0-.38.24-.38.48,0,1,.38,12,.38,13.55A2,2,0,0,1,77.48,33c-.56,0-.63-.42-.63-1,0-.9.18-5.37.18-6.38,0-2.49.1-6.75.1-6.93s0-.62-.38-.62-.31.1-.94,1c-.93,1.39-5.33,6.59-6.2,6.59-.1,0-.14-.07-.14-.18s1.94-2.63,2.19-3a37.94,37.94,0,0,0,4.6-9.25.68.68,0,0,0-.76-.73c-.83,0-2,0-3.39.07-.18,0-1.36.14-1.46.14s-.21-.1-.31-.24l-.66-.8c-.14-.17-.17-.17-.17-.24s.1-.07.14-.07c.2,0,1.31.1,1.56.14,1.28,0,2.87.1,4.15.1h.77c.65,0,.83-.1,1-.41a25.18,25.18,0,0,0,.14-3.33c0-1.07-.18-1.63-1.08-1.63-.17,0-3.43.31-4.09.31-.24,0-1.11,0-1.11-.17s.35-.21.38-.24a30.71,30.71,0,0,0,8.49-3,22,22,0,0,1,1.91-1.28A12.42,12.42,0,0,1,84.79,4.5c0,.21-.24.32-.49.32-.07,0-.79-.07-1-.07a15.76,15.76,0,0,0-3.53,1c-.49.34-.49,1.87-.49,3.5,0,1.8,0,2,.39,2.21.2.14.52.14,1.21.14.93,0,1.07-.17,1.8-1.07.49-.62.76-1,1-1s2.95,1.87,2.95,2.49c0,.45-.7.45-1.84.45Zm1.7,15.67c0-.14.1-.18.2-.18s1,.11,1.15.11c2.77,0,3.67-.21,3.95-.49a1.27,1.27,0,0,0,.41-.79C89,21.48,90.23,14.73,90.78,9.53c.14-1.11.52-5,.52-6.41,0-.69,0-.9.32-.9.13,0,2.42.83,2.73.93.87.35,1,.38,1,.73s-.79.87-.86,1c-.38.66-3.36,13.13-3.92,15.42-.14.66-1.7,6.62-1.7,6.76a.63.63,0,0,0,.66.59c.49,0,5.58-.66,6.48-.83.21,0,.73-.14.73-.7a17,17,0,0,0-2.56-4.85c-.42-.55-.49-.62-.49-.73s0-.14.1-.14A16.24,16.24,0,0,1,96,22.25c2.22,2.08,5,5.19,5,7.66,0,1.87-1.25,2.35-1.77,2.35-1,0-1.11-.9-1.28-2.53-.11-1-.31-2.11-1.21-2.11-.32,0-10.57,2.81-11.13,3.05a2.14,2.14,0,0,0-1.14,1,.42.42,0,0,1-.35.28C83.58,32,82.16,28.62,82.16,28.21Z"/>
        <path class="cls-1" d="M74.15,60.5a46.87,46.87,0,0,0,4.58-12.75c0-.35-.14-.35-1.25-.35a6.67,6.67,0,0,1-3.09-.62,3.36,3.36,0,0,1-1.8-1.87.15.15,0,0,1,.14-.14c.14,0,.66.28.8.31a12.9,12.9,0,0,0,3.08.38,7.66,7.66,0,0,0,2.46-.31,9.91,9.91,0,0,0,.38-2.84A4.83,4.83,0,0,0,79,40.16c-.14-.17-1-1-1-1.28s.66-.8,1.56-.8a3.12,3.12,0,0,1,2.77,1.84c0,.17-.38.86-.38,1,0,.66,2.77,1.24,3.12,1.24l1.07-.06a1,1,0,0,1,1.14,1.07c0,1.94-2.94,2.95-5.23,3.57-1.18.31-1.32.35-1.45,1a95.68,95.68,0,0,1-2.53,9.84c-2.39,7.21-3.64,7.21-4.3,7.21-.83,0-.94-1.15-.94-1.53S73.08,62.51,74.15,60.5Zm7.31-15.83c.18,0,2.81-.94,2.81-1.39S82.4,42.17,82,42.17c-.21,0-.31.07-.38.42-.14.69-.14.79-.32,1.62C81.29,44.46,81.25,44.67,81.46,44.67ZM84.1,59.36c.72,3,4.47,3.67,7.1,3.67.59,0,3.22-.24,3.78-.24,1.18,0,2.77.59,2.77,1.73s-1.28,1.18-4.23,1.18c-5.61,0-10.29-1.42-10.29-5.79,0-.79.21-1.52.49-1.52C83.85,58.39,84.06,59.25,84.1,59.36ZM91.75,47.3c3.3,0,5.79,1,5.79,2.49,0,.84-.73.84-1,.84s-1.67-.11-1.94-.11a5.77,5.77,0,0,0-2.57.56,6.09,6.09,0,0,1-1.45.45c-.07,0-.18,0-.18-.11s1.81-1.56,1.81-1.94-2.47-.55-3-.55a19.34,19.34,0,0,0-2.5.14c-.21,0-1,.13-1.14.13s-.28,0-.32-.06C85,48.69,88.05,47.3,91.75,47.3Z"/>
        <path class="cls-1" d="M84.37,73.39a3.51,3.51,0,0,0,2.26,1.91c1.45.34,2.14.52,2.14,1.45,0,2-3.18,2.88-5.47,3.26-.69.1-.76.28-.87.73-.9,4.29-1,4.88-1,6.37,0,.45,0,1.6.41,1.6a1.66,1.66,0,0,0,.73-.38,11.09,11.09,0,0,1,6.48-2.22c4.37,0,5.93,3.64,5.93,6.13,0,5.86-6.31,7.24-9.08,7.69a21,21,0,0,1-2.77.25c-.11,0-.52,0-.52-.18a8.15,8.15,0,0,1,1.62-.59c6.9-2,8.11-4.88,8.11-7.17,0-4.23-3.25-4.47-3.88-4.47-3.29,0-6,2.57-6.44,4-.56,1.77-.59,2-1.32,2-1.42,0-1.7-3-1.7-3.33,0-1.63,1.8-9.18,1.8-10.15,0-.28-.07-.28-.65-.35-4.4-.52-4.92-3.05-4.92-3.22s.06-.24.17-.24,1,.55,1.21.62a10.36,10.36,0,0,0,4.12.69c.42,0,.56-.07.7-.28a10.17,10.17,0,0,0,.69-3.18,3.88,3.88,0,0,0-.76-2.32c-.28-.32-.38-.42-.38-.52,0-.28.86-.42,1-.42A3,3,0,0,1,84.37,73.39Zm-1,4c0,.21.21.25.35.25.52,0,2.36-.52,2.36-1.22s-1.42-1.76-1.63-1.76C84,74.71,83.33,77.38,83.33,77.44Z"/>
        <path class="cls-1" d="M78.24,129.77c0,.76-.35,1.42-1.14,1.42-1.74,0-3.47-3.47-3.47-8.84a26.4,26.4,0,0,1,.9-6.79c1-4.26,1-4.43,1-5.51a4.87,4.87,0,0,0-.8-2.88,6.79,6.79,0,0,1-.65-1.21c0-.21.41-.28.62-.28,1.94,0,3.67,3.47,3.67,4.09,0,.28-1.52,4.54-1.8,5.41a23.24,23.24,0,0,0-1.25,7c0,.2,0,2.42.84,2.42.31,0,.34-.14,1-2,.13-.45,1.17-3.47,1.42-3.47s.14.24.14.31c0,1.11-1,6.1-1,7.11C77.75,127,78.24,129.28,78.24,129.77ZM92,127.83a5.72,5.72,0,0,1-5.17,3.29c-2.32,0-4.33-1.42-4.33-3.47,0-.48,0-4.15,7.11-4.26.86,0,.86-.24.86-2.39,0-.21-.1-3.88-.14-4.85a1.15,1.15,0,0,0-.27-.83,11.42,11.42,0,0,0-1.6-.07c-3.91,0-5.13-2.74-5.13-3.09,0-.1,0-.24.18-.24a6,6,0,0,1,.93.49,10.48,10.48,0,0,0,3.88.69c1.91,0,1.91,0,1.91-2.29s0-3.15-.66-4c-.14-.17-1.07-.93-1.07-1.18s.45-.58,1.18-.58,3,.48,3,1.8c0,.24,0,.31-.38.86a1.57,1.57,0,0,0-.21.73c0,1,1.8,1.11,2,1.11,1.53.07,2.67.1,2.67,1.56,0,1.63-2.32,2.63-3.6,3.19s-1.29.59-1.29,2.08c0,.76.25,4.67.35,5.61.14,1.28.24,1.53,1.11,1.91,1.7.72,5.34,2.35,5.34,4.4a1.36,1.36,0,0,1-1.25,1.38c-.42,0-.52-.13-1.35-1.17-1-1.22-2.81-2.67-3.43-2.36C92.41,126.3,92.1,127.59,92,127.83Zm-8.11-.45c0,.93,1.07,1.52,2.29,1.52,2,0,4.15-1.66,4.15-2.84,0-.59-.48-.87-2.7-.87C85.66,125.19,83.89,126.37,83.89,127.38Zm8-16.39c0,1.31.28,1.31.52,1.31.49,0,1.8-.41,1.8-1.21,0-.62-1.14-1.07-1.62-1.07a.75.75,0,0,0-.42.13A1.08,1.08,0,0,0,91.89,111Z"/>
        <path class="cls-1" d="M86.21,141.2c.21.28,5.23,6.07,9.29,8.7.59.38,3.19,1.94,3.64,2.32a1.75,1.75,0,0,1,.76,1.29c0,.79-.83,1-1.46,1-1,0-3.64,0-12.23-10.39-.42-.49-2.11-2.63-2.49-3.05a1.69,1.69,0,0,0-1-.52c-.59,0-.63,0-5.51,4.54a7,7,0,0,0-1.56,1.77A2.22,2.22,0,0,1,73.87,148c-.72,0-1.31-.38-2.91-2a1.47,1.47,0,0,1-.41-1.07c0-.18,0-.42.24-.42s.9.14,1.07.14c1.6,0,3.37-.66,7.7-4.16,1.63-1.32,2.18-1.77,3.15-1.77C84.1,138.67,85.27,140,86.21,141.2Zm10.29,0c0,.48-.41,1.35-1,1.35-.48,0-.79-.28-1.76-1.59a9.93,9.93,0,0,0-2.36-2.19c-.17-.14-.52-.38-.52-.52s.35-.27.62-.27C94.67,138,96.5,140,96.5,141.17Zm3.12-2.7a1,1,0,0,1-.9,1.1c-.76,0-1.21-.69-1.73-1.49a8.08,8.08,0,0,0-2.78-2.28c-.34-.18-.41-.35-.41-.42,0-.31.69-.28,1.35-.28C96.05,135.14,99.62,136.11,99.62,138.47Z"/>
        <path class="cls-1" d="M87.08,162.72c0,.28-.42,1.46-.45,1.7-.11.93-.39,6.17-.39,7.35,0,1.66,0,7.17.07,8.45,0,.83.14,2.56.14,3.36s-.24,3.12-1.21,3.12c-.49,0-1.28-1.32-1.28-3.26,0-.72.14-4,.14-4.71,0-2.25.1-8.59.1-10.22,0-2.15,0-5-.73-6.24a3.41,3.41,0,0,0-.83-1,.45.45,0,0,1-.17-.31c0-.35.73-.73,1.21-.73S87.08,161.33,87.08,162.72Z"/>
        <path class="cls-1" d="M78.83,194.63c3.12,0,10.5-.62,11.26-1.11,1.25-.83,1.39-.9,1.7-.9.69,0,4,2.22,4,3.12,0,.31-.1.42-1.18,1.22-.62.45-.76,1-1.94,5.78-.07.31-.55,1.84-.55,2,0,.45.31.48.83.59.86.14,2.15.59,2.15,1.45s-1.6.94-1.88.94c-.86,0-4.71-.25-5.51-.25-2.14,0-8.73.73-9.28.87-.21,0-1.08.42-1.25.42-.62,0-2.67-1.56-2.67-2.78a.28.28,0,0,1,.31-.24,7.75,7.75,0,0,1,1,.18,12.87,12.87,0,0,0,1.77.1c2.39,0,11.47-.62,12-.9s.56-.63.8-2.36c.41-3.05.73-6.06.73-6.76s-.14-.72-.52-.72c-1.08,0-9.67,1.38-11,1.69-.32.07-1.53.56-1.81.56-.76,0-3.22-2.11-3.22-2.81,0-.27.24-.34.42-.34S78.24,194.63,78.83,194.63Z"/>
        <path class="cls-1" d="M85,232.09a25,25,0,0,0-3.4,2.84c-.66.8-.73.87-1.25.87-1.87,0-4.43-2.22-4.43-3.6,0-.25,0-1.84.34-1.84a7.86,7.86,0,0,1,1,.66,5.87,5.87,0,0,0,2.36.79c1.7,0,10.88-6.13,16.63-11.81.56-.56,1.53-1.53,1.6-1.53a.23.23,0,0,1,.17.18C98.06,219,94,225.44,85,232.09Zm-2.84-11.4c-.94,0-1.29-.55-2.43-2.29a7.91,7.91,0,0,0-3.15-2.84c-.14-.07-.32-.17-.32-.31s.28-.31.77-.31c3.7,0,6.62,2,6.62,4A1.53,1.53,0,0,1,82.16,220.69Z"/>
        <path class="cls-1" d="M80.6,257.73c1-1,1.49-1.42,1.49-1.87a8.82,8.82,0,0,0-.32-1.07,11.34,11.34,0,0,1-.58-4.06c0-.79.17-4.81.17-5.71a3.24,3.24,0,0,0-1-2.81c-.73-.76-.83-.87-.83-1s.83-.17.93-.17c2,0,3.75,1.59,3.75,2.59,0,.32-.42,1.88-.49,2.22a32.56,32.56,0,0,0-.31,4.58c0,1.31,0,4.12.9,4.12.48,0,.69-.14,2.56-1.32.39-.24,2.57-1.63,3.57-1.63a1.34,1.34,0,0,1,1.32,1.29c0,1-1.42,1.59-2.67,2.08-8.25,3.32-9.42,5.85-9.42,8.1s2,3.23,4.81,3.23a15.33,15.33,0,0,0,4.16-.63,9.67,9.67,0,0,1,2.6-.52c1.18,0,2.29.8,2.29,1.67,0,1.76-7.07,1.94-8.91,1.94-1.59,0-6.62,0-6.62-5.44A7.88,7.88,0,0,1,80.6,257.73Z"/>
        <path class="cls-1" d="M14.83,28.1c0,.25-1.35.49-1.56.59-3.36,1.56-4.33,2-5.23,2.36A30.26,30.26,0,0,1,.69,32.82c-.07,0-.24,0-.24-.07s.66-.38,1.25-.63c5.85-2.21,9-4.85,9.7-5.65s.66-.79.9-.79a1.26,1.26,0,0,1,.49.21C13.27,26.27,14.83,27.58,14.83,28.1Zm11.37-4c1.49,0,1.83,0,2.22-.59.79-1.21.9-1.35,1.28-1.35s2.74,1.66,2.74,2.39c0,.45-.73.45-1.88.45H6.93c-1.94,0-3.33,0-4.4.1-.1,0-.62.07-.73.07s-.17-.07-.31-.21l-.66-.79C.69,24,.69,24,.69,23.94s0-.06.11-.06c.24,0,1.31.1,1.52.1,1.7.07,3.12.14,4.75.14Zm-11.89-15c1,0,1-.45,1-1.91a.87.87,0,0,0-1-1h-5c-3,0-4.06.07-4.4.11-.11,0-.63.07-.73.07s-.18-.07-.31-.21l-.66-.8c-.14-.17-.14-.17-.14-.24s0-.07.1-.07c.25,0,1.32.1,1.53.1,1.7.07,3.15.14,4.75.14h4.74c.35,0,1,0,1-.86a6.89,6.89,0,0,0-.21-1.63c0-.18-.41-.9-.41-1.08s.31-.14.52-.14,2.91.49,3.05.52a.57.57,0,0,1,.45.52c0,.25,0,.28-.52.77a2.28,2.28,0,0,0-.38,1.14.8.8,0,0,0,.9.76h4.5c1.49,0,1.84,0,2.22-.59.94-1.42,1-1.56,1.42-1.56S30,5.06,30,5.72c0,.48-.72.48-1.83.48h-9.5c-.69,0-1,.21-1,.9,0,1.63,0,2,1.11,2h2.84a1.69,1.69,0,0,0,1.49-.66c.35-.45.45-.55.66-.55.38,0,2.67,1.24,2.67,1.76,0,.25-.76.94-.87,1.11a2.19,2.19,0,0,0-.27,1.32c0,1.39.27,7.48.27,8.73,0,.45,0,2.15-1.8,2.15-.9,0-1-.38-1.07-1.07-.07-.35-.49-.52-.9-.52H11.33a1.16,1.16,0,0,0-1.25.76,2.12,2.12,0,0,1-1.62,1,.94.94,0,0,1-1-1.07c0-.28,0-.76.07-1.25.14-1.49.17-3.19.17-4.78s0-5.37-.24-6.76c0-.21-.24-1-.24-1.21s.24-.24.34-.24c.45,0,.7.14,1.74.72a4.64,4.64,0,0,0,2.46.56Zm-3.22.9c-.31,0-1.08,0-1.08.9,0,1.66,0,2,1.08,2H21.83c.35,0,1.08,0,1.08-.91,0-1.62,0-2-1.08-2Zm0,3.88c-.34,0-1.07,0-1.07.9,0,1.49,0,1.87,1.07,1.87H21.83c.35,0,1.08,0,1.08-.9,0-1.45,0-1.87-1.08-1.87ZM11,17.57a.85.85,0,0,0-1,.87c0,1.55,0,2,1,2H21.94c1,0,1-.65,1-1.45s0-1.42-1-1.42Zm10.46,8.94c5.76,2.29,8,3.19,8,5.44a1.2,1.2,0,0,1-1.18,1.35c-.56,0-.87-.28-3.47-2.77-.83-.8-6.41-4.64-6.27-4.92A14.62,14.62,0,0,1,21.48,26.51Z"/>
        <path class="cls-1" d="M18.54,48.48c-.38,0-.8-.25-1.59-1.77-1-1.87-4.34-5.44-4.82-5.44a1.16,1.16,0,0,0-.76.41c-2.67,2.74-6.8,6.9-10,8.7a4.71,4.71,0,0,1-1.22.52c-.07,0-.17,0-.17-.14S3,47.61,3.57,47c2.25-2.5,5.51-6.34,6.06-7.94.25-.73.25-.83.49-.83s3.39,1.14,3.39,1.59c0,.18-.72.7-.72.84s.07.2,1,.76c4.85,2.94,5.89,3.57,5.89,5.47a2.31,2.31,0,0,1-.07.49C19.48,47.82,19,48.48,18.54,48.48ZM6.65,59.15c-.76,0-1,.21-1.07,1A1.48,1.48,0,0,1,4,61.33c-.62,0-.73-.41-.73-.79,0-.7.11-3.89.11-4.54a12,12,0,0,0-.21-3.19c0-.11-.24-.52-.24-.63s.1-.2.24-.2a12.48,12.48,0,0,1,2,.86,2.37,2.37,0,0,0,1.15.21H8.7c1.07,0,1.07-.66,1.07-1.63,0-1.42,0-1.87-.9-1.87-.41,0-2.42.14-2.74.14-.13,0-.17-.07-.31-.21l-.66-.8C5,48.51,5,48.51,5,48.44s.07-.07.14-.07c.24,0,1.32.11,1.52.11,1.6.07,3.16.13,4.75.13h.66a3.49,3.49,0,0,0,1.11-.06c.38-.11,1.49-1.81,1.66-1.81s2.39,1.7,2.39,2.22-.21.56-2.15.56h-1.9c-1,0-1,.55-1,1.56,0,1.52,0,2,1,2h2.32a1.32,1.32,0,0,0,1.28-.52c.31-.28.52-.52.7-.52A7.76,7.76,0,0,1,20,54.26c0,.21-.1.28-.66.66-.34.24-.38,1.18-.38,2.25v2.74a2.08,2.08,0,0,1-1.63.94c-.73,0-.8-.45-.83-.87a.88.88,0,0,0-1-.83H12.79c-.45,0-.66,0-.9.21a4.91,4.91,0,0,0-.66,2c0,.49,1,.94,1.9,1.28,3.71,1.53,5.48,4.23,5.48,5.41a1.13,1.13,0,0,1-1.08,1.18c-.72,0-.9-.31-2.87-3.47-.56-.86-2.81-3.25-3.71-3.25-.45,0-.69.38-1.11,1.14C7.55,68,1.28,69.75.8,69.75c-.25,0-.35-.14-.35-.24a8.86,8.86,0,0,1,1.91-1c5.85-3.33,7-8.32,7-8.8s-.38-.59-.73-.59Zm2-.9c.76,0,1.14,0,1.14-3,0-.9-.1-1.28-1-1.28H6.55c-1,0-1,.41-1,2,0,1.87,0,2.25,1,2.25ZM13.2,54C12.37,54,12,54,12,57.24c0,1,.69,1,1.11,1h2.39c1.14,0,1.14-.45,1.14-2,0-1.87,0-2.25-1.14-2.25Zm8.67-11.82c.2,0,3.43.87,3.43,1.39,0,.24-.77,1-.84,1.17a44.12,44.12,0,0,0-.17,4.92c0,1.18,0,11.34,0,11.79s-.07,1.83-1.77,1.83c-.83,0-.87-.41-.87-.83s.11-1.8.14-2.08c.14-2.08.14-4.78.14-10.6,0-6-.1-6.38-.38-7.42C21.62,42.2,21.76,42.17,21.87,42.17Zm6.16-3c.14,0,3,.94,3,1s.25.13.25.41-.11.42-.66,1A3.93,3.93,0,0,0,30.46,43c-.07,1.94-.07,8.14-.07,10.46s0,12.58,0,13a3.09,3.09,0,0,1-1.77,2.77,6.67,6.67,0,0,1-2.25.55c-.25,0-.32,0-.52-.45a5.77,5.77,0,0,0-1.77-1.87c-.14-.1-.9-.42-.9-.59s.17-.14.24-.14c.42,0,2.22.14,2.6.14,1.42,0,1.66-.14,1.77-.45.31-.76.34-10.22.34-11.54,0-1.87-.1-10.19-.1-11.88a9.86,9.86,0,0,0-.42-3.61C27.58,39.33,27.76,39.15,28,39.15Z"/>
        <path class="cls-1" d="M8.18,92.1c.59,0,.9-.55,1.66-2.7.21-.59.31-.87.49-.87s.17.35.17.42c0,.38-.8,4.43-.8,5.27a6.18,6.18,0,0,0,.56,1.8,3.72,3.72,0,0,1,.41,1.52,1.15,1.15,0,0,1-1.14,1.18c-2.15,0-3.74-5.89-3.74-9.22,0-2.21.27-3.22,1.45-7.55a11.73,11.73,0,0,0,.59-3.6,8.51,8.51,0,0,0-.35-2.47,5,5,0,0,1-.2-.62c0-.1.14-.17.27-.17,1.6,0,3.05,3.15,3.05,4.4,0,.38,0,.41-.65,1.59-.39.73-2.67,5.82-2.67,8.94C7.28,91.06,7.62,92.1,8.18,92.1Zm20.13,3.47c0,1.35-1,1.76-5.89,1.76-3.4,0-4.68-.86-5.41-1.55-.17-.18-1.07-1.08-1.07-1.74,0-.07,0-.34.17-.34a5.14,5.14,0,0,1,.84.48,8.48,8.48,0,0,0,3.7.59,30.17,30.17,0,0,0,3-.1c.48,0,2.91-.28,3-.28C28,94.39,28.31,95.15,28.31,95.57ZM26.68,78.69c0,1.7-3.84,1.7-4.26,1.7-3.92,0-6.06-2.11-6.06-2.56,0-.07,0-.18.24-.18s.52.14,1,.25a12,12,0,0,0,2.36.2,13.79,13.79,0,0,0,3.81-.52c1-.38,1.14-.41,1.49-.38A1.74,1.74,0,0,1,26.68,78.69Z"/>
        <path class="cls-1" d="M9.32,110.81a1.78,1.78,0,0,0,1.94-1,25.77,25.77,0,0,0,2.57-5.23c.14-.66.17-1,.41-1s2.43,1.43,2.57,1.53.93.66.93,1-.1.32-1,.42c-.66.1-4.64,3.85-4.64,4s.21.27.55.27H26.75a1.26,1.26,0,0,0,1.15-.52c.41-.55.55-.69.72-.69.38,0,2.84,1.91,2.84,2.39,0,.17-.2.35-.27.42-.87.69-1.08.86-1.11,2s0,1.7,0,8.11c0,1.32.11,7.83.11,9.32a2.72,2.72,0,0,1-1.42,2.64,4.47,4.47,0,0,1-1.7.62c-.28,0-.62-.1-.69-.38-.18-.73-.21-.87-.49-1.08s-2.49-1-2.49-1.31.31-.18.38-.18c.31,0,1.76.14,2.11.14,1.8,0,1.8-.34,1.8-3,0-1,.07-5.58.07-6.62,0-1.31,0-8,0-9.35s0-1.6-1.08-1.6h-20c-.41,0-.9,0-1.11.42s-.2,5.58-.2,6.58c0,2.05.14,12.06.14,14.31,0,1,0,2.12-2.05,2.12-.76,0-1-.21-1-.8,0-1.38.21-3.57.31-5C2.84,128.21,3,117,3,116.74c0-1.11,0-3.22-.18-5.06,0-.24-.27-1.46-.27-1.7a.15.15,0,0,1,.17-.14,7.06,7.06,0,0,1,1.94.66,4.62,4.62,0,0,0,1.9.31Zm4.4,16.88c-.86,0-.86.1-.86,1s-.8,1.45-1.74,1.45c-.69,0-.93-.24-.93-1,0-.17.24-6.27.24-7.45,0-.38,0-1.63-.07-3.43,0-.27-.21-1.56-.21-1.83s.11-.56.42-.56,1.91.8,2.29.87a3.65,3.65,0,0,0,1,.1h5.58a1.36,1.36,0,0,0,1-.21c.52-.48.72-.69,1-.69.45,0,2.08,1.08,2.08,1.66,0,.25-.77,1.25-.84,1.5s-.07,3-.07,3.53c0,.76.07,4.57.07,5.41,0,.69,0,1.94-1.76,1.94-.8,0-.8-.18-.8-1.7,0-.59-.38-.59-.69-.59Zm5.37-.9c.28,0,.8,0,1-.42s.14-5.51.14-6.13c0-2.22,0-2.5-1-2.5H13.72c-1,0-1,.56-1,1.49,0,.49,0,6.73.18,7.14s.65.42,1,.42Z"/>
        <path class="cls-1" d="M14.38,141.79c.59,2.11,1.56,3.57,1.8,3.57a3.27,3.27,0,0,0,1.35-.55c.7-.42.8-.49,1.22-.49a1.08,1.08,0,0,1,1.18,1,2,2,0,0,1-1.49,1.7c-.11,0-.84.31-.84.41.25.42,1.81,2.91,2.12,2.91.14,0,1.24-.38,1.24-1,0-.14-.45-.62-.45-.76s.35-.31.49-.34c1.25-.11,1.94-.18,2.15-.18,1.14,0,2,.56,2,1.53,0,.48-.07,1.28-3.05,2.35-.9.31-1,.38-1,.52s0,.24,1.11,1.94c1.7,2.64,2.21,4.16,2.21,5.44a2.3,2.3,0,0,1-2,2.39c-.87,0-1.11-.17-3.37-1.73a5.61,5.61,0,0,0-3.36-1c-3.12,0-4.57,2-4.57,3.57,0,2.57,3.05,2.74,3.95,2.74.55,0,2.87-.24,3.36-.24s1.63.14,1.63,1.24c0,2-3.64,2-4.06,2-1,0-6.82,0-6.82-4.85,0-2,1.49-5.44,6.72-5.44a14.77,14.77,0,0,1,3.33.41,6.31,6.31,0,0,0,1.52.21c.52,0,.9-.17.9-.73a12.32,12.32,0,0,0-1.56-4.26c-.52-1-.55-1.11-.86-1.11s-1.53.38-1.8.45a16.35,16.35,0,0,1-4.16.52c-2.08,0-3.5-.27-4.58-1.31a2.78,2.78,0,0,1-.83-1.49.32.32,0,0,1,.31-.35,8.18,8.18,0,0,1,1.11.62,8.87,8.87,0,0,0,3.64.7c2.74,0,5.37-.9,5.37-1.11s-1.94-3.26-2.35-3.26c-.07,0-1.91.31-2.26.31C11,148.13,9,146.26,9,145.6a.27.27,0,0,1,.27-.28,6,6,0,0,1,.9.32,6.37,6.37,0,0,0,2.39.48c.84,0,2.05-.17,2.05-.41A11.74,11.74,0,0,0,11.05,142c-1-.48-1.14-.52-1.14-.76s.66-.94,1.35-.94S14.07,140.75,14.38,141.79Z"/>
        <path class="cls-1" d="M18.09,175.41a.27.27,0,0,1,.07.17c0,.21-.11.24-.38.45a.3.3,0,0,0-.14.28,24.54,24.54,0,0,0,5.4,7.27,28.33,28.33,0,0,0,8.74,5.34c1.11.42,1.11.42,1.11.66s-.14.35-1.22.59a4.47,4.47,0,0,0-2.18,1c-.14.14-.31.31-.45.31s-1.8-.59-5-3.81c-3.74-3.74-5-5.82-6.51-9.15-.21-.45-.73-1.56-.9-1.56s-.24.1-.94,1.11C10,186.32,2,191.52,1.11,191.52c-.17,0-.28-.1-.28-.21s3.36-3.15,4-3.78a44.49,44.49,0,0,0,8.45-11.6c.18-.35.73-2.19.83-2.26A15.83,15.83,0,0,1,18.09,175.41Zm3.12,18.09a1.47,1.47,0,0,0,.76-.14c.21-.18,1.11-1.18,1.35-1.18s2.25,1.59,2.25,2.18c0,.31-.1.42-.45.73s-.38,1.87-.38,2.39c0,1.07.21,5.89.21,6.86s-1.73,1.39-2.22,1.39c-.76,0-.76-.66-.76-.9,0-1.46,0-1.84-.9-1.84H10.6c-.34,0-1,0-1,.94s0,1-.24,1.28a3.25,3.25,0,0,1-1.84.69.81.81,0,0,1-.9-.9c0-.21.32-6.58.32-7.83,0-.73,0-2.74-.07-3.36,0-.14-.18-.94-.18-1.08s0-.38.32-.38a17.48,17.48,0,0,1,2.07.94,3.17,3.17,0,0,0,1.43.21Zm-5-5.41c1.25,0,1.66,0,2-.31s1.35-1.7,1.67-1.7a13.37,13.37,0,0,1,3.15,2.49c0,.42-.83.42-1.87.42H14.69c-2.46,0-3.39,0-4.4.1-.1,0-.62.07-.73.07s-.17-.07-.31-.2l-.66-.8c-.13-.14-.13-.17-.13-.24s0-.07.1-.07c.24,0,1.32.14,1.52.14,1.7.1,3.16.1,4.79.1Zm4.88,14c1,0,1-.66,1-1.08,0-.86,0-4.74,0-5.54,0-.42,0-1.07-1-1.07H10.64c-1,0-1.08.55-1.08,1.07,0,.87,0,4.75,0,5.54,0,.46,0,1.08,1,1.08Z"/>
        <path class="cls-1" d="M8.52,215.73c0-.38.18-.55.49-.55s1.46.31,1.7.31c.62,0,.66,0,4.33-1.49,1.32-.55,5.09-2.08,7.73-2.08a6.93,6.93,0,0,1,7.1,6.86c0,5.17-5.34,8-11,8-.28,0-.8,0-.8-.41s.1-.35,1.21-.49c6-.79,8.35-5,8.35-8.18A4.48,4.48,0,0,0,23.25,213c-2.11,0-4.88,1.25-8.49,3.68-2,1.31-2.22,1.45-3,1.45C10.08,218.16,8.52,216.57,8.52,215.73Z"/>
        <path class="cls-1" d="M5.51,237.22c1.49,0,2-.14,6.76-1.49,3.08-.87,11-3.12,13.3-3.12,1.22,0,2.78.48,2.78,1.66A1.39,1.39,0,0,1,27,235.56c-.45,0-2.43-.39-2.84-.39-4.4,0-9.32,4.06-9.32,13,0,5.82,2.18,6.2,4.22,6.2.52,0,3-.21,3.3-.21,1.07,0,1.73.45,1.73,1.29,0,1.83-3.81,1.83-4,1.83-7.1,0-7.1-5.78-7.1-7.41S13,241,18,236.53a6.66,6.66,0,0,0,.84-.73c0-.07-.14-.07-.21-.07-2,0-9.18,3.08-10.29,3.71a2.63,2.63,0,0,1-1.22.45c-1.73,0-3.36-2.33-2.94-2.81C4.3,236.91,5.34,237.22,5.51,237.22Z"/>
        <path class="cls-1" d="M8.8,267.09a4.88,4.88,0,0,1-.41,1.38,12.15,12.15,0,0,0-.84,4.47c0,3.5,1.81,6,2.88,6,.59,0,.73-.17,1.77-1.9.21-.35.8-1.18,1.07-1.18.11,0,.18.14.18.28a3.56,3.56,0,0,1-.11.69,9.77,9.77,0,0,0-.45,2.63,4.85,4.85,0,0,0,.21,1.39,9.57,9.57,0,0,1,.28,1.14c0,.7-.73,1.08-1.32,1.08-2.22,0-6.58-3.64-6.58-10.26,0-1,.48-5.23.48-6.13a9.85,9.85,0,0,0-.24-2,4.94,4.94,0,0,1-.28-1.18c0-.11.14-.14.21-.14C7.24,263.38,8.8,266.15,8.8,267.09Zm16.91.79a8.65,8.65,0,0,1,3.09,6.62c0,.66-.07,2.29-1.74,2.29s-1.69-1.87-1.69-2.32c0-2.88,0-4.33-1.84-6.17-.28-.28-1.66-1.35-1.66-1.56s.13-.17.31-.17A6.74,6.74,0,0,1,25.71,267.88Z"/>
        <path class="cls-1" d="M16.43,288.78c0-.11-.25-.45-.25-.52,0-.24.66-.24.87-.24.93,0,2.81.86,2.81,1.59a10.39,10.39,0,0,1-.87,1.84,8.1,8.1,0,0,0-.52,2.25c0,.07,0,.21.14.21a4.28,4.28,0,0,0,1-.32,4.29,4.29,0,0,1,1.25-.27c.34,0,1,.1,1,.66,0,1.28-2.35,2-3.33,2.28-.27.07-.34.11-.38.63,0,.1-.17,1.94-.17,3.36,0,.79,0,1,.45,1s2.88-.69,2.88-1.8c0-.1-.14-.52-.14-.62s.1-.11.17-.11.9.18,1.08.18c1.42.1,2.32.17,2.32.93,0,1.21-3.85,2.81-5.44,3.33-1.08.38-1.18.41-1.18.76,0,.66.38,4.64.41,5,.14,1.14.14,1.28.87,1.56,2.7,1.11,4.92,2.95,4.92,4.57a1.34,1.34,0,0,1-1.18,1.46c-.48,0-.62-.17-1.87-1.66A6.12,6.12,0,0,0,18.82,313c-.21,0-.28.17-.45.55a6.71,6.71,0,0,1-5.89,3.5C9.22,317,8,314.7,8,313.28c0-2.08,2.11-3.68,6.24-3.68.31,0,1.59.11,1.83.11s.38-.11.38-1.28c0-.7,0-3-.06-3.95,0-.32,0-.52-.35-.52s-2.57.17-3,.17c-.79,0-3.22,0-4.78-1.42a4,4,0,0,1-1-1.6c0-.07,0-.13.1-.13a8.66,8.66,0,0,1,1.32.48,13.46,13.46,0,0,0,4.19.62c.83,0,3.15,0,3.4-.65,0-.11.31-4.65.31-4.68,0-.18-.17-.18-.73-.21-2.46-.17-4.64-1.94-4.64-3.29,0-.07,0-.24.14-.24s.86.48,1,.55a6.08,6.08,0,0,0,3.36.94c.73,0,1.07-.18,1.14-.52a22.9,22.9,0,0,0,.21-3.05A6.62,6.62,0,0,0,16.43,288.78Zm-3.5,22.35c-.07,0-3.71,0-3.71,2,0,1.32,1.8,1.74,2.77,1.74a5.72,5.72,0,0,0,3.43-1.29c.62-.55.94-1.38.8-1.69C16,311.27,13.55,311.13,12.93,311.13Z"/>
        <path class="cls-1" d="M5.3,330.67a70.22,70.22,0,0,0,9.43-1.18c1.8-.31,2-.34,2-1.24a20.55,20.55,0,0,0-.49-4.72c0-.17-.59-.79-.59-1s.52-.24.73-.24c1.53,0,2.88.62,2.88,1.73,0,.18-.14.9-.14,1.08,0,.79,1,1.31,3.05,2.18a7.54,7.54,0,0,0,3.05.69c.34,0,1.8-.17,2.08-.17.45,0,2,.14,2,1.35,0,.9-.66,1.21-1.87,1.21-.73,0-3.95-.31-4.61-.31a16,16,0,0,0-3.74.35c-.49.21-.56.69-.56,3.74a4.49,4.49,0,0,0,.46,2.25,11.17,11.17,0,0,1,1,4.68c0,6.72-5.23,11-6.31,11-.07,0-.17,0-.17-.14s1.42-1.73,1.66-2.08a11.26,11.26,0,0,0,1.94-5.09c0-.1,0-.49-.34-.49-.11,0-.63.07-.73.07-1.87,0-3.53-1.76-3.53-4.54,0-.45,0-4.26,3.36-4.78,1-.14,1-.34,1-2.11s0-2.08-.7-2.08A42.89,42.89,0,0,0,10,332.27a32.8,32.8,0,0,1-3.71,1.38c-.76,0-3.64-1.45-3.64-2.88,0-.13.07-.31.18-.34C3.15,330.46,4.82,330.67,5.3,330.67Zm10.29,5.75c-.86,0-2,1.42-2,3.19a2.51,2.51,0,0,0,2.25,2.77c1.35,0,1.39-2.08,1.39-2.63a6.87,6.87,0,0,0-.45-2.43A1.48,1.48,0,0,0,15.59,336.42Zm3.19-8.28c0,.56.14.66.63.66.13,0,2.39-.07,2.39-.59a7.43,7.43,0,0,0-2.64-1.84C18.92,326.44,18.78,327.24,18.78,328.14Z"/>
        <path class="cls-1" d="M31.67,361.09a3.84,3.84,0,0,1-3.88,3.82,3.85,3.85,0,0,1,0-7.7A3.91,3.91,0,0,1,31.67,361.09Zm-6.75,0a2.9,2.9,0,0,0,2.91,2.88,2.83,2.83,0,0,0,2.87-2.81,2.91,2.91,0,0,0-2.94-2.95A2.83,2.83,0,0,0,24.92,361.06Z"/>
      </g>
    </g>
  </g>
</svg>
