<svg xmlns="http://www.w3.org/2000/svg" viewBox="0 0 225.03 25.86">
  <g id="Layer_2" data-name="Layer 2">
    <g id="レイヤー_1" data-name="レイヤー 1">
      <g>
        <polygon points="3.7 0.33 0 0.33 0 25.59 12.55 25.59 12.55 21.89 3.7 21.89 3.7 0.33"/>
        <path d="M35.35,0a12.48,12.48,0,0,0-9.14,3.79,12.5,12.5,0,0,0-3.78,9.14,12.51,12.51,0,0,0,3.78,9.14,12.93,12.93,0,0,0,18.29,0,12.49,12.49,0,0,0,3.8-9.14,12.51,12.51,0,0,0-3.8-9.15A12.52,12.52,0,0,0,35.35,0Zm0,22.16a8.76,8.76,0,0,1-6.49-2.71,8.8,8.8,0,0,1-2.7-6.52,8.83,8.83,0,0,1,2.69-6.52,9.22,9.22,0,0,1,13,0,8.84,8.84,0,0,1,2.7,6.52,8.84,8.84,0,0,1-2.7,6.52A8.81,8.81,0,0,1,35.35,22.16Z"/>
        <path d="M104.61,9.22a8.25,8.25,0,0,1-2.27-1.48,2.27,2.27,0,0,1-.69-1.66,2.23,2.23,0,0,1,.69-1.68,2.37,2.37,0,0,1,3.31,0,3.28,3.28,0,0,1,.69,1.18l.3.83L110,5.09l-.24-.77a5.71,5.71,0,0,0-1.49-2.5,6,6,0,0,0-8.55,0A5.8,5.8,0,0,0,98,6.08a5.84,5.84,0,0,0,1.74,4.25A10.82,10.82,0,0,0,104,12.87a9.13,9.13,0,0,1,3,2,4.07,4.07,0,0,1,1.26,3A4.29,4.29,0,0,1,101,20.92a4.8,4.8,0,0,1-1.3-3l-.12-1.09L96,18.18l.1.7a8.06,8.06,0,0,0,2.28,4.62,7.93,7.93,0,0,0,11.27,0A7.7,7.7,0,0,0,112,17.86a7.65,7.65,0,0,0-2.33-5.61A12.47,12.47,0,0,0,104.61,9.22Z"/>
        <polygon points="120.07 4.03 125.86 4.03 125.86 25.59 129.54 25.59 129.54 4.03 135.33 4.03 135.33 0.33 120.07 0.33 120.07 4.03"/>
        <path d="M157.52,0a12.5,12.5,0,0,0-9.15,3.79,12.5,12.5,0,0,0-3.78,9.14,12.51,12.51,0,0,0,3.78,9.14,12.94,12.94,0,0,0,18.3,0,12.52,12.52,0,0,0,3.79-9.14,12.54,12.54,0,0,0-3.79-9.15A12.55,12.55,0,0,0,157.52,0Zm0,22.16a8.77,8.77,0,0,1-6.5-2.71,8.8,8.8,0,0,1-2.7-6.52A8.8,8.8,0,0,1,151,6.41a9.21,9.21,0,0,1,13,0,8.8,8.8,0,0,1,2.7,6.52,8.8,8.8,0,0,1-2.7,6.52A8.77,8.77,0,0,1,157.52,22.16Z"/>
        <path d="M193.77,15.12A8.39,8.39,0,0,0,196.3,9a8.37,8.37,0,0,0-2.53-6.12A8.88,8.88,0,0,0,188.61.33h-7.34V25.59H185V17.66h2.21l5.3,7.93h4.46l-5.63-8.67A8.87,8.87,0,0,0,193.77,15.12ZM185,4h2.67a4.78,4.78,0,0,1,3.51,1.45A4.7,4.7,0,0,1,192.6,9a4.75,4.75,0,0,1-1.45,3.52A4.75,4.75,0,0,1,187.64,14H185Z"/>
        <polygon points="214.43 11.31 208.1 0.33 203.84 0.33 212.57 15.47 212.57 25.59 216.28 25.59 216.28 15.47 225.03 0.33 220.76 0.33 214.43 11.31"/>
        <path d="M72.28,11.06a22.83,22.83,0,0,1-3.88,2.07c-2.49.92-5.08.46-7.71-1.37A15.91,15.91,0,0,1,57.2,8.4L55.7,9.48l-1.51,1.07a19.89,19.89,0,0,0,4.29,4.17,12.71,12.71,0,0,0,7.38,2.57,10.89,10.89,0,0,0,3.83-.7,26.24,26.24,0,0,0,4.53-2.38c4-2.48,6.91-4.27,13.21,1.18l2.42-2.79C81.5,5.37,76.6,8.39,72.28,11.06Z"/>
      </g>
    </g>
  </g>
</svg>
