<svg xmlns="http://www.w3.org/2000/svg" viewBox="0 0 440.37 12.73">
  <g id="Layer_2" data-name="Layer 2">
    <g id="レイヤー_1" data-name="レイヤー 1">
      <g>
        <path d="M8,2.1,9.14,3c.09.09.13.14.13.22s-.09.18-.34.24A11.8,11.8,0,0,1,6.71,8a13.76,13.76,0,0,1-5.39,3.77,2.83,2.83,0,0,0-1-1.28A12.15,12.15,0,0,0,5.62,7,9.53,9.53,0,0,0,7.34,3.71L4,4c-1.82.13-3.15.19-3.81.27L0,2.71H.39c.24,0,.54,0,1.11,0l1.14-.05,1.29-.06,3.82-.21Z"/>
        <path d="M22.45,7.11c-.63,0-1.69,0-2.41,0H14.4c-.66,0-1.84,0-2.42,0V5.67c.56,0,1.73,0,2.42,0H20c.74,0,1.81,0,2.41,0Z"/>
        <path d="M28.47,4.8a19.29,19.29,0,0,1,4.22,2.06l-.85,1.28a14.68,14.68,0,0,0-3.37-1.89V9.12c0,1.27,0,2.06,0,2.75H26.89A23.79,23.79,0,0,0,27,9.12V3.73C27,2.2,27,1.35,27,.93L28.54,1c.13,0,.21.06.21.14s-.08.16-.25.25c0,.89,0,1.06,0,2.32Zm2.28-2.75a9.41,9.41,0,0,1,1.71,1.36l-.68.73a8.08,8.08,0,0,0-1.63-1.39ZM31.8.84a8.54,8.54,0,0,1,1.69,1.34l-.66.74a8.14,8.14,0,0,0-1.63-1.4Z"/>
        <path d="M38.53,10.47H37.06c0-.5,0-1.29,0-2.36V5.27c0-1.27,0-1.71,0-2.14l1.14,0h5.66l1.15,0c0,.43,0,1.33,0,2.14V8.11c0,1.12,0,1.85,0,2.36H43.54V9.84h-5Zm5-2v-4h-5V8.52Z"/>
        <path d="M49.9,2.86c1.15,0,3.09-.06,4.09-.11l2.46-.15.2-.24,1,.93c.1.11.13.13.13.21s-.05.12-.16.15l-.16,0a17.44,17.44,0,0,1-1.93,2.89l.19.13a14.06,14.06,0,0,1,2,1.78,11.65,11.65,0,0,1,1.35,1.6l-1.18,1A13,13,0,0,0,55.8,8.54c-.83-.73-1-.83-1.14-1a15.45,15.45,0,0,1-5.28,3.61A5.25,5.25,0,0,0,48.6,9.9a14,14,0,0,0,5.56-3.82A12.83,12.83,0,0,0,55.59,4.2a1.1,1.1,0,0,0,.17-.28l-1.69.16c-.13,0-.6,0-1.28.08s-2.15.15-2.77.21Z"/>
        <path d="M66,1.87a14.73,14.73,0,0,0,.3,3.49c.74-.32,1.2-.51,1.36-.59A8.59,8.59,0,0,0,69,4.11l.88,1.09c.07.08.11.14.11.18s-.1.13-.45.13L68.39,6c-2.7,1-3,1.14-3.69,1.71a1.84,1.84,0,0,0-.79,1.45c0,.88.66,1.22,2.42,1.22a15.5,15.5,0,0,0,3.84-.43,15,15,0,0,0,0,1.59,23.66,23.66,0,0,1-3.41.21,9.75,9.75,0,0,1-2.38-.23,2.16,2.16,0,0,1-1.85-2.26c0-1.29.89-2.44,2.57-3.3-.31-1-.33-1.2-.47-3.8,0-.38,0-.65-.09-1.29L66,.9c.12,0,.22.08.22.16s-.06.17-.18.26Z"/>
        <path d="M77.61,2.51A12.28,12.28,0,0,0,78.5.05L79.84.5c.11,0,.17.09.17.17s-.05.11-.25.18c-.23.51-.51,1.12-.81,1.66H82c.9,0,2,0,2.67-.06,0,.42,0,1,0,2.63V8.83c0,.36,0,.7,0,1.42,0,.26,0,.69,0,.85,0,.66-.11,1-.45,1.19s-.76.29-2.27.29a5.17,5.17,0,0,0-.26-1.41c.45,0,.63,0,.92,0,.66,0,.7,0,.7-.55V3.75H75V9.49c0,2,0,2.6,0,3.16H73.63c0-.52,0-1.78,0-2.63V5.08c0-1.63,0-2.21,0-2.63.71,0,1.76.06,2.68.06Zm.14,7.68H76.46c0-.31,0-.76,0-1.43V6.31c0-.42,0-.95,0-1.19.29,0,.58,0,1,0H80.9c.39,0,.68,0,1,0,0,.24,0,.77,0,1.19V8.57c0,.63,0,1.09,0,1.4H80.58V9.42H77.75Zm2.83-3.87H77.75V8.26h2.83Z"/>
        <path d="M95.24,2.48A17.55,17.55,0,0,1,93,3.27c.19.52.46,1.16.63,1.5a12,12,0,0,0,2.29-1.11l.62,1.16A13.67,13.67,0,0,1,94.18,5.9a16.75,16.75,0,0,0,1.94,2.91l-1,.85a4.58,4.58,0,0,0-2.92-1c-1.17,0-1.83.44-1.83,1.25s.79,1.16,2.54,1.16a12.84,12.84,0,0,0,1.71-.12,3.84,3.84,0,0,0-.29,1.49c-.53,0-.76,0-1.16,0a7,7,0,0,1-2.8-.39A2.28,2.28,0,0,1,89,9.94c0-1.47,1.27-2.44,3.21-2.44a5.54,5.54,0,0,1,1.63.26c-.26-.39-.74-1.27-.85-1.45a9.24,9.24,0,0,1-2.24.4c-1,0-1.48-.39-1.48-1.2a2.31,2.31,0,0,1,.23-.94l1.19.24a.79.79,0,0,0-.13.39c0,.16.07.23.27.23a7.19,7.19,0,0,0,1.59-.28c-.12-.26-.47-1.08-.64-1.53a32.63,32.63,0,0,1-3.44.58L88,2.88a28.76,28.76,0,0,0,3.3-.45c0-.07-.17-.53-.25-.8C90.87.88,90.74.48,90.73.44l1.54-.1h0a.17.17,0,0,1,.18.16c0,.09,0,.13-.2.27a13.59,13.59,0,0,0,.35,1.32,13.76,13.76,0,0,0,2.06-.81Z"/>
        <path d="M108.49,6.12c-.37,0-.94,0-1.33,0h-3.4c-.39,0-1,0-1.34,0V5a19.14,19.14,0,0,1-2.63,1.65A4,4,0,0,0,99,5.5a14.57,14.57,0,0,0,3.41-2.2A11.61,11.61,0,0,0,105,.08l1.23.39c.16.06.26.14.26.24s-.07.17-.26.22a9.3,9.3,0,0,0,2.22,2.42A12.09,12.09,0,0,0,112,5.24l-.19.3c-.11.17-.31.48-.57.94a15.53,15.53,0,0,1-2.71-1.43Zm-5.74,6.53h-1.33c0-.32,0-.77,0-1.44V8.54c0-.42,0-.94,0-1.18l1.5,0h5.16l1.48,0c0,.24,0,.76,0,1.18v2.7c0,.63,0,1.09,0,1.4h-1.32V12h-5.49Zm4.41-7.79h1l-.65-.54a9.66,9.66,0,0,1-2.12-2.54,13.38,13.38,0,0,1-2.17,2.53c-.21.2-.41.38-.62.55h4.51Zm1.08,3.75h-5.49v2.18h5.49Z"/>
        <path d="M116.19,2.63c.18,0,.3.1.3.23s-.07.16-.31.25a16.94,16.94,0,0,0-.12,2.7,6.71,6.71,0,0,0,.58,3c.21.44.57.76.82.76s.39-.48.63-1.87a7.48,7.48,0,0,0,1.26.77c-.49,2.1-.91,2.73-1.82,2.73a2.51,2.51,0,0,1-2.09-1.48,6.93,6.93,0,0,1-.75-2.15,11.06,11.06,0,0,1-.13-2c0-.66.06-2.22.1-2.82a1.65,1.65,0,0,0,0-.38Zm6.15.6a11,11,0,0,1,3.16,5.06L124.06,9a9.13,9.13,0,0,0-1.18-2.83,10.91,10.91,0,0,0-1.58-2Z"/>
        <path d="M128.21,8.64a17.83,17.83,0,0,1,2.64,3l-1.23.93a15.42,15.42,0,0,0-2.47-3Z"/>
        <path d="M137.21,10a.19.19,0,0,1,.13.15c0,.08-.05.12-.22.18a5.38,5.38,0,0,1-1.51,2.36,4.11,4.11,0,0,0-.93-.85,4.51,4.51,0,0,0,1.47-2.23Zm-.5-7a11,11,0,0,1-1.2,1.34,4.43,4.43,0,0,0-.81-1A10,10,0,0,0,137.14.08l1,.4q.18.08.18.18c0,.09,0,.12-.32.19-.15.3-.29.56-.43.82h7c.56,0,1.39,0,1.89,0V2.88c-.4,0-1,0-1.52,0v2h.13c.54,0,1.42,0,1.87,0V6c-.49,0-1.36,0-1.87,0H145V8.11c.54,0,1.25,0,1.67,0V9.31l-1.89,0H137l-1.87,0V8.08c.43,0,1,0,1.56,0V6c-.56,0-1.32,0-1.87,0V4.8c.51,0,1.28,0,1.87,0Zm2.35,1.8v-2H138v2Zm0,3.27V6H138V8.11ZM139,9.66a10.53,10.53,0,0,1,1.53,2.4l-1.11.65a14.94,14.94,0,0,0-1.28-2.44Zm2.35-4.82v-2h-1v2Zm0,3.27V6h-1V8.11Zm.47,1.54A10.88,10.88,0,0,1,143.62,12l-1.06.72A16.23,16.23,0,0,0,141,10.31Zm1.87-4.81v-2h-1.09v2Zm0,3.27V6h-1.09V8.11Zm1.07,1.5a9.91,9.91,0,0,1,2.37,2.25l-1,.79a12.57,12.57,0,0,0-2.14-2.3Z"/>
        <path d="M149.88,8.8a.14.14,0,0,1,.15.12.22.22,0,0,1-.05.13l-.1.06a6.31,6.31,0,0,1-.59,2.79,1.6,1.6,0,0,0-.8-.45A6.1,6.1,0,0,0,149,8.73Zm.5-.46h-1.2c0-.54,0-1.32,0-2.36V3c0-.8,0-1.71,0-2.14.34,0,.7,0,1.15,0h2.42c.55,0,1.21,0,1.62,0V2l-1.62,0h-.21v.93h.39l1.07,0V3.91c-.28,0-.71,0-1.07,0h-.39v.94h.39l1.07,0V5.87l-1.07,0h-.39v1h1.22l.16-.24.88.7a.35.35,0,0,1,.13.26c0,.08-.05.13-.28.24-.23,2.59-.5,3.71-1,4.3-.38.44-.91.58-2.51.59a6.16,6.16,0,0,0-.23-1.25h.59c.93,0,1.11,0,1.3-.33a5.29,5.29,0,0,0,.43-1.41l-.55.31a8,8,0,0,0-.82-1.63l.63-.35a6.39,6.39,0,0,1,.79,1.3,11.4,11.4,0,0,0,.15-1.42h-3.07Zm.46.43a8.87,8.87,0,0,1,.5,2.25l-.84.27A12.08,12.08,0,0,0,150.15,9Zm.56-5.91V1.93h-1v.93Zm0,2V3.88h-1v.94Zm0,2v-1h-1v1Zm.26,1.62a7.35,7.35,0,0,1,.81,1.83l-.77.34A9.38,9.38,0,0,0,151,8.76Zm6.82-3.72a13.75,13.75,0,0,0,1.09,3.83,8.75,8.75,0,0,0,2.06,2.91,4.74,4.74,0,0,0-.94,1,11.92,11.92,0,0,1-2.86-5.26A12.31,12.31,0,0,1,157,9.81a9.27,9.27,0,0,1-2.2,2.9,4.24,4.24,0,0,0-.67-1.1,8,8,0,0,0,2.07-3.23,13.3,13.3,0,0,0,.7-3.64h-1.08l-1.61,0V3.46c.4,0,1.09,0,1.61,0H157c0-.4,0-.82,0-1.28,0-.71,0-1.33,0-2l1.32.1c.21,0,.33.08.33.17s0,.13-.29.26V2.52c0,.34,0,.66,0,1h1.46c.53,0,1.22,0,1.62,0V4.77l-1.62,0Zm-.76,4.84a8.45,8.45,0,0,1,1.55,2.18l-1.12.65a9.45,9.45,0,0,0-1.32-2.2Z"/>
        <path d="M170.1,3.73c.11.06.16.11.16.16a.3.3,0,0,1-.19.23A18.47,18.47,0,0,1,168.83,8c-.79,1.79-1.67,2.61-2.8,2.61a1.83,1.83,0,0,1-1.67-1,4.08,4.08,0,0,1-.53-2.06,5.32,5.32,0,0,1,2.54-4.37,5.88,5.88,0,0,1,3.35-1,6.23,6.23,0,0,1,3.71,1.13,4.1,4.1,0,0,1,1.69,3.49A4.4,4.4,0,0,1,172.58,11a14,14,0,0,1-2.51,1,3.89,3.89,0,0,0-.71-1.35,8.34,8.34,0,0,0,2.69-1,3.08,3.08,0,0,0,1.66-2.72,3.31,3.31,0,0,0-2.26-3.1,4.66,4.66,0,0,0-1.54-.32h-.27Zm-3.52.92a4.39,4.39,0,0,0-1.35,3c0,1,.31,1.55.81,1.55s.81-.41,1.3-1.43a12.84,12.84,0,0,0,1.34-4.27A3.7,3.7,0,0,0,166.58,4.65Z"/>
        <path d="M183,.81c.11,0,.18.09.18.17s-.07.15-.27.25c-.33.87-.49,1.33-.58,1.53A7.16,7.16,0,0,0,184,2.17l.55,1.2a9.71,9.71,0,0,1-2.67.78c-.24.66-.66,1.68-1.14,2.73a18.72,18.72,0,0,1-1.34,2.52l-.59,1a3.44,3.44,0,0,0-1.23-.77,22.93,22.93,0,0,0,2.87-5.38,5.91,5.91,0,0,1-.94.06c-.38,0-.67,0-1.32-.06l0-1.37a10.7,10.7,0,0,0,1.63.12c.38,0,.61,0,1.12-.05a14.88,14.88,0,0,0,.7-2.56ZM186,6.1c-.42.29-.53.45-.53.85a7.77,7.77,0,0,0,.1,1.09c0,.29,0,.37.09.79,0,.16,0,.21,0,.26a13.21,13.21,0,0,1,3,1.82,4.59,4.59,0,0,0-1,1.07,9,9,0,0,0-2-1.48c-.13,1.33-.91,1.95-2.51,1.95s-2.43-.74-2.43-1.9,1-2,2.43-2a3.61,3.61,0,0,1,1.1.15c0-.33,0-.42-.08-.77s-.06-.88-.06-1a1.8,1.8,0,0,1,1-1.67Zm-2.89,3.64c-.61,0-1.05.31-1.05.77s.41.71,1.19.71a1.1,1.1,0,0,0,1-.37,1.73,1.73,0,0,0,.15-.89A3.58,3.58,0,0,0,183.06,9.74Zm2.15-6.18a8.83,8.83,0,0,1,3.55,1.33l-.71,1.21a7.48,7.48,0,0,0-3.22-1.37Z"/>
        <path d="M193.9,2.63c.18,0,.3.1.3.23s-.07.16-.31.25a16.94,16.94,0,0,0-.12,2.7,6.71,6.71,0,0,0,.58,3c.21.44.56.76.82.76s.39-.48.63-1.87a7.1,7.1,0,0,0,1.26.77c-.49,2.1-.91,2.73-1.82,2.73a2.51,2.51,0,0,1-2.09-1.48,7.21,7.21,0,0,1-.76-2.15,12.32,12.32,0,0,1-.12-2c0-.66.06-2.22.1-2.82a2.76,2.76,0,0,0,0-.38Zm6.15.6a11,11,0,0,1,3.16,5.06L201.77,9a9.13,9.13,0,0,0-1.18-2.83,10.91,10.91,0,0,0-1.58-2Z"/>
        <path d="M217.19,8.54c-.91.61-1.65,1.07-2.65,1.62a14.23,14.23,0,0,0,3.27,1.16,3.13,3.13,0,0,0-.79,1.21,12.64,12.64,0,0,1-3.8-1.78A7.49,7.49,0,0,1,211,8.47h-1.58v2.24c1.09-.16,2-.34,2.9-.54l.16,1.11c-1.09.28-3.57.77-5.74,1.12-.11.17-.19.25-.26.25a.25.25,0,0,1-.2-.16l-.5-1.35c.87-.08,1.65-.17,2.35-.25V4.55A22.67,22.67,0,0,1,205.81,6a5.36,5.36,0,0,0-.74-1.16,16.24,16.24,0,0,0,3.19-2A11.59,11.59,0,0,0,210.82,0l1.4.38c.2,0,.31.15.31.27s-.08.17-.28.23a9.33,9.33,0,0,0,2.06,1.71,14.44,14.44,0,0,0,3.58,1.57,4.77,4.77,0,0,0-.82,1.19,21.56,21.56,0,0,1-2.21-1c0,.23,0,.51,0,.76V7.4c0,.54,0,.95,0,1.26a13.61,13.61,0,0,0,1.64-1.26l1,.87c0,.06.08.1.08.14s-.07.13-.22.13ZM213.39,4c.29,0,.53,0,.76,0a10,10,0,0,1-1.81-1.36,12.72,12.72,0,0,1-1-1.06A15.44,15.44,0,0,1,208.92,4h1.86V3.41c0-.38,0-.68,0-.86l1.34.09c.16,0,.26,0,.26.14s-.08.14-.27.26V4Zm.16,1.71V5.11h-4.12v.55ZM209.43,7.3h4.12V6.74h-4.12Zm2.9,1.17a5.84,5.84,0,0,0,1.13,1l1.2-.71h-1.11V8.47Z"/>
        <path d="M221.32,4.35a9.79,9.79,0,0,1,2.48,1.81l-1,1.2a12.83,12.83,0,0,0-2.32-1.85Zm.19,6a22.89,22.89,0,0,0,4.73-2.94,23.05,23.05,0,0,0,4-4,7.58,7.58,0,0,0,1,1.17,29,29,0,0,1-8.38,7c0,.19-.12.28-.21.28a.36.36,0,0,1-.25-.17Zm2-8.89a9.78,9.78,0,0,1,2.43,2l-1,1.12a12.65,12.65,0,0,0-2.29-2Z"/>
        <path d="M244.29,7.11c-.64,0-1.7,0-2.41,0h-5.65c-.66,0-1.83,0-2.41,0V5.67c.55,0,1.72,0,2.41,0h5.65c.74,0,1.8,0,2.41,0Z"/>
        <path d="M248,2.36a8.13,8.13,0,0,1,2.84,2.13l-1.06,1.17a9.1,9.1,0,0,0-2.67-2.18ZM247.5,10a20.37,20.37,0,0,0,4.73-2.68A19.13,19.13,0,0,0,256.46,3a7.87,7.87,0,0,0,.93,1.28A23.26,23.26,0,0,1,253,8.54a24.52,24.52,0,0,1-4.23,2.58c-.06.18-.11.28-.21.28a.35.35,0,0,1-.22-.16Z"/>
        <path d="M261.25,6.44a15.83,15.83,0,0,1-.92,1.6,4.19,4.19,0,0,0-.86-1.28A20.68,20.68,0,0,0,262.25.05l1.29.5c.12,0,.19.11.19.19s0,.14-.33.23a21,21,0,0,1-1,3l.25,0c.13,0,.21.06.21.13s-.07.16-.25.27c0,.67,0,1.32,0,2.3V9.93c0,1.21,0,2.17,0,2.76H261.2c0-.6.05-1.52.05-2.76Zm7.06-1h1.23c.64,0,1.56,0,2.14,0V6.71c-.58,0-1.5,0-2.14,0h-1.23v1.6h1.23c.64,0,1.56,0,2.14,0V9.55c-.58,0-1.5,0-2.14,0h-1.23V9.9c0,1.24,0,2.16,0,2.77H267c0-.61.06-1.53.06-2.77v-6h-1a15,15,0,0,1-2.21,3.62,5.19,5.19,0,0,0-1-.91A16.3,16.3,0,0,0,266,.13l1.21.37c.21.07.29.13.29.23s0,.12-.31.2c-.22.63-.41,1.2-.6,1.7h3.51c.64,0,1.56,0,2.14,0V3.91c-.58,0-1.5,0-2.14,0h-1.74Z"/>
        <path d="M277.49.73a.22.22,0,0,1,.18.2c0,.08-.07.13-.27.22a15.67,15.67,0,0,0-.62,3.92c0,.14,0,.2,0,.47h.06c.62-2.43,1.72-3.8,3.07-3.8s2.21,1.35,2.21,3.82a8.16,8.16,0,0,1-1.54,5.26,6.3,6.3,0,0,1-2.67,1.91,5.38,5.38,0,0,0-.71-1.25,5.65,5.65,0,0,0,2-1.35,6.47,6.47,0,0,0,1.44-4.61c0-1.71-.28-2.57-.86-2.57-.38,0-.74.34-1.2,1.09a12.23,12.23,0,0,0-1.1,3.11,8.56,8.56,0,0,0-.12,1.34,2.71,2.71,0,0,0,0,.42L276,9.24a12.22,12.22,0,0,1-.49-3.8A16.21,16.21,0,0,1,275.86,2c.09-.51.12-.72.15-.93s.07-.55.07-.59Z"/>
        <path d="M285.36,7.22a32.27,32.27,0,0,0,3.41-2.68c.76-.66,1.09-.83,1.61-.83a1.47,1.47,0,0,1,.63.14,22.11,22.11,0,0,1,3,2.28,22.14,22.14,0,0,0,4.25,2.59,8.19,8.19,0,0,0-.8,1.38,24,24,0,0,1-4.26-2.81c-.49-.39-.51-.41-1.54-1.28-.15-.12-.28-.26-.58-.49a1.24,1.24,0,0,0-.74-.35,1.42,1.42,0,0,0-.69.37c-.24.2-.62.54-.91.82-1.19,1.12-1.3,1.2-2.05,1.82,0,.2-.11.31-.19.31a.33.33,0,0,1-.2-.12Z"/>
        <path d="M306.6,3.73c.11.06.17.11.17.16a.3.3,0,0,1-.19.23A19.07,19.07,0,0,1,305.34,8c-.8,1.79-1.67,2.61-2.8,2.61a1.81,1.81,0,0,1-1.67-1,4,4,0,0,1-.53-2.06,5.33,5.33,0,0,1,2.53-4.37,5.94,5.94,0,0,1,3.36-1,6.18,6.18,0,0,1,3.7,1.13,4.11,4.11,0,0,1,1.7,3.49A4.41,4.41,0,0,1,309.08,11a13.84,13.84,0,0,1-2.5,1,3.73,3.73,0,0,0-.72-1.35,8.32,8.32,0,0,0,2.7-1,3.08,3.08,0,0,0,1.66-2.72A3.31,3.31,0,0,0,308,3.8a4.56,4.56,0,0,0-1.53-.32h-.27Zm-3.51.92a4.39,4.39,0,0,0-1.35,3c0,1,.31,1.55.81,1.55s.81-.41,1.29-1.43a12.89,12.89,0,0,0,1.35-4.27A3.64,3.64,0,0,0,303.09,4.65Z"/>
        <path d="M317.59,8.76q0,2.64.06,3.93h-1.39c0-.85.05-2.11.05-3.77-.82.32-.9.36-1.36.55-.12.19-.19.27-.28.27s-.15-.08-.19-.17l-.55-1.28c.94-.27,1.71-.5,2.38-.73V4.14h-.87a17.74,17.74,0,0,1-.64,2.5,5.41,5.41,0,0,0-1.06-.81,16.93,16.93,0,0,0,.5-2.17,22,22,0,0,0,.36-2.57l1.27.31c.15,0,.23.1.23.19s0,.12-.33.24c0,.37-.08.73-.13,1.08h.67c0-1.41,0-2.3-.08-2.63l1.42.1c.12,0,.2.06.2.13s-.07.15-.24.26c0,.39,0,.46,0,2.14h.12c.39,0,1,0,1.34,0V4.16l-1.34,0h-.12V7.07a16.27,16.27,0,0,0,1.61-.74l.28,1.15c-.73.39-1.24.63-1.89.91Zm7.8-6,.81.77c.1.08.12.12.12.18s-.06.14-.23.2L326,4V5.55a25.92,25.92,0,0,1-.39,5,2.06,2.06,0,0,1-1.8,1.76,4.82,4.82,0,0,1-.87.1h-.7a6.81,6.81,0,0,0-.28-1.37l.67,0c.91,0,1.32-.18,1.57-.67.37-.77.56-2.58.56-5.3V4.23h-.58a12.3,12.3,0,0,1-1.07,4.57,7.63,7.63,0,0,1-3.55,3.65,2.8,2.8,0,0,0-.71-1A6.59,6.59,0,0,0,322.08,8a11.07,11.07,0,0,0,.86-3.8h-.59a9,9,0,0,1-1.28,3.92,7.37,7.37,0,0,1-2.18,2.41,2.35,2.35,0,0,0-.84-.87,7.49,7.49,0,0,0,2.39-3,8,8,0,0,0,.71-2.48h-.42a11.71,11.71,0,0,1-1.31,2,2.4,2.4,0,0,0-.95-.81A10.6,10.6,0,0,0,320,2.9a12.73,12.73,0,0,0,.89-2.7l1.18.37c.12,0,.18.09.18.16s-.08.16-.26.21c-.24.8-.48,1.49-.73,2.1h3.94Z"/>
        <path d="M333.36,3.81l-1.08,0h-2.84l-1.08,0V2.53c.3,0,.79,0,1.08,0h2.84c.29,0,.77,0,1.08,0ZM330,12.48h-1.26c0-.31,0-.77,0-1.43V9.3c0-.42,0-1,0-1.19.29,0,.58,0,1,0h2.44c.39,0,.67,0,1,0,0,.24,0,.77,0,1.19V11c0,.63,0,1.09,0,1.4H331.8v-.43H330ZM332.77,2h-3.83V.7l.81,0H332l.8,0Zm0,3.68h-3.83V4.38h3.83Zm0,1.86h-3.83V6.24h3.83Zm-1,1.71H330v1.66h1.85Zm7.68-3.45,1.33,0V7c-.39,0-.95,0-1.34,0h-4.72c-.39,0-1,0-1.35,0V5.73l1.35,0h.39c.12-.51.24-1,.35-1.52-.46,0-.93,0-1.39,0V3c.41,0,1.09,0,1.61,0h0c.08-.39.15-.79.23-1.18h-.77c-.4,0-.93,0-1.34,0V.69h6.3v1.2c-.41,0-.94,0-1.34,0H337.3c-.08.39-.18.79-.26,1.18h.88c1.05,0,1.2,0,1.59,0,0,.24,0,.63,0,1.2Zm-3.8,6.9h-1.33c0-.32,0-.77,0-1.44V9.15c0-.43,0-1,0-1.2.47,0,.89,0,1.49,0h2.64c.6,0,1,0,1.48,0,0,.24,0,.77,0,1.2v2c0,.63,0,1.07,0,1.4h-1.34V12h-2.94Zm2.94-3.54h-2.94v1.75h2.94Zm-.45-4.88h-1.38c-.1.51-.21,1-.32,1.52h1.7Z"/>
        <path d="M348,.12V1.33h-2.44v9.09h-1.33V.12Z"/>
        <path d="M353.23,10.47h-1.47c0-.5,0-1.29,0-2.36V5.27c0-1.27,0-1.71,0-2.14l1.15,0h5.66l1.14,0c0,.43,0,1.33,0,2.14V8.11c0,1.12,0,1.85,0,2.36h-1.47V9.84h-5Zm5-2v-4h-5V8.52Z"/>
        <path d="M373.85,7.11c-.63,0-1.69,0-2.41,0H365.8c-.66,0-1.84,0-2.42,0V5.67c.56,0,1.73,0,2.42,0h5.64c.74,0,1.81,0,2.41,0Z"/>
        <path d="M377.78,2.86c1.14,0,3.09-.06,4.08-.11l2.47-.15.2-.24,1,.93c.11.11.14.13.14.21s-.06.12-.16.15l-.16,0a18.11,18.11,0,0,1-1.93,2.89l.19.13a13.88,13.88,0,0,1,2,1.78,11.65,11.65,0,0,1,1.35,1.6l-1.17,1a13.76,13.76,0,0,0-2.17-2.59c-.83-.73-1-.83-1.14-1a15.5,15.5,0,0,1-5.29,3.61,5,5,0,0,0-.78-1.28A14,14,0,0,0,382,6.08a12.83,12.83,0,0,0,1.43-1.88,2.54,2.54,0,0,0,.17-.28l-1.7.16c-.12,0-.59,0-1.28.08s-2.14.15-2.76.21Z"/>
        <path d="M393.48,4.8a18.85,18.85,0,0,1,4.22,2.06l-.85,1.28a14.47,14.47,0,0,0-3.37-1.89V9.12c0,1.27,0,2.06,0,2.75h-1.6A23.79,23.79,0,0,0,392,9.12V3.73c0-1.53,0-2.38-.06-2.8l1.58.09c.13,0,.21.06.21.14s-.08.16-.25.25c0,.89,0,1.06,0,2.32Z"/>
        <path d="M411,7.11c-.63,0-1.7,0-2.41,0h-5.65c-.66,0-1.83,0-2.41,0V5.67c.55,0,1.72,0,2.41,0h5.65c.74,0,1.8,0,2.41,0Z"/>
        <path d="M416.16,1.59c.14,0,.22,0,.22.13s-.05.14-.25.27c0,.39,0,.88,0,1.53V6.09c0,.94,0,1.54,0,2h-1.58c0-.46.05-1.08.05-2V3.52c0-1.07,0-1.65-.05-2Zm4,4.12c0,2.86-.41,4.1-1.79,5.24a9.59,9.59,0,0,1-2.88,1.59,2.37,2.37,0,0,0-.86-1.32,8.46,8.46,0,0,0,2.65-1.34c1-.84,1.36-1.88,1.36-4V3.22c0-1,0-1.64,0-2l1.59.09c.15,0,.23.06.23.15s-.06.14-.23.26c0,.39,0,.66,0,1.52Z"/>
        <path d="M434.3,7.11c-.64,0-1.7,0-2.42,0h-5.64c-.66,0-1.83,0-2.41,0V5.67c.55,0,1.72,0,2.41,0h5.64c.75,0,1.81,0,2.42,0Z"/>
        <path d="M436.59,12.71V11.49H439V2.41h1.34v10.3Z"/>
      </g>
    </g>
  </g>
</svg>
