<svg xmlns="http://www.w3.org/2000/svg" viewBox="0 0 831.5 92.85">
  <g id="Layer_2" data-name="Layer 2">
    <g id="レイヤー_1" data-name="レイヤー 1">
      <g>
        <path d="M55.32,16.44a135.71,135.71,0,0,1-17.17,6.1A122.37,122.37,0,0,0,43,34a91.75,91.75,0,0,0,17.58-8.48l4.75,8.89A108.9,108.9,0,0,1,47.15,42.7,126.72,126.72,0,0,0,62,65l-7.66,6.52C46.22,65.76,40.22,63.69,32,63.69c-9,0-14.06,3.41-14.06,9.62S24,82.2,37.43,82.2a94.31,94.31,0,0,0,13.13-.93,29.53,29.53,0,0,0-2.28,11.47c-4,.11-5.79.11-8.89.11-10.54,0-16.23-.83-21.5-3A17.47,17.47,0,0,1,7,73.72C7,62.45,16.75,55,31.64,55a41.13,41.13,0,0,1,12.51,2c-2-3-5.69-9.72-6.52-11.17-6.2,1.86-13.23,3.11-17.16,3.11-7.55,0-11.37-3-11.37-9.21,0-2.27.41-3.93,1.76-7.23L20,34.33a6.28,6.28,0,0,0-.94,3c0,1.24.52,1.75,2.07,1.75a53,53,0,0,0,12.2-2.17c-.93-2-3.62-8.27-5-11.68C23.16,26.57,14.89,27.92,2,29.67L0,19.54c9.62-.83,20.68-2.38,25.33-3.51-.21-.52-1.24-4-1.86-6.1-1.76-5.79-2.69-8.79-2.79-9.1L32.46,0h.21A1.29,1.29,0,0,1,34,1.24c0,.72-.11,1-1.56,2.07.73,3.41,1.66,6.72,2.69,10.13A103.33,103.33,0,0,0,51,7.24Z"/>
        <path d="M118.18,25.54a1.64,1.64,0,0,1,1.45,1.55c0,.72-.62,1.24-2.28,1.76a200.74,200.74,0,0,0-2.69,25.95h.52A42.3,42.3,0,0,1,149.4,36.5c14.79,0,23.78,7.86,23.78,20.88,0,12.31-7.44,21.82-21.29,27.3-6,2.38-15.62,4.65-25.65,6.1a48.4,48.4,0,0,0-3-11.37c11.06-1.14,18.3-2.59,24.81-5.17,8.69-3.52,13.85-9.83,13.85-17.17,0-6.92-4.54-10.85-12.4-10.85-9.1,0-17,3.51-25,11.27C119.73,61.93,116,68.14,115,73l-10.65-.21c-.1-5.27-.1-6.41-.1-8.79,0-7.55.52-16.44,1.76-29.16.31-3.1.31-4,.62-7.85a31,31,0,0,1,.41-4.14ZM116.32,3.1a74.1,74.1,0,0,1,25.33,12l-6.2,9.4a68.21,68.21,0,0,0-24.09-12.2Z"/>
        <path d="M229.23,40C240.5,29.57,250.42,24.92,261,24.92c13.33,0,22.64,10,22.64,24.4,0,12.61-5.89,22.75-17.27,29.57-6,3.62-10.54,5.48-20.57,8.37-1.76-4.65-3-6.92-5.48-9.92,12.82-2.9,20-6.1,25.64-11.69,4.65-4.65,6.93-9.71,6.93-16,0-8.89-5-14.48-12.93-14.48-7.23,0-15.82,4.14-24.81,12.1a69.39,69.39,0,0,0-6,5.89c.21,26.89.31,28.85.52,35.47L218,88.92c.1-2.28.41-10.86.93-25.64-.93,1.44-6.31,8.58-9.93,13.13-2.38,3-3,3.82-4.24,5.58l-7.44-9c6.92-7,18.09-20.48,21.81-26.47,0-1.35.11-5.38.11-11.58-6.93,2.27-10.65,3.62-15.72,5.79l-3.83-11a168.5,168.5,0,0,0,19.55-4.66c0-.62.1-3,.1-4.34V12.92a69.24,69.24,0,0,0-.62-9.71L230.05,4c.83.11,1.35.42,1.35,1,0,.41-.31.82-1.35,1.44-.51,9.31-.62,11.69-.62,13.45v1.55A12.49,12.49,0,0,0,232,19.23l4.44,6.1a3,3,0,0,1,.83,1.45c0,.72-.62,1.14-2.27,1.45-2.49,2.58-3.73,3.82-5.79,6.2Z"/>
        <path d="M337.27,42.91c2.28-2.69,2.79-3.31,10.76-12.41,8.06-9.3,11.27-11.27,18.09-11.27,7.65,0,12.2,4.14,12.2,11.17,0,2.38-.21,5.27-.52,8.48-.2,2.58-1.24,14.06-1.55,16.95-1.13,9.31-1.55,12.82-1.55,15.41,0,2.79.62,3.31,2.9,3.31,2.48,0,5.06-1.24,8.06-3.83s5-5.27,8.07-11.48a54.13,54.13,0,0,0,7.75,7.66c-4.45,8.27-8.69,12.71-15.2,16a23.56,23.56,0,0,1-10.75,2.38c-8.38,0-11.89-3.52-11.89-11.48,0-4.86,0-6.3,2.89-32.36.31-3.31.83-9.1.83-10.24,0-1.65-.83-2.68-2.27-2.68-3.73,0-8.28,3.82-15.93,13.13-4.44,5.48-5.68,7-12,14.47.21,25,.21,27,.52,33.5L326,90c.31-4.44.31-5.27.73-24-3.93,5.48-6.83,9.21-9,11.9s-3,3.72-4.44,5.68l-6.62-9.72c4.24-4.24,17.06-18.5,20.37-24.29.1-2.9.1-5.28.1-6.73s.1-3,.1-4.44c-.82.31-1,.31-2.79.93A129,129,0,0,0,312,43.94L308.32,33.4a142.77,142.77,0,0,0,18.92-4.86V19.13a130.77,130.77,0,0,0-.51-14.89l11.37.83c.83.1,1.34.41,1.34,1,0,.41-.2.62-1.34,1.45l-.52,10.54c-.1,2.9-.1,4.76-.1,5.69a12.1,12.1,0,0,0,2.58-2.27l4.45,6c.62.93.83,1,.83,1.45,0,.72-.62,1.14-2.38,1.45-1,1.14-1.55,1.76-3.83,4.13a15.76,15.76,0,0,1-1.86,2Z"/>
        <path d="M414.51,46.53a165.62,165.62,0,0,0,20.78-14.27c7.86-6.2,8.89-6.83,12.72-6.83,2.58,0,4.44.63,8.27,2.8,1,.51,4.45,2.89,35.67,23.57,8.48,5.58,10.24,6.72,16,10.34-5.59,7-5.9,7.44-7.65,10.86-7.35-5.79-15.41-11.79-39.4-28.95-9-6.52-10.65-7.45-12.61-7.45-1.66,0-2.48.31-5.9,3.1-2.48,2-15.61,13-18.92,15.93-.2,1.86-.62,2.58-1.34,2.58a1.6,1.6,0,0,1-1.34-.83Zm59.86-28.75A66.3,66.3,0,0,1,487.5,28.12l-5.17,5.59a59.75,59.75,0,0,0-12.51-10.65Zm8.07-9.4a69.45,69.45,0,0,1,13.13,10.33L490.4,24.4a63.27,63.27,0,0,0-12.51-10.75Z"/>
        <path d="M609.82,52c-4.86-.11-13-.31-18.51-.31H548c-5.07,0-14.06.2-18.51.31V40.94c4.24.11,13.24.31,18.51.31h43.32c5.69,0,13.86-.1,18.51-.31Z"/>
        <path d="M700.29,31.74H659.14c-3.52,0-9,.11-12.41.21V20.89c3.1.1,8.17.2,12.41.2h44.05c3.51,0,6.2,0,8.78-.1-.1,3.31-.31,6-.31,16.44V59.86c0,8.28.11,14.27.31,18.2H700.29V73.2H658.42c-3.42,0-9.31.11-12.41.21V62.35c3.1.1,8.37.2,12.41.2h41.87Z"/>
        <path d="M759.54,15.51c10.75,5.58,14.68,8.48,21.81,16.34l-8.17,9c-7.44-8.27-12.82-12.61-20.47-16.75Zm-3.93,58.31c15.61-6.61,24.5-11.68,36.29-20.57,13.75-10.55,21.82-18.72,32.46-33.19a59.81,59.81,0,0,0,7.14,9.82c-13.65,16.44-21.3,24-33.4,33.09-10.13,7.65-17.78,12.3-32.46,19.74-.42,1.45-.83,2.18-1.55,2.18a2.69,2.69,0,0,1-1.76-1.24Z"/>
      </g>
    </g>
  </g>
</svg>
