<svg xmlns="http://www.w3.org/2000/svg" viewBox="0 0 183.74 194.15">
  <defs>
    <style>
      .cls-1 {
        fill: #231815;
      }

      .cls-2 {
        fill: #e99792;
      }

      .cls-3 {
        fill: #e06b62;
      }

      .cls-4 {
        fill: #f5cfca;
      }

      .cls-5 {
        fill: #b7681e;
      }
    </style>
  </defs>
  <g id="Layer_2" data-name="Layer 2">
    <g id="レイヤー_1" data-name="レイヤー 1">
      <g>
        <path class="cls-1" d="M29.23,191.4c-.15,0-.2,0-.49-.23a2.61,2.61,0,0,0-1.69-.49l-.55,0v0c1.55-.56,1.63-.7,1.63-1a2.59,2.59,0,0,0-2.67-2.13,4.25,4.25,0,0,0-1.13.17,3.78,3.78,0,0,1,1.41,2.65,2.27,2.27,0,0,1-2.2,2.11.34.34,0,0,1-.38-.24c-.17-.4-.28-.65-2-1.56l0-.05a8.91,8.91,0,0,0,2.07.27c.4,0,1-.1,1-.85a3.76,3.76,0,0,0-1-1.84,12,12,0,0,0-3.78,3.64.48.48,0,0,1-.4.27A1.5,1.5,0,0,1,18,190.58a2.14,2.14,0,0,1,.83-1.56c0,.21-.08,1,.32,1,.13,0,.3-.07.67-.32A27.69,27.69,0,0,1,23,187.82c-.48-.51-1.14-1.18-1.14-1.85a2,2,0,0,1,1-1.55c.44-.3.44-.36.44-.42s-.09-.19-.37-.4a2.21,2.21,0,0,1-1.05-2.38c.65,1.11,1.14,1.23,2.79,1.65a1.21,1.21,0,0,1,.93,1.15c0,.38-.16.55-.51.55l-1,0c-.87,0-1.86.5-1.86,1.08s1.2,1.38,1.77,1.77a5.66,5.66,0,0,1,1.77-.29c2.46,0,4.15,1.65,4.15,3.26C29.88,190.73,29.73,191.4,29.23,191.4Z"/>
        <path class="cls-1" d="M40.48,190.75a14.11,14.11,0,0,1-4.43.65c-.15,0-.55,0-1,0v-.11c2.6-.21,6.76-1.64,6.76-4.66a2.46,2.46,0,0,0-2.59-2.43c-2.06,0-3.89,1.5-5.08,2.79-.37.41-.52.57-.89.57a2.1,2.1,0,0,1-1.66-2,2,2,0,0,1,.27-1c.26.57.51,1,.94,1a2.93,2.93,0,0,0,1-.31c2.81-1.24,3.75-1.67,5.54-1.67,2.08,0,4,1.15,4,3.39A4.12,4.12,0,0,1,40.48,190.75Z"/>
        <path class="cls-1" d="M48,194.15l0-.1c2.17-1.06,3.6-4.1,3.6-6.48,0-.84-.29-2.19-1.17-2.19-1.13,0-2.5,2-2.59,2.12-.24.35-.4.59-.74.59a1.81,1.81,0,0,1-1.54-1.76,1.69,1.69,0,0,1,.3-1c.22.56.4.85.84.85a2.07,2.07,0,0,0,1-.33c1.63-.84,2.1-1.1,3-1.1,2.3,0,2.44,2.57,2.44,3.17A6.31,6.31,0,0,1,48,194.15Zm3.47-10.66c-.2,0-1.09-.13-1.27-.13a6.2,6.2,0,0,0-1.73.34v-.07c.17-.11,1.07-.69,1.07-.9s-.14-.16-.22-.19a3,3,0,0,1-1.57-1,2.19,2.19,0,0,1-.44-1.14c.68.69,1.1.79,2.91,1.09,1.18.2,1.83.69,1.83,1.45A.5.5,0,0,1,51.47,183.49Z"/>
        <path class="cls-1" d="M61,192.47l0-.1c2-.8,4.33-2.45,4.33-5.48a3.57,3.57,0,0,0-3.91-3.75,1.8,1.8,0,0,0-.66.08c1.22.66,1.22,1.27,1.22,1.45a20.05,20.05,0,0,1-2.09,4.58c-1.05,1.76-1.57,2.22-2.05,2.22s-.57-.21-1-.88a1.9,1.9,0,0,0-.54-.59,2.25,2.25,0,0,1-.61-1.69,5.8,5.8,0,0,1,6-5.65c2.65,0,5.23,1.59,5.23,4.58C66.91,191.61,62.08,192.32,61,192.47Zm-.74-9.16a5.33,5.33,0,0,0-3.41,4.82c0,.57.26,1.94.83,1.94s1.24-1.42,1.8-2.64a10.84,10.84,0,0,0,1.12-3.21A1.35,1.35,0,0,0,60.24,183.31Z"/>
        <path class="cls-1" d="M80.49,191c-.62,0-1.75-.95-4.11-3.6-.31-.35-1.58-1.89-1.9-2.14S74.14,185,74,185c-.45,0-1.18,1.16-1.56,1.76a10.68,10.68,0,0,0-1.19,2.13c-.11.29-.17.43-.43.43a2.41,2.41,0,0,1-1.71-2.06,1.77,1.77,0,0,1,.09-.54c.47.61.66.73.84.73s.2,0,1.7-1.7,1.75-1.86,2.21-1.86c.62,0,1,.39,2.11,1.58a13.67,13.67,0,0,0,3.9,3.2A2.35,2.35,0,0,1,81,190.37.59.59,0,0,1,80.49,191Zm-1.55-5.72c-.26,0-.31-.08-.77-.63a5.33,5.33,0,0,0-1.49-1.25c1.89,0,2.71.71,2.71,1.34A.49.49,0,0,1,78.94,185.26Zm1.48-1.1c-.22,0-.42-.12-.75-.54a4.73,4.73,0,0,0-1.59-1.35c1.6-.05,2.75.56,2.75,1.39C80.83,184,80.64,184.16,80.42,184.16Z"/>
        <path class="cls-1" d="M93.13,187.92c-.24,0-.58,0-.63,0-.8-.06-2.62-.06-3.61-.06a24.19,24.19,0,0,0-3.84.33,2.58,2.58,0,0,1-.5.11c-.46,0-1.3-1.08-1.3-1.8a2.56,2.56,0,0,1,.29-.92c.45,1.09.7,1.15,2.24,1.15.85,0,5.65-.06,6-.17a2.69,2.69,0,0,1,.54-.14c.55,0,1.71.24,1.71,1C94,187.71,93.65,187.92,93.13,187.92Z"/>
        <path class="cls-1" d="M105.7,185.16c-.27.21-.33.26-.57,1.31-.11.48-.49,2.61-.57,3a1,1,0,0,1,.64.83.43.43,0,0,1-.49.45l-2.32-.06a11.69,11.69,0,0,0-3.46.44c-.13,0-.71.21-.79.21-.52,0-1.35-1.15-1.35-1.75a2,2,0,0,1,.14-.69,2.21,2.21,0,0,0,1.76,1c.57,0,3.62-.2,4.7-.35a36.2,36.2,0,0,0,.56-4.52c0-.19-.08-.27-.28-.27a21,21,0,0,0-4.68.64,5.61,5.61,0,0,1-.67.19c-.57,0-1.39-1-1.39-1.84a3,3,0,0,1,0-.52,2.28,2.28,0,0,0,1.8.95,37.34,37.34,0,0,0,5.16-.43,6.24,6.24,0,0,1,.71-.39c.22,0,1.36,1,1.36,1.36C106,184.92,105.9,185,105.7,185.16Z"/>
        <path class="cls-1" d="M111.51,185.12c-.27,0-.41-.16-1-.8a5.69,5.69,0,0,0-2.21-1.67,4.7,4.7,0,0,1,1-.11c.76,0,2.89.25,2.89,1.73A.8.8,0,0,1,111.51,185.12Zm2.1,4.37c-.39.33-2.47,2-2.55,2.07-.38.41-.42.45-.62.45-.59,0-1.71-1.35-1.71-2.24a1.91,1.91,0,0,1,.14-.66c.57,1,1,1,1.11,1a15.84,15.84,0,0,0,3.44-2.16,25,25,0,0,0,4.34-4.24l.08,0A13.38,13.38,0,0,1,113.61,189.49Z"/>
        <path class="cls-1" d="M126.77,183.52c-.33.18-2,2-2.34,2.35.17.13.37.25.54.39s.15.12.15.24-.12.46-.13.51a3.57,3.57,0,0,0-.07.88c0,1.19.08,3.09.08,4.27,0,.59-.22,1-.6,1-.56,0-.88-.9-.88-1.21,0-.12.12-.73.14-.85,0-.32.11-2.12.11-2.72a6.65,6.65,0,0,0-.15-1.79,14,14,0,0,1-4.82,2.91l0-.08c2.84-1.87,6.59-6.35,6.59-7,0-.46-.39-.74-.71-1a2.42,2.42,0,0,1,.48-.06,2.47,2.47,0,0,1,2.14,1.6C127.25,183.27,127,183.38,126.77,183.52Z"/>
        <path class="cls-1" d="M138.09,184.3a1.63,1.63,0,0,0-.37.52,22,22,0,0,1-1.15,2.19c.44.36,1.63,1.29,1.63,2.36a.81.81,0,0,1-.73.84c-.34,0-.48-.21-.83-.71s-.83-1.18-.91-1.28a11.27,11.27,0,0,1-6.14,4.33l-.06-.11a17.08,17.08,0,0,0,5.3-5.21,15.14,15.14,0,0,0-3-2.06,8.93,8.93,0,0,1,3.58,1.08,13.51,13.51,0,0,0,1.15-2.83c0-.48-.77-.76-1-.83a1.67,1.67,0,0,1,.92-.29,2.45,2.45,0,0,1,2,1.51C138.49,184,138.39,184,138.09,184.3Z"/>
        <path class="cls-1" d="M151.08,187.92c-.23,0-.57,0-.63,0-.79-.06-2.62-.06-3.61-.06a24.19,24.19,0,0,0-3.84.33,2.76,2.76,0,0,1-.49.11c-.47,0-1.3-1.08-1.3-1.8a2.56,2.56,0,0,1,.28-.92c.46,1.09.7,1.15,2.24,1.15.85,0,5.65-.06,6-.17a2.78,2.78,0,0,1,.55-.14c.55,0,1.7.24,1.7,1C152,187.71,151.6,187.92,151.08,187.92Z"/>
        <path class="cls-1" d="M157.7,187.54c-.33,0-.51-.16-1-.6a8.14,8.14,0,0,0-2.29-1.33,7.56,7.56,0,0,1,1.49-.19c1.46,0,2.44.56,2.44,1.36C158.31,187.15,158.05,187.54,157.7,187.54Zm.31,4.55a3.62,3.62,0,0,0-.34.34c-.19.22-.26.29-.45.29a2.53,2.53,0,0,1-1.57-2.2,1.63,1.63,0,0,1,.07-.45c.1.14.58.83,1,.83a.91.91,0,0,0,.55-.18,25.3,25.3,0,0,0,7.07-6.28l.11.06C162.94,188.32,160.93,189.86,158,192.09Zm.73-7.79c-.33,0-.51-.18-1-.68a8.28,8.28,0,0,0-2-1.39,3.57,3.57,0,0,1,.95-.13c1.39,0,2.7.52,2.7,1.5A.65.65,0,0,1,158.74,184.3Zm4.92-.05c-.23,0-.27-.06-.76-.62a6.27,6.27,0,0,0-1.43-1.2c2.15-.06,2.66.88,2.66,1.26A.5.5,0,0,1,163.66,184.25Zm1.12-1.28c-.21,0-.25,0-.72-.53a5,5,0,0,0-1.49-1.08c.17,0,.28,0,.52,0s2.17,0,2.17,1.11A.47.47,0,0,1,164.78,183Z"/>
      </g>
      <g>
        <g>
          <rect class="cls-2" x="0.34" y="50.86" width="182.93" height="31.55"/>
          <rect class="cls-2" x="0.34" y="75.85" width="182.93" height="33.56"/>
          <rect class="cls-3" x="0.34" y="108.99" width="182.93" height="53.36"/>
          <rect class="cls-4" x="0.34" width="182.93" height="51.52"/>
          <path class="cls-4" d="M183.27,79c-3.92,0-3.92,4.42-7.84,4.42s-3.91-3.37-7.83-3.37-3.92-.87-7.83-.87-3.92,5.87-7.84,5.87-3.91-1.14-7.83-1.14-3.92.22-7.84.22-3.91-5.28-7.83-5.28-3.92,2.67-7.84,2.67S116.67,85,112.76,85s-3.92-.76-7.84-.76-3.92-.12-7.84-.12-3.92.85-7.84.85-3.91-5.26-7.83-5.26-3.92-1.12-7.84-1.12-3.92.09-7.83.09-3.92,4.66-7.84,4.66S54,78.93,50.06,78.93s-3.92,5.31-7.84,5.31-3.92.17-7.84.17-3.92.71-7.84.71-3.92-4.46-7.84-4.46c-3.5,0-8.45-.63-8.45-2.93s4.95-2,8.45-2c3.91,0,3.91-1.67,7.83-1.67s3.92-2.92,7.83-2.92,3.92-1,7.84-1S46.11,73,50,73s3.92,2.36,7.84,2.36,3.91,1,7.83,1,3.92-3.94,7.84-3.94,3.91.17,7.83.17,3.92,1,7.84,1,3.92-1.28,7.83-1.28,3.92.3,7.84.3,3.92,1.77,7.84,1.77,3.92,1.28,7.84,1.28,3.91-.29,7.83-.29,3.92-.52,7.84-.52,3.92,1,7.83,1,3.92-4,7.84-4,3.92,3.37,7.84,3.37,3.92,1.25,7.84,1.25,3.92-1.12,7.84-1.12,3.93.58,7.85.58"/>
          <path class="cls-4" d="M.34,113.82c3.91,0,3.91,2.82,7.83,2.82s3.92-4.18,7.83-4.18,3.92,1.94,7.84,1.94,3.91,1,7.83,1S35.59,111,39.51,111s3.91,6.42,7.83,6.42S51.26,116,55.18,116s3.91.13,7.83.13,3.92-5.21,7.84-5.21S74.77,115,78.68,115s3.92-1.21,7.84-1.21S90.44,112,94.36,112s3.92,1,7.84,1,3.91-1.2,7.83-1.2,3.92,1.83,7.84,1.83,3.92,3.66,7.83,3.66,3.92-2.33,7.84-2.33,3.92-4,7.84-4,3.92.38,7.84.38,3.92.81,7.84.81,3.93.44,7.85.44c3.5,0,7.19-.38,7.19-2.68s-3.69-1.64-7.19-1.64c-3.92,0-3.92.24-7.84.24s-3.91-4.45-7.83-4.45-3.92,2.73-7.83,2.73-3.92-3.69-7.84-3.69-3.91.3-7.83.3-3.92-.69-7.84-.69S114,107,110.07,107s-3.92,1.4-7.84,1.4-3.92-.63-7.83-.63-3.92-1-7.84-1-3.92-2.4-7.84-2.4-3.92,1-7.84,1-3.91.9-7.83.9-3.92,2.61-7.84,2.61-3.92-6.06-7.83-6.06-3.92,2.54-7.84,2.54-3.92.53-7.84.53-3.92.25-7.84.25-3.92-2.09-7.84-2.09-3.92-.73-7.84-.73S4.26,106,.34,106"/>
          <rect class="cls-5" x="0.34" width="182.93" height="3.98"/>
        </g>
        <rect class="cls-2" y="26.71" width="183.59" height="8.48"/>
        <path class="cls-4" d="M183.74,41.64c-3.73,0-3.73-.74-7.45-.74s-3.73.73-7.46.73-3.72-1.36-7.45-1.36-3.73,1.5-7.46,1.5-3.73-3.13-7.45-3.13-3.73,2.69-7.46,2.69-3.72-3.53-7.45-3.53-3.73,4.06-7.46,4.06-3.72-2-7.45-2-3.73-2.07-7.46-2.07S105.46,42,101.73,42s-3.73-.51-7.45-.51-3.74-1.78-7.47-1.78-3.73,0-7.46,0c-3.5,0-5.91-1.73-5.91-4s2.41-4.51,5.91-4.51c3.73,0,3.73-1.14,7.46-1.14s3.72.83,7.45.83,3.73,2.36,7.46,2.36,3.72-1.23,7.45-1.23,3.73.7,7.46.7,3.72.36,7.45.36,3.73,0,7.45,0,3.73-2.75,7.46-2.75,3.73,3,7.45,3,3.73-1.71,7.46-1.71,3.73-.78,7.46-.78,3.73,1.17,7.46,1.17,3.73,1,7.46,1,3.73-3.39,7.46-3.39"/>
      </g>
    </g>
  </g>
</svg>
