<svg xmlns="http://www.w3.org/2000/svg" viewBox="0 0 231.62 317.15">
  <defs>
    <style>
      .cls-1 {
        fill: #e99792;
      }

      .cls-2 {
        fill: #e06b62;
      }

      .cls-3 {
        fill: #f5cfca;
      }

      .cls-4 {
        fill: #b7681e;
      }

      .cls-5 {
        fill: #231815;
      }

      .cls-6, .cls-7 {
        fill: none;
        stroke: #000;
        stroke-miterlimit: 10;
      }

      .cls-7 {
        stroke-width: 1.02px;
        stroke-dasharray: 2.88 2.88;
      }
    </style>
  </defs>
  <g id="Layer_2" data-name="Layer 2">
    <g id="レイヤー_1" data-name="レイヤー 1">
      <g>
        <rect class="cls-1" x="23.09" y="220.15" width="182.93" height="19.35"/>
        <rect class="cls-1" x="23.09" y="232.94" width="182.93" height="32"/>
        <rect class="cls-2" x="23.09" y="264.52" width="182.93" height="20.88"/>
        <rect class="cls-3" x="23.09" y="121.62" width="182.93" height="113.64"/>
        <rect class="cls-1" x="91.3" y="157.69" width="114.72" height="2.22"/>
        <path class="cls-3" d="M206,253.07c-3.07,0-3.07-5.36-6.14-5.36s-3.07,4.1-6.14,4.1-3.08-2.67-6.15-2.67-3.07.4-6.14.4-3.07-1.54-6.14-1.54-3.07,0-6.15,0S166.09,247,163,247s-3.07,5.42-6.14,5.42-3.08,1.14-6.15,1.14-3.07-3.53-6.14-3.53-3.08-3.13-6.15-3.13-3.07,2.73-6.14,2.73-3.08,2-6.15,2-3.07-4.76-6.15-4.76-3.07,6-6.14,6-3.08.69-6.15.69-3.07,0-6.15,0-3.07-5.18-6.14-5.18-3.07-.61-6.14-.61-3.08.94-6.15.94-3.07,1.08-6.15,1.08-3.07-2.14-6.14-2.14-3.08,4.59-6.15,4.59-3.08,1.46-6.15,1.46-3.07-6.78-6.15-6.78-3.08,4.65-6.15,4.65-3.08-3.73-6.16-3.73c-2.74,0-3.4,1.3-3.4-.11s.66-1.15,3.4-1.15c3.07,0,3.07,1.2,6.14,1.2s3.07-4.62,6.15-4.62,3.07,3.94,6.14,3.94,3.07,1.43,6.14,1.43,3.07-6.45,6.15-6.45S73.87,245,76.94,245s3.07-.17,6.14-.17,3.07-1.26,6.15-1.26S92.3,248,95.37,248s3.07-1.76,6.14-1.76,3.08-4.21,6.15-4.21,3.07,4.9,6.14,4.9,3.08-4.31,6.15-4.31,3.07,4.92,6.15,4.92,3.07-5.16,6.14-5.16,3.08,4.4,6.15,4.4,3.07,1.81,6.15,1.81,3.07-2.68,6.14-2.68,3.07-3.45,6.14-3.45,3.08,4.71,6.15,4.71,3.07-2.74,6.15-2.74,3.07,3,6.15,3,3.07-3.47,6.14-3.47,3.08.11,6.15.11,3.08,2.67,6.15,2.67,3.08,1.1,6.16,1.1,3.07-2.54,6.15-2.54"/>
        <path class="cls-3" d="M23.09,266.47c3.74,0,3.74-.24,7.49-.24S34.32,270,38.06,270s3.75-.65,7.49-.65,3.74-2.18,7.49-2.18,3.74.37,7.48.37,3.75,1.3,7.49,1.3,3.75,3.48,7.49,3.48,3.74.31,7.49.31,3.74-4.68,7.49-4.68,3.74.69,7.49.69,3.74,1.88,7.49,1.88,3.74,2.22,7.49,2.22,3.74-3.76,7.49-3.76,3.74,1,7.48,1,3.75,2.24,7.49,2.24,3.75-.46,7.49-.46,3.75-.64,7.49-.64,3.75-2.31,7.49-2.31,3.75,4.13,7.5,4.13,3.74-2.37,7.49-2.37,3.75,2.41,7.5,2.41,3.75-.37,7.49-.37c3.39,0,8.86-4.72,8.86-6.87s-5.47-2.33-8.86-2.33c-3.74,0-3.74-3.14-7.48-3.14s-3.74,2.6-7.49,2.6-3.74.5-7.48.5-3.75,1.59-7.49,1.59-3.74-.9-7.49-.9-3.74-3.87-7.49-3.87-3.74-1.27-7.48-1.27-3.75,2.57-7.49,2.57-3.75-2.14-7.49-2.14-3.75-.08-7.49-.08-3.75.16-7.49.16-3.75,4.42-7.49,4.42-3.75-3.24-7.49-3.24-3.75,4-7.49,4-3.74-3.25-7.49-3.25-3.74-2.65-7.49-2.65-3.74.43-7.49.43S56.82,261,53.07,261s-3.75-2.19-7.49-2.19-3.75-.16-7.49-.16-3.75,5.92-7.5,5.92-3.75-5.36-7.5-5.36"/>
        <rect class="cls-4" x="23.09" y="121.62" width="182.93" height="3.98"/>
        <rect class="cls-1" x="23.09" y="200.98" width="182.93" height="2.01"/>
      </g>
      <g>
        <path class="cls-5" d="M7.56,313.67c-.18,0-.23,0-.82-.53a7.5,7.5,0,0,0-3.46-.89c-.53,0-2,.09-2,1.34S2.64,315,3.69,315c.4,0,.85,0,1.11-.06s.85-.14,1-.14c.52,0,1.26.36,1.26.88s-.72.71-2.33.71c-.63,0-2.62,0-3.57-.95a2.15,2.15,0,0,1-.63-1.5c0-2.16,2.69-2.16,3.41-2.16a15.73,15.73,0,0,1,2.52.24l.11,0s.11,0,.11-.09-1.22-1.68-1.44-2a10.72,10.72,0,0,1-3.06.57,2.13,2.13,0,0,1-2.06-1.4,3.47,3.47,0,0,0,1.8.51A7.81,7.81,0,0,0,4.65,309c-.4-.74-.57-1.1-.68-1.33a7.3,7.3,0,0,1-1.94.38A1.81,1.81,0,0,1,.32,307a2.46,2.46,0,0,0,1.23.27,5.8,5.8,0,0,0,2-.41c-.66-1.43-.77-1.67-1.53-1.67a2.65,2.65,0,0,0-.54.09A1.37,1.37,0,0,1,3,304.18c.91,0,1.28.29,1.31.85a4.61,4.61,0,0,0,.19,1.35,8.43,8.43,0,0,0,.83-.55,1.18,1.18,0,0,1,.72-.32c.36,0,.79.21.79.54,0,.51-1.37,1.1-2,1.35a9.6,9.6,0,0,0,.62,1.25c.3-.16.63-.34,1.11-.63s.62-.41.82-.41c.35,0,.87.25.87.6s-.14.38-.43.56a9.4,9.4,0,0,1-1.74.87,9.58,9.58,0,0,0,1.27,1.49c.83.78.94.89.94,1.44S8,313.67,7.56,313.67Z"/>
        <path class="cls-5" d="M13.78,316.06c-.33,0-.54,0-.78,0v-.11a8.67,8.67,0,0,0,3.64-1.59A2.79,2.79,0,0,0,18,312a1.57,1.57,0,0,0-1.55-1.68c-2.3,0-3.87,2.47-4.13,2.89-.14.23-.35.56-.61.56-.44,0-1-.69-1-1.32,0-.27.25-1.44.28-1.69.09-.73.12-1.71.16-2.72,0-.66.06-1.4,1.92-1.75a6,6,0,0,0,.61-.1.11.11,0,0,0,0-.09c0-.05,0-.09-.09-.13a1.93,1.93,0,0,1-1-1.67.9.9,0,0,1,0-.25,4.56,4.56,0,0,0,2.18,1.12,1.65,1.65,0,0,1,1.31,1.54c0,.53-.34.66-.53.66a1.46,1.46,0,0,1-.66-.23,4.26,4.26,0,0,0-1.89-.41c-.25,0-1.21,0-1.21.57a1.19,1.19,0,0,0,.33.71,1.39,1.39,0,0,1,.27.7,2.62,2.62,0,0,1-.23.91,10,10,0,0,0-.36,1.69c0,.1,0,.24.17.24s.93-.58,1.11-.68a7.36,7.36,0,0,1,3.46-1.08,2.73,2.73,0,0,1,2.9,2.65C19.52,314.54,17.19,316.06,13.78,316.06Z"/>
        <path class="cls-5" d="M26.37,315v-.11c3.16-.57,4.79-2.37,4.79-4.24a2,2,0,0,0-1.92-2.08,6.53,6.53,0,0,0-4.09,2c0,.18,0,.51,0,1s.18,2.7.18,2.81c0,.84-.29,1.75-.81,1.75s-.45-.36-.48-.75a5.51,5.51,0,0,0-.53-1.81l0,0a1.31,1.31,0,0,0,.68.4c.11,0,.14-.09.14-.24,0-.35-.06-1.91-.06-2.23a15.51,15.51,0,0,0-1.6,2.49c-.38.73-.49.76-.66.76-.42,0-.48-.62-.48-.84,0-.49.28-.8.69-1.25a15.21,15.21,0,0,0,2.12-3.25c0-.11,0-.6,0-.7-.31,0-1.48,1-1.78,1-.49,0-1-.67-1-1.4a1,1,0,0,1,.19-.67,1,1,0,0,0,.93.67,5.52,5.52,0,0,0,1.69-.53c0-.28.1-1.47.1-1.72,0-.47-.09-.87-1.07-1.11a1.37,1.37,0,0,1,.93-.37c.83,0,1.69.59,1.69,1a2,2,0,0,1-.2.6,7.24,7.24,0,0,0-.44,1.12c.32.1,1,.34,1,.6s-.38.7-.57.93a10.54,10.54,0,0,0-.73,1s0,.22,0,.26c2-1.68,3.4-2.08,4.6-2.08a2.8,2.8,0,0,1,2.89,2.91C32.66,313.86,29.46,315.1,26.37,315Z"/>
        <path class="cls-5" d="M43.71,315C42,315,42,313.28,42,312.85s.11-1.35.23-2.33.22-1.94.22-2.27,0-.95-.62-.95c-.9,0-2.86,2.07-3.59,3,0,.77,0,1.93.07,2.73,0,.23.11,1.21.11,1.4s-.08,1.63-.76,1.63c-.2,0-.46,0-.52-.66a3.63,3.63,0,0,0-.49-1.71l0,0a2,2,0,0,0,.59.32c.1,0,.1-.27.1-.49s0-1.58,0-1.84c-.14.22-1.47,2.81-1.5,2.87-.12.28-.24.49-.52.49s-.55-.58-.55-1,.09-.52.72-1.3a16.87,16.87,0,0,0,1.88-3.35c0-.2,0-.29,0-.74a13.13,13.13,0,0,0-1.2.8c-.27.21-.39.25-.53.25-.39,0-.89-.67-.89-1.26a1.64,1.64,0,0,1,.24-.79c.13.2.39.62.85.62a6,6,0,0,0,1.6-.52c0-.24.09-1.31.09-1.54,0-1-.53-1.08-1.3-1.16a1.24,1.24,0,0,1,1-.56c.78,0,1.79.54,1.79,1.06a1.8,1.8,0,0,1-.23.77,3.61,3.61,0,0,0-.34,1c.26.17.52.38.52.55s-.67,1.19-.78,1.41,0,.17,0,.33a14.73,14.73,0,0,1,2.35-2.34,2.51,2.51,0,0,1,1.69-.76c.55,0,1.52.29,1.52,1.74a16.63,16.63,0,0,1-.29,2.7,11.66,11.66,0,0,0-.16,1.68c0,.38,0,.87.66.87a5.62,5.62,0,0,0,2.86-1.29l.08.07C46.23,313.59,45.43,315,43.71,315Z"/>
        <path class="cls-5" d="M59.62,314c-.62,0-1.76-1-4.12-3.6-.3-.35-1.58-1.89-1.89-2.14s-.35-.27-.48-.27c-.46,0-1.18,1.16-1.57,1.76a11.27,11.27,0,0,0-1.19,2.13c-.11.3-.16.44-.43.44a2.41,2.41,0,0,1-1.71-2.06,1.59,1.59,0,0,1,.1-.55c.46.62.65.73.83.73s.21,0,1.7-1.69,1.76-1.87,2.21-1.87c.62,0,1,.4,2.11,1.59a13.58,13.58,0,0,0,3.9,3.19,2.36,2.36,0,0,1,1.06,1.72C60.14,313.67,60,314,59.62,314Zm-1.55-5.73c-.27,0-.32-.07-.77-.63a5.52,5.52,0,0,0-1.5-1.25c1.89,0,2.72.72,2.72,1.35A.49.49,0,0,1,58.07,308.31Zm1.48-1.09c-.22,0-.43-.13-.76-.55a4.47,4.47,0,0,0-1.59-1.34c1.61-.06,2.76.56,2.76,1.38C60,307,59.77,307.22,59.55,307.22Z"/>
        <path class="cls-5" d="M72.25,311c-.23,0-.57,0-.63,0-.79-.05-2.62-.05-3.61-.05a23.93,23.93,0,0,0-3.84.32,2,2,0,0,1-.49.11c-.47,0-1.3-1.08-1.3-1.79a2.62,2.62,0,0,1,.28-.93c.46,1.1.7,1.15,2.24,1.15.85,0,5.65-.05,6-.17a2.78,2.78,0,0,1,.55-.14c.55,0,1.7.24,1.7,1C73.13,310.76,72.77,311,72.25,311Z"/>
        <path class="cls-5" d="M84.82,308.21c-.26.21-.33.27-.56,1.32-.11.47-.5,2.6-.58,3a1,1,0,0,1,.64.82c0,.4-.3.45-.49.45l-2.32,0a12.06,12.06,0,0,0-3.46.43c-.13,0-.71.21-.79.21-.52,0-1.34-1.15-1.34-1.75a2.11,2.11,0,0,1,.13-.69,2.18,2.18,0,0,0,1.76,1c.57,0,3.62-.19,4.7-.35a37,37,0,0,0,.57-4.52c0-.18-.09-.27-.29-.27a21.1,21.1,0,0,0-4.68.65,5.54,5.54,0,0,1-.67.18c-.56,0-1.39-1-1.39-1.83a2.18,2.18,0,0,1,.06-.52,2.25,2.25,0,0,0,1.79.95,37.34,37.34,0,0,0,5.16-.43,5.18,5.18,0,0,1,.72-.4c.22,0,1.35,1,1.35,1.36C85.13,308,85,308,84.82,308.21Z"/>
        <path class="cls-5" d="M90.64,308.17c-.28,0-.42-.15-1-.8a5.79,5.79,0,0,0-2.21-1.67,5.4,5.4,0,0,1,1-.11c.77,0,2.89.25,2.89,1.74A.79.79,0,0,1,90.64,308.17Zm2.1,4.37c-.4.34-2.47,2-2.56,2.07-.38.41-.42.45-.61.45-.59,0-1.72-1.34-1.72-2.24a1.91,1.91,0,0,1,.14-.66c.58,1,1.05,1,1.11,1A16.25,16.25,0,0,0,92.54,311a24.72,24.72,0,0,0,4.34-4.25l.08.05A13.41,13.41,0,0,1,92.74,312.54Z"/>
        <path class="cls-5" d="M103.57,317.15a8.55,8.55,0,0,1,0-13.56l.13.2a10,10,0,0,0,0,13.16Z"/>
        <path class="cls-5" d="M110.37,305.63l0,4.82v2.71c0,2.17,0,2.27-.21,2.59a2.89,2.89,0,0,1-1.67.91,2.38,2.38,0,0,0-1.22-1.77v-.08c.31,0,.78.07,1.3.07.21,0,.41,0,.45-.25s0-2.86,0-3.24v-.21h-1.29a8.05,8.05,0,0,1-2.36,5.41l0,0c1.07-2.85,1.2-4.14,1.2-8,0-.72,0-3.07-.09-3.72,0-.12-.11-.68-.11-.79l1.57.75H109l.31-.4c.11-.14.19-.2.28-.2a.54.54,0,0,1,.28.14l.83.59a.27.27,0,0,1,.15.22C110.82,305.3,110.58,305.47,110.37,305.63ZM109,308.11h-1.21v.75c0,1,0,1.73,0,2H109Zm0-3h-1.21v2.69H109Zm8.27,4.1a10.27,10.27,0,0,1-2.93.3c-1.72,0-2.35-.13-2.69-.52s-.32-.56-.32-2.19a17.25,17.25,0,0,0-.13-2.85l1.64.4c.19,0,.29.11.29.23s-.1.22-.41.39c0,.24,0,1.29,0,1.5a12.18,12.18,0,0,0,2.43-1.56,3.54,3.54,0,0,0,.47-.57l1.41,1.15a.34.34,0,0,1,.14.22c0,.23-.22.23-.28.23a1.51,1.51,0,0,1-.35-.06,25.58,25.58,0,0,1-3.82.82,5.31,5.31,0,0,0,.08,1.24c.15.22,1,.22,1.38.22s1.63-.07,1.82-.1c.44-.05.6-.46.69-.65a8.38,8.38,0,0,0,.37-1.2h.11c.06.47.17,1.41.52,1.59s.33.18.33.42A1.19,1.19,0,0,1,117.29,309.19Zm-.26,2.1c0,.28,0,.58,0,1s.11,3.13.11,3.44a.84.84,0,0,1-1,.87c-.58,0-.56-.34-.52-.91H113c0,.59-.25.95-.88.95s-.56-.24-.56-.5c0-.48,0-1.25,0-1.72,0-.63,0-1.25,0-1.87a28.49,28.49,0,0,0-.1-2.9l1.55.7h2.51l.39-.47c.11-.13.16-.2.25-.2s.16.06.28.15l.8.62a.44.44,0,0,1,.19.3C117.47,310.9,117.25,311.11,117,311.29Zm-1.38-.57H113v2.07h2.69Zm0,2.41H113v2.25h2.69Z"/>
        <path class="cls-5" d="M124.26,305.68c0,1.3,0,9.51,0,9.63a1.68,1.68,0,0,1-1.77,1.43,2.47,2.47,0,0,0-1.15-1.83l0-.09a6.26,6.26,0,0,0,1.09.14c.29,0,.51,0,.51-.4v-3.35H121.7a7.81,7.81,0,0,1-2.22,5.35l0-.06c.81-1.77,1.12-3.86,1.12-7.76a30.55,30.55,0,0,0-.26-4.63l1.57.6h1l.31-.39c.14-.17.18-.23.25-.23s.07,0,.23.13l.9.63c.05,0,.15.14.15.22S124.58,305.38,124.26,305.68Zm-1.3,2.45h-1.17v.24c0,1.31-.05,2.2-.06,2.5H123Zm0-3.08h-1.17v2.74H123Zm9.07,1.87H127.9l.49.23c.15.07.24.15.24.24s-.35.35-.46.4c0,.73,0,1.14-.07,1.54h1.73l.28-.42c.09-.15.2-.28.31-.28a.57.57,0,0,1,.29.16l.7.58c.18.16.26.21.26.34a.34.34,0,0,1-.08.21c0,.06-.32.32-.37.38,0,.54-.18,2.95-.23,3.45-.21,1.79-.58,2.88-2.53,3a2.64,2.64,0,0,0-1.15-1.85l0-.07a9.38,9.38,0,0,0,1.5.19c.26,0,.57,0,.72-1a42.11,42.11,0,0,0,.28-4.33h-1.77c-.21,2.14-.69,5.38-4.12,7.21l0-.1c1.92-1.55,2.81-4.7,2.81-8.43,0-.7,0-1.23,0-1.43h-.58a7,7,0,0,0-1.48.1l-.22-.52c.76.07,1.58.09,1.85.09h.87a9.84,9.84,0,0,0-.26-2.75l1.68.44c.31.08.36.12.36.22s-.14.25-.43.41c0,.26,0,1.44,0,1.68H130l.52-.93c0-.07.12-.17.2-.17s.13,0,.27.14l1.11.93a.28.28,0,0,1,.13.21C132.23,306.9,132.11,306.92,132,306.92Z"/>
        <path class="cls-5" d="M140,315.31a2.27,2.27,0,0,1-1.45.86c-.43,0-.53-.3-.58-.81s0-.7-.87-1.92l.06-.07a7,7,0,0,0,1.64.81c.78,0,1.48-2.62,1.48-4.58,0-1-.33-1.18-.89-1.18a3.18,3.18,0,0,0-.62.06c-.14.28-1.1,2.48-1.32,2.93s-1.14,2.32-1.31,2.68c-.58,1.17-.85,1.66-1.27,1.66s-.63-.52-.63-.93a1.5,1.5,0,0,1,.42-1,19.25,19.25,0,0,0,2.86-5,10.22,10.22,0,0,0-1.75.88,1.05,1.05,0,0,1-.66.3c-.54,0-1.14-.77-1.14-1.47a1.23,1.23,0,0,1,.34-.81c.22.65.56.78.88.78a2.15,2.15,0,0,0,.43,0l2.26-.52a8,8,0,0,0,.55-2c0-.42-.19-.64-1.05-1a1.62,1.62,0,0,1,1-.38,2.27,2.27,0,0,1,1.54.81.53.53,0,0,1,.12.35c0,.25-.07.39-.33.78s-.39.75-.64,1.25c2-.12,2.29.77,2.29,2.42S140.81,314.39,140,315.31Zm5.44-3c-.26,0-.37-.11-.73-.46a3.05,3.05,0,0,0-2-.77l0-.12c1.17-.12,1.6-.35,1.6-.58a4,4,0,0,0-1-1.76,6.82,6.82,0,0,0-1.47-1.17,4.29,4.29,0,0,1,4.16,3.79C146.08,311.5,146,312.34,145.45,312.34Zm-.66-4.63c-.15,0-.28-.1-.8-.62a4,4,0,0,0-1.45-1c1.33-.08,2.71.24,2.71,1.09A.49.49,0,0,1,144.79,307.71Zm1.3-1.09c-.22,0-.34-.1-.88-.63a3.67,3.67,0,0,0-1.62-.89,7.42,7.42,0,0,1,1-.08c.29,0,1.91,0,1.91,1.06A.5.5,0,0,1,146.09,306.62Z"/>
        <path class="cls-5" d="M157.52,306.31c-.1,0-.53.15-.62.18-2.05,1.95-3.3,3.12-5.46,4a12.64,12.64,0,0,1-3.91,1.08l0-.11a18.9,18.9,0,0,0,5-2.69c-.14,0-.48,0-.74-.59a4.31,4.31,0,0,0-.55-1,13.74,13.74,0,0,1-3.43,1.88l-.08-.09c2.77-2,4.39-4.31,4.59-5.16l1.76.56a.23.23,0,0,1,.18.21c0,.16-.39.23-.57.28l-.56.6h2.4l.63-.51c.1-.08.13-.11.19-.11a.48.48,0,0,1,.24.13l1,.88c.11.09.15.17.15.22S157.6,306.28,157.52,306.31Zm1.32,5.25a13.56,13.56,0,0,1-10.76,5.28l0-.13a15.73,15.73,0,0,0,6-2.43c-.4,0-.51-.34-.61-.69a4,4,0,0,0-.68-1.33,13.06,13.06,0,0,1-4.4,1.62l-.07-.09c3.38-1.32,6.46-4.53,7-5.66l1.62.73c.09,0,.2.09.2.18s-.43.26-.71.31c-.26.26-.52.56-1,1h2.17l.59-.44c.11-.09.14-.12.19-.12s.14.06.23.14l1,1a.36.36,0,0,1,.16.25C159.67,311.27,159.56,311.29,158.84,311.56Zm-6-5.79a14.76,14.76,0,0,1-1.25,1.14c.09,0,.54.1.61.11.56.1,1.08.51,1.08,1a.7.7,0,0,1,0,.21,13.75,13.75,0,0,0,2.26-2.47Zm2.11,4.92a13.89,13.89,0,0,1-1.83,1.37c.31.07,1.79.44,1.79,1.31a.65.65,0,0,1-.07.29,12.29,12.29,0,0,0,2.62-3Z"/>
        <path class="cls-5" d="M166,313a2,2,0,0,0-.08.39c0,.16.19.82.19.94a.61.61,0,0,1-.66.64c-.67,0-2.6-.95-2.76-4.88,0-.33,0-1.74-.06-2a4.33,4.33,0,0,0-.62-2c1,.08,2.22.69,2.22,1.82a2.24,2.24,0,0,1-.07.44,10.75,10.75,0,0,0-.34,2.32c0,1.32.62,2.21.88,2.21s.52-.44.71-.71c.47-.63,1.5-2.13,1.76-2.55l.09,0C167.15,310,166,313,166,313Zm6.38-.29c-.23,0-.3-.07-.86-.7a3.8,3.8,0,0,0-1.77-.66v-.1c.11,0,1.38-.15,1.53-.21a.37.37,0,0,0,.22-.38,5,5,0,0,0-.66-1.92,6.26,6.26,0,0,0-1.49-1.66c1.79,0,3.82,2.15,3.82,4.17C173.17,312.11,172.75,312.74,172.38,312.74Z"/>
        <path class="cls-5" d="M175.47,317.15l-.13-.2a10,10,0,0,0,0-13.16l.13-.2a8.55,8.55,0,0,1,0,13.56Z"/>
        <path class="cls-5" d="M190.08,306.57c-.33.18-2,2-2.35,2.36.18.12.37.25.55.39s.15.11.15.24a4.67,4.67,0,0,1-.14.5,4.25,4.25,0,0,0-.06.88c0,1.19.08,3.1.08,4.28,0,.58-.22,1-.61,1-.56,0-.87-.89-.87-1.2,0-.13.12-.73.13-.86.06-.32.11-2.11.11-2.71a6.69,6.69,0,0,0-.15-1.8,14,14,0,0,1-4.81,2.92l-.06-.09c2.84-1.86,6.6-6.34,6.6-7,0-.46-.4-.74-.71-1a2.36,2.36,0,0,1,.48-.05,2.48,2.48,0,0,1,2.14,1.59C190.56,306.32,190.34,306.43,190.08,306.57Z"/>
        <path class="cls-5" d="M201.4,307.36a1.62,1.62,0,0,0-.38.52,19.58,19.58,0,0,1-1.15,2.18c.44.36,1.64,1.29,1.64,2.37a.81.81,0,0,1-.73.84c-.34,0-.48-.21-.84-.72s-.82-1.17-.9-1.27a11.35,11.35,0,0,1-6.15,4.33l0-.11a17.17,17.17,0,0,0,5.29-5.21,14.73,14.73,0,0,0-3-2.06,8.82,8.82,0,0,1,3.58,1.07,13.59,13.59,0,0,0,1.16-2.82c0-.48-.77-.76-1-.83a1.62,1.62,0,0,1,.92-.3,2.44,2.44,0,0,1,2,1.52C201.79,307,201.7,307.09,201.4,307.36Z"/>
        <path class="cls-5" d="M214.39,311c-.23,0-.58,0-.63,0-.8-.05-2.62-.05-3.61-.05a23.93,23.93,0,0,0-3.84.32,1.9,1.9,0,0,1-.5.11c-.46,0-1.3-1.08-1.3-1.79a2.61,2.61,0,0,1,.29-.93c.45,1.1.7,1.15,2.24,1.15.85,0,5.65-.05,6-.17a2.61,2.61,0,0,1,.55-.14c.54,0,1.7.24,1.7,1C215.27,310.76,214.91,311,214.39,311Z"/>
        <path class="cls-5" d="M221,310.59c-.33,0-.51-.15-1-.6a8,8,0,0,0-2.29-1.33,7.67,7.67,0,0,1,1.5-.18c1.45,0,2.44.56,2.44,1.36A.72.72,0,0,1,221,310.59Zm.32,4.56a2.85,2.85,0,0,0-.35.33c-.19.23-.26.3-.45.3a2.54,2.54,0,0,1-1.56-2.2,1.25,1.25,0,0,1,.07-.45c.09.14.57.83,1,.83a.88.88,0,0,0,.55-.19,25.22,25.22,0,0,0,7.06-6.27l.11.05C226.24,311.38,224.24,312.92,221.32,315.15Zm.72-7.79c-.32,0-.5-.19-1-.69a8.8,8.8,0,0,0-2-1.39,3.53,3.53,0,0,1,.95-.12c1.38,0,2.7.52,2.7,1.5A.66.66,0,0,1,222,307.36Zm4.93-.06c-.23,0-.28-.05-.77-.62a6,6,0,0,0-1.43-1.2c2.16-.06,2.67.88,2.67,1.26A.51.51,0,0,1,227,307.3Zm1.11-1.27c-.21,0-.25,0-.71-.54a5.31,5.31,0,0,0-1.5-1.07,3.94,3.94,0,0,1,.52,0c.13,0,2.17,0,2.17,1.1A.48.48,0,0,1,228.08,306Z"/>
      </g>
      <line class="cls-6" x1="113.42" y1="116.45" x2="113.42" y2="82.1"/>
      <g>
        <g>
          <path class="cls-5" d="M57.5,9.17c-.89,0-4.25-3.89-4.36-4-.9-1.11-1.26-1.37-1.55-1.37s-.86.68-1.22,1.25c-.16.27-1.2,1.91-1.26,2.05-.2.53-.22.58-.39.58a2.26,2.26,0,0,1-1.38-1.79,2.22,2.22,0,0,1,0-.45c.19.24.55.68.77.68s.28-.12.54-.42a21.23,21.23,0,0,1,2.47-2.6,1,1,0,0,1,.54-.16c.46,0,.79.2,1.77,1.34A13.51,13.51,0,0,0,57,7.34a2.05,2.05,0,0,1,.83,1.39C57.85,8.91,57.73,9.17,57.5,9.17ZM56.09,4.1c-.18,0-.24-.06-.7-.62a4.3,4.3,0,0,0-1.26-1c.43,0,2.29.15,2.29,1.22C56.42,3.83,56.32,4.1,56.09,4.1Zm1.33-.95c-.16,0-.32-.09-.63-.5a4.21,4.21,0,0,0-1.36-1.18c.54,0,2.32.25,2.32,1.27C57.75,3.06,57.56,3.15,57.42,3.15Z"/>
          <path class="cls-5" d="M71,6.49c-.2,0-.52,0-.77,0s-3.28,0-3.49,0a20.49,20.49,0,0,0-3.21.2,1.35,1.35,0,0,1-.42.09c-.46,0-1.16-1-1.16-1.51a1.78,1.78,0,0,1,.2-.72c.43.89.73,1,2.22,1,.72,0,5,0,5.48-.17a1.76,1.76,0,0,1,.5-.13s1.48.12,1.48.79C71.85,6.23,71.62,6.49,71,6.49Z"/>
          <path class="cls-5" d="M84.17,3.77a.65.65,0,0,0-.31.47c-.17.73-.23,1-.65,3.66.23.06.6.27.6.6s-.44.38-.86.38l-1.6,0a11.18,11.18,0,0,0-3.13.42,4.91,4.91,0,0,1-.69.21c-.34,0-1.13-1-1.13-1.61a1,1,0,0,1,.07-.41,2.7,2.7,0,0,0,1.61.86c.53,0,3.2-.28,4.27-.4.3-1.88.5-4.14.5-4.28s-.09-.16-.21-.16a24.16,24.16,0,0,0-4.33.58,5.17,5.17,0,0,1-.63.21c-.51,0-1-.88-1.05-1a1,1,0,0,1-.2-.69,3.29,3.29,0,0,1,0-.36,2.1,2.1,0,0,0,1.72.88,40.22,40.22,0,0,0,4.5-.43,4.38,4.38,0,0,1,.66-.37c.17,0,1.11.83,1.11,1.08S84.38,3.62,84.17,3.77Z"/>
          <path class="cls-5" d="M91.5,4c-.21,0-.37-.18-.8-.61A6.14,6.14,0,0,0,88.62,1.8a4,4,0,0,1,.61,0c.42,0,2.76.18,2.76,1.59A.57.57,0,0,1,91.5,4Zm1.12,4.25c-.46.37-1.21.91-1.63,1.31a6.08,6.08,0,0,1-.44.44.3.3,0,0,1-.17,0C89.93,10,89,8.86,89,8.23a2.61,2.61,0,0,1,.09-.6c.4.69.77.87,1,.87A17.22,17.22,0,0,0,93,6.59,27.53,27.53,0,0,0,96.91,2.8l0,0C96.76,3.64,95.51,5.91,92.62,8.21Z"/>
          <path class="cls-5" d="M102.75,7.77a10.45,10.45,0,0,0-.25,1.67c0,.14.07.74.07.87,0,.39,0,.65-.4.65-.73,0-1.43-1.54-1.43-3.77a22.22,22.22,0,0,1,.5-4,6.1,6.1,0,0,0,.08-.85,1.8,1.8,0,0,0-.48-1.22.55.55,0,0,1,.32-.11c.45,0,1.39.78,1.39,1.25a1.82,1.82,0,0,1-.18.64,8.64,8.64,0,0,0-1,3.72c0,.82.21,1.82.44,1.82s.15-.15.19-.25a25.93,25.93,0,0,1,1.09-2.72h.09C103.16,5.86,102.81,7.45,102.75,7.77Zm6,2.09c-3,0-4.22-.55-4.22-2.15a1,1,0,0,1,.17-.66c.21.9.41,1.72,2.72,1.72.27,0,1.43-.09,1.66-.09.89,0,1,.43,1,.63C110.11,9.86,109.42,9.86,108.73,9.86Zm0-6.67a6.22,6.22,0,0,0-2.46.91L106.17,4c.16-.2,1.07-1.05,1.07-1.15s-.4-.18-.5-.18a7,7,0,0,0-2.18.59c.42-1,2.17-1.4,3.37-1.4.55,0,1.57.17,1.57.76C109.5,2.92,109.34,3.08,108.71,3.19Z"/>
          <path class="cls-5" d="M119.62,3.52l-.3.23c0,.61-.06,3.55-.12,4.21-.23,2.64-.69,3.58-2.37,3.74,0-.35,0-.81-1.36-1.71l0-.1a5.79,5.79,0,0,0,1.53.28c.41,0,.73-.1.9-.83a34.8,34.8,0,0,0,.32-6h-1.46c0,2.22-.06,6-3.35,8.34l-.09-.09a8.9,8.9,0,0,0,1.86-3.68,16.42,16.42,0,0,0,.52-4.57h-.7a5.89,5.89,0,0,0-1.34.09l-.2-.47c.58,0,1.18.07,1.77.07h.47c0-1,0-1.56,0-2a3.28,3.28,0,0,0-.21-1L117,.48c.08,0,.21.12.21.23s0,.18-.39.4c0,.28,0,1.62,0,1.92h1.34l.52-.46s.1-.1.15-.1a.28.28,0,0,1,.19.09l.62.51a.42.42,0,0,1,.14.24C119.77,3.39,119.71,3.44,119.62,3.52Zm4.87-.41-.25.24V9.52c0,.2.09,1.08.09,1.26a.72.72,0,0,1-.73.73c-.41,0-.43-.25-.43-.62a1.74,1.74,0,0,1,0-.43h-1.82a2,2,0,0,1-.06.8.81.81,0,0,1-.67.45c-.45,0-.45-.32-.45-.51,0-1,.14-5.57.14-6.5a13.1,13.1,0,0,0-.2-3l1.39.78h1.59l.37-.38s.12-.13.17-.13.13.07.21.15l.61.54a.41.41,0,0,1,.13.23C124.62,3,124.57,3,124.49,3.11Zm-1.27-.31h-1.84v7.36h1.84Z"/>
          <path class="cls-5" d="M139.72,10.55h-9.67a6.58,6.58,0,0,0-1.35.09l-.2-.47c.58.05,1.18.07,1.77.07h3.3V2.06h-2.65a7.59,7.59,0,0,0-1.35.09l-.2-.47c.59.05,1.19.08,1.77.08h6l.57-.84c0-.05.13-.17.2-.17s.13,0,.24.13l1,.85c.05,0,.13.12.13.19s-.11.14-.19.14h-4.42v8.18h3.07l.73-.85c.12-.15.13-.17.2-.17a.44.44,0,0,1,.22.15l.91.85c.08.07.13.11.13.19S139.78,10.55,139.72,10.55Z"/>
          <path class="cls-5" d="M153.89,3.62s-1.77-.19-1.94-.22a6.09,6.09,0,0,0-.78,0c-.27,0-.74,0-1.43.09,0,.16,0,.38,0,.73a6.89,6.89,0,0,0,.05.89,4,4,0,0,1,.66,2.24,4.88,4.88,0,0,1-3.65,4.51l-.07-.1A5.63,5.63,0,0,0,149.29,8c-.32.37-.53.59-.86.59-.77,0-1.39-.9-1.39-1.94s.53-2,1.42-2a2.62,2.62,0,0,1,.71.13c0-.14,0-.21,0-.33s0-.79,0-.92A10.31,10.31,0,0,0,145,4.8a.68.68,0,0,1-.37.12c-.5,0-1.06-.83-1.06-1.42a.68.68,0,0,1,.15-.42,1.2,1.2,0,0,0,.9.59,6.87,6.87,0,0,0,.73-.09c2.45-.45,2.72-.5,3.74-.62-.08-1.9-.18-2-1.22-2.37a1.13,1.13,0,0,1,.86-.37c.4,0,1.35.37,1.35.77,0,0-.1.5-.12.55a10.45,10.45,0,0,0-.2,1.34l3.39-.42c.41,0,1.19.24,1.19.73C154.37,3.48,154.17,3.62,153.89,3.62Zm-5.57,1.67c-.4,0-.8.48-.8,1.21s.4,1.23.86,1.23.84-.57.84-1.26S148.87,5.29,148.32,5.29Z"/>
          <path class="cls-5" d="M163.32,10.84c-1.17,0-2.52-.44-2.52-1.56,0-.9.91-1.18,1.48-1.18a2.23,2.23,0,0,1,2,1.7,2.25,2.25,0,0,0,1.52-2.14,1.84,1.84,0,0,0-2-1.86c-1.84,0-3.19,1.31-4.15,2.84-.33.51-.4.64-.65.64a.58.58,0,0,1-.55-.65c0-.39.16-.56.85-1.27A48.45,48.45,0,0,0,162.72,3a3.75,3.75,0,0,0,.64-1.1c0-.07-.05-.09-.1-.09a7.81,7.81,0,0,0-1.75.76,4.41,4.41,0,0,1-.53.27,1.25,1.25,0,0,1-1-1.17,1.28,1.28,0,0,1,.18-.67c.43.65.61.65,1,.65a10.22,10.22,0,0,0,2.3-.53c.3-.12.33-.13.43-.13a1.22,1.22,0,0,1,1,.93c0,.29-.09.36-.5.66a4.51,4.51,0,0,0-.46.45c-2.11,2.36-2.35,2.61-2.64,3.15A5.74,5.74,0,0,1,164,5.38c2.14,0,2.88,1.26,2.88,2.37A3.33,3.33,0,0,1,163.32,10.84Zm-1.43-2.19a.58.58,0,0,0-.56.54c0,.69,1.28,1,1.63,1a1.13,1.13,0,0,0,.43-.08A1.92,1.92,0,0,0,161.89,8.65Z"/>
          <path class="cls-5" d="M174.36,1.87a11.59,11.59,0,0,1-1.57,2.65,2.71,2.71,0,0,1,1.63,2.53c0,1.56-.92,1.64-1.4,1.66a1.78,1.78,0,0,0-.75-1.13,31.32,31.32,0,0,1-.06,3.47.58.58,0,0,1-.6.38c-.45,0-.45-.23-.45-.41s.08-1.72.09-2c0-1.56.08-3.14.08-4.71,0-.56,0-2.14-.05-2.89a7.78,7.78,0,0,0-.13-.95l1.09.51h1.22l.29-.23c.07-.06.13-.14.2-.14s.13.09.22.16l.51.43a.33.33,0,0,1,.14.27C174.82,1.62,174.71,1.69,174.36,1.87Zm-1.87,2.72a17.78,17.78,0,0,0,.93-3.34h-1.13V7.4a3.85,3.85,0,0,0,.67.09c.27,0,.55,0,.55-.67A2.73,2.73,0,0,0,172.49,4.59ZM176,8.92a10.16,10.16,0,0,1-2.74,2l-.06-.12a6,6,0,0,0,2-3l1.09.68a.16.16,0,0,1,.1.16C176.37,8.87,176.16,8.89,176,8.92Zm1.66-6.55a7.35,7.35,0,0,1-3.21,3.75l0-.07a12.32,12.32,0,0,0,1.06-1.28c-.23,0-.31-.21-.38-.36-.15-.4-.16-.42-.32-.55a5.06,5.06,0,0,1-1,1.12l-.11-.05A13.08,13.08,0,0,0,175.18,1a3.64,3.64,0,0,0,0-.81l1.17.54s.17.09.17.21-.21.18-.32.21-.15.32-.18.37h.76l.34-.24c.06,0,.11-.09.16-.09s.13.08.16.12l.47.58c0,.07.1.13.1.18S177.74,2.32,177.62,2.37Zm3.55,5.08H178c0,.25,0,1.26,0,1.47s0,1.34,0,1.43c0,1.31-1.4,1.36-1.55,1.36a2,2,0,0,0-1.05-1.39v-.1a8.08,8.08,0,0,0,1.18.18c.33,0,.35-.07.35-.31V7.45h-.76a7.19,7.19,0,0,0-1.35.09l-.21-.47c.76.08,1.65.08,1.79.08h3.14l.45-.69c.05-.08.12-.17.19-.17s.16.07.24.14l.76.69a.3.3,0,0,1,.12.21C181.37,7.43,181.26,7.45,181.17,7.45Zm-5.43-4.18a1.08,1.08,0,0,0-.35-.51,8.59,8.59,0,0,1-.56.94.89.89,0,0,1,1,.49c.15-.24.2-.33.37-.65A.37.37,0,0,1,175.74,3.27Zm.15-1.46c-.07.17-.16.32-.41.8.46,0,.81,0,1,.31a11.24,11.24,0,0,0,.34-1.11Zm3.27,3.86h-1.58a7.19,7.19,0,0,0-1.35.09l-.2-.47c.71.06,1.5.07,1.89.07l.37-.53c.09-.13.14-.15.19-.15s.17.09.22.14l.54.53c.07.08.11.12.11.19S179.25,5.67,179.16,5.67Zm2.06.51A6.93,6.93,0,0,1,177.92,1h.1A8.89,8.89,0,0,0,179.13,3a5.47,5.47,0,0,0,.73-1.55,6.49,6.49,0,0,0-.87.09l-.21-.47c.41,0,.63,0,1.13.06l.28-.2c.06,0,.12-.09.17-.09a.28.28,0,0,1,.19.09l.7.64a.33.33,0,0,1,.12.25c0,.23-.18.26-.66.32a14.72,14.72,0,0,1-1.4,1.12,4.51,4.51,0,0,0,3,1.86v.1A2,2,0,0,0,181.22,6.18Zm-.47,4.69c-.45,0-.57-.28-.92-1a5,5,0,0,0-.94-1.49l.05-.09c1.24.55,2.36,1.07,2.36,1.89C181.3,10.26,181.24,10.87,180.75,10.87Z"/>
          <path class="cls-5" d="M5.73,22.41l.46-.92c.06-.12.1-.22.17-.22a1,1,0,0,1,.23.06l1,.37c.09,0,.17.09.17.2s-.07.11-.14.14l-2.81.9c0,.42,0,2.79,0,3s.08.32.78.32c.51,0,.67,0,.82-.32a11.73,11.73,0,0,0,.49-1.44h.08a8.37,8.37,0,0,0,.32,1.53c.12.12.18.18.18.32a.91.91,0,0,1-.53.7,4.14,4.14,0,0,1-1.44.23c-1.75,0-1.75-.56-1.75-1.06s.05-2.56.07-3l-.43.14a6.45,6.45,0,0,0-1.26.5l-.34-.39L3.46,23,3.77,23c0-1.05,0-1.74,0-2a7.2,7.2,0,0,0-.16-2.23L5,19.14c.1,0,.2.12.2.22s-.18.26-.32.34a26.45,26.45,0,0,0-.11,3Zm5.74-2.34.5-.45c.06-.06.12-.13.19-.13s.11.06.17.11l.64.55c.06.06.18.18.18.27s-.26.29-.41.42c0,.58-.06,3.49-.11,4.15-.29,4.41-1.45,4.79-3.12,5A2.44,2.44,0,0,0,8.4,28.25l0-.09a5.69,5.69,0,0,0,1.61.31c.78,0,1-.36,1.22-1.38a33.48,33.48,0,0,0,.36-6.71h-2c0,3.94-.41,5.35-.9,6.4a6.39,6.39,0,0,1-5,3.28l0-.09a7.59,7.59,0,0,0,4.08-3.46c.9-2,.83-5.86.82-6.13H7.69a7.1,7.1,0,0,0-1.36.08L6.13,20c.57.05,1.21.07,1.78.07Z"/>
          <path class="cls-5" d="M21.39,28.92a5.4,5.4,0,0,1-2.07,1.31l-.05-.05a7.68,7.68,0,0,0,2.84-6.45c0-.87-.08-3-1-3-.43,0-.78.41-1.24,1.34a7.44,7.44,0,0,0-.83,3c0,.2.14,1.09.14,1.28s0,.49-.41.49-1-.91-1-2.45a18.67,18.67,0,0,1,.22-2.64c0-.26.25-1.5.25-1.73a1.3,1.3,0,0,0-.69-1.13,2.32,2.32,0,0,1,.71-.18c.37,0,1.1.46,1.1,1a1.2,1.2,0,0,1-.16.56,6.84,6.84,0,0,0-.75,3.26c0,.16,0,.83.09.83s.08-.07.11-.12c.63-2,1.53-4.18,2.81-4.18,1.64,0,1.79,2.65,1.79,3.86C23.2,26.37,22.65,27.71,21.39,28.92Z"/>
          <path class="cls-5" d="M35.64,21.87c.11-.09.16-.14.28-.14a.3.3,0,0,1,.2.1l.6.58a.26.26,0,0,1,.1.2c0,.2-.11.24-.7.43a7.23,7.23,0,0,1-1,1.19,6.73,6.73,0,0,0,3.56.91v.07a2,2,0,0,0-.9,1.31,7,7,0,0,1-3.17-1.82,10.83,10.83,0,0,1-2.27,1.41l.89.44h2.2l.37-.42C36,26,36,26,36,26s.06,0,.18.08l.62.39a.31.31,0,0,1,.14.26c0,.13-.09.25-.31.42,0,.37.08,2,.08,2.35s0,.32-.21.43a1,1,0,0,1-.5.16c-.46,0-.42-.5-.4-.81H33.13a2,2,0,0,1,0,.47.67.67,0,0,1-.64.32c-.19,0-.42,0-.42-.27,0-.05,0-.79,0-.87,0-1,0-2.4,0-2.69a8,8,0,0,1-1.56.49l0-.07A12,12,0,0,0,34.05,24a3.85,3.85,0,0,1-.62-1.21A8.17,8.17,0,0,1,31,25.16l-.06-.09a16.1,16.1,0,0,0,1.52-2.19,3.66,3.66,0,0,0,.62-1.8l.81.37c0-.1,0-.92,0-1.1h-2c0,.17,0,.92,0,1.07,0,.37-.47.51-.67.51-.39,0-.39-.26-.39-.49s0-.93,0-1.09H29.14a6.29,6.29,0,0,0-1.34.09L27.6,20c.76.08,1.63.08,1.77.08h1.47a5.58,5.58,0,0,0-.18-1.51l1.44.4c.13,0,.17.08.17.15s-.09.23-.4.42v.54h2a4.5,4.5,0,0,0-.23-1.52l1.36.35a.2.2,0,0,1,.16.2c0,.08,0,.11-.28.37v.6h1.58l.42-.73c0-.05.13-.16.2-.16a.37.37,0,0,1,.22.14l.78.72c.09.09.12.13.12.19s-.1.14-.18.14H34.87c0,.14,0,.82,0,.9-.07.37-.47.4-.6.42,0,0,.05.07.05.11,0,.2-.13.24-.51.36l0,.05h1.45Zm-7.86,1.66c.9,0,2,.15,2,1.09a.57.57,0,0,1-.54.55c-.38,0-.6-.41-.77-.74a2.7,2.7,0,0,0-.74-.83Zm3.8-1.07a37.29,37.29,0,0,1-1.29,3.63,9,9,0,0,0-.56,1.72,2.72,2.72,0,0,0,.16.67,4.3,4.3,0,0,1,.22.74.74.74,0,0,1-.72.82c-.21,0-.66-.1-.66-.79,0-.17.12-.91.12-1.06a1.46,1.46,0,0,0-.92-1.25v-.06c.75,0,1-.08,1.38-.65s1.51-2.5,2.19-3.8Zm-2.77-1a6.16,6.16,0,0,1,1.16.28,1.24,1.24,0,0,1,.8.95c0,.35-.2.63-.49.63s-.57-.37-.71-.7a3.13,3.13,0,0,0-.8-1.07Zm4.32,5.36V29h2.51V26.85Zm.47-4.32a4,4,0,0,0,.8,1.11,6,6,0,0,0,.86-1.15H33.63Z"/>
          <path class="cls-5" d="M49.13,29a14.22,14.22,0,0,1-2.67.25,6.49,6.49,0,0,1-3.31-.7,2,2,0,0,1-.79-1.49c0-.82.53-2.06,2.4-3.24a2.81,2.81,0,0,1-.52-1.58,13,13,0,0,0-.08-2.14c-.16-.69-.42-.78-1.14-1a1.71,1.71,0,0,1,.87-.28,3,3,0,0,1,1.53.6.36.36,0,0,1,.14.29,1.66,1.66,0,0,1-.1.35,4.49,4.49,0,0,0-.3,1.91,4.45,4.45,0,0,0,.2,1.51,16.59,16.59,0,0,1,2.26-1.05c.17-.08.27-.15.27-.28a2.18,2.18,0,0,0-.12-.45c1.31.28,1.35,1.07,1.35,1.17,0,.47-.3.51-.89.57-1.91.22-5.42,1.78-5.42,3.44a1.32,1.32,0,0,0,.46.95,3.35,3.35,0,0,0,2,.42,15.94,15.94,0,0,0,2.86-.3,2.76,2.76,0,0,1,.56-.07c.12,0,.91,0,.91.66A.5.5,0,0,1,49.13,29Z"/>
          <path class="cls-5" d="M56.67,29.45c-2,0-2.31-1.29-2.31-3.31,0-.37.15-4.54.15-5.39s-.13-1-1.14-1.3A1.52,1.52,0,0,1,54.45,19c.72,0,1.46.65,1.46,1a5.34,5.34,0,0,1-.18.74,36.72,36.72,0,0,0-.5,6c0,1.08,0,1.77,1.33,1.77a11.44,11.44,0,0,0,5.66-2.37l.08.08A6.36,6.36,0,0,1,56.67,29.45Z"/>
          <path class="cls-5" d="M74.42,21a8.87,8.87,0,0,0-2.24.19,4.34,4.34,0,0,0-2.7,4,2.51,2.51,0,0,0,2,2.43,14.23,14.23,0,0,1,1.71.45.76.76,0,0,1,.42.65c0,.5-.4.5-.63.5a6.12,6.12,0,0,1-2.2-.63,3.23,3.23,0,0,1-1.92-3.11c0-2,1.14-3.2,2.52-4.37a15.41,15.41,0,0,0-4,1.37c-.62.29-.68.33-.87.33a1.16,1.16,0,0,1-1-1.21,1.2,1.2,0,0,1,.27-.81c.26.58.56.76,1,.76S72.9,20.11,73.17,20a3.11,3.11,0,0,1,1-.25c.59,0,1.16.38,1.16.77S74.93,21,74.42,21Z"/>
          <path class="cls-5" d="M82.21,29.45c-2,0-2.31-1.29-2.31-3.31,0-.37.15-4.54.15-5.39s-.13-1-1.14-1.3A1.52,1.52,0,0,1,80,19c.72,0,1.46.65,1.46,1a5.34,5.34,0,0,1-.18.74,36.72,36.72,0,0,0-.5,6c0,1.08,0,1.77,1.33,1.77a11.44,11.44,0,0,0,5.66-2.37l.08.08A6.36,6.36,0,0,1,82.21,29.45Z"/>
          <path class="cls-5" d="M98.66,21.27c-.36.14-2.24.52-2.86.64,0,.63,0,.94,0,1.67.27-.07,1.53-.5,1.66-.5s.81.13.81.52a.31.31,0,0,1-.24.32c-.12,0-1.32.35-2.21.51a8.86,8.86,0,0,0,.37,2.68,4.11,4.11,0,0,1,2.22.94.89.89,0,0,1,.38.7.5.5,0,0,1-.45.56c-.22,0-.31-.08-.68-.36a6.69,6.69,0,0,0-1.43-.86c-.08.46-.26,1.64-2.25,1.64-1.3,0-2.21-.71-2.21-1.44,0-1.27,1.92-1.4,2.67-1.4a5.38,5.38,0,0,1,.75,0,10.53,10.53,0,0,1-.2-2.36,12,12,0,0,1-1.5.09c-1,0-1.53-.15-1.53-.65s.57-.79,1-.79c-.16.24-.22.33-.22.5s.08.19.41.19a14,14,0,0,0,1.82-.15c0-.67,0-.68,0-1.71a14.53,14.53,0,0,1-1.79.14c-1.47,0-1.81-.26-2.22-1.15a4,4,0,0,0,1.84.4A14.76,14.76,0,0,0,95,21.21c0-.14,0-.93,0-1,0-.48-.07-.75-1-1a.92.92,0,0,1,.8-.38c.46,0,1.46.29,1.46.92,0,.11,0,.16-.21.65a3.34,3.34,0,0,0-.19.65c.2-.05.54-.14,1-.31A8.64,8.64,0,0,1,98,20.34c.36,0,.86.26.86.59A.34.34,0,0,1,98.66,21.27Zm-4.92,6.35c-.62,0-1.58.25-1.58.71,0,.18.26.57,1.26.57a3,3,0,0,0,1.32-.29.92.92,0,0,0,.41-.84A4.7,4.7,0,0,0,93.74,27.62Z"/>
          <path class="cls-5" d="M107.15,25.32a15.53,15.53,0,0,0-.71,1.8c0,.11.12.66.12.78a.5.5,0,0,1-.47.56c-.34,0-2.27-.64-2.47-4.46,0-.28-.05-1.51-.09-1.75a4.31,4.31,0,0,0-.51-1.54c.62,0,1.74.46,1.74,1.53a2,2,0,0,1,0,.29,18,18,0,0,0-.25,2.07c0,1.32.73,2.14,1,2.14.11,0,.22-.17.29-.27.68-1,1.36-2,2-3l.09,0Zm5.27,1.05c-.22,0-.4-.21-.75-.63a2.65,2.65,0,0,0-1.28-.54v-.07l1.09-.07a.33.33,0,0,0,.22-.34,4.12,4.12,0,0,0-.67-1.67,5.86,5.86,0,0,0-1.42-1.43c1.27-.14,3.35,1.64,3.35,3.7C113,25.91,112.69,26.37,112.42,26.37Z"/>
          <path class="cls-5" d="M122.43,28.65c-.24.27-.85.88-1.31.88s-.43-.19-.48-.81a1.08,1.08,0,0,0-.12-.39c-.23-.4-.61-1.1-.66-1.2l0-.05a4.33,4.33,0,0,0,1.47.83.58.58,0,0,0,.49-.37,9,9,0,0,0,.87-3.68c0-.42,0-1.33-.84-1.33a2.52,2.52,0,0,0-.58.07c-.84,1.95-1,2.24-2.35,5a6.09,6.09,0,0,1-.84,1.42.4.4,0,0,1-.3.13c-.17,0-.5-.13-.5-.63a1.39,1.39,0,0,1,.37-.9,18.69,18.69,0,0,0,2.64-4.72c-.57.26-1.48.66-1.7.81a.89.89,0,0,1-.54.24A1.34,1.34,0,0,1,117,22.72a1,1,0,0,1,.24-.62,1.07,1.07,0,0,0,.88.65,4.32,4.32,0,0,0,1.05-.19l1.44-.36a8,8,0,0,0,.51-1.88c0-.48-.73-.87-.88-1a1.62,1.62,0,0,1,.75-.23c.35,0,.71.14,1.3.73.09.09.14.14.14.25a1.65,1.65,0,0,1-.24.64,8,8,0,0,0-.65,1.27l.4,0c1.33,0,1.66.79,1.66,2.24C123.61,25.29,123.13,27.85,122.43,28.65Zm5-2.79c-.19,0-.35-.12-.64-.33A3.19,3.19,0,0,0,125,25v-.12c.52,0,1.51-.23,1.51-.51a4.93,4.93,0,0,0-2.25-2.48c1.58.15,3.57,1.5,3.57,3.22C127.82,25.46,127.72,25.86,127.41,25.86Zm-.7-4.05c-.2,0-.38-.17-.76-.53a3.34,3.34,0,0,0-1.36-.85c1.19-.09,2.52.17,2.52.94A.42.42,0,0,1,126.71,21.81Zm1.17-1c-.17,0-.24-.06-.77-.54a6,6,0,0,0-.93-.56,2.4,2.4,0,0,0-.51-.16,3.83,3.83,0,0,1,.86-.1c.26,0,1.69,0,1.69.94C128.22,20.6,128.12,20.8,127.88,20.8Z"/>
          <path class="cls-5" d="M136.09,29.69a12.4,12.4,0,0,1-1.26-.06v-.09c1.94-.22,4.75-.94,4.75-3.31A1.43,1.43,0,0,0,138,24.66a4.71,4.71,0,0,0-3.32,2c-.05.06-.24.34-.28.4a.37.37,0,0,1-.31.16c-.31,0-.73-.66-.73-1a9,9,0,0,1,.28-.88,24.61,24.61,0,0,0,.49-2.88,7.43,7.43,0,0,1-1.1.1c-.62,0-1.5-.2-1.48-1.08a2.34,2.34,0,0,0,1.31.32,5.81,5.81,0,0,0,1.38-.19c.06-.49.16-1.33.16-1.45,0-.38-.1-.85-1.06-1.1a1.07,1.07,0,0,1,.73-.27c.37,0,1.68.42,1.68.91,0,.14,0,.17-.21.52a3.57,3.57,0,0,0-.37,1.16,6.41,6.41,0,0,0,1.54-.65c.27-.16.34-.18.49-.18.34,0,.92.22.92.52s-.13.24-.28.31a16.81,16.81,0,0,1-2.9.94,16.74,16.74,0,0,0-.48,3.05c.33-.11.44-.14,1.43-.55a6.33,6.33,0,0,1,2.16-.5,2.5,2.5,0,0,1,2.55,2.4C140.63,27.93,139.6,29.69,136.09,29.69Z"/>
          <path class="cls-5" d="M150.75,21.25a23.2,23.2,0,0,1-2.56.72c-1.56,3.51-1.87,4.19-2.42,5a.44.44,0,0,1-.35.21.53.53,0,0,1-.49-.58,1.2,1.2,0,0,1,.28-.7,20,20,0,0,0,2.08-3.67,4.6,4.6,0,0,1-1,.14c-1.09,0-1.32-.64-1.32-.93A1,1,0,0,1,145,21c.2.38.57.56,1.3.56a5.48,5.48,0,0,0,1.31-.18,6.67,6.67,0,0,0,.42-1.54c0-.47-.51-.62-.72-.69a1,1,0,0,1,.71-.3c.47,0,1.28.53,1.28.9a1.12,1.12,0,0,1-.22.48,8.49,8.49,0,0,0-.49.86,6.75,6.75,0,0,0,.9-.36c.58-.27.64-.3.79-.3s.75.21.75.49S150.86,21.21,150.75,21.25Zm3.13,3.14a1.16,1.16,0,0,1-.5-.14,2.1,2.1,0,0,0-1.18-.41c-1.2,0-1.28,1-1.28,1.5a7.15,7.15,0,0,0,.23,1.64c1.18.22,2.39.84,2.39,1.54,0,.13-.07.56-.41.56a2.94,2.94,0,0,1-1-.56,3.25,3.25,0,0,0-.85-.51,1.75,1.75,0,0,1-.47,1.24,2.58,2.58,0,0,1-1.59.52c-1,0-2-.61-2-1.49s1.1-1.45,2.42-1.45l.54,0a9.08,9.08,0,0,1-.1-1.2c0-1.54,1.48-2,2-2.16l.32-.09a.16.16,0,0,0,.06-.13c0-.25-.66-.73-1.72-.95a2.7,2.7,0,0,1,.94-.17c1.53,0,2.59,1.06,2.59,1.78C154.29,24.19,154.17,24.39,153.88,24.39Zm-4.68,3.12c-.24,0-1.51,0-1.51.76,0,.53.85.71,1.31.71a1.14,1.14,0,0,0,1.24-1.34A3,3,0,0,0,149.2,27.51Z"/>
          <path class="cls-5" d="M162,20c0,1.66,0,3.77,0,5,0,.51,0,2.93,0,3.24,0,1-.25,1.35-1.63,1.76a2.83,2.83,0,0,0-1-1.41v-.05l1.23,0c.12,0,.32,0,.36-.24s0-2.51,0-3v-.22h-1.14a6.55,6.55,0,0,1-2.27,4.76v-.07c.85-1.65,1.32-3,1.32-6.34a34.24,34.24,0,0,0-.22-5l1.31.76h.93l.24-.26c.14-.15.19-.17.29-.17a.45.45,0,0,1,.25.09l.52.37c.08.05.16.12.16.21S162.26,19.77,162,20Zm-1,2.28h-1.1c0,.75,0,1.77,0,2.51H161Zm0-2.72h-1.1V22H161Zm7.25,3.63a15.25,15.25,0,0,1-2.7.19c-2.67,0-2.69-.46-2.71-1.76,0-1.46,0-2,0-2.18a5.11,5.11,0,0,0-.1-.94l1.22.38c.22.06.29.1.29.2s-.07.18-.32.32c0,.45,0,.54,0,1.37a10.08,10.08,0,0,0,2.67-1.49l.29-.4,1.08.83a.26.26,0,0,1,.12.22c0,.2-.2.25-.34.25a.8.8,0,0,1-.24,0,20.45,20.45,0,0,1-3.58.82,3.6,3.6,0,0,0,.1,1.16c.17.25.51.25,1.48.25a5.3,5.3,0,0,0,2.29-.28,4.34,4.34,0,0,0,.62-1.77h.13c.18,1.55.3,1.6.58,1.7a.23.23,0,0,1,.07.18A1.09,1.09,0,0,1,168.24,23.16Zm-.2,1.69c0,.61,0,1.47.06,2.87,0,.24.06,1.31.06,1.53s-.06.72-.77.72c-.45,0-.44-.21-.4-.76h-2.7a.69.69,0,0,1-.06.46.73.73,0,0,1-.66.35c-.31,0-.43-.15-.43-.39s0-.56.05-.65c.07-.92.08-2,.08-2.85a14.56,14.56,0,0,0-.13-2.67l1.24.68h2.45l.37-.36c.15-.15.21-.2.28-.2a.45.45,0,0,1,.26.11l.51.44a.35.35,0,0,1,.16.25C168.41,24.51,168.1,24.79,168,24.85Zm-1-.41h-2.71V26.5H167Zm0,2.36h-2.71v2.1H167Z"/>
          <path class="cls-5" d="M179.61,20.34l.31-.38c.09-.12.14-.15.21-.15a.34.34,0,0,1,.2.09l.69.51a.27.27,0,0,1,.15.22c0,.08,0,.13-.48.53,0,.38,0,2.24,0,2.66A8.86,8.86,0,0,0,182,21.67l1,1a.35.35,0,0,1,.13.26c0,.11,0,.11-.49.23-.36.43-.91,1.09-2,2.14v.47c0,.43.06,2.56.06,3,0,.63-.07,1.28-1.74,1.62,0-.29-.09-.8-1.09-1.51v-.08c.46.05,1.05.09,1.51.09.25,0,.25-.09.25-.31V26.19a15.91,15.91,0,0,1-6.81,3.73l0-.09A27.82,27.82,0,0,0,179.65,25c-.45.14-2.74.92-2.82.94-.39.13-2.53.74-3,.88-.17.38-.2.43-.34.43s-.2-.14-.22-.21l-.55-1.45a4,4,0,0,0,.92.11,9.31,9.31,0,0,0,1.33-.09V21.92a9.15,9.15,0,0,0-.22-2.33l1.34.75h.61a5.84,5.84,0,0,0,.22-1.5,4.18,4.18,0,0,0,0-.5l1.47.46a.22.22,0,0,1,.18.2c0,.21-.31.27-.43.28s-.76.7-1.13,1.06Zm-3.63.31v1.22h3.69V20.65Zm0,1.53v1.33h3.69V22.18Zm0,1.64v1.63c.55-.09,2.88-.53,3.69-.69v-.94Z"/>
          <path class="cls-5" d="M192.08,28.74c.91-.36,3.92-1.57,3.92-4.69a3.29,3.29,0,0,0-3.6-3.42,4,4,0,0,0-.78.07c.83.37,1.07.9,1.07,1.09a29.16,29.16,0,0,1-1.61,3.57c-1.3,2.5-1.72,2.59-2.07,2.59s-.41-.19-.8-.75a2.28,2.28,0,0,0-.5-.54,2.13,2.13,0,0,1-.56-1.48,5.13,5.13,0,0,1,5.35-5c2.56,0,4.66,1.51,4.66,4s-2.25,4.33-5.08,4.59Zm-4-3.79c0,.82.38,1.91.84,1.91s.89-.94,1.15-1.44a15.45,15.45,0,0,0,1.51-3.84,1.07,1.07,0,0,0-.43-.81A4.67,4.67,0,0,0,188.07,25Z"/>
          <path class="cls-5" d="M206,23.84l.55-.57c.07-.07.15-.16.2-.16s.08,0,.22.14l.68.57c.09.09.12.11.12.2s-.1.13-.19.13h-4.79a7.19,7.19,0,0,0-1.35.09l-.2-.47c.75.07,1.64.07,1.77.07h1.39a7.65,7.65,0,0,0,.76-2.9l1.2.46c.09,0,.19.1.19.23s-.08.21-.39.33-1,1.29-1.51,1.88Zm-.19-3.4.49-.56c.13-.16.13-.16.2-.16s.1,0,.21.14l.65.56a.25.25,0,0,1,.12.2c0,.12-.1.13-.18.13h-4.17a5.71,5.71,0,0,0-1.35.09l-.2-.47c.76.06,1.63.07,1.77.07h.55a4.4,4.4,0,0,0-.25-1.81l1.47.4c.1,0,.23.06.23.2s0,.13-.43.33c0,.25,0,.59,0,.88Zm-.34,5,.3-.36s.17-.18.22-.18.06,0,.21.13l.56.46c.16.13.17.15.17.22s0,.14-.32.4c0,.44,0,2.37,0,2.76a.62.62,0,0,1-.64.63c-.41,0-.4-.26-.37-.66H203.2a1.32,1.32,0,0,1,0,.27.63.63,0,0,1-.71.62c-.39,0-.39-.3-.39-.47,0-.51.09-2.74.09-3.18a6.45,6.45,0,0,0-.14-1.28l1.31.64Zm-3-4.26c1.07.46,1.6,1,1.6,1.67,0,.49-.29.66-.58.66-.48,0-.55-.43-.58-.64a4.68,4.68,0,0,0-.48-1.64Zm.75,4.56v2.79h2.4V25.79Zm7.31-6.26.33-.28c.09-.08.16-.16.2-.16a1.26,1.26,0,0,1,.2.14l.71.58a.28.28,0,0,1,.12.23c0,.14-.05.16-.47.4-.05.1-.13.22-.8,1.24-.17.27-.92,1.46-1.07,1.71A5.06,5.06,0,0,1,211.65,25a3.77,3.77,0,0,1,.61,2c0,1.65-1.67,2-2.14,2.08a2,2,0,0,0-1-1.45l0-.11a11.39,11.39,0,0,0,1.22.09c.75,0,.82-.51.82-.86a4.09,4.09,0,0,0-1.81-3.24,17.2,17.2,0,0,0,1.07-3.67H209c0,.75,0,5.94,0,7.05,0,.42,0,2.27,0,2.63a.63.63,0,0,1-.65.72c-.47,0-.47-.33-.47-.52,0-.36,0-.92.05-1.28,0-.86.06-1.62.06-5.6a32.12,32.12,0,0,0-.14-4l1.18.72Z"/>
          <path class="cls-5" d="M220.2,19.86c.09.06.16.12.16.23s-.21.21-.53.32a10,10,0,0,1-4,4.21l-.07-.06a18.11,18.11,0,0,0,2.81-4.15A5,5,0,0,0,219,19Zm-.81,3.93a6.47,6.47,0,0,0-1.35.09l-.2-.47c.75.07,1.64.08,1.78.08h3.54l.41-.37c.12-.1.18-.13.24-.13a.32.32,0,0,1,.19.12l.55.63a.46.46,0,0,1,.12.21c0,.12-.15.24-.39.4a19,19,0,0,1-.45,4.26c-.38,1.08-1.17,1.31-2.33,1.43a2.4,2.4,0,0,0-.94-1.62l0-.08a4.89,4.89,0,0,0,1.47.3c.54,0,.78-.07,1-1.33a25,25,0,0,0,.19-3.52H221a6,6,0,0,1-5,6.06l0-.08a6.44,6.44,0,0,0,3.95-6Zm2.72-4.32a7.28,7.28,0,0,0-1.35.09l-.2-.47a18.1,18.1,0,0,0,1.84.08l.5-.5c.07-.06.12-.13.2-.13s.12,0,.21.13l.5.52c.08.09.11.13.11.2s-.28.3-.78.42a5.94,5.94,0,0,0,4.56,3.37l0,.14a2.18,2.18,0,0,0-1.26,1.12c-2.57-1.11-3.58-4.42-3.73-5Z"/>
        </g>
        <g>
          <path class="cls-5" d="M17.81,65.79c-.42,0-.55-.1-2-1.27-1.18-1-5.34-2.14-8.26-2.14-1.28,0-4.73.23-4.73,3.21S6,69,8.56,69a25.85,25.85,0,0,0,2.66-.17c.39,0,2-.33,2.36-.33,1.25,0,3,.87,3,2.11,0,1.57-1.74,1.7-5.58,1.7-1.51,0-6.26,0-8.53-2.27A5.12,5.12,0,0,1,1,66.43c0-5.16,6.43-5.16,8.14-5.16a35.8,35.8,0,0,1,6,.57l.26,0c.1,0,.26,0,.26-.2s-2.92-4-3.44-4.79a25.63,25.63,0,0,1-7.32,1.38A5.09,5.09,0,0,1,0,54.91a8.42,8.42,0,0,0,4.3,1.2,18.6,18.6,0,0,0,6.56-1.44C9.91,52.9,9.48,52,9.22,51.49a17.35,17.35,0,0,1-4.63.91,4.37,4.37,0,0,1-4.1-2.68,6.06,6.06,0,0,0,3,.64,13.43,13.43,0,0,0,4.76-1c-1.57-3.41-1.84-4-3.67-4a6,6,0,0,0-1.28.2c.23-.73.75-2.51,3.64-2.51,2.16,0,3.05.7,3.12,2a12,12,0,0,0,.45,3.22,19.79,19.79,0,0,0,2-1.31,2.74,2.74,0,0,1,1.7-.77c.86,0,1.91.5,1.91,1.31,0,1.2-3.29,2.61-4.79,3.21a24.14,24.14,0,0,0,1.47,3c.72-.37,1.51-.8,2.66-1.51,1.34-.87,1.47-1,2-1,.82,0,2.06.61,2.06,1.44,0,.54-.32.91-1,1.34a24.14,24.14,0,0,1-4.17,2.08,23.34,23.34,0,0,0,3.05,3.55c2,1.87,2.23,2.14,2.23,3.44S18.9,65.79,17.81,65.79Z"/>
          <path class="cls-5" d="M32.68,71.48c-.79,0-1.28,0-1.87-.07v-.26a20.68,20.68,0,0,0,8.73-3.79c2-1.47,3.28-3.14,3.28-5.52,0-1.27-.66-4-3.71-4-5.48,0-9.25,5.89-9.87,6.9-.33.57-.82,1.34-1.45,1.34-1.05,0-2.29-1.64-2.29-3.15,0-.64.59-3.45.65-4,.23-1.74.3-4.08.39-6.5.07-1.57.14-3.34,4.6-4.18A9.61,9.61,0,0,0,32.58,48a.2.2,0,0,0,.1-.2.34.34,0,0,0-.2-.34c-1.18-.8-2.52-1.81-2.52-4a3.4,3.4,0,0,1,.06-.61c1.84,1.58,2.17,1.68,5.22,2.68,2.82.94,3.15,3,3.15,3.68,0,1.28-.82,1.58-1.28,1.58a3.59,3.59,0,0,1-1.58-.54,10.27,10.27,0,0,0-4.52-1c-.59,0-2.89,0-2.89,1.34a3,3,0,0,0,.79,1.71A3.32,3.32,0,0,1,29.56,54,6.54,6.54,0,0,1,29,56.15a22.74,22.74,0,0,0-.86,4.05c0,.23,0,.57.4.57.19,0,2.23-1.41,2.65-1.64a17.58,17.58,0,0,1,8.27-2.58c4.07,0,7,2.88,7,6.33C46.43,67.87,40.85,71.48,32.68,71.48Z"/>
          <path class="cls-5" d="M62.8,68.87V68.6c7.55-1.37,11.45-5.66,11.45-10.14a4.65,4.65,0,0,0-4.59-5c-2.89,0-6.5,1.64-9.78,4.66,0,.43,0,1.2,0,2.31s.43,6.46.43,6.73c0,2-.69,4.18-1.94,4.18-1,0-1.08-.87-1.14-1.81A13.17,13.17,0,0,0,56,65.25l.09-.06a3.17,3.17,0,0,0,1.64.93c.27,0,.33-.2.33-.57,0-.83-.13-4.55-.13-5.32a37.12,37.12,0,0,0-3.84,6C53.12,67.93,52.86,68,52.47,68c-1,0-1.15-1.47-1.15-2,0-1.17.66-1.91,1.64-3A36.25,36.25,0,0,0,58,55.24c0-.26.1-1.44.1-1.67-.75,0-3.54,2.41-4.26,2.41-1.18,0-2.33-1.61-2.33-3.35A2.36,2.36,0,0,1,52,51a2.26,2.26,0,0,0,2.23,1.6,13.18,13.18,0,0,0,4-1.27c0-.67.22-3.51.22-4.12,0-1.1-.19-2.07-2.55-2.64a3.36,3.36,0,0,1,2.23-.87c2,0,4,1.4,4,2.37a4.43,4.43,0,0,1-.46,1.44,16.19,16.19,0,0,0-1,2.68c.76.24,2.36.81,2.36,1.44s-.91,1.68-1.37,2.21A23.37,23.37,0,0,0,60,56.28c0,.1,0,.54,0,.64,4.69-4,8.13-5,11-5a6.68,6.68,0,0,1,6.89,7C77.83,66.22,70.18,69.2,62.8,68.87Z"/>
          <path class="cls-5" d="M104.28,69c-4.2,0-4.2-4.15-4.2-5.19,0-.87.26-3.21.55-5.55s.53-4.66.53-5.43c0-.6,0-2.27-1.48-2.27-2.16,0-6.85,4.95-8.59,7.26,0,1.84.1,4.62.16,6.53,0,.54.26,2.88.26,3.35,0,.3-.19,3.88-1.8,3.88-.49,0-1.12-.1-1.25-1.57a8.66,8.66,0,0,0-1.18-4.09l.1-.06a5.28,5.28,0,0,0,1.41.77c.23,0,.23-.67.23-1.18,0-.7-.06-3.78-.06-4.41-.33.53-3.51,6.72-3.58,6.86-.3.67-.59,1.17-1.25,1.17-.92,0-1.31-1.37-1.31-2.31s.2-1.24,1.71-3.11a38.62,38.62,0,0,0,4.49-8c0-.47,0-.71.1-1.78a31.23,31.23,0,0,0-2.85,1.91c-.66.5-1,.6-1.28.6-.92,0-2.14-1.6-2.14-3a3.72,3.72,0,0,1,.59-1.88,2.59,2.59,0,0,0,2,1.48,14.24,14.24,0,0,0,3.8-1.24c0-.57.23-3.15.23-3.68,0-2.41-1.28-2.58-3.11-2.78a3,3,0,0,1,2.46-1.34c1.87,0,4.29,1.3,4.29,2.54a4.38,4.38,0,0,1-.55,1.84,8.67,8.67,0,0,0-.82,2.41c.62.41,1.24.91,1.24,1.31,0,.23-1.6,2.85-1.87,3.38,0,.3,0,.4,0,.77a35.4,35.4,0,0,1,5.61-5.59c1.9-1.51,2.92-1.81,4-1.81,1.31,0,3.64.71,3.64,4.15a39.49,39.49,0,0,1-.69,6.47,26.32,26.32,0,0,0-.4,4c0,.91,0,2.08,1.58,2.08s4.82-1.37,6.86-3.08l.19.17C110.28,65.59,108.38,69,104.28,69Z"/>
          <path class="cls-5" d="M142.3,66.66c-1.47,0-4.19-2.28-9.84-8.6-.72-.84-3.77-4.52-4.52-5.13-.56-.43-.82-.63-1.15-.63-1.08,0-2.82,2.78-3.74,4.22-2.07,3.31-2.3,3.68-2.86,5.08-.26.71-.39,1-1,1-1.41,0-4.1-2.61-4.1-4.92a4.45,4.45,0,0,1,.22-1.3c1.12,1.47,1.58,1.74,2,1.74s.49,0,4.06-4c3.81-4.29,4.2-4.46,5.29-4.46,1.47,0,2.46.94,5.05,3.79,4.39,4.78,6.79,6.22,9.32,7.63a5.63,5.63,0,0,1,2.52,4.12A1.41,1.41,0,0,1,142.3,66.66ZM138.6,53c-.63,0-.76-.17-1.84-1.51a12.86,12.86,0,0,0-3.58-3c4.53,0,6.5,1.71,6.5,3.22A1.17,1.17,0,0,1,138.6,53Zm3.54-2.61c-.52,0-1-.31-1.8-1.31a10.85,10.85,0,0,0-3.81-3.21c3.84-.14,6.6,1.34,6.6,3.31C143.13,49.92,142.67,50.36,142.14,50.36Z"/>
          <path class="cls-5" d="M172.53,59.33c-.56,0-1.38-.07-1.51-.07-1.91-.13-6.27-.13-8.63-.13-.36,0-6.89.13-9.19.77a5.44,5.44,0,0,1-1.18.27c-1.11,0-3.11-2.58-3.11-4.29a6.13,6.13,0,0,1,.68-2.21c1.09,2.61,1.68,2.75,5.35,2.75,2,0,13.52-.14,14.31-.41a6.14,6.14,0,0,1,1.31-.33c1.31,0,4.07.57,4.07,2.31C174.63,58.83,173.77,59.33,172.53,59.33Z"/>
          <path class="cls-5" d="M202.58,52.73c-.62.51-.79.64-1.34,3.15-.27,1.14-1.18,6.23-1.38,7.26a2.39,2.39,0,0,1,1.54,2c0,.94-.72,1.07-1.18,1.07-.89,0-4.76-.13-5.54-.13a28.49,28.49,0,0,0-8.27,1,18.38,18.38,0,0,1-1.9.51c-1.25,0-3.22-2.75-3.22-4.19a4.59,4.59,0,0,1,.33-1.64,5.24,5.24,0,0,0,4.2,2.35c1.38,0,8.66-.47,11.25-.84,1-6.76,1.35-9.07,1.35-10.82,0-.43-.2-.63-.69-.63a49.9,49.9,0,0,0-11.19,1.54,13.7,13.7,0,0,1-1.61.43c-1.34,0-3.31-2.44-3.31-4.38a5.39,5.39,0,0,1,.13-1.24,5.42,5.42,0,0,0,4.3,2.28c3.47,0,11.55-.71,12.33-1a15.33,15.33,0,0,1,1.71-.94c.52,0,3.25,2.41,3.25,3.25C203.34,52.16,203.07,52.33,202.58,52.73Z"/>
          <path class="cls-5" d="M216.5,52.63c-.66,0-1-.37-2.36-1.91a13.55,13.55,0,0,0-5.29-4,12.1,12.1,0,0,1,2.46-.27c1.84,0,6.93.61,6.93,4.15A1.9,1.9,0,0,1,216.5,52.63Zm5,10.45c-1,.8-5.91,4.75-6.1,5-.92,1-1,1.07-1.48,1.07-1.41,0-4.1-3.21-4.1-5.35a5,5,0,0,1,.33-1.58c1.37,2.35,2.52,2.38,2.65,2.38.92,0,5.55-3.11,8.24-5.15a60,60,0,0,0,10.37-10.15l.19.1C230.74,52.4,227.49,58.12,221.52,63.08Z"/>
        </g>
      </g>
      <rect class="cls-7" x="18.75" y="116.33" width="191.17" height="123.12" rx="5.67"/>
    </g>
  </g>
</svg>
