<svg xmlns="http://www.w3.org/2000/svg" viewBox="0 0 167.7 221.99">
  <g id="Layer_2" data-name="Layer 2">
    <g id="レイヤー_1" data-name="レイヤー 1">
      <g>
        <path d="M78.09,91.07v.14h.28l.8.72.51,1.69.41.15c.23-.7.47-1.41.71-2.12a1.33,1.33,0,0,0,.28,0c.15-.41.4.1.6,0-.08-.17-.33-.29-.36-.47l.07,0V91h.27l.29-.41h.27l.15-.28h.13v-.28h.14v-.28l.28-.13c0-.09,0-.19,0-.28h.14c0-.14,0-.28,0-.42h.13c0-.23,0-.46,0-.7h-.14c0-.37-.07-.75-.11-1.12h.28l.14-.28.42-.12V86.5l.56-.4.16-.7h.13a2.72,2.72,0,0,0,0-.28h.14a2.45,2.45,0,0,0,0-1.39c-.89,0-.79.58-1.66.65a1.82,1.82,0,0,1,.43-.83l.28-.13V83h.14c0-.24,0-.47,0-.7h.13a6.55,6.55,0,0,0-.63-2.25c-.15-.24-.07-.19-.4-.29-.08-.35-.07-.23-.26-.42v-.14h-.27l-.27-.43H82v-.14h-.28v-.14h-.54c-.12-.06,0-.19-.41-.29a10.16,10.16,0,0,0-.2-2.8c0-.56,0-1.12,0-1.67h.14c0-.24-.12-.23-.13-.28,0-.23,0-.47,0-.7h-.14l.18-1.81-.27-.15,0-1.11h.14v-.14h-.14c0-.47,0-.93,0-1.4h-.14c0-.33.11-.65.16-1s0-.38,0-.56h-.14c0-1.06.05-2.13.08-3.2h-.14l.15-.27H80.3l.18-1.67-.55-.16a1.69,1.69,0,0,1-.55.4,6.83,6.83,0,0,1-.31,1.39L79,65.43h.13c0,.29-.14.28-.14.28,0,.46,0,.93,0,1.39,0,1.17,0,2.33.05,3.49,0,1.54-.07,3.07-.11,4.6H79c0,1.07,0,2.14,0,3.21l-.83.25c-.05.09-.09.19-.14.28l-.55.12-.15.28h-.27a3.83,3.83,0,0,0-1,3h.14c0,.19,0,.37,0,.56l.27.15a2.44,2.44,0,0,0,0,.27c.37.12.31.05.4.43.46.13.52.33.95.45,0,.23,0,.47,0,.7l-.41.13c0-.1-.09-.19-.13-.29l-.55-.15-.13-.29h-.27L76.21,84h-.28V83.9l-.55.12c0,.48-.36,1.31,0,1.67A1.82,1.82,0,0,0,77,87.41c0,.19-.1.37-.16.56h-.13c0,.51,0,1,0,1.54.27.24.11.33.26.56l.27.15.66.86Zm1.21-10a2.46,2.46,0,0,0,.55-.12l.81.58c0,.1,0,.19,0,.28h.14c.16.26-.09.06.13.28a1.84,1.84,0,0,1-.16.69c-.34.06-.81.26-1.09,0l-.41-.15C79.27,82.09,79.29,81.58,79.3,81.06Zm-.37,9.34a2.62,2.62,0,0,0,0,.28h-.14v-.14c-.15-.13,0,0-.14-.15Z"/>
        <path d="M111.26,129.43h-.41a1.19,1.19,0,0,0-.12-.7h-.14a2.72,2.72,0,0,0,0-.28h-.14V128h-.13c0-.14,0-.28,0-.42h-.14l.15-.28h-.14c-.12-.46,0-1.08-.24-1.4a1.16,1.16,0,0,0-.78-.8,1.91,1.91,0,0,0-.31-.89c.14.33-.33.28-.52.4v0h-.28l-.13-.29-.55.13v-.14h-.13l.16-.83h-.14c0-.19,0-.37,0-.56h-.13l.14-.14-.14-.14c0-.18.28-.48.16-.84h-.14a2.62,2.62,0,0,0,0-.28l-.27-.15a2.44,2.44,0,0,1,0-.27l-.27-.15c-.05-.14-.09-.28-.13-.42h-.14a1.12,1.12,0,0,1-.26-.56,4.22,4.22,0,0,1-.81-.45v-.27c-.31,0-.36,0-.55-.16v-.14h-.41l-.13-.28H104v-.14c-.34-.19-.73-.14-1.09-.31V118l-.81-.3v-.14h-.27v-.14h-.28v-.14h-.28v-.14h-.41V117l-.81-.3v-.14h-.28v-.14h-.28v-.13h-.28v-.14H99l-.26-.29h-.28l-.13-.28H98l-.8-1H97l-.4-.57H96.3c0-.14-.09-.28-.13-.42l-.67-.58a2.62,2.62,0,0,1,0-.28l-.54-.43v-.28l-.28-.15-.12-.42h-.14c0-.09,0-.18,0-.28l-.41-.29c-.34-1-.68-2.06-1-3.1,0-.27,0-.55,0-.83s0-.28,0-.42h-.14l.14-.14-.13-.14c0-.2.1,0,.14-.14l0-.84.41-.12v-.14h.27l.14-.28h.28l.14-.28.55-.12.29-.41h.27c.1-.14.19-.28.29-.41H96l.14-.28.42-.13v-.14h.28l.28-.41h.28l.28-.41H98V102l.41-.13.15-.27h.27l.42-.54h.28l.42-.55c.47-.43.64-.27,1-1h.27c.12-.38,0-.32.42-.41a2.44,2.44,0,0,0,0-.27,3.7,3.7,0,0,0,1.69-1.63h.27a1.51,1.51,0,0,1,.43-.69h.14V96.3l.28-.13V96l.28-.13v-.28l.7-.54.15-.55.42-.27V94l.56-.4c0-.14,0-.28,0-.42h.14l.15-.55H107l.15-.69h.14v-.41l.28-.13V91h.13a2.53,2.53,0,0,0,0-.28h.14v-.42H108v-.42h.13c0-.14,0-.28,0-.42h.14c.11-.64.22-1.29.32-1.94h.14c0-.18,0-.37,0-.55l.27-.14c0-.27,0-.55,0-.83h.14c0-.09,0-.18,0-.28h.13l.18-1.39h.13a15.86,15.86,0,0,0-.16-4.33c0-.6,0-1.21,0-1.81h-.13c0-.6,0-1.2,0-1.81h-.13c0-.23,0-.47,0-.7h-.13c0-.24,0-.47,0-.7h-.13v-.42h-.14c0-.32-.07-.65-.11-1h-.14l-.12-.56h-.14c0-.09,0-.18,0-.27l-.27-.15v-.42H108l-.12-.57h-.14c0-.09,0-.19,0-.28l-.27-.15c-.09-.28-.17-.56-.26-.84l-.27-.15v-.28l-.54-.43a2.62,2.62,0,0,0,0-.28L106.2,69a2.72,2.72,0,0,1,0-.28l-.27-.14v-.14l-.27-.15a2.62,2.62,0,0,1,0-.28l-.67-.58v-.28l-.67-.57c0-.1,0-.19,0-.28l-.25-.14c0-.1,0-.21,0-.3l-.15.07-.5-.64A12.88,12.88,0,0,0,101.8,64l-.53-.71H101v-.14h-.27l-.27-.42-.4-.16v-.27c-.76-.21-1.06-.79-1.61-1.17L97.9,61l-.26-.43h-.28c0-.09-.08-.19-.13-.28h-.41l-.26-.43-.41-.15v-.14l-.69-.16c-.08-.14-.17-.28-.26-.42l-.68-.16-.13-.29-.82-.3c0-.09-.08-.19-.13-.28l-.54-.16V57.6l-.54-.15v-.14H92v-.14h-.28V57l-.54,0v-.14h-.41V56.7h-.27v-.13l-1.09-.18v-.14h-.27V56.1l-1,0a4.15,4.15,0,0,0-1.22-.32c-.12-.16,0,0-.14-.14,0-.56,0-1.11,0-1.67H87l.18-1.53a1.26,1.26,0,0,1-.54-.29V52l-2.32-.35c0-.26-.13-.28-.13-.28,0-1,0-2,.07-2.93H84.1a2.44,2.44,0,0,1,.14-.28H84.1c0-.51,0-1,0-1.54h.14a.24.24,0,0,0-.13-.28l.14-.28h-.13a5.25,5.25,0,0,1,.18-1.95l1.1,0V44l4,.12a.17.17,0,0,0,0,.07l.09.2a.91.91,0,0,1,.07.14v0a2.31,2.31,0,0,0,.69.89c0-.31.17-.17.12-.46a3,3,0,0,0-.37-.85l1,0,3,.09V44.1l.68-.12c.06-.26.15-.27.15-.27l0-.84h.14V42.6h.14a1.2,1.2,0,0,0,.15-.69h-.27v-.28l-.41-.15c.12-.81.71-2.24-.07-2.79v-.14c.88.07,1.83.21,2.76.29,0,.34.25.8.48.83a.88.88,0,0,0,.34-.78,6.72,6.72,0,0,0,2-.18l1.92.06v-.14h.54V38.5h.41v-.14l.69,0v-.14h.27v-.14l1.37-.24v-.14h.27v-.14h.41v-.14h.27l.15-.28H107v-.13h.28V37l1.24-.24.28-.41.55,0,.15-.28.55-.12v-.14l.55-.12v-.14H111v-.14l.69-.12a2.44,2.44,0,0,0,.14-.28h.28l.28-.27h.27V34.6h.2l24.56,13.84,2.29-.38.8-2.8-19.62-9.81c.18.42.27.83,0,1.14-.44.14-1-.34-1-.66a1.2,1.2,0,0,1,.09-1l-3.84-1.92.17,0v-.14l.56-.12v-.14h.41V32.5h.28v-.14h.27l.15-.28h.27l.29-.41h.27l.15-.28h.27V31.3h.28v-.14h.41V31l.42,0v-.14h.27l.15-.27.83-.26c0-.09.09-.18.14-.27H122V30h.27v-.14l1.65-.23v-.14a1.14,1.14,0,0,1,.55-.27c.06-.18.11-.37.16-.55h.13c.22-.62-.4-1.86-.49-2.38l-.68.12v.14l-.82,0-.82,0s0,.18-.28.13v-.14l-1.78,0v.14l-.55,0v-.14c-.18,0-.25.26-.56.13-.12-.05-.09-.44-.67-.3v.14l-1.78-.06a.32.32,0,0,1-.18.13,1.27,1.27,0,0,1-.6-.7c-.25-.73.15-1.19.37-1.73a11.34,11.34,0,0,1,0-2.4c.21-1.69-.62-2.86-1.68-4.34-.4-.56-.83-1.17-1.27-1.89,0,.18.07.36.11.52s-.06.2-.19.24a.78.78,0,0,1-.76-.35l-.22-.88c.07,0,.12,0,.2.07l.17-.33a1.11,1.11,0,0,1,.39.22c-.16-.28-.32-.57-.48-.89-2-4-7.22-2.71-7.28-2.7l-.38.1,0,.39c.49,6.88,3.64,8.82,5.94,10.24.32.19.61.37.87.55a.3.3,0,0,1,.27.2,3,3,0,0,1,.42.35,30.22,30.22,0,0,1,2.65,3.16h0v.14l-1.23.1c0-.14-.09-.28-.13-.42a5.42,5.42,0,0,0-1.38.24l-1.64-.05v.14h-.19v0c-.21-.15-.31-.1-.39,0L108,26.37h-.15c0-.14-.2-.29-.42-.29l-.17.15a.13.13,0,0,0,0,.12,11.13,11.13,0,0,0-2.81.07h-.1L100,23.78a1.59,1.59,0,0,1,.14.57c0,.49-.64.39-1.11.16-.12-.31-.54-.53-.67-.85.09,0,.78.11.44-.34-.13.33-.56-.24-.68-.51l.3.29a.23.23,0,0,0,.12-.19l-.09-.06.08,0a.77.77,0,0,1,0-.4L88.3,11c.11-1,.42-4.83-1-6.59-1.6-1.92-7.62-4-7.88-4.13L78.61,0l.16.8a20.63,20.63,0,0,0,2.2,5,9.78,9.78,0,0,0,4.71,4.46l3.54,4.91a2,2,0,0,1,.5.13.71.71,0,0,1,.21.86l3,4.17c-2-.6-4.35-1.27-6.06-1.74-1-.28-1.74-.48-2-.56-.55-.19-5.12-1.17-8.92-2a16.45,16.45,0,0,0-1.89-3,1,1,0,0,1-1,0c-.45-.36-.24-.27-.57-.67.14-.23.1-.58.41-.64a13.73,13.73,0,0,0-1-.94C68.94,8.46,65.23,8.24,60.94,8l-1.33-.07c-2-.13-3.13.21-3.56,1a2.19,2.19,0,0,0,.37,2.13,16.06,16.06,0,0,0,1.21,2.18,1.94,1.94,0,0,0,.06-.4c.28-.95,1.34-.68,1.75-1.31l.42-.17c-.66.65-.4,2.64-1.56,2.83a11.55,11.55,0,0,0,3.52,3.18,14.26,14.26,0,0,0,6.55,1.39,16.82,16.82,0,0,0,2-.11l2.13-.47,7.54.77,4.36,1.52h0c.15.06.23-.12.42-.06-.42-.36.48-.32.12-.66A2.17,2.17,0,0,1,85.81,21L94,23.82l4.2,2.41v.14a.25.25,0,0,1-.27-.15c-.28,0-.27.13-.27.13l-1.37-.18v.14l-1.65,0c-1.71-.05-4.32-.4-5.76,0L85.48,26v.14l-.69,0s0-.18-.27-.14v.14l-1.92-.06c-1.72-.05-4.31-.29-5.2-.15L76,25.72v.14l-8-.23-.69.12v-.14l-1.37,0v.14a.25.25,0,0,1-.27-.15l-.41.13v-.14l-.69,0a21.28,21.28,0,0,1-4.79,0l-1.51-.05v-.14h-.13v.14l-2.46-.07-1.83-.06-.19-.16c.08.07.09.13.07.17s0,0,0,.05l-.06.05v-.11a5.23,5.23,0,0,0-1.24.1v-.14h-.28v.14l-.13-.14-.28.13a.35.35,0,0,0-.41-.15v.14h-.14v-.14h-.13v.14l-1.37,0v-.14l-.42.13c-.3,0-.39-.18-.54-.16v.14h-.55v-.14c-.19,0,0,.1-.14.13l-2.33-.07v.14l-.41-.15-.82,0v.14h-.41v-.14l-.42.12-.4-.15v.14h-.14v-.14H43v.14c-1.17.21-3.1-.21-3.84-.11l-1.92-.05V25h-.14v.14l-1,0V25H35.6v-.14l-1,.11v.14c-.45.26-.35.43-.57,1h-.14c0,.13,0,.27,0,.41h-.14v.14h.14a5.52,5.52,0,0,0,.5,1.69l.68.16c0,.14.09.28.13.42l.41.16c.14-.09,0-.2.14-.14V29l.4.15v.14l.41-.13v.14l.69,0v.14h.14v-.14c.27,0,.27.14.27.14a.22.22,0,0,0,.28-.13l.82.3c0,.1.08.19.13.29h.27l.4.57.27.14a2.72,2.72,0,0,0,0,.28l1.21,1.15.26.43.54.15.4.57,2.17,1,.95.17v.14l.54.16v.14h.41l.13.28h.28v.14l.55.15v.14h.41v.14h.27v.14l.82.16v.14l.68,0v.14l.82.17v.14h.28v.14l1,.17v.14l1.92.2v.14l.82,0v.14c.18,0,.24-.23.56-.12v.13l.55,0v.14l1.37,0a11.49,11.49,0,0,1,2.87.36l3.42.24c.19,0-.05-.15.14-.13v.14l.82,0v-.14c.29,0,.27.15.27.15l2.06.06v.14c.5.16.88-.13,1.1,0,1,.32.2.79.51,1.41H68c0,.07,0,.13,0,.2a.86.86,0,0,0-.43.14c-.11.15.07.33.32.5a1.38,1.38,0,0,1-.19.41l-.27.13c-.24.34-.22.61-.57.82,0,.14,0,.28,0,.42H67a1.2,1.2,0,0,1,.26.85l1.23.17c.18.06-.06.17.13.15v-.14H69v-.14a15,15,0,0,1,2.87.08c.74.14,1.79-.31,2.2.07.65,0,2.84-.06,3.14.23s.14,1.38.23,1.82h.14V46h-.14c0,.28.08.56.11.84a.39.39,0,0,0-.14.41,20.3,20.3,0,0,1,0,4.61c-.28,0-.28.13-.28.13l-.68,0v.14h-.27v.14c-.6.2-1-.17-1.38.24l-.28.13c.07.2,0,.32.12.56h.14a1.86,1.86,0,0,1,.06.34h0l0-.1c.08.54-.3,1.08.23,1.64v.23h-.13v.14l-1.09,0v.14h-.41v.14L72,55.88V56l-.55.12v.14l-1,.11v.14h-.28v.14h-.41l-.15.27-.69.12v.14h-.27v.14l-.55.13v.14l-.41,0v.14h-.27v.14h-.28L67,58.1l-1.24.38v.14l-.41.13-.15.28-.69.12-.28.41-.69.12-.14.27-.83.26v.14l-.42.12c-.05.09-.1.19-.14.28l-.55.12c-.15.18-.29.36-.43.55h-.27A7.23,7.23,0,0,0,59.05,63h-.27c-.26.89-1.11,1.34-1.7,1.9l-.84.95-.42.27c0,.09,0,.18,0,.28L55,67.1a2.62,2.62,0,0,1,0,.28l-.27.13c0,.09,0,.19,0,.28l-.42.27-.15.55-.42.27c-.1.27-.19.55-.29.83h-.14l-.15.42-.27.13v.28l-.42.26-.15.56h-.14v.28H52l-.3.83h-.13v.42H51.4v.27l-.27.14,0,.41H51c0,.28,0,.56,0,.84h-.14c-.05.28-.11.56-.16.84h-.14v.28h-.14c0,.28,0,.55,0,.83h-.14c0,.14,0,.28,0,.42h-.14c0,.19,0,.37,0,.56h-.14c-.06.88-.13,1.76-.2,2.64h.14c.07.33-.15.35-.15.55h.13l-.15.84h.13c0,.23,0,.46,0,.7h.14l0,1.4H50v.14c-.05.09-.23.07-.15.41H50L50,85h.14c0,.14,0,.28,0,.42h.13c0,.23,0,.46,0,.7h.14v.42h.14c0,.24,0,.47,0,.7h.14c0,.14,0,.28,0,.42h.13c0,.14,0,.28,0,.41h.14v.28l.27.14c0,.19.09.38.13.57h.13c0,.19.09.38.13.56h.13V90h.14a2.72,2.72,0,0,1,0,.28l.27.14v.42h.14a2.72,2.72,0,0,1,0,.28h.14c0,.14,0,.28,0,.42h.14a2.62,2.62,0,0,0,0,.28l.27.15.12.56.27.15V93l.27.14c.08.29.17.57.25.85l.67.58-.15.41.27.15c.05.18.09.37.13.56l.53.43v.28l.27.15.66.86h.28c.16.14.34.66.52.86l1.07,1,.27.43h.27l.27.42h.27l1.73,2H61c.08.15.17.29.26.43l.54.16.13.28h.28l.26.42h.28v.14l.41.15.26.43.82.3.13.28.41.16v.13l1,.31.27.43h.54v.14h.28v.14h.41c.26.12.66.33.95.45a5.12,5.12,0,0,1-.45,1.66c0,.19,0,.37,0,.56H67.5c0,.19,0,.38,0,.56h-.13a2.53,2.53,0,0,0,0,.28H67.2v.28l-.28.13c0,.14,0,.28,0,.42l-.28.13V111l-.42.27c0,.14,0,.28,0,.42l-.28.13v.28l-.28.13-.15.41-.41.13c0,.18,0,.37,0,.56h-.13a1.12,1.12,0,0,0-.29.55h-.28a4.57,4.57,0,0,1-1.13,1.51l-.28.13v.28l-.41.26v.28l-.42.27v.14h-.28c-.18.23-.37.45-.56.68H61c0,.09-.09.19-.14.28l-.83.25-.14.28-.55.12v.14H59v.14l-.82.26V119l-.41,0v.14l-.55.13v.14l-.41,0v.14l-.69.12c-.44.19-.69.57-1.25.66,0,.1,0,.19,0,.28-.76.18-1.44,1.29-1.69,2,0,.42,0,.83,0,1.25l-.41.13-.14.27c-.46.3-.82.33-1,1h-.27c-.11.41-.23.31-.29.41-.05.33-.1.65-.16,1h-.13l0,1-.28.13v.14h-.27l-.29.41H49.6v.14h-.27v.14c-.22.18-.36.16-.42.5v-.17c-.43.39-.94.71-1.11,1.3a.81.81,0,0,0,.19.76,1.42,1.42,0,0,0,0,.65h.13v.28h.13v.28h.13c0,.14.09.28.13.42.46.09,1.24,0,1.78.19v.14c.42.06.27-.2.42-.27l.13.14a12.79,12.79,0,0,0,2.2-.07l8.91,0,3,.09s.06-.2.41-.13v.14l.14-.14c.19,0-.06.12.13.15l.42-.13,3.15.09v-.14l3,.09v-.14l.55,0,.27.14v-.13l2.74.08s0-.19.28-.14v.14c.36.07.42-.12.42-.12,1-.22,2.31.17,3.15-.05l1.51,0v-.14l1.24,0v-.14h.14v.14l.55,0v-.14l.27.15v-.14l1.51,0,2.19-.07v-.14l2.05.06V132l8.37,0v-.14l3.16,0,1.5,0v-.14l2.33.07v-.14l.41.15v-.14l3.15.09v-.14c.32-.07.38.18.55.16v-.14l1,0,.27.14v-.14l.41,0v-.14l1.37,0,.14-.14,0-.84h.14C111.89,129.75,111.56,129.91,111.26,129.43Zm9.12-100.74c-.28-.1-.12,0-.28-.15C120.38,28.63,120.22,28.52,120.38,28.69Zm-1.93.08v.14c-.24.11-.34-.09-.41-.15Zm-10.6-15.86c-.32-.19-.59,0-.85-.39-.19-.6.71-.56,1.06,0C108,12.64,108.05,12.82,107.85,12.91Zm2.5,3.41c0,.17-.34,0-.52,0s-.12-.3-.21-.46C109.84,15.68,110.45,16,110.35,16.32Zm.24.46a1.88,1.88,0,0,1,.62.33c-.25.23.45,1.11-.48.75C110.82,17.54,110.12,17,110.59,16.78Zm.84,4.47a.29.29,0,0,1-.41.11c0-.26-.12-.57.08-.73S111.51,21,111.43,21.25Zm-14,10.11c0-.09,0-.18,0-.27l.41.15v.14Zm.44,4.34v-.14c-.15-.12,0,0-.13-.14H98a2.53,2.53,0,0,0,0,.28Zm-.57,1.1c-.28-.09-.12,0-.28-.15h.14c.12-.16,0,0,.14-.14ZM99,35.59h-.41v-.14l.42-.12C99,35.41,99,35.5,99,35.59Zm.79,1.14c-.24.12-.34-.09-.4-.15h.41Zm.77-3a1.58,1.58,0,0,1-.69.12v-.28l.68,0Zm1.37,0-.83.11v-.42l.82,0Zm1-.11c-.24.11-.34-.09-.41-.16l.41,0Zm2.4-2.59h.13V30.9h.13v.28C105.23,31.09,105.39,31.2,105.24,31Zm-1,0c.27.09.11,0,.27.14C104.28,31.06,104.43,31.17,104.28,31Zm12.16,2.4c.16-.13.42.2.26.42-.07.05-.12.14-.21.07A.7.7,0,0,1,116.44,33.41Zm-1.64-1.12c0-.09,0-.19,0-.28h.13v.27Zm2.77-.9c-.1.14-.19.28-.29.41H117v-.14a1,1,0,0,0,.42-.27ZM98,29.85V30l-.42.12c-.1-.14-.16-.14-.27-.28Zm-2.22,6.63.27.15v.14c-.27.07-.12,0-.28.13h-.13Zm-.93-6.73.68,0v.14l-.69,0Zm.1,1.4V31l.41,0c0,.14,0,.27,0,.41h-.54C94.9,31.15,94.79,31.31,95,31.15Zm.39.85c0,.19,0,.37,0,.56h-.42l-.12-.42A1.23,1.23,0,0,1,95.34,32Zm-1.21,4.57,1,0v.14c-.52.07-.48.06-1,.11C94.12,36.76,94.13,36.66,94.13,36.57ZM50.75,33.35l-.42.13c-.1-.14-.16-.14-.26-.29l.68,0Zm-.5-1.83c.27.1.11,0,.27.15C50.24,31.58,50.4,31.69,50.25,31.52Zm.7-.95h-.13v.14c-.32-.1-.25,0-.4-.29l.55,0Zm1,.3-.42.13c0-.18,0-.37,0-.56l.41,0C51.91,30.6,51.91,30.74,51.91,30.87Zm1.64.19h-.41v-.14H53l.15-.42c.39.12,0,.08.41,0v.14h.13C53.65,30.79,53.6,30.92,53.55,31.06Zm1,2.82c-.15-.12,0,0-.13-.14h-.27v-.14h.41A2.53,2.53,0,0,1,54.57,33.88Zm1.38-.1h-.28c0-.09,0-.18,0-.27H56ZM56,31.13H55.6V30.7l.42-.12C56,30.76,56,31,56,31.13Zm-.24-1.26c.27.09.12,0,.27.15C55.77,29.93,55.92,30,55.77,29.87Zm.85-1.09-1.1,0v-.14l1.09,0Zm11.22.75v.27l-1.23-.17C66.83,29.43,67.42,29.5,67.84,29.53Zm-1.68,1.62h.27v.14h.14v-.14l1.37.18v.28l-1.78-.05C66.15,31.43,66.15,31.29,66.16,31.15Zm.74,3.37v.14c-.32,0-.28-.11-.4-.29s0,0-.13-.14l.27-.14V34a4.21,4.21,0,0,0,.67.29v.42H67v-.14Zm-1.29-3.39c0,.14,0,.28,0,.42h-.41c0-.14,0-.28,0-.42Zm-.39-.7h.41v.14C65.38,30.69,65.28,30.49,65.22,30.43Zm.37,1.68v.14c-.24.11-.34-.09-.41-.15Zm-.33,1.94.55,0c0,.14,0,.28,0,.42h-.14v.14l-.41-.15Zm1.95-1.19v-.14l.68-.12v.28Zm.16-.7v.14a2.29,2.29,0,0,1-.74,0s0,0,0,0a1.53,1.53,0,0,0-.45-.11v0Zm-1.72-2.7v.14a3.25,3.25,0,0,1-1.5-.18Zm-2,1.9v-.28l.82,0v.42Zm.8.72v.14l-.69,0v-.14Zm.09,1.82V34h.13c0,.14-.09.27-.14.41l-.69,0-.12-.56Zm-7.27-5.24.55,0v.14l-.54,0Zm.24,1.4c-.27-.09-.12,0-.27-.14C57.55,30,57.4,29.9,57.55,30.06Zm.11.84h-.13a2.62,2.62,0,0,0,0,.28c-.37-.12-.31,0-.4-.43l.41-.13ZM57.21,27c-.27-.09-.11,0-.27-.14C57.22,26.93,57.06,26.82,57.21,27Zm-.3,6.55.69,0c0,.19,0,.37,0,.56l-.68,0C56.9,33.9,56.91,33.72,56.91,33.53Zm1.85,2.71-1.64-.05v-.14h.41a2.53,2.53,0,0,0,0-.28c.37.11.31.2.68.3a2.72,2.72,0,0,1,0-.28l.54,0Zm.06-2.09-.55,0V34c-.15-.16-.06,0-.13-.28.16-.12,0,0,.14-.14l.55,0C58.83,33.77,58.82,34,58.82,34.15Zm.07-2.93h-.41a2.53,2.53,0,0,1,0-.28h-.28v-.14l.68,0C58.9,30.94,58.89,31.08,58.89,31.22Zm0-1.12h-.55V30h.55Zm.3-1.24-.68,0V28.7c.28-.08.12,0,.28-.14l.41.16Zm.64,2,.13.42-.55,0v-.41Zm-.4-.57v-.14l.41-.13v.28Zm.46,3.5c0,.19,0,.37,0,.56l-.41-.15-.14.13a1.46,1.46,0,0,1-.12-.56Zm.21,2.66-.82-.17v-.42l.82,0C60.14,36,60.14,36.23,60.13,36.42ZM61.23,31v.28l-.55,0v-.14h-.13V31Zm-.67-.72v-.14a1.45,1.45,0,0,1,.55-.12v.28ZM61.2,32v.14l-.69,0a2.53,2.53,0,0,0,0-.28A1.48,1.48,0,0,0,61.2,32Zm.09,1.82c0,.19,0,.37,0,.56l-.82,0c0-.18,0-.37,0-.55Zm-.61,2.49.15-.41c.46.06.44,0,.54.43ZM57.76,27c.42-.36,2.28,0,3-.05l.41-.13c.09,0,0,.28.41.29s.81-.47,1.51-.23V27h.41v.14l1.77.19v.14l-1.1,0v.27c-.5,0-1.38-.14-1.65.1-.32,0-1,0-1.09-.17l.14-.28A31.07,31.07,0,0,0,57.76,27Zm5.5,5v.14l-.82,0V32Zm-.81-.72c0-.09,0-.18,0-.28l.68,0v.28Zm.08,2.52.68,0c.11.16,0,0,.13.14,0,.14-.09.27-.14.41l-.69,0C62.52,34.21,62.52,34,62.53,33.84Zm-.87-3.66c.27.09.12,0,.27.15C61.66,30.24,61.81,30.35,61.66,30.18ZM62,33.82c0,.19,0,.37,0,.56h-.13c0-.18,0-.37,0-.55ZM61.77,31h.14v.28h-.13Zm6.17,5.62c-2,.31-4.14-.25-6.16-.32a2.44,2.44,0,0,1,0-.27,14.14,14.14,0,0,1,3,.22l1.09,0a13.15,13.15,0,0,1,2,.19Zm0-6a3.89,3.89,0,0,1-1.64-.19l1.65.05ZM49,129.15H48.9V129C49,129.17,49.07,129,49,129.15Zm.09,2.24a1.11,1.11,0,0,1,.26.42C49.14,131.65,49.18,131.72,49.11,131.39Zm5.64-6.53-.54,0v-.14l.55,0Zm46-7.17v.13a7.44,7.44,0,0,1-2.32-.2Zm-2.6-.22v.14h.14v.14c-.46,0-.51,0-.68-.3Zm-.4-.71v.14c-.24.11-.34-.09-.41-.15ZM96.27,115s0-.21.28-.13l.26.43h.27c.08.28,0,.12.13.28v.14c-.5,0-1.38.07-1.64-.19-.71-.06-.66-.31-1.08-.59v-.14Zm.91,1.7v.14l-.68,0v-.14Zm-3.08-2.6c.27.1.12,0,.27.15C94.1,114.2,94.25,114.31,94.1,114.14Zm.28-.55c-.57,0-1,0-1.22-.31l1.23.17Zm1,.59V114h.41v.14h.14v.13h-.13c-.19.13-.61,0-1.1,0v-.14Zm-1.46-1.86c.57.09.44.21.81.45v.13a18.88,18.88,0,0,0-2.06-.19l-.12-.57,1.36.32Zm-1.77-.75v-.27a10.59,10.59,0,0,1,1.64.32A5.59,5.59,0,0,1,92.1,111.57Zm1-1.36.12.56c-.49,0-1.38.07-1.64-.19h-.14c.1-.34.16-.3.29-.55Zm-1.4-4.51.55,0c-.09.27,0,.12-.14.27v.14c-.36-.06-.21.08-.4-.15h.13C91.79,105.89,91.75,105.8,91.7,105.7Zm.53.85c0,.15.09.29.13.43-.52,0-1.51.08-1.78-.19s-.06,0-.13-.29c.16-.11,0,0,.14-.13Zm-.6,2.08v.14l-.82,0c0-.15-.09-.29-.13-.43l1.78.06v.41l-.69,0v-.14Zm-1.07-.87v-.28a6.4,6.4,0,0,1,1.78,0v.28Zm.5,1.69v-.14c.27-.07.11,0,.27-.13a3.89,3.89,0,0,0,1.37.18v.14ZM85,56h.55v.14H85Zm-.42.26s0,0-.26-.28C84.35,56,84.69,56.11,84.58,56.24Zm1-19.22c.27.09.11,0,.27.15C85.62,37.08,85.77,37.18,85.62,37Zm2.06-.36h-.55v-.14h.55Zm1.21-4.57h-.13v.14h-.13v-.14h-.14l.15-.41h.27C88.9,31.81,88.9,32,88.89,32.09Zm-.58,1.24c.12-.37,0-.32.43-.4C88.62,33.3,88.69,33.24,88.31,33.33Zm1.52-.23c.27.09.12,0,.27.14C89.83,33.15,90,33.26,89.83,33.1Zm.31,9.49c-.12.16,0,0-.14.14v-.28c.28.09.12,0,.27.15ZM91.43,35h-.28v-.28h.14c.11.16,0,0,.13.15Zm1.3-2.62c.27.1.11,0,.27.15C92.73,32.4,92.88,32.51,92.73,32.34Zm.11.84c-.27-.09-.12,0-.27-.14C92.84,33.13,92.69,33,92.84,33.18ZM94,36.71v.14h-.27V36.7l-.41.13v-.14c-.27-.14-.07.08-.27-.15l.82,0C94,36.72,93.83,36.58,94,36.71Zm-.39-1.13c-.27-.09-.11,0-.27-.15C93.61,35.52,93.45,35.42,93.6,35.58Zm-.53-5.88v.14c-.24.11-.34-.09-.4-.15Zm-.34,2.37c-.27-.1-.12,0-.27-.15C92.73,32,92.58,31.9,92.73,32.07Zm-.06,2.64v.14c-.24.12-.34-.09-.4-.15Zm-.71.68.69,0v.14l-.69,0Zm-1-3.52.54,0V32l-.55.12A2.72,2.72,0,0,1,91,31.87Zm.06,2.8v.14h-.14v.14h-.14l-.13-.29Zm-.88-3.1c.15.16,0,.06.27.15-.09.27,0,.12-.14.27v.14h-.41l-.12-.42Zm-1.07-1c0,.14,0,.28,0,.42h-.14v.14h-.14c0-.18,0-.37,0-.55Zm-1.24.11.42-.13c0,.14,0,.28,0,.42l-.42.12Zm-.3,1.1h.14v-.14h.41c0,.19,0,.37,0,.56l-.55,0C87.52,32.05,87.53,31.91,87.53,31.77Zm-.16,1,.55-.13v.14h.13c0,.13-.09.27-.14.41L87.36,33c0,.19,0,.38,0,.56h-.14C87.26,33.3,87.32,33,87.37,32.75Zm-.32,1.94a1.58,1.58,0,0,0,.68.16V35l-.68.12Zm-.81-6.16.69,0a2.53,2.53,0,0,0,0,.28l-.41,0v-.14h-.27Zm.09,1.81.41,0c0,.27,0,.55,0,.83h-.41c0-.09,0-.19,0-.28h-.14A3,3,0,0,0,86.33,30.34ZM86.15,32h.41v.14l-.41.13Zm-.15.7h.55c-.06.28-.11.56-.16.83H86Zm0,2.09h.13c.08.26-.08.2-.14.28v.14H85.8Zm0,1.67v.14h-.14v.14a1.35,1.35,0,0,0-1-.17v.14a.24.24,0,0,1-.27-.15l-1.1.11c0-.1,0-.19,0-.28l.41-.13v.14l.68,0s0,.23.27.15v-.14Zm-2.51,18.2-.13-.42h.14c0-.52,0-1,0-1.54l.41.15c0,.61,0,1.21,0,1.82Zm.38,1.27c0,.09,0,.19,0,.28h-.41v-.14Zm-4.91-1a2.62,2.62,0,0,1,0-.28,1.28,1.28,0,0,0,.54.16V55Zm.52,1.13v.14c-.24.11-.34-.09-.4-.15ZM78.62,48h-.13c0,.33.07.66.11,1h-.14l.13.28a5.81,5.81,0,0,1-.18,2v.28h-.14l-.06-3.22h-.13a1.38,1.38,0,0,1-.12-.7h.27c0-.68.17-1.54-.23-1.82,0-.51-.07-1.41.18-1.67v-.14h.41c0,.28.07.56.11.84h-.13l0,1.11h.14V46h-.14c-.08.36.12.51.12.7s-.2,0-.14.28h.14v.16a.85.85,0,0,0,0,.3l0,.1H78.5Zm-.15,6v.28h-.14a2.53,2.53,0,0,1,0-.28Zm.25-23.71a.17.17,0,0,0,.18,0h.34c.18.18.36.1.57.22.11,0,.12-.12.13-.2h.22c-.14.5-.25.29-.29,1a7.65,7.65,0,0,1-2.33-.21c0-.18,0-.37,0-.55h.28v-.27Zm.52,4.2v-.14a2.43,2.43,0,0,1,1-.11v.28Zm.94.59v.14l-.69,0V35Zm-.92-1.7c.06-.19.11-.37.16-.56l.82,0c0,.18,0,.37,0,.55A2.09,2.09,0,0,1,79.26,33.35Zm.58-1.24a2.72,2.72,0,0,0,0-.28h.41v.28Zm-.54-.3V32a2.43,2.43,0,0,1-1,.11c-.09.28,0,.12-.15.28,0,.14.09.28.13.42l.55,0c0,.18,0,.37,0,.55a6,6,0,0,1-1.5,0l0-1.39c.16-.12,0,0,.14-.14Zm-.6,2.36v.42l-1.38.1c0-.14,0-.28,0-.42h-.13v-.14Zm1.55,9.11,0,1H80c0-1.62.14-3.24.25-4.32.21.26.12.94.1,1.4-.06.65-.13,1.3-.19,2Zm-1.56-3.39,0,.83h.14c0,.28-.15.27-.15.27,0,.24,0,.47,0,.7l-.41.13c-.2-.63,0-1,0-1.95Zm-.6-3.51v.14l-.14.14-.41-.15-.15.41h-.27c0-.18,0-.37,0-.56Zm2.06,16.25a2.72,2.72,0,0,1,0,.28H80v-.28Zm.22,2.24V55c-.33-.09-.26,0-.41-.29ZM78.5,36.67c.09-.27,0-.12.14-.27a16.26,16.26,0,0,1,2.75-.2c0,.14,0,.28,0,.42Zm5.36-6.26a1.64,1.64,0,0,1-.15.69l-.69,0c0-.27,0-.55,0-.83l.69,0v.14ZM84.65,32a2.53,2.53,0,0,0,0,.28h-.41a2.53,2.53,0,0,1,0-.28Zm-.26-.85c0-.18,0-.37,0-.55h.27c0,.19,0,.38,0,.56Zm.24,1.69,0,.83h-.54l0-.84Zm-.19,1.94c0,.19,0,.38,0,.56l-.69,0c0-.14,0-.28,0-.42.16-.11,0,0,.14-.13Zm-.89-2.81v.14h.13v.14l-.68,0v-.28Zm0,.83,0,.84-.55,0c0-.27,0-.55,0-.83Zm-.33,2.09v.42l-1.23,0C82.14,34.66,82.51,34.8,83.2,34.86Zm-.79,1.37h.48c.12.16,0,0,.14.15l-.15.27h-.5l.05-.06A.64.64,0,0,0,82.41,36.23ZM80.94,32h-.13v-.14l1,0c-.09.27,0,.12-.14.27S81.18,32.29,80.94,32Zm1-1.09-1.23,0a1.74,1.74,0,0,1,.15-.7l1.1,0C81.94,30.45,81.94,30.68,81.93,30.91Zm-1.2,4.29v-.28l.83,0v.14A2.05,2.05,0,0,1,80.73,35.2Zm0-1.67c.14-.43.08-.21,0-.7a1.69,1.69,0,0,1,.34-.08c0,.1,0,.2.12.25s.35.12.39,0a.26.26,0,0,0-.14-.27h.25c0,.23,0,.45,0,.68a.18.18,0,0,0,0,.16Zm1.16,2.69h.2a2,2,0,0,0,0,.42h-.21Zm2.15-8.87c-.27-.09-.12,0-.27-.15C84.08,27.29,83.93,27.18,84.08,27.35ZM83,28.43v-.14a1.74,1.74,0,0,0,1,.17v-.14h.13v.14l.82,0a2.72,2.72,0,0,1,0,.28c-.54,0-1.62.09-1.91-.2-.15-.12,0,0-.13-.14Zm-.63,3.47h.27a2.72,2.72,0,0,1,0,.28h-.27C82.31,32.09,82.32,32,82.32,31.9Zm.25.85.12.56h-.13v.14l.14.15-.41,0v-.14h-.14a1.52,1.52,0,0,0,.16-.69Zm-5.51-4.49,1.24-.1v.14a4.28,4.28,0,0,0,2.19-.08,5.89,5.89,0,0,1,1.78.19l-.15.28-.82,0c-.19,0,0,.15-.14.14v-.14l-.55,0v.14h-.13v-.14a2.77,2.77,0,0,0-1.24.1l-1.37,0-.13-.28c-.3-.13-.53.07-.68.12Zm-2.35,6.49h-.14a1.36,1.36,0,0,0,.15-.69l1.65.05a1.1,1.1,0,0,0,.26.43,2.44,2.44,0,0,1,0,.27,1.47,1.47,0,0,0-.54-.15v.28C75.62,35,75.05,35.11,74.71,34.75ZM75.36,36c0,.1,0,.19,0,.28l-.82,0c0-.14,0-.28,0-.42A2.32,2.32,0,0,1,75.36,36Zm1.1-5.55a1.59,1.59,0,0,1-.15.56l-1.37,0c.09-.28,0-.12.14-.28l1.24-.38v.14Zm0,1.26c0,.51,0,1,0,1.53l-1.65,0a5.73,5.73,0,0,1,.18-1.66A4.73,4.73,0,0,1,76.43,31.73ZM72.36,29.8c-.27-.09-.12,0-.27-.15C72.36,29.74,72.21,29.63,72.36,29.8ZM71.48,32c0-.19.17.06.14-.13h-.13v-.27a6,6,0,0,1,1.93-.09c0,.56,0,1.12,0,1.67A6.15,6.15,0,0,1,71.46,33C71.47,32.65,71.48,32.33,71.48,32ZM70.1,27.08l.68,0v.14l-.68,0Zm.35,2.52v.14h.14v.13c-.7,0-1.77.11-2-.33Zm-1.54,1.07c-.27-.09-.12,0-.27-.14C68.91,30.62,68.76,30.51,68.91,30.67Zm.94,6.17-.13-.14-.41.12v-.14l-1,0c.26-.23,1-.13,1.51-.1A2.62,2.62,0,0,1,69.85,36.84Zm-.08-2.1-1.37,0c0-.18,0-.37,0-.55l1.51,0A1.53,1.53,0,0,0,69.77,34.74Zm.77,2.12h-.41v-.14l.42-.13A2.62,2.62,0,0,0,70.54,36.86Zm.19-2.23H70.6v.14c-.08.08-.25-.4-.26-.43h-.28v-.14l.68,0C70.74,34.35,70.74,34.49,70.73,34.63Zm0-1.53-.68,0L70,32.8l-.83.11v.14H69v-.14l-.54,0c.18-1.29,1.13-.47,1.8-1.06.16-.12,0,0,.14-.14h-.13v-.14h-.14c-.21.29-.69,0-1.1.1v.14a2.23,2.23,0,0,0-.54-.15v-.28l2.47.07Zm.45,3.78a2.62,2.62,0,0,0,0-.28l.69,0v.14l-.55,0C71.18,36.81,71.41,36.82,71.22,36.88Zm.45,4.2h-.14l.15-.55h-.14l0-1.12h.28l.09,1.82C71.67,41.13,71.82,41.24,71.67,41.08Zm-.12-6.28-.12-.57,1.78.06c.11.16,0,0,.13.14v.42h-.14V35l-.54-.15V35Zm.94,1,1,0V36l-1,0ZM74,41.29h-.27V41h.13c0-.46-.07-.93-.1-1.4h.14A5.23,5.23,0,0,1,74,41.29Zm0-5h-.14l-.12-.42H74Zm0,.42v.14l-.82,0v-.14ZM73,41.26c-.17.08,0,.17-.14.13v-.14l-.41-.15c0-.51,0-1,0-1.53h.55C73.12,40,73.37,40.91,73,41.26ZM74,35c-.27-.09-.12,0-.27-.15s-.14,0-.12-.42h.13l-.13-.28a1.15,1.15,0,0,1,.55-.12C74.12,34.36,74.07,34.68,74,35Zm.19-1.81h-.42L74,31.52h.28C74.22,32.08,74.21,32.64,74.2,33.2ZM74,30.82c.27.09.12,0,.27.15C74,30.88,74.13,31,74,30.82Zm.34-2.36a3.9,3.9,0,0,1,2.19-.22c-.09.28,0,.12-.14.28v.14c-.34-.19-.2.08-.69,0,0,0-.17-.26-.41-.15v.14l-1,0Zm.8,11.46c-.15-.12,0,0-.13-.14h-.27v-.14h.41A2.53,2.53,0,0,1,75.12,39.92ZM74.65,37v-.14h-.13V36.7l1.92-.23c0,.14,0,.28,0,.42A5.73,5.73,0,0,0,74.65,37Zm2.49,4.54-.82,0,.28-.41.55,0C77.15,41.24,77.14,41.38,77.14,41.52Zm0-1.26H77a1.57,1.57,0,0,1,.16-.56l.4.16V40C77.26,40.08,77.33,40,77.17,40.26Zm-1,14.34c0-.23,0-.46,0-.7h.14a2.62,2.62,0,0,1,0-.28h.13l.15-.41h.28c0-.19,0-.37,0-.56l.69-.12c0,.57-.2,1.77.08,2.1a1.4,1.4,0,0,1-.15.55A1.48,1.48,0,0,1,76.8,55V54.9l-.69.12v-.14H76C75.9,54.65,76.12,54.62,76.13,54.6Zm-8.45,57.66a1.28,1.28,0,0,1,.56-.13,2.72,2.72,0,0,0,0,.28h-.55Zm.44-1h.27v.28h-.14v-.14C68.1,111.31,68.23,111.45,68.12,111.29Zm-.37,3.76.82,0,0,1.12-.54,0c-.07-.58-.28-.49-.39-1C67.77,115.07,67.63,115.2,67.75,115.05Zm-.19,2c-.27-.09-.11,0-.27-.15C67.57,116.94,67.41,116.83,67.56,117Zm-.4,5.29h.41v-.14l1.23,0a2.75,2.75,0,0,1-1.65.23Zm1.53-6.52c0-.23,0-.46,0-.69h.41l0,1.11c-.27-.09-.12,0-.27-.14h-.13l.14-.27Zm0-1.25c0-.19,0-.37,0-.56H69c0,.19,0,.37,0,.56ZM67,122.28v.14a5.13,5.13,0,0,1-1.92-.19Zm-.48-8h.13c0-.09,0-.19,0-.28h.14v.41S66.28,114.44,66.54,114.32Zm0,4.32v.28a1,1,0,0,0-1,0v-.28ZM58,121.18l.41,0c0,.14.08.28.13.42l-.55,0C58,121.46,58,121.32,58,121.18Zm-.16,1h.55v.28H58v-.14h-.14Zm.66,6.43c0,.1,0,.19,0,.28h-.14a2.72,2.72,0,0,0,0-.28Zm-.21-2.52c0,.28,0,.56,0,.84H58c0-.28-.07-.56-.11-.84Zm-1.52.24a2.62,2.62,0,0,0,0-.28l.69,0,0,.84-.54,0v-.14h-.14l.15-.42Zm-1.51.23h.14v.14h.14v.14h-.28C55.25,126.73,55.26,126.64,55.26,126.54Zm3.29,5.4c-.24.11-.34-.09-.41-.15h.41Zm.28-.13c.27.09.12,0,.27.15C58.83,131.87,59,132,58.83,131.81Zm3.17-.74v.14l-.69,0c.32-.38.38-.07.43-.83l-.82,0v.14a2.8,2.8,0,0,0-1.1.1c.09.39,0,.32.4.43-.29.26-1.27.12-1.78.09v-.28l-.41-.15v-.14l-.14.14-.69,0v.14l-1.78-.19c.51-.44,2.34,0,3.16-.19v-.14l1.37,0a9.1,9.1,0,0,1,2-.22c-.06.18-.15.35,0,.53.3.13.27.51.94.35a.81.81,0,0,0,.31-.15c0,.07.13.09.33.15C63.16,131.26,62.45,130.83,62,131.07Zm1.76.88-.82,0v-.14l.82,0Zm-.47-1.68a1,1,0,0,1,0-.16h0l1.63.07C64.64,130.41,63.79,130.3,63.29,130.27Zm5.55,1.55a12.08,12.08,0,0,1-3.84,0c.52-.44,2.08.24,2.61-.2h.27v.14c.23,0,.24-.13.28-.14l.68,0ZM67,130.23v-.14l.55,0v.14Zm3.25,1.63a1.79,1.79,0,0,1-1.23-.17l1.23,0Zm1.51-5.81-.41.13v.13l-1.51,0v.14l-.83,0v.14l-1.1,0v.14l-2.19.08c-1.62.46-5.07,0-6.87.22l0-.84c.15-.11,0,0,.14-.13a28,28,0,0,0,4.25,0c.91-.22,2.22.14,3.07,0a.22.22,0,0,1,0,.08,1.36,1.36,0,0,0,1.14-.11c.9.09,1.94.28,2.32,0l1.92.06Zm-2.14-12.76.82,0v.42h.14a2.44,2.44,0,0,1-.16.83l-1,0A3.66,3.66,0,0,1,69.58,113.29Zm-.11-1.12a2.62,2.62,0,0,1,0-.28h.13v.28Zm.68.3c.15-.12,0,0,.14-.14h.13c0,.14,0,.28,0,.42l-.41,0ZM70.07,110c.27.09.12,0,.27.14C70.07,110,70.22,110.12,70.07,110Zm.42,5.17c0,.32,0,.65,0,1l-.41,0v.14l-.41-.15-.14.14,0-1h-.14v-.14Zm0,1.81v.14h-.55v-.14Zm2.5-7c0,.23,0,.46,0,.7-.22,0-1-.17-1-.17v.14h-.14l0-.83A5,5,0,0,1,73,109.9Zm-.81-.58a2.72,2.72,0,0,0,0-.28l.68.16v.14Zm.92,1.84c0,.51.06,1,.1,1.54-.28.07-.12,0-.28.13a2.77,2.77,0,0,1-1.09-.17l0-1.54Zm0-5.72h-.14v.14h-.13l-.13-.28h.41Zm-.35,2.78c0,.14,0,.28,0,.42l-.82,0c.09-.27,0-.12.14-.27v-.14l.4.15v-.14ZM72,105.41l-.55,0,.15-.27.4.15Zm-.43,11.7c-.27-.09-.12,0-.27-.14C71.54,117.06,71.39,117,71.54,117.11Zm-.66-1,0-1.12.54,0c0,.37,0,.74,0,1.11Zm.62-2.78a2.72,2.72,0,0,0,0,.28h-.14c0,.2.11-.05.13.14s0,.47,0,.7l-.55,0,0-1.11Zm-.13-.56h-.55v-.28H71c0-.23-.13-.25-.13-.28A2.48,2.48,0,0,1,71,111.1h.41C71.4,111.67,71.39,112.23,71.37,112.78Zm1.77.47c0,.14,0,.28,0,.42h.14a2.22,2.22,0,0,1-.16.83l-1.23,0-.11-1.12Zm.81-5v.14h.14v.14l-.82,0,.15-.27Zm-.2-2.79c.27.09.12,0,.27.15C73.75,105.51,73.9,105.62,73.75,105.46Zm.58,4.2-.82,0v-.14h-.14c0-.14,0-.28,0-.42l1,0C74.34,109.29,74.33,109.47,74.33,109.66Zm.12.56v.28l-1.1,0c0-.19,0-.37,0-.56ZM73.32,117a1.86,1.86,0,0,1-1.23-.18l1.24,0Zm-.11-.84-1.37,0c0-.38,0-.75,0-1.12l1.37,0c0,.23,0,.46,0,.7h.13Zm.26-5.16,1.24,0c0,.37.07.74.1,1.12h-.13l-.15.56a2.8,2.8,0,0,1-1.1-.18C73.45,112.05,73.46,111.54,73.47,111Zm1.24-5.4v-.28h.14c0,.09,0,.19,0,.28Zm-1.17,8.19h.14v-.14h-.14c0-.14,0-.28,0-.41l1.24,0c0,.19,0,.37,0,.56s.17,0,.14.14h-.14c0,.14,0,.28,0,.42l-1.23,0c0-.14.09-.28.14-.41C73.57,113.8,73.55,114,73.54,113.82Zm.11,1.26a4.44,4.44,0,0,1,1.51-.09l0,.83a.57.57,0,0,0-.28.27l-1.09,0A6.65,6.65,0,0,0,73.65,115.08Zm1,3v-.14l.69,0v.14Zm.64,1.69v.14l-.55.13v-.28Zm.72,9.65c-.16.12,0,0-.14.14l-1.65-.05v-.14l.82,0v-.13h.28v.14c.2,0,0-.11.14-.13H76Zm-.64-23.87c.28.09.12,0,.27.14C75.39,105.56,75.55,105.67,75.39,105.51Zm.31,4.33c-.23-.17-.19-.09-.27-.43A1.12,1.12,0,0,1,75.7,109.84ZM74.61,104v.14l-1,0c-.19,0,.06-.12-.14-.14s0,.2-.27.13v-.14l-1.78,0v-.14h-.41v-.14a.21.21,0,0,0-.28.13h-.14v-.14H70.1v-.14h-.27v-.14l-.82-.16V103l-1.9-.48v-.14h-.27v-.14L66,102v-.14l-.82-.3v-.14h-.27v-.14h-.27v-.14H64.4V101l-.68-.16-.26-.43h-.41v-.14a1.81,1.81,0,0,0-.81-.44v-.28L61.44,99v-.28l-.4-.15v-.28L60.5,98v-.28l-.27-.15c-.16-.18-.22-.41-.4-.57,0-.09,0-.19,0-.28-.5-.16-.49-.55-.8-.86l-.41-.15-.13-.28-.94-.87v-.28l-.27-.14V94l-.67-.58V93.1l-.41-.29a2.62,2.62,0,0,0,0-.28L56,92.24A2.53,2.53,0,0,0,56,92h-.13v-.28l-.4-.29a2.72,2.72,0,0,1,0-.28L55.19,91a2.44,2.44,0,0,0,0-.27h-.14l-.12-.56H54.8V89.7h-.13a2.44,2.44,0,0,1,0-.27h-.14l-.12-.84H54.3v-.42h-.14a2.44,2.44,0,0,1,0-.27l-.27-.15v-.28h-.13L53.54,86H53.4l-.12-.7h-.14a2.44,2.44,0,0,0,0-.27H53c0-.33-.07-.65-.11-1h-.14c0-.14,0-.28,0-.42h-.13c0-.24,0-.47,0-.7h-.13c0-.79-.05-1.58-.08-2.37h.14l-.12-.84h.14c.06-.79.13-1.58.19-2.37h.14V77h.14c0-.23,0-.46,0-.7h.13c0-.19,0-.37,0-.56h.13l0-.41h.13v-.42h.14v-.42h.14c0-.18,0-.37,0-.56H54l.15-.56h.14l.15-.69.28-.14c.1-.27.19-.55.29-.82l.42-.27c0-.09,0-.19,0-.28l.42-.27v-.28l.42-.26.15-.42h.27c.3-1,1.58-1.62,1.85-2.6h.27c.18-.62.74-.84,1.13-1.22l1.69-1.77h.28l.28-.41h.27l.15-.27h.27l.43-.54h.27l.71-.82h.27c.1-.14.19-.28.29-.41l.82-.12.15-.27h.41l.14-.28h.27v-.14h.27V61h.41V60.9h.27v-.14l.69-.12v-.14h.41v-.13h.41v-.14l.68,0v-.14h.41V60h.41v-.14l.41,0v-.14l1.1-.11v-.14h.41v-.14l.55,0v-.14h.55v-.14H74V59l.55,0v-.14l2.2-.22v-.13h.41V58.4l1.23,0v-.14l1.92-.08,1.38,0,.12.28.55,0v-.14l1.91.06v.14l1.64.18v.14l.82,0v.14h.54v.14l.82,0v.13l.41,0v.14l.54.15v.14l.68,0V60h.41v.14h.41v.14l.42,0v.13l.41,0v.14l.54.15v.14h.27v.14h.41l.13.28.41,0,.13.28h.28v.14h.28V62l1,.17.13.28h.27l.13.28.82.31.13.28.68.16.13.28h.27l.13.28h.28l.26.43a5.34,5.34,0,0,0,1.62,1.16c.09.35.06.23.26.43v.14h.27l.27.29v.28l1.08.87a6.93,6.93,0,0,1,.65,1.13l.54.44v.28l.54.43v.28l.27.15c0,.14.09.28.13.42l.54.43c0,.1,0,.19,0,.28l.41.29a2.72,2.72,0,0,0,0,.28l.27.29a2.53,2.53,0,0,0,0,.28h.14v.28H105a2.72,2.72,0,0,0,0,.28l.27.29a2.62,2.62,0,0,0,0,.28l.27.15.12.56h.14c0,.16,0,.32,0,.48a3.22,3.22,0,0,0-1.21,0l-.1,0c.22.21-.27.3-.15.49.44.19.1.67,1,.59.6-.09.59-.33.6-.57h.1c0,.09,0,.18,0,.27h.14l0,.83c.13.48.23,1,.33,1.59l-.39.11-.06-.1c.09.47-.44.41-.42.8s0,.61.36.82.57,0,.79-.11c0,.43,0,.85,0,1.28a0,0,0,0,1,0,0l-.23-.07c-.28,0-.2.39,0,.56a.2.2,0,0,0,.28-.11l0,.59H107a12.1,12.1,0,0,1-.37,3.9c-.16.83-.32,1.66-.47,2.49H106c-.1.28-.2.55-.29.83h-.14c0,.1,0,.19,0,.28h-.14c-.09.28-.19.55-.29.83l-.28.13c-.1.28-.2.55-.29.83l-.28.13c0,.14,0,.28,0,.42h-.14l-.15.42-.27.13a2.62,2.62,0,0,0,0,.28h-.14c0,.11-.08.22-.11.33l-.21-.06,0-.34c-.28-.07-.31.27-.61.07l0-.34c-.13.17-.27.69,0,.73-.11.4-.48-.24-.54-.32-.15.2,0,.62-.19.81a1.88,1.88,0,0,0,.42.79v.25l-.42.27c0,.09,0,.19,0,.28l-.28.13v.28l-2.1,1.75-2.54,2.58h-.27l-.57.68H96l-.14.28-.83.25-.15.28-.83.25-.14.28-.55.12c0,.09-.1.19-.14.28l-.56.12v.14l-.55.12v.14h-.42v.14h-.27v.14h-.54V103l-.41,0v.14l-1,.11v.14l-1,.12v.13h-.55v.14H87.5v.14l-.55,0V104l-1.24.1v.14l-1.1,0v.14H84.2v.14l-1.91-.06v.14H82l-.27-.42-.41.12v.14l-.69,0v.14l-1.09-.17-.13-.28a1.79,1.79,0,0,0-1,.11v.14l-1.23,0ZM84.27,107c-.55.14-1.28-.21-1.65.09l-1.92,0v-.14H81c-.08-.28,0-.12-.13-.28v-.14c.49.17,1.63-.13,2.47.07v.14h.13v-.14l2.88-.06v-.14l1.92-.08v-.14l1-.11v.28ZM88,115.64v.14c-.24.11-.34-.09-.4-.15Zm-1.1,0v.14l-.55,0v-.14ZM79.15,125v-.14l.68.16v-.14c.67-.16,1.54.09,2.06-.08V125H82v.14c-1.11,0-2,.14-3,.19C79.1,125,79,125.16,79.15,125Zm-.5-18.29h.42v.14C78.82,107,78.72,106.78,78.65,106.72ZM80,113.87c0-.09,0-.18,0-.28h.27v.28Zm.25,1.12c0,.14,0,.28,0,.42h-.28c0-.14,0-.28,0-.42Zm-.76-8v-.14l.82,0V107Zm1.3,8.41c0-.14,0-.28,0-.42h.13v.42Zm.39,6.15v-.14l.55,0v.14Zm8.1-6c0,.14,0,.28,0,.42l-.41,0-.12-.42Zm-10.92-1.72a2.72,2.72,0,0,1,0-.28h.13v.28Zm.11,1.12v.42H78.3c0-.14,0-.28,0-.42Zm-.23,3.76a2.72,2.72,0,0,0,0,.28h-.14c0-.09,0-.19,0-.28Zm-.51-7.27v.14l-.69,0v-.14Zm-1.36-5.9c.27.1.12,0,.27.15C76.35,105.59,76.51,105.7,76.35,105.53Zm1.44,8.14v.14l-.55,0v.14c-.41-.06-.38,0-.54-.29Zm-1,1.22.55,0v.42h-.41C76.89,115.18,76.85,115,76.8,114.89Zm.18,3.78h.14V119H77Zm10,12.71v.13c-.51.13-1.09-.06-1.51.1l-.27-.15v.14l-2.75.06c-.64,0-2.39-.22-2.74.06l-2.6-.07v-.14a7.38,7.38,0,0,1,2.06-.08l1.1,0v-.14l1.64.05,2.06.06v-.14c.86-.22,2.42.44,3,0l1.92,0C88.46,131.63,87.55,131.22,87,131.38Zm3.15,0c-.24.11-.34-.09-.41-.15h.41Zm.25-4.32-.55,0v-.14l.55,0Zm.27-.13c.27.09.12,0,.27.15C90.62,126.93,90.78,127,90.62,126.88Zm.33-1.95v.14l-1.5,0v.14c-.32.07-.36-.16-.54-.16v.14A7,7,0,0,1,86.5,125a2,2,0,0,1,0-.26c-.14,0-.15.11-.17.22l-.08,0-4,0v-.14l1,0v-.14l2.33.07c1-.2,3.92.12,5.63-.12.83-.11,2.93.37,3.43,0a29.88,29.88,0,0,0,4,.12c-.32.26-1.12.06-1.65.09-.27,0-.28.13-.28.13l-3.15-.09C92.88,125,91.7,124.74,91,124.93Zm4.63,6.42a7.46,7.46,0,0,1-2.32-.21l2.33.07Zm2.89-.2v.14L96,131.22s0,.1-.28.13v-.28l4,0C99.41,131.3,98.92,131,98.47,131.15Zm1.78,0c-.24.12-.34-.08-.41-.15l.41,0Zm-.78-12.71c.37-.33,1.16,0,1.65,0,0-.13.09-.27.14-.41.53.08.38.18.82.3v.28C101.15,118.67,100.21,118.57,99.47,118.49Zm4.5,1.1c-.59,0-1.87.12-2.19-.2h-.14v-.14l.68,0,.15-.42a6.81,6.81,0,0,1,1.49.6Zm.26.57c0-.14,0-.28,0-.42h-.14v-.14h.41a2.62,2.62,0,0,0,0,.28,1.08,1.08,0,0,1,.67.44A3.77,3.77,0,0,0,104.23,120.16Zm.94.72V121c-.25.12-.35-.09-.41-.15Zm0,3.63c-.25.12-.35-.09-.41-.15h.41Zm.31-1.66h.41V123C105.7,123.11,105.6,122.91,105.53,122.85Zm.8,1-.69,0a2.62,2.62,0,0,0,0-.28,1.62,1.62,0,0,0,.68.16Zm.17-1.39h-.14l-.13-.28c0-.06.26,0,.15-.27s-.32-.08-.41-.29c.18-.08.13.06.14-.14.21.14.23.28.41.43C106.51,122.09,106.51,122.27,106.5,122.46Z"/>
        <path d="M147.49,83.42a1.4,1.4,0,0,0,.64-1.39,8.48,8.48,0,0,0-1-4.55c-.43-.64-1.5-2.88-2.28-4.52l-.76-1.57c-.18-.34-.39-.74-.62-1.14a8.7,8.7,0,0,1-1.18-2.64,1.82,1.82,0,0,0-.15-.78c-.06-.18-.11-.29.4-1.13a18.65,18.65,0,0,1,1.37-1.94,14.05,14.05,0,0,0,1.4-2.08,1.87,1.87,0,0,1,.55-.68c.46-.39.62-.73.42-1.77a11,11,0,0,1-.3-3V52.32l-.21-.14c-.05,0-1.22-.78-3,.64l-.35.28a11.78,11.78,0,0,0-2.36,2.36l-.42.49c-1.36,1.59-3.77,4.4-2.91,6.6-1.84,0-6.31.19-8.55.94l-.39.13c-2.12.7-3.28,1.08-3.27,1.9s.89,1,1.83,1.31A9.14,9.14,0,0,1,129,68.15a7.13,7.13,0,0,0,4.55,1.46c3.16,0,4.39-.45,4.75-.63s1.66-.1,1.86.87A11.57,11.57,0,0,0,141.91,73l.49.74c.58-.07,1.34-.11,1.33.32-.22.33.1.8-.45,1a8.2,8.2,0,0,1,1.16,2.7s0,.06,0,.09a.31.31,0,0,1,.16.19c.44-.78.92.07,1.46-.19.39.11.19.79.67.8l-.13.06c-.14.36-.51,2-1.19,1.4a2,2,0,0,0-.53-.55c0,.13,0,.27,0,.42a27.81,27.81,0,0,0,.84,2.8l.05.12.1.08a2.19,2.19,0,0,0,1.22.5A1.11,1.11,0,0,0,147.49,83.42Zm-20-19.21c-.26-.08-.3-.13-.28-.31.24,0,.47-.21.59,0S127.72,64.17,127.53,64.21Z"/>
        <path d="M126.78,33.36c.26.23.57.5.92.83a5.3,5.3,0,0,0,3.59,1.51,4.7,4.7,0,0,0,1.44-.22,5.64,5.64,0,0,0,.9-.41l.12.15-.07-.13a.73.73,0,0,0,.08-.09l.21-.14.36.21c0-.17,0-.34,0-.51a4.18,4.18,0,0,0,1.4-2.31,4.09,4.09,0,0,0-1.6-4l-.26-.21c-.36.35-.4,1-1.31.86s-.2-.76-.49-1.19c0-.29.5-.26.55-.54a5.34,5.34,0,0,0-3.21-.82,4.11,4.11,0,0,0-2.66,1.31,5.64,5.64,0,0,0-1.35,2.69C125.11,31.9,125.6,32.32,126.78,33.36Z"/>
        <path d="M39.87,88.07a4.25,4.25,0,0,0-3.95.17A5,5,0,0,0,33,91.79a27.17,27.17,0,0,0,.62,6.91v0a28.51,28.51,0,0,0,4.39,8.45c-.11.08-.2.25-.33,0-.35,0-1-.11-1.09.59.06.14,0,.36.17.41.61.23,1-.43,1.37-.82a19.46,19.46,0,0,0,2.06,2.34l.78.73v-6.28c0-1.36.1-2.72.18-3.92.07-1,.13-1.83.13-2.53,0-.26,0-.68.06-1.19C41.63,93,41.73,89.14,39.87,88.07Zm-5.19,5.5c-.56-.24-.29-.66-.42-1,.05-.42.36-.51.55-.85.12.13.22.31.3.12.27.52.35.34.42,1C35.33,93.2,35.21,93.78,34.68,93.57Zm3.19,8a1.15,1.15,0,0,1-.39-.72,1.24,1.24,0,0,0,.11-.78c.51,0,.28-1,.84-1.07-.07,0,0,.17,0,.29A3.29,3.29,0,0,1,39.61,99v.28a.59.59,0,0,0,0,.66c.14,0,.29-.1.42.13C39.36,100.67,39,101.89,37.87,101.56Zm2,4.75c-.43-.24-.94-.57-1.06-1,.31-.24-.07-.53-.11-.79.25,0,.35.58.65.22a1.61,1.61,0,0,1,1.09,1.2C40.42,106.15,40.32,106.47,39.91,106.31Z"/>
        <path d="M49.9,115c.15,0,.29-.14.41,0,.45-.51.91-1,1.37-1.5,2.53-2.73,4.71-5.09,5-8,.35-3.64-1.47-5.63-3.29-6.27a5,5,0,0,0-5.84,2c-.08.11-.15.24-.23.36a.41.41,0,0,0-.39.36.26.26,0,0,0,0,.25c-2.29,4.18-3.49,11.1-3.49,16.16,0,4.54-.19,7.42-.27,8.44a.85.85,0,0,1,.24.09c.22.12.16.24.22.38l.43,0c.56-5.16,3.12-8.75,5.81-11.8A1.09,1.09,0,0,1,49.9,115Zm5.31-14.21c.19.27.27,1.2-.54,1.09a.83.83,0,0,1-.47-.85C54.48,100.73,54.94,100.45,55.21,100.74Zm-2.31-1.6c.16-.41.32.44.46.5a3.21,3.21,0,0,1-.08,1.58,1.07,1.07,0,0,1-.54-.92C52.62,99.65,52.66,99.24,52.9,99.14Zm-1.38,2.6c.2,0,.38-.26.51.19s-.14.47-.19.76A.92.92,0,0,1,51.52,101.74Zm-6.47,13.69c-.42-.17-.48-.4-.16-.56a3.14,3.14,0,0,1,1.44.07c.31.11.07.23.38.37A3,3,0,0,1,45.05,115.43Z"/>
        <path d="M143.67,92.92c-2,0-6.43,2.25-8.24,3.46s-1,3.63-.61,4.54L132,103.2a1.15,1.15,0,0,1,.06.94c-.14.37-.54.69-1.4.78a2.61,2.61,0,0,1-.71-.06l-.34.28.06-.36a2.42,2.42,0,0,1-.75-.48c-.24-.38.22-.67-.33-1,1.49.29.23-1,1.43-.56l.62-3.63h0c-.2-.32.18-.55-.27-.8a1.21,1.21,0,0,0,.41,0l0-.19a1.1,1.1,0,0,0,0,.18c.43-.12-.11-.76.69-.46l.22-.26a.27.27,0,0,0,.19.14.73.73,0,0,0-.16-.94c-.34-.27-.47,0-.65.17a1.69,1.69,0,0,0-.17.29l.29-1.64s.35-1.45,2.92-3.74c2.32-2.06,1-4.74,0-6.69a10.51,10.51,0,0,1-.78-1.76c-.24-.83-.8-.9-1-.89-1.55.06-3.69,4.06-4.17,6.45a11.16,11.16,0,0,0,0,4.26,3,3,0,0,1,.05,1.21,28.37,28.37,0,0,0-.51,4.26.49.49,0,0,1,.25-.16.6.6,0,0,1,.48.49.67.67,0,0,1-.76.51s0,0,0-.06c0,.81-.07,1.49-.07,1.86,0,.94-1,8.8-1.54,12.86,0,.21-.31,5.24-.31,6.47a1.17,1.17,0,0,0,.49,1,1.37,1.37,0,0,0,.75.2,2.6,2.6,0,0,0,.94-.19l.2-.08.06-.2c1.42-4.25,1.3-11.66,1.26-13.12l7.4-5.62a9.77,9.77,0,0,0,3-1.19l-.12.13a.6.6,0,0,0,.74.36.53.53,0,0,0,.17-.6.45.45,0,0,0-.47-.1,6.37,6.37,0,0,0,1.83-1.86c.2-.32.42-.67.65-1,1.62-2.54,2.58-4.14,2.1-5A1,1,0,0,0,143.67,92.92Zm-7.45,7.47a.63.63,0,0,1-.77-.45c.24-.31.63-.57,1-.22A.62.62,0,0,1,136.22,100.39Zm5.1-1.3c-.06-.16-.26-.23-.15-.45.14-.67.67-.59,1-.65-.17.18.1.33.07.5C142,98.94,141.67,99.13,141.32,99.09Z"/>
        <path d="M120.61,87.42a3.11,3.11,0,0,0-2.8-.93c-3.17.57-4.1,4.84-4.31,6.16a4.6,4.6,0,0,0-3.89,2.45c0,.1-.08.2-.12.3a1.43,1.43,0,0,1,.47.4c-.26.42.28.62.44.92-.27.14-.63-.56-.82,0a1.5,1.5,0,0,1-.42,0,4,4,0,0,0,.37,2.49c.59.88,3.32,4.44,3.67,4.89,1.18,2.6,2.55,5.3,3.79,7.64a.6.6,0,0,0,0,.2,2,2,0,0,0,.7,1.06l1.27,2.32a.8.8,0,0,0,0,.31c.17.22.29.58.51.61.68,1.21,1.11,2,1.12,2l.87,1.49v-1.72A127,127,0,0,1,123,101.12C123.83,95,122.91,89.63,120.61,87.42ZM115.07,93a1.54,1.54,0,0,1-1.38-.8c0-.22,0-.56.4-.54a2,2,0,0,1,1.29.61c-.21.33.23.49.35.74C115.51,93.13,115.23,92.57,115.07,93Zm3.82,7.19c.22-.24.4.17.62-.17l0,.12c.09.24.56,1.13,0,1.39-.39,0-.83.64-1.15-.07S118.74,100.73,118.89,100.2Zm.87,6a2.1,2.1,0,0,1-1.31-1.11c0-.25-.24-.54.21-.71.87-.24,1,.57,1.28.87l.08.06c-.16,0-.17.19-.36.21C120.15,105.72,119.32,106,119.76,106.19Zm2.37-9.36c-.19-.61.31-.59.43-1,.18-.18.32.14.5-.13l0,.09c.07.2.45.92,0,1.13C122.74,96.9,122.38,97.41,122.13,96.83Z"/>
        <path d="M127.1,51.5c.44,0,1.49,0,1.6-.69.05-.35.16-1-3.91-2.36l-1.1-.37a34.86,34.86,0,0,0-13.8-2.42c-7.25.35-11.77,2.16-12.4,5a4.3,4.3,0,0,0,.91,4.22c1,1,2.74,1.52,5.16,1.52a31.4,31.4,0,0,0,6.76-.89c.83-.19,2-.58,3.43-1l.36-.12a.47.47,0,0,0-.11.28c.21-.08.33.16.56-.17.14-.15.11-.21,0-.27,1.54-.5,3.22-1,4.93-1.46A29,29,0,0,1,127.1,51.5Zm-26.75.84c-.34.2-.81.31-1-.13a.57.57,0,0,1,.43-.54A.65.65,0,0,1,100.35,52.34Zm18.06-1.62c-1.19.1-.72-.56-1.32-.81-.16-.27.51-.38.21-.67l.13,0c.38,0,1.91-.36,1.88.25C119.05,49.94,119.58,50.53,118.41,50.72Z"/>
        <path d="M56.29,59.07a3.45,3.45,0,0,0-1.6-3,2.6,2.6,0,0,0-2.71.1c-3.14,1.89-5.89,7-6,7.24l-.15.28.21.24a3.5,3.5,0,0,0,2.67,1,9.65,9.65,0,0,0,4.66-1.47A5.12,5.12,0,0,0,56.29,59.07Z"/>
        <path d="M43.71,18.56c.11.22.29.34.85.34a10.83,10.83,0,0,0,1.49-.14,2,2,0,0,0,1.51-.87c.55-.9.11-2.15-.15-2.9l-.07-.21a1.91,1.91,0,0,0-1.89-1h0a2.43,2.43,0,0,0-2.37,1.66,2.93,2.93,0,0,0,.61,3.14Z"/>
        <g>
          <path d="M19.18,164.33c0,.26.05.53.07.82a3.15,3.15,0,0,1,.5.3.7.7,0,0,1,.14-.35c.1.19.59.46.42.74l-.23.09h0a.5.5,0,0,1,0,.12c-.22.21-.58,0-.74-.07.08,2,0,4.29,0,5.5a.64.64,0,0,0,.73.73c.78,0,1.21-.24,1.21-.81v-.29H32v0c0,.43.19.92.81.92s1.13-.19,1.13-1v-.42c-.16.08-.31.11-.41-.09s.13-.42.2-.63a.5.5,0,0,1,.2-.11v-.09l-.14,0c-.33-.06-.2-.07-.48-.18,0-.19-.15-.39.12-.51l0,.05c.15-.1.14-.05.37-.14l.07,0c0-.89,0-1.87,0-2.56.49-.19,1-.43,1-.78,0-.59-1.57-1.78-2.1-1.78-.3,0-.81.59-1.19,1.13H21.85a6.66,6.66,0,0,0-2.27-1C19.34,164,19.15,164.12,19.18,164.33Zm2.05,1.7H32v1.43H21.2C21.2,166.92,21.2,166.35,21.23,166ZM28,168c-.2,0-.16.68-.5.21.16-.12,0-.59.31-.56C27.89,167.78,28,167.88,28,168Zm3.94.51L32,170H27.22c0,.15.3.13.38.24a.67.67,0,0,1-.46.76c-.15-.06-.38,0-.42-.19-.28-.45.2-.64.47-.81h-6l0-1.48Z"/>
          <path d="M19.25,165.18a.66.66,0,0,1,0,.14A.14.14,0,0,0,19.25,165.18Z"/>
          <path d="M36.77,171c-.35,0-1,.79-1.45,1.51H15.17c-.35,0-.6.14-.6.54s.25.54.6.54h0a.21.21,0,0,1,0-.06c.07-.09,0-.26.21-.16s.12.13.11.22H37.69c1,0,1.35-.19,1.35-.54C39,172.47,37.26,171,36.77,171Z"/>
          <path d="M36.75,184.57c-.35,0-1,.75-1.43,1.45H27.53V184.3h7.95c.94,0,1.29-.16,1.27-.51,0-.57-1.65-1.94-2.1-1.94-.2,0-.47.24-.76.58H34l-.14,0a9.14,9.14,0,0,0-.56.75H27.53V181.6h4.64a.77.77,0,0,0,.47.6c.11-.28.37-.55.55-.56a.88.88,0,0,1,.74.2,1.29,1.29,0,0,0,.12-.61c0-.73,0-3.45,0-4.77l.27-.14c0-.15-.08-.3-.29-.38l.57.19a.49.49,0,0,0,.21-.37c0-.57-1.46-1.67-2-1.67-.24,0-.65.43-1,.88h-9c.06.15.09.32.14.49-.15.08-.35.29-.57,0a.64.64,0,0,1-.28-.52h-.57a6.33,6.33,0,0,0-2.05-.83.33.33,0,0,0-.4.35c.24,2.24.11,5.9.11,7.54a.65.65,0,0,0,.7.73c.78,0,1.21-.27,1.21-.83v-.33h4.55v1.62H17.38c-.36,0-.6.13-.6.54s.24.54.6.54h1.19a.23.23,0,0,1,.16-.27l.05.05c.15-.1.14-.05.37-.14a.93.93,0,0,1,.48.36h6.12v0c.64,0,.66.3,1,.48,0,.22-.16.51-.62.59a1.9,1.9,0,0,1-.42,0V186H15.17c-.35,0-.6.14-.6.54s.25.54.6.54H37.64c1,0,1.32-.19,1.29-.54C38.93,186,37.2,184.57,36.75,184.57Zm-4-3.54c.12-.21-.43-.46,0-.66.12,0,.36,0,.5.15C33.07,180.69,33.58,181.17,32.8,181Zm-.36-5.77c.62-.08.6.26.89.44a.58.58,0,0,1-.43.57c-.4,0-.6-.11-.67-.28S32.1,175.43,32.44,175.26Zm-4.91,1.28c.33-.11.49-.27.54-.49h4.12v1.7h-.52a.26.26,0,0,0-.12.14.91.91,0,0,1-.66-.14H27.53Zm0,2.29h4.64l0,1.7H27.53Zm-1.78,1.7H21.2l0-1.7h4.58Zm0-2.78H21.17c0-.59,0-1.27,0-1.59a2.55,2.55,0,0,0,.51-.11h4Z"/>
          <path d="M61.16,185.54a.9.9,0,0,0-.61.36c.13,0,.26,0,.39,0,.32,0,.21.44.6.43l-.09,0,0,.24c5.91-.36,10.05-2.76,10.05-7.93,0-4-1.86-8-5.36-8a3.64,3.64,0,0,0-1.64.37c.27-.83,1.21-2.12,1.21-3.26a3.75,3.75,0,0,0-2.34-3.26c-.87-.45-1.19.06-.76.71a4.27,4.27,0,0,1,1,2.72c0,1.45-1.37,4.44-2.21,6.7a10.62,10.62,0,0,0-.83,3.53c0,1,.4,1.84,1.16,1.84s.94-.52,1-1.4c0-.37.08-.77.14-1.2-.21,0-.25.18-.41.21-.53-.06-.84-.22-.94-.49.12-.09.11-.26.36-.25a.89.89,0,0,1,1,.51,23,23,0,0,1,.85-3.77,2.5,2.5,0,0,1,1-1.32c-.22-.11-.55-.23-.51-.5l.19-.17a.5.5,0,0,1,.47.59A2.41,2.41,0,0,1,66,172c2.27,0,3.51,3.15,3.45,6.17C69.35,182.76,66.52,184.38,61.16,185.54ZM64,170.13c-.25.11-.64.21-.78,0a.56.56,0,0,1,.21-.65c0-.09-.06-.17.08-.17s.19.09.27.18h0A.57.57,0,0,1,64,170.13Zm5.27,12.69.42-.31a.82.82,0,0,1,.17.65c-.12.12-.17.3-.4.35C69.08,183.4,69.27,183,69.3,182.82Z"/>
          <path d="M102.41,178.64c1-.27,1.11-.51,1.11-.89,0-.57-1.83-.81-2.75-.81-.38,0-.46.11-.43.46.22,3.25-.51,5.4-2.11,6.93a.48.48,0,0,0,.38.11l-.13,0,.1.56c-.06-.06-.27-.06-.18-.17l-.24,0c0,.1.15.09.2.15a2.28,2.28,0,0,1-1,0,14.93,14.93,0,0,1-4.59,2s0,0,0,0h0c.22,0,1.12-.22,1.11.14-.16.24.16.59-.54.7s-.42-.32-.78-.48c-.08-.14.23-.21.15-.35-.7.24-.53,1.05.25.92l.77-.16a.48.48,0,0,0,.1-.17c.13-.14.23.1.36-.1l0,.07a.51.51,0,0,1,0,.1C99.55,186.51,102.31,183.82,102.41,178.64Z"/>
          <path d="M112,178.94l-.08,0a.58.58,0,0,0,.78,0,26.75,26.75,0,0,0,2.51-2.13c.75-.24,1.4-.37,1.4-.86,0-.83-1.73-2.29-2.18-2.29-.3,0-.87.54-1.32,1.05h-3c0,.14.07.3.24.3l-.07,0a3.58,3.58,0,0,1-.3.74h3.2a17.26,17.26,0,0,1-1.32,2.53.56.56,0,0,0-.08.44c.17,0,.34-.15.43,0S112.09,178.91,112,178.94Z"/>
          <path d="M109.49,175.73a2.83,2.83,0,0,0-.25-.24c0,.08,0,.16,0,.24Z"/>
          <path d="M92.23,178.64a1,1,0,0,0,1.08,1.08c1.4,0,2.39-1.43,2.5-3.24a6.26,6.26,0,0,0,0-.75h12.52c0-.14,0-.3-.1-.44,0-.31.41-.27.35-.64h-4a.8.8,0,0,1,0,.15c-.11.06-.14.21-.31.15a.5.5,0,0,1-.47-.3h-8.2a7.91,7.91,0,0,0-.3-1c-.24-.59-1-.48-1,.14a5.35,5.35,0,0,1-.26,2.18C93.47,177.43,92.23,177.51,92.23,178.64Z"/>
          <polygon points="108.88 174.65 108.58 174.65 108.62 174.72 108.88 174.65"/>
          <path d="M93.12,167.51c0,.43.24.54.59.54h1.16c.17-.08.51-.05.4-.31a1.47,1.47,0,0,1,.15.31h4c0-.18.15-.28.44-.37a.73.73,0,0,1,.62.37h2.82c0,1,0,2.08,0,3H96.51c-.35,0-.59.14-.59.54s.24.54.59.54H107.4l0-.06.08,0c.19,0,.9-.17,1.07,0h3.58c1,0,1.48-.24,1.48-.62s-1.14-1.55-1.91-2a1.28,1.28,0,0,1-.2.75c-.08,0-.12.1-.22.07a.51.51,0,0,1-.32-.5l.22-.55h0c-.41,0-1.16,1-1.73,1.8h-4.15v-3H114c1,0,1.51-.24,1.51-.62,0-.67-2-2.32-2.54-2.32s-1.18,1-1.77,1.86h-6v-1.4c.84-.19,1.43-.4,1.43-1s-2.66-.79-3.12-.79c-.25,0-.41.14-.38.38.08.62.13,1.64.16,2.8H93.71C93.36,167,93.12,167.11,93.12,167.51Z"/>
          <path d="M111.3,169.26l-.06,0a.08.08,0,0,0,0,0Z"/>
          <path d="M116.32,183c0-.67-.71-.73-.87-.13a15.3,15.3,0,0,1-.72,2c-.38.73-1.24,1-3.88,1-2.91,0-3-.22-3-1.27,0-1.34,0-4.25.08-6.19.73-.14,1.1-.33,1.1-.7,0-.6-1.91-.79-2.69-.79-.38,0-.49.11-.46.49s0,.57,0,.87a.53.53,0,0,1,.21.11.47.47,0,0,1-.18.57c.06,2.37,0,5.23,0,5.91,0,2.35.51,2.75,5,2.75s5.85-.86,5.85-1.51C116.75,185.29,116.23,185.78,116.32,183Z"/>
          <path d="M138.17,178.15c0,1,.4,1.84,1.16,1.84s.94-.52,1-1.4a25.07,25.07,0,0,1,1-5,2.24,2.24,0,0,1,2.23-1.64c2.27,0,3.51,3.15,3.45,6.17-.08,4.63-2.91,6.25-8.27,7.41-1,.21-.89,1.1.14,1.05a17.93,17.93,0,0,0,4.78-.86.51.51,0,0,0-.18-.08c-.14-.17.43-.24.18-.42l.11,0a8,8,0,0,1,1.2-.06,6.86,6.86,0,0,0,4.14-6.56c0-4-1.85-8-5.36-8a3.67,3.67,0,0,0-1.64.37c.27-.83,1.21-2.12,1.21-3.26a3.75,3.75,0,0,0-2.34-3.26c-.86-.45-1.19.06-.76.71a4.22,4.22,0,0,1,1,2.72c0,1.45-1.37,4.44-2.21,6.7A10.62,10.62,0,0,0,138.17,178.15Z"/>
          <path d="M33.3,208.25c-.46,0-1.08.32-1.91.46-3.32.54-9.84,1.56-11.35,1.56a5.53,5.53,0,0,1-2.53-.86c-.43-.24-.89-.08-.78.43a3.8,3.8,0,0,0,3,2.75,10.54,10.54,0,0,0,2.22-.57.24.24,0,0,1,.09-.08l.25,0,.38-.1a72.42,72.42,0,0,1,9.8-1.81c.65,0,.78.14.41.7a16.33,16.33,0,0,1-2.21,2.61,1.63,1.63,0,0,1,0,.76c-.09.23-.25.08-.36.33a1.32,1.32,0,0,1-.29-.49c-.52.48-1.09,1-1.71,1.43a10.75,10.75,0,0,0-1.62-.92s0,0,0,0a.35.35,0,0,1-.11-.1c-.44-.21-.92-.42-1.44-.61-.78-.3-1.13.29-.61.78a31.83,31.83,0,0,1,2.82,2.85c1.49,1.75,1.67,2.94,2.56,2.94A1,1,0,0,0,31,219.16a3.93,3.93,0,0,0-1.43-2.91,46.69,46.69,0,0,0,4.8-3.74c.89-.81,2.18-1,2.18-1.84S34.67,208.25,33.3,208.25Zm-4,8.8a1,1,0,0,1-.67.14c-.26-.14-.26-.19-.06-.33C28.83,216.92,29.34,216.82,29.26,217.05Zm2.43-3a.5.5,0,0,1-.21-.43c.1-.19.15-.21.31-.09C31.76,213.73,31.91,214.05,31.69,214Zm3-4.23c0-.11-.11-.24.16-.27s.26.12.43.19A.54.54,0,0,1,34.72,209.81Z"/>
          <path d="M76.54,212.24a32.67,32.67,0,0,1-3.29,2.26.69.69,0,0,1,.24.8c-.07.22-.31.4-.81.45a1.26,1.26,0,0,1-1-.35,23.2,23.2,0,0,1-3.34,1.53c-.68.24-1,0-.84-.81.19-1.19.65-4.91.68-5.85,0-.7.18-1.45.18-2,0-.73-1.48-1.78-3.12-1.78-.49,0-1.35.32-1.35.75,0,.17.16.31.54.53a2.45,2.45,0,0,1,.92-.08c.25.37.39-.22.68.06a6.45,6.45,0,0,0-.69.51c.57.36.74.78.84,1.73a20,20,0,0,1,0,2.91h0V213c.07.17.3.64,0,.79H66.1a17.75,17.75,0,0,1-.23,1.81,16.09,16.09,0,0,0-.45,2.07c0,.78.91,2.18,1.67,2.18s1.24-.7,2-1a28.09,28.09,0,0,0,8.28-5.69C78.11,212.29,77.38,211.56,76.54,212.24Z"/>
          <path d="M61.94,212.83a.71.71,0,0,1-.59-.86c.13-.47.55-.74.9-1.05v.39c.1.07.25,0,.34,0l0-.08A3.77,3.77,0,0,0,60,210l-.28,0a1.49,1.49,0,0,1,.93.44c-.15.25.16.36.25.54-.16.08-.36-.33-.48,0a1.13,1.13,0,0,1-1-.58c0-.12,0-.3.12-.37-.49.1-1,.33-1,.57s.62.57,1.16.89c.73.46,1,.6,1,1.27.08,2.91-3.26,6-6.84,7.84-.73.38-.35,1.13.38.94,4.52-1.16,8.78-5.36,8.78-9.35a1.62,1.62,0,0,0-.38-1C62.43,211.76,62.69,212.49,61.94,212.83ZM61,216.25c-.25-.08-.51,0-.7-.16-.09-.36.7-.42.94-.12C61.18,216.07,61.19,216.18,61,216.25Z"/>
          <path d="M100.1,206a23.81,23.81,0,0,1,2.88,2.69c.86,1,1.48,1.16,2,.84s.75-1.48-.06-2.37a7.66,7.66,0,0,0-4.39-2C99.91,205.12,99.61,205.66,100.1,206Z"/>
          <path d="M113.27,209.25c-2.88,3.61-7.65,8-12.5,10.15a2.15,2.15,0,0,1-2,0c-.38-.19-1.08-.62-1.46-.84s-.67,0-.65.49a3.77,3.77,0,0,0,3.26,3,6.11,6.11,0,0,0,2.35-1c4.69-2.67,9.59-7.14,12-11.13A.58.58,0,0,0,113.27,209.25Z"/>
          <path d="M99.4,213.29c.78.83,1.4,1.08,2,.65s.54-1.49-.27-2.3a7.48,7.48,0,0,0-4.42-2c-.56-.08-.8.46-.43.78C97.51,211.54,98.75,212.59,99.4,213.29Z"/>
          <path d="M149.35,217.44c-.57,0-1.54.08-3.56.27-.54,0-1.24.13-2,.24l0-.11a12,12,0,0,0,.81-2.56,1.39,1.39,0,0,0-.35-1.34,2.32,2.32,0,0,0-.59-.46c1.8-.27,3.53-.6,4.12-.73s1-.46,1-.92-.87-1-1.86-1c-.68,0-1.62.52-2.81.78a28.31,28.31,0,0,1-4.39.57,5.62,5.62,0,0,1-2.05-.43c-.45-.16-.78.13-.64.65a2.37,2.37,0,0,0,2.37,1.48,24.09,24.09,0,0,0,2.45-.19,2.32,2.32,0,0,1,.62,1.56,16.26,16.26,0,0,1-.35,2.64.61.61,0,0,0,0,.22c-2.18.29-4.39.59-4.87.59a6.49,6.49,0,0,1-1.67-.3c-.57-.18-.87.11-.68.7a2.18,2.18,0,0,0,1.94,1.59,8.29,8.29,0,0,0,2.13-.43,33,33,0,0,1,7.09-1,42.93,42.93,0,0,1,4.74.33.77.77,0,0,0,.83-.84C151.69,218.08,150.54,217.44,149.35,217.44Z"/>
        </g>
        <path d="M26.25,99.68c.74.1.66-.73.49-1s-.64,0-.89.19l-2.08-5.37,2.52-4.19.11.06c.39.15.47-.27.62-.54,0-.32-.07-.37-.16-.48l3.65-6.07,2.68-3.88c1-.42,6.59-3,7.21-5.8l.09-.43a.15.15,0,0,1,0-.07c0-.27.1-.54.14-.82-.13,0-.13-.09-.4-.19,0-.26-.21-.53.16-.69l.08.07a.55.55,0,0,1,.28-.12c.15-1.37.22-2.77.24-3.91a.74.74,0,0,1-.86-.34A1.7,1.7,0,0,1,41,64.63v-.09a6.36,6.36,0,0,1,.07-.79c.11-1,.22-2.06-.47-2.45s-1.51.2-2.19.72l-.4.32c-1.2.93-2.31,1.8-3.32,2.69a.22.22,0,0,0-.13.12,16.74,16.74,0,0,0-2.82,3.16.86.86,0,0,0-.62-.08,1.19,1.19,0,0,0-.76,1.12.57.57,0,0,0,.74.22,11,11,0,0,0-.37,4.07,1.56,1.56,0,0,0,.34.34.8.8,0,0,1-.27.61l0,.44a7.6,7.6,0,0,1,.06,1.64c-.22.63-4.75,8.23-8.23,14L22,88.86c.82.11.25-.45.55-.64-.16-.14-.46-.13-.62-.18a.37.37,0,0,0-.19.14l-.61-1.56,7.32-23.11a1.05,1.05,0,0,0,.69.1.38.38,0,0,1,.45-.23l0-.22c.72-.15-.47-.36.28-.67-.38,0-.35-.25-.64-.35l-.29,0L31,55.51a.54.54,0,0,1,.15-.47l.62-2,.18-.06a13.71,13.71,0,0,0,4.62,1c.39,0,.76,0,1.12,0,7.63,0,9.47-6.15,9.49-6.21l.09-.31-1.48-1.11a6.4,6.4,0,0,0-3.19-1,.33.33,0,0,1,0,.32l-.33.12h0a.45.45,0,0,1,0,.16c-.32.31-.87,0-1.05-.13s-.19-.41-.1-.61l-.62-.05-1.64-.14a11.32,11.32,0,0,0-1.54,0A49,49,0,0,0,37,34.1l-.12-.86-.65.57c-.32.28-7.83,6.93-7.83,10.78A72.89,72.89,0,0,0,29,52.68L24.4,66.36,17.84,52c2.65-2.79,2.5-7.54,1.67-9.76-.67-1.78-3.23-6.39-5.39-7.84a1.14,1.14,0,0,0-.43-.76c-.12.12-.54-.21-.51.21l0,.13-.21,0c-2.15,0-2.3,4.55-2.31,5.62C9.29,44.85,10.34,51,12.94,53a2.84,2.84,0,0,0,1.8.67,2.91,2.91,0,0,0,.4,0l7,19.43-1.2,3.57-1.16-1.92c-6.9-10.35-14.93-6.65-15-6.61l-.29.14,0,.32a11,11,0,0,0,3.22,6.75l.11.1c2.71,2.41,3.13,2.78,6,2.78,2,0,5,.16,6.46.25L19.46,81a.91.91,0,0,1,.34.42c0,.24-.3.27-.57.24l-.95,2.83L23.64,100l-.5-.71-.07-.08c-5.69-5.17-13.13-2.83-15.28-1-.72.63-.6,1.07-.45,1.29s.15.26.24.42c.6,1.06,1.72,3,6.09,5l.06,0c.1-.34.19-.71.56-.74-.09.06,0,.22.05.37a3.9,3.9,0,0,1,1.41-.35l0,.34a.73.73,0,0,0,0,.83c.16.06.35-.12.52.16a.93.93,0,0,0-.14.14,12.07,12.07,0,0,0,2.32.23,11.94,11.94,0,0,0,4.71-1l2.28.23,6.89,19.92,3-1.7L26.13,99.62ZM32.15,41c.08.16.29.33.32.6-.34,0-.27,1.13-.84.35C31.89,41.75,31.61,41,32.15,41Zm-8.7,61a1.6,1.6,0,0,1-1,.89c-1.58-.1-1.25-1.09-1.86-1.61l.14.07c.67-.1.46-.52.69-.76a2.7,2.7,0,0,0,1.18.15C23.09,101,23.85,101.54,23.45,102Zm9.28,20c.28.08.75,0,.68.26a.72.72,0,0,1-.63.17C32.54,122.25,32.53,122.19,32.73,122Z"/>
        <path d="M29.24,20.17c1.41.14,1.07-2,1.72-2.58l-.38.15c-.37.57-1.34.32-1.59,1.19C29,19.33,28.61,19.87,29.24,20.17Z"/>
        <path d="M18.68,111.59a3,3,0,0,0-1.3-.07c-.3.15-.24.36.14.51a2.7,2.7,0,0,0,1.5-.11C18.74,111.8,19,111.69,18.68,111.59Z"/>
        <path d="M19.9,90c.06-.28-.36-.16-.62-.23-.18.17-.17.22,0,.39A.63.63,0,0,0,19.9,90Z"/>
        <path d="M18.2,129.32l-.1,0c.52.2.79.83,1.59.63a.66.66,0,0,0,.1-.69c0-.34-.6-.52-1-.58a1.1,1.1,0,0,1-.62.1C18.2,128.94,18.48,129.15,18.2,129.32Z"/>
        <path d="M24.17,51.71c.42.57.36-.22.62-.26,0-.19-.18-.31-.24-.43C24.15,51,24.36,51.56,24.17,51.71Z"/>
        <path d="M16.06,122.32a2,2,0,0,0-1.3-.09c-.3.24-.25.56.13.8a1.86,1.86,0,0,0,1.51-.2C16.12,122.65,16.34,122.48,16.06,122.32Z"/>
        <path d="M21.65,122.05c-.21-.13-.81-.2-.77.08s.41.15.63.26C21.68,122.3,21.72,122.16,21.65,122.05Z"/>
        <path d="M45.87,64.84c.08-.31-.28-.54-.57-.75a.6.6,0,0,0-.75.08c-.14.23.05.52.26.71C45.19,64.91,45.51,65.21,45.87,64.84Z"/>
        <path d="M46.71,42.27a.69.69,0,0,0,.53-.7c-.36-.23-.34-.65-1.11-.56-.42.21-.31.59-.26.92S46.21,42.31,46.71,42.27Z"/>
        <path d="M45.31,94.88c-.2-.15-.25-.13-.37.11a.64.64,0,0,0,.25.54C45.47,95.54,45.28,95.14,45.31,94.88Z"/>
        <path d="M50.13,72.53c.18.3.66.18,1,0a.7.7,0,0,0-.23-.83C50.16,71.45,50,72.25,50.13,72.53Z"/>
        <path d="M44.93,100.27c-.18.06-.07.43-.14.66.12.16.26.17.35.09S45.2,100.18,44.93,100.27Z"/>
        <path d="M43.91,95.56a1.91,1.91,0,0,0-.14-1.3c-.28-.26-.59-.15-.75.27A1.81,1.81,0,0,0,43.47,96C43.6,95.67,43.81,95.86,43.91,95.56Z"/>
        <path d="M45,58c0-.19-.18-.32-.24-.43-.39,0-.18.53-.38.69C44.78,58.84,44.73,58.05,45,58Z"/>
        <path d="M42.09,76.61a5.34,5.34,0,0,0,.57-.6c-.18.17-.28,0-.42-.06s-.36-.28-.61-.07-.53.56-.32.9a.27.27,0,0,0,.14.07l0,0,0,.31c.29.28.74-.24,1-.32A.9.9,0,0,0,42.09,76.61Z"/>
        <path d="M43.75,109.92c-.18,0-.08.43-.14.66.11.16.26.17.35.08S44,109.83,43.75,109.92Z"/>
        <path d="M36.89,122.83h.46c.56-.29.11-.83.16-1.12C36.94,122,36.46,122.4,36.89,122.83Z"/>
        <path d="M41.83,104.17a1.85,1.85,0,0,0,.46,1.45c.13-.3.33-.12.44-.41a1.9,1.9,0,0,0-.14-1.3C42.31,103.65,42,103.76,41.83,104.17Z"/>
        <path d="M17.46,96.21a1.17,1.17,0,0,0,.74-.65c.29-.35-.26-.73-.63-.92a1.93,1.93,0,0,1-.86-.11c-.18.17,0,.48-.51.55l-.11,0C16.54,95.41,16.3,96.13,17.46,96.21Z"/>
        <path d="M17.6,62.85c.32-.36.07-1.31-.35-1.12-.2.27,0,.56,0,.89C17.34,62.83,17.47,62.79,17.6,62.85Z"/>
        <path d="M21.94,35.89c0,.13-.15.22-.07.35s.22.29.33.2S22.16,35.87,21.94,35.89Z"/>
        <path d="M22.13,33.45c.16,0,.21-.1.3-.16a.34.34,0,0,0,0-.14,3,3,0,0,0,1.39,1.44l.09,0c.64.11,1.21.19,1.74.23a1.55,1.55,0,0,0,0,.52c.08.22.34.38.84.34a.69.69,0,0,0,.53-.7,1,1,0,0,1-.15-.13,3.58,3.58,0,0,0,2.18-.71,3.21,3.21,0,0,0,.85-2.73,4.61,4.61,0,0,1,0-.87,2.8,2.8,0,0,0-.7-2.31,4.56,4.56,0,0,0-3.44-1.63c-2.37,0-3.84,1.71-3.84,4.46,0,.25,0,.47,0,.69a.65.65,0,0,1,0-.21c.28-.94,1.22-.94,1.75-1.55l.16.14c-.54.75-.2,2.51-1.33,2.74a.82.82,0,0,1-.5-.45,4.29,4.29,0,0,0,.16.47c-.16-.23-.45-.32-.55,0S22,33.22,22.13,33.45Z"/>
        <path d="M14.84,80.62c.18.07.66.18.69-.1-.15-.43-.88-.61-1.42-.78C14.58,79.91,14.29,80.42,14.84,80.62Z"/>
        <path d="M0,113.5v.77c.41,0,0-.49.28-.66A.63.63,0,0,0,0,113.5Z"/>
        <path d="M24.93,39.1c-.07-.16.08-.35-.17-.44s-.17.09-.25.2S24.79,39.19,24.93,39.1Z"/>
        <path d="M28.59,40c.11,0,.35.24.35,0s-.07-.26-.2-.34S28.46,39.82,28.59,40Z"/>
        <path d="M34,28c.06-.08,0-.13-.08-.19-.2-.13-.5.09-.38.23A.73.73,0,0,0,34,28Z"/>
        <path d="M2,91.11c.41.57.36-.22.62-.25,0-.2-.18-.32-.24-.44C2,90.38,2.16,91,2,91.11Z"/>
        <path d="M8.75,33.42c-.05-.14-.07-.26-.21-.33s-.28.17-.14.35C8.51,33.43,8.74,33.68,8.75,33.42Z"/>
        <path d="M7.1,124.58c.23.24.55.09.87.19.23-.09.21-.23.29-.34C8,124.05,7,124.13,7.1,124.58Z"/>
        <path d="M15.93,21.71a3.61,3.61,0,0,0,1.35,0,2.34,2.34,0,0,1,1.06-.41c-.4-.39,1.32-.66,1-1.11,0,.08-.27,0-.46.1-.1-.31-.09-.71-.43-1L18,19.4a1.29,1.29,0,0,1-1,.3c-.17-.09-.07-.27-.49-.27C16.14,20.18,14.6,21,15.93,21.71Z"/>
        <path d="M13.93,108.28c.16.24.12.46.39.63s.45.35.81.08,0-.53-.21-.78c-.46-.17-.37-.06-.81-.07C14.21,108.25,14.06,108.26,13.93,108.28Z"/>
        <path d="M13.55,116.27c-.14.25-.37.31-.4.62s-.11.55.31.73.47-.28.62-.54c-.06-.48-.11-.34-.31-.72C13.71,116.5,13.63,116.37,13.55,116.27Z"/>
        <path d="M13.23,85.38c-.17-.13-.47-.12-.63-.17-.55.24.14.55,0,.81C13.54,86.18,12.92,85.59,13.23,85.38Z"/>
        <path d="M6.33,118c-.17.17-.16.23,0,.39a.65.65,0,0,0,.57-.15C7,118,6.59,118.07,6.33,118Z"/>
        <path d="M4.74,32.54c-.08-.16.07-.35-.17-.44s-.18.1-.26.21C4.38,32.5,4.59,32.63,4.74,32.54Z"/>
        <path d="M15.68,127.32c-.21-.08-.14-.33-.52-.23s-.18.2-.21.34A.69.69,0,0,0,15.68,127.32Z"/>
        <path d="M4.79,57.87c0,.22.23.16.36.24a.85.85,0,0,0,.39-.9c-.07-.14-.35-.1-.32-.32C5,57.11,4.54,57.32,4.79,57.87Z"/>
        <path d="M4.45,74h0a1.65,1.65,0,0,1-.79-.1c-.3.21-.21.55-.16.85s.33.39.84.35a.7.7,0,0,0,.53-.71C4.67,74.3,4.59,74.14,4.45,74Z"/>
        <path d="M17.5,28.83c-.16.27.14.58.38.86a.7.7,0,0,0,.77.13c.2-.18.08-.51-.08-.74C18.19,29,18,28.58,17.5,28.83Z"/>
        <path d="M79.08,21.93c.12,0,.08-.17.17-.22-.1-.39-.1-.92-.73-1.13l-.15.3c-.08,0-.12-.09-.18-.07l.19.8A.71.71,0,0,0,79.08,21.93Z"/>
        <path d="M67.55,50.51c.23-.16,0-.43-.34-.44l-.17.16C66.9,50.46,67.31,50.58,67.55,50.51Z"/>
        <path d="M65.36,73.45c-.29.06-.61-.07-.86.24s-.07.59,0,.85c.53.09.83.31,1.38.16,0-.07-.22-.06-.18-.18l.21,0c-.08.13.1.14.15.2L66,74l.1,0C65.61,74,65.75,73.48,65.36,73.45Z"/>
        <path d="M65.43,42.08c.21.05.23-.12.38-.15-.13-.39-.23-.16-.56-.41C65.12,41.6,65,41.94,65.43,42.08Z"/>
        <path d="M66.78,54.65c.2.4.62.3.93.12a.59.59,0,0,0-.55-.61A.53.53,0,0,0,66.78,54.65Z"/>
        <path d="M92.38,65.55c.17,0,.28-.11.28-.25s-.32,0-.53,0C92.11,65.43,92.14,65.47,92.38,65.55Z"/>
        <path d="M92.49,97.63a.6.6,0,0,0,.69-.45.53.53,0,0,0-.44-.45C92.32,96.87,92.36,97.3,92.49,97.63Z"/>
        <path d="M95.19,97.22a1.63,1.63,0,0,0,1.28.45c.62-.07.92-.29,1-.56A.91.91,0,0,0,96.9,96c-.21.12-.64.06-.7-.09l-.2.23c-.88-.33,0,.62-1,.41C95.35,96.73,95,96.94,95.19,97.22Z"/>
        <path d="M84.33,102c-.41.16-.23.42-.19.65a1.9,1.9,0,0,0,1.19,1c-.4-.2.36-.43-.09-.63.17,0,.18-.19.32-.18l-.07-.06C85.26,102.51,85.12,101.78,84.33,102Z"/>
        <path d="M88.32,95.21c.39-.19,0-.84,0-1l0-.09c-.16.25-.29,0-.45.13-.1.38-.57.37-.39.92S88,95.21,88.32,95.21Z"/>
        <path d="M71.64,77.69A.66.66,0,0,0,71,78c0,.12.07.19.05.29.34.2.73.58,1.28.24l-.12-.33c.07,0,.14,0,.17-.09Z"/>
        <path d="M71.63,68.29a3,3,0,0,0,.07-1.44c-.13,0-.27-.82-.42-.45-.22.09-.25.47-.14,1A1,1,0,0,0,71.63,68.29Z"/>
        <path d="M110.71,114.89a.58.58,0,0,0-.64-.1c-.27.36,0,.68.32.85A.57.57,0,0,0,110.71,114.89Z"/>
        <path d="M112.34,107.1l-.1,0c.22.21-.27.29-.15.49.44.19.1.67,1,.59s.47-.57.67-.86C113.74,106.83,112.62,107.07,112.34,107.1Z"/>
        <path d="M109.32,72.75c.12,0,.18-.1.28-.09.14-.36.46-.8.05-1.3l-.31.16c0-.06,0-.13-.11-.15l-.31.75A.67.67,0,0,0,109.32,72.75Z"/>
        <path d="M110,83.15c0,.17,0,.21.25.28s.28-.1.29-.24S110.16,83.15,110,83.15Z"/>
        <path d="M109.31,116.75c-.27.32-.36-.23-.58-.21,0,.24.37.51.09.72.11.38.57.69,1,.9s.46-.14.51-.33A1.44,1.44,0,0,0,109.31,116.75Z"/>
        <path d="M110.63,89.89c.2,0,.59.17.72,0s.08-.2-.09-.26a.75.75,0,0,0-.61,0C110.74,89.82,110.43,89.65,110.63,89.89Z"/>
        <path d="M57.6,88.22c0,.26-.27.72.24.86.27-.07.33-.3.49-.44a1,1,0,0,0-.21-.8Z"/>
        <path d="M57.23,47.78c.18.07.67.18.7-.11-.15-.43-.88-.61-1.43-.78C57,47.07,56.68,47.58,57.23,47.78Z"/>
        <path d="M104.76,96.79c-.1.21.08.27.14.41.31,0,.59-.14.83-.54,0-.16-.21-.29-.06-.45C105.37,96.26,104.89,96.18,104.76,96.79Z"/>
        <path d="M62.59,90.54a.77.77,0,0,0-.29.32c-.2.18,0,.41,0,.64.31.31.64.3,1,0,.09-.18-.09-.55.12-.64a3.59,3.59,0,0,0-.55-.31A.37.37,0,0,0,62.59,90.54Z"/>
        <path d="M108.22,109.73c-.15,0-.25.25-.43.12.09.3.08.78.71.82.21.07.24-.12.38-.19C108.87,110.16,108.66,109.91,108.22,109.73Z"/>
        <path d="M99.1,91.94c.33-.24.61-.47.42-.77-.62-.44-1.48.21-1.58.48S98.6,92,99.1,91.94Z"/>
        <path d="M100.78,78.52c.22.07.25-.12.38-.19,0-.32-.22-.57-.65-.75-.16,0-.25.25-.44.13C100.17,78,100.16,78.48,100.78,78.52Z"/>
        <path d="M101.55,102.41l.11-.21c0-.28-.36-.26-.55-.11S101.28,102.5,101.55,102.41Z"/>
        <path d="M101.2,109.78c.94-.41.68-1.21.46-1.76v.09c-.25,0,0-.19-.22-.19.08.44-.74.74-.66,1.22C100.78,109.4,100.68,109.73,101.2,109.78Z"/>
        <path d="M102.68,83.5a.59.59,0,0,0,.32-.75.55.55,0,0,0-.64-.1C102.09,83,102.37,83.32,102.68,83.5Z"/>
        <path d="M137.49,30l.16-.15c.5.54.08-.58.73-.1-.21-.32,0-.42,0-.73a1.22,1.22,0,0,0-.72-.76c-.4-.11-.62,0-.73.25a1.15,1.15,0,0,0,.16,1.22A.39.39,0,0,1,137.49,30Z"/>
        <path d="M113.91,39.8c-.17.21-.53.19-.47.63s.47.28.78.27c.38-.29.23-.27.46-.63-.15,0-.08-.11,0-.24C114.36,39.84,114.19,39.68,113.91,39.8Z"/>
        <path d="M104.47,45.5c.29.68,1,.2,1.1-.08s-.33-.58-.65-.68A.75.75,0,0,0,104.47,45.5Z"/>
        <path d="M138.31,35.27a.83.83,0,0,0-.1,1c.11.11.37,0,.4.2.15-.28.51-.62.11-1.06C138.62,35.19,138.45,35.31,138.31,35.27Z"/>
        <path d="M145.38,19.91c.16-.12.18-.32.26-.43-.17-.36-.56.11-.79,0C144.56,20.15,145.22,19.71,145.38,19.91Z"/>
        <path d="M139.09,54.63l-.3-.1c-.39.15-.16.77-.23,1C139,55.44,139.32,55.14,139.09,54.63Z"/>
        <path d="M112.5,36.5c0-.22-.13-.47-.16-.63-.49-.36-.42.39-.72.39C112,37.17,112.16,36.33,112.5,36.5Z"/>
        <path d="M144.46,44.87c.27-.09.31-.42.34-.74a.85.85,0,0,1-.57-.71.77.77,0,0,0-.35.55C144.06,44.31,144,44.74,144.46,44.87Z"/>
        <path d="M113.85,65.51c-.06-.29.07-.48-.1-.73s-.27-.49-.7-.36-.19.51-.13.81c.35.33.31.19.7.35C113.58,65.44,113.71,65.49,113.85,65.51Z"/>
        <path d="M118.24,59.53c0-.24,0-.28-.29-.26a.66.66,0,0,0-.34.48C117.74,60,118,59.64,118.24,59.53Z"/>
        <path d="M140,52.42c-.18.31.17.66.45.86.28-.09.55-.21.6-.62C140.91,51.9,140.15,52.18,140,52.42Z"/>
        <path d="M113.39,61.92c-.14-.12-.41.15-.64.22-.08.18,0,.31.1.34S113.6,62.11,113.39,61.92Z"/>
        <path d="M90.78,80.32h-.19c0-.1-.25-.18-.24-.34l.41-.25a3.06,3.06,0,0,0-1.67-.3.87.87,0,0,0-.55,1.16C89.39,81.21,90,80.38,90.78,80.32Z"/>
        <path d="M111.17,67.54c-.33.13-.94.24-.82.93.11.11.14.33.31.33.71,0,.76-.9,1.07-1.39C111.38,67.19,111.51,67.89,111.17,67.54Z"/>
        <path d="M117.38,57.37a1.82,1.82,0,0,0-1,1.12c.33,0,.27.24.58.18a2,2,0,0,0,1.06-.78C118.07,57.52,117.82,57.3,117.38,57.37Z"/>
        <path d="M102.75,58.54c-.09.12-.3.19-.27.36.12.7,1,.59,1.55.81.16-.38-.51-.13-.23-.53C103.62,58.88,103.41,58.29,102.75,58.54Z"/>
        <path d="M149.37,40.24c-.28.66.38.21.53.41.16-.12.19-.31.26-.42C150,39.87,149.6,40.34,149.37,40.24Z"/>
        <path d="M133,47.33c0-.22.06-.45-.25-.56s-.75-.17-.94.18a.39.39,0,0,0,0,.15h0l-.24.2c-.09.39.59.52.78.7a.91.91,0,0,0,0-.46,6.84,6.84,0,0,0,.81.19C133,47.66,133,47.51,133,47.33Z"/>
        <path d="M91.14,66.32c-.51-.35-1.13-.55-1.29,0l.25.39C90.62,67.09,90.86,66.42,91.14,66.32Z"/>
        <path d="M108.46,61.22a1.84,1.84,0,0,0-1,1.12c.33,0,.28.23.59.17a2,2,0,0,0,1-.77C109.15,61.36,108.9,61.15,108.46,61.22Z"/>
        <path d="M105.77,42.88c-.19-.14-.53,0-1,.4a1,1,0,0,0-.48.85,2.91,2.91,0,0,0,1.28-.66C105.57,43.33,106.16,42.82,105.77,42.88Z"/>
        <path d="M132.71,18.58c-.34,0-.48.29-.79.41-.12.22,0,.32,0,.46C132.39,19.55,133.08,18.85,132.71,18.58Z"/>
        <path d="M122.05,20.76a.73.73,0,0,0,.65.4c.26-.07.25-.54.21-.83-.24-.19-.17-.21-.37-.3v-.09c-.29-.22-.4.08-.61.18C122,20.5,121.9,20.37,122.05,20.76Z"/>
        <path d="M121.46,21.66c.49,0,.37-.05.79-.18-.13-.08,0-.13.13-.2-.23-.17-.26-.4-.57-.48s-.54-.18-.79.18S121.21,21.48,121.46,21.66Z"/>
        <path d="M105.56,57.9c-.23.06-.5.34-.48.55.21-.07.32.16.55-.16S105.63,58,105.56,57.9Z"/>
        <path d="M100.16,20.61c.16-.12.18-.32.26-.42-.17-.37-.56.11-.79,0C99.34,20.85,100,20.41,100.16,20.61Z"/>
        <path d="M75.21,49.74c-.2-.28-.25-.05-.39,0a.68.68,0,0,0,.46.57C75.24,50.09,75.49,50,75.21,49.74Z"/>
        <path d="M130.7,6.19c.09-.13-.09-.36.11-.44-.3-.08-.71-.36-1.06.13-.16.14,0,.27,0,.43A.85.85,0,0,0,130.7,6.19Z"/>
        <path d="M115.5,14.27c0-.43.39-.62-.08-1.24-.4-.26-.66,0-.92.24s-.16.48.12.9A.71.71,0,0,0,115.5,14.27Z"/>
        <path d="M139.33,89.32c.14-.21.06-.62.42-.61a1.86,1.86,0,0,0-.12-1.3c-.18-.34-.44-.17-.6-.06a1.4,1.4,0,0,0,0,1.45C139.45,88.72,139.14,89.2,139.33,89.32Z"/>
        <path d="M145.48,65.85c.19.5.15.88.56,1.27,0-.08-.06-.21.07-.24l.14.16c-.15,0-.06.15-.1.23l.53-.41.08.08c-.25-.41.26-.55.09-.91s-.25-.56-.64-.62S145.66,65.65,145.48,65.85Z"/>
        <path d="M109.16,87.14c-.1.32.2.52.27.85.19.15.3.06.44.08C110.05,87.62,109.49,86.82,109.16,87.14Z"/>
        <path d="M167.43,85c-.16.07-.18.12-.13.36s.24.19.36.12S167.53,85.2,167.43,85Z"/>
        <path d="M115.71,112.34a2.31,2.31,0,0,0-.34.74l0,0h0a.86.86,0,0,0,.08.51c.09,0,.17.2.27.1.43-.4.23-1.19.3-1.79C115.75,111.92,116,112.44,115.71,112.34Z"/>
        <path d="M142.07,103.58a1,1,0,0,1-.2-.37c0,.47-.35.28-.5.58a1.6,1.6,0,0,0,.26,1.32c.37.51.71.65,1,.6a.91.91,0,0,0,.7-1.09c-.21-.13-.38-.52-.28-.65h0a1,1,0,0,1-.81.31c-.07-.2-.32-.28-.19-.56C142,103.66,142.05,103.62,142.07,103.58Z"/>
        <path d="M112.72,110.09c-.34,0-.89-.15-1.22.31,0,.09-.1.23,0,.28.56.22,1.15-.3,1.7-.49C113.11,110,112.78,110.4,112.72,110.09Z"/>
        <path d="M145.53,73.35c0,.39-.13.92.44,1.22l.22-.26c.07,0,.1.11.16.1V73.6a.69.69,0,0,0-.61-.44C145.62,73.18,145.62,73.32,145.53,73.35Z"/>
        <path d="M124.11,129.08c0-.22-.25-.31-.22-.48l-.09.06c-.39.16-1.39,0-1.17,1.06.17.56.53.47.85.51a1.69,1.69,0,0,0,1.48-1C124.66,129.63,124.41,128.61,124.11,129.08Z"/>
        <path d="M155.92,67.59c-.18-.14-.53,0-1,.41a1,1,0,0,0-.47.84,3.1,3.1,0,0,0,1.28-.65C155.72,68,156.32,67.53,155.92,67.59Z"/>
        <path d="M133.13,126.2a.58.58,0,0,0,.81-.1.56.56,0,0,0-.24-.6C133.26,125.44,133.13,125.85,133.13,126.2Z"/>
        <path d="M141,123.59c.07.47-.52.42,0,1.12s.73.13,1.08.14c.39-.2-.37-1-.54-1.27v-.11C141.4,123.77,141.09,123.39,141,123.59Z"/>
        <path d="M131.51,125.22c-.19.15-.24.58-.57.44a1.93,1.93,0,0,0-.29,1.29c.07.39.36.32.54.27a1.41,1.41,0,0,0,.44-1.4C131.21,125.75,131.65,125.4,131.51,125.22Z"/>
        <path d="M155.49,113.42c.06.19.15.59.39.61.09,0,.21,0,.18-.22a.78.78,0,0,0-.28-.55C155.6,113.48,155.59,113.12,155.49,113.42Z"/>
        <path d="M146.57,111.83c-.23,0-.19.2-.28.32.12.3.41.44.88.45.15-.06.14-.33.36-.28C147.33,112.08,147.16,111.63,146.57,111.83Z"/>
        <path d="M130.86,73.13a2.57,2.57,0,0,0,0-.62.38.38,0,0,0-.16-.25.79.79,0,0,0-.43-.09c-.25-.07-.36.19-.55.31-.12.42.06.7.54.88C130.46,73.34,130.68,73,130.86,73.13Z"/>
        <path d="M95.93,92.89c.44.45.68.08.95-.08,0-.51-.06-.42-.22-1-.1.09-.16-.1-.24-.27-.22.12-.54,0-.67.32C95.8,92.23,95.45,92.4,95.93,92.89Z"/>
        <path d="M136.83,122.29a.81.81,0,0,0,.32-.8h0a.59.59,0,0,1-.52-.27.62.62,0,0,0-.15.82C136.52,122.28,136.7,122.21,136.83,122.29Z"/>
        <path d="M147.57,103.35c-.29.12.05.73.34,1.14.36.17.71.3.87,0C148.85,103.71,147.85,103.3,147.57,103.35Z"/>
        <path d="M142.92,108.75a.56.56,0,0,0,.63-.15c.12-.43-.26-.61-.62-.66A.58.58,0,0,0,142.92,108.75Z"/>
        <path d="M140.15,111.35c-.28,0-.27.36-.05.54h.24C140.6,111.78,140.38,111.44,140.15,111.35Z"/>
        <path d="M135.29,114.58c-.35.29-1-.27-1.39,0-.22.13-.56.21-.34.68.82.61,1.38,0,1.75-.49l-.08,0C135.1,114.65,135.37,114.74,135.29,114.58Z"/>
        <path d="M157,103.33a.47.47,0,1,0,.57-.71C157.13,102.57,157,103,157,103.33Z"/>
      </g>
    </g>
  </g>
</svg>
