<svg xmlns="http://www.w3.org/2000/svg" viewBox="0 0 984.26 180.44">
  <defs>
    <style>
      .cls-1, .cls-2, .cls-3 {
        fill: #231815;
        stroke: #231815;
        stroke-linecap: round;
        stroke-linejoin: round;
      }

      .cls-1 {
        stroke-width: 0.45px;
      }

      .cls-2 {
        stroke-width: 0.7px;
      }

      .cls-3 {
        stroke-width: 1.86px;
      }
    </style>
  </defs>
  <g id="Layer_2" data-name="Layer 2">
    <g id="レイヤー_1" data-name="レイヤー 1">
      <g>
        <path class="cls-1" d="M487,109.16c0,.09.05.2.05.32a21.59,21.59,0,0,1,.29,3.13c0,1.94-.43,4.64-3,8.5-2.33,3.54-3.8,4.23-5,4.23-1.92,0-3.63-3-3.63-6.52a10.22,10.22,0,0,1,3.22-7.4,12,12,0,0,1,9.25-3.77,9.39,9.39,0,0,1,4.67.93A9.08,9.08,0,0,1,498,117a10.83,10.83,0,0,1-7.31,10.21,17.79,17.79,0,0,1-4.82,1.07c-.11,0-.29,0-.29-.2s.06-.12.79-.41c3-1.19,9.31-3.68,9.31-10.9,0-1.13-.12-8-8-8C487.05,108.75,487,109,487,109.16Zm-9.43,8.9c0,1.89.75,4.47,2.52,4.47.84,0,1.54-.35,3.54-3.36a16.57,16.57,0,0,0,2.84-8.45c0-1.74-.11-1.88-.49-1.88C483.25,108.84,477.6,112.58,477.6,118.06Z"/>
        <g>
          <path class="cls-2" d="M436.33,145.07a4.54,4.54,0,0,0,2.95,2.49c1.9.45,2.81.68,2.81,1.9,0,2.58-4.17,3.76-7.16,4.26-.91.14-1,.36-1.13.95-1.18,5.62-1.36,6.39-1.32,8.34,0,.59,0,2.08.55,2.08a2.14,2.14,0,0,0,1-.5,14.48,14.48,0,0,1,8.47-2.9c5.71,0,7.75,4.76,7.75,8,0,7.66-8.25,9.47-11.87,10.06a27.76,27.76,0,0,1-3.63.32c-.13,0-.68,0-.68-.23a10,10,0,0,1,2.13-.77c9-2.63,10.6-6.39,10.6-9.38,0-5.53-4.26-5.84-5.07-5.84-4.3,0-7.84,3.35-8.43,5.16-.72,2.31-.77,2.58-1.72,2.58-1.86,0-2.22-3.94-2.22-4.34,0-2.13,2.36-12,2.36-13.28,0-.36-.09-.36-.86-.45-5.76-.68-6.44-4-6.44-4.21s.09-.32.23-.32,1.31.72,1.59.81a13.42,13.42,0,0,0,5.39.91c.54,0,.72-.09.9-.36a13.31,13.31,0,0,0,.91-4.17,5.06,5.06,0,0,0-1-3c-.36-.4-.5-.54-.5-.68,0-.36,1.14-.54,1.36-.54A4,4,0,0,1,436.33,145.07Zm-1.36,5.3c0,.27.28.31.46.31.68,0,3.08-.68,3.08-1.58s-1.86-2.31-2.13-2.31C435.79,146.79,435,150.28,435,150.37Z"/>
          <path class="cls-2" d="M469.85,155.62a.4.4,0,0,1,.41-.36c.14,0,2.49.63,3,.63,1.31,0,7.52-1.31,7.61-1.35.77-.55.82-5.12.82-5.35a5.69,5.69,0,0,0-1.14-3.85c-.67-.82-.77-.91-.77-1,0-.32.55-.37.73-.37,3,0,4.8,1.73,4.8,2.9,0,.09-1.72,5.85-1.72,6.71,0,.27.18.41.5.41s2.31-.23,2.67-.23c3.4,0,6,1.63,6,5.8,0,3.58-1.27,11.37-3.9,14.54-1.27,1.5-3.08,2.76-4.62,2.76-1.72,0-2.18-1.67-2.67-3.12-.09-.23-.59-1.41-.59-1.5a.21.21,0,0,1,.22-.22,9,9,0,0,1,1.14.31,13.37,13.37,0,0,0,2.31.32c1.31,0,3-.63,4.3-5.53a35.87,35.87,0,0,0,1.41-7.88c0-3.17-1.82-3.4-3.13-3.4s-4,.68-4.35,1.09c-.18.23-.23.41-.68,2-1.81,6.16-6.21,17.3-9.88,17.3a1.32,1.32,0,0,1-1.44-1.44c0-1,.31-1.32,3-4.31,1.22-1.36,3.13-3.44,5.57-10.24a12.2,12.2,0,0,0,.64-2.13.32.32,0,0,0-.32-.36c-1,0-5.21,1.81-6.12,1.81C471.94,159.47,469.85,156.62,469.85,155.62Zm31.63,9.43c-.46,0-2.54-1.23-3.09-1.36-.22-.09-1.45-.19-1.45-.32s1.5-1,1.77-1.27c1.68-1.27,1.86-1.4,1.86-2.63a5.84,5.84,0,0,0-3.67-5.21c-.36-.18-1.09-.49-1.09-.68s.18-.27.32-.27c5.8,0,7.93,5.71,7.93,8C504.06,161.87,503.38,165.05,501.48,165.05Z"/>
          <path class="cls-2" d="M538.75,147.65a2.22,2.22,0,0,1-2.31,2.17c-.4,0-.63,0-2.67-.77a6.21,6.21,0,0,0-2.13-.45,3,3,0,0,0-3.21,3c0,.41.31,2.36.31,2.76s-.45,3.08-.54,3.72c-.23,1.68-.59,5.53-.59,6.66,0,.68,0,2.08,1.18,2.08a6.75,6.75,0,0,0,2.63-1.08c2.76-1.82,4.48-2.9,7.38-2.9,4.85,0,8.29,3.39,8.29,7.11,0,5.53-7.2,9.19-13.77,9.19-.59,0-1.23,0-1.23-.36s1-.45,1.32-.54c5.66-1.27,9.92-4.85,9.92-9.11a4.73,4.73,0,0,0-5-5c-1.58,0-3.89.5-5.89,3.4s-2.58,3.72-4.12,3.72c-1.9,0-3.44-2.18-3.44-5.67,0-1.9,1.08-10.23,1.22-11.91s.32-3.9,4.12-5.44c2.54-1,3.63-1.49,3.63-2.81a3.33,3.33,0,0,0-.77-2c-.09-.19-.23-.46-.09-.59C533.27,142.48,538.75,145.11,538.75,147.65Z"/>
        </g>
        <g>
          <path class="cls-3" d="M23.39,10.66C25.44,18,28.8,23,29.64,23a11.25,11.25,0,0,0,4.68-1.92c2.41-1.44,2.77-1.68,4.21-1.68,2.4,0,4.08,1.56,4.08,3.6s-1.56,4.69-5.16,5.89c-.36.12-2.89,1.08-2.89,1.44.85,1.44,6.25,10.09,7.33,10.09.48,0,4.33-1.32,4.33-3.36,0-.48-1.57-2.17-1.57-2.65,0-1,1.21-1.08,1.69-1.2,4.32-.36,6.72-.6,7.44-.6,4,0,7.09,1.92,7.09,5.29,0,1.68-.24,4.44-10.57,8.17-3.12,1.08-3.48,1.32-3.48,1.8s.12.84,3.84,6.72c5.89,9.13,7.69,14.42,7.69,18.86,0,4.93-3.85,8.29-7,8.29s-3.84-.6-11.65-6a19.33,19.33,0,0,0-11.65-3.6c-10.81,0-15.86,7-15.86,12.37,0,8.89,10.57,9.49,13.7,9.49,1.92,0,10-.84,11.65-.84,1.44,0,5.64.48,5.64,4.33,0,6.84-12.61,6.84-14,6.84-3.48,0-23.66,0-23.66-16.81,0-7,5.16-18.86,23.3-18.86,4.44,0,6.73.48,11.53,1.44a22.09,22.09,0,0,0,5.29.72c1.8,0,3.12-.6,3.12-2.52,0-2.4-1.8-7.81-5.41-14.78-1.8-3.48-1.92-3.84-3-3.84-.72,0-5.29,1.32-6.25,1.56a57.07,57.07,0,0,1-14.41,1.8c-7.21,0-12.13-1-15.86-4.56C1.89,46.58.93,44.29.93,43.33A1.11,1.11,0,0,1,2,42.13c.6,0,3.25,1.92,3.85,2.16A30.45,30.45,0,0,0,18.47,46.7c9.49,0,18.62-3.13,18.62-3.85s-6.73-11.29-8.17-11.29c-.24,0-6.61,1.08-7.81,1.08-9.37,0-16.45-6.48-16.45-8.77a.94.94,0,0,1,1-1A23.83,23.83,0,0,1,8.74,24c4,1.33,5.4,1.69,8.29,1.69s7.08-.6,7.08-1.45c0-.36-6.48-9.85-12.25-12.73-3.48-1.68-4-1.8-4-2.64,0-1.2,2.28-3.24,4.68-3.24C15.23,5.62,22.31,7.06,23.39,10.66Z"/>
          <path class="cls-3" d="M169.69,19.19A5.91,5.91,0,0,1,163.56,25c-1.08,0-1.68-.13-7.08-2.05a16.48,16.48,0,0,0-5.65-1.2c-4.92,0-8.53,3.37-8.53,7.93,0,1.08.84,6.25.84,7.33s-1.2,8.16-1.44,9.85c-.6,4.44-1.56,14.65-1.56,17.65,0,1.81.12,5.53,3.12,5.53,2.29,0,5.77-2.16,7-2.88,7.33-4.81,11.89-7.69,19.58-7.69,12.85,0,22,9,22,18.86,0,14.65-19.1,24.38-36.51,24.38-1.57,0-3.25,0-3.25-1,0-.6,2.65-1.2,3.49-1.44,15-3.36,26.3-12.85,26.3-24.14,0-12.62-10.93-13.34-13.33-13.34-4.2,0-10.33,1.32-15.62,9-5.52,7.81-6.84,9.85-10.93,9.85-5,0-9.13-5.77-9.13-15,0-5,2.89-27.15,3.25-31.6.36-4.2.84-10.33,10.93-14.41,6.72-2.76,9.61-4,9.61-7.45,0-2.28-.84-3.6-2-5.4-.24-.48-.6-1.2-.24-1.56C155.16,5.5,169.69,12.46,169.69,19.19Z"/>
          <path class="cls-3" d="M279.23,31.32c3.12,1.92,3.12,3.85,3.12,4.69a13.18,13.18,0,0,1-1.68,5.76,6.66,6.66,0,0,0-.84,2.28.55.55,0,0,0,.48.6c.6,0,2.89-1.56,3.49-1.8,11.89-6,18.37-7,24.26-7,18.74,0,27.27,12.49,27.27,25.22,0,28.83-38.44,38.2-41.2,38.2-.24,0-.48,0-.48-.24s7.56-4.57,8.88-5.53c6-4.08,23.43-17.29,23.43-35.19,0-13.7-10-18.62-18.14-18.62-13.21,0-26.91,7.21-31.47,12.37-1.56,1.8-2.28,3.85-2.28,12,0,2.65.12,17.9.6,24.27.12,1,.6,4.92.6,5.64,0,3.85-3.49,7-5.29,7-3.36,0-3.72-4.32-4.2-11.65-.24-2.52-1-13.94-3.85-13.94-.6,0-2.16,3-3.12,4.93-1.8,3.48-4.32,8.41-8.65,8.41-1.44,0-2.88-1-2.88-3.37,0-2,.6-3.12,3.6-8.16,1.2-2.17,6-10.45,6-11.66,0-2.16-2.52-6.6-4.68-9.24C248.36,51.5,248,51,248,48.86c0-4.09,3.24-4.57,8.17-5.29,2-.36,2.76-.48,10.81-7.92a41.9,41.9,0,0,0,3.12-2.89c.6-1.2,1.08-6.48,1.08-10.21,0-10.69-2.76-14.65-4.8-16.93S264.1,3,264.1,2.49c0-1,2.88-1.56,4.08-1.56,3.24,0,11.41,4.93,11.41,8.89,0,1.8-1.56,9.37-1.8,10.93-.24,1.92-.6,5.65-.6,7C277.19,30,277.31,30.12,279.23,31.32Zm-14.89,14.3c-1.08,1.68-2.41,4-5.17,4.2-3.84.24-5,.36-5,1.92s4.32,9.37,5.64,9.37c.72,0,1.08-.6,2.4-2.52,7.45-10.93,7.45-11.17,7.45-15.5,0-1,0-1.56-.48-1.68C268.42,41.29,266.38,42.13,264.34,45.62Zm-.36,25c0,1.56,2.4,4.68,3.48,4.68,1.44,0,1.44-6.48,1.44-12,0-.48-.24-.72-.6-.72C267.34,62.55,264,69.16,264,70.6Z"/>
          <path class="cls-3" d="M406.31,15.83c0,1-1.08,6.24-1.2,7.32a84,84,0,0,0-.6,8.65c0,2.52.36,3.12,2.52,4.21,1.08.6,1.8,1.2,1.8,2.4a5.78,5.78,0,0,1-1.08,3.12c-2.52,3.48-2.88,4-2.88,4.33a.32.32,0,0,0,.36.36c.24,0,.6-.24,3-2.53,6.25-6,20.78-19.7,31.95-19.7,8.17,0,11.77,5.77,11.77,14.3a106.24,106.24,0,0,1-1.44,15.37c-1.8,12.13-1.92,13.94-1.92,18,0,4.69.72,11.17,8.89,11.17,1.92,0,7.09,0,12.61-6,.84-1,1.92-2,2.52-2s.72.6.72,1c0,1.69-6.6,15.62-19.33,15.62-14.18,0-14.18-14.29-14.18-17.54,0-2.88.12-4.2,1.44-11.29,2.05-10.93,3.25-22.1,3.25-25.1,0-2.16,0-8.29-7.45-8.29-8.53,0-18.74,8.53-26.67,16s-9.25,12.5-9.25,24.63a108.17,108.17,0,0,0,1,15.49c1.2,7.81,1.44,8.77,1.44,11.17,0,4-1,6.73-4.69,6.73s-4.2-2.76-5.4-9.13c-.24-1.56-3.49-13.21-4.69-13.21-.48,0-.6.36-1.44,3.24-1.08,3.61-3,6.73-6.61,6.73a4.39,4.39,0,0,1-4.32-4.45c0-4.2,4.08-11.29,5.29-13.45.48-1,1.56-2.76,1.56-4s-2.17-7.33-2.77-9c-2.64-6.73-2.76-7.57-2.76-9.61,0-5.41,3.61-8.65,6-9.37C392,38.41,396.58,37.09,398,36c.72-.48.84-1.33.84-3.49,0-6.48-.6-12-3.12-17.53-.48-1-3.6-5.17-3.6-6,0-1.08,1.92-1.2,2.76-1.2C398.86,7.78,406.31,13.66,406.31,15.83ZM395.5,43.45c-1,0-13.45,2.53-13.45,8.53,0,4.21,2.88,13.21,4,13.21.48,0,1.08-.72,1.32-1.2s6.73-13.21,7.33-14.41c1.08-2.16,2.4-4.81,2.16-5.41A1.29,1.29,0,0,0,395.5,43.45Zm0,27.87c0-.6.24-4,.24-4.2s0-1.08-.6-1.08c-1.2,0-4.69,7.92-4.69,9.24,0,3,4,8.65,4.21,8.65C395.5,83.93,395.5,83.09,395.5,71.32Z"/>
          <path class="cls-3" d="M553.09,39.37c.72,1,18.14,21,32.19,30.15,2,1.32,11.05,6.73,12.61,8A5.92,5.92,0,0,1,600.53,82c0,2.76-2.88,3.6-5,3.6-3.48,0-12.61,0-42.4-36-1.44-1.68-7.33-9.13-8.65-10.57a5.71,5.71,0,0,0-3.6-1.8c-2.05,0-2.17,0-19.1,15.73a25.12,25.12,0,0,0-5.41,6.13c-1.2,1.8-3.36,3.72-6,3.72s-4.57-1.32-10.09-7a5.2,5.2,0,0,1-1.45-3.73c0-.6.12-1.44.85-1.44s3.12.48,3.72.48c5.52,0,11.65-2.28,26.66-14.41,5.65-4.57,7.57-6.13,10.94-6.13C545.76,30.6,549.84,35.29,553.09,39.37Zm35.67-.12c0,1.68-1.44,4.68-3.6,4.68-1.68,0-2.76-1-6.13-5.52-2-2.76-3.36-3.85-8.17-7.57-.6-.48-1.8-1.32-1.8-1.8s1.2-1,2.17-1C582.4,28.08,588.76,35.29,588.76,39.25Zm10.81-9.37c0,1.92-1.2,3.84-3.12,3.84-2.64,0-4.2-2.4-6-5.16s-6.12-6.13-9.61-7.93c-1.2-.6-1.44-1.2-1.44-1.44,0-1.08,2.41-1,4.69-1C587.2,18.35,599.57,21.71,599.57,29.88Z"/>
          <path class="cls-3" d="M715.48,49.82c.72,0,2-.12,2.64-.12,7.33,0,8.41,4.44,8.41,5.28,0,3.37-4.92,3.73-10,3.73-2.76,0-14.77-.24-17.18-.24-16.57,0-44.08,1.56-47,2.16-1.44.24-7.93,2.16-9.37,2.16-5.17,0-10.69-7.45-10.69-11.53,0-.72.36-1.44,1-1.44s3.48,1.32,4.08,1.44c2.05.6,7,1.08,14.66,1.08C656,52.34,697.94,50.78,715.48,49.82Z"/>
          <path class="cls-3" d="M786.94,34.44c10.81,0,36.4-2.16,39-3.84,4.33-2.88,4.81-3.12,5.89-3.12,2.4,0,13.93,7.69,13.93,10.81,0,1.08-.36,1.44-4.08,4.2-2.17,1.56-2.65,3.37-6.73,20.06-.24,1.08-1.92,6.37-1.92,7.09,0,1.56,1.08,1.68,2.88,2,3,.48,7.45,2,7.45,5,0,3.24-5.53,3.24-6.49,3.24-3,0-16.33-.84-19.1-.84-7.44,0-30.27,2.52-32.19,3-.72.12-3.72,1.44-4.32,1.44-2.16,0-9.25-5.4-9.25-9.61a1,1,0,0,1,1.08-.84,32.16,32.16,0,0,1,3.6.6,42.65,42.65,0,0,0,6.13.36c8.29,0,39.76-2.16,41.56-3.12,1.44-.72,1.92-2.16,2.76-8.17,1.44-10.57,2.53-21,2.53-23.42,0-2-.49-2.52-1.81-2.52-3.72,0-33.51,4.8-38.19,5.88-1.08.24-5.29,1.92-6.25,1.92-2.64,0-11.17-7.32-11.17-9.73,0-1,.84-1.2,1.44-1.2S784.9,34.44,786.94,34.44Z"/>
          <path class="cls-3" d="M938.05,79c-3.13,2.28-9.25,6.84-11.78,9.85-2.28,2.76-2.52,3-4.32,3-6.49,0-15.37-7.69-15.37-12.49,0-.84.12-6.37,1.2-6.37.48,0,3.12,2,3.6,2.28,1.56,1,5.53,2.77,8.17,2.77,5.88,0,37.71-21.26,57.65-41,1.93-1.92,5.29-5.29,5.53-5.29a.77.77,0,0,1,.6.6C983.33,33.48,969.28,56,938.05,79ZM928.2,39.49c-3.25,0-4.45-1.92-8.41-7.93a27.15,27.15,0,0,0-10.93-9.85c-.48-.24-1.08-.6-1.08-1.08s1-1.08,2.64-1.08c12.85,0,22.94,6.85,22.94,13.93C933.36,37.09,931.32,39.49,928.2,39.49Z"/>
        </g>
      </g>
    </g>
  </g>
</svg>
