<svg xmlns="http://www.w3.org/2000/svg" viewBox="0 0 158.55 289.23">
  <defs>
    <style>
      .cls-1 {
        fill: #fff;
      }
    </style>
  </defs>
  <g id="Layer_2" data-name="Layer 2">
    <g id="レイヤー_1" data-name="レイヤー 1">
      <g>
        <path class="cls-1" d="M149.75,6.1c1.56,0,1.73,0,2.21-.59,1-1.14,1.08-1.28,1.39-1.28s3.26,1.83,3.26,2.28-.69.52-1.87.52H144c-.9,0-.9.66-.9,1.77,0,1.46,0,2.08.9,2.08h1.63c1.38,0,1.66,0,2-.28S149,9,149.26,9s3,1.7,3,2.18c0,.63-.77.63-1.94.63H144c-.94,0-.94.79-.94,1.42,0,1.31,0,2,.94,2h6.38c1.55,0,1.73,0,2.21-.59,1-1.15,1.08-1.28,1.39-1.28s3.26,1.87,3.26,2.32-.7.48-1.87.48H132.32c-3,0-4,.07-4.37.11-.14,0-.62.07-.73.07s-.21-.11-.31-.21l-.69-.83c-.11-.18-.14-.18-.14-.21s0-.11.14-.11,1.28.11,1.52.14c1.7.07,3.12.11,4.75.11h7.38c.9,0,.9-.59.9-2.08,0-.63,0-1.35-.9-1.35h-3.6c-3,0-4,.07-4.37.07a5.83,5.83,0,0,1-.73.1c-.13,0-.2-.1-.31-.24l-.66-.8c-.14-.17-.14-.17-.14-.24s0-.07.11-.07c.24,0,1.32.1,1.52.1,1.7.11,3.12.14,4.75.14h3.4c.9,0,.9-.52.9-2,0-1.11,0-1.88-.94-1.88h-6.3c-3.05,0-4.06.07-4.41.07a4.48,4.48,0,0,1-.72.11c-.11,0-.21-.11-.32-.24l-.65-.8c-.14-.17-.14-.17-.14-.24s0-.07.1-.07c.24,0,1.32.1,1.53.1,1.69.07,3.15.14,4.78.14h9.56c1.25,0,2.74-2.95,2.74-5,0-.79,0-1.07.35-1.07.17,0,2.08.76,2.42.9.73.28,1.25.49,1.25,1s-.42.45-.73.49c-.66.1-.83.24-2.46,1.66-.28.21-1.42,1.14-1.63,1.35s-.31.28-.31.42.28.24.66.24ZM133.18,22.32c-3.05,0-4,.07-4.4.1-.1,0-.62.07-.73.07s-.17-.1-.31-.24l-.66-.8c-.13-.17-.13-.17-.13-.24s0-.07.1-.07c.24,0,1.32.1,1.52.1,1.7.11,3.16.14,4.79.14h6.16c.91,0,.91-.59.91-1.59a6.5,6.5,0,0,0-.18-2A5.17,5.17,0,0,1,140,17c0-.25.32-.25.49-.25.45,0,3.15.25,3.15,1a11.5,11.5,0,0,1-.45,1.25c0,.24-.17,1.7-.17,1.8,0,.31,0,.59.76.59h5.34c1.73,0,1.77,0,2.49-.8.28-.31.77-.86,1.15-.86A9.94,9.94,0,0,1,156,21.9c0,.42-.83.42-1.83.42h-9.84c-.42,0-.63,0-.63.24,0,.48,5.37,5.65,13.59,5.65l1.07,0c.07,0,.21,0,.21.07s-1.21.63-1.42.76a13.14,13.14,0,0,0-2.43,2c-.1.21-.27.45-.45.45a21.28,21.28,0,0,1-8.87-5.54,19.44,19.44,0,0,1-2.18-2.63c-.11-.14-.24-.38-.42-.38s-.17.1-.41.72c-2.26,6.17-9.71,6.83-12.24,6.83a11.51,11.51,0,0,1-4-.52s1.56-.21,1.7-.21c9.29-1,12.06-5.51,12.06-6.89,0-.52-.28-.52-.76-.52Zm5.34-16.46c-.52,0-.69-.25-1.94-2.33a12.25,12.25,0,0,0-2.32-2.7c0-.07-.21-.21-.21-.34s.1-.07.14-.07a15.26,15.26,0,0,1,2.63.86c1.8.8,3,1.35,3,3C139.77,5,139.46,5.86,138.52,5.86Z"/>
        <path class="cls-1" d="M131.1,58.32c-.69,0-1.07.24-1.07.93,0,1.42,0,2.71-1.46,2.71-1.24,0-1.24-.7-1.24-1.11,0-.14,0-1.25.17-3.33s.31-8.32.31-9.15c0-.17-.14-5.26-.14-5.58s-.24-1.52-.24-1.8.17-.34.42-.34a13.49,13.49,0,0,1,1.66.65,3.32,3.32,0,0,0,1.73.45h2.08c.76,0,.94-.2,1.18-.52s.62-.76.76-.76a13.37,13.37,0,0,1,1.49,1.18c.56.49.7.59.7.9a.66.66,0,0,1-.25.42c-.52.34-.59.38-.66.52a66.49,66.49,0,0,0-.31,7.17c0,.59.14,5.86.14,6.34,0,1.56,0,2.74-1.7,2.74-.83,0-.86-.38-.86-.87s-.28-.55-.77-.55Zm0-15.66c-.31,0-1,0-1,.76-.14,1.7-.14,10.6-.14,13,0,.62.24,1,1,1h1.87c.31,0,1,0,1-.76.17-2,.24-10.64.24-13,0-.46-.1-1-1-1Zm16.25,8.87c-.35,0-.66.17-.66.55,0,.8,3.74,7.07,10.05,10,.21.11,1.46.42,1.46.66s-.28.14-.42.18a4.37,4.37,0,0,0-1.56.41c-.28.14-1.63,1-1.73,1s-4.68-2.63-7.66-9.56c-.24-.59-.28-.66-.41-.66s-.25.17-.25.69c0,.32.28,10,.28,11.3,0,.42,0,2.18-1.59,2.18-.94,0-1-.59-1-1.1,0-1,.38-5.9.38-7V55.1a.35.35,0,0,0-.34-.32c-.18,0-.25.11-.35.21a24.5,24.5,0,0,1-4,4.33,31,31,0,0,1-8.31,5.41s-.11,0-.11-.07,3.47-3,4.13-3.57c4.85-4.26,7.59-8.66,7.59-9.11s-.21-.45-1.25-.45c-.18,0-2.29,0-3.19.1-.1,0-.62.1-.73.1s-.21-.1-.31-.24l-.69-.8c-.14-.17-.14-.17-.14-.24s.07-.07.14-.07,1.28.11,1.56.14c1.35,0,2.91.11,4.26.11h.66a.89.89,0,0,0,1-.56c0-.21,0-3.74,0-4.09s0-1.07-.9-1.07c-1.14,0-2.77,0-3.81.1-.1,0-.62.07-.73.07s-.21-.07-.31-.21l-.69-.79c-.14-.18-.14-.18-.14-.25s.07-.07.14-.07,1,.11,1.24.11c.52,0,3.44.14,4,.14s1.15,0,1.15-1-.11-3.36-.14-4.47c0-.21-.24-1.25-.24-1.49s.1-.32.34-.32,3.26.49,3.26,1c0,.18-.69.66-.8.8s-.2.45-.2,1.28c0,.45-.07,2.71-.07,3.23s.07,1,1,1h1.87c1.42,0,1.83,0,2.18-.59.66-1,.73-1.18,1-1.18s2.6,1.84,2.6,2.22-.69.45-1.84.45h-5.85c-.28,0-.87,0-1,.59-.07.27-.07,3.57-.07,4.16,0,1,.69,1,1,1h4c1.66,0,1.91,0,2.39-.87s.66-1.21,1-1.21a10.85,10.85,0,0,1,2.8,2.53c0,.45-.69.45-1.83.45Z"/>
        <path class="cls-1" d="M139.18,79.18a16.37,16.37,0,0,1-.66,1.94,82.4,82.4,0,0,0-1.46,12.33c0,3.5.66,6.62,5.31,6.62a17,17,0,0,0,7.27-1.8c.52-.24,3.16-1.7,3.3-1.7a.17.17,0,0,1,.17.18c0,.38-5.13,6-11.65,6-4.5,0-6.65-2.6-6.65-9.57,0-2.15.07-2.84.8-9.63.14-1.15.45-4,.45-5a4.37,4.37,0,0,0-.31-1.7c0-.1-.38-.9-.38-.93,0-.24.27-.35.48-.35C137.65,75.57,139.18,78.38,139.18,79.18Z"/>
        <path class="cls-1" d="M134.26,120.06a4.65,4.65,0,0,1-.42,1.39,12.33,12.33,0,0,0-.83,4.47c0,3.5,1.8,6,2.88,6,.59,0,.72-.17,1.76-1.91.21-.34.8-1.17,1.08-1.17.1,0,.17.13.17.27a4.91,4.91,0,0,1-.1.7,9.71,9.71,0,0,0-.45,2.63,4.89,4.89,0,0,0,.2,1.39,7.93,7.93,0,0,1,.28,1.14c0,.69-.73,1.07-1.32,1.07-2.21,0-6.58-3.63-6.58-10.25,0-1,.49-5.24.49-6.14a9.19,9.19,0,0,0-.25-2,4.58,4.58,0,0,1-.27-1.17c0-.11.14-.14.2-.14C132.7,116.36,134.26,119.13,134.26,120.06Zm16.91.8a8.61,8.61,0,0,1,3.08,6.62c0,.66-.07,2.29-1.73,2.29s-1.7-1.87-1.7-2.32c0-2.88,0-4.34-1.83-6.17-.28-.28-1.67-1.35-1.67-1.56s.14-.18.31-.18A6.79,6.79,0,0,1,151.17,120.86Z"/>
        <path class="cls-1" d="M74.73,14.94c0,.69-.52,1.73-1.35,1.73-.52,0-.69-.21-1.21-1.08A8.54,8.54,0,0,0,69,12.72c-.11-.07-.31-.21-.31-.35,0-.48,2-.52,2.42-.52C72.62,11.85,74.73,13.24,74.73,14.94ZM70.47,25.68c-.1-.18-.73-.9-.83-1.08a1.51,1.51,0,0,1-.21-.66c0-.13.11-.24.31-.24s1.63.45,1.91.45c1.49,0,10.81-5.19,19.09-14.59A19.24,19.24,0,0,1,92.23,8a.13.13,0,0,1,.14.14c0,.38-3.05,7.8-17.39,17.85-.42.28-2.08,1.84-2.53,1.84C71.69,27.83,71.34,27.27,70.47,25.68ZM78.89,8c0,.8-.55,1.56-1.11,1.56-.38,0-.55-.14-1.8-1.63a6.07,6.07,0,0,0-3-1.84c-.14,0-.52-.13-.52-.24a4.15,4.15,0,0,1,2.67-.66C78.89,5.23,78.89,7.94,78.89,8Z"/>
        <path class="cls-1" d="M92.72,42.62c0,.55-.52.73-1.11.94a7.61,7.61,0,0,0-2.49,1.49A14.44,14.44,0,0,1,86,47c-.14,0-.14-.14-.14-.17,0-.38,3-3.61,3-4.47,0-.28-.28-.28-.42-.28s-4.36,1-4.81,1.11c-1.25.28-1.39.31-1.39.9a81,81,0,0,0,3,9.25c.8,2.05,1,2.53,1,3.19s-.35,1.46-.73,1.46a3.7,3.7,0,0,1-2.08-2c-.17-.55-2-8.59-2.53-10.19-.41-1.42-.45-1.56-.93-1.56a22.19,22.19,0,0,0-3.16.8,20.78,20.78,0,0,1-2.56,1c-.31,0-.48-.1-2-1.11a1.39,1.39,0,0,1-.77-1.28s0-.86.31-.86a4,4,0,0,1,1,.27,4.74,4.74,0,0,0,1.67.25,23.65,23.65,0,0,0,4.82-.66c.34-.11.48-.25.48-.56A6.17,6.17,0,0,0,78,38.19c-.1-.11-.69-.42-.79-.52a.2.2,0,0,1-.07-.18c0-.55,1.45-.55,1.73-.55,1.38,0,2.56.28,2.56,1.38,0,1.7,0,3.57.8,3.57a30.86,30.86,0,0,0,5.13-1.11,18.49,18.49,0,0,1,2.08-.86C90.4,39.92,92.72,41.72,92.72,42.62Z"/>
        <path class="cls-1" d="M73,78.59c-2.08,4.5-5.72,6.58-6.41,6.58a.16.16,0,0,1-.17-.17,10.12,10.12,0,0,1,1.38-1.84c3.82-5.23,4.2-9,4.2-10.15a7.7,7.7,0,0,0-.59-3,2.53,2.53,0,0,1-.14-.62c0-.11,0-.18.17-.18s3.92,1.18,3.92,3C75.36,72.28,73.59,77.27,73,78.59Zm5.62,3.22c0-.17.17-1.07.2-1.25.11-.65.14-3.39.14-4.26,0-4.23-.41-5.65-.66-6.51a9.43,9.43,0,0,1-.45-1.25c0-.14.14-.17.21-.17s3.81.62,3.81,2.42c0,.42-.48,2.22-.55,2.6-.14.94-.28,5.13-.28,6.27,0,.45,0,1.15.66,1.15,1,0,4.23-2.29,7.55-5.65.59-.59,3.54-3.71,3.68-3.71a.15.15,0,0,1,.14.14c0,.28-2,4.57-8.08,9.91a19.25,19.25,0,0,0-2.39,2.22c-.59.66-.9.9-1.14.93C80.45,84.83,78.62,82.78,78.62,81.81Z"/>
        <path class="cls-1" d="M83.92,122.42c0,.66-.25,1.32-.76,1.32-1.53,0-2.08-3-2.36-4.47-.17-.87-.94-4.64-1.08-5.44-.13-.63-.31-1.08-.93-1.08-.14,0-4.26,1-6,1.53a19.22,19.22,0,0,1-2.12.9c-.51,0-4-1.52-4-2.56,0-.28.24-.35.42-.35s1.76.14,2.07.14a39.66,39.66,0,0,0,8.43-1.18c.9-.17,1.14-.31,1.14-.9a21.3,21.3,0,0,0-.76-3.47c-.21-.86-.38-1.21-.9-1.21A42,42,0,0,0,72.34,107c-.83,0-3.15-1.25-3.15-1.88,0-.24.38-.24.69-.24a31.77,31.77,0,0,0,5.34-.59c1.21-.27,1.77-.48,1.77-1.14,0-.14-.45-3.43-2-4.75a14.58,14.58,0,0,1-1.59-1.24c0-.21,1-.59,1.8-.59s3.12.76,3.22,1.45c.07.49.14,2.5.21,2.91.31,2.26.69,2.26,1.18,2.26a20.87,20.87,0,0,0,3-.94c1.49-.66,1.67-.73,2.15-.73,1.11,0,2.08.73,2.08,1.28,0,.7-.69.84-3.22,1.32a29.86,29.86,0,0,0-3.5.76.77.77,0,0,0-.66.87,22.91,22.91,0,0,0,.62,3.12c.32,1.18.45,1.49,1.08,1.49A23.41,23.41,0,0,0,85.82,109a7.11,7.11,0,0,1,3.43-.86c1.84,0,2.6.93,2.6,1.52,0,1-1.42,1.07-2.67,1.07a37.26,37.26,0,0,0-6.23,1c-1.46.31-1.53.52-1.53,1.18C81.42,113.83,83.92,120.9,83.92,122.42Z"/>
        <path class="cls-1" d="M76.88,138.19A40.94,40.94,0,0,0,84,136.76a9.55,9.55,0,0,1,1.11-.48c1,0,2.7,1.39,2.7,1.87,0,.24-.76,1-.86,1.25a25.58,25.58,0,0,0-1.18,6.65c0,.28.07.45.52.45s3.36-.66,3.92-.66c1.38,0,3.6,1.08,3.6,2.36,0,.35-.1.87-.76.87a12.67,12.67,0,0,1-1.91-.42,14.38,14.38,0,0,0-3.53-.38,58.19,58.19,0,0,0-13.07,1.49,8.18,8.18,0,0,1-1.49.45c-.34,0-2.91-1.21-2.91-3.12a.22.22,0,0,1,.24-.24,6,6,0,0,1,.9.28,7.68,7.68,0,0,0,2.43.38c.9,0,8.8-.59,9.22-.76s.45-.56.55-1.32.87-6.14.87-6.2c0-.46-.24-.52-.49-.52s-4.71,1.1-5.68,1.45a11.08,11.08,0,0,1-1.25.49c-.76,0-2-1.63-2-2.29,0-.21.1-.24.31-.24S76.61,138.19,76.88,138.19Z"/>
        <path class="cls-1" d="M75.6,163.55c1.25,0,3.74,1.11,3.74,2.22a10,10,0,0,1-.41,1.45,43.32,43.32,0,0,0-.31,4.82c0,.76.13.87,1.14,1.11,2.11.48,7.48,3,7.48,5.61A1.18,1.18,0,0,1,86,180c-.87,0-1-.14-3.29-3.16-1-1.28-2.6-2.91-3.68-2.91-.35,0-.48,0-.48,2.57,0,3.67,0,5.51.17,8.62,0,.39.07,1.25.07,1.77,0,.87,0,3.15-1,3.15s-1.94-2.35-1.94-3.25c0-.14.14-.87.14-1a72.28,72.28,0,0,0,.31-8c0-9.91,0-11-.41-12.13A4,4,0,0,0,74.7,164l-.07-.14C74.67,163.55,75.57,163.55,75.6,163.55Z"/>
        <path class="cls-1" d="M72.52,198.44c.83,0,2.73,1.22,2.73,1.81,0,.17-.06,1-.06,1.14,0,4,.06,7.14.1,8,0,.41.21,2.15.21,2.49,0,.9-.8,1.77-1.32,1.77-.76,0-1.56-1.84-1.56-2.74,0-.27.17-1.45.17-1.73.07-1.56.07-2.91.07-3.53,0-3.88-.17-4.68-1.24-5.93-.28-.31-.45-.52-.45-.8S71.72,198.44,72.52,198.44Zm9.53-1c-.42-.55-.45-.62-.45-.69s0-.21,1-.21c2.08,0,3.81.87,3.81,1.77a13.91,13.91,0,0,1-.34,1.39c-.14.93-.18,6.13-.28,7.34a22,22,0,0,1-8.66,16.08,13.79,13.79,0,0,1-3.12,2c-.14,0-.21-.06-.21-.17s2.25-2.35,2.67-2.81c6.69-7.13,6.93-13.16,6.93-20.09A6.67,6.67,0,0,0,82.05,197.47Z"/>
        <path class="cls-1" d="M81.11,232.43c0,.28-.41,1.46-.45,1.7-.1.94-.38,6.17-.38,7.35,0,1.66,0,7.17.07,8.45,0,.84.14,2.57.14,3.37s-.25,3.12-1.22,3.12c-.48,0-1.28-1.32-1.28-3.26,0-.73.14-4,.14-4.72,0-2.25.1-8.59.1-10.22,0-2.15,0-4.95-.72-6.23a3.49,3.49,0,0,0-.84-1,.47.47,0,0,1-.17-.31c0-.34.73-.72,1.21-.72S81.11,231.05,81.11,232.43Z"/>
        <path class="cls-1" d="M72.27,287.81c0,.76-.34,1.42-1.14,1.42-1.73,0-3.46-3.47-3.46-8.84a26.35,26.35,0,0,1,.9-6.79c1-4.26,1-4.44,1-5.51a5,5,0,0,0-.8-2.88,6.85,6.85,0,0,1-.66-1.21c0-.21.42-.28.62-.28,1.94,0,3.68,3.47,3.68,4.09,0,.28-1.53,4.54-1.8,5.41a22.92,22.92,0,0,0-1.25,7c0,.21,0,2.43.83,2.43.31,0,.35-.14,1-2,.14-.46,1.18-3.47,1.42-3.47s.14.24.14.31c0,1.11-1,6.1-1,7.1C71.79,285,72.27,287.32,72.27,287.81ZM86,285.87a5.72,5.72,0,0,1-5.16,3.29c-2.32,0-4.33-1.42-4.33-3.47,0-.48,0-4.15,7.1-4.26.87,0,.87-.24.87-2.39,0-.21-.11-3.88-.14-4.85a1.16,1.16,0,0,0-.28-.83,11.35,11.35,0,0,0-1.59-.07c-3.92,0-5.13-2.74-5.13-3.09,0-.1,0-.24.17-.24a6,6,0,0,1,.94.49,10.48,10.48,0,0,0,3.88.69c1.9,0,1.9,0,1.9-2.29s0-3.15-.65-4c-.14-.17-1.08-.93-1.08-1.18s.45-.59,1.18-.59,3,.49,3,1.81c0,.24,0,.31-.38.86a1.57,1.57,0,0,0-.2.73c0,1,1.8,1.11,2,1.11,1.52.07,2.66.1,2.66,1.56,0,1.63-2.32,2.63-3.6,3.19s-1.28.59-1.28,2.08c0,.76.24,4.67.34,5.61.14,1.28.25,1.52,1.11,1.91,1.7.72,5.34,2.35,5.34,4.4a1.36,1.36,0,0,1-1.25,1.38c-.41,0-.52-.14-1.35-1.18-1-1.21-2.81-2.66-3.43-2.35C86.45,284.34,86.14,285.62,86,285.87Zm-8.11-.45c0,.93,1.08,1.52,2.29,1.52,2,0,4.16-1.66,4.16-2.84,0-.59-.49-.87-2.7-.87C79.69,283.23,77.92,284.41,77.92,285.42Zm8-16.39c0,1.31.28,1.31.52,1.31.48,0,1.8-.41,1.8-1.21,0-.62-1.14-1.07-1.63-1.07a.72.72,0,0,0-.41.13A1.08,1.08,0,0,0,85.93,269Z"/>
        <path class="cls-1" d="M6.45,18.75c-1,0-1,.41-1.08,1A18.31,18.31,0,0,1,1.14,30.15c-.24.31-.52.73-.52.45,0-.07.38-.9.45-1.08,2.29-4.88,2.5-9.84,2.5-17.29a67.27,67.27,0,0,0-.42-9.67c0-.2-.27-1.21-.27-1.45s0-.28.17-.28A6.54,6.54,0,0,1,5,1.59a2.91,2.91,0,0,0,1.55.35H8.56a1.8,1.8,0,0,0,1.07-.31c.14-.11.8-.83,1-.83S13,2.39,13,2.91c0,.24-.07.28-.76.66a.93.93,0,0,0-.31.83c-.07,1.56,0,19.58,0,22.84a6.15,6.15,0,0,1-.55,2.67,3.25,3.25,0,0,1-2.5,1.62c-.28,0-.35-.1-.83-.93a5.68,5.68,0,0,0-2.25-2c-.18-.11-.56-.28-.21-.28s2.39.14,2.84.14.87,0,1-.66c.07-.35.21-5.92.21-8,0-.52-.14-1-1.11-1Zm.17-8.15a.91.91,0,0,0-1,1c0,.83-.07,4.4-.07,5.13,0,1,.66,1,1,1h2a.91.91,0,0,0,1-1V11.4a.89.89,0,0,0-1-.8Zm.14-7.72c-.31,0-1,0-1,.93,0,.59,0,5.13,0,5.3a1,1,0,0,0,1,.59h1.9a.89.89,0,0,0,1-1c0-.55,0-5.13-.07-5.3-.17-.55-.79-.55-1-.55Zm12,8.28a21.36,21.36,0,0,0,4.54.34c4.47,0,4.85-.55,5.41-1.73.27-.55,1.35-3.6,1.52-3.6s.14.52.14.62c0,2,0,3,.52,3.47.87.72,1,.83,1,1.07A3,3,0,0,1,30,13.17a18.22,18.22,0,0,1-5.71.66c-8.49,0-8.49-.7-8.49-3.89,0-1.49-.07-5.68-.21-7.24,0-.28-.28-1.56-.28-1.7s.07-.31.31-.31a21.67,21.67,0,0,1,2.64.66c.41.11.9.28.9.69s-.14.38-.59.66-.49.49-.55,2.36c0,.1,0,.69,0,.8,0,.41.17.58.49.58.52,0,6.06-1.52,8.52-4,.14-.1.55-.9.73-.9S30.22,4,30.22,4.61c0,.24-.21.41-.52.41l-.83,0c-.7,0-9.22,2-10.16,2.25-.31.07-.76.21-.76,1.11C18,10.85,18.33,11,18.78,11.16Zm.8,17.5c-.8,0-1,.34-1,1s0,1.56-1.73,1.56c-1,0-1-.45-1-.77s.1-1.31.1-1.56c.17-2.49.31-5.64.31-8,0-.83,0-1.8-.14-3.43,0-.21-.24-1.21-.24-1.46s.14-.24.31-.24a4.83,4.83,0,0,1,2.26,1.08,2.08,2.08,0,0,0,1.35.41h6.48a1.34,1.34,0,0,0,1.14-.45c.35-.45.42-.55.62-.55s2.74,1.66,2.74,2.08c0,.2-.83.93-.9,1.17s-.1.66-.1,3.82c0,.86.1,4.6.17,5.3,0,.14.1.9.1,1.07,0,1-1.35,1.39-1.76,1.39-1,0-1-.66-1-1.6s-.84-.86-1-.86Zm0-10.43c-1.11,0-1.11.45-1.11,2.21s0,2.22,1.11,2.22h6.73c1.11,0,1.11-.45,1.11-2.22s0-2.21-1.11-2.21Zm-.14,5.37c-.55,0-1,.24-1,.83,0,3.26,0,3.33,1,3.33h7c1,0,1-.52,1-2.08s0-2.08-1-2.08Z"/>
        <path class="cls-1" d="M21.62,41.51a1.67,1.67,0,0,0,1.11-.24c.14-.14.77-.9,1-.9s2.6,1.56,2.6,2a.61.61,0,0,1-.17.34,8,8,0,0,0-1,.8c0,.11-.17,7.24-.17,7.59,0,.14,0,.66.38.66s1.76-2.08,2-2.81c.07-.21.24-1.42.49-1.42a9.06,9.06,0,0,1,1.59,1C30.77,49.34,31,49.62,31,50s-.31.48-.62.62c-.59.21-1.08.69-3.37,2.84-1.8,1.7-2,1.87-2,2.77s0,7.63,0,9a3,3,0,0,1-3,2.87.62.62,0,0,1-.7-.48c-.31-1-.41-1.39-1.14-1.91-.24-.17-1.6-.79-1.77-.86,0-.07.28-.07.35-.07.31,0,1.94.1,2.28.1,1.7,0,1.95-.24,1.95-1.11s-.07-4.5-.07-5.33c0-.18,0-.73-.35-.73a1.18,1.18,0,0,0-.62.35,67.09,67.09,0,0,1-7.38,4.81c-6.87,3.88-11.16,4.4-11.27,4.4s-.17,0-.17-.07.24-.31.73-.52c2.08-.86,5.58-2.77,6.51-3.29C15.18,60.64,20,57.14,20,56.86s-.14-.17-.21-.17-2.49.73-3,.83C14.87,58,5,60,4.54,60.15a5,5,0,0,1-1,.59c-.45,0-1.8-3.15-1.8-3.46s.07-.31.21-.31a9.57,9.57,0,0,1,1,.31,9.82,9.82,0,0,0,1.73.21c.52,0,1.94-.14,2.53-.18a.79.79,0,0,0,.73-.41c.17-.38.21-7.49.21-8.63s0-5.1-.11-6.1c0-.24-.38-1.56-.38-1.87,0-.11.07-.14.18-.14.41,0,2.25,1.11,2.73,1.11s.52-.18.77-.49a7.69,7.69,0,0,0,1.76-3.53c0-.28,0-.87.45-.87.07,0,1.84.8,2.19.94.86.35,1,.41,1,.8s0,.34-1.18.83a20.31,20.31,0,0,0-3.19,2.35c0,.21.14.21.38.21ZM11.4,52.43c-1.07,0-1.14.41-1.14,2.28s0,2.15.73,2.15c.27,0,9.84-1.14,10.63-1.45a1.74,1.74,0,0,0,1.25-1.94c0-1-.66-1-1.11-1Zm0-10c-1.11,0-1.11.38-1.11,2.15s0,2,1.11,2H21.76c1.11,0,1.11-.41,1.11-2.14s0-2.05-1.11-2.05Zm0,5.1c-1.11,0-1.11.34-1.11,1.8,0,1.9,0,2.22,1.11,2.22H21.76c1.11,0,1.11-.35,1.11-1.81,0-1.9,0-2.21-1.11-2.21Z"/>
        <path class="cls-1" d="M8.21,94.49c.59,0,.9-.55,1.67-2.7.2-.59.31-.87.48-.87s.17.35.17.42c0,.38-.79,4.44-.79,5.27a6.12,6.12,0,0,0,.55,1.8,3.75,3.75,0,0,1,.42,1.52,1.16,1.16,0,0,1-1.15,1.18c-2.14,0-3.74-5.89-3.74-9.22,0-2.21.28-3.22,1.46-7.55a11.73,11.73,0,0,0,.59-3.6,8.37,8.37,0,0,0-.35-2.46,5.17,5.17,0,0,1-.21-.63c0-.1.14-.17.28-.17,1.59,0,3.05,3.15,3.05,4.4,0,.38,0,.42-.66,1.59-.38.73-2.67,5.83-2.67,8.94C7.31,93.45,7.66,94.49,8.21,94.49ZM28.35,98c0,1.35-1,1.77-5.89,1.77-3.4,0-4.68-.87-5.41-1.56C16.88,98,16,97.09,16,96.43c0-.07,0-.34.18-.34a5.06,5.06,0,0,1,.83.48,8.55,8.55,0,0,0,3.71.59,29.87,29.87,0,0,0,3-.1c.49,0,2.91-.28,3.05-.28C28.07,96.78,28.35,97.54,28.35,98ZM26.72,81.08c0,1.7-3.85,1.7-4.26,1.7-3.92,0-6.07-2.11-6.07-2.56,0-.07,0-.18.24-.18s.52.14,1,.25a12.11,12.11,0,0,0,2.36.2A13.66,13.66,0,0,0,23.77,80c1-.38,1.15-.41,1.49-.38A1.74,1.74,0,0,1,26.72,81.08Z"/>
        <path class="cls-1" d="M16.88,134.51c1,0,6.3-.72,6.48-.72a2.14,2.14,0,0,1,2.28,1.63c0,1.87-5.89,2-7.79,2-3.43,0-10.75-.62-10.75-6.06,0-1.32.39-1.7.45-1.7.25,0,.49,1.11.56,1.28,1,2.43,4.19,3.46,6.65,3.46C15,134.44,16.53,134.51,16.88,134.51Zm.1-19.37c.42,0,2.36-.07,2.74-.07a3.65,3.65,0,0,1,3.39,2.78c0,.62-.31.62-2.7.79A9.52,9.52,0,0,0,16,120.31c-.34.2-.34.17-.48.17s-.1,0-.1-.07c0-.31,1.9-1.94,1.9-2.36,0-.2-.1-.24-1.11-.41-4.5-.83-6.1-3-6.1-3.36,0-.11.11-.11.18-.11s1,.32,1.14.35A20.78,20.78,0,0,0,17,115.14Z"/>
        <path class="cls-1" d="M22.11,152.15c0,.52-.21.9-1.32,1.63a96.48,96.48,0,0,0-8,6.93,25.83,25.83,0,0,0-3.23,3.74c0,.14.14.21.32.21A46.13,46.13,0,0,0,16,162.58c3.71-1.42,5.58-2.11,7-2.11.77,0,3.23.45,3.23,1.69,0,.87-1.32,1.11-1.81,1.11-.2,0-1.1-.07-1.28-.07-2.77,0-9.39,1.36-9.39,6.31,0,3.26,2.18,3.78,6.21,4.71,1.73.42,2.07,1.46,2.07,1.77,0,.73-1.07,1.11-2.28,1.11-.25,0-7.38-.42-7.38-6.27A8.52,8.52,0,0,1,13.93,166a12.3,12.3,0,0,0,.83-1.07s0-.11-.14-.11a11.94,11.94,0,0,0-2.6,1.39c-1.87,1.35-2.35,1.7-3.43,1.7-1.42,0-1.8-1.7-1.8-2,0-.66.31-1,1.32-1.87.31-.25,6.38-7.42,7.66-8.7,1.07-1.08,3.19-3.26,3.19-4.06a.59.59,0,0,0-.59-.59,4.05,4.05,0,0,0-2.22,1.25c-.94,1-1.32,1.39-2.6,1.39-1.87,0-2.43-3-2.43-3.05a.25.25,0,0,1,.25-.28c.1,0,1.45.24,1.69.24a4.49,4.49,0,0,0,1.22-.17c3.39-.87,3.77-1,4.61-1A3.14,3.14,0,0,1,22.11,152.15Z"/>
        <path class="cls-1" d="M7.45,199.38a9.87,9.87,0,0,0-.14,2.11c0,1.42.18,7.76.18,9v2c0,.14.06.93.06,1.11A1.52,1.52,0,0,1,6,215.08c-1,0-1.15-.49-1.15-1.08,0-.27,0-.62.07-1.17.1-1.81.21-3.89.21-6.62,0-.87,0-3.61,0-5.72,0-.49,0-.8-.31-.8S.59,203.05.17,203.05c0,0-.17,0-.17-.1s2-2.25,2.36-2.63c2.49-3,5.44-7.21,5.68-8.88,0-.38.07-.52.28-.52a3.2,3.2,0,0,1,1.07.59c.87.59,1.8,1.25,1.8,1.7s-.24.52-.9.76c-.34.14-.41.14-2,2a13.75,13.75,0,0,0-1.08,1.39c0,.17,0,.21.56.45a.6.6,0,0,1,.34.66A5.82,5.82,0,0,1,7.45,199.38ZM26,187.87c.66,0,.94-.06,1.21-.48.45-.66.52-.73.76-.73a.9.9,0,0,1,.52.14c.63.45,1.53,1.21,2.12,1.66.93.73,1,.84,1,1.18,0,.49-.38.69-.9.69-.28,0-1.8-.17-2.15-.17a5.9,5.9,0,0,0-2,.59c-.27.14-.52.28-.62.35s-.07-.07-.07-.11a5.89,5.89,0,0,0,.83-1.69c0-.49-.59-.49-1-.49H6.34c-.62,0-.73,0-1.11,1.21S3.64,193,2.6,193a1.35,1.35,0,0,1-1.39-1.49,1.73,1.73,0,0,1,.63-1.35A9.39,9.39,0,0,0,4,187.22c.1-.21.42-1.29.45-1.29a2.33,2.33,0,0,1,.83,1.29c.21.59.38.65.9.65h8c1.08,0,1.08-.62,1.08-1.07s0-2-.07-2.49c0-.14-.21-.7-.21-.84s.17-.31.38-.31,2.36.49,2.67.56a.69.69,0,0,1,.69.65c0,.28-.07.35-.69,1-.24.25-.31.42-.31,1.53,0,.76.28,1,1.18,1ZM23.67,194a1.36,1.36,0,0,0-1.35.59,27.68,27.68,0,0,1-3,3c-.38.31-.62.52-.62.66s.28.2.38.2h5.82A1.14,1.14,0,0,0,26,198c.42-.62.48-.72.8-.72a12.76,12.76,0,0,1,1.73,1.21c.83.66.9.73.9.9a.68.68,0,0,1-.48.59c-.42.24-.63.41-.73.69s-.11,6.83-.11,7.66c0,.42,0,2.84.11,3.67,0,.14.14.87.14,1a1.74,1.74,0,0,1-1.91,1.67c-.83,0-.87-1.08-.9-1.63,0-.73-.69-.73-.94-.73H17.08c-.83,0-.9.24-1,1.11a1.7,1.7,0,0,1-1.62,1.38.92.92,0,0,1-1-1c0-.27,0-.38.07-1.35.1-1.31.24-3.19.24-6.44,0-2.5,0-6.31-.21-7.66,0-.17-.17-.9-.17-1.07a.19.19,0,0,1,.2-.18c.18,0,.35.11,2,1a1.88,1.88,0,0,0,1.17.38c.63,0,.66-.1,1.15-.83a13.08,13.08,0,0,0,1.49-3.08c0-.49-.31-.49-.59-.49h-.56c-.66,0-2.46,0-3.84.07-.14,0-1,.11-1,.11s-.18-.07-.31-.21l-.66-.8c-.14-.17-.14-.21-.14-.24s.07-.07.1-.07c.25,0,1.28.1,1.53.1,1,0,2.8.14,4.78.14h5.82c1,0,1.14,0,1.66-.66.7-.83,1-1.11,1.32-1.11.52,0,2.74,1.67,2.74,2.19s-.66.48-1.84.48Zm-6.55,5.3c-1.11,0-1.11.28-1.11,2.57,0,2.46,0,2.74,1.11,2.74h7.69c1.11,0,1.11-.28,1.11-2.67s0-2.64-1.11-2.64ZM17,205.55c-.66,0-.94.31-.94.93v3.61c0,.69,0,1.31,1,1.31H25c.66,0,.94-.31.94-.93V206.9c0-.69,0-1.35-.94-1.35Z"/>
        <path class="cls-1" d="M23.63,241.31c0-2.84-2.39-5.27-5.85-5.27-4.58,0-7.52,4.75-8.15,5.82s-1,1.84-2,1.84a1,1,0,0,1-1-1c0-.87.28-1.63,2.74-4.51,2.25-2.63,2.6-3.08,7.83-10.43,1.15-1.63,1.63-2.35,1.63-2.74s-.24-.48-.66-.48c-1.28,0-3.32,1.73-3.91,2.22-1.39,1.14-1.87,1.24-2.46,1.24-1.63,0-2.71-2.21-2.71-2.39s.11-.1.84-.1a16.72,16.72,0,0,0,5.37-1.25c2.14-.93,2.39-1,3.15-1,1.39,0,3.64.87,3.64,2.39,0,1-.8,1.56-2.46,2.71-2.5,1.76-5.55,6.51-5.55,7.1a.27.27,0,0,0,.21.24l.87-.31a8.5,8.5,0,0,1,3.05-.55A7.47,7.47,0,0,1,26,242c0,4.41-4.26,7.49-8.66,7.49-3.43,0-5.89-1.84-5.89-3.57a3.34,3.34,0,0,1,3.43-2.81,5.11,5.11,0,0,1,4,2.22c.49.63.69.94,1.18.94C21.21,246.3,23.63,244.18,23.63,241.31Zm-8.9,3.11a1.42,1.42,0,0,0-1.46,1.22c0,.9,1.49,1.63,3,1.63a.58.58,0,0,0,.59-.63A2.36,2.36,0,0,0,14.73,244.42Z"/>
        <path class="cls-1" d="M31.71,261.58a3.84,3.84,0,0,1-3.88,3.81,3.85,3.85,0,0,1,0-7.69A3.91,3.91,0,0,1,31.71,261.58Zm-6.76,0a2.9,2.9,0,0,0,2.91,2.88,2.83,2.83,0,0,0,2.88-2.81,2.91,2.91,0,0,0-2.95-2.94A2.83,2.83,0,0,0,25,261.54Z"/>
      </g>
    </g>
  </g>
</svg>
