<svg xmlns="http://www.w3.org/2000/svg" viewBox="0 0 625.01 42.38">
  <defs>
    <style>
      .cls-1 {
        fill: #231815;
        stroke: #231815;
        stroke-linecap: round;
        stroke-linejoin: round;
        stroke-width: 0.7px;
      }
    </style>
  </defs>
  <g id="Layer_2" data-name="Layer 2">
    <g id="レイヤー_1" data-name="レイヤー 1">
      <g>
        <path class="cls-1" d="M16.39,15.8a2.44,2.44,0,0,0,2.08-1.22c.46-.59.82-1,1-1s2.86,2.17,2.86,2.72S22.1,17,19.7,17H8.05c-2.13,0-2.67,0-4.3.09-.27,0-1.59.13-1.86.13A.57.57,0,0,1,1.53,17l-1-1.18c-.13-.18-.18-.18-.18-.27s.14-.09.18-.09,1,.09,1.23.09c1.76.09,4.44.23,6,.23Zm-1,7.11a2.36,2.36,0,0,0,2.09-1.22c.45-.54.81-1,1-1s2.85,2.18,2.85,2.77-.22.68-2.67.68H13.26c-.13,0-.81,0-.81.49s.13.5,1.63,1.27C17.43,27.58,19,28.44,19,30.43c0,1-.54,2-1.4,2s-.91-.22-1.86-2.08c-.54-1.05-2.08-3.72-2.81-3.72-.5,0-.5.73-.54,1.23s0,4.75,0,5.61.09,4,.09,4.62a9.61,9.61,0,0,1-.13,2.41,2.49,2.49,0,0,1-1.91,1c-1,0-1-.63-1-1,0-1.32.27-7.16.27-8.34,0-2.63,0-2.9-.36-2.9-.13,0-.36.32-.54.63A37,37,0,0,1,3.93,35.6a18.2,18.2,0,0,1-2.4,1.9.22.22,0,0,1-.23-.23c0-.13,2.09-3,2.49-3.58C6,30.43,8.05,26.17,8.05,24.86c0-.54-.18-.72-1.18-.72-1.26,0-2.26,0-3.26.13-.13,0-.72.09-.86.09a.41.41,0,0,1-.36-.22L1.35,23c-.14-.14-.14-.18-.14-.23s.09-.09.18-.09,1.14.09,1.36.09c2.09.09,4.44.23,5.8.23.95,0,1-.46,1-1,0-.77,0-1.68,0-2.45-.05-.23-.23-1.18-.23-1.36s.36-.32.5-.32c.32,0,3.44.32,3.44,1.23,0,.27-.77,1.31-.81,1.54s0,1.4,0,1.58c0,.46.23.77.86.77Zm-5-15.13c-3,0-4.26,0-4.8,0C5.29,7.87,4,8,3.75,8a.62.62,0,0,1-.41-.23l-1-1.13a2,2,0,0,1-.13-.27c0-.09.09-.14.18-.14.86,0,4.76.32,5.53.32,1.4,0,1.4-.09,1.4-3a6.1,6.1,0,0,0-.18-1.86C9.14,1.57,9,1,9,.9S9.05.49,9.5.49C9.64.49,13,1.17,13,1.66A14,14,0,0,1,12.45,3,4.2,4.2,0,0,0,12,5.06c0,1,0,1.5,1,1.5h1a1.94,1.94,0,0,0,1.54-.82c1.09-1.22,1.22-1.36,1.54-1.36,1,0,3.44,2.18,3.44,2.77s-.9.63-2.4.63H16.25c-.13,0-.36,0-.36.27C15.89,8.51,18,9.5,18,9.91s-1.27,1.27-1.45,1.5c-.5.54-2.54,3.12-3,3.62a4.29,4.29,0,0,1-1.08.63c-.14,0-.18-.18-.18-.27s.68-1.67.81-2a13.7,13.7,0,0,0,1.18-4.35c0-.82-.14-1.27-1.36-1.27Zm-4.66,1a4.91,4.91,0,0,1,3.62,4.3c0,.86-.54,2-1.58,2S6.6,14.85,6.15,12a15,15,0,0,0-.68-2.72c0-.09-.09-.32,0-.36A.29.29,0,0,1,5.7,8.78Zm22.65,8.61c-1.5,0-1.5.72-1.59,3.3-.22,5.44-.59,10.29-3.58,14.82a13.86,13.86,0,0,1-5.52,4.94c-.14,0-.32,0-.32-.14s.95-1.09,1.13-1.27c5-6.48,5.39-10.55,5.39-21.38,0-5.35-.09-6.62-.27-9.38,0-.5-.27-2.85-.27-3s0-.4.23-.4a11.67,11.67,0,0,1,1.72.59,5.25,5.25,0,0,0,1.31.22c1.36,0,6.71-1.95,8.65-3.08a10.12,10.12,0,0,1,1.32-.86c.5,0,4.39,2.45,4.39,3s-.18.45-2.53.58C37.36,5.33,28,6.38,27.49,6.6s-.68.46-.68,5.85c0,3.39,0,3.76,1.58,3.76h6.75a1.89,1.89,0,0,0,1.91-.86c1.13-1.5,1.27-1.68,1.67-1.68s.64.23,2.45,2c.72.72.77.77.77,1,0,.64-.86.64-2.67.64H36.41c-.31,0-.95.22-1,1.26,0,.32-.09,13.1-.09,14.05s.09,5.53.09,6.43a2,2,0,0,1-2.26,2.31c-1.09,0-1.18-.36-1.18-1,0-.45.13-4.12.27-7.88,0-1.68,0-9.38,0-11.74s-.13-3.39-1.17-3.39Z"/>
        <path class="cls-1" d="M66.17,8.14a20.45,20.45,0,0,1-.86,2.54,109.44,109.44,0,0,0-1.9,16.13c0,4.57.86,8.65,6.93,8.65a22.31,22.31,0,0,0,9.51-2.35c.68-.32,4.13-2.22,4.31-2.22a.2.2,0,0,1,.22.22c0,.5-6.7,7.8-15.22,7.8-5.89,0-8.7-3.4-8.7-12.51,0-2.81.09-3.71,1-12.59.18-1.5.59-5.21.59-6.48a5.71,5.71,0,0,0-.41-2.22c0-.14-.5-1.18-.5-1.22,0-.32.36-.46.63-.46C64.18,3.43,66.17,7.1,66.17,8.14Z"/>
        <path class="cls-1" d="M108.66,13.58a6.22,6.22,0,0,1-.54,1.81A15.89,15.89,0,0,0,107,21.24c0,4.57,2.36,7.88,3.76,7.88.77,0,.95-.23,2.31-2.49.27-.46,1-1.54,1.41-1.54.13,0,.22.18.22.36a6.23,6.23,0,0,1-.13.91A12.63,12.63,0,0,0,114,29.8a6,6,0,0,0,.27,1.81,12.27,12.27,0,0,1,.36,1.5c0,.9-1,1.4-1.72,1.4-2.9,0-8.61-4.76-8.61-13.41,0-1.27.64-6.84.64-8a12.38,12.38,0,0,0-.32-2.63,5.8,5.8,0,0,1-.36-1.54c0-.13.18-.18.27-.18C106.62,8.73,108.66,12.36,108.66,13.58Zm22.11,1a11.29,11.29,0,0,1,4,8.65c0,.87-.09,3-2.26,3s-2.22-2.44-2.22-3c0-3.76,0-5.66-2.4-8.06-.37-.37-2.18-1.77-2.18-2s.18-.23.41-.23A8.88,8.88,0,0,1,130.77,14.62Z"/>
        <path class="cls-1" d="M161.57,11.54c-1.27,0-1.27.86-1.27,1.9,0,2.31,0,2.68,1.41,2.68h3.12a1.92,1.92,0,0,0,1.45-.46,1.68,1.68,0,0,1,1.14-.67c.63,0,3.08,1.49,3.08,2.08,0,.27-.82,1.09-1,1.27-.27.4-.27,1-.27,2.4,0,1,.09,5.39.09,6.25,0,1.68-2.08,1.86-2.26,1.86-.64,0-.64-.14-.82-1-.09-.37-.5-.37-.72-.37h-3.85c-1.41,0-1.41.82-1.41,1.72,0,2.32,0,2.72,1.45,2.72H163c1.76,0,1.94,0,2.71-.77,1-1,1.09-1.13,1.45-1.13,1.09,0,3,2.31,3,2.54,0,.59-.22.59-2.4.59h-5.8c-1,0-1.58,0-1.58,1.49,0,1.77,0,1.95.59,1.95.27,0,7.56-1.23,8.15-1.23.09,0,.36,0,.36.28s-1.76.81-2.35,1c-4.62,1.45-8.43,2.32-14.14,3.67a12.41,12.41,0,0,0-2.81.91c-.18.09-.81.73-1,.73-.59,0-2.09-3.63-2.09-3.63,0-.18.23-.23.37-.23a59.64,59.64,0,0,0,8-.77c.18,0,1.86-.27,1.9-.31.32-.14.32-.46.32-.82,0-.68,0-2,0-2.22-.13-.81-.77-.81-1.85-.81-3.94,0-5.62.13-5.89.13s-.86.09-1,.09-.23,0-.41-.27l-.91-1c-.18-.23-.18-.23-.18-.32s.09-.09.18-.09,1.59.14,1.9.14c1.95.09,4.81.13,6.71.13,1.5,0,1.5-.36,1.5-2.81,0-.81,0-1.63-1.32-1.63h-3.22c-.77,0-.86.09-.9.77a1.64,1.64,0,0,1-1.72,1.36c-1.32,0-1.32-.9-1.32-1.36,0-3.26,0-8.51,0-9.78,0-.5-.27-2.68-.27-3.13,0-.18.09-.36.4-.36a14.77,14.77,0,0,1,2.27.81,4,4,0,0,0,1.95.37h2.81c1.36,0,1.36-.59,1.36-2.22s0-2.36-1.36-2.36h-1.45c-3.72,0-5.17.14-5.3.14s-.82.09-1,.09-.27-.09-.4-.27l-.86-1.05c-.19-.22-.23-.22-.23-.31s.09-.09.18-.09c.32,0,1.72.13,2,.13s3.63.18,5.76.18h1.18c1.4,0,1.4-.68,1.4-1.85,0-2.72,0-3-.54-3-.05,0-1.18.18-1.32.18-1.13.14-4.39.41-5.39.41-.36,0-.59-.09-.59-.23s.18-.22,1.23-.5c7.38-1.94,10-2.85,12.27-4.21.77-.45.86-.5,1-.5.46,0,3.49,2.31,3.49,2.68s-.09.22-1,.4-4.9,1-5.71,1.09-.77.45-.77,1.09a23.52,23.52,0,0,0,.09,4c.13.36.59.45.95.45,2.54,0,2.81,0,3.44-.77.95-1.18,1.23-1.49,1.81-1.49.73,0,3.31,2.49,3.31,2.9s-.27.54-2.44.54Zm-5.3,9.7c1.41,0,1.41-.64,1.41-2.13,0-1,0-1.82-1.41-1.82h-2.76c-1.41,0-1.41.68-1.41,2.18,0,1,0,1.77,1.41,1.77Zm0,5c1.41,0,1.41-.58,1.41-1.94s0-1.86-1.41-1.86h-2.72c-1.36,0-1.4.63-1.4,1.63,0,1.72.13,2.17,1.45,2.17Zm5.39-9c-1.36,0-1.36.73-1.36,2s0,1.91,1.36,1.91H165c1.41,0,1.41-.68,1.41-2s0-1.95-1.41-1.95Zm0,5.17c-1.36,0-1.36.68-1.36,1.86s0,1.94,1.36,1.94H165c1.4,0,1.4-.72,1.4-1.85s0-1.95-1.4-1.95Zm17.49-11.14c-1.27,0-1.32.54-1.36,2.26-.41,15.13-1.86,20.07-7.16,25.1a15.34,15.34,0,0,1-4.8,3.35c-.18,0-.27-.09-.27-.18,0-.27,1-1,1.22-1.22,6.12-6.12,8.11-11.24,8.11-28.27,0-.68-.09-1-.86-1-.41,0-2,.18-2.4.18-.18,0-.27-.09-.41-.27l-.86-1c-.18-.18-.18-.23-.18-.32s0-.09.13-.09c.59,0,3.27.23,3.81.23s.77-.18.77-.77c0-2.86-.18-4.76-.27-5.89-.05-.37-.36-1.91-.36-2.27s0-.63.36-.63c.63,0,4.44.77,4.44,1.31,0,.18-.73.73-.82.86-.36.5-.36,4.58-.36,5.39,0,1.91,0,2.09,1.27,2.09h1.49a1.91,1.91,0,0,0,1.59-.59c.91-1,1-1.14,1.31-1.14S187,10.27,187,11c0,.32-.05.45-.91,1.13a1.66,1.66,0,0,0-.63,1.59c0,13.9,0,20.56-1,23.92-1.13,4-4,4.16-4.53,4.16-.77,0-.86-.27-1.31-1.54-.36-1-1.27-1.63-2.67-2.31-1-.45-1.13-.5-1.13-.77s.18-.18.27-.18,4.07.77,4.84.77c1.77,0,2.18-3.44,2.41-5.71.22-2.67.22-14.77.22-18.25,0-2,0-2.49-1.36-2.49Z"/>
        <path class="cls-1" d="M213.8,4.52c.77,2.76,2,4.67,2.36,4.67a4.31,4.31,0,0,0,1.76-.73c.91-.54,1.05-.63,1.59-.63a1.4,1.4,0,0,1,1.54,1.36,2.6,2.6,0,0,1-2,2.22c-.13,0-1.09.4-1.09.54.32.54,2.36,3.8,2.77,3.8.18,0,1.63-.49,1.63-1.26,0-.18-.59-.82-.59-1,0-.36.45-.41.63-.45,1.63-.14,2.54-.23,2.81-.23,1.5,0,2.68.72,2.68,2,0,.64-.09,1.68-4,3.08-1.18.41-1.31.5-1.31.68s0,.32,1.44,2.54c2.22,3.44,2.9,5.44,2.9,7.11a3,3,0,0,1-2.62,3.13c-1.14,0-1.45-.23-4.4-2.27a7.28,7.28,0,0,0-4.39-1.36c-4.08,0-6,2.63-6,4.67,0,3.35,4,3.58,5.16,3.58.73,0,3.76-.32,4.4-.32s2.13.18,2.13,1.63c0,2.59-4.76,2.59-5.3,2.59-1.32,0-8.93,0-8.93-6.35,0-2.62,1.95-7.11,8.79-7.11a18.82,18.82,0,0,1,4.35.54,8.14,8.14,0,0,0,2,.28c.68,0,1.18-.23,1.18-1a16.14,16.14,0,0,0-2-5.57c-.68-1.31-.72-1.45-1.13-1.45s-2,.5-2.36.59a21.6,21.6,0,0,1-5.43.68c-2.72,0-4.58-.36-6-1.72a3.52,3.52,0,0,1-1.09-1.95.41.41,0,0,1,.41-.45,12.48,12.48,0,0,1,1.45.81,11.51,11.51,0,0,0,4.75.91c3.58,0,7-1.18,7-1.45s-2.54-4.26-3.08-4.26c-.1,0-2.5.41-2.95.41-3.53,0-6.21-2.45-6.21-3.31a.36.36,0,0,1,.37-.36,8,8,0,0,1,1.17.41,8.27,8.27,0,0,0,3.13.63c1.09,0,2.67-.22,2.67-.54,0-.14-2.44-3.72-4.62-4.8-1.31-.64-1.49-.68-1.49-1s.86-1.22,1.76-1.22S213.39,3.16,213.8,4.52Z"/>
        <path class="cls-1" d="M248.45,16.25a.4.4,0,0,1,.41-.36c.14,0,2.49.63,3,.63,1.31,0,7.52-1.31,7.61-1.35.77-.55.82-5.12.82-5.35A5.69,5.69,0,0,0,259.14,6c-.67-.82-.77-.91-.77-1,0-.32.55-.36.73-.36,3,0,4.8,1.72,4.8,2.89,0,0-1.72,5.85-1.72,6.71,0,.27.18.41.5.41s2.31-.23,2.67-.23c3.4,0,6,1.63,6,5.8,0,3.58-1.27,11.37-3.9,14.54-1.27,1.5-3.08,2.76-4.62,2.76s-2.13-1.58-2.67-3.12c-.09-.32-.59-1.36-.59-1.5a.21.21,0,0,1,.22-.22,9,9,0,0,1,1.14.31,11,11,0,0,0,2.31.32c1.31,0,3-.63,4.3-5.53A35.87,35.87,0,0,0,269,19.83c0-3.17-1.82-3.4-3.13-3.4s-4,.68-4.35,1.09c-.18.23-.23.41-.68,1.95C259,25.63,254.61,36.78,251,36.78a1.34,1.34,0,0,1-1.45-1.46c0-1,.31-1.31,3-4.3,1.22-1.36,3.13-3.44,5.57-10.24a12.2,12.2,0,0,0,.64-2.13.32.32,0,0,0-.32-.36c-1,0-5.21,1.81-6.12,1.81C250.54,20.1,248.45,17.25,248.45,16.25Zm31.44,9.61a23.55,23.55,0,0,1-3.08-1.36c-.31-.09-1.45-.14-1.45-.32s1.5-1,1.77-1.27c1.68-1.27,1.86-1.4,1.86-2.63a5.84,5.84,0,0,0-3.67-5.21c-.36-.18-1.09-.49-1.09-.67s.18-.28.32-.28c5.8,0,7.88,5.71,7.93,8C282.48,22.69,281.8,25.86,279.89,25.86ZM282,10.68c0,.77-.55,1.77-1.32,1.77s-1-.27-2.4-1.95a12,12,0,0,0-3.21-2.67c-.23-.14-.68-.5-.68-.68s.36-.41.77-.41C280.94,6.74,282,10.14,282,10.68Zm3.62-3.8a1.24,1.24,0,0,1-1.13,1.31c-1,0-1.5-.59-2.4-1.63a12.52,12.52,0,0,0-4-2.4c-.46-.14-.59-.32-.59-.46,0-.36,1.08-.63,1.63-.63C284.7,3.07,285.6,6,285.6,6.88Z"/>
        <path class="cls-1" d="M306,12.76a1.93,1.93,0,0,0,1.41-.45c.18-.13.95-1.09,1.22-1.09s3.08,1.64,3.08,2.13c0,.23-.18.46-.68.82s-.68.68-1.09,2.63c-1.72,7.88-1.76,8.06-2.8,10.78a11.8,11.8,0,0,0-.64,1.86,1.19,1.19,0,0,0,.45,1c3.13,2.9,3.13,4.35,3.13,5,0,1.72-.86,2.53-1.63,2.53s-.82-.4-2.49-3.76c-.68-1.31-.91-1.36-1.23-1.36a.78.78,0,0,0-.72.41,21.49,21.49,0,0,1-10.65,8.07s-.13,0-.13-.09.09-.19.9-.82c6.07-4.67,8.75-9.38,8.75-10.28,0-1.05-2.86-3.27-3.08-3.27s-.41.28-.46.41c-.18.91-.54,2.49-2.44,2.49-.5,0-1.41-.27-1.41-.9,0-.09.95-3.58,1-4,.32-1.09,1.95-9.33,1.95-9.83A1.09,1.09,0,0,0,297.24,14c-.32,0-2.08.14-2.31.14s-.27-.09-.41-.27l-.9-1c-.19-.23-.19-.23-.19-.32s.09-.09.19-.09c.49,0,3.48.22,4.12.22a1.15,1.15,0,0,0,1.31-.95,74.15,74.15,0,0,0,1.13-9.33c0-.23-.13-1.31-.13-1.36,0-.23,0-.36.32-.36a17.62,17.62,0,0,1,2.4,1.09c2,1,2.26,1.13,2.26,1.54a.65.65,0,0,1-.32.59c-.18.13-1,.54-1.17.68-.37.27-1.41,6.93-1.41,7.06,0,.82.64,1.13,1.36,1.13Zm-3.12,1.18c-1.09,0-1.27.55-1.41,1.41s-1.76,9.65-1.76,10c0,.55.45.73.72.86.54.23,3,1.64,3.17,1.64.73,0,.91-.59,1.23-1.54a71.92,71.92,0,0,0,2.26-11.29c0-1.13-1-1.13-1.45-1.13Zm26,.86c.31,0,.63-.18.63-.59a15,15,0,0,0-1.77-2.89c-.27-.32-2-2.5-2-2.5s.19-.18.28-.18c.9,0,8.38,4.76,8.38,9.2a2,2,0,0,1-1.77,2.22c-.77,0-.81-.32-1.36-1.95-.68-2.17-.81-2.4-1.54-2.4-.22,0-8.29,1.86-9.87,2.17-4.17.77-4.26.91-4.9,1.59s-1,1-1.31,1c-.95,0-2.13-5.12-2.13-5.3a.14.14,0,0,1,.14-.13,12.58,12.58,0,0,1,1.35.4c.91.09,2.5.14,2.77.14a1.27,1.27,0,0,0,1.4-.73,67.27,67.27,0,0,0,3.26-12.68c.14-1.59.14-1.77.55-1.77s.63.09,2.94,1c1.14.41,1.5.55,1.5,1.09a.74.74,0,0,1-.23.5c-.13.13-.86.72-1,.86s-2.53,4.76-3,5.66-3.13,5.39-3.13,5.53a.61.61,0,0,0,.64.54C321.07,15.48,324.47,15.17,328.82,14.8ZM318.26,38.32c-1.31,0-1.31.77-1.31,1.45,0,1.63-1.72,1.76-2.45,1.76-.36,0-.82,0-.82-1.27s.19-7.88.19-9.37c0-2.59-.09-5.17-.14-6.12,0-.23-.09-1.31-.09-1.4,0-.32,0-.55.41-.55s.54.09,2.26.86a5.07,5.07,0,0,0,2,.41H327a1.58,1.58,0,0,0,1.41-.68c.23-.5.45-1,.81-1,0,0,3.85,1.82,3.85,2.72,0,.27-.09.36-.67.86s-.64,1.09-.64,2.45.23,8.15.23,9.69,0,3.22-2.4,3.22c-1.27,0-1.27-.36-1.27-1.68,0-1.08-.41-1.35-1.23-1.35Zm-.09-13a1.11,1.11,0,0,0-1.27,1.27v9.33a1.12,1.12,0,0,0,1.27,1.27h9.15c1.32,0,1.32-.91,1.32-1.36,0-.68-.05-9.24-.05-9.38a1.1,1.1,0,0,0-1.27-1.13Z"/>
        <path class="cls-1" d="M363.24,2.75c0-.13-.31-.59-.31-.68,0-.31.86-.31,1.13-.31,1.22,0,3.67,1.13,3.67,2.08a12.94,12.94,0,0,1-1.14,2.4,10.84,10.84,0,0,0-.67,2.95c0,.09,0,.27.18.27a5.58,5.58,0,0,0,1.26-.41A5.37,5.37,0,0,1,369,8.69c.45,0,1.31.13,1.31.86,0,1.67-3.08,2.58-4.35,3-.36.09-.45.13-.5.81,0,.14-.22,2.54-.22,4.4,0,1,0,1.31.58,1.31s3.76-.9,3.76-2.35c0-.14-.18-.68-.18-.82s.14-.14.23-.14,1.18.23,1.4.23c1.86.14,3,.23,3,1.22,0,1.59-5,3.67-7.11,4.35-1.41.5-1.54.55-1.54,1,0,.86.5,6.07.54,6.52.18,1.5.18,1.68,1.13,2,3.54,1.45,6.44,3.85,6.44,6A1.75,1.75,0,0,1,372,39c-.64,0-.82-.22-2.45-2.17-.91-1.13-2.67-2.45-3.17-2.45-.27,0-.36.23-.59.73a8.77,8.77,0,0,1-7.7,4.57c-4.26,0-5.8-3-5.8-4.89,0-2.72,2.76-4.8,8.15-4.8.41,0,2.09.14,2.4.14.5,0,.5-.14.5-1.68,0-.91,0-3.94-.09-5.17,0-.4,0-.67-.45-.67-.64,0-3.35.22-3.94.22-1,0-4.22.05-6.25-1.86a5,5,0,0,1-1.32-2.08c0-.09,0-.18.14-.18a11.4,11.4,0,0,1,1.72.63,17.65,17.65,0,0,0,5.48.82c1.09,0,4.12,0,4.44-.86.05-.14.41-6.07.41-6.12,0-.22-.23-.22-1-.27-3.22-.23-6.07-2.54-6.07-4.3,0-.09,0-.32.18-.32s1.13.63,1.27.72a7.94,7.94,0,0,0,4.39,1.23c.95,0,1.41-.23,1.5-.68a32.51,32.51,0,0,0,.27-4A8.59,8.59,0,0,0,363.24,2.75ZM358.67,32c-.09,0-4.85,0-4.85,2.59,0,1.72,2.35,2.26,3.62,2.26a7.42,7.42,0,0,0,4.49-1.68c.81-.72,1.22-1.81,1-2.22C362.65,32.16,359.48,32,358.67,32Z"/>
        <path class="cls-1" d="M398.21,22.91c0-.54.27-.72.64-.72s1.9.45,2.22.45c.86,0,1.36-.23,5.75-2,1.77-.72,6.57-2.67,10.06-2.67a9.06,9.06,0,0,1,9.24,9c0,7-7.39,10.51-14.36,10.51-.46,0-1.14,0-1.14-.54s.19-.46,1.59-.64c8.29-1.13,10.92-6.88,10.92-10.69a5.88,5.88,0,0,0-5.66-6.16c-2.86,0-6.62,1.81-11.06,4.76-2.63,1.76-2.94,1.94-3.94,1.94C400.3,26.08,398.21,24,398.21,22.91Z"/>
        <path class="cls-1" d="M446.82,11.86c1.94,0,2.62-.18,8.83-1.95,4-1.13,14.36-4.08,17.4-4.08,1.58,0,3.62.64,3.62,2.18a1.79,1.79,0,0,1-1.81,1.67c-.59,0-3.17-.49-3.72-.49-5.75,0-12.18,5.3-12.18,17,0,7.62,2.85,8.11,5.53,8.11.68,0,3.94-.27,4.3-.27,1.4,0,2.26.59,2.26,1.68,0,2.4-5,2.4-5.25,2.4-9.29,0-9.29-7.57-9.29-9.7s.05-11.59,6.62-17.44a7.72,7.72,0,0,0,1.08-.95c0-.09-.18-.09-.27-.09-2.58,0-12,4-13.45,4.85a3.33,3.33,0,0,1-1.59.59c-2.26,0-4.39-3-3.85-3.67C445.23,11.45,446.59,11.86,446.82,11.86Z"/>
        <path class="cls-1" d="M500,13.58a6.22,6.22,0,0,1-.54,1.81,16.1,16.1,0,0,0-1.09,5.85c0,4.57,2.36,7.88,3.76,7.88.77,0,.95-.23,2.31-2.49.28-.46,1-1.54,1.41-1.54.13,0,.22.18.22.36a6.23,6.23,0,0,1-.13.91,12.63,12.63,0,0,0-.59,3.44,6.29,6.29,0,0,0,.27,1.81,10.64,10.64,0,0,1,.36,1.5c0,.9-.95,1.4-1.72,1.4-2.9,0-8.61-4.76-8.61-13.41,0-1.27.64-6.84.64-8a12.38,12.38,0,0,0-.32-2.63,5.8,5.8,0,0,1-.36-1.54c0-.13.18-.18.27-.18C498,8.73,500,12.36,500,13.58Zm22.11,1a11.29,11.29,0,0,1,4,8.65c0,.87-.09,3-2.26,3s-2.22-2.44-2.22-3c0-3.76,0-5.66-2.4-8.06-.37-.37-2.18-1.77-2.18-2s.18-.23.41-.23A8.86,8.86,0,0,1,522.15,14.62Z"/>
        <path class="cls-1" d="M558.93,2.75c0-.13-.31-.59-.31-.68,0-.31.86-.31,1.13-.31,1.22,0,3.67,1.13,3.67,2.08a12.94,12.94,0,0,1-1.14,2.4,10.84,10.84,0,0,0-.67,2.95c0,.09,0,.27.18.27a5.72,5.72,0,0,0,1.27-.41,5.24,5.24,0,0,1,1.63-.36c.45,0,1.31.13,1.31.86,0,1.67-3.08,2.58-4.35,3-.36.09-.45.13-.5.81,0,.14-.22,2.54-.22,4.4,0,1,0,1.31.59,1.31s3.76-.9,3.76-2.35c0-.14-.19-.68-.19-.82s.14-.14.23-.14,1.18.23,1.41.23c1.85.14,3,.23,3,1.22,0,1.59-5,3.67-7.11,4.35-1.41.5-1.54.55-1.54,1,0,.86.5,6.07.54,6.52.18,1.5.18,1.68,1.13,2,3.54,1.45,6.44,3.85,6.44,6a1.75,1.75,0,0,1-1.54,1.9c-.64,0-.82-.22-2.45-2.17-.91-1.13-2.67-2.45-3.17-2.45-.27,0-.36.23-.59.73a8.77,8.77,0,0,1-7.7,4.57c-4.26,0-5.8-3-5.8-4.89,0-2.72,2.76-4.8,8.15-4.8.41,0,2.09.14,2.41.14.49,0,.49-.14.49-1.68,0-.91,0-3.94-.09-5.17,0-.4,0-.67-.45-.67-.63,0-3.35.22-3.94.22-1,0-4.22.05-6.25-1.86A5,5,0,0,1,547,18.88c0-.09,0-.18.14-.18a11.4,11.4,0,0,1,1.72.63,17.65,17.65,0,0,0,5.48.82c1.09,0,4.12,0,4.44-.86,0-.14.41-6.07.41-6.12,0-.22-.23-.22-.95-.27-3.22-.23-6.07-2.54-6.07-4.3,0-.09,0-.32.18-.32s1.13.63,1.27.72A7.94,7.94,0,0,0,558,10.23c.95,0,1.41-.23,1.5-.68a32.51,32.51,0,0,0,.27-4A8.59,8.59,0,0,0,558.93,2.75ZM554.36,32c-.09,0-4.85,0-4.85,2.59,0,1.72,2.36,2.26,3.62,2.26a7.42,7.42,0,0,0,4.49-1.68c.81-.72,1.22-1.81,1-2.22C558.34,32.16,555.17,32,554.36,32Z"/>
        <path class="cls-1" d="M593.31,13.08a91.14,91.14,0,0,0,12.32-1.54c2.36-.41,2.63-.45,2.63-1.63a27.24,27.24,0,0,0-.63-6.16c0-.23-.77-1-.77-1.27s.68-.32.95-.32c2,0,3.76.82,3.76,2.27,0,.23-.18,1.18-.18,1.4,0,1,1.31,1.72,4,2.86a10.08,10.08,0,0,0,4,.9c.46,0,2.36-.22,2.72-.22.59,0,2.58.18,2.58,1.76,0,1.18-.86,1.59-2.44,1.59-1,0-5.17-.41-6-.41a21.23,21.23,0,0,0-4.89.45c-.64.28-.73.91-.73,4.9a5.94,5.94,0,0,0,.59,2.94,14.38,14.38,0,0,1,1.32,6.12c0,8.79-6.85,14.4-8.25,14.4-.09,0-.23,0-.23-.18s1.86-2.26,2.18-2.71c1.18-1.77,2.54-4.72,2.54-6.66,0-.14,0-.64-.46-.64-.13,0-.81.09-1,.09-2.44,0-4.62-2.31-4.62-5.93,0-.59,0-5.58,4.39-6.26,1.27-.18,1.27-.45,1.27-2.76s0-2.72-.9-2.72a54.93,54.93,0,0,0-8,1.82c-.77.22-4.08,1.81-4.85,1.81-1,0-4.76-1.91-4.76-3.76,0-.18.09-.41.23-.46C590.5,12.81,592.68,13.08,593.31,13.08Zm13.46,7.52c-1.14,0-2.58,1.86-2.58,4.17,0,2.54,1.76,3.62,2.94,3.62,1.77,0,1.81-2.71,1.81-3.44a8.69,8.69,0,0,0-.59-3.17A1.9,1.9,0,0,0,606.77,20.6Zm4.17-10.83c0,.73.18.87.81.87.18,0,3.13-.1,3.13-.77,0-.37-3-2.5-3.45-2.41S610.94,8.6,610.94,9.77Z"/>
      </g>
    </g>
  </g>
</svg>
