<svg data-name="Layer 2" xmlns="http://www.w3.org/2000/svg" viewBox="0 0 177.88 27.07"><path d="M11.27 9.13c0 .94-2.17 1.8-2.86 2.09-.4.14-.43.26-.49 1.26-.06.63-.06 2.95-.06 3.09 0 .17 0 .52.26.52.09 0 2.43-.97 2.89-1.15 2.83-1.06 4.12-1.14 4.87-1.14 2.09 0 4.41 1.63 4.41 4.32 0 3.78-3.98 5.5-6.33 5.5-1.63 0-2.95-.83-2.95-2.32 0-1.35 1.17-2.26 1.43-2.26.09 0 .14.09.14.14 0 .09-.06.14-.11.23-.09.11-.26.34-.26.77 0 1.37 1.57 1.37 1.86 1.37 1.89 0 4.29-1.26 4.29-3.55 0-2.03-1.52-3.15-2.75-3.15-.8 0-2.58.37-5.93 2.15-1.6.86-1.77.94-1.77 1.43 0 .31.09 1.6.09 1.89 0 1.32-.43 3.21-1.46 3.21-.77 0-1.09-.6-1.32-1.06-.92-1.78-1.06-1.78-1.43-1.78-.26 0-.54.12-.72.17-.17.09-.89.57-1.09.57-.31 0-1.77-.86-1.77-1.8 0-.52.31-1.12.83-1.12.17 0 1 .14 1.17.14.77 0 1.29-.14 2.98-.97 1.46-.71 1.63-.8 1.63-1.6 0-.66-.03-3.09-.06-3.58 0-.2-.09-.63-.4-.63-.34 0-1.15.2-1.32.26-1.46.49-1.6.54-2.03.54-.97 0-2.06-1.98-2.06-2.18 0-.14.11-.2.23-.2.09 0 .43.11.52.11.52.09.94.14 1.32.14 1.03 0 3.46-.69 3.64-.86.14-.2.29-2.8.29-3.12 0-.89-.14-1.46-.94-2.29-.06-.06-.4-.4-.4-.46 0-.26.46-.31.63-.31 1.92 0 2.95 1.4 2.95 1.95 0 .26-.54 1.29-.6 1.49-.03.2-.29 1.35-.29 1.86 0 .11.06.31.23.31.2 0 1-.31 1-.72 0-.06-.14-.34-.14-.4 0-.03.06-.09.11-.11.4-.06 1.77.34 1.77 1.23zM4.74 20.09c0 .43.77 1.34 1.2 1.34.4 0 .8-.8.8-2.2 0-.11 0-.4-.09-.46-.09 0-1.92.92-1.92 1.32zm18.81-8.9c0 .6-.34 1.38-.94 1.38-.17 0-.83-.06-.97-.06-.14.03-.75.2-.86.2-.06 0-.14-.03-.14-.14 0-.06.09-.2.09-.23.06-.17.11-.31.11-.52 0-1.14-1.43-1.55-2.4-1.55-.46 0-.72.12-1.12.29-.11.06-.2.09-.29.09s-.11-.03-.11-.12c0-.2 1.2-1.8 3.09-1.8 2.2 0 3.55 1.14 3.55 2.46zm14.43-8.56c.31 0 .4 0 .71-.29.49-.43.66-.6.89-.6.46 0 1.89 1.26 1.89 1.78 0 .11-.57.46-.66.54-.2.2-.2.29-.2 1.32 0 .72.12 4.29.12 4.69 0 .37 0 1.86-1.35 1.86-.63 0-.72-.46-.8-.86-.09-.4-.52-.4-.89-.4h-3.46c-.92 0-.92.2-.92 1.97 0 1.52.03 8.07.09 10.16 0 .29.08 1.72.08 2.03 0 1.46-1 1.86-1.54 1.86-.49 0-.75-.29-.75-.97 0-.14.03-.43.03-.51.29-9.76.31-10.85.31-19.72 0-.54-.23-3.18-.23-3.43 0-.11 0-.29.11-.29.37 0 .83.23 1.6.66.4.2.49.2.83.2h4.12zm-3.92.74c-.49 0-.74.03-.74.57v1.6c0 .6.26.63.74.63h3.89c.37 0 .69-.03.74-.4V4.11c0-.66-.11-.74-.74-.74h-3.89zm.02 3.55c-.49 0-.77 0-.77.63V9.5c.09.43.34.43.77.43h3.81c.49 0 .77 0 .77-.63V7.32c-.06-.4-.34-.4-.77-.4h-3.81zm10.39 8.25c.29 0 .49 0 .72-.29.4-.52.52-.69.8-.69.31 0 1.75 1.03 1.75 1.6 0 .17-.17.31-.43.57-.14.14-.2.29-.23.54-.03.57.03 3.43.03 4.09 0 .72-.03 1.06-.26 1.34-.29.32-.83.74-1.26.74-.46 0-.57-.46-.57-.8 0-.69-.43-.69-.92-.69h-3.63c-.86 0-.86.14-.92.95-.09 1.14-1.29 1.43-1.49 1.43-.51 0-.66-.43-.66-1.06 0-.2.03-.97.06-1.23.06-1.23.11-2 .11-3.15 0-.72.03-2.4-.06-3.18-.03-.17-.11-.8-.11-.89 0-.11.03-.23.14-.23.17 0 .26 0 1.69.66.4.2.57.26.95.26h4.29zm-.31 5.67c.43 0 .83 0 .94-.34.09-.2.09-1.52.09-1.83 0-.34-.03-2.2-.09-2.38-.14-.34-.49-.34-.94-.34H40.5c-.83 0-1 .09-1 .89v3.46c0 .49.4.54 1 .54h3.66zm6.7-18.21c.32 0 .46 0 .69-.29.57-.66.63-.74.83-.74.23 0 1.89.94 1.89 1.46 0 .17-.17.34-.34.49-.43.37-.46.66-.46 1.09v13.08c0 .74.06 4.44.06 5.27 0 1 0 2.03-.72 2.69-.54.49-1.46.92-1.8.92-.14 0-.37-.12-.37-.26-.03-.52-.09-.83-.4-1.15-.26-.26-1.77-1-1.77-1.14 0-.09.11-.14.31-.14.26 0 1.4.06 1.69.06 1.17 0 1.17-.23 1.17-2.35 0-1.43.06-8.5.06-10.1 0-.83-.31-.83-.94-.83h-3.69c-.4 0-.75 0-.86.4-.29.92-1.17.92-1.32.92-.23 0-.69-.06-.72-.92 0-.23.03-4.75.03-5.64 0-.43-.14-2.58-.14-3.06 0-.14.06-.46.31-.46.32 0 .74.2 1.37.52.32.14.54.2.8.2h4.32zm0 3.55c.66 0 .83-.03.83-.83 0-1.37 0-1.55-.06-1.72-.09-.26-.32-.26-.77-.26h-3.95c-.69 0-.83.03-.83.83 0 1.37 0 1.52.06 1.69.09.29.31.29.77.29h3.95zm.03 3.72c.57 0 .8 0 .8-.63V7.58c0-.66-.23-.66-.8-.66h-3.98c-.57 0-.8 0-.8.66v1.69c0 .63.23.63.8.63h3.98zM67 8.96c0 .23-.06.32-.34 1.15-.4 1.12-.69 2.17-.69 3.69 0 2.89 1.49 4.98 2.38 4.98.49 0 .6-.14 1.46-1.57.17-.29.66-.97.89-.97.09 0 .14.11.14.23s-.06.49-.09.57c-.32 1.32-.37 1.57-.37 2.18 0 .49.09.86.17 1.14.09.32.23.8.23.95 0 .57-.6.89-1.09.89-1.83 0-5.44-3-5.44-8.47 0-.8.4-4.32.4-5.07 0-.57-.11-1.35-.2-1.66-.2-.72-.23-.8-.23-.97 0-.09.11-.11.17-.11 1.32 0 2.61 2.29 2.61 3.06zm13.97.65c1.46 1.17 2.55 3.21 2.55 5.47 0 .54-.06 1.89-1.43 1.89s-1.4-1.55-1.4-1.92c0-2.38 0-3.58-1.52-5.1-.23-.23-1.37-1.12-1.37-1.29 0-.09.11-.14.26-.14.03 0 1.69.09 2.92 1.09zm24.61-7.95s.06.09.06.14c0 .17-.09.2-.31.37-.09.06-.11.14-.11.23 0 .2 1.83 3.66 4.46 6.01 2.03 1.8 4.35 3.29 7.21 4.41q.92.34.92.54c0 .26-.11.29-1 .49-.6.11-1.37.37-1.8.8-.11.12-.26.26-.37.26s-1.49-.49-4.15-3.15c-3.09-3.09-4.15-4.81-5.38-7.56-.17-.37-.6-1.29-.74-1.29s-.2.09-.77.92c-4.72 6.84-11.28 11.14-12.02 11.14-.14 0-.23-.09-.23-.17 0-.14 2.78-2.61 3.29-3.12 3.92-4.04 6.15-7.73 6.98-9.59.14-.29.6-1.8.69-1.86.14-.09 3.12 1.14 3.29 1.43zm2.58 14.94c.2 0 .43 0 .63-.12.17-.14.92-.97 1.12-.97.17 0 1.86 1.32 1.86 1.8 0 .26-.09.34-.37.6s-.31 1.55-.31 1.98c0 .89.17 4.87.17 5.67s-1.43 1.15-1.83 1.15c-.63 0-.63-.54-.63-.74 0-1.2 0-1.52-.75-1.52h-8.64c-.29 0-.86 0-.86.77s0 .86-.2 1.06c-.23.23-.95.57-1.52.57-.74 0-.74-.6-.74-.74 0-.17.26-5.44.26-6.47 0-.6.03-2.26-.06-2.78 0-.11-.14-.77-.14-.89 0-.09 0-.32.26-.32.23 0 1.43.66 1.72.77.34.17.74.17 1.17.17h8.87zm-4.12-4.47c1.03 0 1.37 0 1.69-.26.23-.2 1.12-1.4 1.37-1.4s2.61 1.83 2.61 2.06c0 .34-.69.34-1.55.34h-5.38c-2.03 0-2.81.03-3.64.09-.09 0-.51.06-.6.06s-.14-.06-.26-.17l-.54-.66c-.11-.11-.11-.14-.11-.2 0-.03.03-.06.09-.06.2 0 1.09.11 1.26.11 1.4.09 2.61.09 3.95.09h1.12zm4.03 11.57c.83 0 .83-.54.83-.89 0-.71.03-3.92.03-4.58 0-.34 0-.89-.8-.89h-8.7c-.83 0-.89.46-.89.89 0 .72-.03 3.92-.03 4.58 0 .37.03.89.86.89h8.7zm24.51-15.54c.74.46.74.92.74 1.12 0 .49-.17.89-.4 1.37-.09.17-.2.4-.2.54 0 .09.06.14.12.14.14 0 .69-.37.83-.43 2.83-1.43 4.38-1.66 5.78-1.66 4.47 0 6.5 2.98 6.5 6.01 0 6.87-9.16 9.1-9.82 9.1-.06 0-.12 0-.12-.06 0-.09 1.8-1.09 2.12-1.32 1.43-.97 5.58-4.12 5.58-8.39 0-3.26-2.38-4.44-4.32-4.44-3.15 0-6.41 1.72-7.5 2.95-.37.43-.54.92-.54 2.86 0 .63.03 4.26.14 5.78.03.23.14 1.17.14 1.34 0 .92-.83 1.66-1.26 1.66-.8 0-.89-1.03-1-2.78-.06-.6-.23-3.32-.92-3.32-.14 0-.52.72-.74 1.17-.43.83-1.03 2-2.06 2-.34 0-.69-.23-.69-.8 0-.49.14-.74.86-1.95.29-.52 1.43-2.49 1.43-2.78 0-.51-.6-1.57-1.12-2.2-.92-1.14-1-1.26-1-1.77 0-.97.77-1.09 1.95-1.26.49-.09.66-.11 2.58-1.89.14-.14.72-.6.74-.69.14-.29.26-1.55.26-2.43 0-2.55-.66-3.49-1.15-4.04-.49-.57-.54-.63-.54-.74 0-.23.69-.37.97-.37.77 0 2.72 1.17 2.72 2.12 0 .43-.37 2.23-.43 2.61-.06.46-.14 1.35-.14 1.66 0 .54.03.57.49.86zm-3.55 3.4c-.26.4-.57.94-1.23 1-.92.06-1.2.08-1.2.46 0 .4 1.03 2.23 1.35 2.23.17 0 .26-.14.57-.6 1.78-2.6 1.78-2.66 1.78-3.69 0-.23 0-.37-.11-.4-.17-.03-.66.17-1.15 1zm-.09 5.96c0 .37.57 1.12.83 1.12.34 0 .34-1.55.34-2.86 0-.11-.06-.17-.14-.17-.23 0-1.03 1.57-1.03 1.92zm42.56-10.4c-.2 1.92-.23 2.12-.23 2.29 0 .14.23.14.31.14.11 0 1.12-.12 1.35-.12.63-.06.89-.09.89-.4 0-.17-.06-.23-.57-.72a.217.217 0 01-.11-.17c0-.11.17-.11.23-.11.29 0 1.6.37 2.06.52 1.8.51 2.23.97 2.23 1.55 0 .74-.83.94-1.4.94s-3.06-.31-3.58-.31c-1.66 0-1.69.06-1.86 1.54-.54 4.24-2.09 5.7-3.12 5.7-.97 0-1.09-.32-1.35-1.15-.14-.43-.37-.92-.54-1.26-.06-.09-.37-.51-.37-.6 0-.06.09-.06.14-.06.31 0 1.6.52 1.86.52.49 0 .77-.29.97-.74.49-1.03.83-2.98.83-3.26 0-.23 0-.37-.43-.37-.6 0-5.78 1.14-6.15 1.77-.2.34-.23.63-.26 1.17-.03.94-.09 3.55-.09 3.64 0 2.69.52 4.04 4.52 4.04.57 0 1.55-.03 2.52-.23.11-.03.97-.2 1.37-.2.8 0 1.55.6 1.55 1.23 0 1.34-2.61 1.34-3.26 1.34-8.19 0-8.19-2.29-8.19-7.73 0-2.4 0-2.69-.52-2.69-.49 0-2.46.89-2.89.89-.63 0-2.95-.54-2.95-2.12 0-.37.12-.4.37-.4.29 0 1.49.11 1.75.11 1.77 0 3.15-.23 3.63-.4.46-.14.49-.4.49-1.46 0-1.55-.14-2.26-.46-3.01-.09-.23-.66-1.23-.66-1.35 0-.26.49-.4.83-.4.69 0 2.46.8 2.46 1.8 0 .17-.06.46-.14.89 0 .03-.14.89-.14 2.2 0 .6 0 .83.37.83.2 0 3.81-.8 4.55-.92 1.77-.29 1.97-.31 2.09-.92.09-.57.14-1.95.14-2.32 0-.86-.09-1.49-.34-1.98-.03-.03-.54-1-.54-1.06 0-.29.49-.32.63-.32 1.75 0 2.43 1.4 2.43 2 0 .06-.4 1.37-.43 1.63z" fill="#fff" stroke="#fff" stroke-linecap="round" stroke-linejoin="round" stroke-width=".44" data-name="レイヤー 1"/></svg>