<svg data-name="Layer 2" xmlns="http://www.w3.org/2000/svg" viewBox="0 0 330.31 103.13"><path d="M8.99 21.39c0 1.08-.72 2.58-1.96 2.58-.77 0-1.03-.31-1.81-1.6-.93-1.6-2.89-3.2-4.7-4.24-.15-.1-.52-.31-.52-.52 0-.77 3.31-.77 3.62-.77 2.22 0 5.37 2.02 5.37 4.55zm-6.1 15.86c-.16-.31-.98-1.4-1.08-1.65-.21-.36-.26-.77-.26-.93 0-.31.21-.41.41-.41.15 0 2.48.83 3 .83 2.79 0 16.84-7.7 25.94-16.07.57-.57 3.57-3.62 3.72-3.62.1 0 .31.1.31.31 0 .1-2.58 8.11-22.84 20.87-3.15 1.96-3.36 2.12-3.77 2.43-1.91 1.5-2.12 1.65-2.69 1.65-1.08 0-1.71-1.19-2.74-3.41zm12.35-26.19c0 1.34-.88 2.43-1.71 2.43-.57 0-.78-.26-2.58-2.38-1.24-1.45-2.27-2.02-4.5-2.79-.72-.26-.77-.26-.77-.46 0-.57 2.38-1.08 3.93-1.08.62 0 1.65.1 2.63.52 1.34.57 3 1.91 3 3.77zm17.31-2.38c0 .62-.67 1.96-1.65 1.96-.77 0-1.24-.57-2.53-2.58-.88-1.29-1.34-1.71-3.31-3.46-.21-.15-.67-.62-.67-.83 0-.31.62-.36.93-.36 3 0 7.23 2.53 7.23 5.27zm5.42-3.51c0 .83-.52 1.65-1.39 1.65-1.08 0-1.81-1.08-2.53-2.27-.67-1.03-2.58-2.53-4.18-3.36-.46-.26-.57-.52-.57-.62 0-.46 1.03-.46 1.96-.46 1.34 0 6.72 1.5 6.72 5.06zm37.36 15.44c0 .83-.72 1.08-1.65 1.4-1.08.36-1.34.57-3.67 2.27-.88.62-4.03 2.79-4.7 2.79-.21 0-.26-.21-.26-.26 0-.57 4.5-5.37 4.5-6.67 0-.36-.36-.41-.57-.41-.26 0-6.46 1.5-7.18 1.65-1.86.46-2.07.52-2.07 1.34s2.69 9.35 4.44 13.79c1.19 3.05 1.45 3.82 1.45 4.75 0 1.08-.52 2.17-1.08 2.17-.52 0-2.63-1.4-3.1-2.89-.26-.83-3.05-12.86-3.77-15.24-.62-2.07-.72-2.32-1.45-2.32-.52 0-4.18.93-5.84 1.65-2.12.88-2.33.98-2.64.98-.52 0-.77-.15-3.05-1.71-.67-.46-1.03-.98-1.03-1.86 0-.31.05-1.29.46-1.29.16 0 .93.31 1.14.36 1.24.41 2.22.41 2.74.41 2.07 0 5.94-.57 7.23-.93.31-.1.72-.36.72-.83 0-.83-.83-4.39-2.53-5.79-.21-.15-1.03-.67-1.19-.77a.388.388 0 01-.1-.26c0-.83 2.12-.83 2.58-.83 2.12 0 3.82.41 3.82 2.07 0 2.53 0 5.32 1.19 5.32 1.08 0 6.56-1.19 7.65-1.6.46-.15 2.58-1.34 3.05-1.34 1.5 0 4.91 2.69 4.91 4.03zm22.43 11.68c-1.34.98-3.98 2.94-5.06 4.24-.98 1.19-1.08 1.29-1.86 1.29-2.79 0-6.61-3.31-6.61-5.37 0-.36.05-2.74.52-2.74.21 0 1.34.88 1.55.98.67.41 2.38 1.19 3.51 1.19 2.53 0 16.22-9.14 24.8-17.62.83-.83 2.27-2.27 2.38-2.27s.26.15.26.26c0 .46-6.04 10.13-19.48 20.05zm-4.24-17c-1.39 0-1.91-.83-3.62-3.41-1.76-2.63-3.25-3.41-4.7-4.24-.21-.1-.46-.26-.46-.46s.41-.46 1.14-.46c5.53 0 9.87 2.94 9.87 5.99 0 1.55-.88 2.58-2.22 2.58zm30.64 17.26c0-.98.46-1.5 1.96-2.43 2.01-1.24 4.65-3.62 5.06-3.98.26-.26.83-.77 1.03-.77s.26.46.26.62c0 2.43-2.43 8.68-5.84 8.68-.41 0-.72-.1-.98-.21-.67-.21-1.5-.88-1.5-1.91zm20.25 3.41c0 .77 0 4.18-2.74 4.18-1.14 0-1.24-.31-2.32-3.31-.62-1.65-.88-2.07-1.91-3.67-.21-.36-.31-.47-.31-.62s.1-.21.21-.21c.36 0 2.07.67 2.43.67.67 0 .93-.57 1.03-1.4.26-2.43.26-7.59.26-10.38 0-2.48-.1-3.41-1.5-3.41-.31 0-6.51.88-9.56 1.65-.31.1-1.76.57-2.07.57-1.14 0-3.72-3.51-3.72-4.55 0-.26.05-.46.36-.46.21 0 .31.05.98.31 1.19.52 3.82.52 4.6.52 1.19 0 6.77-.31 8.32-.36 1.96-.1 2.48-.46 2.48-2.17s-.31-5.12-1.08-6.61c-.1-.26-.98-1.08-.98-1.34 0-.16.57-.52 1.76-.52 3.57 0 4.86 2.27 4.86 2.69 0 .31-.83 1.45-.93 1.71-.46.93-.46 3.46-.46 3.98 0 1.6.67 1.86 2.01 1.86 1.65 0 4.13-.41 5.01-.52.67-.1 3.41-.77 3.98-.77 1.55 0 3.31.77 5.01 1.76.57.36 1.29.77 1.29 1.65 0 .98-1.14 1.03-1.34 1.03-.77 0-4.13-.57-4.86-.67-1.96-.21-5.74-.26-6.15-.26-4.44 0-4.91 0-4.91 2.95 0 2.48.26 13.48.26 15.71zm12.45-3.72c-.88-2.17-2.48-4.86-4.18-6.35-.78-.72-2.07-1.91-2.07-2.17s.26-.26.36-.26c2.74 0 11.06 5.01 11.06 9.35 0 1.19-.62 2.89-2.33 2.84-1.45 0-1.91-1.19-2.84-3.41zm2.53-25.26c1.6.98 2.27 2.22 2.27 2.94 0 1.03-.62 2.02-1.45 2.02-.62 0-1.03-.21-2.79-2.07-1.08-1.14-1.71-1.5-3.88-2.79-.26-.15-.83-.52-.83-.72 0-.15.41-.52.88-.52 2.79 0 3.98 0 5.79 1.14zm6.31-1.04c0 .62-.41 1.55-1.29 1.55-1.08 0-1.76-.77-2.69-1.96-.88-1.03-2.84-2.27-4.5-2.89-.52-.21-.67-.41-.67-.57 0-.36.93-.62 1.91-.62 4.29 0 7.23 2.27 7.23 4.5zm20.04 26.35c-1.34.98-3.98 2.94-5.06 4.24-.98 1.19-1.08 1.29-1.86 1.29-2.79 0-6.61-3.31-6.61-5.37 0-.36.05-2.74.52-2.74.21 0 1.34.88 1.55.98.67.41 2.38 1.19 3.51 1.19 2.53 0 16.22-9.14 24.8-17.62.83-.83 2.27-2.27 2.38-2.27s.26.15.26.26c0 .46-6.04 10.13-19.48 20.05zm-4.23-17c-1.39 0-1.91-.83-3.62-3.41-1.76-2.63-3.25-3.41-4.7-4.24-.21-.1-.46-.26-.46-.46s.41-.46 1.14-.46c5.53 0 9.87 2.94 9.87 5.99 0 1.55-.88 2.58-2.22 2.58zm45.82 1.24c.52.21 2.84 1.4 3.25 1.4 1.08 0 2.58-3.62 3.2-5.11.93-2.22 1.91-5.17 1.91-6.2 0-.46-.16-.83-.36-1.19-.16-.31-.31-.46-.31-.62 0-.26.15-.47.41-.47.46 0 2.07.57 3.46 1.65 1.55 1.24 2.22 3.36 2.22 3.72 0 .41-.16.46-1.29 1.03-.57.31-.72.57-2.07 3.1-.88 1.71-1.86 3.46-2.95 5.17-.26.36-.52.83-.52 1.29 0 .57.46 1.03.88 1.4 4.44 3.93 5.06 6.72 5.06 8.01s-1.08 1.71-1.65 1.71c-1.86 0-2.63-1.34-4.44-4.55-.52-.93-1.5-2.69-2.22-2.69-.46 0-.88.41-1.08.72-9.46 11.83-19.79 16.22-20.25 16.22-.16 0-.36-.05-.36-.26s.98-.98 1.6-1.5c8.78-6.87 12.25-10.9 13.69-12.66 1.24-1.55 3.72-4.75 3.72-5.53 0-1.08-4.75-3.93-6.72-5.01-.98-.52-1.08-.57-1.08-.83 0-.21.1-.41.47-.41.67 0 2.94.57 5.42 1.6zm32.61 2.07c0 2.48-1.81 2.79-2.12 2.79-1.14 0-1.34-.31-3.62-4.24-1.14-1.91-1.96-2.79-4.13-5.01-.1-.1-.31-.31-.31-.46 0-.21.31-.16.41-.16 2.17.47 9.77 1.91 9.77 7.08zm19.32-3.1c-.62.98-2.89 5.79-3.41 6.72-3.77 6.82-8.78 13.02-15.4 17.15-2.74 1.71-5.48 2.84-5.74 2.84-.16 0-.26-.16-.26-.26 0-.21 4.65-4.08 5.48-4.86 12.5-11.42 15.55-24.28 15.55-25.01 0-.88-.62-1.91-1.45-2.63-.05-.05-.26-.26-.26-.41 0-.46 1.14-.46 1.34-.46 1.96 0 2.53.41 3.77 1.45.52.46 2.17 1.91 2.17 3.05 0 .46-1.55 2.07-1.81 2.43zm8.42-7.08c0 1.14-.67 2.07-1.5 2.07-.62 0-.98-.21-2.74-2.07-.98-.98-1.65-1.45-3.93-2.74-.26-.15-.83-.52-.83-.72s.41-.46.88-.52c4.96-.62 8.11 2.38 8.11 3.98zM285.15 0c4.24 0 5.79 2.43 5.79 3.56 0 .77-.46 1.5-1.34 1.5-.98 0-1.34-.31-2.69-1.45-.98-.77-3.2-1.71-4.96-2.02-.52-.1-.78-.31-.78-.46 0-.31.83-.77 1.76-.93.72-.15 1.71-.21 2.22-.21zm25.68 32.29c-1.34.98-3.98 2.94-5.06 4.24-.98 1.19-1.08 1.29-1.86 1.29-2.79 0-6.61-3.31-6.61-5.37 0-.36.05-2.74.52-2.74.21 0 1.34.88 1.55.98.67.41 2.38 1.19 3.51 1.19 2.53 0 16.22-9.14 24.8-17.62.83-.83 2.27-2.27 2.38-2.27s.26.15.26.26c0 .46-6.04 10.13-19.48 20.05zm-4.24-17c-1.39 0-1.91-.83-3.62-3.41-1.76-2.63-3.25-3.41-4.7-4.24-.21-.1-.46-.26-.46-.46s.41-.46 1.14-.46c5.53 0 9.87 2.94 9.87 5.99 0 1.55-.88 2.58-2.22 2.58zM264.9 75.5c-.55 0-1.49 0-1.49 1.16 0 2.32 0 2.81 1.54 2.81h6.67c3.09 0 5.96-.11 7.56-.22.39 0 2.1-.17 2.43-.17.06 0 .22 0 .22.11s0 .11-.28.39l-1.05 1.27c-.22.22-.28.33-.5.33-.17 0-.99-.11-1.16-.11-1.93-.17-5.63-.17-6.95-.17h-7.01c-.77 0-1.49.11-1.49 1.49 0 1.88 0 2.65 1.49 2.65h10.59c3.09 0 5.96-.11 7.56-.22.39 0 2.1-.17 2.43-.17.06 0 .22 0 .22.11s0 .11-.28.39l-1.05 1.27c-.22.22-.28.33-.5.33-.17 0-.99-.11-1.16-.11-1.93-.17-5.63-.17-6.95-.17h-6.12c-.5 0-1.1 0-1.1.44 0 1.32 8.61 6.56 15.89 9.6.44.17 2.54 1.05 2.54 1.27s-5.63-.72-10.59-2.87c-.88-.39-4.91-2.43-5.46-2.43-.72 0-.72.77-.72 1.16 0 3.48.11 3.64.44 3.92.66.66 5.07.99 5.41.99s1.82-.33 2.15-.33c.11 0 .33 0 .33.28 0 .06-1.65 4.63-2.37 4.63-.28 0-1.05-.83-1.21-.94-.44-.17-5.52-1.65-6.56-1.99-3.92-1.32-7.78-2.92-11.64-4.58-.61-.28-.94-.39-1.27-.39-.55 0-.94.28-1.66.83-2.26 1.71-4.08 2.76-8.5 4.41-.94.39-3.36 1.21-3.75 1.21-.55 0-2.15-2.04-2.54-2.37-1.1-.94-2.32-1.54-3.31-1.99-.11-.06-.33-.22-.33-.33 0-.17.5-.17.61-.17 10.98 0 16.33-3.2 16.33-3.7 0-.72-5.08-2.43-6.07-2.65-1.71-.44-1.93-.5-1.93-.83 0-.61 2.76-2.32 2.76-2.87 0-.33-.39-.33-.83-.33h-6.07c-1.71 0-2.92 0-2.92-.72 0-.61 4.3-3.59 4.8-3.59s.66.17 2.04 1.93c.72.94.99.94 3.53.94h10.76c1.49 0 1.49-.77 1.49-2.87 0-1.27-.94-1.27-1.49-1.27h-13.96c-1.71 0-2.92 0-2.92-.72 0-.61 3.25-3.48 3.92-3.48.5 0 .66.17 1.71 1.82.61.94 1.1.94 3.53.94h7.67c1.6 0 1.6-.5 1.6-2.76 0-1.21-1.1-1.21-1.6-1.21h-5.63c-.44 0-1.27 0-1.43.77-.17.83-.22 1.21-1.49 1.21-2.65 0-2.65-2.32-2.65-2.98 0-1.1.11-5.9.06-6.9 0-.88-.22-1.27-.77-1.54-.77-.44-.88-.55-.88-.88 0-.77 3.03-3.03 4.03-3.03.55 0 .61.06 1.54.99.5.44.99.55 1.77.55h18.42c1.05 0 1.6-.06 3.03-.61.28-.11 2.7-1.05 2.76-1.05.11 0 .33 0 .33.22s-.5 1.1-.55 1.32c-.28.88-.39 5.52-.39 6.67 0 .88.11 4.91.11 5.68 0 1.6-.33 2.21-1.43 2.21-1.99 0-2.37-1.1-2.59-1.77-.22-.61-.39-.88-1.49-.88h-6.18zm-6.01-16.83c.66 0 1.21-.11 1.21-1.16 0-.17 0-1.1-.5-1.49-.66-.55-.94-.72-.94-.99 0-.39.44-.66 1.1-.83.72-.22 4.47-1.38 4.58-1.38.22 0 .39.11.39.28 0 .22-.44 1.05-.5 1.27-.22.61-.22 2.21-.22 2.92 0 .94.11 1.38 1.1 1.38h10.59c2.59 0 4.85-.06 7.56-.22.33 0 2.04-.17 2.43-.17.11 0 .22.06.22.11 0 .11-.06.11-.28.39l-1.05 1.27c-.17.22-.28.33-.5.33-.17 0-.99-.11-1.16-.11-.55-.06-2.15-.17-6.95-.17h-35.08c-1.88 0-2.98 0-2.98-.77 0-1.05 4.36-4.25 5.46-4.25.61 0 .77.28 2.7 2.65.77.94 1.05.94 3.53.94h9.27zm-8.5 27.8c-.39 0-.94 0-.94.66 0 .94 3.09 5.19 4.3 5.19s6.23-4.58 6.23-5.35c0-.5-.77-.5-1.05-.5h-8.55zm2.04-21.29c-1.43 0-1.49.55-1.49 1.82s.11 1.88 1.49 1.88h6.01c1.43 0 1.49-.61 1.49-1.88s-.11-1.82-1.49-1.82h-6.01zm6.02 8.83c1.54 0 1.54-.44 1.54-2.37 0-1.32-.88-1.32-1.54-1.32h-5.96c-.61 0-1.49 0-1.49 1.21 0 2.32.39 2.48 1.6 2.48h5.85zm8.27 20.13c0-3.81 0-3.86-.5-4.36-.72-.77-3.75-2.76-4.14-2.76-.5 0-.94.44-1.21.88-1.32 1.88-2.7 3.64-4.14 5.46-.11.17-.28.39-.28.61 0 .55.22.55 2.15 1.1 1.21.33 6.62 1.77 7.17 1.77.94 0 .94-.28.94-2.7zm4.74-25.26c1.54 0 1.54-.94 1.54-1.88s0-1.82-1.54-1.82h-6.56c-1.49 0-1.49.88-1.49 1.82s0 1.88 1.49 1.88h6.56zm-6.56 1.43c-1.49 0-1.43.99-1.49 1.88 0 .83 0 1.82 1.49 1.82h6.34c1.1 0 1.54-.11 1.54-2.48 0-1.1-.72-1.21-1.43-1.21h-6.45zm-47.67.11c.39 0 .5.22.5.44 0 .28-.11.33-1.16.88-2.1 1.16-7.17 4.19-7.17 5.35 0 .83 2.65 4.25 3.97 5.9 1.54 1.88 5.24 6.18 14.62 13.51.66.55 1.71 1.38 1.71 1.6s-.22.28-.39.28c-.5 0-11.53-4.69-21.62-17.32-.22-.33-.66-.77-1.16-.77-.77 0-1.82 1.88-2.37 2.87-1.93 3.42-2.76 4.85-4.74 4.85-.61 0-1.77-.39-1.77-1.82s.66-4.36 5.41-8.55c.44-.39.94-.88.94-1.49 0-.5-.28-.99-.55-1.38a67.27 67.27 0 01-3.14-5.52c-1.43-2.7-1.6-2.98-2.21-3.31-1.21-.61-1.38-.66-1.38-1.1 0-.39.72-2.65 2.37-3.97 1.49-1.16 3.2-1.77 3.7-1.77.28 0 .44.22.44.5 0 .17-.17.33-.33.66-.22.39-.39.77-.39 1.27 0 1.1 1.05 4.25 2.04 6.62.66 1.6 2.26 5.46 3.42 5.46.44 0 2.92-1.27 3.48-1.49 2.65-1.1 5.07-1.71 5.79-1.71zm-30.67 14.23c.17-.06.44-.11.61-.11.28 0 .5.11.5.5 0 .11-.66 2.7-1.65 3.64-.83.83-3.2 2.04-3.86 2.04-.06 0-4.08-.94-4.85-1.05-3.03-.5-14.67-1.77-19.31-1.77-2.37 0-4.41.17-6.23.44-1.32.22-2.59.44-3.03.44-.94 0-3.09-.33-3.09-1.6 0-2.65 6.73-3.75 8.33-3.75 1.32 0 7.61 1.16 9.1 1.38 3.48.5 9.05 1.21 15.61 1.21 3.7 0 4.3-.22 7.89-1.38zm-7.72-16.49c.33 0 .77.11.77.28 0 .11-1.32 1.77-1.49 1.99-.28.39-1.43 1.71-2.98 1.71-.44 0-11.09-1.43-13.24-1.54-6.01-.28-8.05-.39-8.05-1.77 0-1.49 2.37-2.76 4.91-2.76.66 0 4.03.66 4.8.77 2.21.39 10.09 1.49 11.86 1.49.55 0 3.09-.17 3.42-.17zm-47.78 9.16c.33 0 .5.06.5.39 0 1.05-1.99 3.64-3.25 3.64-.28 0-1.65-.66-1.93-.77-1.6-.61-8.55-2.32-9.1-2.32-.28 0-.72 0-.72.83 0 .11 1.21 8.83 1.32 9.87.17 1.21.28 1.82.88 2.1.66.28 13.24 1.21 14.62 1.21.99 0 2.04-.17 3.97-.66.22-.06 1.16-.39 1.38-.39.28 0 .39.11.39.39 0 2.98-4.08 4.91-4.58 4.91-.39 0-2.04-.61-2.43-.72-6.18-1.49-16.05-2.32-20.8-2.32-2.48 0-4.3.28-5.63.61-2.59.61-2.87.66-3.03.66-1.05 0-1.21-.83-1.21-1.38 0-2.04 3.47-3.75 5.74-3.75.88 0 5.24 1.05 6.23 1.05.77 0 .88-.33.88-.77 0-1.6-.88-8.38-1.93-10.59-.17-.28-1.38-1.54-1.38-1.93 0-.77 2.7-3.03 4.3-3.03.28 0 1.49.72 1.77.83.66.22 8.55 2.26 11.31 2.26.44 0 2.54-.11 2.7-.11zm-47.78-.61c3.53 0 5.79-.22 6.73-.5.28-.06 1.6-.66 1.88-.66s.44.33.44.66c0 1.88-2.54 5.3-4.91 5.3-.66 0-3.64-.88-4.3-.99-1.32-.28-13.96-.99-21.57-.99-1.1 0-6.62.11-7.89.11-2.32 0-4.58-.17-4.58-1.71 0-.39.5-2.43 3.86-2.43.28 0 .88.06 1.21.06 8.05.44 27.3 1.16 29.12 1.16z" fill="#040000" stroke-width="0" data-name="レイヤー 1"/></svg>