<svg data-name="Layer 2" xmlns="http://www.w3.org/2000/svg" viewBox="0 0 443.95 85.17"><path d="M161.81 10.56c0 .54-.36 1.28-.97 1.28-.38 0-.51-.15-.89-.79-.46-.79-1.43-1.58-2.32-2.09-.08-.05-.25-.15-.25-.25 0-.38 1.63-.38 1.79-.38 1.1 0 2.65 1 2.65 2.25zm-3.01 7.83c-.08-.15-.49-.69-.54-.82-.1-.18-.13-.38-.13-.46 0-.15.1-.2.2-.2.08 0 1.22.41 1.48.41 1.38 0 8.32-3.8 12.81-7.93.28-.28 1.76-1.79 1.84-1.79.05 0 .15.05.15.15 0 .05-1.28 4.01-11.28 10.31-1.56.97-1.66 1.05-1.86 1.2-.94.74-1.05.82-1.33.82-.54 0-.84-.59-1.35-1.68zm6.09-12.93c0 .66-.43 1.2-.84 1.2-.28 0-.38-.13-1.28-1.17-.61-.71-1.12-.99-2.22-1.38-.36-.13-.38-.13-.38-.23 0-.28 1.17-.54 1.94-.54.31 0 .82.05 1.3.26.66.28 1.48.94 1.48 1.86zm8.55-1.17c0 .31-.33.97-.82.97-.38 0-.61-.28-1.25-1.28-.43-.64-.66-.84-1.63-1.71-.1-.08-.33-.31-.33-.41 0-.15.31-.18.46-.18 1.48 0 3.57 1.25 3.57 2.6zm2.68-1.74c0 .41-.26.82-.69.82-.54 0-.89-.54-1.25-1.12-.33-.51-1.28-1.25-2.07-1.66-.23-.13-.28-.25-.28-.31 0-.23.51-.23.97-.23.66 0 3.32.74 3.32 2.5zm18.44 7.63c0 .41-.36.54-.82.69-.54.18-.66.28-1.81 1.12-.43.31-1.99 1.38-2.32 1.38-.1 0-.13-.1-.13-.13 0-.28 2.22-2.65 2.22-3.29 0-.18-.18-.2-.28-.2-.13 0-3.19.74-3.55.82-.92.23-1.02.26-1.02.66s1.33 4.62 2.19 6.81c.59 1.51.71 1.89.71 2.35 0 .54-.25 1.07-.54 1.07-.26 0-1.3-.69-1.53-1.43-.13-.41-1.5-6.35-1.86-7.53-.31-1.02-.36-1.15-.71-1.15-.26 0-2.07.46-2.88.82-1.05.43-1.15.48-1.3.48-.25 0-.38-.08-1.5-.84-.33-.23-.51-.48-.51-.92 0-.15.03-.64.23-.64.08 0 .46.15.56.18.61.2 1.1.2 1.35.2 1.02 0 2.93-.28 3.57-.46.15-.05.36-.18.36-.41 0-.41-.41-2.17-1.25-2.86-.1-.08-.51-.33-.59-.38a.19.19 0 01-.05-.13c0-.41 1.05-.41 1.28-.41 1.05 0 1.89.2 1.89 1.02 0 1.25 0 2.63.59 2.63.54 0 3.24-.59 3.78-.79.23-.08 1.28-.66 1.5-.66.74 0 2.42 1.33 2.42 1.99zm11.08 5.77c-.66.48-1.96 1.45-2.5 2.09-.49.59-.54.64-.92.64-1.38 0-3.27-1.63-3.27-2.65 0-.18.03-1.35.25-1.35.1 0 .66.43.77.48.33.2 1.17.59 1.73.59 1.25 0 8.01-4.52 12.25-8.7.41-.41 1.12-1.12 1.17-1.12s.13.08.13.13c0 .23-2.99 5-9.62 9.9zm-2.1-8.4c-.69 0-.94-.41-1.79-1.68-.87-1.3-1.61-1.68-2.32-2.09-.1-.05-.23-.13-.23-.23s.2-.23.56-.23c2.73 0 4.87 1.45 4.87 2.96 0 .77-.43 1.28-1.1 1.28zm15.13 8.52c0-.48.23-.74.97-1.2 1-.61 2.3-1.79 2.5-1.96.13-.13.41-.38.51-.38s.13.23.13.31c0 1.2-1.2 4.29-2.88 4.29-.2 0-.36-.05-.48-.1-.33-.1-.74-.43-.74-.94zm10 1.69c0 .38 0 2.07-1.35 2.07-.56 0-.61-.15-1.15-1.63-.31-.82-.43-1.02-.94-1.81-.1-.18-.15-.23-.15-.31s.05-.1.1-.1c.18 0 1.02.33 1.2.33.33 0 .46-.28.51-.69.13-1.2.13-3.75.13-5.13 0-1.22-.05-1.68-.74-1.68-.15 0-3.21.43-4.72.82-.15.05-.87.28-1.02.28-.56 0-1.84-1.73-1.84-2.25 0-.13.03-.23.18-.23.1 0 .15.03.48.15.59.25 1.89.25 2.27.25.59 0 3.34-.15 4.11-.18.97-.05 1.22-.23 1.22-1.07s-.15-2.53-.54-3.27c-.05-.13-.48-.54-.48-.66 0-.08.28-.26.87-.26 1.76 0 2.4 1.12 2.4 1.33 0 .15-.41.71-.46.84-.23.46-.23 1.71-.23 1.96 0 .79.33.92 1 .92.82 0 2.04-.2 2.47-.25.33-.05 1.68-.38 1.96-.38.77 0 1.63.38 2.47.87.28.18.64.38.64.82 0 .48-.56.51-.66.51-.38 0-2.04-.28-2.4-.33-.97-.1-2.83-.13-3.04-.13-2.19 0-2.42 0-2.42 1.45 0 1.22.13 6.66.13 7.76zm6.15-1.84c-.43-1.07-1.22-2.4-2.07-3.14-.38-.36-1.02-.94-1.02-1.07s.13-.13.18-.13c1.35 0 5.46 2.47 5.46 4.62 0 .59-.31 1.43-1.15 1.4-.71 0-.94-.59-1.4-1.68zm1.25-12.48c.79.48 1.12 1.1 1.12 1.45 0 .51-.31.99-.71.99-.31 0-.51-.1-1.38-1.02-.54-.56-.84-.74-1.91-1.38-.13-.08-.41-.26-.41-.36 0-.08.2-.25.43-.25 1.38 0 1.96 0 2.86.56zm3.11-.51c0 .31-.2.77-.64.77-.54 0-.87-.38-1.33-.97-.43-.51-1.4-1.12-2.22-1.43-.25-.1-.33-.2-.33-.28 0-.18.46-.31.94-.31 2.12 0 3.57 1.12 3.57 2.22zm9.9 13.02c-.66.48-1.96 1.45-2.5 2.09-.48.59-.54.64-.92.64-1.38 0-3.27-1.63-3.27-2.65 0-.18.03-1.35.25-1.35.1 0 .66.43.77.48.33.2 1.17.59 1.74.59 1.25 0 8.01-4.52 12.25-8.7.41-.41 1.12-1.12 1.17-1.12s.13.08.13.13c0 .23-2.99 5-9.62 9.9zm-2.09-8.4c-.69 0-.94-.41-1.79-1.68-.87-1.3-1.61-1.68-2.32-2.09-.1-.05-.23-.13-.23-.23s.2-.23.56-.23c2.73 0 4.87 1.45 4.87 2.96 0 .77-.43 1.28-1.1 1.28zm22.63.61c.26.1 1.4.69 1.61.69.54 0 1.28-1.79 1.58-2.53.46-1.1.94-2.55.94-3.06 0-.23-.08-.41-.18-.59-.08-.15-.15-.23-.15-.31 0-.13.08-.23.2-.23.23 0 1.02.28 1.71.82.77.61 1.1 1.66 1.1 1.84 0 .2-.08.23-.64.51-.28.15-.36.28-1.02 1.53-.43.84-.92 1.71-1.45 2.55-.13.18-.26.41-.26.64 0 .28.23.51.43.69 2.19 1.94 2.5 3.32 2.5 3.95s-.54.84-.82.84c-.92 0-1.3-.66-2.19-2.25-.25-.46-.74-1.33-1.1-1.33-.23 0-.43.2-.54.36-4.67 5.84-9.77 8.01-10 8.01-.08 0-.18-.03-.18-.13s.48-.48.79-.74c4.34-3.39 6.05-5.38 6.76-6.25.61-.77 1.84-2.35 1.84-2.73 0-.54-2.35-1.94-3.32-2.47-.49-.26-.54-.28-.54-.41 0-.1.05-.2.23-.2.33 0 1.45.28 2.68.79zm16.09 1.02c0 1.22-.89 1.38-1.05 1.38-.56 0-.66-.15-1.79-2.09-.56-.94-.97-1.38-2.04-2.47-.05-.05-.15-.15-.15-.23 0-.1.15-.08.2-.08 1.07.23 4.82.94 4.82 3.5zm9.54-1.53c-.31.48-1.43 2.86-1.68 3.32-1.86 3.37-4.34 6.43-7.6 8.47-1.35.84-2.7 1.4-2.83 1.4-.08 0-.13-.08-.13-.13 0-.1 2.3-2.02 2.71-2.4 6.17-5.64 7.68-11.99 7.68-12.35 0-.43-.31-.94-.71-1.3-.03-.03-.13-.13-.13-.2 0-.23.56-.23.66-.23.97 0 1.25.2 1.86.71.25.23 1.07.94 1.07 1.51 0 .23-.77 1.02-.89 1.2zm4.16-3.49c0 .56-.33 1.02-.74 1.02-.31 0-.48-.1-1.35-1.02-.49-.48-.82-.71-1.94-1.35-.13-.08-.41-.26-.41-.36s.2-.23.43-.26c2.45-.31 4.01 1.17 4.01 1.96zM298.16 0c2.09 0 2.86 1.2 2.86 1.76 0 .38-.23.74-.66.74-.49 0-.66-.15-1.33-.71-.48-.38-1.58-.84-2.45-1-.25-.05-.38-.15-.38-.23 0-.15.41-.38.87-.46.36-.08.84-.1 1.1-.1zm12.68 15.95c-.66.48-1.96 1.45-2.5 2.09-.49.59-.54.64-.92.64-1.38 0-3.27-1.63-3.27-2.65 0-.18.03-1.35.25-1.35.1 0 .66.43.77.48.33.2 1.17.59 1.73.59 1.25 0 8.01-4.52 12.25-8.7.41-.41 1.12-1.12 1.17-1.12s.13.08.13.13c0 .23-2.99 5-9.62 9.9zm-2.09-8.4c-.69 0-.94-.41-1.79-1.68-.87-1.3-1.61-1.68-2.32-2.09-.1-.05-.23-.13-.23-.23s.2-.23.56-.23c2.73 0 4.87 1.45 4.87 2.96 0 .77-.43 1.28-1.1 1.28zM37.61 83.35c-1.05 0-1.82-.77-1.82-1.92-.1-2.21-.1-2.88-.86-2.88-.58 0-2.5 1.92-2.97 2.21-1.25.86-5.95 4.41-11.7 4.41-2.78 0-12.95-.96-13.62-14.87-.1-2.01.1-11.8.1-14.01s0-12.66-.48-13.91c-.38-1.06-1.44-1.25-2.4-1.25-.38 0-2.4.19-2.88.19-.67 0-.96-.48-.96-.86 0-.77.38-.86 3.84-1.82 2.88-.86 8.54-2.4 8.73-2.4.29 0 .77.19.86.77 0 .1.1 24.94.1 27.72 0 5.66 0 8.15.96 10.65 1.53 3.93 4.99 5.66 8.35 5.66 4.12 0 10.17-3.45 11.9-7 1.25-2.4 1.34-17.08 1.34-20.43 0-9.5 0-12.47-3.65-12.47-.48 0-2.78.29-3.26.29-.96 0-1.15-.58-1.15-.77 0-1.06.67-1.25 7-2.78 1.63-.38 6.33-1.63 6.71-1.63s.77.38.86.77c.19.77 0 16.31 0 19.38 0 2.49.19 14.77.19 17.56 0 2.01 0 6.24 4.8 6.24 1.15 0 2.59 0 2.59 1.63 0 .67-.48 1.53-1.63 1.53H37.62zm24.84 0c-.67 0-2.49 0-2.49-1.53s.96-1.54 3.65-1.54c1.15 0 3.17-.1 4.41-2.11.86-1.34 1.06-2.49 1.06-15.92 0-3.07 0-17.08-.58-18.71-.29-1.06-1.44-1.82-2.97-1.82-.67 0-3.93.86-4.6.86a.96.96 0 01-.96-.96c0-.77.48-.86 4.7-2.21 1.34-.38 10.07-3.17 10.55-3.17.29 0 .38.1.48.29v4.22c0 5.08 0 5.66.96 5.66.48 0 .67-.19 2.01-1.92.77-1.06 6.52-8.25 13.53-8.25 3.55 0 5.66 2.21 5.66 5.47s-2.49 5.08-4.8 5.08c-2.01 0-2.97-1.06-3.74-2.01-.58-.58-1.44-1.63-2.78-1.63-2.4 0-6.33 2.88-8.15 6.24-2.3 4.12-2.69 6.33-2.69 20.53 0 8.73.29 10.36 7 10.36.77 0 2.01.29 2.01 1.54 0 1.53-1.73 1.53-2.49 1.53H62.46zm82.21-34.05c.1 3.26-.1 18.9-.1 22.45 0 4.51 0 8.54 3.84 8.54.96 0 2.49-.58 3.07-1.06.1-.1.67-.58.77-.58.19 0 .48.1.48.58 0 1.73-3.93 5.95-8.06 5.95-3.07 0-5.56-2.3-6.33-4.32-.19-.67-.48-1.54-1.34-1.54-.58 0-1.44.67-2.3 1.34-3.74 2.88-8.44 4.51-12.66 4.51-5.76 0-12.18-3.07-12.18-10.17 0-11.42 16.12-16.31 21.68-17.94 5.76-1.73 6.33-1.92 6.33-6.91 0-8.25-4.61-11.32-9.02-11.32-6.33 0-7.39 4.51-7.67 5.85-.67 2.88-1.34 6.33-5.08 6.33-2.49 0-4.51-2.01-4.51-4.7 0-5.66 9.31-10.07 17.36-10.07 7.58 0 15.54 3.45 15.73 13.05zm-7.49 25.71c.48-1.15.67-1.53.67-12.85 0-1.92 0-3.55-2.01-3.55-3.45 0-17.84 6.43-17.84 15.45 0 2.59 1.63 7 8.25 7 3.26 0 9.59-2.88 10.94-6.04zm27.44-11.23c-1.73 0-3.84-.58-3.84-3.07 0-3.07 3.17-3.07 3.84-3.07h14.49c3.84 0 3.84 2.59 3.84 3.07 0 3.07-2.78 3.07-3.84 3.07h-14.49zm86.53 19.57c-1.73 0-1.82-1.15-1.82-1.53 0-1.44 1.15-1.54 2.59-1.54 4.99-.19 4.99-2.78 4.99-15.73s-.19-14.49-.96-17.75c-.86-3.45-3.36-6.43-7.58-6.43-5.37 0-11.7 4.8-12.95 8.06-.58 1.54-.58 15.25-.58 17.94 0 9.31 0 10.36.96 11.8.96 1.44 2.21 2.01 3.93 2.11 2.78.1 3.65.1 3.65 1.54 0 1.53-1.34 1.53-2.21 1.53h-19.28c-.86 0-2.3 0-2.3-1.53 0-.58.29-1.15.77-1.34.48-.29 3.36-.19 4.03-.29 3.84-.77 3.84-2.78 3.84-16.12s0-15.06-1.25-18.61c-.77-2.3-3.26-5.08-7.19-5.08-4.12 0-8.54 2.69-10.65 4.8-2.3 2.3-2.49 2.49-2.49 18.9 0 13.33 0 16.02 4.99 16.21 1.44 0 2.88.1 2.88 1.54s-1.34 1.53-2.11 1.53h-18.13c-.48 0-1.92 0-1.92-1.53s1.25-1.54 2.88-1.54c2.4 0 3.84-1.63 4.22-2.78.67-2.01.67-15.92.67-19.19 0-2.69 0-13.14-.58-14.77-.29-.96-1.44-2.4-3.55-2.4-.38 0-2.4.29-2.88.29-.19 0-.96 0-.96-.67 0-.77.29-.86 4.7-2.11 2.21-.58 8.25-2.21 9.02-2.4.96 0 .96.48.96 2.78 0 2.49.1 3.17.96 3.17.38 0 2.3-1.44 2.88-1.82 2.4-1.73 6.62-4.12 11.99-4.12 7.77 0 9.79 4.32 10.74 6.24.19.38.67 1.34 1.25 1.34.48 0 .67-.19 2.21-1.54 2.97-2.59 7.67-6.04 14.49-6.04s9.69 3.07 10.94 7.39c1.15 4.03 1.15 5.85 1.15 21.97 0 11.51 0 14.68 5.37 14.68.67 0 2.21 0 2.21 1.63 0 .96-.86 1.44-1.82 1.44h-18.04zm43.45-25.13c-1.25 0-3.07 0-3.07 3.07 0 11.7 7.96 19.76 15.92 19.76 4.41 0 8.63-2.59 11.61-5.37.58-.48 2.78-3.74 3.65-3.74.48 0 .96.48.96 1.25 0 2.11-6.72 11.99-19.38 11.99-13.43 0-21.01-10.65-21.01-24.56 0-15.92 9.88-24.37 20.34-24.37 14.87 0 19.09 15.73 19.09 19.76 0 1.73-.96 2.21-2.88 2.21h-25.23zm17.65-3.17c2.11 0 3.17-.48 3.17-2.78 0-3.65-3.45-13.43-11.51-13.43-8.92 0-11.7 11.99-11.7 14.1s1.63 2.11 2.49 2.11h17.56zm52.28 28.3c-1.73 0-1.73-1.34-1.73-1.53 0-1.34 1.25-1.54 1.73-1.54 2.49-.29 3.45-.38 4.6-2.01.96-1.53.96-3.17.96-18.61 0-9.11 0-12.66-2.01-15.73-2.11-3.26-5.18-3.55-6.33-3.55-3.07 0-7.1 1.63-9.79 4.32-2.88 2.97-2.88 4.41-2.88 15.45 0 2.49 0 14.2.29 15.92.58 3.07 2.21 4.13 4.7 4.22.96.1 2.59.1 2.59 1.54 0 .19 0 1.53-1.92 1.53h-17.84c-1.92 0-1.92-1.34-1.92-1.44 0-1.63 1.15-1.63 2.59-1.63 2.4 0 3.84-1.54 4.32-2.88.77-2.21.77-14.97.77-18.32 0-15.54-.1-17.94-4.32-17.94-.38 0-2.4.38-2.78.38s-.96-.1-.96-.86.38-.86 3.84-1.63c1.54-.38 9.59-2.78 9.88-2.78.96 0 .96.38.96 4.22 0 1.34 0 2.11.67 2.11s3.36-2.49 3.93-2.88c3.84-2.49 7.2-3.45 10.74-3.45 6.91 0 9.79 3.74 10.75 6.43 1.34 3.74 1.34 5.37 1.34 20.24 0 2.88 0 12.76.67 14.49.19.67 1.15 2.78 4.32 2.88 1.54 0 2.69.1 2.69 1.63 0 1.44-1.15 1.44-1.92 1.44h-17.94zm66.86 0c-1.05 0-1.82-.77-1.82-1.92-.1-2.21-.1-2.88-.86-2.88-.58 0-2.5 1.92-2.97 2.21-1.25.86-5.95 4.41-11.7 4.41-2.78 0-12.95-.96-13.62-14.87-.1-2.01.1-11.8.1-14.01s0-12.66-.48-13.91c-.38-1.06-1.44-1.25-2.4-1.25-.38 0-2.4.19-2.88.19-.67 0-.96-.48-.96-.86 0-.77.38-.86 3.84-1.82 2.88-.86 8.54-2.4 8.73-2.4.29 0 .77.19.86.77 0 .1.1 24.94.1 27.72 0 5.66 0 8.15.96 10.65 1.53 3.93 4.99 5.66 8.35 5.66 4.12 0 10.17-3.45 11.9-7 1.25-2.4 1.34-17.08 1.34-20.43 0-9.5 0-12.47-3.65-12.47-.48 0-2.78.29-3.26.29-.96 0-1.15-.58-1.15-.77 0-1.06.67-1.25 7-2.78 1.63-.38 6.33-1.63 6.71-1.63s.77.38.86.77c.19.77 0 16.31 0 19.38 0 2.49.19 14.77.19 17.56 0 2.01 0 6.24 4.8 6.24 1.15 0 2.59 0 2.59 1.63 0 .67-.48 1.53-1.63 1.53h-10.94z" fill="#fff" stroke-width="0" data-name="レイヤー 1"/></svg>